<?xml version="1.0" encoding="UTF-8" standalone="no"?>
<!-- Created with Inkscape (http://www.inkscape.org/) -->

<svg
   width="1280"
   height="1053.9575"
   viewBox="0 0 1279.9999 1053.9576"
   version="1.1"
   id="svg5"
   inkscape:version="1.4.2 (f4327f4, 2025-05-13)"
   xml:space="preserve"
   sodipodi:docname="51.svg"
   xmlns:inkscape="http://www.inkscape.org/namespaces/inkscape"
   xmlns:sodipodi="http://sodipodi.sourceforge.net/DTD/sodipodi-0.dtd"
   xmlns="http://www.w3.org/2000/svg"
   xmlns:svg="http://www.w3.org/2000/svg"><sodipodi:namedview
     id="namedview7"
     pagecolor="#ffffff"
     bordercolor="#666666"
     borderopacity="1.0"
     inkscape:showpageshadow="2"
     inkscape:pageopacity="0.0"
     inkscape:pagecheckerboard="0"
     inkscape:deskcolor="#d1d1d1"
     inkscape:document-units="px"
     showgrid="false"
     showborder="false"
     inkscape:zoom="0.37276506"
     inkscape:cx="508.3631"
     inkscape:cy="599.57336"
     inkscape:window-width="1920"
     inkscape:window-height="991"
     inkscape:window-x="-9"
     inkscape:window-y="-9"
     inkscape:window-maximized="1"
     inkscape:current-layer="layer1" /><defs
     id="defs2"><clipPath
       clipPathUnits="userSpaceOnUse"
       id="clipPath8006"><path
         inkscape:connector-curvature="0"
         id="path8008"
         d="m -1244.8456,-140.77945 h 33.9355 c 11.5456,0 20.8405,9.29479 20.8405,20.84039 v 31.873282 c 0,11.545575 -9.2949,20.840392 -20.8405,20.840392 h -33.9355 c -11.5456,0 -20.8405,-9.294817 -20.8405,-20.840392 v -31.873282 c 0,-11.5456 9.2949,-20.84039 20.8405,-20.84039 z"
         style="opacity:0.521;fill:#ff0000;fill-opacity:1;stroke:none;stroke-width:1.61448;stroke-linecap:round;stroke-linejoin:round;stroke-miterlimit:4;stroke-dasharray:none" /></clipPath><clipPath
       clipPathUnits="userSpaceOnUse"
       id="clipPath8001"><path
         style="opacity:0.521;fill:#ff0000;fill-opacity:1;stroke:none;stroke-width:1.59706;stroke-linecap:round;stroke-linejoin:round;stroke-miterlimit:4;stroke-dasharray:none"
         d="m -2936.6731,-1508.8075 h 33.5693 c 11.421,0 20.6155,9.1945 20.6155,20.6155 v 31.5293 c 0,11.421 -9.1945,20.6155 -20.6155,20.6155 h -33.5693 c -11.421,0 -20.6156,-9.1945 -20.6156,-20.6155 v -31.5293 c 0,-11.421 9.1946,-20.6155 20.6156,-20.6155 z"
         id="path8003"
         inkscape:connector-curvature="0" /></clipPath></defs><g
     inkscape:label="Layer 1"
     inkscape:groupmode="layer"
     id="layer1"
     transform="translate(683.96428,200.44269)"><path
       style="fill:#000000;stroke-width:0.999997"
       d="m -148.96383,853.14186 c -12.79907,-0.77235 -23.16938,-2.68687 -28.03298,-5.17495 -8.59677,-4.398 25.89207,-8.06352 56.0354,-5.95574 10.59627,0.74082 21.085656,1.98143 23.309722,2.75678 l 4.043786,1.4096 -3.15215,1.6517 c -8.358418,4.3794 -30.437148,6.62623 -52.203778,5.31261 z m -26.68975,-25.51776 c -14.63675,-1.76585 -24.56018,-3.80714 -24.56018,-5.05214 0,-1.32217 8.71445,-4.20924 16.40441,-5.43446 4.38379,-0.69861 14.72054,-2.13504 22.97058,-3.19224 36.87164,-4.72528 37.4144,-7.78679 1.87498,-10.57714 -9.28126,-0.72885 -20.25003,-1.88203 -24.37505,-2.56278 -4.12502,-0.68075 -16.78129,-1.82699 -28.12501,-2.54697 -22.12309,-1.40447 -40.00155,-3.28415 -41.03161,-4.3142 -2.4109,-2.41091 10.04496,-4.00638 43.70021,-5.59705 28.50552,-1.34739 41.79541,-3.52122 40.74751,-6.66482 -0.27171,-0.81521 -4.61926,-3.00486 -9.66125,-4.86605 -15.14722,-5.59116 -16.01834,-8.51533 -3.53276,-11.85752 11.00596,-2.94605 55.6071,-3.62189 76.6529,-1.16161 29.913301,3.49694 31.903182,5.13197 12.236207,10.05445 -16.434877,4.11348 -25.589377,7.88353 -22.861127,9.41466 4.67088,2.62147 25.475859,5.1151 51.928458,6.22414 28.015449,1.17435 37.358921,2.38557 32.572711,4.22218 -3.109396,1.19326 -26.234319,3.08716 -56.079449,4.59285 -25.78465,1.3009 -36.82674,3.34347 -38.05902,7.0402 -0.28015,0.84098 3.71586,2.53585 9.89596,4.19749 11.6058,3.12009 14.14956,4.22058 18.129431,7.84355 l 2.762981,2.51533 -2.937632,2.31086 c -5.32641,4.18979 -17.55193,6.17091 -41.33847,6.69903 -14.799,0.32867 -27.57071,-0.11245 -37.31478,-1.28776 z m 93.784233,-4.79294 c -5.978942,-2.24074 -6.869509,-3.11602 -4.598092,-4.51985 5.297335,-3.274 33.188497,-2.31492 36.769791,1.26445 3.583432,3.58151 -23.884573,6.36095 -32.171699,3.2554 z m 60.405625,-58.30713 c -9.281265,-0.49892 -18.56253,-1.36469 -20.624986,-1.92402 l -3.750065,-1.01669 4.375023,-0.97223 c 15.611003,-3.46917 82.609074,-4.46406 88.244166,-1.31041 2.215195,1.23976 2.136313,1.42553 -1.133945,2.66892 -6.756531,2.56886 -41.935106,3.90781 -67.110193,2.55443 z m -175.724438,-8.06094 c -23.81391,-2.30925 -38.38577,-4.54743 -37.19411,-5.7128 1.20203,-1.17552 15.09539,-2.69158 52.61945,-5.74187 14.64092,-1.19016 25.86824,-2.6096 25.00001,-3.1607 -0.86684,-0.55024 -3.54474,-1.01412 -5.95094,-1.0309 -5.49389,-0.0385 -31.33103,-5.83871 -32.8721,-7.37989 -1.84398,-1.84398 4.03887,-4.82779 12.24701,-6.21163 4.12502,-0.6955 14.66902,-1.95771 23.43115,-2.80509 15.44031,-1.49319 19.4144,-2.73359 9.93444,-3.10085 -67.45404,-2.61281 -110.72928,-1.75217 -163.31857,3.24824 -17.31828,1.64657 -35.75511,2.48786 -54.37514,2.48081 -28.0876,-0.0128 -73.00395,-2.54184 -87.84976,-4.95103 -4.30224,-0.69828 -8.38482,-1.29096 -9.07241,-1.31693 -3.43422,-0.1304 3.53287,-2.35201 11.24998,-3.58718 16.4912,-2.63963 59.79198,-7.63437 67.39718,-7.77407 l 7.60285,-0.13992 -5.62494,-0.96613 c -3.09379,-0.53133 -10.37246,-1.63887 -16.17504,-2.46103 -12.1413,-1.72053 -33.77464,-6.99275 -35.41244,-8.63044 -1.66698,-1.66698 9.25593,-4.98277 23.46247,-7.12208 13.59611,-2.0476 21.87501,-4.16564 21.87501,-5.59661 0,-1.93559 -39.74835,-5.6585 -79.37505,-7.43429 -28.95337,-1.29738 -49.87454,-3.14841 -52.26171,-4.62364 -4.82031,-2.9791 10.9476,-3.49002 126.84574,-4.10909 67.14642,-0.3586 122.43809,-1.00622 122.87044,-1.439 2.35628,-2.35831 -56.33455,-6.04468 -96.20442,-6.04232 l -16.25007,8.5e-4 -14.46006,-14.92341 c -8.98177,-9.26961 -15.93059,-17.68415 -18.3416,-22.21073 -6.57301,-12.34032 -19.07333,-46.1124 -19.07333,-51.53008 0,-9.11111 0.94422,-9.22932 24.60677,-3.08172 58.08482,15.09101 132.46747,25.75131 192.26852,27.55553 l 25.00001,0.75429 4.06249,-12.43192 c 3.40643,-10.4243 4.06612,-14.33939 4.08483,-24.24273 0.0128,-6.49605 0.55324,-16.86134 1.20246,-23.03407 0.94208,-8.95772 0.81147,-12.30975 -0.64709,-16.60621 -2.4855,-7.32024 -2.25485,-17.49379 0.69925,-30.85732 2.06149,-9.32476 2.473,-15.89285 2.473,-39.4606 0,-37.11993 0.13938,-37.6022 15.4914,-53.58463 6.739,-7.01583 11.36071,-12.83284 11.10387,-13.97545 -0.25589,-1.13886 -2.64167,-2.44563 -5.7051,-3.125 -6.14066,-1.36182 -6.67263,-3.40953 -1.72823,-6.65296 3.25561,-2.13567 3.55382,-2.98786 3.74996,-10.71448 0.18876,-7.4359 0.59855,-8.72568 3.58931,-11.29691 3.95539,-3.40087 15.92813,-8.1284 20.58576,-8.1284 4.66735,0 10.66628,4.14084 13.39859,9.24856 1.97555,3.69331 3.69448,4.85664 10.54315,7.13576 l 8.1827,2.723 -3.49376,3.00519 c -1.92169,1.65287 -5.13091,3.33257 -7.1317,3.73285 -4.62203,0.92435 -5.21546,1.95376 -3.41059,5.91524 1.27888,2.80659 1.0666,3.58835 -1.734,6.38917 -2.23732,2.23721 -3.19127,4.53353 -3.19127,7.68226 0,4.66319 -2.02131,7.00076 -5.24999,6.07108 -1.03123,-0.29693 -3.41551,0.71623 -5.29829,2.25164 l -3.42332,2.79152 6.42668,7.94274 c 4.02797,4.97796 7.91175,11.7299 10.40559,18.08935 l 3.97902,10.14661 6.90071,-0.0235 c 6.58424,-0.0224 7.23848,-0.33091 14.267568,-6.73718 4.943545,-4.50532 10.510658,-11.77073 16.92334,-22.08589 22.949969,-36.91685 40.962575,-60.28857 63.830653,-82.82146 22.4870321,-22.15772 39.068767,-34.35566 63.081371,-46.40483 30.140543,-15.12403 51.863878,-18.03687 69.631718,-9.33695 7.99576,3.9152 19.36032,14.61451 24.13435,22.72186 2.99994,5.09436 3.37821,5.31241 9.21553,5.31241 4.80802,0 6.36854,-0.52545 7.42531,-2.49994 0.7451,-1.39239 2.61719,-2.50005 4.22517,-2.50005 3.5751,0 5.96708,-2.65235 9.3004,-10.31249 1.42115,-3.26555 3.1234,-5.93747 3.78288,-5.93747 0.65938,0 2.85362,2.06256 4.87589,4.58324 4.80032,5.98375 7.07815,5.06218 11.34404,-4.58976 1.824,-4.12694 3.86229,-7.32152 4.52915,-7.09931 0.66729,0.22232 2.15833,3.1778 3.31365,6.56756 2.42512,7.11534 6.51882,9.95026 12.4781,8.64145 3.18817,-0.70031 4.35065,-2.14647 7.64164,-9.50669 2.13482,-4.77445 4.4631,-8.48679 5.17399,-8.24993 0.7109,0.23697 3.53063,4.75596 6.26615,10.04208 2.7354,5.28621 5.35986,9.61143 5.83197,9.61143 0.47211,0 3.45057,-5.62505 6.61854,-12.50001 5.25747,-11.40913 8.36847,-15.38109 8.36847,-10.68402 0,2.94137 2.78136,8.18387 4.34167,8.18387 2.12948,0 7.33478,-6.19164 9.80105,-11.65817 1.18707,-2.63077 2.84977,-4.55769 3.69513,-4.28182 0.84546,0.27576 2.85554,3.27186 4.46694,6.65819 3.35288,7.04598 6.13713,10.53183 8.41208,10.53183 0.86865,0 2.82764,-3.79678 4.35343,-8.43741 3.65002,-11.10131 7.22843,-18.08807 8.96724,-17.50843 0.77171,0.25717 2.93271,4.24377 4.80224,8.85886 3.83354,9.46361 5.63958,12.087 8.32197,12.087 1.28433,0 1.5726,-0.67359 0.93621,-2.18741 -2.87521,-6.84054 -1.52547,-11.56251 3.3051,-11.56251 2.827,0 2.89605,-0.88095 0.5154,-6.57857 -1.74116,-4.16724 -1.67949,-4.56058 1.24842,-7.96519 1.69391,-1.96968 4.94386,-9.17117 7.22223,-16.00316 2.27825,-6.83221 4.77798,-12.63394 5.55482,-12.89292 0.80591,-0.26849 1.7574,1.5772 2.21498,4.297 1.48731,8.83748 5.49839,22.61177 8.6795,29.80471 2.68635,6.07449 3.44117,6.91215 5.0359,5.5887 1.03165,-0.85626 1.87572,-1.97727 1.87572,-2.49117 0,-0.5139 1.91357,-5.0856 4.25211,-10.15933 l 4.25221,-9.22525 5.20809,10.991 c 5.42944,11.45819 11.51078,19.63416 14.60414,19.63416 2.43506,0 9.18347,-3.55736 9.18347,-4.84083 0,-0.56478 -1.12497,-2.32379 -2.50005,-3.90922 -3.19875,-3.6885 -3.14702,-4.28845 0.58114,-6.73131 3.9696,-2.60094 5.24164,-5.01419 10.61893,-20.14378 2.44339,-6.87496 4.91875,-12.4999 5.50074,-12.4999 0.58177,0 2.96852,5.8401 5.30407,12.97799 6.46772,19.76852 11.19354,25.59077 16.24301,20.01136 1.99234,-2.20162 1.99726,-2.52195 0.0706,-4.65036 -2.77913,-3.07081 -2.62094,-4.67729 1.08253,-10.99688 l 3.15161,-5.37771 -2.47642,-4.62022 c -2.82775,-5.27617 -2.43516,-6.71922 1.82817,-6.71922 4.01567,0 5.10088,-2.41411 7.55389,-16.80577 2.02954,-11.90679 2.01169,-12.59652 -0.76038,-29.25682 -1.56159,-9.3843 -3.23242,-17.5158 -3.71319,-18.06968 -1.04309,-1.20171 -1.41644,-0.21056 -10.57426,28.0612 -3.92909,12.12965 -7.76638,22.67654 -8.52729,23.43745 -1.56192,1.56192 -7.03668,1.81705 -9.16369,0.42701 -0.77278,-0.50525 -2.54804,-2.80851 -3.94492,-5.11841 -2.3068,-3.81462 -2.65246,-3.98671 -3.76781,-1.87498 -0.67562,1.27867 -2.47984,6.82494 -4.0098,12.32504 -1.52984,5.49988 -3.58984,11.57395 -4.57789,13.49799 -1.69028,3.29185 -2.21583,3.47601 -8.9202,3.125 l -7.12411,-0.37303 -4.25232,-20.93314 c -4.69034,-23.08986 -5.77287,-24.3588 -9.51022,-11.14972 -1.1023,3.89553 -2.29247,8.07015 -2.64465,9.27709 -0.35241,1.20674 -2.05797,3.87855 -3.79047,5.93747 -5.10516,6.06723 -11.4412,4.91971 -28.0224,-5.07576 -4.52103,-2.72525 -19.98977,-10.19812 -34.37502,-16.60642 -14.38535,-6.40809 -29.95189,-13.96166 -34.59252,-16.78535 -4.64063,-2.82369 -8.43751,-4.7006 -8.43751,-4.17088 0,1.78125 35.23308,34.01962 42.08987,38.51243 1.64347,1.07666 2.80969,2.13621 2.59154,2.35436 -0.21805,0.21805 -4.79262,-0.7297 -10.16595,-2.10617 -5.37312,-1.37647 -10.29839,-2.32635 -10.94483,-2.11098 -0.64655,0.21548 5.19483,6.6769 12.98056,14.35863 l 14.15619,13.96668 -10.68627,5.07833 c -16.85002,8.00751 -25.50098,6.80826 -26.48753,-3.67161 l -0.41172,-4.37502 -4.65645,7.08146 c -6.25888,9.51791 -10.93136,12.6661 -19.74586,13.30378 -8.01831,0.57996 -14.27355,-1.84826 -15.61025,-6.05953 -0.76498,-2.41016 -1.16185,-2.25977 -6.13404,2.32325 -14.35232,13.2296 -22.7039,14.07122 -43.47606,4.38037 l -9.62565,-4.49046 -9.56666,4.54305 c -5.26153,2.49865 -10.44139,4.54315 -11.51089,4.54315 -2.029,0 -13.60487,-5.96088 -53.421087,-27.5086 C 67.348432,213.73044 51.812248,205.52401 45.886001,202.56297 35.946216,197.59645 23.258628,189.5341 8.077089,178.53722 l -6.0837959,-4.40687 0.8868261,4.27626 c 0.487717,2.35211 3.0946458,9.84466 5.7930683,16.65025 2.6987435,6.8057 4.6885175,12.59192 4.4222665,12.85817 -0.556124,0.55602 -18.9533027,-7.21346 -42.997117,-18.15861 -9.109394,-4.14661 -16.562495,-7.08167 -16.562495,-6.52234 0,1.82036 32.964342,34.16776 45.92694521,45.06727 6.94550389,5.83999 12.51058579,10.73586 12.36682579,10.87962 -0.533036,0.53304 -40.047301,-8.47332 -50.996936,-11.62354 -13.429371,-3.86347 -22.493121,-7.55144 -43.546844,-17.719 -8.59378,-4.15024 -15.746107,-7.43076 -15.894036,-7.28999 -0.301309,0.28666 4.980421,14.1083 7.872733,20.6019 1.033152,2.31951 1.627647,4.46801 1.321207,4.77434 -0.893132,0.89314 -12.754497,-4.49323 -28.924937,-13.1349 -18.89035,-10.09509 -27.38077,-15.16476 -74.03934,-44.20877 -20.78414,-12.93759 -38.0866,-23.52307 -38.45023,-23.52307 -0.84247,0 9.86283,21.35908 13.95204,27.83685 1.70108,2.69468 2.87222,5.12012 2.60223,5.39001 -0.77161,0.7716 -57.84005,-33.52902 -62.10047,-37.32526 -2.09976,-1.87081 -5.14075,-3.40151 -6.75792,-3.40151 -1.61717,0 -6.26261,-1.14442 -10.32329,-2.54312 -4.06078,-1.39859 -13.85199,-3.69983 -21.75818,-5.11392 -7.90629,-1.41409 -14.56374,-2.7555 -14.79472,-2.98071 -0.23077,-0.22542 0.89441,-1.0976 2.50004,-1.93815 6.6225,-3.46682 26.28018,-17.22411 38.8457,-27.18581 12.67081,-10.04528 13.28604,-10.742171 10.93756,-12.387134 -1.36867,-0.958546 -2.48861,-2.503677 -2.48861,-3.433578 0,-0.929687 5.76571,-7.130822 12.81252,-13.780307 7.04683,-6.649667 12.17593,-12.350504 11.3978,-12.668637 -0.77802,-0.31823 -4.6432,-2.52265 -8.58886,-4.898739 -3.94599,-2.376014 -7.80924,-4.308744 -8.58544,-4.294977 -0.77597,0.01336 -14.48912,10.978559 -30.47347,24.366341 -15.98446,13.387835 -29.06261,23.895393 -29.06261,23.350065 0,-0.545328 0.50322,-1.525785 1.11823,-2.178853 2.44628,-2.597523 12.62699,-24.316725 16.24526,-34.656249 4.4879,-12.825128 5.94047,-12.903111 -15.26202,0.819424 -7.68707,4.975205 -14.74727,9.509711 -15.68935,10.076715 -0.94219,0.567005 -0.12741,-1.715923 1.81042,-5.073357 8.40181,-14.555534 21.67599,-35.931527 30.74199,-49.504936 5.38198,-8.0578366 9.78554,-15.69006719 9.78554,-16.9605789 0,-4.3064348 -3.83824,-15.2636701 -5.34671,-15.2636701 -0.82483,0 -10.36572,8.8527416 -21.20163,19.672768 -17.43479,17.409282 -19.70182,19.282413 -19.70182,16.278919 0,-3.965546 -5.03974,-8.029149 -7.89262,-6.363942 -0.97735,0.570553 -12.11703,10.238902 -24.7547,21.485326 -25.83436,22.990226 -30.00641,26.027463 -53.14757,38.691398 -16.9491,9.275215 -20.29782,10.312536 -22.95519,7.110577 -0.85583,-1.031228 -2.344,-1.874958 -3.30682,-1.874958 -1.44252,0 -1.40554,-0.527029 0.21014,-2.992656 1.1037,-1.684574 1.66367,-4.279874 1.28123,-5.937448 -0.60711,-2.631171 1.20919,-4.201795 17.04412,-14.738757 25.47821,-16.954016 39.27602,-28.433588 59.34798,-49.3765997 l 17.70168,-18.4697543 6.67337,0.912853 c 3.67044,0.502082 7.97353,1.404631 9.5627,2.005828 3.2151,1.216246 5.94815,-1.006559 29.3218,-23.846408 11.60612,-11.340932 12.47809,-11.932178 17.59746,-11.932178 4.10044,0 6.51497,0.895174 10.11508,3.749991 9.79645,7.768562 12.61416,9.375068 16.4446,9.375068 4.74707,0 7.20083,-2.518375 29.23157,-30.000033 34.84852,-43.470683 52.53448,-64.736173 54.45179,-65.471843 1.11363,-0.42729 5.90412,-0.41646 10.64565,0.0239 6.4704,0.60137 9.14638,0.36735 10.72817,-0.93816 1.15917,-0.95664 13.18589,-14.95815 26.7262,-31.11442 28.55341,-34.07002 34.48457,-40.00001 40.00776,-40.00001 6.425398,0 10.136129,2.90526 25.021917,19.59052 24.333598,27.27489 32.62874,35.95728 36.381585,38.07928 1.988812,1.12468 7.190805,2.42752 11.559949,2.89549 9.582682,1.02619 9.807996,1.23961 25.1314782,23.80982 18.2013648,26.808955 24.7874148,34.080951 60.2403638,66.513657 6.922096,6.332496 15.825094,15.817698 19.784548,21.078457 7.089906,9.420462 7.270114,9.55519 11.938109,8.929217 7.395598,-0.992075 17.39492,-6.187463 24.81403,-12.892807 l 6.78079,-6.128495 10.71919,-0.103679 10.71909,-0.103785 14.3784,-9.486442 c 18.69817,-12.336203 34.71662,-20.885102 39.18282,-20.911396 7.27076,-0.04265 11.72209,3.715884 29.33976,24.772761 9.58599,11.457276 23.50276,27.300199 30.92626,35.2064291 7.42349,7.9062304 18.722,20.9270329 25.10775,28.9348689 6.38596,8.00792 15.42545,17.752468 20.08788,21.654514 8.12295,6.798163 8.71243,7.066562 14.10232,6.423445 3.60321,-0.429871 13.26285,-4.523754 26.87499,-11.389778 21.19073,-10.68875 27.67577,-12.884278 33.63783,-11.387726 1.97214,0.494879 13.1287,11.645479 29.85601,29.839983 14.68891,15.977395 29.79573,31.862249 33.5706,35.299782 12.56584,11.443014 44.94606,35.991334 45.98231,34.860704 0.55986,-0.61096 2.52612,-5.70906 4.36957,-11.3294 3.39222,-10.34264 6.34844,-14.855863 7.52226,-11.4846 0.32621,0.93674 2.09067,5.64086 3.92087,10.45337 1.8303,4.8125 5.12054,14.37499 7.31179,21.24995 l 3.98415,12.5 4.58708,0.38671 c 4.43969,0.37399 4.69664,0.16321 7.99533,-6.56253 1.87445,-3.82211 3.79752,-6.94925 4.27359,-6.94925 0.47585,0 4.25403,7.01006 8.39562,15.57766 6.19228,12.80954 8.10531,15.72195 10.76547,16.38977 3.66787,0.9206 6.45094,-0.85412 7.67221,-4.89267 2.00528,-6.62955 5.91268,-14.45397 7.52782,-15.07369 1.24478,-0.47757 3.6093,2.99428 8.00495,11.75373 6.80473,13.55998 10.99677,17.78408 15.1033,15.21948 3.25775,-2.03445 4.29582,-1.88449 9.27143,1.33842 l 4.34199,2.81236 0.015,68.4718 0.015,68.47181 -258.43771,-0.3989 C 126.92725,312.6509 78.178105,312.27007 73.84744,310.91498 c -2.92192,-0.9143 -5.312513,-2.08309 -5.312513,-2.59742 0,-0.51422 6.046921,-2.14914 13.437494,-3.63303 7.390681,-1.48378 19.624969,-4.09327 27.187519,-5.79862 7.56255,-1.70535 16.84382,-3.10448 20.62509,-3.10918 10.43616,-0.0128 10.99528,-0.98613 4.95541,-8.62735 -6.08849,-7.70246 -14.01221,-13.62807 -22.20197,-16.60321 -7.04009,-2.55745 -23.039303,-2.98263 -25.476712,-0.67701 -0.908524,0.85946 -4.183164,1.64464 -7.276848,1.745 -8.595383,0.27897 -29.976475,10.09071 -52.329687,24.01421 -1.379353,0.85914 -1.411632,1.60883 -0.169413,3.92985 1.472557,2.75165 1.379887,2.83726 -2.283281,2.10446 -5.494645,-1.09889 -15.5763725,6.61501 -37.339579,28.56976 -15.063431,15.19607 -17.709907,18.43597 -17.500091,21.4263 0.200944,2.86591 -0.219329,3.46083 -2.253032,3.18956 -1.959312,-0.26133 -5.608585,4.12673 -16.874921,20.29129 -7.906295,11.34351 -17.986736,26.55113 -22.401007,33.79431 -6.943259,11.39256 -8.05433,14.05187 -8.235287,19.70876 -0.114902,3.59647 -0.653282,8.92972 -1.196152,11.85164 -0.807196,4.34381 -0.642379,5.31251 0.903821,5.31251 1.039993,0 2.829143,-1.43194 3.975914,-3.18186 3.213074,-4.90368 7.433221,-6.35977 11.227344,-3.87384 5.943131,3.89415 6.82985,17.00094 1.293845,19.12528 -1.082853,0.41557 -2.846458,2.94886 -3.919051,5.62954 -4.005222,10.0099 -10.365957,9.94149 -20.953786,-0.22542 l -7.837781,-7.52621 -11.637336,18.71665 c -8.23828,13.2497 -12.39782,18.82526 -14.24148,19.08873 -2.17597,0.31104 -2.78682,1.6548 -3.71437,8.17255 -1.03946,7.30196 -0.85369,8.37445 2.90642,16.78385 11.07213,24.7623 19.72384,52.02453 20.82775,65.62962 l 0.84471,10.41115 h 5.263776 c 19.020854,0 96.68981998,-7.03069 132.517723,-11.99562 56.835002,-7.87604 122.032921,-23.16222 129.150931,-30.28024 4.86392,-4.86391 10.2241,-2.82968 10.2241,3.88015 0,9.97666 -13.94787,51.62039 -23.52927,70.25005 -3.17641,6.17614 -8.39979,13.95236 -11.60784,17.28055 -3.20794,3.32819 -5.19248,6.24808 -4.41029,6.48889 0.78229,0.2406 14.64113,0.77598 30.79746,1.18963 38.82411,0.99435 79.66129,3.0117 91.0653,4.49869 17.05983,2.22449 14.81449,4.14351 -7.3878,6.31392 -10.04988,0.98227 -44.29962,1.61054 -96.80257,1.77568 -44.68751,0.14045 -83.171932,0.33263 -85.520947,0.4269 -9.849253,0.39558 -1.569181,1.34387 23.043797,2.63964 37.24285,1.96048 50.27535,3.40536 56.17125,6.22712 5.06389,2.42363 18.70896,4.00884 49.74339,5.77886 7.39068,0.42166 13.4376,1.21004 13.4376,1.75217 0,1.20171 -7.02161,2.03007 -33.35458,3.93508 -11.12621,0.80506 -20.94938,1.90843 -21.82916,2.45227 -1.27193,0.78592 -1.17039,1.8893 0.49584,5.38327 1.90513,3.99515 3.06804,4.69129 12.78945,7.6565 5.88157,1.79396 10.37866,3.77187 9.99323,4.39522 -2.38151,3.85343 -30.77512,8.65631 -51.66486,8.73947 -16.95936,0.0673 -6.74948,2.09281 14.81994,2.93977 23.79521,0.93449 27.58364,1.68558 29.56722,5.86115 4.5299,9.53619 4.68349,10.08793 3.38088,12.15306 -0.72137,1.14356 -3.22665,2.53692 -5.56732,3.09646 -2.34068,0.55933 -48.97446,1.21881 -103.63072,1.4655 -54.656362,0.24659 -106.968948,1.04619 -116.250213,1.77665 -38.677264,3.04441 -62.810007,7.91484 -68.236457,13.7714 l -3.03297,3.27293 -29.67774,0.18224 c -16.32285,0.10047 -37.03506,-0.53111 -46.02709,-1.40308 z m 167.651403,-22.57991 c 16.262148,-2.09506 36.0820749,-5.27468 39.761382,-6.37848 1.74458,-0.52331 1.959526,-1.04769 0.874321,-2.13236 -2.1449712,-2.14401 -108.739197,-1.95814 -116.000226,0.20233 -8.60137,2.55926 -6.35614,5.60399 6.130932,8.31417 11.185104,2.42747 50.371996,2.42437 69.233591,0 z m 58.367522,-27.57851 c 8.068012,-0.4362 14.362906,-1.28882 13.988701,-1.89454 -0.845996,-1.36877 -91.233958,-1.22811 -95.533199,0.14879 -3.093898,0.99082 -3.087592,1.00365 0.625064,1.27791 29.474328,2.17811 47.3793013,2.28157 80.919434,0.46784 z m -226.423595,-2.61676 c 1.15415,-1.15404 0.6738,-1.71786 -2.12776,-2.49727 -5.18896,-1.44369 -128.05705,-1.27353 -131.11845,0.1816 -4.84361,2.30231 33.75144,4.14063 83.37777,3.97143 35.60098,-0.12132 48.77148,-0.55869 49.86844,-1.65576 z m 156.754144,-21.26747 c 7.080179,-0.70459 8.034343,-1.03241 4.99998,-1.71829 -5.1043,-1.1535 -89.254674,-1.36909 -94.531384,-0.2422 l -4.21875,0.90093 4.37513,0.80955 c 6.03922,1.11738 78.618637,1.32035 89.375024,0.25001 z M -90.838721,617.0296 c 73.904792,-3.8235 140.639818,-12.65948 183.90233,-24.34951 14.053581,-3.79741 52.393921,-17.86671 51.399251,-18.86138 -0.19881,-0.19891 -9.9106,2.14251 -21.58161,5.20328 -59.008082,15.47472 -133.254782,26.22256 -211.427392,30.60602 -35.016218,1.96338 -129.594178,0.86834 -157.917788,-1.82848 -58.74769,-5.59351 -87.91045,-9.54923 -130.3151,-17.67602 -16.41457,-3.14585 -30.3883,-5.53847 -31.0527,-5.31701 -2.22428,0.74136 39.25411,12.30462 59.99827,16.72614 49.14248,10.47432 97.98779,15.33738 163.86966,16.31474 24.40626,0.36212 44.78392,0.75471 45.2835,0.8725 1.571,0.37004 21.90055,-0.34823 47.841579,-1.69028 z m -54.127919,-21.20356 9.62222,-0.0182 0.37774,-6.56253 c 0.32397,-5.62526 -0.32525,-7.90159 -4.54455,-15.93743 -6.39536,-12.18042 -10.49558,-18.75012 -11.7021,-18.75012 -0.96411,0 -7.33649,27.63943 -8.67758,37.63832 -0.67893,5.06198 -0.59524,5.22391 2.29867,4.44953 1.65191,-0.44208 7.33339,-0.81137 12.6256,-0.82077 z m 30.85475,-124.8038 c 3.51898,-5.72627 6.39803,-10.54647 6.39803,-10.71139 0,-0.16503 -3.23423,0.34363 -7.18738,1.12999 l -7.18749,1.42991 -1.08072,8.31962 c -1.09279,8.41432 -0.37581,13.52364 1.59858,11.38989 0.58338,-0.63051 3.94,-5.83154 7.45898,-11.55802 z m 35.148109,-17.75747 c 0,-4.831 -0.11875,-4.98224 -2.812469,-3.58066 -1.546842,0.80474 -3.049113,1.67051 -3.338344,1.92394 -0.496161,0.4347 4.874818,6.70073 5.743687,6.70073 0.223925,0 0.407126,-2.26981 0.407126,-5.04401 z M 478.04618,238.55751 c 1.12315,-3.91819 2.60565,-7.82709 3.29442,-8.68645 0.72852,-0.90916 4.1295,-1.56255 8.13331,-1.56255 h 6.88106 l -5.27115,-5.71857 c -4.37695,-4.74837 -5.12942,-6.28378 -4.43509,-9.04997 0.92348,-3.67952 2.64017,-5.18329 5.9504,-5.21236 2.93624,-0.0246 2.75026,-0.99692 -1.3475,-7.04063 -2.76448,-4.07735 -3.82446,-7.71315 -5.10184,-17.49988 -0.88672,-6.79458 -1.91485,-12.84685 -2.28467,-13.44978 -0.36972,-0.60294 -3.03992,6.76444 -5.93384,16.37202 -2.89402,9.60748 -5.61179,18.03484 -6.03965,18.72703 -0.42786,0.6924 0.62047,2.57272 2.32988,4.17835 l 3.10779,2.91968 -4.59563,4.70636 c -3.82478,3.91692 -4.33355,5.02211 -3.0334,6.58862 0.85903,1.03529 2.63643,2.22332 3.9493,2.64006 3.2679,1.03711 2.99428,3.42556 -0.92595,8.08469 -3.25241,3.86529 -3.27507,4.01642 -1.23837,8.28744 1.141,2.39263 2.62446,4.01034 3.29655,3.59509 0.6721,-0.41547 2.14113,-3.96106 3.26438,-7.87915 z M 144.6435,161.12104 c -5.49647,-7.07687 -30.34694,-34.11176 -41.63091,-45.29024 l -13.226186,-13.10273 0.04382,4.35269 c 0.02352,2.39401 0.798218,7.86824 1.720103,12.16524 0.921777,4.29678 1.262634,7.81234 0.757281,7.81234 -0.50546,0 -10.138912,-6.62025 -21.407706,-14.71189 C 59.63111,104.25471 44.639399,93.85714 37.584873,89.24045 l -12.826432,-8.393691 5.113706,6.46933 c 2.812683,3.558207 6.540302,9.284793 8.284134,12.725961 5.749673,11.34629 27.323157,31.15595 51.424903,47.22069 5.269118,3.51192 11.126956,7.82046 13.017546,9.57445 l 3.43753,3.18902 0.0192,-5.54638 c 0.0342,-9.78522 0.21655,-9.78576 20.74363,-0.062 10.23671,4.84927 18.82183,8.83331 19.07782,8.85373 0.2561,0.0203 -0.29896,-0.94743 -1.23345,-2.15053 z m -273.6073,-25.2373 c 0,-0.6459 -8.71873,-10.17087 -19.37507,-21.16657 -10.65624,-10.9956 -19.37496,-20.457073 -19.37496,-21.025275 0,-0.568308 10.76215,-11.715146 23.91576,-24.770911 13.15361,-13.055615 23.47529,-22.61258 22.93681,-21.23762 -1.23239,3.146849 -13.69424,38.982757 -14.93015,42.933446 -0.80228,2.564495 0.29233,2.11686 8.70751,-3.561627 5.29391,-3.572316 14.34388,-10.095452 20.11129,-14.495935 5.76731,-4.400483 11.156033,-8.000824 11.975094,-8.000824 0.818848,0 8.558401,3.864208 17.19889,8.587099 28.4087,15.528328 45.285438,24.046754 44.239246,22.329217 -0.566064,-0.92958 -7.473196,-10.843285 -15.349135,-22.03027 L -63.228449,53.104344 -78.44977,43.087399 c -9.155248,-6.025191 -15.801046,-11.289765 -16.676115,-13.210417 -1.30806,-2.87071 -0.379121,-5.423373 9.198536,-25.2772364 13.549403,-28.0869376 17.613818,-38.6203416 15.252297,-39.5265346 -0.944971,-0.36264 -4.698243,1.482518 -8.340462,4.100371 -11.792531,8.475725 -47.676446,35.5251072 -62.979826,47.474161 -8.19863,6.401598 -15.08823,11.457447 -15.31034,11.2355 -0.51155,-0.511766 8.15619,-20.5419254 13.41879,-31.0090708 2.19585,-4.3674448 8.91123,-16.0971172 14.92309,-26.0658352 6.01186,-9.968815 12.60668,-21.500066 14.65513,-25.625042 5.90231,-11.885639 19.43279,-45.703785 18.613622,-46.522935 -1.478649,-1.4787 -11.562942,4.183058 -20.523552,11.522912 -16.83847,13.793133 -19.31361,15.723372 -19.68557,15.351241 -1.09087,-1.090753 7.40789,-33.492023 11.82288,-45.074523 5.07096,-13.30341 12.45341,-45.23252 10.83303,-46.85289 -0.88127,-0.88123 -2.57219,0.99696 -26.11269,29.00228 -13.3523,15.88476 -29.79925,39.218608 -42.615,60.459773 -2.61687,4.337154 -4.91896,7.71217 -5.11595,7.499981 -0.19677,-0.212177 1.54545,-7.698306 3.8717,-16.635871 4.74378,-18.226043 5.15742,-22.511773 2.27911,-23.616283 -6.19891,-2.37867 -7.92232,-0.64295 -29.03214,29.241274 -6.55612,9.281276 -15.57723,21.093816 -20.04695,26.250031 -4.46951,5.15631 -13.72042,16.824524 -20.55744,25.929418 -9.673,12.881884 -12.27501,17.180142 -11.72872,19.3749642 0.38629,1.5514379 2.90589,9.00817352 5.59918,16.5706829 l 4.89705,13.7499729 23.45926,16.875059 c 12.90264,9.281287 24.21323,18.281284 25.13501,19.999965 0.92156,1.718766 5.64652,11.281332 10.49986,21.250018 4.85333,9.968751 9.51096,18.970297 10.35065,20.003449 2.29568,2.825086 39.58427,30.640446 45.96478,34.287476 6.04297,3.4541 7.43675,3.83547 7.43675,2.03445 z M -192.21832,7.5471998 c 0.45511,-4.0501028 1.14912,-9.5161134 1.54203,-12.1464928 l 0.71431,-4.7827471 -4.86926,3.0738352 c -2.6779,1.6905276 -9.76599,6.49965395 -15.75091,10.6868906 -5.98493,4.187322 -10.88166,7.3731513 -10.88166,7.0796123 0,-1.120412 20.73091,-30.373767 26.59281,-37.524971 7.95226,-9.701377 38.56619,-42.132758 39.18623,-41.512642 0.26144,0.261473 -2.01478,7.785706 -5.05855,16.72061 -3.04377,8.934893 -6.18437,19.83192 -6.97928,24.215526 -0.79501,4.383605 -2.31214,9.681753 -3.37158,11.773377 -2.52538,4.986043 -18.72863,27.789039 -20.5428,28.910168 -1.0184,0.62935 -1.17947,-1.171045 -0.58134,-6.4931662 z M 375.63482,101.2071 c -3.79282,-4.687985 -9.80757,-12.025865 -13.36631,-16.306294 -6.01764,-7.237653 -6.32579,-7.927052 -4.40431,-9.84858 1.1364,-1.136499 1.75249,-2.883334 1.3692,-3.882239 -0.38319,-0.998831 -0.69679,-6.270065 -0.69679,-11.713865 0,-5.443725 -0.46634,-9.897757 -1.03614,-9.897757 -1.63481,0 -26.38567,13.862149 -27.25112,15.262419 -1.3925,2.253267 26.93581,29.485915 39.47098,37.943846 6.49477,4.3824 12.03409,7.74254 12.30964,7.46721 0.27533,-0.27555 -2.60244,-4.33655 -6.39515,-9.02474 z M 231.11434,87.995879 c -0.61064,-1.546842 -2.01051,-4.921847 -3.1109,-7.500024 -1.10017,-2.57807 -1.77034,-4.687448 -1.48891,-4.687448 0.28133,0 5.88147,3.375005 12.44464,7.500024 6.56296,4.124911 12.26368,7.499917 12.66814,7.499917 1.0432,0 -10.03395,-15.921056 -21.26117,-30.558304 -5.24528,-6.838576 -11.01794,-15.276015 -12.82825,-18.75005 -5.90829,-11.338975 -11.3201,-24.078755 -12.18352,-28.681379 -0.80228,-4.2764107 -2.9651,-6.2951077 -3.15813,-2.9478069 -0.0502,0.8593779 -1.0338,6.1805269 -2.18741,11.8247039 l -2.0974,10.26199 -10.27327,-11.66599 -10.27327,-11.6661724 1.71359,-14.2209732 c 0.94251,-7.8214914 2.10574,-19.7486984 2.58469,-26.5046744 l 0.87101,-12.283615 -3.92397,2.029086 c -5.50223,2.8454 -21.44458,19.04191 -32.95013,33.4756809 -5.34319,6.7031205 -10.16071,12.1875153 -10.70562,12.1875153 -0.545,0 -0.48504,-3.775483 0.13318,-8.3901852 1.30422,-9.733357 0.0374,-11.609865 -7.83297,-11.609865 -4.77007,0 -15.12157,6.234974 -23.33955,14.0578983 l -3.996218,3.8041708 5.337948,7.0064393 c 2.93603,3.8536376 9.97239,13.8764506 15.63655,22.2730266 5.66395,8.396502 13.05228,17.742614 16.41863,20.769292 6.83637,6.146516 31.99629,23.894635 42.30173,29.84011 l 6.70202,3.866785 -0.86674,-4.246227 c -0.4767,-2.335547 -2.73454,-7.340134 -5.0175,-11.121389 -3.24408,-5.373191 -13.14517,-30.467655 -13.14517,-33.316785 0,-0.316177 7.45321,6.176893 16.5626,14.428982 18.3959,16.664645 46.06451,40.03705 47.46909,40.098295 0.49862,0.02138 0.40691,-1.226186 -0.20372,-2.773028 z M 20.343763,29.870858 C 19.117149,27.980231 16.663601,24.183339 14.891445,21.433323 13.119182,18.683318 8.0924805,11.652103 3.7208778,5.8083601 -0.6508317,-0.03538261 -9.0256039,-12.568671 -14.889964,-22.043217 c -5.864254,-9.474631 -10.88978,-16.999132 -11.167682,-16.721134 -0.752899,0.752803 2.810759,17.027467 7.296301,33.3227282 3.266411,11.866101 4.641488,14.9941056 7.878719,17.9225558 3.9603081,3.582395 30.373553,20.473177 32.375191,20.703204 0.594709,0.06841 0.07696,-1.422652 -1.148802,-3.313279 z M 85.411381,757.45595 C 74.622715,756.5222 63.349003,754.24629 64.384293,753.211 c 2.459855,-2.45985 33.244809,-3.94149 69.152127,-3.3284 36.82279,0.6287 47.50864,1.84847 42.20403,4.8171 -4.27476,2.3923 -23.33549,3.58696 -54.07908,3.38965 -17.18745,-0.10999 -33.499941,-0.39537 -36.249989,-0.6334 z m -494.375451,-7.89486 c -13.14378,-1.0883 -21.05231,-2.42084 -21.82926,-3.67813 -2.39776,-3.87961 21.51437,-6.2592 63.07934,-6.27672 40.37597,-0.0182 94.80935,3.43015 97.89309,6.19955 3.96298,3.55885 -105.75107,6.51988 -139.14317,3.7553 z M -556.46419,644.54493 c -7.2187,-0.51144 -15.06567,-0.99862 -17.43746,-1.08296 -3.14242,-0.11116 -3.93861,-0.52694 -2.93442,-1.53123 2.66689,-2.66679 67.24455,-4.15474 112.24694,-2.58609 22.68754,0.79074 42.93758,1.90993 45.00003,2.48711 l 3.74996,1.0494 -3.74996,0.94861 c -5.06293,1.28059 -120.38357,1.8831 -136.87509,0.71516 z m -6.08262,-83.42364 c -0.64388,-1.2031 -1.58992,-4.99998 -2.10254,-8.43741 -1.08702,-7.29149 -3.39039,-11.28568 -7.93141,-13.75387 -2.12167,-1.15319 -2.55423,-1.78862 -1.23955,-1.82122 2.9231,-0.0727 8.18388,-4.55021 8.99642,-7.65768 1.05089,-4.01877 -4.03438,-8.25474 -12.85401,-10.70679 -5.61788,-1.56202 -7.53604,-2.64316 -7.25964,-4.09178 0.38906,-2.03947 6.89784,-4.52958 15.03586,-5.75266 2.57807,-0.38736 4.68745,-1.19712 4.68745,-1.79942 0,-0.60219 -4.19022,-3.83418 -9.31163,-7.18214 -8.89583,-5.81552 -9.19255,-6.16161 -6.64472,-7.75281 1.46678,-0.91601 5.51644,-2.65225 8.99919,-3.85845 l 6.3322,-2.19264 -4.99998,-0.92691 c -2.96607,-0.54971 -6.67947,-2.51725 -9.12821,-4.83644 -4.04977,-3.83579 -4.36177,-3.90997 -16.45539,-3.9135 -11.06411,0 -12.63447,0.28432 -15.32734,2.80873 -3.59123,3.36646 -8.73412,3.62929 -12.23375,0.62496 -1.40169,-1.2031 -6.04863,-3.36036 -10.32681,-4.7938 -10.59671,-3.55083 -10.17333,-5.62195 1.59643,-7.81031 10.50671,-1.95365 15.18111,-2.06417 33.04461,-0.78165 10.2039,0.73269 13.10306,0.53474 16.25007,-1.10936 2.10671,-1.1006 5.41812,-2.5801 7.35883,-3.2879 5.31209,-1.93729 3.69994,-4.75553 -4.7784,-8.35297 -15.41658,-6.54137 -15.70154,-6.54906 -24.4736,-0.65894 -10.04806,6.74723 -14.4171,6.91173 -21.54431,0.81126 -3.04099,-2.60298 -8.00623,-5.21183 -12.07375,-6.34385 -13.09642,-3.64479 -15.16133,-4.47624 -14.69082,-5.91567 0.25962,-0.79447 3.52314,-2.15384 7.25215,-3.02111 12.84514,-2.98712 14.28018,-3.52261 14.28018,-5.32811 0,-4.34125 -10.4865,-5.88574 -50.31255,-7.41024 -0.9796,-0.0374 -1.56245,-1.92511 -1.56245,-5.05984 v -4.99998 h 9.24247 c 18.05792,0 44.50751,-3.59433 44.50751,-6.0482 0,-3.41659 -3.84306,-3.95187 -28.37491,-3.95187 h -25.37507 v -40.00006 -40.00005 l 190.31265,-0.21922 c 290.38897,-0.33455 353.05349,-0.12004 355.44269,1.21699 4.53578,2.53842 -3.52111,4.05373 -37.87464,7.12304 -53.58719,4.78803 -61.93386,5.67485 -63.9325,6.79351 -2.72183,1.52312 0.46324,2.29504 18.0016,4.36295 20.84132,2.45761 26.93944,5.21343 17.73812,8.0166 -5.58977,1.70268 -19.65896,2.51137 -68.43749,3.93327 -46.21402,1.34718 -62.75706,2.3458 -61.8977,3.73659 0.94165,1.52354 20.77751,3.66061 52.52261,5.65861 33.17467,2.08779 61.1804,5.19066 64.95366,7.19636 2.41378,1.28295 2.41143,1.32003 -0.14729,2.2665 -9.67364,3.57852 -58.15854,6.41236 -119.18141,6.96603 -57.04012,0.51743 -65.00007,0.87357 -65.00007,2.90866 0,3.31569 15.04238,5.21504 69.37509,8.75978 21.31258,1.39057 40.43754,3.02046 42.5001,3.62201 l 3.74996,1.09355 -3.74996,1.50334 c -2.06256,0.82697 -12.46879,2.05582 -23.12503,2.73091 -29.25286,1.85318 -35.00018,2.43517 -35.00018,3.54463 0,1.63898 5.09799,2.50571 33.62457,5.71665 26.11172,2.93913 31.80998,3.74023 36.89184,5.1866 2.35468,0.67006 2.35468,0.70149 0,2.06598 -1.64336,0.95203 -22.9181,1.50537 -68.01637,1.76885 -36.09372,0.21088 -66.89065,0.65616 -68.4376,0.98943 -7.16943,1.54513 -1.60541,4.2954 16.4896,8.15074 10.94707,2.33234 13.28957,2.46477 19.66944,1.11075 9.68101,-2.05444 16.15227,-0.99766 22.5068,3.67568 2.89552,2.12915 6.13767,3.89831 7.20556,3.93134 1.06767,0.0331 0.18544,1.01744 -1.96038,2.1874 -2.14604,1.17018 -5.38851,3.18197 -7.20567,4.47069 -5.08538,3.60662 -12.80804,3.94534 -20.50153,0.8988 -5.26249,-2.08373 -9.20954,-2.59902 -19.37486,-2.52901 -7.0216,0.0492 -13.877,0.52192 -15.23455,1.05217 -2.07005,0.80902 -1.57869,1.26093 3.04687,2.80285 7.15895,2.38632 7.65126,4.3591 1.71903,6.88715 -3.68839,1.57153 -11.15678,2.24811 -32.2977,2.92587 -15.1251,0.48483 -28.8855,1.44167 -30.57877,2.12627 -3.04462,1.23121 -3.04997,1.26039 -0.47436,2.63867 6.10411,3.26695 16.70893,4.10375 74.17808,5.85442 74.74457,2.27687 111.39164,4.67217 107.21831,7.00771 -2.97803,1.66645 -47.2939,3.59038 -83.46821,3.62352 -23.75961,0.0214 -33.98574,0.46687 -36.16951,1.57452 -1.67425,0.8491 -4.51985,4.07532 -6.32322,7.169 -4.50884,7.73507 -8.09409,7.98037 -13.1426,0.89933 -5.73748,-8.04749 -12.843,-11.14748 -24.36479,-10.63015 -6.8803,0.309 -11.28771,1.3087 -16.56249,3.75669 -3.95304,1.83479 -7.18749,3.86304 -7.18749,4.50735 0,0.64441 5.31347,2.12829 11.80781,3.29762 13.76745,2.47888 17.20616,4.84596 9.84701,6.77791 -11.76121,3.08791 -22.13901,5.14128 -25.98314,5.14128 -5.94271,0 -32.82614,-4.72721 -35.73416,-6.28346 -1.34066,-0.71741 -2.43752,-2.06737 -2.43752,-2.99984 0,-2.4187 9.05146,-5.71675 15.68957,-5.71675 6.80527,0 8.53082,-2.58448 4.45069,-6.66653 -3.96437,-3.96651 -20.69799,-4.42569 -35.03449,-0.96176 -14.96403,3.61572 -16.46331,5.7469 -5.48567,7.79781 3.55137,0.66333 7.22982,2.36227 9.04452,4.17697 2.90065,2.90064 2.94853,3.18047 0.92691,5.41426 -1.17253,1.29566 -4.23212,2.99578 -6.79918,3.77818 -5.62943,1.71572 -12.79234,5.9736 -12.79234,7.60413 0,0.64879 3.01983,1.80657 6.71057,2.57283 3.69085,0.76626 7.76906,2.21242 9.06258,3.21361 2.29878,1.77942 2.29718,1.8629 -0.0748,3.69555 -1.33467,1.03123 -3.5193,1.87498 -4.85504,1.87498 -4.31699,0 -11.99679,2.82124 -14.14679,5.19687 -2.56374,2.83299 -0.96089,7.33969 3.69566,10.39062 l 3.00615,1.96979 -4.82448,4.82437 c -3.59914,3.59925 -4.82404,5.84523 -4.82404,8.84485 0,4.31014 -3.3438,12.52352 -5.09864,12.52352 -0.58488,0 -1.59034,-0.98431 -2.23411,-2.18751 z m 61.50524,-95.74911 c 9.76482,-4.12748 1.14838,-8.07143 -17.92261,-8.20354 -17.04796,-0.11875 -21.24994,0.75012 -21.24994,4.39084 0,2.38707 1.0897,3.27336 5.93736,4.82929 7.58522,2.43452 26.43463,1.85787 33.23519,-1.01659 z m 63.31492,-20.67896 c 3.52218,-0.98035 2.49705,-1.94157 -3.42492,-3.21169 -4.47101,-0.95908 -11.56252,0.16632 -11.56252,1.83479 0,2.14946 9.18154,2.9929 14.98744,1.3769 z m -61.86245,-10.75949 c 0,-1.4515 -6.222,-2.39316 -8.93496,-1.35199 -1.01669,0.39013 -1.47929,1.30657 -1.02824,2.0367 1.01808,1.6471 9.9632,1.0324 9.9632,-0.68471 z m -82.42641,-1.15671 c 2.34014,-1.71829 2.30145,-1.82912 -1.09258,-3.125 -6.14921,-2.34741 -24.60614,-1.44861 -24.60614,1.1984 0,3.46981 21.4107,5.07512 25.69872,1.9266 z m 148.54599,-4.84329 c 2.05946,-1.50601 1.96252,-1.74447 -1.32367,-3.25764 -5.39161,-2.4823 -17.11381,-3.16829 -23.5158,-1.37572 -3.11036,0.87079 -5.65508,1.99138 -5.65508,2.49 0,3.32412 26.34708,5.17602 30.49455,2.14336 z m 48.25544,-14.48956 c 0,-1.63663 -5.76624,-2.80445 -9.37501,-1.89871 -5.24667,1.31693 -3.48755,3.01331 3.125,3.01331 3.43754,0 6.25001,-0.50161 6.25001,-1.1146 z m -198.11954,-1.39421 c 1.12144,-1.81459 -2.57294,-2.90225 -6.50567,-1.91517 -2.64274,0.66333 -2.9791,1.09269 -1.55967,1.99063 2.42202,1.53241 7.09856,1.48848 8.06534,-0.0748 z m 144.99452,-9.76332 3.75006,-1.1814 -4.64747,-2.02334 c -5.45146,-2.37327 -23.90358,-2.66218 -48.4023,-0.7576 -16.52316,1.28455 -21.65547,3.04185 -12.41364,4.2505 3.00475,0.39291 7.15083,0.95385 9.21328,1.2465 6.53336,0.92701 48.58882,-0.30227 52.50007,-1.53466 z m 51.38364,-37.47789 c 2.43602,-1.36321 -12.13285,-2.75004 -28.88892,-2.75004 -21.55916,0 -35.56763,2.79269 -20.93228,4.17301 9.4541,0.89174 47.63391,-0.19881 49.8212,-1.42297 z m 695.10192,189.69004 c -9.49578,-0.51112 -19.90201,-1.35552 -23.12503,-1.87626 l -5.85997,-0.94711 4.37513,-0.99841 c 4.69311,-1.0711 24.39749,-1.97695 64.37489,-2.95944 27.39627,-0.67327 98.65478,1.25547 105.62508,2.85907 4.3188,0.9935 4.33259,1.01744 1.07195,1.85937 -11.95895,3.08813 -103.47337,4.37695 -146.46205,2.06278 z m -793.98564,-15.153 c -1.37498,-0.76273 -3.51172,-2.26404 -4.74848,-3.33578 -2.12841,-1.84516 -2.02847,-2.06619 1.87497,-4.14768 5.28013,-2.81556 9.822,-2.8564 15.10576,-0.13606 l 4.20989,2.16752 -5.45189,3.45752 c -6.00118,3.80576 -7.30047,4.04165 -10.99025,1.99448 z m 467.500459,-2.25987 c -7.562445,-0.52748 -15.999959,-1.06629 -18.750007,-1.19733 -4.774239,-0.22745 -4.858892,-0.30131 -1.874979,-1.63502 3.710625,-1.65843 116.460349,-2.93924 138.437646,-1.5726 14.551451,0.90489 17.970171,2.31609 8.749941,3.61186 -8.532964,1.19914 -111.4915808,1.84441 -126.562601,0.79309 z m 409.375371,-9.66295 c -17.1089,-0.71004 -59.05469,-4.0021 -59.74121,-4.68852 -1.20513,-1.20524 0.46003,-1.91335 7.35006,-3.12575 24.79639,-4.36284 99.32228,-6.1289 138.90762,-3.29164 15.61539,1.1192 29.25276,2.36548 30.30547,2.7694 5.81915,2.23294 -4.71054,4.44674 -34.83526,7.32323 -18.05707,1.72428 -54.11841,2.16999 -81.98668,1.01328 z m -885.00082,-5.37194 c -3.78127,-1.27076 -10.1699,-3.22847 -14.19691,-4.35034 -4.027,-1.12186 -7.006,-2.35564 -6.62004,-2.7416 4.935,-4.93489 70.57327,-7.16099 107.49889,-3.64564 38.32313,3.64863 31.56617,5.84063 -25.43183,8.25025 -17.19333,0.72693 -32.48528,2.00153 -36.87505,3.07391 -9.78791,2.39102 -15.95657,2.24256 -24.37506,-0.58658 z m -127.94238,-22.17974 c -4.73811,-9.27197 -3.23562,-15.03329 3.48072,-13.3475 5.15881,1.2947 6.08657,4.45316 3.25091,11.06828 -2.82604,6.593 -4.27637,7.08413 -6.73163,2.27922 z m 906.69305,-1.53338 c -41.84212,-1.72651 -45.25261,-4.10898 -8.95965,-6.25887 11.45905,-0.67872 36.52469,-1.82314 55.70127,-2.54301 53.30096,-2.00089 102.00852,-5.58988 102.00852,-7.51638 0,-3.38591 -18.86437,-5.2006 -77.50007,-7.45545 -37.47436,-1.44092 -57.50004,-3.61924 -57.50004,-6.25428 0,-1.27257 9.29355,-4.33024 18.95651,-6.23707 4.7365,-0.9346 36.40166,-1.47876 95.62501,-1.64325 78.50971,-0.21794 90.17259,0 102.91864,1.9234 7.9063,1.19316 22.19438,2.73113 31.7513,3.41797 9.55693,0.68674 17.65059,1.52301 17.98589,1.85831 1.38063,1.38052 -6.78881,3.04686 -33.08267,6.74765 -15.2462,2.14583 -29.1371,4.54711 -30.86864,5.33593 -6.86192,3.1266 -4.55823,6.7623 7.02663,11.09029 3.95315,1.47683 7.18749,3.16166 7.18749,3.7443 0,3.42502 -14.31213,3.9929 -110.0001,4.3639 -53.96877,0.2095 -108.53129,-0.0492 -121.25009,-0.57344 z m 198.99642,-14.77537 c 2.25613,-2.25613 -3.59529,-5.32352 -10.38378,-5.44356 -6.51433,-0.115 -14.69522,2.02366 -13.25387,3.46501 3.62704,3.62704 20.57101,5.04508 23.63765,1.97855 z M 89.16134,468.28641 c -32.029311,-0.99511 -46.354486,-2.24812 -44.693064,-3.90965 2.319836,-2.31984 42.730011,-3.3191 121.568184,-3.00657 61.08475,0.24188 81.83683,0.70512 85.62505,1.91089 4.65346,1.48111 4.80128,1.66581 2.13257,2.66454 -8.78777,3.28907 -94.75283,4.5112 -164.63274,2.34079 z m 240.6252,-17.59234 c -5.84373,-0.52374 -14.28125,-1.81021 -18.75001,-2.85864 -11.59394,-2.72044 -29.6043,-4.25756 -67.50011,-5.76058 -53.91746,-2.13856 -78.74998,-4.16488 -78.74998,-6.42583 0,-0.59973 0.14055,-1.10145 0.31253,-1.11524 0.17187,-0.0139 5.09372,-0.84492 10.93745,-1.84708 17.32491,-2.97087 85.82279,-4.74089 148.75014,-3.8438 86.36502,1.23121 96.25007,1.0588 96.25007,-1.67895 0,-2.28125 -38.70492,-5.84192 -75.00013,-6.89976 -80.12645,-2.33523 -126.60525,-5.84672 -124.40961,-9.39948 1.08243,-1.75153 8.19232,-2.58213 43.41172,-5.07117 35.78216,-2.52879 41.91469,-3.37874 50.38353,-6.98409 l 4.98939,-2.12412 -3.75006,-1.21272 c -2.12691,-0.68802 -39.45548,-1.65341 -86.25001,-2.2307 -74.27428,-0.916 -112.18773,-2.32924 -114.11145,-4.25296 -0.37409,-0.37409 -0.41215,-0.94839 -0.0855,-1.27599 1.59184,-1.59184 22.78064,-3.37918 59.74025,-5.0391 111.24489,-4.99613 145.79658,-7.7076 140.43565,-11.02082 -1.55657,-0.96197 -33.24716,-2.99215 -62.22993,-3.98671 -12.37494,-0.42466 -35.71877,-1.57485 -51.87499,-2.55616 -16.15623,-0.98142 -50.75004,-2.62318 -76.87512,-3.64863 -45.392414,-1.78167 -54.793818,-2.32497 -68.64624,-3.96651 -4.329703,-0.51305 -5.579618,-1.04544 -4.229018,-1.80123 3.559062,-1.9917 24.058778,-3.59636 69.821658,-5.46514 49.2095,-2.00955 57.44532,-2.52474 73.67871,-4.60857 9.55821,-1.22693 15.9416,-3.03639 14.7866,-4.19139 -0.69486,-0.69497 -22.62844,-2.89456 -68.46165,-6.86577 -45.072185,-3.90526 -50.939859,-4.6199 -51.998556,-6.33284 -0.355287,-0.57483 1.197755,-1.35862 3.451321,-1.74169 5.398021,-0.91783 171.489105,-1.38181 355.034955,-0.99222 l 147.18759,0.31243 v 50.60841 50.60851 l -42.08379,0.32899 c -44.25162,0.3462 -49.98088,1.16398 -35.77371,5.10666 7.59547,2.10788 20.60008,3.49578 56.29502,6.00822 l 21.56248,1.51777 v 3.39019 c 0,3.24588 -0.33252,3.42192 -7.81256,4.13442 -4.29678,0.40926 -19.34375,1.04373 -33.43742,1.40982 -14.09376,0.36597 -33.50005,0.93267 -43.12516,1.2591 -9.6249,0.32654 -35.21866,0.1444 -56.87498,-0.40488 -33.71585,-0.85497 -104.07215,0.0428 -111.87498,1.42692 -1.37507,0.24402 -7.28133,0.015 -13.12506,-0.50867 z m 53.2024,-7.10369 c 1.82271,-1.02011 1.66559,-1.29374 -1.14869,-2.00014 -4.33751,-1.08863 -29.47155,-1.16356 -33.7073,-0.0994 -4.54882,1.14175 -4.21256,2.78479 0.71613,3.49974 6.47093,0.93845 31.81885,-0.10047 34.13986,-1.39923 z m 89.92269,-15.28169 c 0.46399,-0.75076 -1.1287,-1.24233 -3.98874,-1.23089 -3.53437,0.0139 -4.27818,0.33145 -2.88622,1.23089 2.44457,1.57987 5.89857,1.57987 6.87496,0 z m -46.24995,-22.62652 c 3.98756,-0.25652 -6.95448,-2.22193 -12.81254,-2.30145 -2.92192,-0.0396 -5.31251,0.45811 -5.31251,1.10615 0,1.2543 8.94565,2.46039 13.12507,1.76938 1.37486,-0.22735 3.6249,-0.48579 4.99998,-0.57408 z m -57.39615,-3.79955 c 4.06783,-0.78454 7.90961,-1.88856 8.53702,-2.45366 3.79603,-3.41776 -26.48624,-5.30343 -31.0915,-1.93601 -2.78681,2.03777 -1.24895,3.33375 5.53302,4.66265 6.70223,1.31341 8.98466,1.27674 17.02146,-0.27298 z m 3.64607,-27.32402 c 1.6332,-0.7017 -1.40041,-1.06137 -8.75005,-1.03742 -7.44765,0.0235 -10.19374,0.37495 -8.12498,1.03742 4.17247,1.33639 13.76542,1.33639 16.87503,0 z M -683.96428,254.58815 v -58.77968 h 3.08097 c 4.10054,0 5.21471,-2.28189 11.23993,-23.0222 2.77976,-9.56836 5.72402,-17.61991 6.54266,-17.89204 1.70225,-0.56574 2.94148,3.32626 7.21624,22.66553 3.34037,15.11196 5.08068,18.07129 9.30029,15.81302 1.46935,-0.78636 3.24717,-1.07409 3.95069,-0.63928 2.00816,1.24104 6.87731,-2.5986 8.61473,-6.79341 1.48698,-3.58974 1.35242,-4.00274 -2.30829,-7.08296 -4.96909,-4.18124 -5.01783,-7.40992 -0.13714,-9.11132 4.4212,-1.54117 4.57565,-2.52259 1.25462,-7.96957 -3.20153,-5.25116 -3.15151,-5.78366 0.68086,-7.24072 1.87829,-0.7142 3.95977,-3.06472 5.07256,-5.72787 1.69327,-4.05255 1.68696,-4.738 -0.0599,-6.66877 -2.71916,-3.00476 -2.43516,-6.3818 1.07056,-12.73548 1.65993,-3.00849 4.30448,-11.23555 5.87644,-18.28249 1.57207,-7.04683 3.21853,-12.812431 3.65889,-12.812431 0.84568,0 2.88644,6.425721 4.36712,13.749921 1.00974,4.99463 4.9336,13.30987 7.83959,16.61316 1.79461,2.04012 1.78178,2.55498 -0.14557,5.81787 -3.06109,5.18211 -2.61837,8.88835 1.6859,14.11001 l 3.80051,4.61081 -2.50026,4.9009 c -2.3985,4.70113 -2.40929,4.98331 -0.26464,6.92402 1.2296,1.11278 3.17577,2.02323 4.32478,2.02323 1.60403,0 2.08907,1.16131 2.08907,5.00009 0,2.75005 0.45234,5.00008 1.00526,5.00008 1.59045,0 11.94057,-6.85497 13.8382,-9.16508 1.51008,-1.83821 1.10242,-2.7602 -3.35982,-7.60124 -7.72705,-8.3829 -9.02742,-19.86343 -1.63054,-14.39476 2.45152,1.81245 4.4351,2.32347 6.75728,1.74063 6.88907,-1.72898 6.74531,-4.54989 -0.80709,-15.83076 -3.17876,-4.74795 -2.20247,-7.35734 3.48884,-9.32605 5.84352,-2.02142 9.45795,-5.02949 9.45795,-7.87135 0,-1.13373 -1.96883,-3.96929 -4.37513,-6.30152 -3.48991,-3.3827 -4.37492,-5.2021 -4.37492,-8.995348 0,-3.770053 0.47265,-4.754679 2.28211,-4.754679 3.07754,0 7.71796,-5.135404 7.71796,-8.541085 0,-1.515204 -1.45214,-5.532055 -3.22686,-8.926332 -3.79678,-7.26089 -3.24525,-10.944366 1.72405,-11.517847 3.11164,-0.358995 3.35032,-0.783896 3.03041,-5.389802 -0.37463,-5.393178 3.64447,-21.249964 5.38605,-21.249964 2.00634,0 6.99457,14.851028 6.3726,18.971825 -0.93973,6.223965 0.30206,9.153206 3.88015,9.153206 2.76854,0 3.03436,0.391948 2.32945,3.437459 -2.33619,10.093506 -2.282,12.166116 0.38041,14.575735 3.60951,3.266517 3.29922,5.545843 -1.41816,10.412965 -3.86357,3.986068 -3.95956,4.319977 -2.17425,7.559557 1.02727,1.86419 3.67759,4.23308 5.8899,5.26431 2.2121,1.03123 4.03427,2.49374 4.04913,3.24995 0.015,0.75621 -1.69381,3.75049 -3.79699,6.65392 -2.10318,2.90343 -3.65002,6.17711 -3.43742,7.27471 0.21248,1.09782 2.87681,3.31248 5.92047,4.92174 7.16131,3.78641 7.0152,3.55949 4.6354,7.19167 -2.75849,4.20999 -2.59336,5.2906 1.18728,7.76787 2.75005,1.80187 3.39713,1.85275 4.34221,0.34129 0.89901,-1.43761 5.19739,-19.03336 8.14443,-33.33877 0.62528,-3.03489 2.8021,-3.79025 3.60246,-1.24991 0.27074,0.85936 2.01938,7.18749 3.88602,14.06245 1.86654,6.87507 3.73671,13.1116 4.15602,13.85884 1.31533,2.34463 8.54589,-0.4937 11.37354,-4.46459 l 2.63269,-3.69716 -5.81402,-5.57096 c -5.6693,-5.43202 -6.35582,-8.25111 -2.00944,-8.25111 3.18881,0 7.45855,-3.39863 9.68946,-7.71262 1.89603,-3.66648 1.84836,-3.9385 -1.25708,-7.1799 -3.63099,-3.790044 -4.17889,-7.320994 -1.30667,-8.423194 2.16261,-0.829856 5.57876,-6.798537 5.57876,-9.747071 0,-1.400195 -1.28091,-1.937186 -4.62032,-1.937186 h -4.62011 l 3.93177,-4.062555 c 5.15347,-5.324612 7.1395,-10.350363 10.2986,-26.060951 3.26929,-16.25876 3.76289,-17.881875 5.03717,-16.564911 0.91516,0.945976 3.27326,11.385331 5.49999,24.348662 0.42851,2.494496 2.11419,5.97582 3.7459,7.736507 2.90236,3.131831 2.9154,3.247737 0.59685,5.346021 -3.23723,2.929679 -2.97312,6.249158 0.75514,9.490985 3.92418,3.411881 3.92408,5.357725 -4.3e-4,10.503069 -2.45942,3.224404 -2.88686,4.725713 -2.00538,7.044266 1.41452,3.720568 4.00862,5.884988 8.4885,7.083068 5.17506,1.38395 5.11478,4.6464 -0.14301,7.74853 -6.68032,3.9416 -5.2813,8.63728 2.57305,8.63728 3.94139,0 4.01065,0.0951 2.89968,3.96844 -0.62602,2.18259 -2.60212,5.49646 -4.39148,7.36428 l -3.25348,3.39563 3.55939,3.98361 c 2.06822,2.3147 5.38113,4.356 7.90853,4.873 6.08241,1.24393 6.03976,3.88143 -0.19613,12.14098 l -5.34821,7.0837 3.70453,2.96404 c 2.18121,1.74532 5.37483,2.96649 7.76692,2.97012 3.13868,0 4.06249,0.54009 4.06249,2.35329 0,1.29075 -0.84375,3.04708 -1.87498,3.90302 -3.04559,2.52762 -2.20761,6.99788 1.97096,10.51386 2.11526,1.77996 4.36519,3.23617 5.00009,3.23617 1.71069,0 1.32837,-2.78928 -0.7607,-5.5514 -2.67491,-3.53641 -2.25004,-5.69859 1.11919,-5.69859 1.62498,0 4.45594,-1.50131 6.29062,-3.33599 l 3.3361,-3.33621 -3.79047,-3.91092 c -4.81197,-4.9645 -4.7581,-6.06499 0.3881,-7.92586 4.0627,-1.46892 7.82292,-6.76326 6.41813,-9.03628 -0.37655,-0.60946 -2.63365,-1.47363 -5.0158,-1.92041 -5.23876,-0.98291 -5.4863,-2.37285 -0.84941,-4.77071 4.79134,-2.4776 6.6211,-6.52641 6.27661,-13.88866 -0.16684,-3.57103 0.8739,-10.26856 2.42822,-15.62511 1.49629,-5.15614 3.18764,-11.90626 3.7583,-14.99994 l 1.03806,-5.625047 4.09349,12.132637 c 3.31975,9.84049 3.9322,13.20631 3.24119,17.81487 -0.63576,4.23939 -0.34,6.46378 1.16515,8.76085 2.39947,3.66199 2.54024,6.11329 0.53528,9.3238 -1.24168,1.98817 -0.91739,3.11378 1.99779,6.93578 1.91389,2.50934 4.86894,5.09051 6.56639,5.73588 l 3.08652,1.1736 -2.65343,3.72634 c -1.45951,2.04963 -3.77432,4.51162 -5.14448,5.47124 -2.42598,1.69926 -2.37574,1.86675 1.92938,6.4316 3.76524,3.99237 4.97828,4.57543 8.18516,3.93401 5.17987,-1.03604 4.97433,1.74886 -0.61032,8.27323 -2.4062,2.8113 -4.37502,5.50373 -4.37502,5.98333 0,1.62508 3.78117,4.0207 6.58509,4.17215 2.96841,0.16022 3.11965,1.2853 1.46187,10.88668 -0.67253,3.89479 -0.31564,4.86958 2.63108,7.18749 4.23768,3.33343 5.82054,3.36015 8.72781,0.14761 2.2447,-2.48037 2.20472,-2.608 -1.89218,-6.02811 -4.61092,-3.84936 -4.35985,-5.75384 0.89794,-6.81211 2.05155,-0.413 4.34841,-2.20205 5.63445,-4.38892 2.17052,-3.69085 2.16998,-3.69266 -1.87498,-6.84802 l -4.04603,-3.15653 3.91253,-4.17857 c 7.16964,-7.65747 8.48326,-12.81382 4.24195,-16.65217 -2.45333,-2.22022 -2.44916,-2.26094 0.59418,-5.87794 2.6826,-3.18795 6.86352,-14.00783 6.8834,-17.81305 0.016,-3.06108 2.69671,-10.71064 3.75359,-10.71064 0.6287,0 1.74651,2.39059 2.48401,5.31251 0.73762,2.92182 2.75123,9.40344 4.47443,14.40363 2.1361,6.19752 2.88782,10.40068 2.36163,13.20513 -0.55207,2.94297 -0.21078,4.5796 1.19882,5.74956 2.49951,2.07454 2.47984,3.92622 -0.0983,9.33439 -1.93291,4.05309 -1.92917,4.55427 0.0556,7.585 1.16953,1.78466 3.78833,3.57744 5.81957,3.98371 4.50714,0.90137 4.61306,2.47194 0.56831,8.43228 -1.71871,2.53275 -3.125,5.11381 -3.125,5.73578 0,1.64389 8.02515,7.50815 10.27444,7.50815 1.81919,0 6.46709,-12.77609 12.93236,-35.54797 1.87701,-6.61106 2.28595,-7.17884 3.73873,-5.19195 0.8972,1.22693 1.98689,5.97349 2.42116,10.54785 1.19861,12.61715 3.10908,26.83448 3.68327,27.40856 1.17915,1.17916 5.31646,-1.42969 8.67031,-5.46749 3.40995,-4.10525 3.48573,-4.44952 1.47052,-6.67648 -2.01051,-2.2216 -1.95632,-2.60618 1.00878,-7.14773 1.72342,-2.63985 4.03449,-8.33255 5.13594,-12.65018 3.0628,-12.00651 5.42699,-16.19288 7.36941,-13.04982 0.33135,0.53614 2.12894,8.25667 3.99462,17.15667 2.11344,10.08248 4.37214,17.50726 5.99198,19.69819 2.2338,3.02143 2.37125,3.88249 0.97661,6.11565 -1.44027,2.30636 -1.19262,3.04323 2.20023,6.54382 l 3.82361,3.94503 -2.4978,4.10717 c -2.39776,3.94278 -2.4108,4.25435 -0.32632,7.78284 2.68987,4.55373 3.60406,4.59125 5.81006,0.23835 2.54504,-5.022 9.20525,-23.73609 10.91712,-30.67561 0.83007,-3.36474 2.0911,-5.78462 2.87863,-5.52382 0.77075,0.25524 3.42033,10.68755 5.88798,23.18296 2.46777,12.49552 4.76249,22.99463 5.09928,23.33153 1.53391,1.5338 6.38169,-6.03089 8.11269,-12.65894 3.53501,-13.53775 5.39823,-14.28189 9.7972,-3.91328 6.24177,14.71167 9.83782,22.1947 10.66596,22.1947 0.77599,0 7.83768,-15.5395 10.41425,-22.9165 1.12946,-3.2337 3.51556,-2.00313 5.08795,2.62425 2.45322,7.21966 3.88933,7.35669 7.64571,0.72906 5.60495,-9.88901 6.8198,-11.68693 7.8972,-11.68693 0.5634,0 2.5598,5.20317 4.43659,11.56252 7.11097,24.09522 8.13364,25.59942 14.80274,21.77165 2.00773,-1.15212 4.13988,-1.79225 4.73843,-1.42232 0.59845,0.36982 2.59421,4.02861 4.43488,8.13032 1.84089,4.10193 3.7708,7.45791 4.28898,7.45791 0.51808,0 3.32531,-5.64802 6.23825,-12.55109 2.91283,-6.90329 5.85827,-12.36394 6.54511,-12.13489 0.68684,0.22885 2.47439,3.76749 3.97228,7.86354 7.30015,19.96391 10.79177,23.2875 20.08596,19.11962 6.87218,-3.08182 9.50402,-2.87949 19.47426,1.4965 7.37198,3.23552 9.56676,3.67097 14.922454,2.9605 6.05793,-0.80367 6.531752,-0.63521 13.441236,4.77649 10.342121,8.09997 13.453548,9.39477 30.933755,12.87292 11.639365,2.31599 18.30344,4.42612 25.662804,8.12638 5.467389,2.74887 9.9406392,5.46706 9.9406392,6.0404 0,2.22695 -5.1295252,5.49293 -12.7070412,8.09045 l -7.917945,2.71425 -327.812792,0.34192 -327.8127,0.34203 z M -311.705,217.9741 c 0.94647,-1.14057 0.70908,-2.38792 -0.84696,-4.4508 l -2.16196,-2.86623 v 4.45069 c 0,4.68938 0.83541,5.48514 3.00892,2.86634 z m -192.26522,-64.63537 c 1.60317,-1.01359 1.51435,-1.44958 -0.62506,-3.06622 -4.5547,-3.44202 -8.00987,-1.10497 -4.11882,2.78586 1.79171,1.79182 2.30497,1.82218 4.74388,0.28036 z m 107.50615,-69.483902 c 1.03123,-1.331683 6.94775,-8.3277 13.14773,-15.546413 6.2002,-7.218788 13.18482,-15.51546 15.52154,-18.437069 2.33651,-2.921599 4.45786,-5.102483 4.71396,-4.846515 0.68438,0.684418 -6.0543,27.463092 -7.24265,28.781927 -0.55665,0.617892 -6.24412,3.321894 -12.63895,6.00888 -6.39462,2.687092 -12.4704,5.240151 -13.50163,5.67325 -1.66655,0.700204 -1.66655,0.5185 0,-1.63406 z"
       id="path184" /></g></svg>
