<?xml version="1.0" encoding="UTF-8" standalone="no"?>
<!-- Created with Inkscape (http://www.inkscape.org/) -->

<svg
   width="624.57227"
   height="624.52368"
   viewBox="0 0 165.25139 165.23854"
   version="1.1"
   id="svg1"
   inkscape:version="1.4.2 (f4327f4, 2025-05-13)"
   sodipodi:docname="61.svg"
   xml:space="preserve"
   xmlns:inkscape="http://www.inkscape.org/namespaces/inkscape"
   xmlns:sodipodi="http://sodipodi.sourceforge.net/DTD/sodipodi-0.dtd"
   xmlns="http://www.w3.org/2000/svg"
   xmlns:svg="http://www.w3.org/2000/svg"><sodipodi:namedview
     id="namedview1"
     pagecolor="#ffffff"
     bordercolor="#000000"
     borderopacity="0.25"
     inkscape:showpageshadow="2"
     inkscape:pageopacity="0.0"
     inkscape:pagecheckerboard="0"
     inkscape:deskcolor="#3c3c3c"
     inkscape:document-units="px"
     inkscape:zoom="11.451852"
     inkscape:cx="204.55207"
     inkscape:cy="129.54237"
     inkscape:window-width="1920"
     inkscape:window-height="991"
     inkscape:window-x="-9"
     inkscape:window-y="-9"
     inkscape:window-maximized="1"
     inkscape:current-layer="layer1"
     showgrid="true"><inkscape:page
       x="0"
       y="0"
       width="165.25139"
       height="165.23854"
       id="page2"
       margin="0"
       bleed="0" /></sodipodi:namedview><defs
     id="defs1"><inkscape:path-effect
       effect="skeletal"
       id="path-effect13"
       is_visible="true"
       lpeversion="1"
       pattern="#path9"
       copytype="repeated_stretched"
       prop_scale="1"
       scale_y_rel="false"
       spacing="0"
       normal_offset="0"
       tang_offset="0"
       prop_units="false"
       vertical_pattern="false"
       hide_knot="false"
       fuse_tolerance="0" /></defs><g
     inkscape:label="Capa1"
     inkscape:groupmode="layer"
     id="layer1"
     style="display:inline;opacity:1;mix-blend-mode:multiply"
     transform="translate(-281.4994,-57.483242)"><path
       style="fill:none;stroke:#000000;stroke-width:1.32292;stroke-linecap:square;stroke-linejoin:miter;stroke-miterlimit:4.7;stroke-dasharray:none"
       id="path12"
       inkscape:path-effect="#path-effect13"
       sodipodi:type="arc"
       sodipodi:cx="159.69469"
       sodipodi:cy="96.112541"
       sodipodi:rx="65.800125"
       sodipodi:ry="65.800125"
       d="m 209.34052,96.19719 c 0.21229,5.75583 -1.04149,11.58126 -3.40202,17.11695 m 25.41375,10.72274 c 3.62364,-8.71353 5.7023,-18.14428 5.8681,-27.924339 h -23.62593 c 0.15292,5.823309 -0.97869,11.653289 -3.11874,17.213869 l 18.03374,6.86272 c 2.31144,-6.10633 3.8154,-12.5436 4.36892,-19.16886 l -15.37959,-1.167024 c -0.25059,3.826574 -0.97135,7.617284 -2.10081,11.310664 l 10.75397,3.28113 c 0.94469,-3.09883 1.66582,-6.27019 2.14264,-9.49331 l -6.68216,-0.97378 c -0.21785,1.51977 -0.49963,3.02932 -0.84229,4.5256 l 2.26465,0.52041 m 18.61411,-12.759503 c -0.24578,10.327143 -2.43885,20.242653 -6.2199,29.387203 m -29.54648,-12.20667 c -2.37795,5.5311 -5.85981,10.76963 -10.08625,15.35627 m 20.41811,18.85672 c 6.34568,-6.91123 11.51428,-14.90756 15.13791,-23.6211 l -21.55153,-9.04368 c -2.3398,5.50368 -5.66031,10.71022 -9.68544,15.34355 l 14.71023,12.72395 c 4.25608,-4.93084 7.90059,-10.38852 10.79056,-16.2301 l -13.76473,-6.8557 c -1.75536,3.49372 -3.86928,6.83998 -6.28033,9.97734 l 9.00082,6.88389 c 1.96929,-2.57952 3.76915,-5.28569 5.37882,-8.09775 l -5.86912,-3.36986 c -0.77443,1.34443 -1.59769,2.66356 -2.46672,3.95431 l 1.94104,1.30341 m 21.7834,-4.75848 c -3.80606,9.13237 -9.19726,17.49095 -15.81427,24.7164 M 195.69615,128.9096 c -4.23816,4.57633 -9.21806,8.49794 -14.58038,11.40548 m 12.89819,24.45337 c 8.33194,-4.37312 15.8547,-10.19925 22.20038,-17.11047 L 198.8816,131.715 c -4.16387,4.51541 -9.00464,8.42988 -14.24623,11.46731 l 9.61521,16.81368 c 5.66381,-3.21842 10.91194,-7.1596 15.60144,-11.68056 l -10.74121,-11.13572 c -2.85489,2.75563 -5.95676,5.25223 -9.24416,7.42833 l 6.21463,9.45364 c 2.71169,-1.778 5.30806,-3.73677 7.76837,-5.85556 l -4.43712,-5.14699 c -1.18194,1.02004 -2.39761,1.99967 -3.64395,2.93584 l 1.40401,1.87298 m 22.19568,2.88686 c -6.63631,7.20756 -14.49559,13.27917 -23.21852,17.85548 m -15.16086,-28.22664 c -5.36833,2.89153 -11.11624,4.76617 -16.88441,5.26459 m 2.85401,27.5127 c 9.58241,-1.09924 18.72353,-4.01936 27.05547,-8.39249 l -10.96955,-20.69787 c -5.3193,2.8585 -11.01169,4.81225 -16.80107,5.58515 l 2.74868,19.13189 c 6.5346,-0.96908 12.84943,-2.85682 18.80154,-5.52025 l -6.30902,-14.00706 c -3.5492,1.61233 -7.23379,2.85402 -10.99233,3.66364 l 2.39544,10.99037 c 3.17187,-0.69427 6.28255,-1.62344 9.31128,-2.76673 l -2.38616,-6.30516 c -1.44039,0.54658 -2.8994,1.03765 -4.37399,1.47016 l 0.65354,2.22911 m 19.85099,10.17654 c -8.73653,4.55272 -18.33386,7.60732 -28.43268,8.80447 m -3.54256,-31.86294 c -1.4252,0.11778 -2.85147,0.15138 -4.27338,0.0954 -4.33323,0.17067 -8.70691,-0.49078 -12.96767,-1.83098 m -8.2928,26.26824 c 6.78687,2.12112 13.92542,3.32145 21.26047,3.4458 2.44501,-0.0415 4.86819,-0.20245 7.2638,-0.47726 l -2.46196,-23.30836 c -1.59729,0.14661 -3.19982,0.20176 -4.80184,0.1597 -4.22129,0.11084 -8.44608,-0.45329 -12.56921,-1.58724 l -5.12063,18.58782 c 5.70189,1.57199 11.63356,2.44604 17.68984,2.51699 0.65261,-0.008 1.30377,-0.0246 1.95336,-0.0508 l -0.46816,-15.46973 c -0.49471,0.008 -0.98983,0.008 -1.4852,5e-4 -3.34802,0.0536 -6.68398,-0.26471 -9.96727,-0.91433 l -2.21901,11.03084 c 3.18455,0.64444 6.42811,1.0518 9.70991,1.20131 l 0.27804,-6.7887 c -1.54031,-0.0554 -3.07417,-0.17855 -4.59854,-0.36631 l -0.29132,2.31219 m 14.66522,17.06583 c -2.49705,0.28854 -5.02453,0.46352 -7.57703,0.51952 -7.77867,-0.17067 -15.32498,-1.44628 -22.48555,-3.67344 m 9.3841,-30.51491 c -5.65572,-1.79883 -11.10942,-4.79211 -16.00176,-8.62051 m -17.0611,21.90367 c 7.43078,5.73415 15.8547,10.19925 24.90384,13.0274 l 6.98381,-22.27116 c -5.64627,-1.77931 -11.07136,-4.61528 -15.99919,-8.23183 l -11.42473,15.70719 c 5.27505,3.82026 11.02798,6.97997 17.11581,9.33616 l 5.56559,-14.30051 c -3.61492,-1.41716 -7.11028,-3.22078 -10.42464,-5.34942 l -6.08004,9.53595 c 2.7358,1.7396 5.58472,3.29623 8.52601,4.64915 l 2.82886,-6.13041 c -1.40224,-0.64926 -2.78294,-1.35112 -4.13905,-2.10253 l -1.12768,2.04195 m 6.7254,21.24954 c -9.49951,-2.98443 -18.31576,-7.64454 -26.08942,-13.621 m 19.58094,-25.53484 c -4.88346,-3.84154 -9.20274,-8.51537 -12.5985,-13.66216 M 94.585309,136.5233 c 5.076631,7.90435 11.514281,14.90755 18.945071,20.6417 l 14.41919,-18.58847 c -4.82516,-3.77054 -9.12533,-8.29393 -12.62443,-13.29409 l -15.957322,11.05504 c 3.696862,5.36222 8.067502,10.25978 12.968962,14.54974 l 10.19777,-11.62916 c -2.97814,-2.61799 -5.72514,-5.51087 -8.17955,-8.61717 l -8.90805,7.00802 c 2.00484,2.55255 4.17692,4.97625 6.49548,7.25035 l 4.76073,-4.85314 c -1.11511,-1.09404 -2.19359,-2.22558 -3.23237,-3.39157 l -1.7506,1.55828 m -1.00888,22.35108 c -7.7572,-5.99719 -14.468988,-13.30789 -19.776029,-21.57278 m 26.861979,-17.60445 c -3.38117,-5.15423 -5.836,-10.77858 -7.00514,-16.51373 m -26.985735,5.60171 c 1.986688,9.33877 5.702294,18.14428 10.778924,26.04864 l 19.710181,-12.76139 c -3.33541,-5.09312 -5.84202,-10.63529 -7.24374,-16.35041 l -18.718417,4.63139 c 1.581753,6.36724 4.033184,12.46573 7.211337,18.15253 l 13.42128,-7.54913 c -1.93613,-3.41361 -3.52954,-6.99052 -4.71877,-10.66926 l -10.703039,3.44708 c 0.991662,3.08328 2.204686,6.09184 3.618313,9.00492 l 6.073646,-2.95692 c -0.67892,-1.38975 -1.30611,-2.8019 -1.87851,-4.2334 l -2.160082,0.86116 m -8.387465,20.69563 c -5.284872,-8.27991 -9.162164,-17.51118 -11.272545,-27.33446 m 31.227222,-6.72373 c -0.57332,-2.86292 -0.82575,-5.752731 -0.71263,-8.624769 -0.11356,-2.883102 0.14126,-5.784111 0.71927,-8.657852 M 83.806385,81.750423 c -0.993344,4.669386 -1.554458,9.472088 -1.637356,14.362118 0.0829,4.890029 0.644012,9.692729 1.637356,14.362119 l 22.856775,-4.7899 c -0.64761,-3.1621 -0.95234,-6.36817 -0.86821,-9.572219 -0.0688,-2.619258 0.12232,-5.239866 0.54816,-7.836703 L 87.311921,85.008037 c -0.637299,3.636776 -0.990522,7.346652 -1.034545,11.104504 0.03457,2.951038 0.259824,5.872489 0.663592,8.752189 l 15.236122,-2.06044 c -0.28495,-2.21707 -0.41557,-4.451712 -0.3797,-6.691749 -0.0257,-1.603359 0.034,-3.203953 0.17441,-4.79732 l -11.243151,-1.09235 c -0.195613,1.948395 -0.301301,3.913106 -0.312601,5.88967 0.0076,1.323112 0.05742,2.640911 0.148239,3.952059 l 6.767591,-0.44174 c -0.07111,-1.166343 -0.103694,-2.336895 -0.09643,-3.510319 -0.0023,-0.372299 -5.99e-4,-0.744309 0.0051,-1.115987 l -2.346405,-0.04888 M 79.487921,111.22863 c -1.03925,-4.90685 -1.637764,-9.96043 -1.750884,-15.116089 0.113556,-5.175515 0.716252,-10.248169 1.762914,-15.172784 m 31.298929,6.379297 c 1.17408,-5.73472 3.63316,-11.357953 7.01789,-16.510369 M 94.58531,55.701784 C 89.50868,63.606139 85.793073,72.41165 83.806385,81.750423 l 22.856775,4.789895 c 1.17703,-5.747074 3.48667,-11.34892 6.65284,-16.52945 L 96.722572,59.996087 c -3.350878,5.585703 -5.992226,11.600299 -7.781087,17.900834 l 14.748245,4.187443 c 1.05363,-3.710797 2.52162,-7.329936 4.34253,-10.795961 L 98.02574,66.076766 c -1.492266,2.874449 -2.78804,5.848488 -3.866564,8.901358 l 6.353014,2.249187 c 0.51477,-1.450729 1.08593,-2.883699 1.7104,-4.29585 l -2.12952,-0.938594 m -20.543382,8.714534 c 2.117174,-9.821011 6.000567,-19.049308 11.290849,-27.32556 m 27.056453,17.305088 c 3.3993,-5.144971 7.72144,-9.816294 12.60707,-13.654637 M 113.53038,35.06008 C 106.0996,40.794229 99.661941,47.797429 94.58531,55.701784 l 19.71019,12.761385 c 3.33541,-5.093128 7.49963,-9.737215 12.21657,-13.656176 L 114.12791,39.816739 c -5.02706,4.141747 -9.54049,8.908293 -13.39735,14.156681 l 12.42906,9.17179 c 2.35578,-3.175326 5.01433,-6.147407 7.91421,-8.854789 l -7.73686,-8.297899 c -2.37576,2.214037 -4.60916,4.581784 -6.67942,7.082483 l 5.23049,4.335797 c 0.99682,-1.20087 2.03492,-2.36888 3.11123,-3.500971 l -1.6992,-1.614877 m -22.334167,0.891349 c 5.31244,-8.261221 12.028937,-15.567565 19.790157,-21.559702 m 19.86364,25.315078 c 4.8945,-3.825189 10.34966,-6.814566 16.00616,-8.608801 m -8.19163,-26.300199 c -9.04915,2.828153 -17.47307,7.293252 -24.90385,13.027401 l 14.41919,18.588475 c 4.82517,-3.770538 10.17533,-6.788225 15.77439,-8.776974 L 137.32058,26.67736 c -6.16632,2.160868 -12.01492,5.142438 -17.40284,8.801754 l 8.7012,12.747468 c 3.2527,-2.234629 6.69658,-4.154427 10.27021,-5.697938 l -4.43417,-10.351138 c -2.97705,1.271414 -5.86586,2.750659 -8.64565,4.416977 l 3.48901,5.803445 c 1.3298,-0.801945 2.68577,-1.55593 4.06487,-2.258897 l -1.05545,-2.077724 m -21.36797,-6.576162 c 7.77768,-5.971396 16.59724,-10.625752 26.09937,-13.603739 m 9.7205,30.409265 c 4.25045,-1.333321 8.61286,-1.990966 12.93503,-1.82073 1.43297,-0.05644 2.87037,-0.02188 4.30665,0.09813 m 2.95715,-27.503931 c -2.3956,-0.274809 -4.81879,-0.435812 -7.2638,-0.477261 -7.33505,0.124347 -14.4736,1.324681 -21.26046,3.445796 l 6.9838,22.271166 c 4.65996,-1.468493 9.47058,-2.217241 14.27666,-2.09104 1.01723,-0.02671 2.03467,-0.01423 3.05084,0.03598 l 1.30426,-19.363829 c -1.44349,-0.108898 -2.89568,-0.172632 -4.3551,-0.189729 -5.24947,0.0615 -10.40531,0.726373 -15.39904,1.92614 l 3.56467,14.914477 c 3.74439,-0.888706 7.56839,-1.350994 11.41053,-1.325408 l -0.0985,-11.371353 c -3.29613,0.04658 -6.55813,0.355111 -9.76524,0.904837 l 1.12857,6.652133 c 1.51371,-0.253955 3.03849,-0.44485 4.5713,-0.569628 l -0.19826,-2.327135 M 137.26399,17.811295 c 7.14426,-2.216632 14.67189,-3.486168 22.4307,-3.656404 2.57236,0.05644 5.11931,0.233715 7.63531,0.526278 m -3.19226,31.898561 c 5.76809,0.503708 11.51524,2.382949 16.8821,5.278392 m 12.99412,-24.40149 c -8.33194,-4.373125 -17.47306,-7.293253 -27.05547,-8.392488 l -2.46196,23.308362 c 5.80608,0.532951 11.54289,2.274471 16.93434,4.948475 l 8.49411,-17.368945 c -5.86279,-2.847938 -12.10551,-4.937369 -18.58518,-6.125338 l -2.72126,15.107936 c 3.78135,0.664777 7.49894,1.771815 11.09131,3.259658 l 4.27866,-10.412521 c -2.99546,-1.227297 -6.07697,-2.24457 -9.22379,-3.031063 l -1.63082,6.536928 c 1.4899,0.370973 2.96582,0.8021 4.42469,1.290322 l 0.73618,-2.203752 M 167.56886,14.709301 c 10.09689,1.20429 19.69161,4.265339 28.42482,8.823818 m -14.84699,28.393663 c 5.36085,2.911441 10.33859,6.836252 14.57389,11.415102 M 216.21434,44.567106 C 209.86866,37.65588 202.3459,31.829757 194.01396,27.456632 l -10.96955,20.69787 c 5.3193,2.858504 10.26551,6.621765 14.56255,11.013697 l 13.91246,-13.602553 c -4.55307,-4.658353 -9.68196,-8.754103 -15.24372,-12.144295 l -8.05777,13.140915 c 3.34718,2.06823 6.51902,4.467135 9.45405,7.135257 l 7.62318,-8.401115 c -2.4056,-2.181347 -4.95137,-4.206793 -7.61657,-6.055578 l -3.87218,5.569147 c 1.27731,0.890282 2.52554,1.825618 3.74162,2.80295 l 1.46582,-1.826794 m -2.8138,-22.144936 c 8.7196,4.582064 16.57488,10.658725 23.20648,17.870654 M 195.8206,63.450286 c 4.22357,4.589139 7.70188,9.829485 10.07558,15.361709 m 25.45608,-10.623796 c -3.62364,-8.713538 -8.79224,-16.709867 -15.13792,-23.621093 l -17.33274,15.94298 c 4.16387,4.515413 7.65084,9.631773 10.18483,15.072991 l 17.55931,-8.064655 c -2.70643,-5.931843 -6.18458,-11.496987 -10.2915,-16.552478 l -11.98561,9.765225 c 2.50779,3.066457 4.72865,6.352002 6.60112,9.795178 l 9.93467,-5.356685 C 219.3509,62.316474 217.62307,59.565067 215.7217,56.9362 l -5.49456,3.982406 c 0.91565,1.260526 1.78712,2.551006 2.61134,3.868382 l 1.98202,-1.236399 m 4.74263,-21.86798 c 6.61229,7.229804 11.99809,15.592043 15.79805,24.727387 m -29.40907,12.532879 c 2.35626,5.536802 3.6051,11.36265 3.38716,17.118212 m 27.88108,0.05146 c -0.1658,-9.78006 -2.24446,-19.210806 -5.86809,-27.924343 l -21.55154,9.043689 c 2.33981,5.503681 3.6989,11.304496 3.80119,17.126359 l 19.43464,-0.75525 C 232.7137,86.934589 231.42322,80.436974 229.30807,74.25311 l -14.50479,4.980866 c 1.26317,3.659458 2.12783,7.426416 2.53251,11.239421 l 11.21314,-1.279232 c -0.37924,-3.242817 -1.00691,-6.437975 -1.86224,-9.564713 l -6.49799,1.776703 c 0.40493,1.481705 0.75057,2.978265 1.03387,4.48662 l 2.28479,-0.432569 m 11.94339,-18.834034 c 3.77494,9.14751 5.96122,19.065292 6.19951,29.394016"
       transform="translate(204.42398,43.98997)"
       inkscape:export-filename="path12.svg"
       inkscape:export-xdpi="96"
       inkscape:export-ydpi="96" /></g></svg>
