<?xml version="1.0" encoding="UTF-8" standalone="no"?>
<!-- Created with Inkscape (http://www.inkscape.org/) -->

<svg
   width="756.26733"
   height="756.2674"
   viewBox="0 0 200.09571 200.09573"
   version="1.1"
   id="svg1"
   inkscape:version="1.4.2 (f4327f4, 2025-05-13)"
   sodipodi:docname="61.svg"
   xml:space="preserve"
   xmlns:inkscape="http://www.inkscape.org/namespaces/inkscape"
   xmlns:sodipodi="http://sodipodi.sourceforge.net/DTD/sodipodi-0.dtd"
   xmlns="http://www.w3.org/2000/svg"
   xmlns:svg="http://www.w3.org/2000/svg"><sodipodi:namedview
     id="namedview1"
     pagecolor="#ffffff"
     bordercolor="#000000"
     borderopacity="0.25"
     inkscape:showpageshadow="2"
     inkscape:pageopacity="0.0"
     inkscape:pagecheckerboard="0"
     inkscape:deskcolor="#3c3c3c"
     inkscape:document-units="px"
     inkscape:zoom="11.451852"
     inkscape:cx="204.55207"
     inkscape:cy="129.54237"
     inkscape:window-width="1920"
     inkscape:window-height="991"
     inkscape:window-x="-9"
     inkscape:window-y="-9"
     inkscape:window-maximized="1"
     inkscape:current-layer="layer1"
     showgrid="true"><inkscape:page
       x="0"
       y="-4.4314536e-15"
       width="200.0957"
       height="200.09572"
       id="page2"
       margin="0"
       bleed="0" /></sodipodi:namedview><defs
     id="defs1"><inkscape:path-effect
       effect="skeletal"
       id="path-effect11"
       is_visible="true"
       lpeversion="1"
       pattern="#path9"
       copytype="repeated_stretched"
       prop_scale="1"
       scale_y_rel="false"
       spacing="0"
       normal_offset="0"
       tang_offset="0"
       prop_units="false"
       vertical_pattern="false"
       hide_knot="false"
       fuse_tolerance="0" /></defs><g
     inkscape:label="Capa1"
     inkscape:groupmode="layer"
     id="layer1"
     style="display:inline;opacity:1;mix-blend-mode:multiply"
     transform="translate(-42.27264,-41.53331)"><path
       style="fill:none;stroke:#000000;stroke-width:1.32292;stroke-linecap:square;stroke-linejoin:miter;stroke-miterlimit:4.7;stroke-dasharray:none"
       id="path11"
       inkscape:path-effect="#path-effect11"
       sodipodi:type="arc"
       sodipodi:cx="159.69469"
       sodipodi:cy="96.112541"
       sodipodi:rx="65.800125"
       sodipodi:ry="65.800125"
       d="m 238.50735,96.318477 c 6.4929,14.018583 8.76214,31.384493 6.00271,49.249443 m -34.01323,-20.48147 c -0.42201,-12.344 -4.73906,-22.97403 -12.12695,-28.973909 h 33.92818 c 6.09608,11.686279 8.80559,26.345569 7.51001,41.789399 l -24.38958,-13.34159 c -0.49791,-9.39467 -3.12527,-17.83032 -7.5618,-24.17377 l 21.98281,2.35507 c 2.96903,7.1359 4.70231,15.25828 5.06219,23.88 l -14.83475,-6.442 c -0.65397,-5.01468 -1.90107,-9.71417 -3.69479,-13.93395 l 9.48241,1.94962 c 0.866,2.58834 1.56729,5.29832 2.09701,8.10569 l -3.17292,-1.03149 m -32.6639,-19.087862 c 7.42881,4.722642 12.0209,14.179542 12.97125,25.522422 m 21.95263,13.65911 c -1.1876,14.99646 -6.79654,31.08318 -17.63184,45.41187 M 188.66858,146.9147 c 5.28738,-11.19764 6.4789,-22.9741 4.39878,-32.41319 l 28.79912,17.48974 c -0.59942,12.93952 -4.75124,26.95864 -13.07398,39.8689 l -15.51273,-23.15031 c 3.90305,-8.60209 5.56972,-17.46608 5.32029,-25.45878 l 17.88672,13.1174 c -0.93636,7.63531 -3.16937,15.56166 -6.8367,23.29193 L 199.45882,146.9657 c 1.77004,-4.77448 2.91742,-9.57108 3.48863,-14.22524 l 7.38436,6.38027 c -0.50363,2.69732 -1.18022,5.42217 -2.03661,8.15032 l -2.32484,-2.43469 m -18.2678,-33.49098 c 2.54405,8.49626 2.0537,19.46973 -2.27607,30.0721 m 13.18059,22.24247 c -8.02954,12.66167 -20.67809,24.15654 -38.7507,31.63631 m -0.1617,-39.97491 c 0,0 0,0 1e-5,0 10.15158,-6.71251 16.00649,-16.29661 18.38896,-25.83613 l 17.48973,28.79913 c -6.52688,11.15868 -16.77198,21.50355 -31.35385,28.84615 l -1.53023,-27.85339 c 7.68726,-5.37313 13.03121,-12.22905 16.35213,-19.43461 l 9.73073,19.81982 c -4.37628,6.29592 -10.11012,12.18746 -17.33918,17.18748 l -2.57051,-15.9701 c 3.86989,-3.25371 7.08758,-6.86682 9.69956,-10.67479 l 3.50241,9.02702 c -1.70204,2.12989 -3.58528,4.19321 -5.65656,6.16572 l -0.86161,-3.22275 m -0.76539,-37.9604 c -1.50213,8.95722 -6.23635,18.13458 -15.00768,24.68378 m -0.28447,26.02692 c -14.01858,6.4929 -31.3845,8.76214 -49.24944,6.0027 m 20.48148,-34.01322 c 12.344,-0.42201 22.97403,-4.73906 28.97391,-12.12694 l 0,33.92816 c -11.68629,6.09609 -26.34558,8.8056 -41.78942,7.51002 l 13.3416,-24.38958 c 9.39467,-0.49791 17.83032,-3.12527 24.17378,-7.56179 l -2.35508,21.98281 c -7.1359,2.96902 -15.25828,4.7023 -23.88,5.06217 l 6.442,-14.83474 c 5.01468,-0.65397 9.71418,-1.90107 13.93395,-3.69478 l -1.94961,9.4824 c -2.58835,0.866 -5.29833,1.56729 -8.1057,2.09701 l 1.03149,-3.17292 m 19.08787,-32.66389 c -4.72264,7.4288 -14.17955,12.02089 -25.52243,12.97124 m -13.65911,21.95262 c -14.99646,-1.1876 -31.083181,-6.79654 -45.411868,-17.63185 m 33.860368,-20.7382 c 11.19764,5.28738 22.9741,6.47891 32.41319,4.39879 l -17.48975,28.79912 c -12.93952,-0.59943 -26.958639,-4.75125 -39.868897,-13.074 l 23.150317,-15.51272 c 8.60209,3.90305 17.46607,5.56973 25.45878,5.3203 l -13.11741,17.88671 c -7.63531,-0.93636 -15.56166,-3.16937 -23.291921,-6.8367 l 12.694681,-10.19126 c 4.77449,1.77005 9.57109,2.91742 14.22525,3.48864 l -6.38027,7.38435 c -2.69732,-0.50363 -5.42218,-1.18022 -8.15032,-2.03661 l 2.43469,-2.32483 m 33.49098,-18.2678 c -8.49626,2.54405 -19.46973,2.0537 -30.0721,-2.27608 M 92.147271,135.02492 C 79.485604,126.99538 67.990736,114.34682 60.510967,96.274208 m 39.974923,-0.161689 c 0,8e-6 0,1.5e-5 0,2.2e-5 6.7125,10.151569 16.2966,16.006489 25.83612,18.388949 L 97.52287,131.99122 C 86.364187,125.46434 76.019323,115.21923 68.67673,100.63736 l 27.853387,-1.530222 c 5.373123,7.687262 12.229053,13.031222 19.434603,16.352142 l -19.819822,9.73071 C 89.848977,120.81371 83.95744,115.07988 78.957421,107.85081 l 15.970102,-2.5705 c 3.253713,3.86989 6.866827,7.08758 10.674797,9.69956 l -9.027032,3.50241 c -2.129889,-1.70205 -4.19321,-3.58528 -6.165714,-5.65657 l 3.222746,-0.8616 m 37.9604,-0.76538 c -8.95722,-1.50214 -18.13457,-6.23636 -24.68377,-15.007688 M 80.882026,95.906563 C 74.389134,81.887977 72.119897,64.522064 74.879341,46.657122 m 34.013219,20.481486 c 0.422,12.344002 4.73905,22.974036 12.12693,28.973915 l -33.928151,-4e-6 C 80.995243,84.42622 78.285735,69.766933 79.581321,54.323097 L 103.9709,67.664702 c 0.49791,9.394671 3.12526,17.830321 7.56178,24.173779 L 89.549875,89.4834 C 86.580856,82.347491 84.847573,74.22511 84.487705,65.603391 l 14.834744,6.442006 c 0.653969,5.014681 1.901061,9.71418 3.694781,13.933954 l -9.482405,-1.949618 c -0.865999,-2.588342 -1.567288,-5.298325 -2.097014,-8.105698 l 3.172924,1.031495 M 127.27462,96.043411 C 119.84582,91.320767 115.25373,81.863856 114.30339,70.520975 M 92.350766,56.861855 C 93.538373,41.865399 99.14732,25.778678 109.98263,11.449993 m 20.73819,33.860377 c -5.28738,11.197638 -6.47891,22.974096 -4.39879,32.413186 L 97.522908,60.233801 C 98.122336,47.294277 102.27416,33.27516 110.59691,20.364905 l 15.51272,23.150316 c -3.90305,8.602093 -5.56973,17.466077 -5.3203,25.458779 L 102.90261,55.856592 c 0.93637,-7.635308 3.16938,-15.56166 6.83672,-23.291922 l 10.19125,12.694688 c -1.77005,4.774487 -2.91742,9.571083 -3.48864,14.225245 l -7.38435,-6.380273 c 0.50363,-2.69732 1.18022,-5.422176 2.03661,-8.150319 l 2.32484,2.434691 m 18.26779,33.490981 c -2.54405,-8.496261 -2.0537,-19.469726 2.27608,-30.072096 M 120.78233,28.565115 C 128.81187,15.90345 141.46044,4.4085855 159.53305,-3.0711798 m 0.16167,39.9749338 c -1e-5,0 -2e-5,0 -3e-5,10e-7 -10.15157,6.712497 -16.00648,16.296588 -18.38894,25.8361 L 123.81603,33.940714 c 6.52688,-11.158681 16.77199,-21.503542 31.35386,-28.846132 l 1.53022,27.853389 c -7.68727,5.373122 -13.03122,12.229046 -16.35215,19.4346 l -9.73071,-19.819827 c 4.37628,-6.295919 10.11012,-12.187455 17.33919,-17.187473 l 2.57049,15.970104 c -3.86989,3.253711 -7.08757,6.866822 -9.69956,10.67479 l -3.5024,-9.027029 c 1.70204,-2.129889 3.58528,-4.193209 5.65656,-6.165712 l 0.86161,3.222745 m 0.76537,37.960401 c 1.50214,-8.957216 6.23636,-18.134571 15.00769,-24.683768 m 0.28449,-26.026921 c 14.01858,-6.492888 31.3845,-8.7621209 49.24944,-6.002673 m -20.4815,34.01321 c -12.344,0.422001 -22.97403,4.739046 -28.97392,12.126924 l 1e-5,-33.928137 c 11.68631,-6.096104 26.3456,-8.805608 41.78943,-7.510018 l -13.34161,24.389575 c -9.39467,0.497906 -17.83032,3.125255 -24.17378,7.561774 l 2.35509,-21.982805 c 7.13591,-2.969016 15.25829,-4.702297 23.88001,-5.062163 l -6.44201,14.834742 c -5.01468,0.653968 -9.71418,1.90106 -13.93396,3.694773 l 1.94962,-9.4824 c 2.58834,-0.865998 5.29833,-1.567287 8.1057,-2.097012 l -1.0315,3.172923 m -19.08789,32.663878 c 4.72265,-7.428797 14.17956,-12.020879 25.52244,-12.971222 m 13.65913,-21.952619 c 14.99646,1.187611 31.08318,6.796561 45.41186,17.631875 m -33.86038,20.738181 c -11.19764,-5.287386 -22.9741,-6.478915 -32.41319,-4.398799 l 17.48976,-28.799116 c 12.93953,0.599431 26.95864,4.751259 39.8689,13.074015 l -23.15032,15.51271 c -8.6021,-3.903053 -17.46608,-5.569732 -25.45878,-5.320307 l 13.11741,-17.886711 c 7.63531,0.936369 15.56166,3.169381 23.29192,6.836718 l -12.69469,10.19125 c -4.77449,-1.770046 -9.57108,-2.917425 -14.22524,-3.488643 l 6.38027,-7.384353 c 2.69732,0.503636 5.42218,1.180224 8.15032,2.036617 l -2.43469,2.324834 m -33.49099,18.267784 c 8.49626,-2.544045 19.46973,-2.05369 30.0721,2.276087 m 22.24247,-13.180572 c 12.66167,8.029546 24.15653,20.678113 31.63629,38.750728 M 218.9035,96.112602 C 212.19101,85.961006 202.6069,80.106079 193.06738,77.723609 l 28.79914,-17.489712 c 11.15868,6.526884 21.50354,16.771998 28.84613,31.353872 l -27.85339,1.530208 C 217.48614,85.430711 210.63022,80.086752 203.42466,76.76583 l 19.81983,-9.730709 c 6.29592,4.376284 12.18745,10.110121 17.18747,17.33919 l -15.9701,2.570492 c -3.25371,-3.869892 -6.86682,-7.087578 -10.67479,-9.69956 l 9.02703,-3.502407 c 2.12989,1.702045 4.19321,3.585284 6.16571,5.656569 l -3.22275,0.861605 m -37.9604,0.765358 c 8.95722,1.502143 18.13457,6.236368 24.68377,15.007699"
       transform="translate(-17.37419,45.468624)"
       inkscape:export-filename="64.svg"
       inkscape:export-xdpi="96"
       inkscape:export-ydpi="96" /></g></svg>
