<?xml version="1.0" encoding="UTF-8" standalone="no"?>
<!-- Created with Inkscape (http://www.inkscape.org/) -->

<svg
   width="1280"
   height="755.06555"
   viewBox="0 0 1279.9999 755.0656"
   version="1.1"
   id="svg5"
   inkscape:version="1.4.2 (f4327f4, 2025-05-13)"
   xml:space="preserve"
   sodipodi:docname="14.svg"
   xmlns:inkscape="http://www.inkscape.org/namespaces/inkscape"
   xmlns:sodipodi="http://sodipodi.sourceforge.net/DTD/sodipodi-0.dtd"
   xmlns="http://www.w3.org/2000/svg"
   xmlns:svg="http://www.w3.org/2000/svg"><sodipodi:namedview
     id="namedview7"
     pagecolor="#ffffff"
     bordercolor="#666666"
     borderopacity="1.0"
     inkscape:showpageshadow="2"
     inkscape:pageopacity="0.0"
     inkscape:pagecheckerboard="0"
     inkscape:deskcolor="#d1d1d1"
     inkscape:document-units="px"
     showgrid="false"
     showborder="false"
     inkscape:zoom="0.47022002"
     inkscape:cx="1075.0287"
     inkscape:cy="485.94273"
     inkscape:window-width="1920"
     inkscape:window-height="991"
     inkscape:window-x="-9"
     inkscape:window-y="-9"
     inkscape:window-maximized="1"
     inkscape:current-layer="layer1" /><defs
     id="defs2"><clipPath
       clipPathUnits="userSpaceOnUse"
       id="clipPath8006"><path
         inkscape:connector-curvature="0"
         id="path8008"
         d="m -1244.8456,-140.77945 h 33.9355 c 11.5456,0 20.8405,9.29479 20.8405,20.84039 v 31.873282 c 0,11.545575 -9.2949,20.840392 -20.8405,20.840392 h -33.9355 c -11.5456,0 -20.8405,-9.294817 -20.8405,-20.840392 v -31.873282 c 0,-11.5456 9.2949,-20.84039 20.8405,-20.84039 z"
         style="opacity:0.521;fill:#ff0000;fill-opacity:1;stroke:none;stroke-width:1.61448;stroke-linecap:round;stroke-linejoin:round;stroke-miterlimit:4;stroke-dasharray:none" /></clipPath><clipPath
       clipPathUnits="userSpaceOnUse"
       id="clipPath8001"><path
         style="opacity:0.521;fill:#ff0000;fill-opacity:1;stroke:none;stroke-width:1.59706;stroke-linecap:round;stroke-linejoin:round;stroke-miterlimit:4;stroke-dasharray:none"
         d="m -2936.6731,-1508.8075 h 33.5693 c 11.421,0 20.6155,9.1945 20.6155,20.6155 v 31.5293 c 0,11.421 -9.1945,20.6155 -20.6155,20.6155 h -33.5693 c -11.421,0 -20.6156,-9.1945 -20.6156,-20.6155 v -31.5293 c 0,-11.421 9.1946,-20.6155 20.6156,-20.6155 z"
         id="path8003"
         inkscape:connector-curvature="0" /></clipPath></defs><g
     inkscape:label="Layer 1"
     inkscape:groupmode="layer"
     id="layer1"
     transform="translate(1509.121,219.39373)"><path
       style="fill:#000000;stroke-width:0.999996"
       d="m -721.42318,535.32802 c -4.73646,-0.92159 -114.91534,-37.78284 -114.94919,-38.45723 -0.0209,-0.41067 0.97047,-0.79864 2.20247,-0.86215 1.63451,-0.0846 1.77777,-0.23685 0.52994,-0.56458 -2.31985,-0.60928 -34.44913,9.51323 -72.45886,22.82859 -53.317,18.67783 -53.33183,18.68111 -62.46018,14.13232 -14.29818,-7.1251 -20.43349,-23.23538 -15.29344,-40.15804 2.43742,-8.02468 3.7195,-9.06822 13.54026,-11.0213 10.57261,-2.10252 32.77261,-7.82199 42.90946,-11.05486 17.8311,-5.68671 44.8933,-16.49576 43.86778,-17.52138 -0.19772,-0.19762 -11.2914,2.33497 -24.65275,5.62798 -13.36136,3.293 -25.3158,5.98757 -26.56552,5.98807 -3.57414,0 -17.84922,-5.85905 -21.25771,-8.72715 -2.85445,-2.40178 -3.04371,-2.94933 -2.52722,-7.30987 0.74438,-6.28544 4.60216,-13.64768 9.44305,-18.02105 6.66236,-6.01904 4.11334,-6.3193 40.0096,4.71375 9.58223,2.94526 24.36624,7.00334 32.85335,9.01795 28.7656,6.82832 41.32035,10.22526 39.82224,10.7747 -35.24198,12.92302 -72.89092,27.58915 -72.31131,28.16866 0.67737,0.67748 41.05474,-12.54789 74.30242,-24.33736 58.1788,-20.62971 92.95357,-32.17876 98.49374,-32.71048 7.04943,-0.67668 11.2904,1.46326 15.67682,7.91058 3.54896,5.21642 5.91539,13.9807 4.8842,18.08916 -1.3668,5.44579 -4.57279,7.01219 -38.9125,19.01243 -8.76089,3.06153 -22.6489,8.16535 -30.86224,11.34167 -8.21333,3.17642 -15.60534,6.00798 -16.42667,6.29241 -1.00073,0.34655 -0.80053,0.54308 0.60689,0.59584 2.19331,0.0816 35.3499,-9.23269 45.66157,-12.82774 l 5.94835,-2.07394 11.47388,2.60726 c 17.95466,4.07989 32.74374,8.49857 36.16815,10.80626 11.56568,7.79411 11.13291,27.05294 -0.90745,40.38005 -5.57421,6.17006 -12.00003,8.68424 -18.80913,7.35945 z m -229.44888,-14.56389 c 6.40312,-14.10623 -3.85678,-30.87537 -18.65383,-30.4887 l -4.76851,0.12454 4.42674,0.71501 c 9.11163,1.47163 17.70307,16.22936 16.82509,28.90069 -0.18985,2.73947 -0.21125,4.98057 -0.0478,4.98017 0.16367,-3e-4 1.16181,-1.9046 2.2181,-4.23171 z m 227.53114,-3.48444 c 0.0846,-7.76972 2.56076,-14.21784 8.01512,-20.87412 4.69325,-5.72754 1.84178,-5.77871 -3.70178,-0.0667 -8.33131,8.58488 -11.26183,19.36944 -6.80333,25.03734 1.13483,1.44276 2.14284,2.62319 2.24,2.62319 0.0976,0 0.20967,-3.024 0.24999,-6.72 z m -18.21808,-9.33404 c -1.39268,-1.39268 -13.88114,-4.87314 -17.17603,-4.78693 -1.41339,0.0368 0.75244,1.08237 4.95628,2.39242 4.10666,1.27969 8.58667,2.76585 9.95556,3.30266 2.83335,1.11114 3.86833,0.69599 2.26419,-0.90815 z m -182.9576,-8.73779 c 9.21825,-3.44025 8.07326,-3.9213 -2.74684,-1.15395 -8.01423,2.04965 -15.67095,5.46829 -15.67095,6.99686 0,0.90258 2.2863,0.17731 18.41779,-5.84291 z m 66.39153,-11.5387 c 11.55761,-2.73329 21.11186,-6.21714 46.90403,-17.10295 10.94544,-4.61968 14.48305,-7.01081 4.61848,-3.12177 -2.9789,1.17446 -18.18422,6.51293 -33.78956,11.86335 -26.64417,9.13522 -32.31824,11.81058 -17.73295,8.36137 z m 107.83076,-40.884 c 4.24724,-2.09893 5.8025,-3.21962 3.98223,-2.86949 -3.63348,0.69898 -20.4762,7.97471 -23.04165,9.95357 -2.57978,1.98992 10.64259,-2.92464 19.05942,-7.08408 z m -352.42679,-2.56485 c -31.5468,-3.44601 -48.0876,-5.68641 -69.5381,-9.41905 -4.8451,-0.84314 -9.0242,-1.31792 -9.2871,-1.05499 -0.4149,0.41495 2.8716,2.51557 10.1318,6.47569 1.0951,0.59734 1.6802,1.09969 1.3001,1.11632 -1.0335,0.0458 -47.1722,-7.69824 -62.029,-10.41043 -35.7985,-6.53523 -73.7584,-11.01015 -106.0267,-12.49891 -12.32,-0.56836 -29.792,-1.37396 -38.8267,-1.79011 l -16.4267,-0.75662 6.4711,-3.13919 c 10.4944,-5.09097 36.4445,-11.65865 54.0224,-13.67256 6.1212,-0.70137 6.818,-1.98524 1.4892,-2.74395 -1.7847,-0.25407 -9.9649,-1.63082 -18.1782,-3.05925 -18.6291,-3.24013 -42.8157,-6.32327 -59.7334,-7.61441 -26.053,-1.98852 -66.1278,-3.22301 -82.9885,-2.55659 -19.5436,0.77255 -20.3533,0.38598 -10.9173,-5.21253 6.0197,-3.57156 26.6987,-11.33112 41.8935,-15.71993 6.0202,-1.73883 9.7012,-3.30574 9.7012,-4.12956 0,-0.73014 -1.1256,-3.11062 -2.5013,-5.28999 -1.3758,-2.17927 -2.0896,-3.96241 -1.5862,-3.96241 0.5034,0 3.9426,1.35824 7.6426,3.01842 3.7001,1.66009 8.4105,3.39654 10.4675,3.85868 4.2775,0.96111 4.2917,1.3227 -0.3206,-8.1987 -1.5669,-3.23466 -2.6309,-6.09918 -2.3645,-6.36549 0.2663,-0.26631 4.3716,2.04965 9.1229,5.14673 4.7513,3.09697 8.866,5.40368 9.1438,5.12582 1.9268,-1.9267 4.3567,-15.59758 4.795,-26.97658 0.2742,-7.11823 0.6813,-15.3242 0.9046,-18.2355 l 0.4061,-5.29327 -4.2377,3.4724 c -5.8823,4.82018 -16.5207,10.50899 -22.7567,12.16908 -10.0759,2.68232 -25.6399,0.80819 -25.6399,-3.08732 0,-0.71531 2.128,-3.18449 4.7289,-5.48711 l 4.7288,-4.18641 -3.4844,0.86623 c -1.9164,0.47647 -7.9645,0.84443 -13.44,0.81755 -10.5033,-0.0518 -14.0111,-1.10745 -17.8805,-5.38317 -3.0014,-3.31649 -1.0328,-5.13856 9.1903,-8.50583 9.2943,-3.06143 11.974,-4.46308 8.6073,-4.5021 -2.7071,-0.0319 -7.1405,-3.61895 -5.8904,-4.76653 0.5475,-0.50275 3.0734,-1.41677 5.6131,-2.03123 12.0685,-2.91996 26.7899,-10.8432 36.698,-19.75143 5.3388,-4.79997 6.7452,-7.6403 2.24,-4.52371 -6.6433,4.59569 -22.31,8.25227 -26.2721,6.13183 -2.0071,-1.0741 -1.9155,-1.28666 2.4769,-5.74724 l 4.561,-4.63183 -8.1785,-0.0289 c -10.21,-0.0358 -15.9642,-2.39531 -16.4638,-6.75176 -0.3518,-3.069 1.2494,-5.66422 3.4947,-5.66422 2.7309,0 16.5325,-6.98103 25.0817,-12.68657 8.4907,-5.6665 24.7834,-20.72199 23.6506,-21.85474 -0.3228,-0.32276 -1.1576,-0.13858 -1.8553,0.40947 -3.8649,3.03555 -21.6774,5.95482 -21.6774,3.55265 0,-0.39186 2.128,-2.92007 4.7288,-5.61833 2.6343,-2.7328 3.847,-4.53625 2.7378,-4.07132 -3.391,1.42135 -14.4169,1.69145 -17.4673,0.42789 -7.337,-3.03904 -6.4565,-7.64607 2.3027,-12.04971 17.0856,-8.58956 37.9362,-25.12037 42.5435,-33.72914 1.1388,-2.1279 1.0631,-2.23552 -1.1325,-1.60882 -10.4462,2.98179 -14.7554,3.75345 -18.5635,3.32416 -7.6891,-0.86663 -7.8474,-3.16517 -0.5868,-8.52265 5.0894,-3.75534 5.2915,-4.95419 0.4261,-2.52702 -2.7704,1.38213 -3.8676,1.44057 -7.3793,0.39284 -6.9726,-2.08011 -9.6007,-3.8297 -9.6007,-6.39127 0,-2.95092 1.0232,-3.71621 8.7408,-6.53781 3.4386,-1.25719 8.731,-3.77854 11.7609,-5.60309 5.9612,-3.58958 20.3161,-15.28169 20.3161,-16.54744 0,-0.42729 -1.456,-0.7838 -3.2355,-0.79216 -1.7796,-0.01 -3.9076,-0.46463 -4.7289,-1.01378 -1.2834,-0.85816 -1.2135,-1.16121 0.4978,-2.15567 3.314,-1.92601 12.128,-11.021106 9.9555,-10.272945 -13.8708,4.776375 -29.3689,2.712193 -29.3689,-3.911838 0,-2.70622 1.8386,-4.306377 13.4215,-11.680958 7.6432,-4.866278 26.3759,-22.07964 25.2518,-23.203722 -0.3003,-0.30026 -1.8446,0.131314 -3.4318,0.959119 -5.1548,2.6882 -14.3348,1.490745 -14.3348,-1.869953 0,-0.729344 1.904,-2.581775 4.2311,-4.116723 4.8138,-3.175028 12.7819,-9.663862 12.3712,-10.074629 -0.1503,-0.150229 -2.4552,0.831389 -5.122,2.181562 -6.4526,3.266718 -15.8311,3.495298 -17.4737,0.425999 -1.8592,-3.473993 -0.1419,-5.704735 8.1835,-10.630248 7.9418,-4.698626 18.418,-13.925041 20.7421,-18.267557 1.0419,-1.946809 0.9782,-2.146418 -0.5034,-1.577856 -3.9709,1.523798 -9.5219,1.856612 -10.9668,0.657565 -1.279,-1.061462 -0.7136,-2.002462 3.9769,-6.6185561 3.0073,-2.9595888 5.4678,-5.8419224 5.4678,-6.4051085 0,-0.66005356 -2.0715,-0.78957539 -5.829,-0.36447299 -9.5901,1.08495689 -13.1079,-2.32273161 -6.8644,-6.64951741 5.0251,-3.4823553 10.7958,-8.805693 15.4555,-14.257158 3.9707,-4.645563 4.1207,-5.028553 2.24,-5.724248 -2.4067,-0.890226 -2.6109,-3.058348 -0.4565,-4.846366 1.4042,-1.165398 4.4144,-6.126353 4.4144,-7.275025 0,-0.252772 -2.1123,-0.387073 -4.694,-0.298369 -6.2167,0.213448 -6.7248,-1.96005 -1.7464,-7.470652 5.7418,-6.35543 9.0708,-14.70008 11.4276,-28.644932 1.1512,-6.810798 2.4737,-13.063586 2.939,-13.895075 1.0104,-1.80554 2.2522,2.46649 4.0213,13.834047 2.6519,17.040334 4.1112,21.129083 10.5534,29.568809 4.0991,5.370128 3.5288,6.603025 -3.0544,6.603025 -2.4822,0 -4.5132,0.383388 -4.5132,0.851897 0,0.468509 1.792,2.796019 3.9822,5.172112 2.1903,2.376094 3.9823,4.60604 3.9823,4.95548 0,0.34944 -1.12,0.635364 -2.4889,0.635364 -1.3689,0 -2.4889,0.424704 -2.4889,0.943886 0,1.592492 9.3542,12.274807 14.2702,16.2960568 7.6028,6.2192382 5.2589,10.20843094 -5.2655,8.96199487 -2.7624,-0.32713969 -5.0084,-0.19642319 -4.991,0.29050323 0.048,1.3318548 3.9807,5.5287205 8.1818,8.7301299 2.0534,1.5647152 3.7334,3.6877382 3.7334,4.7178402 0,1.479595 -0.784,1.897729 -3.7334,1.990913 -2.0533,0.06471 -4.2933,0.0448 -4.9777,-0.0438 -4.7576,-0.617742 6.823,11.381594 17.92,18.568015 5.6516,3.660062 6.72,4.793702 6.72,7.13057 0,3.690626 -3.1701,5.076539 -11.7447,5.13458 l -6.6731,0.0448 5.346,4.869663 c 4.9245,4.485676 5.2732,5.090476 4.4221,7.67036 -2.0078,6.086531 1.2693,11.498473 9.4832,15.660792 5.5117,2.793033 7.1295,5.355196 4.5653,7.230226 -2.6288,1.922219 -12.3024,3.584798 -17.0622,2.93241 l -4.3187,-0.591958 4.2577,3.988695 c 3.7039,3.469712 12.5381,8.533309 17.9466,10.286582 4.8242,1.563919 -0.6909,6.529551 -20.4493,18.412301 -15.7954,9.4993 -15.465,9.25658 -16.7188,12.28367 -1.4977,3.61566 -0.5602,6.95983 3.1291,11.16168 3.1397,3.57603 11.9281,8.54744 15.1099,8.54744 1.0095,0 3.4976,1.68 5.529,3.73334 2.0314,2.05333 4.5894,4.24087 5.6845,4.8612 1.9567,1.10835 1.9481,1.17545 -0.4977,3.87371 -3.8025,4.19487 -22.3717,16.21442 -31.8578,20.62105 -11.2127,5.20865 -11.9467,5.94347 -11.9467,11.96031 0,8.57592 4.6105,13.4399 16.8213,17.74618 4.8952,1.72629 7.6883,3.26443 7.9051,4.35297 0.9582,4.81102 -11.1493,15.25709 -24.3801,21.0348 -14.1515,6.17972 -14.2841,6.2727 -14.2841,10.01699 0,8.54087 6.7586,14.65717 21.8045,19.73261 l 6.4278,2.16823 -6.1594,3.74169 c -3.3877,2.05792 -8.396,5.50951 -11.1295,7.67026 -4.2884,3.38977 -4.97,4.41231 -4.97,7.45532 0,4.13813 1.2058,6.7656 4.9852,10.86252 l 2.7552,2.98666 0.5156,18.91557 c 0.3951,14.4942 0.9449,20.28047 2.352,24.7547 1.01,3.21146 2.1724,5.78746 2.5831,5.72444 0.4106,-0.0627 1.7069,-0.11469 2.8804,-0.11469 1.3373,0 4.6816,-2.62996 8.96,-7.04634 l 6.8262,-7.04645 v 8.042 c 0,6.59556 0.2772,8.04191 1.5412,8.04191 3.0014,0 12.2646,-6.89751 17.1548,-12.77368 l 4.9574,-5.95691 0.4412,8.40657 c 0.5341,10.17478 2.0755,12.66606 6.1751,9.97985 1.3826,-0.90585 2.9973,-2.55071 3.5885,-3.65538 1.0488,-1.95965 1.1845,-1.93307 5.5806,1.09153 2.4781,1.70499 4.644,2.94475 4.8129,2.7551 0.1691,-0.18965 1.6598,-3.58729 3.3127,-7.5503 3.322,-7.96464 7.8825,-16.19072 8.9755,-16.18913 0.3875,6e-4 1.9188,2.16284 3.4027,4.80505 3.691,6.57176 10.0905,13.63404 11.542,12.73704 1.3794,-0.85249 3.8396,-8.93123 5.2228,-17.15004 1.0347,-6.14826 3.146,-42.32935 2.5073,-42.9681 -0.2029,-0.20289 -4.3332,3.76261 -9.1785,8.81217 -9.8801,10.29683 -19.021,16.83843 -23.5289,16.83843 -2.9018,0 -2.9513,-0.0856 -2.4444,-4.23111 0.2844,-2.32711 0.861,-5.07345 1.2811,-6.10286 0.5198,-1.27341 -1.6292,-0.24082 -6.7222,3.22988 -12.9786,8.84462 -22.1632,12.12936 -34.0893,12.19168 -7.3338,0.0378 -12.4654,-1.42374 -13.2282,-3.76878 -0.2093,-0.64352 2.2215,-3.07148 5.4021,-5.39541 3.1804,-2.32393 7.1967,-5.443 8.9252,-6.93126 l 3.1427,-2.70592 -10.1208,0.51649 c -8.9482,0.45666 -10.7173,0.26004 -15.2673,-1.69732 -5.8723,-2.52622 -8.6001,-5.08361 -8.1135,-7.60655 0.185,-0.95852 4.3682,-4.18203 9.2962,-7.16352 4.928,-2.98149 12.544,-8.23663 16.9245,-11.67807 9.3891,-7.37637 19.8759,-17.9451 16.9244,-17.05676 -1.0951,0.32963 -6.0231,2.01252 -10.9511,3.73981 -11.3132,3.96529 -21.3493,4.36322 -28.603,1.13413 -9.0639,-4.03499 -12.501,-10.1034 -6.9881,-12.33802 14.9155,-6.04601 26.6896,-12.92849 37.0353,-21.64886 l 5.4264,-4.57399 -2.9375,-0.50883 c -1.6443,-0.28472 -2.9375,-1.13473 -2.9375,-1.93068 0,-0.78201 3.136,-3.82194 6.9689,-6.75534 3.8329,-2.93351 7.8368,-6.19355 8.8974,-7.24466 1.8823,-1.86518 1.7747,-1.86368 -4.48,0.0637 -18.4584,5.68811 -36.3566,2.04129 -37.0642,-7.55199 -0.1844,-2.49964 0.541,-3.22171 6.7623,-6.73095 22.1378,-12.48706 32.3367,-19.92058 44.9385,-32.75379 8.9449,-9.10914 16.2882,-18.01847 16.2882,-19.76179 0,-0.48732 -2.8,1.05917 -6.2222,3.43646 -8.8303,6.13422 -14.2568,8.66642 -19.0133,8.8721 -3.6346,0.1572 -4.1731,-0.10135 -4.4623,-2.14333 -0.1809,-1.2771 0.3491,-3.0691 1.1778,-3.98223 1.3958,-1.53783 0.982,-1.6351 -5.6196,-1.3207 -7.9231,0.37731 -13.0619,-0.80053 -16.9967,-3.89571 -5.181,-4.07531 -4.0142,-5.51917 14.0342,-17.36668 14.8291,-9.73435 18.5462,-12.78264 33.8584,-27.766847 9.4603,-9.257576 17.0349,-16.997426 16.8327,-17.199723 -0.2023,-0.202197 -4.1253,1.017757 -8.718,2.711198 -8.0349,2.962476 -14.4353,3.921793 -16.7249,2.50681 -1.6321,-1.008698 -1.31,-5.105112 0.5208,-6.624629 1.389,-1.152655 0.5051,-1.493234 -6.4588,-2.488193 -9.7231,-1.389298 -13.0703,-3.269903 -13.0703,-7.343519 0,-3.589179 2.9347,-5.925052 15.5489,-12.375956 9.6154,-4.917349 23.1278,-15.528084 34.2001,-26.856118 6.8926,-7.051821 6.7044,-8.073461 -0.7558,-4.102188 -6.0933,3.24372 -10.2112,3.952556 -14.5816,2.510195 -4.9666,-1.639084 -4.5307,-3.772261 1.906,-9.329256 5.9409,-5.1290044 11.0893,-11.3147919 10.1768,-12.227418 -0.3159,-0.3158899 -3.064,0.6437265 -6.1068,2.1324809 -10.6031,5.1875434 -22.9367,4.0372781 -26.1227,-2.4364242 -1.856,-3.7713651 -0.1495,-5.6057765 9.9179,-10.6603137 11.9049,-5.977219 19.1536,-10.954998 27.7195,-19.035628 10.2895,-9.706571 10.3147,-9.946201 0.9954,-9.406709 -6.4407,0.372835 -8.0126,0.155804 -9.477,-1.308459 -1.6769,-1.677014 -1.4069,-2.083301 6.0342,-9.082059 l 7.7895,-7.326595 -4.9777,2.582273 c -4.1413,2.14821 -5.9128,2.502031 -10.5409,2.105202 -3.0596,-0.262428 -6.9731,-1.206315 -8.6967,-2.097636 -3.4154,-1.766216 -5.0864,-5.861635 -3.451,-8.458343 0.5502,-0.873401 6.7571,-5.448578 13.7932,-10.166916 11.7209,-7.859915 28.3087,-21.779679 28.3087,-23.755459 0,-0.452082 -2.0872,-0.193835 -4.6382,0.573938 -4.7866,1.44047 -12.4711,1.874731 -13.5786,0.767175 -0.9262,-0.926066 1.1529,-4.349086 2.6415,-4.349086 2.2278,0 9.602,-7.022557 9.602,-9.144087 0,-1.54749 -0.4076,-1.84367 -1.7423,-1.26595 -4.7466,2.05453 -12.9972,3.70566 -15.4461,3.091 -4.7072,-1.18142 -3.3514,-3.97097 5.6595,-11.64372 9.0013,-7.66449 12.6417,-11.76339 16.8251,-18.94384 l 2.6541,-4.55536 -2.8618,0.42002 c -3.7081,0.54417 -4.7555,-1.22782 -2.0558,-3.47827 2.3326,-1.94442 8.3155,-10.18076 7.7655,-10.69038 -0.1897,-0.17572 -2.7223,0.17342 -5.628,0.77593 -5.266,1.09183 -8.0625,0.46443 -8.8816,-1.9928 -0.19,-0.56996 1.6283,-3.45926 4.0406,-6.42064 9.5146,-11.68026 13.5787,-21.26796 15.5358,-36.65229 1.7714,-13.92434 3.2369,-21.1698 4.1044,-20.29331 0.4514,0.45606 1.5531,4.8612 2.4481,9.7892 4.3908,24.17409 5.5048,28.87441 8.2174,34.67113 1.6099,3.44025 4.9881,8.57562 7.5072,11.41186 6.3603,7.16144 7.0467,8.63934 4.975,10.71099 -1.2994,1.2995 -2.7616,1.55078 -6.4691,1.11164 -5.9699,-0.70705 -6.119,0.37423 -0.7555,5.47645 4.2666,4.05868 4.383,5.80907 0.3865,5.80907 -1.3366,0 -2.4301,0.27149 -2.4301,0.60341 0,2.43144 13.9077,17.44433 22.6489,24.44876 6.3462,5.0854 7.4825,7.50699 4.6319,9.87273 -2.3265,1.93088 -11.3902,1.42414 -16.2139,-0.90645 -2.254,-1.08904 -4.098,-1.66019 -4.098,-1.26934 0,1.07052 5.9603,7.20305 10.3626,10.662313 5.6339,4.42674 4.2593,5.72385 -5.4689,5.160764 l -7.7824,-0.450589 3.0078,3.797747 c 4.3276,5.46401 11.8813,11.65597 23.2764,19.07993 12.2925,8.00875 14.4356,9.928978 14.4356,12.935358 0,4.183426 -3.3645,6.093301 -11.4539,6.501777 -8.9529,0.452082 -12.7038,-0.721977 -20.3955,-6.384301 -3.29,-2.421889 -5.9817,-4.134843 -5.9817,-3.806508 0,1.253604 13.1493,13.971931 17.391,16.821112 5.3063,3.56419 6.1134,5.146129 3.8831,7.610628 -1.817,2.007737 -5.6181,2.314269 -11.5675,0.932736 -2.0533,-0.476871 -3.7333,-0.514404 -3.7333,-0.08363 0,1.250219 11.3933,11.454867 18.1794,16.282617 3.4165,2.43055 10.6917,6.855498 16.1673,9.8332057 8.5289,4.6382952 10.0021,5.8092681 10.2806,8.17182202 0.747,6.33840618 -9.9104,11.79664128 -23.2912,11.92875128 l -8.033,0.07965 3.2541,4.529381 c 1.7897,2.49118 4.1726,5.360671 5.2951,6.376536 1.1225,1.015965 2.041,2.173498 2.041,2.572417 0,0.39892 -2.9984,1.04633 -6.663,1.438778 l -6.6632,0.713614 2.4321,1.934764 c 7.4014,5.888116 29.7535,19.891706 39.0186,24.44518 5.8862,2.892886 10.7022,5.852077 10.7022,6.576045 0,1.825352 -4.8986,6.32198 -8.2781,7.59888 -1.5414,0.5824 -4.1212,1.058873 -5.7329,1.058873 -2.7008,0 -2.8322,0.160683 -1.6775,2.051741 1.0695,1.751183 0.9699,2.261605 -0.6795,3.484446 -4.2017,3.114995 -15.203,1.130952 -23.9287,-4.315536 -2.7249,-1.700808 -5.1201,-2.926735 -5.3226,-2.724239 -0.7702,0.770162 5.8083,9.201028 11.4079,14.620138 9.9363,9.615876 24.9081,20.623139 43.7723,32.181249 5.8545,3.58699 6.6626,6.30735 2.7808,9.36072 -3.7757,2.97004 -12.5656,5.32074 -18.3867,4.91725 -2.699,-0.18707 -4.9071,-0.21246 -4.9067,-0.0567 3e-4,0.1561 0.7256,1.39039 1.6117,2.74276 3.9332,6.0027 -4.1555,7.13196 -17.4661,2.43831 -4.6136,-1.62684 -8.5209,-2.82539 -8.6829,-2.66341 -0.589,0.58907 13.3129,13.53747 22.049,20.53663 9.868,7.90601 21.5772,15.43619 35.9174,23.09829 5.1593,2.75669 9.3804,5.60976 9.3804,6.3403 0,2.34991 -4.8963,7.23729 -9.4674,9.45011 -3.5558,1.72132 -5.8382,2.0848 -11.4279,1.81978 -3.8416,-0.18209 -6.9837,-0.18925 -6.9825,-0.0159 0,0.17343 1.1222,1.78374 2.4911,3.57843 3.4528,4.52679 3.1764,6.37395 -1.2292,8.21473 -6.9895,2.92046 -16.6426,0.29916 -28.3648,-7.70232 -3.2649,-2.22865 -6.1215,-3.86684 -6.3479,-3.64045 -0.8216,0.82153 19.2417,19.36038 27.9775,25.8517 4.928,3.66186 15.7849,10.14701 24.1264,14.41147 14.713,7.52163 15.167,7.84757 15.1822,10.90433 0.013,2.50203 -0.9182,3.97306 -4.5194,7.14301 -11.515,10.13596 -31.5244,10.58684 -46.2904,1.04314 -3.2935,-2.12869 -6.2923,-3.87042 -6.6638,-3.87042 -1.1788,0 8.937,9.92281 16.1739,15.86558 8.3108,6.82454 24.222,17.90517 30.0734,20.94331 4.8365,2.51109 6.0658,5.13329 3.9326,8.38885 -2.7954,4.26646 -15.5535,8.56228 -25.4287,8.56228 h -5.4399 l 2.4135,2.58367 c 1.3275,1.42096 4.3175,3.70357 6.6446,5.07236 2.3271,1.36879 4.2311,2.87686 4.2311,3.35134 0,0.92377 -4.8914,2.36584 -11.593,3.41784 -9.1326,1.4336 -24.3817,-3.97804 -35.1139,-12.46127 -2.7519,-2.17529 -5.2159,-3.95505 -5.4757,-3.95505 -0.2598,0 0.6231,2.47675 1.9618,5.50393 1.3388,3.02719 2.4342,6.61119 2.4342,7.96445 0,2.2409 -0.3876,2.46052 -4.3423,2.46052 -2.8417,0 -6.0978,-0.94608 -9.4225,-2.73778 -6.5858,-3.54916 -18.6046,-13.58795 -22.3484,-18.66668 l -2.9355,-3.98222 0.5502,18.91556 c 0.4917,16.90614 2.1792,30.15948 4.2709,33.54407 0.8272,1.33812 6.9664,-4.73616 10.0297,-9.92341 l 2.5127,-4.2549 2.8225,4.2549 c 5.8243,8.77991 5.4414,8.60927 9.3864,4.18303 4.0149,-4.50479 4.0296,-4.49503 8.3355,5.54744 1.2913,3.01156 2.5047,5.64281 2.6965,5.8471 0.1919,0.20439 2.4625,-1.48886 5.0458,-3.76281 l 4.6969,-4.13434 2.0739,4.11901 c 1.2203,2.42378 3.5792,4.99202 5.7316,6.24035 l 3.6578,2.12133 2.8309,-2.09306 2.8311,-2.09306 3.6783,3.17961 c 4.5149,3.90298 11.1711,6.31003 13.5326,4.89376 0.9098,-0.54567 2.7079,-3.09031 3.9955,-5.65476 l 2.3413,-4.66279 4.106,3.51471 4.1062,3.51471 1.7522,-5.15509 c 2.4543,-7.22056 3.7709,-19.08869 3.7709,-33.99435 0,-12.52967 0.04,-12.75904 2.4215,-13.8442 2.7781,-1.26575 4.9456,-5.78119 4.9456,-10.30281 0,-5.59194 -2.0814,-8.78379 -7.635,-11.70814 -5.7864,-3.04719 -16.97,-11.16685 -17.4862,-12.69562 -0.1826,-0.54059 0.9682,-0.98292 2.5571,-0.98292 3.9572,0 12.9668,-2.74206 17.1881,-5.23115 7.9222,-4.67144 11.9466,-10.08119 11.9466,-16.05901 0,-6.95655 -1.018,-7.96584 -15.6234,-15.48826 -13.9888,-7.20484 -23.2032,-13.18196 -23.2032,-15.05092 0,-0.57025 1.456,-1.64675 3.2355,-2.39232 4.0186,-1.68368 7.0854,-4.94224 8.9773,-9.53852 1.154,-2.80339 2.3462,-3.82393 5.7981,-4.96315 9.2586,-3.05566 16.6832,-14.02917 13.9524,-20.62184 -0.9488,-2.29058 -3.8126,-4.13703 -14.9141,-9.61558 -12.4949,-6.16637 -31.9025,-18.81441 -31.9594,-20.82823 -0.058,-2.02914 11.5197,-11.20966 15.6825,-12.43608 5.8651,-1.72799 11.9545,-5.83973 13.7283,-9.26982 0.7855,-1.51902 1.4282,-4.58036 1.4282,-6.80294 0,-4.5913 0.9739,-3.74577 -19.4133,-16.85466 -12.8398,-8.255948 -19.4133,-13.505315 -19.4133,-15.5026 0,-0.686734 2.6693,-2.896271 5.9318,-4.909982 7.4998,-4.629136 15.8285,-12.219156 21.5089,-19.601303 2.4294,-3.157107 4.4171,-5.998324 4.4171,-6.313617 0,-0.315392 -1.9794,-0.57344 -4.3986,-0.57344 -9.9821,0 -10.0235,-2.792335 -0.1622,-10.949323 8.8156,-7.29195 10.0648,-9.407208 3.7034,-6.270908 -9.606,4.735959 -22.7332,5.115067 -24.4254,0.705351 -1.3967,-3.639752 0.8102,-6.411679 11.6827,-14.673001 10.1862,-7.73995 27.3881,-24.0492475 26.4037,-25.0337528 -0.2283,-0.228281 -2.1945,0 -4.3694,0.5017602 -6.0295,1.3979597 -12.4165,1.2108947 -12.4165,-0.3635771 0,-0.7303398 2.4678,-3.0274857 5.484,-5.1048127 5.2401,-3.6089896 11.4405,-9.7334516 11.4405,-11.3003566 0,-0.406585 -3.5146,-0.727055 -7.8102,-0.712022 -8.5102,0.02987 -11.1054,-1.128064 -11.1054,-4.954285 0,-1.434596 1.3517,-3.267713 3.7334,-5.062999 8.4249,-6.350851 22.1511,-21.029826 22.1511,-23.688856 0,-0.337294 -0.8695,-0.613263 -1.9324,-0.613263 -3.2916,0 -3.3992,-2.026155 -0.2821,-5.312684 2.9469,-3.107131 5.3485,-7.185326 6.5699,-11.156599 0.5747,-1.868061 0.2101,-2.030237 -4.4768,-1.991112 -7.8059,0.06571 -8.38,-1.860694 -2.7115,-9.097888 8.063,-10.294347 10.1364,-15.696035 12.2741,-31.97706 0.8412,-6.4058 1.8815,-12.9473 2.312,-14.53681 l 0.7827,-2.8898 1.16,3.88536 c 0.638,2.13706 2.0658,9.5425 3.1729,16.45674 2.3269,14.532227 4.2644,19.633555 10.5699,27.827877 2.9579,3.844041 4.4434,6.699594 4.2378,8.146435 -0.279,1.963535 -0.9826,2.2628 -5.9335,2.523138 l -5.617,0.295381 1.1025,3.592265 c 0.6064,1.975879 3.2594,5.95223 5.8954,8.836554 5.0432,5.518068 4.9996,6.183697 -0.4784,7.303996 l -2.897,0.592555 4.9098,6.466335 c 5.4938,7.235602 13.0062,14.558513 17.8852,17.433977 3.2027,1.887574 4.8612,4.627643 3.8205,6.311626 -0.8591,1.389995 -6.6559,1.972794 -11.7862,1.184911 -2.6009,-0.399417 -4.7289,-0.514105 -4.7289,-0.254863 0,1.858504 5.2958,8.188747 11.7553,14.0510783 9.5586,8.6751752 9.1616,9.8861695 -2.7774,8.4720818 -4.3903,-0.5199789 -7.9824,-0.6544785 -7.9824,-0.2988659 0,1.6937394 19.5536,19.0554388 27.4428,24.3667298 7.5724,5.097844 8.9396,6.437265 9.1948,9.007691 0.1803,1.817089 -0.3114,3.526658 -1.2348,4.292937 -2.1279,1.766017 -13.181,2.499045 -17.9246,1.188793 -2.1593,-0.596537 -4.1261,-0.88475 -4.3703,-0.64054 -0.2442,0.24421 2.3301,3.40958 5.7208,7.0342 3.3906,3.624521 6,7.084177 5.7987,7.687982 -0.6087,1.826148 -5.2533,2.536876 -11.6499,1.782642 -4.1444,-0.488618 -5.9448,-0.378112 -5.7068,0.350536 0.7507,2.298241 16.7649,15.179142 28.6704,23.060859 15.1659,10.040282 15.7475,10.635226 13.7885,14.103046 -2.7046,4.788027 -15.0803,6.825133 -22.5366,3.70974 -1.9829,-0.828502 -3.7756,-1.336136 -3.9838,-1.127965 -0.2081,0.208071 1.6783,2.903241 4.1921,5.989168 2.5138,3.08602 4.2945,6.05756 3.957,6.60352 -0.9675,1.56561 -7.457,1.10228 -13.4276,-0.95852 -3.0057,-1.03747 -5.5908,-1.76044 -5.7447,-1.60653 -0.1538,0.15382 2.9827,3.36926 6.9701,7.14541 9.3381,8.84342 22.2636,17.61626 36.3462,24.66888 6.16,3.08503 11.1931,5.94128 11.1848,6.34746 -0.057,2.75969 -4.5648,5.21831 -9.5674,5.21831 -3.3363,0 -3.5467,0.14147 -1.9483,1.31025 2.5287,1.84905 1.6311,4.70858 -2.3121,7.36582 -4.1035,2.76536 -10.0891,2.96935 -20.1285,0.68594 -3.8426,-0.874 -7.2312,-1.3446 -7.5301,-1.04573 -1.0266,1.02671 14.2398,15.08486 23.6356,21.76504 5.1721,3.67719 14.7798,9.45559 21.3504,12.84098 6.5707,3.38539 12.1315,6.31093 12.3573,6.50118 0.2259,0.19025 -0.1125,1.49403 -0.7519,2.89727 -1.8366,4.031 -9.0954,6.75664 -15.9565,5.99155 -4.2154,-0.47 -5.1727,-0.359 -3.8622,0.4476 1.4757,0.90835 4.7289,5.91261 4.7289,7.27433 0,0.23456 -1.3166,0.97176 -2.9258,1.63839 -4.1103,1.7025 -11.4338,-0.0349 -21.267,-5.04508 -4.331,-2.20675 -8.0579,-3.82871 -8.2821,-3.60441 -0.2242,0.2242 3.2948,3.95913 7.8202,8.29985 10.0873,9.67561 21.1128,17.06472 38.145,25.56428 15.934,7.95141 16.5895,8.59952 12.6659,12.5231 -3.5876,3.58759 -8.4114,5.1089 -18.4143,5.80758 l -7.689,0.5371 2.5166,1.97956 c 1.5813,1.24385 2.404,2.76954 2.2135,4.10478 -0.653,4.57956 -12.9694,2.7343 -33.6541,-5.04219 -2.4969,-0.93871 4.0185,5.50522 12.2783,12.14349 8.864,7.1239 20.9826,14.23078 33.4484,19.61564 5.0299,2.1728 8.6701,4.35426 8.8701,5.31547 0.1864,0.8967 -0.6542,2.68761 -1.8682,3.97974 -4.7071,5.01043 -17.3559,6.94052 -25.8486,3.94409 -2.3279,-0.82133 -4.4384,-1.49333 -4.6899,-1.49333 -0.2515,0 1.3728,2.29854 3.6096,5.1078 2.2368,2.80936 4.0669,5.46988 4.0669,5.9124 0,1.26466 -8.5072,2.21601 -13.3384,1.49155 -4.8934,-0.73383 -19.2399,-7.34253 -24.3092,-11.19782 -1.8155,-1.38083 -3.4967,-2.31486 -3.7359,-2.07563 -0.2393,0.23923 0.4622,3.04262 1.5587,6.22979 2.8575,8.30532 2.7382,8.83168 -1.8617,8.21473 -5.729,-0.76837 -14.5877,-6.86426 -23.2682,-16.01143 l -7.7102,-8.12473 v 3.98222 c 0.022,19.23026 4.6869,58.33232 7.14,59.84845 0.9728,0.60121 7.3378,-4.09373 13.5413,-9.98832 5.0622,-4.81012 5.6221,-4.37188 6.5992,5.16535 0.3684,3.59515 0.9091,6.92379 1.2015,7.39698 0.537,0.86892 3.497,-0.70505 13.1089,-6.97049 2.8975,-1.88877 5.4999,-3.2024 5.783,-2.91927 0.2832,0.28324 -0.8595,3.54588 -2.5392,7.25044 -1.6797,3.70456 -2.8202,6.96939 -2.5345,7.25521 0.4424,0.44233 8.413,-1.17276 17.3907,-3.52397 2.4071,-0.63038 2.3888,-0.55293 -0.8303,3.51163 -2.8035,3.5397 -3.0168,4.15625 -1.4375,4.15625 3.002,0 40.6196,9.55395 56.82044,14.43098 14.42601,4.34281 24.70233,8.21991 23.9037,9.01854 -0.21196,0.21195 -25.0012,0.84612 -55.08724,1.40921 -64.5577,1.20821 -90.9809,2.38017 -115.7435,5.13358 -17.6028,1.95737 -42.5752,6.46106 -48.2205,8.69648 -3.3171,1.31354 -3.5385,2.90812 -0.4978,3.5861 1.232,0.27467 5.376,1.1861 9.2089,2.02526 12.1844,2.66769 25.4081,6.62662 42.3111,12.66725 16.8857,6.03446 37.8311,15.3688 37.8311,16.85944 0,0.46194 -0.112,0.78122 -0.2489,0.70963 -0.1369,-0.0717 -3.8329,-0.52167 -8.2133,-1.00023 z m 258.19125,-8.21951 c -20.10267,-7.09592 -37.16132,-24.89835 -42.12735,-43.96434 -1.96861,-7.55787 -1.93636,-19.11478 0.0806,-28.96142 2.30869,-11.2701 2.78775,-11.60729 5.20128,-3.66136 2.87098,9.45221 9.58591,18.58096 19.49478,26.5026 l 3.8984,3.11658 -0.61197,-3.77086 c -0.3365,-2.07385 -2.41243,-8.55432 -4.61321,-14.40102 -7.4365,-19.75661 -8.61275,-29.97659 -5.11905,-44.47915 2.48162,-10.30142 5.4432,-16.85287 14.32675,-31.69353 10.79441,-18.0329 12.35654,-20.84933 14.51371,-26.16649 l 1.9717,-4.86001 0.0548,5.13199 c 0.0299,2.8226 -0.66076,11.11061 -1.53475,18.41779 -2.92126,24.42507 -0.84015,38.36156 8.07913,54.10359 2.48202,4.38045 6.40501,11.77245 8.71799,16.42667 l 4.20522,8.46223 v 13.18932 c 0,7.25402 0.224,13.18923 0.49778,13.18933 0.68813,0 5.25076,-7.4372 8.24301,-13.43642 4.14679,-8.31399 4.91396,-12.29363 5.56605,-28.87113 l 0.6265,-15.92889 5.24071,8.46222 c 13.93649,22.50325 15.8164,41.99584 6.03934,62.62008 -4.07859,8.60359 -17.61835,22.41424 -26.21339,26.73794 -6.05367,3.04521 -15.49602,6.23278 -18.34959,6.19435 -0.85886,-0.0119 -4.54351,-1.07361 -8.18814,-2.36007 z m 48.93775,-3.96818 c 0,-0.22759 3.41027,-3.70815 7.57837,-7.73458 17.05855,-16.47844 25.70595,-35.46986 25.47388,-55.94586 -0.14057,-12.40752 -1.18799,-15.90749 -12.01217,-40.13932 -4.85244,-10.86311 -9.75665,-22.66304 -10.89836,-26.22215 -4.503,-14.03774 -5.32811,-26.81928 -2.29774,-35.59113 0.99307,-2.87467 1.49363,-5.22667 1.11244,-5.22667 -1.7046,0 -9.23588,6.36877 -12.07152,10.20804 -7.66578,10.37907 -12.71006,27.09833 -12.83959,42.55643 -0.0348,4.10876 -0.1559,4.3236 -1.46645,2.59233 -0.78589,-1.03827 -2.39979,-4.80505 -3.58629,-8.37074 -1.86786,-5.61274 -2.08121,-7.89834 -1.59,-17.02779 0.3121,-5.79971 1.49224,-15.15286 2.62239,-20.78472 3.75932,-18.73228 1.97937,-33.11398 -5.90842,-47.7374 -5.49577,-10.18872 -11.28194,-17.42751 -21.98198,-27.49995 -8.96647,-8.44072 -11.83447,-10.34432 -10.33596,-6.86067 0.41216,0.95822 1.83789,5.32622 3.16826,9.70667 2.16762,7.13704 2.3739,9.30895 1.98613,20.90667 -0.32485,9.71673 -0.9857,14.67898 -2.65186,19.91112 -3.92419,12.323 -10.65952,24.46689 -20.48267,36.93055 -24.55559,31.15622 -34.19635,49.65674 -38.86003,74.57172 -4.65592,24.87367 5.29108,52.33996 27.3526,75.52815 l 5.5556,5.83934 -3.98223,-0.69191 c -2.19022,-0.3805 -7.38304,-2.15916 -11.53958,-3.95256 -20.17325,-8.70375 -32.87466,-22.63586 -39.5408,-43.37189 -4.39847,-13.68183 -5.13906,-23.86398 -2.73111,-37.5465 2.77233,-15.75258 8.62669,-31.60542 15.24316,-41.27635 3.28882,-4.80694 5.62688,-9.19684 6.62712,-12.44246 0.61266,-1.98822 0.24062,-2.21093 -4.60276,-2.75609 -2.89816,-0.32615 -24.56604,-1.03339 -48.15076,-1.57159 -44.80607,-1.02243 -50.01507,-1.57049 -55.25527,-5.81375 l -2.2635,-1.83281 2.1789,-3.52547 c 2.6954,-4.36123 9.023,-9.62155 15.5901,-12.96044 6.88567,-3.50088 9.60025,-6.68865 10.11207,-11.8748 0.66652,-6.75345 -0.95195,-8.58806 -11.28107,-12.78801 -8.8705,-3.6068 -20.5792,-10.05392 -21.776,-11.99048 -1.1154,-1.80464 3.7566,-7.98266 10.6029,-13.44518 3.7698,-3.00787 7.529,-6.77376 8.3537,-8.36864 1.7282,-3.34189 1.9497,-8.26163 0.4945,-10.98079 -0.5528,-1.03289 -7.7212,-5.31268 -15.9298,-9.51074 -16.2361,-8.30354 -21.0207,-12.26993 -20.1699,-16.72086 0.2689,-1.40662 1.3499,-2.83067 2.4022,-3.16468 1.0523,-0.33391 5.5949,-4.19119 10.0946,-8.57153 7.9875,-7.77579 8.1812,-8.07675 8.1812,-12.71196 0,-2.68203 -0.6275,-5.50373 -1.4422,-6.48545 -0.7933,-0.95583 -6.6173,-4.34112 -12.9422,-7.52292 -12.8674,-6.4729 -19.9622,-11.24281 -19.9622,-13.42089 0,-0.80102 0.9381,-3.25626 2.0848,-5.45614 1.6683,-3.20092 2.8991,-4.21897 6.1621,-5.09765 2.2424,-0.6038 5.5603,-2.58098 7.3729,-4.39359 2.9234,-2.923347 3.2917,-3.897498 3.2605,-8.621909 -0.019,-2.929424 -0.6422,-6.422033 -1.3839,-7.761354 -1.2775,-2.306604 -1.0916,-2.666398 3.5197,-6.812291 2.6776,-2.407454 4.8683,-4.835217 4.8683,-5.395117 0,-0.648406 -1.9143,-0.778824 -5.2732,-0.359097 -5.6159,0.701568 -8.666,0.07467 -8.6624,-1.780453 0,-0.625806 3.6972,-4.972403 8.2134,-9.658884 4.5161,-4.686579 9.0171,-9.945006 10.0023,-11.685437 l 1.7912,-3.164475 -4.2801,0.528242 c -2.3702,0.292594 -4.9464,0.04978 -5.7734,-0.544071 -1.2781,-0.917703 -1.1477,-1.318614 0.9046,-2.780588 4.5127,-3.214849 9.109,-8.382183 10.5735,-11.887237 1.8738,-4.484681 1.9522,-4.256599 -1.4638,-4.256599 -1.6103,0 -3.1994,-0.439339 -3.5312,-0.976242 -0.3319,-0.536903 1.1997,-3.364581 3.4036,-6.283551 4.8765,-6.458868 6.3778,-10.5367653 8.064,-21.9046207 0.7143,-4.8155042 1.6215,-8.9550263 2.0162,-9.1989373 0.3946,-0.243911 1.6556,4.4821923 2.8021,10.50261788 2.0445,10.73657312 3.9275,15.65730812 8.8211,23.05209812 2.9055,4.390502 2.3502,5.804191 -2.2799,5.804191 -1.8842,0 -3.4258,0.275968 -3.4258,0.613263 0,1.399453 7.0112,10.008025 9.8628,12.109843 4.70293,3.466426 4.05891,5.196902 -1.9342,5.196902 h -5.0137 l 2.2759,3.331429 c 3.1367,4.591305 7.64465,9.566496 11.75829,12.976873 6.97078,5.779003 5.5561,9.124867 -3.5391,8.370634 l -5.50259,-0.456363 2.7663,2.930021 c 1.52151,1.611507 6.01436,5.135078 9.98414,7.830147 3.96978,2.69507 7.21778,5.461919 7.21778,6.148554 0,2.059905 -5.50553,4.664279 -9.86029,4.664279 -2.24259,0 -4.0775,0.342173 -4.0775,0.760506 0,1.731769 12.29691,14.211656 17.2289,17.485346 7.05192,4.68081 8.08272,5.98409 6.73095,8.50991 -1.23489,2.3074 -8.0191,3.67769 -13.81055,2.78945 l -3.67818,-0.56418 3.48444,2.98617 c 1.91645,1.64247 6.53593,5.00536 10.26558,7.47324 4.56004,3.01723 6.67679,5.02925 6.46235,6.14268 -0.49977,2.59512 -4.81301,4.3232 -9.60831,3.84932 l -4.32917,-0.42769 4.32917,4.4352 c 2.38117,2.43931 7.61133,6.95754 11.62282,10.04028 5.74296,4.4136 7.63522,5.38964 8.90077,4.59141 2.4857,-1.56801 2.48879,-2.91738 0.01,-4.0775 -1.24613,-0.583 -4.17028,-2.45534 -6.49809,-4.16083 l -4.23231,-3.10086 6.7212,-6.71293 6.7212,-6.71284 -5.14563,-0.29807 c -8.96887,-0.51968 -8.84831,-2.01978 0.95971,-11.9393 8.41315,-8.50902 12.64814,-13.38097 12.64814,-14.55075 0,-0.32435 -2.688,-0.58967 -5.97333,-0.58967 -3.28534,0 -5.97334,-0.41474 -5.97334,-0.92168 0,-0.50694 2.7555,-2.85894 6.12347,-5.22667 3.36786,-2.367731 6.78252,-5.312984 7.58802,-6.544985 1.46258,-2.236815 1.4562,-2.240001 -4.50817,-2.240001 -9.58322,0 -9.67233,-1.330361 -0.74448,-11.116676 4.16292,-4.563131 8.87807,-10.410927 10.47823,-12.995092 l 2.90921,-4.698427 -2.7098,0.529138 c -1.61858,0.316089 -3.51163,-0.07367 -4.70092,-0.968775 -1.94482,-1.46297 -1.90071,-1.586021 1.89146,-5.288493 3.23934,-3.162682 6.57077,-8.601604 6.57077,-10.727514 0,-0.2913 -1.31752,-0.529735 -2.92793,-0.529735 -4.28029,0 -4.44456,-1.319709 -0.71899,-5.778904 4.12817,-4.941044 4.99132,-7.076312 8.08172,-19.992556 1.36073,-5.687213 2.67247,-10.538756 2.91489,-10.781174 0.24242,-0.242518 0.96559,2.17071 1.60693,5.362562 3.19981,15.923619 4.324,19.546149 7.55627,24.349208 1.86895,2.777402 3.39823,5.45286 3.39823,5.945361 0,0.492502 -1.344,0.895503 -2.98667,0.895503 -4.37567,0 -3.78958,2.005945 2.60388,8.911619 4.83193,5.219103 5.41164,6.253884 4.27243,7.626656 -0.94668,1.140708 -2.38177,1.445547 -5.09277,1.08197 -2.07603,-0.278457 -3.77465,-0.170439 -3.77465,0.240128 0,0.410568 1.71604,3.391959 3.81338,6.625326 3.39036,5.226569 6.88636,8.880359 13.95052,14.580116 1.18093,0.952847 2.14722,2.35449 2.14722,3.114796 0,1.65541 -4.15824,3.435265 -8.94308,3.828112 l -3.46752,0.284629 3.76897,4.161026 c 2.07295,2.288584 5.98528,5.583272 8.69419,7.321622 2.70891,1.73824 4.92522,3.76997 4.92522,4.51504 0,2.21491 -3.97576,3.67529 -8.58996,3.15522 -3.0233,-0.34078 -4.12618,-0.15093 -3.68206,0.63367 2.1273,3.75782 8.37471,10.33735 14.80401,15.5909 4.08298,3.33631 7.42357,6.4749 7.42357,6.97467 0,2.06438 -5.3549,4.31573 -10.09514,4.24425 -4.15306,-0.0627 -4.71177,0.14306 -3.69988,1.36232 0.65547,0.78987 3.13152,2.57282 5.50233,3.96221 2.37072,1.3893 4.31046,3.16657 4.31046,3.94947 0,1.77767 -4.73416,3.66017 -7.4371,2.9572 -1.27112,-0.33052 0.0866,1.51823 3.66096,4.98356 l 5.68174,5.50891 6.10863,-4.29553 c 5.27555,-3.70984 5.79045,-4.33584 3.77604,-4.59081 -3.9204,-0.49618 -7.80804,-2.36305 -7.80804,-3.74946 0,-0.72277 2.64539,-2.72414 5.87856,-4.44735 5.70154,-3.03893 15.85134,-10.72681 15.96672,-12.09381 0.0319,-0.37114 -2.29505,-0.43227 -5.16972,-0.13589 -4.28657,0.44202 -5.67427,0.17591 -7.71556,-1.4797 l -2.48889,-2.01859 3.89123,-3.32117 c 9.14846,-7.80795 14.81407,-13.43364 16.17032,-16.05643 l 1.45152,-2.80697 -6.02769,0.68196 c -7.45881,0.84393 -8.06978,-0.76967 -1.79469,-4.74014 4.9726,-3.14646 11.3342,-9.466547 10.43432,-10.366331 -0.34526,-0.345358 -2.0615,-0.128028 -3.81388,0.482845 -1.75227,0.610873 -4.91117,1.110642 -7.01966,1.110642 -5.84312,0 -5.17938,-2.982586 1.67642,-7.533173 3.03057,-2.01162 6.86007,-5.619515 8.51011,-8.01771 l 2.99991,-4.360236 h -3.4735 c -1.91047,0 -3.6958,-0.359595 -3.96749,-0.799233 -0.27168,-0.439537 1.71335,-2.700445 4.41111,-5.024272 2.69776,-2.323727 5.35838,-5.072059 5.91241,-6.107337 0.90994,-1.700211 0.6942,-1.836702 -2.22985,-1.410703 -1.78045,0.259342 -3.90875,0.02389 -4.72958,-0.523165 -1.23639,-0.824121 -0.68843,-1.812011 3.19553,-5.760585 5.13836,-5.223782 7.22147,-9.993192 8.76946,-20.077875 1.67601,-10.91896 2.11784,-12.559835 2.95869,-10.98835 0.41544,0.776335 1.52977,6.115402 2.47615,11.864638 1.97777,12.014071 3.17204,14.823928 8.76477,20.622942 4.34769,4.507977 4.1678,4.941342 -2.27226,5.472272 l -3.48444,0.287218 5.22667,5.571729 c 2.87466,3.06452 5.22667,5.837442 5.22667,6.162193 0,0.32465 -1.66189,0.729344 -3.69312,0.899285 l -3.69311,0.309021 6.16557,6.580426 c 3.39107,3.619244 7.73786,7.651246 9.65968,8.960003 7.27443,4.954186 2.9583,10.162636 -6.75255,8.148626 -2.84401,-0.589867 -5.31508,-0.939705 -5.49129,-0.77743 -0.17621,0.162276 2.63046,3.42312 6.23696,7.24625 6.67241,7.07303 6.86973,8.17103 1.46864,8.17103 -1.05031,0 -1.89145,0.336 -1.86925,0.74667 0.0999,1.84187 6.5183,8.04329 12.6555,12.22751 3.69342,2.51806 6.86028,5.33161 7.03769,6.25249 0.46363,2.40756 -3.68356,3.67112 -12.04882,3.67112 h -7.11902 l 5.44161,5.51219 c 2.99284,3.03177 8.01751,7.38892 11.16596,9.68258 7.91815,5.76855 7.49942,8.98509 -1.3667,10.49863 l -4.31693,0.73692 7.82865,5.23612 c 7.49893,5.01561 7.9087,5.16365 9.72897,3.51631 1.84845,-1.67274 1.80604,-1.75746 -1.54928,-3.09569 -5.43603,-2.16822 -5.25952,-3.75075 1.1867,-10.64189 3.19504,-3.41546 6.79587,-7.5956 8.00178,-9.28924 l 2.19262,-3.07925 -3.3841,0.54915 c -5.46809,0.88734 -5.4431,-1.26276 0.0816,-6.98532 4.79101,-4.96275 8.22817,-9.41338 8.22817,-10.65404 0,-0.33092 -1.34808,-0.4038 -2.99583,-0.16198 -1.64764,0.24182 -3.68704,-0.134 -4.53187,-0.83517 -1.3434,-1.11492 -0.92806,-1.91007 3.30933,-6.33652 6.58042,-6.87411 11.18726,-12.41836 11.18726,-13.46379 0,-0.47648 -1.69862,-0.63836 -3.77465,-0.3599 -2.75042,0.36886 -4.1441,0.0607 -5.13647,-1.13473 -1.1889,-1.43241 -0.9179,-2.10959 2.13268,-5.32991 6.69392,-7.066357 8.47029,-11.155604 4.84607,-11.155604 -3.02739,0 -3.1811,-1.420359 -0.54099,-4.998786 3.02709,-4.102985 4.85831,-9.158617 6.99966,-19.324239 1.95447,-9.278781 2.63941,-8.738791 4.82924,3.807006 1.4109,8.083118 4.89664,16.375502 7.58076,18.034397 2.195,1.356644 0.93921,3.477178 -2.05921,3.477178 h -3.04302 l 1.78902,3.028482 c 0.98391,1.665664 3.72716,5.24419 6.09599,7.952106 2.36892,2.70801 4.02742,5.376 3.68574,5.92883 -0.34167,0.55293 -2.38754,1.28775 -4.5464,1.63301 -2.15877,0.34516 -3.92508,1.03488 -3.92508,1.53256 0,1.10576 10.31436,11.46701 14.43556,14.50117 l 2.98667,2.19888 -2.45315,2.10471 c -1.86298,1.59826 -3.47967,2.02297 -6.72,1.76532 -2.34673,-0.18667 -4.26686,-0.0617 -4.26686,0.27826 0,1.06902 9.29103,9.31352 13.19112,11.70515 2.05333,1.25927 3.72647,2.81294 3.7181,3.45278 -0.0488,3.70248 -3.8068,4.87584 -10.45592,3.26443 -2.61005,-0.63248 -1.98803,0.26711 5.14583,7.44347 l 8.11467,8.16287 3.33422,-3.12476 c 1.83381,-1.71852 3.67022,-3.12674 4.08088,-3.12933 0.41067,0 0.74667,-0.45258 0.74667,-1.00013 0,-0.54756 -1.76552,-0.99556 -3.92349,-0.99556 -2.15786,0 -4.21239,-0.46741 -4.56542,-1.03876 -0.35312,-0.57135 2.5324,-4.38075 6.41228,-8.46531 3.87998,-4.08447 7.05441,-7.87306 7.05441,-8.41892 0,-0.54596 -2.43752,-0.99257 -5.41682,-0.99257 -2.9792,0 -5.72345,-0.49629 -6.09838,-1.10278 -0.39165,-0.63377 3.91652,-5.71509 10.12879,-11.94667 l 10.80915,-10.84389 h -5.07545 c -4.91058,0 -10.32172,-2.63215 -10.32172,-5.02089 0,-0.49181 2.42428,-2.04099 5.38735,-3.44273 2.96297,-1.40175 7.09911,-4.43889 9.19137,-6.749176 l 3.80402,-4.20055 -2.96914,-0.262926 c -6.79059,-0.601216 -9.44026,-1.374166 -9.44026,-2.753907 0,-0.788281 4.144,-5.58029 9.20889,-10.648865 l 9.20889,-9.215563 -5.14563,-0.306432 c -7.55896,-0.449991 -8.5358,-2.385651 -2.87746,-5.701748 4.36333,-2.556986 9.97548,-9.882486 8.90187,-11.619433 -0.27418,-0.443719 -1.5921,-0.806699 -2.92863,-0.806699 -3.02012,0 -3.30883,-2.954511 -0.46243,-4.732176 2.889,-1.804146 5.68641,-7.936871 6.94848,-15.233101 0.61047,-3.529346 1.61081,-8.880957 2.22288,-11.892514 l 1.11303,-5.475557 1.33623,4.977779 c 0.73502,2.737779 1.83571,8.113782 2.44608,11.946672 1.16391,7.308675 2.62837,10.911393 6.51313,16.022876 3.01504,3.967091 2.95342,4.386021 -0.64532,4.386021 -1.67562,0 -2.98667,0.529636 -2.98667,1.206515 0,0.663637 3.1592,4.297616 7.02046,8.075651 8.74248,8.553917 8.77633,10.168011 0.21046,10.037394 l -6.15014,-0.09358 1.90728,2.678544 c 1.76264,2.47535 3.99268,4.606437 12.92222,12.348876 l 3.33671,2.893085 -2.38277,1.929388 c -1.7013,1.37775 -3.3144,1.778262 -5.64122,1.400648 -1.7922,-0.290802 -3.25855,-0.119368 -3.25855,0.380999 0,1.163606 8.92685,8.233739 14.57593,11.544369 4.67324,2.73877 5.27446,4.26366 2.69687,6.84126 -1.26416,1.26406 -3.10046,1.5673 -7.96654,1.31553 -3.6305,-0.18787 -6.32288,0.0826 -6.32168,0.63446 0,1.88668 14.53711,15.12499 20.04542,18.25969 7.15984,4.07452 8.30453,5.41364 6.88885,8.05893 -1.4802,2.76566 -7.49097,4.24187 -12.49662,3.0691 -5.74814,-1.34679 -6.06025,-1.23349 -3.65508,1.32668 1.19207,1.26893 4.83422,3.58181 8.09357,5.13956 9.4092,4.49722 8.81574,7.74015 -1.65591,9.0485 l -5.45694,0.68176 5.67725,5.73719 c 8.9849,9.07967 9.23847,9.13313 17.16329,3.62243 3.69262,-2.56774 8.4685,-6.22889 10.61303,-8.13598 l 3.89919,-3.46732 h -5.07883 c -5.85546,0 -10.18623,-1.37208 -10.18623,-3.2272 0,-0.70694 2.576,-2.82399 5.72445,-4.7044 3.14844,-1.8804 7.83731,-5.39223 10.41969,-7.80406 4.19736,-3.92 4.53505,-4.54511 3.18468,-5.89558 -1.01547,-1.01547 -2.59741,-1.33415 -4.82665,-0.97246 -6.3183,1.02532 -5.90405,-1.04912 1.97916,-9.90937 4.0766,-4.58195 7.41201,-8.7368 7.41201,-9.23308 0,-0.52725 -1.45381,-0.50087 -3.49778,0.0637 -5.29248,1.46128 -6.14945,0.0617 -2.03781,-3.32735 4.62675,-3.81377 8.29388,-10.63801 6.37136,-11.85647 -0.73342,-0.46492 -1.89354,-0.8522 -2.57799,-0.86056 -1.9925,-0.0239 -1.47701,-1.82724 2.24866,-7.863295 3.39973,-5.508013 5.4898,-12.862783 7.0354,-24.756391 0.37353,-2.874668 1.00252,-5.226669 1.39776,-5.226669 0.39523,0 1.4792,3.472001 2.40895,7.715559 3.64015,16.614833 4.70002,19.749341 8.1542,24.114456 4.19925,5.30651 4.05121,7.30141 -0.59853,8.0642 l -3.4731,0.56986 6.40481,6.10534 6.40491,6.10545 -2.80299,1.06574 c -1.54172,0.58609 -3.63985,0.80003 -4.66268,0.47548 -3.68117,-1.16838 -1.75587,1.87184 6.17284,9.74749 5.25325,5.21801 7.69445,8.31667 7.05551,8.95562 -0.5374,0.5374 -3.03197,1.20861 -5.54356,1.49174 -2.51169,0.28304 -4.56661,0.90317 -4.56661,1.37795 0,1.93457 7.88719,9.42095 14.18667,13.46559 4.67473,3.0015 6.72,4.9302 6.72,6.33702 0,2.96795 -3.93344,4.11065 -10.11475,2.93838 -2.82747,-0.53621 -5.26559,-0.85031 -5.41791,-0.69789 -0.82173,0.82174 10.59291,12.27123 16.56247,16.61305 9.21197,6.70019 9.02949,9.43329 -0.72357,10.83702 l -4.78624,0.68883 4.89186,5.23881 c 2.69059,2.88124 5.22239,5.11387 5.62629,4.96125 1.26117,-0.47657 16.85964,-15.07819 16.85964,-15.78215 0,-0.36716 -1.792,-0.95414 -3.98222,-1.30437 -5.2425,-0.83836 -5.29069,-3.41795 -0.13052,-6.99398 2.11854,-1.46805 5.27565,-4.44098 7.01588,-6.60651 l 3.16398,-3.93723 -3.78023,-0.0139 c -5.12403,-0.0189 -8.26023,-0.95673 -8.26023,-2.47146 0,-0.69152 1.97648,-2.87676 4.3921,-4.85623 2.41562,-1.97946 5.8235,-5.40636 7.57309,-7.6154 l 3.1811,-4.01637 -3.9637,0.63377 c -5.87687,0.9398 -5.98977,-0.85917 -0.4263,-6.79696 7.5055,-8.01034 8.97942,-11.69928 4.67483,-11.69928 -3.19165,0 -3.18408,-1.98653 0.0189,-4.9958 2.65037,-2.48988 5.8008,-11.2679 6.98561,-19.46421 1.10129,-7.618193 2.12512,-8.427182 2.9581,-2.33737 1.28994,9.43061 3.42013,15.95369 6.91055,21.16124 1.86597,2.78407 3.17433,5.41513 2.90752,5.8468 -0.26681,0.43168 -1.63012,0.7849 -3.02967,0.7849 -2.51896,0 -2.52772,0.0279 -0.86723,2.73778 0.92258,1.50578 4.16789,5.039 7.21181,7.85165 3.15909,2.91907 5.2404,5.58965 4.84945,6.22222 -0.37672,0.60958 -2.70503,1.10836 -5.17401,1.10836 h -4.48906 l 2.1738,3.05277 c 1.19556,1.679 4.58603,4.65442 7.53447,6.61208 2.94834,1.95756 5.36067,3.91841 5.36067,4.35745 0,1.71445 -4.61351,3.8977 -8.23664,3.8977 h -3.81138 l 2.72374,3.57096 c 1.49801,1.96404 6.02262,6.26663 10.05472,9.56132 4.032,3.2947 7.16233,6.50377 6.95615,7.13127 -0.20608,0.6275 -2.24389,1.27869 -4.52839,1.44704 -2.2846,0.16835 -4.15376,0.54457 -4.15376,0.83597 0,0.87041 4.39359,4.26456 5.56665,4.3003 1.29194,0.0398 13.34892,-12.31702 13.34892,-13.68043 0,-0.51898 -1.06754,-0.7396 -2.37222,-0.49021 -3.99685,0.76409 -3.89879,-1.46237 0.32416,-7.35975 4.58782,-6.4067 4.84029,-7.30758 2.04806,-7.30758 -2.92803,0 -2.45963,-2.68919 1.19088,-6.83748 3.07527,-3.4946 3.10862,-3.62651 0.99556,-3.93404 -2.69726,-0.39244 -2.73629,-1.20313 -0.21216,-4.412 2.14483,-2.72673 4.99461,-12.39358 4.99461,-16.94217 0,-1.63739 0.42082,-2.5762 0.99555,-2.22099 0.54756,0.33839 0.99556,1.46277 0.99556,2.49865 0,4.37427 2.32164,12.14618 4.65592,15.58592 2.41432,3.55762 2.44,3.75215 0.66961,5.064 -1.72978,1.28168 -1.58224,1.58622 2.4408,5.03671 3.4267,2.93899 4.0332,3.9211 3.03645,4.91696 -0.68495,0.68444 -2.09585,1.24444 -3.13521,1.24444 -1.82545,0 -1.82037,0.10951 0.14804,3.21853 1.1208,1.7702 2.41612,3.34467 2.87835,3.49869 0.46234,0.15411 3.20987,-1.74223 6.10565,-4.21409 3.12535,-2.66769 4.60514,-4.49424 3.64114,-4.49424 -2.42806,0 -7.49852,-2.86501 -7.49852,-4.23699 0,-0.65955 3.91064,-5.12801 8.6904,-9.92997 l 8.69031,-8.73083 h -3.64772 c -4.00133,0 -8.75521,-1.48537 -8.75521,-2.73559 0,-0.43665 1.60374,-1.6575 3.56379,-2.71309 1.96015,-1.05558 4.71784,-3.28543 6.12834,-4.95528 l 2.56445,-3.03604 -2.89278,-0.27299 c -8.15848,-0.76996 -9.62185,-3.09767 -4.63491,-7.37239 4.58652,-3.93145 12.19556,-12.89374 12.19556,-14.36457 0,-0.81427 -1.02622,-1.38562 -2.48889,-1.38562 -3.05417,0 -3.2264,-2.01102 -0.39185,-4.574577 1.85621,-1.678706 5.86741,-8.392935 5.86741,-9.821358 0,-0.295581 -1.12,-0.537401 -2.48889,-0.537401 -2.56834,0 -3.4517,-2.274149 -1.38054,-3.554135 2.01082,-1.242753 4.93517,-9.258173 6.3837,-17.497195 0.7842,-4.46029 1.60842,-8.292085 1.83153,-8.515289 0.2231,-0.223104 1.16977,3.751952 2.10361,8.833369 1.6804,9.143485 3.33979,13.657535 6.23586,16.96288 2.15239,2.456534 0.83557,5.108695 -2.24428,4.519924 -1.36212,-0.260438 -2.47655,-0.289309 -2.47655,-0.06471 0,1.620167 3.50635,6.533634 6.60213,9.251801 3.52367,3.093789 3.62004,3.334714 1.85164,4.627741 -1.02592,0.75025 -2.91559,1.36411 -4.19906,1.36411 -2.10072,0 -2.21581,0.22012 -1.15335,2.20545 0.6492,1.21299 4.54421,5.49378 8.65556,9.51284 6.57226,6.42462 7.29872,7.48389 6.01376,8.76876 -0.80381,0.80381 -3.115,1.5237 -5.13608,1.59966 -2.02097,0.0757 -3.67459,0.32972 -3.67459,0.56388 0,0.61237 3.81497,3.80402 8.71111,7.28777 2.32711,1.65591 4.23111,3.36518 4.23111,3.79854 0,1.16102 -4.69842,3.09867 -7.51356,3.09867 -1.3431,0 -2.44199,0.45806 -2.44199,1.01776 0,1.7015 7.52242,9.30068 13.33328,13.46937 3.01354,2.16185 5.35489,4.37866 5.20317,4.92621 -0.91492,3.30136 -9.37734,4.35446 -16.00944,1.99231 -2.16931,-0.77265 -4.08377,-1.26515 -4.2545,-1.09452 -0.76967,0.76977 13.69586,13.29745 17.93086,15.52888 7.85095,4.13664 7.4137,7.93966 -1.02563,8.92118 l -4.72441,0.54945 6.04701,4.14281 c 4.07023,2.78845 6.49381,3.86674 7.41351,3.29837 1.08246,-0.66901 0.87081,-1.24594 -1.01816,-2.77551 l -2.38455,-1.93088 5.51717,-6.35165 c 5.70991,-6.57335 10.80726,-13.686 10.80726,-15.07988 0,-0.43974 -0.86654,-0.3357 -1.92571,0.23107 -2.80727,1.50249 -6.01296,1.26057 -6.69043,-0.50485 -0.38767,-1.01019 1.612,-3.82005 5.84491,-8.21334 3.5387,-3.6728 7.00065,-7.74373 7.69316,-9.04651 1.25649,-2.36365 1.25002,-2.36724 -3.15194,-1.70718 -4.78752,0.71799 -7.75936,0.0418 -7.71565,-1.75517 0.0149,-0.6258 2.75689,-3.82592 6.0926,-7.11125 5.26938,-5.18984 10.80417,-12.31981 10.80417,-13.91798 0,-0.28473 -1.58204,-0.51759 -3.5157,-0.51759 -5.25714,0 -5.48482,-2.33945 -0.70964,-7.29155 3.46553,-3.59385 7.21201,-9.34807 7.21201,-11.07675 0,-0.30106 -1.13404,-0.54726 -2.52015,-0.54726 -3.45189,0 -4.055,-2.33189 -1.5228,-5.888013 3.80372,-5.341855 6.84663,-13.362253 8.51967,-22.455561 2.23114,-12.127067 3.01265,-13.177876 4.41429,-5.935007 3.48037,17.984619 4.17297,20.184599 8.13698,25.843339 4.28009,6.110022 4.4136,8.435242 0.48424,8.435242 -1.35376,0 -2.70095,0.38757 -2.99374,0.86136 -0.79445,1.28546 5.18705,9.84087 9.01645,12.89633 1.83969,1.46795 3.34507,3.24004 3.34507,3.93812 0,1.71086 -4.83163,3.45149 -8.21334,2.95889 -1.50577,-0.21932 -2.73777,-0.22549 -2.73777,-0.0139 0,1.67234 8.11427,10.34891 13.00902,13.91061 3.31869,2.41482 5.85786,4.92452 5.64272,5.5772 -0.65598,1.98982 -5.02716,3.75285 -8.4473,3.40699 -1.77955,-0.17989 -3.23555,-0.0657 -3.23555,0.25367 0,1.14479 10.5277,10.7084 14.18667,12.88737 4.19248,2.49676 4.44964,3.19345 2.0605,5.58258 -1.28098,1.28109 -2.9127,1.5701 -6.9661,1.2339 l -5.29337,-0.43894 6.14825,6.55284 c 3.38151,3.60402 6.86615,7.33815 7.74363,8.29816 1.5019,1.64307 1.91486,1.42186 7.04018,-3.77007 l 5.44469,-5.51558 -5.72444,0.6716 c -7.8857,0.92527 -7.59848,-0.70614 1.74222,-9.89652 6.90468,-6.79367 9.656,-11.39025 5.97115,-9.97627 -1.94204,0.74528 -6.46893,-0.39573 -6.46893,-1.63042 0,-0.52585 2.016,-2.81434 4.48,-5.0856 5.09635,-4.69763 5.50493,-5.86701 2.04985,-5.86701 -3.78112,0 -4.19149,-2.03641 -0.96489,-4.78872 2.92574,-2.49576 6.3631,-7.02614 6.37514,-8.40239 0,-0.41067 -0.86294,-0.74667 -1.9258,-0.74667 -3.09956,0 -3.37155,-1.8139 -0.74059,-4.94055 2.22974,-2.64997 3.34755,-6.40361 6.21256,-20.86207 0.87739,-4.428131 1.8591,-2.710399 3.81677,6.67849 0.81625,3.91482 2.49128,9.25926 3.72228,11.87648 2.8679,6.09768 2.86033,6.52936 -0.12753,7.31226 -2.42717,0.63606 -2.34533,0.79087 3.30604,6.24811 3.29479,3.1817 5.49955,6.07399 5.11019,6.70397 -0.38299,0.61964 -2.38854,0.94548 -4.55049,0.7393 -2.12621,-0.20269 -3.86574,-0.0786 -3.86574,0.27518 0,0.35412 2.51019,3.13411 5.5781,6.17772 3.068,3.04361 5.28152,6.01366 4.91904,6.60024 -0.36248,0.58658 -2.42468,1.06644 -4.58254,1.06644 -2.34055,0 -3.92349,0.47169 -3.92349,1.16928 0,0.64313 3.86097,4.93576 8.5798,9.53931 9.67959,9.44285 9.77566,10.62478 0.86375,10.62478 -3.0037,0 -5.46132,0.26103 -5.46132,0.58011 0,1.40383 8.01661,8.14504 13.93778,11.72038 10.29096,6.21406 8.78578,10.97302 -3.12873,9.89264 l -5.78538,-0.52466 2.5541,3.34875 c 1.40483,1.84168 6.071,5.60459 10.36931,8.36178 4.29822,2.75729 8.13788,5.53549 8.53241,6.17384 0.41097,0.66493 -0.30255,1.98653 -1.67034,3.09409 -1.8816,1.5236 -3.48574,1.84237 -7.56822,1.50388 -4.48537,-0.37204 -5.06698,-0.21892 -4.33425,1.14091 1.62276,3.01156 10.40804,11.23724 16.20984,15.17715 3.80781,2.58576 5.73431,4.54053 5.52842,5.60946 -0.54277,2.81842 -4.78812,4.24615 -10.7516,3.61576 l -5.47556,-0.57881 5.04797,4.80236 c 2.7764,2.64131 6.58441,5.97781 8.46222,7.4145 3.39027,2.59392 3.40092,2.62707 1.51773,4.72889 -1.07361,1.19825 -3.10006,2.11675 -4.67016,2.11675 -1.52549,0 -3.01314,0.38767 -3.30604,0.86156 -0.56129,0.90824 26.054,13.52711 37.49941,17.77923 3.696,1.37317 6.72,2.87865 6.72,3.34557 0,1.25231 -30.65366,1.42653 -292.19567,1.66019 -130.86584,0.11698 -238.72188,0.22031 -239.6801,0.22967 -2.83356,0.0279 -2.09575,2.38685 4.91804,15.72481 11.27358,21.4388 12.14827,23.32617 15.32838,33.07456 10.76415,32.99651 -2.06001,71.01052 -28.95754,85.83713 -7.89038,4.34939 -25.88445,10.85644 -25.88445,9.36032 z m 145.82346,-241.90019 c 1.7032,-1.24544 1.55615,-1.40652 -1.87145,-2.04955 -2.04606,-0.38379 -4.47223,-0.96728 -5.39153,-1.29671 -1.18999,-0.4263 -0.97624,0.16416 0.74199,2.04955 2.73091,2.99642 3.88306,3.2256 6.52099,1.29671 z m -311.78294,-7.27742 3.18607,-1.65999 -2.48889,-0.72227 c -1.36889,-0.39713 -5.17689,-1.92411 -8.46222,-3.39316 l -5.97334,-2.67097 4.94035,5.05324 c 2.71717,2.77929 5.09147,5.05324 5.27615,5.05324 0.18467,0 1.7695,-0.74706 3.52188,-1.66009 z m 368.92387,151.92533 c -20.05677,-0.48036 -39.99278,-1.24992 -44.30224,-1.71027 l -7.83543,-0.83686 12.94223,-0.8296 c 18.32769,-1.17485 152.83198,1.19188 143.85784,2.5313 -8.32534,1.24256 -67.96382,1.72431 -104.6624,0.84543 z m 56.87571,-12.99897 c -38.77869,-1.07023 -36.96589,-0.95554 -32.35557,-2.04547 5.1315,-1.21309 120.95677,-2.29914 133.69023,-1.25351 l 9.66983,0.79396 -5.47555,0.7384 c -8.63974,1.165 -58.8514,3.06422 -71.59004,2.70771 -6.34637,-0.1776 -21.61889,-0.60101 -33.9389,-0.94109 z m -81.13781,-13.77004 c -22.99734,-0.42301 -52.34135,-1.14986 -65.20891,-1.61519 l -23.39557,-0.84622 12.94223,-0.74746 c 18.99819,-1.09731 82.33785,-3.66494 123.44894,-5.00456 50.83697,-1.65641 160.64928,-1.62744 188.65785,0.0498 21.09016,1.26297 23.83541,1.5682 22.81486,2.53688 -0.92427,0.87718 -22.68274,2.60477 -44.71709,3.55035 -12.86756,0.55224 -28.54756,1.22961 -34.84446,1.50528 -22.01871,0.9641 -138.24907,1.33355 -179.69785,0.57125 z M -284.87189,72.127387 c -41.43673,-19.110592 -78.29082,-40.524504 -103.53782,-60.160153 -3.55912,-2.7680435 -6.99866,-5.4251824 -7.64348,-5.9046421 -2.43852,-1.8132061 5.74953,16.6169241 11.26183,25.3489461 2.20067,3.486138 2.24049,3.77017 0.52824,3.77017 -2.63584,0 -15.57916,-11.350533 -22.22051,-19.486117 -7.05581,-8.643516 -12.25779,-17.4355695 -24.18863,-40.882705 -5.18844,-10.196484 -9.64046,-18.74602 -9.89334,-18.998891 -0.65577,-0.655773 -19.52414,14.671409 -19.52414,15.859804 0,2.528214 24.76166,39.568173 34.01536,50.882268 4.39697,5.375903 7.80854,9.960239 7.58135,10.187425 -0.50952,0.509525 -17.91642,-10.046653 -24.97242,-15.144198 -10.06736,-7.272935 -23.2093,-18.13425152 -32.3043,-26.6981235 -5.06489,-4.7690115 -9.20889,-8.4150365 -9.20889,-8.1022325 0,0.67419 10.93907,24.2682694 13.88323,29.944332 2.7983,5.394918 2.73021,7.841198 -0.19434,6.978449 -9.31611,-2.748531 -30.29009,-18.82307592 -64.8976,-49.738075 -5.8258,-5.20417 -9.20382,-7.703812 -8.07237,-5.973336 6.1167,9.355438 21.44995,37.0847583 21.44995,38.7909421 0,1.6404771 -3.53153,-0.2714881 -11.88694,-6.4354729 -5.16892,-3.8131785 -9.6107,-6.7205002 -9.87064,-6.4605612 -0.80202,0.8019206 11.97266,25.384487 17.83778,34.325376 6.52398,9.945505 22.10134,28.744787 35.45862,42.792679 5.21482,5.484518 8.8251,9.971788 8.02298,9.971788 -5.00177,0 -34.88717,-17.509938 -57.67723,-33.793351 -1.55914,-1.114027 -1.0769,0.422713 2.14114,6.823043 2.2844,4.543418 4.01189,8.402293 3.83896,8.575321 -0.72038,0.720284 -31.30307,-25.553433 -45.47321,-39.066314 -15.6586,-14.932244 -24.34344,-25.2391355 -27.93042,-33.147235 -2.14284,-4.724112 -2.72265,-9.942617 -1.10467,-9.942617 1.39417,0 6.81717,3.159297 18.00433,10.488779 5.40258,3.5396 10.0591,6.4356723 10.34761,6.4356723 0.28861,0 -0.97535,-2.352001 -2.80867,-5.2266693 -2.9334,-4.599369 -17.39644,-31.687551 -30.14135,-56.452404 -6.49799,-12.626337 -5.99703,-13.10739 5.37501,-5.162355 21.94593,15.332358 25.88127,17.834688 26.98046,17.15532 1.54958,-0.957625 -3.23227,-14.989986 -9.77706,-28.690827 -2.7543,-5.765862 -5.00784,-10.931105 -5.00784,-11.478263 0,-1.723307 8.03782,0.159986 16.42667,3.848819 4.38045,1.926202 8.5806,3.766985 9.33364,4.090839 0.75304,0.323755 -1.50359,-3.176819 -5.01472,-7.778975 -6.56947,-8.611062 -16.58138,-26.983852 -18.82267,-34.541412 -0.7399,-2.49506 -1.7929,-4.15117 -2.5319,-3.98222 -2.16753,0.49548 -24.22377,24.83962 -28.6748,31.64922 -2.32642,3.559111 -7.74373,11.993262 -12.03846,18.742434 -7.08597,11.135593 -16.85666,22.075359 -19.71619,22.075359 -0.49918,0 -0.65757,-1.456001 -0.35193,-3.235557 1.41608,-8.245792 2.84619,-22.787081 2.29525,-23.338022 -0.33699,-0.336996 -6.10644,4.725207 -12.82107,11.249384 -6.71452,6.524177 -14.7843,13.867199 -17.93275,16.317859 -3.14844,2.450561 -5.72444,4.707387 -5.72444,5.014914 0,0.307627 6.608,7.497632 14.68445,15.977678 29.3677,30.8353553 46.16024,49.6937738 44.25017,49.6937738 -0.57235,0 -8.35481,-3.712926 -17.2943,-8.2509688 -17.98024,-9.1273567 -39.08842,-21.818007 -54.08696,-32.518243 -16.35948,-11.671002 -24.19032,-18.401458 -71.34632,-61.320175 -14.95982,-13.615626 -21.48569,-18.954986 -22.24232,-18.198366 -1.27849,1.27839 25.07378,47.038229 36.9863,64.225607 3.48684,5.030843 5.95203,9.3864 5.47825,9.679293 -3.30824,2.044573 -44.05923,-23.701301 -57.14044,-36.100353 -2.05333,-1.946312 -3.73104,-3.335809 -3.72815,-3.087717 0,0.247993 2.63065,6.813087 5.83953,14.589076 3.38818,8.21045 8.46362,18.228132 12.10546,23.893344 9.03637,14.056553 24.16792,36.2613338 31.48834,46.2074358 8.99346,12.2189562 8.45805,12.7691002 -3.88057,3.9874012 -11.36238,-8.0869016 -31.16389,-26.588812 -43.06905,-40.242563 -5.47556,-6.279768 -10.09125,-11.296076 -10.25711,-11.14734 -0.16586,0.148637 1.3425,4.465268 3.35183,9.592481 2.00924,5.127212 3.90886,9.994187 4.22126,10.815521 0.50485,1.327374 0.36179,1.327374 -1.28755,0 -3.29629,-2.652958 -20.88119,-24.262197 -27.60368,-33.920782 -6.66336,-9.573565 -18.30141,-29.552283 -17.59655,-30.207359 0.21424,-0.199211 3.30156,1.615887 6.86067,4.033396 3.55911,2.417508 7.29544,4.869164 8.30284,5.447981 1.19835,0.688626 -0.2907,-2.848883 -4.30618,-10.230334 -11.3133,-20.796468 -21.91667,-44.857168 -21.91667,-49.732298 0,-2.45315 0.33123,-2.27843 14.43557,7.61351 6.02311,4.22424 11.54685,7.91208 12.2749,8.19512 0.72805,0.28304 -2.34135,-4.58702 -6.82095,-10.82229 -9.02183,-12.55785 -18.12191,-30.45406 -24.87516,-48.91923 -2.353,-6.43378 -4.62735,-11.69779 -5.05404,-11.69779 -2.0171,0 -9.80354,14.81726 -12.81739,24.39113 -0.68942,2.19022 -3.89272,9.47888 -7.11822,16.19709 -3.2256,6.71812 -5.86472,13.56505 -5.86472,15.21529 0,3.13829 2.59611,8.86413 9.08285,20.03247 2.12263,3.65459 3.85938,7.50271 3.85938,8.55123 0,1.04852 -3.72766,7.697441 -8.28363,14.775346 -4.55596,7.078005 -9.52657,14.989887 -11.04569,17.582116 l -2.76207,4.713161 h 4.0768 c 4.93955,0 5.31637,1.69583 1.59389,7.173976 -4.30987,6.342588 -36.72497,32.449351 -59.51912,47.93612 -10.3495,7.0316118 -12.8354,8.07147 -10.45722,4.3743733 8.70942,-13.5395613 11.71322,-20.1031623 28.7425,-62.8054453 8.21463,-20.59865 15.45182,-42.200227 14.46802,-43.184027 -0.86823,-0.86823 -6.04442,4.63351 -15.92691,16.928728 -6.25329,7.779871 -13.48421,16.385159 -16.06887,19.122937 -4.55845,4.828646 -4.6821,4.88828 -4.12399,1.991112 0.31649,-1.642667 2.1724,-10.602671 4.12429,-19.911119 1.95189,-9.308448 3.42073,-17.593768 3.26413,-18.411708 -0.26691,-1.39358 -10.36364,10.28479 -42.17022,48.776165 -11.9703,14.486036 -32.163,36.267507 -32.9201,35.510386 -0.1879,-0.187861 1.6761,-5.659735 4.1421,-12.15972 2.4661,-6.500085 4.4838,-11.952446 4.4838,-12.116514 0,-0.163968 -4.494,3.28205 -9.9867,7.657916 -14.4198,11.48782 -25.7705,18.939059 -28.8501,18.939059 -1.3294,0 -11.7208,-9.683375 -13.0434,-12.154643 -0.7608,-1.421654 0.5143,-3.193644 6.8231,-9.481377 4.2674,-4.253015 12.2289,-12.791799 17.6924,-18.974998 9.4909,-10.741252 10.4659,-11.53252 21.8847,-17.758429 6.5731,-3.584001 13.0018,-7.485087 14.2861,-8.669002 1.2842,-1.184015 6.8641,-7.752693 12.3997,-14.597143 19.2101,-23.75167 45.13885,-52.43294 49.52169,-54.77857 0.90874,-0.48643 4.80515,-1.54172 8.65865,-2.34523 7.89725,-1.64655 13.74325,-4.31664 16.68502,-7.62059 2.25384,-2.5314 34.69652,-30.8243 43.80446,-38.20157 3.28533,-2.66102 7.39688,-5.51837 9.13681,-6.34956 3.04591,-1.4551 3.34677,-1.39368 8.09228,1.65153 6.69014,4.29304 20.71055,19.00726 31.89692,33.47507 14.0468,18.16751 32.90541,39.23198 36.98859,41.31508 1.98145,1.01089 8.35002,2.73788 14.15242,3.83777 5.8024,1.09989 12.31672,2.90125 14.47628,4.00303 2.21521,1.13005 15.73148,13.77431 31.01107,29.0104 14.89641,14.853893 28.50685,27.605272 30.24549,28.336309 2.70672,1.13812 3.59326,1.107058 6.16737,-0.216135 5.03015,-2.585658 14.51262,-10.176075 23.13184,-18.516146 l 8.17899,-7.914168 9.49193,-1.79708 c 15.33336,-2.90304 20.78373,-6.0944 36.37234,-21.29664 7.392,-7.20882 17.69601,-16.30452 22.89779,-20.21267 5.20178,-3.90816 11.8278,-8.98937 14.72457,-11.2915 7.81442,-6.21037 9.12586,-5.9129 20.68855,4.69136 5.32353,4.88241 16.43991,16.26908 24.70293,25.30375 8.26301,9.03467 19.52136,21.13067 25.01842,26.88001 5.49706,5.749336 13.42617,14.725169 17.62024,19.946263 6.49362,8.083914 8.78021,10.144914 15.40434,13.885218 9.12308,5.151305 18.8412,11.452079 21.8639,14.175721 2.0387,1.837 2.28958,1.848648 5.38228,0.249288 1.78413,-0.922582 8.59951,-5.437727 15.14529,-10.033612 7.00662,-4.91954 12.89613,-8.356199 14.32018,-8.356199 3.72029,0 7.1226,3.036147 24.51397,21.875551 23.82166,25.805308 33.12354,35.241984 42.53543,43.1522736 4.65422,3.9117385 13.83823,11.8733987 20.4089,17.6928214 28.86475,25.564185 54.05201,46.405054 71.92891,59.516427 3.96978,2.911503 7.21779,5.699259 7.21779,6.195046 0,1.126173 1.53176,1.713451 -12.94223,-4.961951 z"
       id="path17" /></g></svg>
