<?xml version="1.0" encoding="UTF-8" standalone="no"?>
<!-- Created with Inkscape (http://www.inkscape.org/) -->

<svg
   width="1080"
   height="1080"
   viewBox="0 0 285.74997 285.74997"
   version="1.1"
   id="svg1"
   inkscape:version="1.4.2 (f4327f4, 2025-05-13)"
   sodipodi:docname="61.svg"
   xml:space="preserve"
   inkscape:export-filename="68.svg"
   inkscape:export-xdpi="96"
   inkscape:export-ydpi="96"
   xmlns:inkscape="http://www.inkscape.org/namespaces/inkscape"
   xmlns:sodipodi="http://sodipodi.sourceforge.net/DTD/sodipodi-0.dtd"
   xmlns="http://www.w3.org/2000/svg"
   xmlns:svg="http://www.w3.org/2000/svg"><sodipodi:namedview
     id="namedview1"
     pagecolor="#ffffff"
     bordercolor="#000000"
     borderopacity="0.25"
     inkscape:showpageshadow="2"
     inkscape:pageopacity="0.0"
     inkscape:pagecheckerboard="0"
     inkscape:deskcolor="#3c3c3c"
     inkscape:document-units="px"
     inkscape:zoom="2.862963"
     inkscape:cx="-287.98835"
     inkscape:cy="93.434669"
     inkscape:window-width="1920"
     inkscape:window-height="991"
     inkscape:window-x="-9"
     inkscape:window-y="-9"
     inkscape:window-maximized="1"
     inkscape:current-layer="layer1"
     showgrid="true"><inkscape:page
       x="0"
       y="0"
       width="285.74997"
       height="285.74997"
       id="page2"
       margin="0"
       bleed="0" /></sodipodi:namedview><defs
     id="defs1"><inkscape:path-effect
       effect="skeletal"
       id="path-effect33"
       is_visible="true"
       lpeversion="1"
       pattern="#path29"
       copytype="repeated_stretched"
       prop_scale="1"
       scale_y_rel="false"
       spacing="0"
       normal_offset="0"
       tang_offset="0"
       prop_units="false"
       vertical_pattern="false"
       hide_knot="false"
       fuse_tolerance="0" /></defs><g
     inkscape:label="Capa1"
     inkscape:groupmode="layer"
     id="layer1"
     style="display:inline;opacity:1;mix-blend-mode:multiply"><path
       id="path33"
       style="fill:none;stroke:#000000;stroke-width:1.85208;stroke-linecap:round;stroke-linejoin:round;stroke-miterlimit:4.7"
       d="m 203.51796,121.50478 c -5.20643,-2.39514 -10.49913,-4.54194 -15.86178,-6.43205 5.6805,0.30756 11.39231,0.35604 17.118,0.1398 l 33.39949,5.03171 c 5.32871,2.41857 10.58127,5.09287 15.74137,8.01454 -5.88304,0.72399 -11.75726,1.17957 -17.60523,1.37237 z m -25.07056,-3.06253 c -12.75396,-5.90339 -26.08335,-10.31599 -39.74005,-13.11074 13.70272,2.65 27.69976,3.75201 41.72582,3.2204 l 83.42969,6.62402 c 13.50451,6.04724 26.58756,13.69761 39.00102,22.82406 -14.94596,3.6817 -29.93989,5.67363 -44.7165,6.06139 z M 57.492645,105.35413 C 57.856219,93.882945 59.761514,83.986439 63.539483,74.865622 M 391.279,105.35413 c -0.36358,34.31393 -6.96884,66.97854 -19.48485,97.19483 M 155.9343,112.67671 c -19.69077,-9.13835 -40.87201,-14.7562 -62.61437,-16.377664 20.7462,6.834104 42.43046,10.029384 64.05912,9.265204 l 130.04022,1.66454 c 21.5009,9.48527 42.08803,22.91178 60.83203,39.80366 -23.74456,8.43632 -47.83306,12.70278 -71.27185,13.12005 z m 36.29169,33.13279 c -3.92574,-4.17391 -8.02721,-8.14991 -12.28811,-11.91965 5.14629,2.41819 10.42282,4.6049 15.81214,6.55451 l 29.05679,17.23654 c 4.02912,4.24297 7.89263,8.69125 11.57421,13.33647 -5.72561,-1.54269 -11.34349,-3.32619 -16.8362,-5.34485 z m -22.013,-12.33819 c -9.61564,-10.22681 -20.35587,-19.27232 -31.97257,-27.00947 11.68965,7.59344 24.28077,13.80836 37.50807,18.55913 l 74.7394,37.71844 c 10.25019,10.6507 19.52976,22.59505 27.59058,35.70598 -15.24552,-2.21967 -29.93185,-5.95964 -43.7937,-11.13431 z M 63.539483,74.865622 c 3.777965,-9.120808 9.428602,-17.465929 17.282861,-25.834348 l 2.3e-5,-1e-5 M 371.79415,202.54896 c -12.51599,30.21627 -30.94271,57.98424 -54.94921,82.50491 l -8e-5,3e-5 M 151.69264,119.42812 C 136.82581,103.69585 119.14407,90.737655 99.576785,81.029432 116.20372,95.12927 135.23302,105.999 155.67104,113.31799 l 119.52342,51.18743 c 16.3972,16.75458 30.5562,36.70401 41.54765,59.37238 -25.20277,-1.1397 -49.28518,-6.04052 -71.25356,-14.38182 z m 20.96494,44.27889 c -1.98788,-5.37512 -4.21236,-10.63565 -6.66782,-15.76412 3.79924,4.23419 7.80382,8.30733 12.00539,12.20311 l 20.05905,27.17496 c 2.05777,5.47816 3.88088,11.0833 5.46369,16.79797 -4.67187,-3.648 -9.14772,-7.47956 -13.41919,-11.47836 z m -15.56203,-19.8931 c -4.84407,-13.19275 -11.1492,-25.73823 -18.82975,-37.37116 7.81545,11.56312 16.93362,22.23976 27.22743,31.78179 l 54.3098,63.67759 c 5.27308,13.82518 9.11456,28.48592 11.43882,43.71694 -13.17174,-7.96504 -25.18255,-17.15885 -35.90537,-27.3333 z M 80.822365,49.031255 C 89.190791,41.176993 97.535919,35.526357 106.65674,31.748394 M 316.84488,285.05393 c -24.5207,24.00651 -52.28869,42.43323 -82.505,54.94921 M 145.25325,123.81788 c -7.46169,-20.38526 -18.46666,-39.335085 -32.69428,-55.855809 9.83734,19.502221 22.91101,37.094719 38.74515,51.848139 l 90.77528,93.12936 c 8.49633,21.91053 13.55964,45.96181 14.86928,71.16018 -22.75531,-10.82458 -42.8053,-24.84088 -59.67407,-41.11956 z m 2.23366,49.09052 c 0.17549,-5.72732 0.0868,-11.43896 -0.26054,-17.11747 1.92906,5.34889 4.11389,10.6262 6.54613,15.81561 l 8.35817,32.73433 c -0.15122,5.84925 -0.56471,11.72657 -1.24611,17.61451 -2.95777,-5.13947 -5.66908,-10.37304 -8.1256,-15.68438 z m -6.84112,-24.28997 c 0.43217,-14.03073 -0.76618,-28.02136 -3.50943,-41.70659 2.89645,13.6352 7.40511,26.93308 13.39891,39.6455 l 26.17776,79.51971 c -0.28321,14.77916 -2.1675,29.78673 -5.73847,44.75741 -9.21066,-12.34975 -16.95091,-25.37912 -23.09367,-38.83997 z M 106.65674,31.748394 c 9.1208,-3.777956 19.01729,-5.683246 30.48846,-6.046819 l -5e-5,1.9e-5 m 97.19473,314.301546 c -30.21625,12.51597 -62.88081,19.12121 -97.19468,19.48479 l -5e-5,-7e-5 m 0.33483,-233.89533 c 0.61196,-21.63683 -2.72809,-43.302533 -9.6995,-64.003443 1.78692,21.72711 7.5566,42.868923 16.83316,62.496093 l 48.32081,120.71081 c -0.25271,23.44185 -4.34717,47.56014 -12.60401,71.36123 -17.01516,-18.62694 -30.57859,-39.12118 -40.21438,-60.55337 z m -16.48547,46.13435 c 2.39514,-5.20643 4.54195,-10.49913 6.43206,-15.86177 -0.30756,5.68049 -0.35605,11.3923 -0.13981,17.11799 l -5.03173,33.39949 c -2.41858,5.3287 -5.09288,10.58127 -8.01455,15.74137 -0.72399,-5.88304 -1.17957,-11.75727 -1.37237,-17.60523 z m 3.06254,-25.07056 c 5.90341,-12.75396 10.31601,-26.08335 13.11077,-39.74005 -2.65001,13.70273 -3.75202,27.69977 -3.22043,41.72583 l -6.62407,83.42968 c -6.04725,13.50451 -13.69763,26.58755 -22.82409,39.00101 -3.68169,-14.94596 -5.673605,-29.9399 -6.061355,-44.7165 z M 137.14526,25.701577 c 11.47118,0.363569 21.36768,2.268864 30.48849,6.046837 M 137.14503,359.48792 C 102.83111,359.12434 70.166506,352.51906 39.950219,340.00303 M 129.82261,124.14322 c 9.13836,-19.69077 14.75622,-40.872004 16.3777,-62.614363 -6.83411,20.746197 -10.02941,42.430453 -9.26524,64.059123 l -1.66463,130.04022 c -9.48528,21.5009 -22.91181,42.08801 -39.803701,60.83201 C 87.030442,292.71564 82.76399,268.62714 82.346736,245.18834 Z m -33.132814,36.29167 c 4.173914,-3.92574 8.149924,-8.02721 11.919654,-12.28811 -2.41819,5.14629 -4.6049,10.42282 -6.55451,15.81214 L 84.818376,193.0157 c -4.242978,4.02912 -8.691257,7.89262 -13.336481,11.5742 1.5427,-5.72561 3.3262,-11.34349 5.34487,-16.83619 z m 12.338204,-22.013 c 10.22682,-9.61563 19.27234,-20.35586 27.00949,-31.97255 -7.59345,11.68964 -13.80837,24.28076 -18.55916,37.50806 l -37.718481,74.73938 c -10.650711,10.25018 -22.595062,19.52975 -35.705994,27.59056 2.219674,-15.24552 5.959655,-29.93186 11.134333,-43.7937 z M 167.63375,31.748414 c 9.1208,3.777964 17.4659,9.428597 25.83431,17.282848 2e-5,2.1e-5 4e-5,4.3e-5 6e-5,6.4e-5 M 39.950219,340.00303 c -30.2162106,-12.51599 -57.98412,-30.9427 -82.504744,-54.94917 -6.1e-5,-6e-5 -1.22e-4,-1.3e-4 -1.83e-4,-1.9e-4 M 123.07121,119.90155 c 15.73228,-14.86682 28.69048,-32.548552 38.39872,-52.115834 -14.09985,16.626925 -24.9696,35.656224 -32.2886,56.094234 l -51.187504,119.5234 c -16.754599,16.39719 -36.70403,30.55618 -59.372406,41.54761 1.139709,-25.20277 6.040545,-49.28518 14.381862,-71.25356 z m -44.278905,20.96492 c 5.375124,-1.98788 10.635648,-4.21236 15.764128,-6.66781 -4.234199,3.79923 -8.307344,7.80381 -12.203118,12.00538 l -27.174984,20.05902 c -5.478158,2.05777 -11.083299,3.88088 -16.797975,5.46369 3.648002,-4.67188 7.479566,-9.14772 11.478376,-13.41919 z m 19.893117,-15.56201 c 13.192748,-4.84407 25.738238,-11.14918 37.371178,-18.82973 -11.56314,7.81544 -22.23978,16.9336 -31.78181,27.22741 L 40.597146,188.01188 C 26.771965,193.28496 12.111214,197.12642 -3.1198067,199.45067 4.8452387,186.27894 14.039059,174.26813 24.213521,163.54532 Z M 193.46812,49.031326 c 7.85427,8.368447 13.50491,16.713587 17.28287,25.834412 M -42.554708,285.05367 C -66.561222,260.53295 -84.987937,232.76494 -97.503902,202.54862 M 118.68146,113.46217 c 20.38527,-7.46167 39.3351,-18.466629 55.85584,-32.694235 -19.50224,9.837315 -37.09474,22.910975 -51.84818,38.745095 l -93.129426,90.77522 c -21.9105366,8.49631 -45.961822,13.5596 -71.160202,14.86922 10.824587,-22.7553 24.840904,-42.80528 41.11959852,-59.67404 z m -49.09053,2.23362 c 5.727322,0.1755 11.438962,0.0868 17.117476,-0.26052 -5.348896,1.92905 -10.626207,4.11388 -15.815616,6.54612 l -32.73434,8.35814 c -5.849255,-0.15123 -11.726574,-0.56473 -17.614511,-1.24613 5.139473,-2.95776 10.373039,-5.66908 15.684382,-8.12558 z m 24.289972,-6.8411 c 14.030728,0.43218 28.021368,-0.76615 41.706608,-3.50939 -13.63521,2.89644 -26.93309,7.40509 -39.645516,13.39888 L 16.422256,144.92187 C 1.6430928,144.63864 -13.364481,142.75435 -28.335162,139.18336 -15.9854,129.9727 -2.9560246,122.23247 10.504832,116.08972 Z M 210.75099,74.865738 c 3.77794,9.120793 5.68322,19.017265 6.04677,30.488402 0,4e-5 0,8e-5 0,1.2e-4 m -314.301662,97.19436 c -12.515918,-30.21621 -19.121128,-62.8807 -19.484688,-97.1945 0,-1.2e-4 0,-2.4e-4 1e-5,-3.6e-4 m 233.89539,0.33514 c 21.63684,0.61198 43.30254,-2.72805 64.00346,-9.699441 -21.72711,1.786901 -42.86893,7.556561 -62.49611,16.833101 L -2.2966991,161.14327 c -23.4418579,-0.25273 -47.5601519,-4.34721 -71.3612279,-12.60407 18.626958,-17.01514 39.121212,-30.57855 60.55341,-40.21433 z M 70.77247,89.203389 c 5.206426,2.395147 10.499121,4.541958 15.861769,6.432077 C 80.953747,95.327895 75.241934,95.279409 69.516245,95.495639 L 36.116761,90.463882 C 30.788056,88.0453 25.535496,85.370995 20.375396,82.449321 26.258436,81.725338 32.132662,81.269764 37.98063,81.076969 Z m 25.070557,3.062564 c 12.753953,5.903413 26.083343,10.316037 39.740033,13.110797 -13.70272,-2.65002 -27.69976,-3.75204 -41.725817,-3.22046 L 10.427565,95.532155 C -3.0769357,89.484896 -16.159977,81.834503 -28.573425,72.708036 -13.62746,69.026355 1.3664751,67.034452 16.14308,66.646714 Z M 216.79776,105.35426 c -0.36358,11.47117 -2.26889,21.36767 -6.04687,30.48848 m -327.73947,-30.48898 c 0.36361,-34.31392 6.96892,-66.978513 19.484967,-97.194791 M 118.35612,98.031526 c 19.69076,9.138374 40.87199,14.756254 62.61435,16.377754 -20.74619,-6.83413 -42.43045,-10.02944 -64.05911,-9.26529 L -13.128862,103.47925 C -34.629748,93.993957 -55.216856,80.567412 -73.960836,63.675506 -50.216265,55.239229 -26.127756,50.972796 -2.6889631,50.55556 Z M 82.064477,64.898685 c 3.925734,4.173921 8.027206,8.149928 12.288099,11.919666 C 89.206289,74.400156 83.929762,72.213437 78.540442,70.263823 L 49.483677,53.02724 c -4.029114,-4.242982 -7.892615,-8.691264 -11.574188,-13.336491 5.725608,1.542705 11.343485,3.326209 16.836185,5.344883 z m 22.012983,12.338223 c 9.61563,10.226825 20.35585,19.272351 31.97253,27.009512 C 124.36036,96.652965 111.76924,90.438032 98.541953,85.687237 L 23.802599,47.968693 C 13.552426,37.317974 4.2728734,25.373615 -3.7879267,12.262676 11.457592,14.482361 26.143921,18.222353 40.00576,23.397042 Z m 106.67343,58.605832 c -3.77796,9.12077 -9.42859,17.46587 -17.28282,25.83426 -4e-5,3e-5 -8e-5,7e-5 -1.2e-4,1.1e-4 M -97.503613,8.158969 c 12.515992,-30.216139 30.942671,-57.983987 54.949089,-82.504563 1.13e-4,-1.11e-4 2.26e-4,-2.21e-4 3.39e-4,-3.32e-4 M 122.59779,91.280137 c 14.86681,15.732293 32.54853,28.690503 52.1158,38.398753 -16.62691,-14.09987 -35.65619,-24.96963 -56.0942,-32.28864 L -0.90396543,46.202651 C -17.301145,29.448039 -31.460116,9.4985959 -42.45153,-13.16979 -17.248756,-12.030063 6.8336449,-7.1292098 28.80202,1.2121242 Z M 101.63292,47.001209 c 1.98787,5.375125 4.21234,10.635651 6.66779,15.764132 -3.79923,-4.234201 -7.8038,-8.307349 -12.005372,-12.203126 L 76.236335,23.387217 C 74.17857,17.909057 72.35547,12.303916 70.772666,6.5892385 75.444535,10.237244 79.920379,14.068812 84.191841,18.067624 Z m 15.56199,19.893126 c 4.84406,13.192752 11.14916,25.738249 18.8297,37.371185 C 128.20917,92.702387 119.09103,82.025733 108.79722,72.483696 L 54.487526,8.8060137 C 49.214465,-5.0191702 45.373008,-19.679923 43.048766,-34.910943 c 13.171731,7.965056 25.18253,17.158885 35.905336,27.3333545 z m 76.27304,94.782775 c -8.36843,7.85425 -16.71356,13.50487 -25.83439,17.28282 M -42.554185,-74.345926 C -18.033464,-98.352404 9.7345539,-116.77909 39.950878,-129.29503 M 129.03719,86.890376 c 7.46165,20.385284 18.4666,39.335124 32.69419,55.855864 -9.83731,-19.50223 -22.91096,-37.09475 -38.74507,-51.848194 L 32.211176,-2.2314592 C 23.714878,-24.142 18.651603,-48.193286 17.341996,-73.391662 c 22.755291,10.824607 42.805258,24.840938 59.674013,41.119644 z M 126.8036,37.799853 c -0.1755,5.72732 -0.0868,11.438961 0.26051,17.117474 -1.92905,-5.348897 -4.11387,-10.626209 -6.54611,-15.81562 L 112.15988,6.3673636 c 0.15123,-5.84925456 0.56474,-11.7265731 1.24615,-17.6145096 2.95775,5.1394747 5.66906,10.37304274 8.12557,15.6843872 z m 6.84108,24.289976 c -0.43219,14.030731 0.76613,28.021366 3.50936,41.706601 C 134.25761,90.161225 129.74898,76.863341 123.7552,64.150912 L 97.577557,-15.368839 c 0.283235,-14.779162 2.167543,-29.786733 5.738533,-44.757412 9.21065,12.349767 16.95088,25.379147 23.09362,38.840007 z m 33.98888,116.870101 c -9.12078,3.77792 -19.01723,5.6832 -30.48835,6.04676 -7e-5,0 -1.3e-4,0 -2e-4,0 M 39.950878,-129.29503 c 30.216152,-12.51587 62.880582,-19.12106 97.194312,-19.48463 2e-4,0 3.9e-4,1e-5 5.9e-4,1e-5 m -0.33533,233.89539 c -0.61199,21.63683 2.72803,43.30254 9.6994,64.00346 -1.78688,-21.72711 -7.55653,-42.86894 -16.83305,-62.496117 L 81.356165,-34.087804 c 0.252751,-23.441856 4.347242,-47.560146 12.604118,-71.361216 17.015137,18.626967 30.578537,39.121228 40.214297,60.553432 z M 153.296,38.981414 c -2.39515,5.206425 -4.54196,10.499119 -6.43209,15.861765 0.30758,-5.680492 0.35607,-11.392305 0.13984,-17.117995 l 5.03178,-33.3994817 c 2.41859,-5.3287032 5.09289,-10.5812623 8.01457,-15.7413603 0.72398,5.8830404 1.17955,11.75726755 1.37234,17.6052356 z m -3.06258,25.070557 C 144.33,76.80592 139.91737,90.135307 137.12259,103.792 c 2.65003,-13.702724 3.75206,-27.699764 3.22049,-41.725822 l 6.6242,-83.429675 c 6.04727,-13.504498 13.69767,-26.587535 22.82414,-39.000978 3.68167,14.945967 5.67356,29.939905 6.06129,44.716511 z M 137.14501,185.00669 c -11.47116,-0.36358 -21.36764,-2.26888 -30.48845,-6.04688 m 30.48922,-327.73946 c 34.3139,0.36363 66.97848,6.96895 97.19475,19.48503 m -89.8727,215.859681 c -9.13839,19.690759 -14.75628,40.871989 -16.3778,62.614339 6.83415,-20.74619 10.02947,-42.43044 9.26533,-64.059111 L 139.0202,-44.91993 c 9.48531,-21.50088 22.91186,-42.087982 39.80378,-60.83195 8.43626,23.744573 12.70268,47.833087 13.1199,71.271882 z m 33.13286,-36.291624 c -4.17392,3.925732 -8.14993,8.027201 -11.91967,12.288092 2.4182,-5.146286 4.60492,-10.422811 6.55454,-15.81213 l 17.2366,-29.056753 c 4.24299,-4.029112 8.69127,-7.8926101 13.3365,-11.5741787 -1.54271,5.7256067 -3.32622,11.3434837 -5.34489,16.8361827 z m -12.33824,22.012979 c -10.22683,9.615617 -19.27236,20.355831 -27.00953,31.972514 7.59347,-11.689632 13.80841,-24.280742 18.55921,-37.508029 l 37.7186,-74.7393325 c 10.65072,-10.2501655 22.59509,-19.5297095 35.70603,-27.5904985 -2.21969,15.245519 -5.95969,29.931847 -11.13439,43.7936834 z M 106.65656,178.95981 c -9.120754,-3.77796 -17.465837,-9.42859 -25.834228,-17.28282 -5.2e-5,-5e-5 -1.05e-4,-1.1e-4 -1.57e-4,-1.6e-4 M 234.34053,-129.29462 c 30.21607,12.51599 57.98386,30.942644 82.5044,54.949026 1.6e-4,1.64e-4 3.2e-4,3.28e-4 4.8e-4,4.92e-4 M 151.21921,90.806726 c -15.7323,14.866804 -28.69053,32.548514 -38.39878,52.115784 14.09988,-16.6269 24.96965,-35.65618 32.28868,-56.094181 l 51.18767,-119.523326 c 16.75463,-16.397168 36.70408,-30.556125 59.37248,-41.547519 -1.13974,25.202777 -6.04061,49.285178 -14.38196,71.2535493 z m 44.27894,-20.964834 c -5.37512,1.987868 -10.63565,4.212338 -15.76413,6.66778 4.2342,-3.799223 8.30735,-7.803796 12.20313,-12.005363 l 27.17502,-20.05898 c 5.47816,-2.057761 11.0833,-3.880857 16.79798,-5.463657 -3.64801,4.671866 -7.47958,9.147707 -11.4784,13.419166 z m -19.89313,15.561979 c -13.19276,4.844048 -25.73826,11.149141 -37.37121,18.829669 11.56314,-7.815427 22.2398,-16.933569 31.78185,-27.227363 l 63.67773,-54.309644 c 13.82519,-5.273051 28.48594,-9.114497 43.71697,-11.438728 -7.96507,13.171724 -17.15891,25.182515 -27.33339,35.905313 z M 80.822175,161.67683 C 72.967933,153.3084 67.317319,144.96326 63.539381,135.84243 M 316.84541,-74.345102 c 24.00646,24.520729 42.43312,52.288755 54.94904,82.5050873 M 155.60897,97.246134 c -20.38529,7.461636 -39.33514,18.466566 -55.8559,32.694146 19.50224,-9.83729 37.09477,-22.91093 51.84823,-38.745031 L 244.73088,0.42019407 C 266.64143,-8.0760876 290.69272,-13.139346 315.8911,-14.448934 305.06647,8.3063457 291.05012,28.356301 274.7714,45.225043 Z m 49.09052,-2.233558 c -5.72732,-0.175501 -11.43896,-0.08679 -17.11747,0.260503 5.3489,-1.929046 10.62621,-4.113864 15.81562,-6.546098 l 32.73435,-8.358093 c 5.84926,0.151233 11.72658,0.564742 17.61451,1.246156 -5.13947,2.957753 -10.37304,5.669058 -15.68439,8.12556 z m -24.28998,6.841064 c -14.03073,-0.4322 -28.02137,0.76611 -41.70661,3.50933 13.63521,-2.89641 26.9331,-7.40504 39.64554,-13.398813 l 79.51977,-26.177578 c 14.77916,0.283246 29.78673,2.167566 44.75741,5.738571 -12.34978,9.210642 -25.37916,16.950857 -38.84003,23.093586 z M 63.539381,135.84243 C 59.761442,126.7216 57.856178,116.82508 57.492636,105.35387 M 371.79445,8.1599853 C 384.31036,38.376318 390.91553,71.040957 391.279,105.35491 m -233.8954,-0.33552 c -21.63684,-0.61201 -43.30254,2.728 -64.003472,9.69936 21.727112,-1.78687 42.868942,-7.5565 62.496132,-16.833007 L 276.58719,49.565201 c 23.44185,0.252768 47.56014,4.347278 71.3612,12.604173 -18.62698,17.015125 -39.12125,30.578507 -60.55346,40.214256 z"
       sodipodi:nodetypes="sssssssss"
       inkscape:path-effect="#path-effect33"
       inkscape:original-d="m 224.38582,105.35413 c 0,24.09083 -9.76474,45.90099 -25.55218,61.68844 -15.78745,15.78744 -37.59761,25.55218 -61.68844,25.55218 -24.09083,0 -45.900985,-9.76474 -61.688431,-25.55219 -15.787445,-15.78744 -25.552183,-37.5976 -25.552182,-61.68843 10e-7,-24.09083 9.76474,-45.900982 25.552185,-61.688428 15.787446,-15.787445 37.597598,-25.552183 61.688428,-25.552184 24.09083,-10e-7 45.90099,9.764737 61.68843,25.552182 15.78745,15.787446 25.55219,37.597599 25.55219,61.68843 z"
       transform="translate(5.7506161,27.184731)" /></g></svg>
