<?xml version="1.0" encoding="UTF-8" standalone="no"?>
<!-- Created with Inkscape (http://www.inkscape.org/) -->

<svg
   width="1080"
   height="1080"
   viewBox="0 0 285.74997 285.74997"
   version="1.1"
   id="svg1"
   inkscape:version="1.4.2 (f4327f4, 2025-05-13)"
   sodipodi:docname="79.svg"
   xml:space="preserve"
   xmlns:inkscape="http://www.inkscape.org/namespaces/inkscape"
   xmlns:sodipodi="http://sodipodi.sourceforge.net/DTD/sodipodi-0.dtd"
   xmlns:xlink="http://www.w3.org/1999/xlink"
   xmlns="http://www.w3.org/2000/svg"
   xmlns:svg="http://www.w3.org/2000/svg"><sodipodi:namedview
     id="namedview1"
     pagecolor="#ffffff"
     bordercolor="#000000"
     borderopacity="0.25"
     inkscape:showpageshadow="2"
     inkscape:pageopacity="0.0"
     inkscape:pagecheckerboard="0"
     inkscape:deskcolor="#3c3c3c"
     inkscape:document-units="px"
     inkscape:zoom="0.24945156"
     inkscape:cx="-320.70355"
     inkscape:cy="424.9322"
     inkscape:window-width="1920"
     inkscape:window-height="991"
     inkscape:window-x="-9"
     inkscape:window-y="-9"
     inkscape:window-maximized="1"
     inkscape:current-layer="layer1" /><defs
     id="defs1"><linearGradient
       id="linearGradient30"
       inkscape:collect="always"><stop
         style="stop-color:#002255;stop-opacity:1"
         offset="0"
         id="stop30" /><stop
         style="stop-color:#0055d4;stop-opacity:0;"
         offset="1"
         id="stop31" /></linearGradient><linearGradient
       id="linearGradient28"
       inkscape:collect="always"><stop
         style="stop-color:#0055d4;stop-opacity:1;"
         offset="0"
         id="stop28" /><stop
         style="stop-color:#00ccff;stop-opacity:1"
         offset="1"
         id="stop29" /></linearGradient><inkscape:path-effect
       effect="fillet_chamfer"
       id="path-effect20"
       is_visible="true"
       lpeversion="1"
       nodesatellites_param="F,0,1,1,0,11.442479,0,1 @ F,0,1,1,0,11.442479,0,1 @ F,0,1,1,0,11.442479,0,1 @ F,0,1,1,0,11.442479,0,1 @ F,0,1,1,0,11.442479,0,1 @ F,0,0,1,0,11.442479,0,1"
       radius="0"
       unit="px"
       method="auto"
       mode="F"
       chamfer_steps="1"
       flexible="false"
       use_knot_distance="true"
       apply_no_radius="true"
       apply_with_radius="true"
       only_selected="false"
       hide_knots="false" /><inkscape:path-effect
       effect="perspective-envelope"
       up_left_point="142.87498,80.773351"
       up_right_point="196.65672,49.722536"
       down_left_point="142.87498,142.87499"
       down_right_point="196.65672,111.82417"
       id="path-effect19"
       is_visible="true"
       lpeversion="1"
       deform_type="perspective"
       horizontal_mirror="false"
       vertical_mirror="false"
       overflow_perspective="false" /><inkscape:path-effect
       effect="perspective-envelope"
       up_left_point="89.093263,49.722536"
       up_right_point="142.87498,80.773351"
       down_left_point="89.093263,111.82417"
       down_right_point="142.87498,142.87499"
       id="path-effect18"
       is_visible="true"
       lpeversion="1"
       deform_type="perspective"
       horizontal_mirror="false"
       vertical_mirror="false"
       overflow_perspective="false" /><inkscape:path-effect
       effect="perspective-envelope"
       up_left_point="89.093263,49.722536"
       up_right_point="142.87498,18.671722"
       down_left_point="142.87498,80.773351"
       down_right_point="196.65672,49.722536"
       id="path-effect17"
       is_visible="true"
       lpeversion="1"
       deform_type="perspective"
       horizontal_mirror="false"
       vertical_mirror="false"
       overflow_perspective="false" /><inkscape:path-effect
       effect="fillet_chamfer"
       id="path-effect1"
       is_visible="true"
       lpeversion="1"
       nodesatellites_param="C,0,0,1,0,45.584779,0,1 @ F,0,0,1,0,37.379523,0,1 @ F,0,0,1,0,82.964302,0,1 @ F,0,0,1,0,0,0,1"
       radius="0"
       unit="px"
       method="auto"
       mode="F"
       chamfer_steps="1"
       flexible="false"
       use_knot_distance="true"
       apply_no_radius="true"
       apply_with_radius="true"
       only_selected="false"
       hide_knots="false" /><linearGradient
       inkscape:collect="always"
       xlink:href="#linearGradient28"
       id="linearGradient29"
       x1="141.16176"
       y1="139.83585"
       x2="142.15071"
       y2="20.585859"
       gradientUnits="userSpaceOnUse"
       gradientTransform="matrix(1.5268187,0,0,1.5268187,-75.26922,19.548711)" /><linearGradient
       inkscape:collect="always"
       xlink:href="#linearGradient30"
       id="linearGradient31"
       x1="80.521553"
       y1="32.960571"
       x2="156.64487"
       y2="171.87079"
       gradientUnits="userSpaceOnUse"
       gradientTransform="matrix(1.5268187,0,0,1.5268187,-75.26922,19.548711)" /><linearGradient
       inkscape:collect="always"
       xlink:href="#linearGradient30"
       id="linearGradient33"
       x1="191.72955"
       y1="107.43301"
       x2="138.92853"
       y2="81.200378"
       gradientUnits="userSpaceOnUse"
       gradientTransform="matrix(1.5268187,0,0,1.5268187,-75.26922,19.548711)" /><linearGradient
       inkscape:collect="always"
       xlink:href="#linearGradient30"
       id="linearGradient35"
       x1="135.61003"
       y1="102.88288"
       x2="144.67027"
       y2="33.414886"
       gradientUnits="userSpaceOnUse"
       gradientTransform="matrix(1.5268187,0,0,1.5268187,-75.26922,19.548711)" /></defs><g
     inkscape:label="Capa1"
     inkscape:groupmode="layer"
     id="layer1"
     style="display:inline;opacity:1;mix-blend-mode:multiply"><path
       id="path1"
       style="fill:url(#linearGradient29);stroke-width:6.61458;stroke-linecap:square;stroke-miterlimit:4.7"
       d="M 127.74501,54.709332 74.086085,85.689237 A 30.25991,30.25991 0 0 0 58.956099,111.89511 v 61.95973 a 30.259914,30.259914 0 0 0 15.129984,26.20587 l 53.658927,30.97992 a 30.26002,30.26002 0 0 0 30.25996,0 l 53.65891,-30.97992 a 30.259918,30.259918 0 0 0 15.12998,-26.20587 V 111.89511 A 30.259913,30.259913 0 0 0 211.66388,85.689236 L 158.00497,54.709333 a 30.260031,30.260031 0 0 0 -30.25996,-10e-7 z" /><path
       style="fill:url(#linearGradient35);stroke-width:6.61456;stroke-linecap:square;stroke-miterlimit:4.7"
       d="m 75.887364,89.102714 c -6.105977,3.525281 -6.105962,9.201313 1.5e-5,12.726596 l 55.966021,32.31192 c 6.10596,3.52527 15.93716,3.52528 22.04314,0 L 209.8626,101.8293 c 6.10598,-3.525271 6.10598,-9.201317 0,-12.726588 L 153.89657,56.790795 c -6.10599,-3.525283 -15.93721,-3.525281 -22.04317,-9e-6 z"
       id="rect5" /><path
       style="fill:#ffffff;stroke-width:6.61456;stroke-linecap:square;stroke-miterlimit:4.7"
       d="m 176.31815,87.739877 c 5.57309,-3.217393 14.60849,-3.217282 20.18134,2.49e-4 5.57293,3.217473 5.57313,8.434053 4.2e-4,11.651667 -5.57301,3.217627 -14.60875,3.217627 -20.18176,0 -5.57312,-3.217571 -5.57312,-8.434345 0,-11.651916 z"
       id="path28" /><path
       style="fill:url(#linearGradient31);stroke-width:6.61456;stroke-linecap:square;stroke-miterlimit:4.7"
       d="m 73.834498,105.38497 c -6.105989,-3.52528 -11.021586,-0.68725 -11.021586,6.3633 v 64.62385 c 0,7.05058 4.915597,15.56461 11.021586,19.08991 l 55.966032,32.31193 c 6.10598,3.52528 11.02157,0.68726 11.02157,-6.36331 v -64.62386 c 0,-7.05055 -4.91559,-15.56461 -11.02157,-19.08989 z"
       id="rect9" /><path
       style="fill:#ffffff;stroke-width:6.61456;stroke-linecap:square;stroke-miterlimit:4.7"
       d="m 129.17773,114.59244 c 5.5729,-3.21731 14.60799,-3.21731 20.18091,-1e-5 5.57295,3.21748 5.57313,8.43407 4.1e-4,11.65168 -5.57301,3.21762 -14.60875,3.21762 -20.18176,-1e-5 -5.57271,-3.21761 -5.57251,-8.43419 4.4e-4,-11.65166 z"
       id="path27" /><path
       style="fill:#ffffff;stroke-width:6.61456;stroke-linecap:square;stroke-miterlimit:4.7"
       d="m 78.404899,164.28007 c 5.573056,3.21754 10.090928,11.04272 10.090867,17.47787 6.1e-5,6.43524 -4.517811,9.04363 -10.090867,5.82596 -5.573073,-3.21752 -10.090963,-11.0427 -10.090905,-17.47789 -5.8e-5,-6.43524 4.517832,-9.04363 10.090905,-5.82594 z"
       id="path22" /><path
       style="fill:#ffffff;stroke-width:6.61456;stroke-linecap:square;stroke-miterlimit:4.7"
       d="m 101.35891,154.89563 c 5.57305,3.21754 10.09093,11.04271 10.09088,17.47788 6e-5,6.43525 -4.51781,9.04363 -10.09088,5.82597 -5.573073,-3.21753 -10.09093,-11.04271 -10.090869,-17.47789 -6.1e-5,-6.43523 4.517811,-9.04361 10.090869,-5.82596 z"
       id="path21" /><path
       style="fill:#ffffff;stroke-width:6.61456;stroke-linecap:square;stroke-miterlimit:4.7"
       d="m 125.23014,145.57501 c 5.5729,3.21772 10.09051,11.04268 10.09047,17.47766 -2e-4,6.43472 -4.51775,9.04291 -10.09047,5.8257 -5.57291,-3.21744 -10.0907,-11.04226 -10.09088,-17.47737 -7e-5,-6.43525 4.51781,-9.04365 10.09088,-5.82599 z"
       id="path20" /><path
       style="fill:url(#linearGradient33);stroke-width:6.61456;stroke-linecap:square;stroke-miterlimit:4.7"
       d="m 155.94944,137.69689 c -6.10599,3.52529 -11.0216,12.03936 -11.0216,19.0899 v 64.62386 c 0,7.05057 4.91561,9.88858 11.0216,6.36329 l 55.96604,-32.31193 c 6.10597,-3.52527 11.02157,-12.03931 11.02157,-19.08989 v -64.62385 c 0,-7.05054 -4.9156,-9.88857 -11.02157,-6.3633 z"
       id="rect14" /><path
       style="fill:#ffffff;stroke-width:6.61456;stroke-linecap:square;stroke-miterlimit:4.7"
       d="m 132.52758,90.021498 c 5.57286,-3.217535 14.60827,-3.217645 20.18134,-2.42e-4 5.57312,3.217569 5.57312,8.434343 0,11.651914 -5.57301,3.21763 -14.60874,3.21763 -20.18175,0 -5.57272,-3.217607 -5.57252,-8.434196 4.1e-4,-11.651672 z"
       id="path26" /><path
       style="fill:#ffffff;stroke-width:6.61456;stroke-linecap:square;stroke-miterlimit:4.7"
       d="m 136.39088,64.687921 c 5.57308,-3.217395 14.60848,-3.217283 20.18133,2.46e-4 5.57294,3.217471 5.57312,8.434055 4.2e-4,11.651665 -5.57301,3.21763 -14.60874,3.21763 -20.18175,10e-7 -5.57312,-3.217568 -5.5731,-8.434342 0,-11.651912 z"
       id="path25" /><path
       style="fill:#ffffff;stroke-width:6.61456;stroke-linecap:square;stroke-miterlimit:4.7"
       d="m 89.250457,91.540483 c 5.573072,-3.217399 14.608483,-3.2173 20.181333,2.26e-4 5.57256,3.217512 5.57256,8.433919 0,11.651431 -5.57285,3.21754 -14.608277,3.21765 -20.181363,2.4e-4 -5.573072,-3.217569 -5.573057,-8.434333 3e-5,-11.651897 z"
       id="path24" /><path
       style="fill:#ffffff;stroke-width:6.61456;stroke-linecap:square;stroke-miterlimit:4.7"
       d="m 183.47387,155.42517 c 5.57305,-3.21765 10.09093,-0.60926 10.09087,5.82597 6e-5,6.43516 -4.51782,14.26035 -10.09087,17.47789 -5.57291,3.21729 -10.09054,0.60883 -10.09047,-5.82621 -6e-5,-6.43499 4.51756,-14.25993 10.09047,-17.47765 z"
       id="path23" /></g></svg>
