<?xml version="1.0" encoding="UTF-8" standalone="no"?>
<!-- Created with Inkscape (http://www.inkscape.org/) -->

<svg
   width="915.10468"
   height="1280"
   viewBox="0 0 915.1046 1280.0001"
   version="1.1"
   id="svg5"
   inkscape:version="1.4.2 (f4327f4, 2025-05-13)"
   xml:space="preserve"
   sodipodi:docname="16.svg"
   xmlns:inkscape="http://www.inkscape.org/namespaces/inkscape"
   xmlns:sodipodi="http://sodipodi.sourceforge.net/DTD/sodipodi-0.dtd"
   xmlns="http://www.w3.org/2000/svg"
   xmlns:svg="http://www.w3.org/2000/svg"><sodipodi:namedview
     id="namedview7"
     pagecolor="#ffffff"
     bordercolor="#666666"
     borderopacity="1.0"
     inkscape:showpageshadow="2"
     inkscape:pageopacity="0.0"
     inkscape:pagecheckerboard="0"
     inkscape:deskcolor="#d1d1d1"
     inkscape:document-units="px"
     showgrid="false"
     showborder="false"
     inkscape:zoom="0.47022002"
     inkscape:cx="1123.9419"
     inkscape:cy="588.0226"
     inkscape:window-width="1920"
     inkscape:window-height="991"
     inkscape:window-x="-9"
     inkscape:window-y="-9"
     inkscape:window-maximized="1"
     inkscape:current-layer="layer1" /><defs
     id="defs2"><clipPath
       clipPathUnits="userSpaceOnUse"
       id="clipPath8006"><path
         inkscape:connector-curvature="0"
         id="path8008"
         d="m -1244.8456,-140.77945 h 33.9355 c 11.5456,0 20.8405,9.29479 20.8405,20.84039 v 31.873282 c 0,11.545575 -9.2949,20.840392 -20.8405,20.840392 h -33.9355 c -11.5456,0 -20.8405,-9.294817 -20.8405,-20.840392 v -31.873282 c 0,-11.5456 9.2949,-20.84039 20.8405,-20.84039 z"
         style="opacity:0.521;fill:#ff0000;fill-opacity:1;stroke:none;stroke-width:1.61448;stroke-linecap:round;stroke-linejoin:round;stroke-miterlimit:4;stroke-dasharray:none" /></clipPath><clipPath
       clipPathUnits="userSpaceOnUse"
       id="clipPath8001"><path
         style="opacity:0.521;fill:#ff0000;fill-opacity:1;stroke:none;stroke-width:1.59706;stroke-linecap:round;stroke-linejoin:round;stroke-miterlimit:4;stroke-dasharray:none"
         d="m -2936.6731,-1508.8075 h 33.5693 c 11.421,0 20.6155,9.1945 20.6155,20.6155 v 31.5293 c 0,11.421 -9.1945,20.6155 -20.6155,20.6155 h -33.5693 c -11.421,0 -20.6156,-9.1945 -20.6156,-20.6155 v -31.5293 c 0,-11.421 9.1946,-20.6155 20.6156,-20.6155 z"
         id="path8003"
         inkscape:connector-curvature="0" /></clipPath></defs><g
     inkscape:label="Layer 1"
     inkscape:groupmode="layer"
     id="layer1"
     transform="translate(1557.121,320.39374)"><path
       style="fill:#000000;stroke-width:0.999997"
       d="m -1209.9493,957.34012 c 1.4744,-1.24633 8.5117,-6.17188 15.6383,-10.94569 14.9235,-9.99658 32.674,-19.32383 50.2618,-26.41087 21.4027,-8.62416 78.4209,-25.36319 78.4193,-23.02173 -3e-4,0.30517 -5.1274,4.04793 -11.3937,8.3172 -6.2663,4.26927 -17.2242,12.0486 -24.3508,17.28745 -16.6958,12.27317 -35.5064,24.72881 -47.3619,31.36099 l -9.383,5.24904 -27.2555,0.21492 -27.2554,0.21483 z m -203.2988,-20.44899 c 0,-1.40218 5.463,-5.94678 22.7874,-18.95682 37.1174,-27.87391 70.8038,-44.59829 113.043,-56.12278 13.8364,-3.77519 24.3501,-5.94821 45.5747,-9.41966 9.0926,-1.48725 19.95,-3.49861 24.1277,-4.46989 4.1777,-0.97119 9.8075,-2.20564 12.5107,-2.74306 5.5687,-1.10728 7.4105,-2.28901 4.8409,-3.10605 -0.9423,-0.29963 -7.343,-2.89077 -14.2239,-5.75804 -12.0944,-5.03984 -24.4142,-9.25219 -34.2042,-11.69517 -5.8901,-1.46974 -4.7736,-2.17508 5.6496,-3.56877 11.0884,-1.4826 23.6065,-0.58514 44.0116,3.15547 23.4214,4.29349 23.4754,4.29036 36.915,-2.12807 19.5838,-9.35282 31.5361,-12.9895 69.1604,-21.04316 12.7788,-2.73538 24.4405,-5.34636 25.915,-5.80219 1.4745,-0.45593 4.3899,-1.26912 6.4788,-1.80726 4.0457,-1.04214 5.1309,-2.53744 1.7872,-2.46264 -1.9765,0.0438 -19.7781,-5.00642 -41.7768,-11.85263 -6.1436,-1.91199 -16.4603,-5.12188 -22.9259,-7.13324 -47.1202,-14.65779 -78.434,-11.76139 -139.713,12.92301 -12.5331,5.04851 -24.798,9.81544 -27.2555,10.59316 -8.1327,2.57363 -18.529,4.14685 -39.3193,5.9499 -22.2961,1.93371 -31.602,3.34063 -44.9603,6.79733 -24.0552,6.2246 -47.3674,16.12825 -73.7063,31.3122 -16.0066,9.22762 -19.2764,10.43678 -48.1263,17.79718 -31.346,7.99728 -45.4512,13.27393 -63.4704,23.74368 -3.2804,1.90609 -6.1958,3.46555 -6.4787,3.46555 -0.2828,0 -0.5143,-48.48366 -0.5143,-107.74153 0,-102.19635 0.08,-107.71705 1.5638,-107.26586 15.856,4.82224 23.9783,7.27809 28.3725,8.57867 2.9489,0.87289 15.109,5.45278 27.0222,10.17771 11.9133,4.72484 22.1068,8.59065 22.6523,8.59065 0.5455,0 2.2589,0.56611 3.8077,1.25795 1.5488,0.69184 4.535,1.4591 6.636,1.70512 l 3.82,0.44734 -1.9779,-3.26904 c -7.3193,-12.09686 -17.2737,-22.13535 -30.8204,-31.08058 -9.4476,-6.23863 -11.7599,-8.38529 -9.0228,-8.37653 0.6144,0 4.7362,0.59336 9.1596,1.31425 20.6948,3.37234 39.4108,12.15726 57.2209,26.85839 13.9891,11.5471 28.0239,14.59042 55.341,11.99999 10.4581,-0.99174 30.7695,-4.68302 33.1747,-6.02908 1.2388,-0.69327 0.8342,-1.51969 -2.7614,-5.63928 -8.3441,-9.56005 -22.3672,-23.44781 -27.9242,-27.65453 -6.7359,-5.09927 -18.948,-11.49625 -27.0293,-14.15861 -11.4323,-3.76635 -10.7802,-5.04038 2.5319,-4.94718 22.249,0.15576 43.5696,9.76558 69.2373,31.20729 3.84,3.20775 8.597,6.65632 10.5713,7.66352 6.484,3.30782 17.9968,5.25663 31.1493,5.27272 17.0722,0.0206 29.4895,-0.90095 29.4895,-2.18919 0,-1.3701 -17.4606,-23.02325 -22.5807,-28.00259 -2.1797,-2.11967 -7.71,-6.34203 -12.2898,-9.38302 -9.7087,-6.44658 -10.6923,-7.80685 -5.1673,-7.14593 17.6595,2.1127 36.1832,12.05039 58.1935,31.22016 4.6446,4.04524 6.0614,4.74674 12.0952,5.98842 3.7589,0.77361 10.0621,1.6398 14.0072,1.92495 8.0046,0.57853 34.9464,-1.61039 44.464,-3.61246 3.3652,-0.70793 7.8013,-1.318 9.858,-1.35571 2.0567,-0.0375 5.3027,-0.54065 7.2133,-1.11748 l 3.4739,-1.04875 -7.6433,-8.58475 c -4.8717,-5.47173 -9.7769,-9.93223 -13.5271,-12.30069 -3.2361,-2.0438 -5.8838,-4.1119 -5.8838,-4.5958 0,-1.10782 -0.7654,-1.18065 9.2513,0.8804 9.7784,2.01198 21.2058,6.11486 36.7143,13.18189 12.8565,5.85857 20.7635,8.29691 26.8452,8.2785 5.1489,-0.0152 12.2784,-1.91262 12.7739,-3.39889 0.1848,-0.55467 -2.1689,-2.6276 -5.2308,-4.60652 -6.3724,-4.1187 -5.7211,-4.3632 5.8805,-2.20716 12.9653,2.40947 25.8049,3.93569 33.2593,3.95338 6.6131,0.0161 7.2894,-0.13824 6.7924,-1.54641 -0.9392,-2.66138 -4.0536,-5.61873 -10.5622,-10.02982 -16.5606,-11.22352 -36.1322,-17.83774 -93.8302,-31.70996 -15.7277,-3.78144 -41.0619,-10.02776 -56.2981,-13.8807 -15.2362,-3.85302 -30.9193,-7.68934 -34.8512,-8.52514 -3.9319,-0.8358 -12.1756,-2.83823 -18.3192,-4.44978 -15.2809,-4.00852 -16.0852,-4.16776 -16.0852,-3.18505 0,2.27203 24.3953,20.75301 50.0428,37.91052 22.6347,15.14205 22.7123,15.22417 11.1404,11.77659 -3.9155,-1.16654 -10.5599,-3.14573 -14.7652,-4.39832 -8.4159,-2.50669 -25.7923,-10.74284 -37.2596,-17.66062 -19.7265,-11.89999 -50.2897,-23.69204 -82.8684,-31.97268 -13.874,-3.52641 -17.4393,-4.1666 -17.4393,-3.1317 0,1.10774 17.965,27.05696 21.5567,31.13733 l 3.8563,4.38088 -3.5469,-0.64832 c -5.3255,-0.97351 -15.884,-6.32952 -21.6584,-10.98671 -2.8175,-2.2723 -9.5461,-8.00854 -14.9525,-12.74732 -25.3388,-22.20943 -45.4215,-34.1927 -71.9737,-42.94634 -11.9931,-3.95383 -19.7775,-5.54144 -37.048,-7.55592 -13.1762,-1.53685 -37.3567,-1.975 -48.9651,-0.88719 l -6.8862,0.64528 V 320.05992 101.18199 l 5.5851,-3.674925 c 3.0719,-2.021191 10.2097,-7.349673 15.8618,-11.841101 11.4047,-9.062476 47.4856,-35.53197 58.3964,-42.840537 5.0231,-3.36475 6.8717,-4.229507 6.5147,-3.047604 -2.4759,8.195932 -5.0973,18.066689 -6.3715,23.990769 -0.8457,3.931931 -2.5199,10.715138 -3.7202,15.073774 -1.2003,4.358635 -1.97,8.137132 -1.7104,8.396728 0.6952,0.695237 6.7119,-3.534359 10.5615,-7.424558 1.8431,-1.862485 3.6015,-3.135894 3.9077,-2.82974 0.3061,0.306155 -1.1983,4.897131 -3.343,10.2022 -3.8288,9.470325 -3.8963,9.817497 -3.7156,19.111514 0.1012,5.20632 0.5589,10.45205 1.0172,11.65728 0.7344,1.93156 0.1557,2.97218 -4.8835,8.78116 -8.1409,9.38472 -9.3287,14.8753 -5.0467,23.32914 1.6989,3.35402 3.348,5.26557 5.3424,6.19225 3.7556,1.74497 3.6619,3.02285 -0.4416,6.02631 -1.8509,1.35464 -6.6484,5.19024 -10.6612,8.52362 -6.1903,5.14226 -7.5225,6.74255 -8.7909,10.56153 -1.7867,5.37933 -1.1528,11.68454 1.4348,14.2722 1.0341,1.03409 2.9526,1.72281 4.7991,1.72281 2.9803,0 3.0849,-0.1185 3.3511,-3.79789 l 0.2748,-3.79789 7.5833,-3.84856 7.5834,-3.84855 1.5272,3.59584 c 2.0698,4.87363 4.7618,5.49827 10.1321,2.35111 2.8325,-1.65999 4.8036,-3.74882 6.493,-6.88088 3.715,-6.88722 5.1293,-8.46383 6.5681,-7.32197 0.6707,0.53224 4.0344,2.07544 7.4748,3.42927 3.4404,1.35393 7.7473,3.21757 9.5708,4.14158 3.7475,1.89894 4.2803,2.00895 4.2803,0.88424 0,-1.48198 -10.3832,-16.58203 -17.2726,-25.11915 -3.768,-4.66917 -6.8518,-9.16944 -6.853,-10.00051 0,-2.58122 -1.5199,-2.64628 -7.0844,-0.30428 -6.7892,2.85762 -10.8311,2.9099 -14.0034,0.18123 -1.9075,-1.64078 -2.296,-2.57121 -1.8372,-4.39921 0.9211,-3.67027 4.6531,-7.44359 10.6634,-10.78126 7.7235,-4.2892 10.6475,-4.78588 14.5659,-2.4739 1.7366,1.02453 3.5366,1.86293 4,1.86293 1.3417,0 0.9792,-1.93925 -0.7213,-3.85758 -1.5175,-1.71191 -1.5042,-1.733 0.4468,-0.70918 1.1058,0.58032 2.0106,1.44311 2.0106,1.91726 0,1.12614 2.4181,1.11676 3.1157,-0.0125 0.2973,-0.48085 -0.7588,-3.79842 -2.3469,-7.37237 -1.9815,-4.45952 -3.0049,-8.32023 -3.2621,-12.30659 -0.2062,-3.19469 -0.6598,-6.1154 -1.0079,-6.49045 -0.348,-0.37506 -1.8929,-0.24271 -3.433,0.29418 -3.0044,1.04732 -8.2466,8.13918 -8.271,11.18947 -0.01,0.93991 -0.388,2.30089 -0.8455,3.02437 -0.9599,1.51772 -1.0526,1.3407 -2.7327,-5.21392 -1.2357,-4.82082 -0.5097,-9.39472 2.8051,-17.67296 1.5545,-3.882335 3.1056,-10.327664 3.9606,-16.457098 2.3028,-16.511074 4.943,-22.088876 8.6844,-18.347465 1.454,1.453921 3.8667,8.78599 7.8419,23.831794 1.3741,5.200783 3.895,13.24337 5.6018,17.872419 1.7068,4.62904 3.5995,10.02499 4.206,11.99096 0.6065,1.96596 2.0568,5.87466 3.223,8.6859 2.0774,5.00803 2.7398,10.92273 1.4364,12.82623 -0.3611,0.52733 -1.3725,1.2231 -2.2475,1.54614 -1.5044,0.55548 -1.4911,0.78317 0.2415,4.17956 1.9773,3.87581 5.0166,4.83189 7.158,2.25165 0.6119,-0.73723 1.4528,-1.34043 1.8687,-1.34043 0.4158,0 0.5246,0.6032 0.2417,1.34043 -0.2829,0.73724 -0.1086,1.34043 0.3875,1.34043 1.5678,0 2.8787,-5.20641 1.9354,-7.68737 -0.4723,-1.24231 -0.8588,-3.61085 -0.8588,-5.26334 0,-1.675 -1.3371,-5.56984 -3.0216,-8.80153 -2.7971,-5.36638 -2.8967,-5.82963 -1.3404,-6.23667 2.7361,-0.71553 2.0717,-5.7669 -1.885,-14.331 -3.9991,-8.656326 -12.0526,-38.069585 -11.2734,-41.173845 0.7145,-2.847254 24.5115,-24.211761 26.8333,-24.090497 1.0215,0.05362 2.3828,-0.650377 3.025,-1.563836 1.4794,-2.104209 2.5899,-2.112162 3.2529,-0.02323 0.2859,0.900591 1.9685,4.017093 3.7393,6.925561 1.7707,2.908467 4.3533,8.706189 5.7392,12.883867 1.3857,4.177677 4.0816,11.416005 5.9907,16.085173 3.7971,9.286597 5.8393,10.905838 6.1985,4.914915 0.3215,-5.360206 1.1706,-33.749465 1.2763,-42.670392 0.051,-4.30055 0.2945,-7.819182 0.5413,-7.819182 0.2467,0 5.0446,4.121826 10.6621,9.159613 18.0763,16.210906 22.9628,20.294753 29.7032,24.823802 9.728,6.536568 10.3545,5.921936 4.1352,-4.056681 -2.199,-3.528193 -6.7806,-13.011922 -10.1812,-21.075063 -10.8476,-25.7201033 -12.5684,-29.4769744 -17.5164,-38.2409813 -2.6673,-4.7242156 -7.0654,-11.8066067 -9.7736,-15.7385387 -11.1566,-16.197859 -11.1793,-16.291779 -6.8755,-28.485413 4.4882,-12.715866 3.7392,-20.196633 -2.7718,-27.683835 l -2.9963,-3.445712 -7.2135,7.467005 c -15.6808,16.231996 -25.1784,26.954552 -38.4769,43.439621 -15.553,19.279868 -20.7562,24.4292683 -26.8924,26.6141711 -11.2796,4.0161998 -14.3698,5.5841468 -20.3112,10.3055922 -3.5278,2.8033777 -8.9907,7.4902397 -12.14,10.4152397 -5.1564,4.789182 -26.2443,22.680363 -50.4071,42.76583 -4.9149,4.085545 -11.2484,9.08017 -14.0745,11.099217 l -5.1383,3.670905 0.023,-9.208852 0.023,-9.208762 3.328,-1.563032 c 1.8304,-0.859663 9.7621,-7.240205 17.6259,-14.178991 30.2855,-26.722657 52.0777,-45.1698493 58.0854,-49.1696065 3.4404,-2.2905287 9.4724,-5.2733455 13.4043,-6.6283425 8.5935,-2.961459 12.2972,-6.409227 28.2921,-26.337238 11.6836,-14.556457 28.2614,-33.377987 41.5082,-47.125896 l 8.8383,-9.172838 6.8221,0.0134 c 6.1556,0.01162 7.5174,0.361201 13.9392,3.575377 8.5653,4.287145 17.6098,12.864296 27.1734,25.769431 6.7524,9.111715 16.5876,19.81756 18.2061,19.81756 1.8799,0 31.1163,-30.647171 63.7598,-66.836396 25.4154,-28.17596 26.6947,-29.44686 32.534,-32.32155 3.8462,-1.8935 7.4996,-2.91347 11.8217,-3.30041 10.7672,-0.96395 10.3,-0.55029 36.182,-32.03157 3.6367,-4.42342 12.0683,-14.27559 18.737,-21.89371 6.6687,-7.61812 14.3219,-16.46496 17.0073,-19.65966 2.6853,-3.19469 8.1226,-9.42769 12.0828,-13.85112 3.9601,-4.42342 10.1602,-11.60625 13.7779,-15.96176 l 6.5775,-7.91918 4.5626,0.39954 c 3.6742,0.32161 8.8962,2.64458 26.8207,11.93073 24.6608,12.77601 28.7864,15.80368 35.2015,25.83306 10.5307,16.46371 23.0043,33.40783 34.5117,46.88059 6.95012,8.13713 15.4271,18.41395 18.83769,22.83737 3.41068,4.42343 10.84927,13.6724 16.53029,20.55328 5.68092,6.88088 13.05946,16.02173 16.3966,20.31299 6.31799,8.12444 9.75691,11.41055 11.94118,11.41055 1.69172,0 11.54281,-7.47085 24.83426,-18.83377 16.48873,-14.09625 37.18731,-30.5596 40.62525,-32.31262 11.65032,-5.94061 30.83439,5.59059 43.00747,25.85093 13.64657,22.71254 32.29411,48.790984 41.44139,57.955422 2.967,2.972451 9.81795,9.403393 15.22435,14.290784 16.5781,14.986824 27.31048,25.70518 29.56473,29.526123 3.44795,5.844102 3.68002,10.653658 0.84063,17.417831 -4.97631,11.8550412 -6.00477,16.075344 -5.59308,22.951309 0.24172,4.03863 0.90086,7.071668 1.74765,8.042587 4.11664,4.720015 3.99002,5.362708 -2.30885,11.721892 -3.79092,3.827288 -6.35159,7.305081 -7.23922,9.832241 -2.87004,8.170911 -0.98674,17.599057 4.55604,22.807615 2.46773,2.318856 2.49659,2.441729 0.80363,3.410861 -3.28316,1.879463 -21.06479,18.727432 -22.28368,21.113578 -1.97089,3.858654 -2.45532,7.629647 -1.51675,11.806877 1.7255,7.67977 7.31438,8.46607 14.54306,2.04603 6.26383,-5.56314 15.17895,-12.078623 15.74827,-11.509297 0.25209,0.25209 0.69739,1.92745 0.98951,3.723002 0.70382,4.325835 4.0422,6.815025 9.04737,6.745945 5.16308,-0.0715 8.16698,-3.13768 11.81573,-12.061737 1.59475,-3.900476 3.3744,-7.273984 3.95472,-7.496674 0.58022,-0.22269 5.04386,2.233694 9.91901,5.458504 10.75392,7.113578 19.55465,11.342637 24.84516,11.938947 5.51712,0.62188 5.21132,-0.6703 -2.40822,-10.175476 -3.49665,-4.362031 -8.20085,-10.544815 -10.45376,-13.739509 -2.25299,-3.194694 -5.08398,-7.014923 -6.29118,-8.489397 -1.20719,-1.474474 -3.31104,-5.035821 -4.67533,-7.914084 -2.04854,-4.321908 -2.31046,-5.606309 -1.50405,-7.376125 1.2197,-2.676841 0.74474,-3.148315 -3.99681,-3.967229 -2.09358,-0.361649 -5.10651,-1.188248 -6.69546,-1.837017 -2.741,-1.11917 -3.03849,-1.037046 -5.80853,1.60262 -4.31306,4.110119 -9.60249,7.427955 -11.842,7.427955 -2.65807,0 -4.89311,-2.663169 -5.53026,-6.589292 -0.83124,-5.122502 2.16176,-8.493061 15.6431,-17.615946 13.17653,-8.916638 11.62092,-8.695377 18.30734,-2.603386 4.13952,3.771438 10.57359,8.205405 11.11754,7.661458 0.56763,-0.567628 -1.30549,-6.026757 -5.30007,-15.447039 -4.29438,-10.127226 -8.38091,-26.0295647 -9.12628,-35.514456 -0.5275,-6.712253 -1.83004,-10.460903 -2.62778,-7.562444 -1.8422,6.694381 -8.41969,26.1586927 -9.78917,28.968773 -2.17006,4.452644 -5.81934,9.383018 -6.94513,9.383018 -2.69203,0 0.32278,-18.65335094 5.41606,-33.510779 1.51647,-4.423423 3.74838,-13.270269 4.95995,-19.659657 1.21148,-6.389389 2.83153,-13.522091 3.59995,-15.850509 1.53042,-4.636909 4.81162,-7.830442 8.04536,-7.830442 1.84908,0 2.36238,0.949383 4.71063,8.712803 1.44946,4.792041 3.92452,14.141549 5.49997,20.776683 1.57545,6.635134 3.66688,14.677721 4.64745,17.8724152 2.13129,6.943076 11.05517,29.1020118 12.86734,31.9508748 0.70489,1.108 10.74686,10.29049 22.3155,20.405473 11.56872,10.114982 21.22001,18.875683 21.44734,19.468154 0.22734,0.592559 0.30223,7.410975 0.16639,15.152144 l -0.24708,14.074795 -18.31923,-18.392056 c -10.07557,-10.115608 -19.81925,-19.380847 -21.65252,-20.58938 -3.33883,-2.201077 -6.94334,-2.916331 -6.94334,-1.377874 0,1.926468 3.50505,8.707888 5.34993,10.35072 1.10389,0.982983 3.23249,3.596824 4.7302,5.808535 1.4978,2.211712 4.69741,6.139443 7.11036,8.728352 6.0281,6.467848 10.74347,16.722415 11.22298,24.406664 0.30991,4.96665 0.0179,6.56239 -1.87964,10.27663 -1.23561,2.41841 -3.68985,5.7828 -5.45394,7.47657 -1.7641,1.69377 -3.20354,3.50335 -3.19872,4.0213 0.009,0.51794 1.51281,1.79948 3.35108,2.84788 1.83827,1.04839 8.44749,6.6782 14.6871,12.51069 l 11.34479,10.60459 0.0447,231.00088 0.0447,231.00097 -19.43241,0.0742 c -16.33878,0.0626 -21.99317,0.46058 -35.51758,2.50178 -29.44043,4.44353 -49.18704,9.76871 -77.2982,20.84541 -28.19945,11.11146 -40.75652,14.67584 -65.23432,18.51671 -38.09022,5.9769 -46.14791,8.02445 -66.73935,16.95932 -7.28185,3.15966 -25.10252,11.74119 -39.60152,19.07013 -32.70276,16.53047 -41.19735,19.4997 -81.31949,28.42411 -36.3302,8.08093 -63.4061,18.93895 -82.5514,33.10481 -6.6575,4.92599 -7.7358,6.06 -6.7021,7.04816 0.6775,0.6477 7.2638,3.19899 14.6361,5.66949 l 13.4043,4.49188 23.4812,1.56937 23.4811,1.56938 3.7743,-1.84479 c 2.0759,-1.01462 7.0204,-4.84137 10.9879,-8.50387 8.2964,-7.6586 12.8752,-10.95356 20.6897,-14.88871 6.22859,-3.13652 34.70194,-12.90853 36.17838,-12.41641 0.52268,0.17425 -3.82961,3.91727 -9.67192,8.31782 -5.84223,4.40054 -13.03507,10.44205 -15.98402,13.42558 -5.84084,5.90933 -10.75254,13.94182 -9.89364,16.17999 0.6939,1.80824 4.0246,1.40414 27.76605,-3.36931 25.18447,-5.06353 32.17482,-6.94504 61.57289,-16.57318 35.07721,-11.48803 41.15972,-14.88531 64.31925,-35.92383 22.46571,-20.40824 30.93179,-25.82644 49.25754,-31.52426 9.78827,-3.04331 9.73385,-2.13244 -0.31331,5.24815 -3.75964,2.76182 -9.80936,7.8619 -13.4439,11.33361 -6.88803,6.57938 -22.43444,26.47245 -22.43444,28.70686 0,1.05 2.0338,1.28618 11.07554,1.28618 23.49079,0 40.29756,-2.91642 58.34968,-10.12534 22.52881,-8.99653 43.32721,-14.74653 71.32006,-19.7173 21.32188,-3.78627 27.24721,-4.42727 41.55336,-4.49563 l 13.85112,-0.0661 0.24226,17.64901 0.24235,17.64902 -9.17855,0.0179 c -17.31069,0.0331 -47.96045,3.97545 -66.73426,8.5834 -5.11518,1.25554 -17.32534,5.06326 -27.13381,8.4617 -27.4792,9.52099 -31.62792,10.23249 -56.94929,9.76602 -35.4049,-0.65207 -48.96578,-0.37433 -59.8726,1.22623 -36.95684,5.42365 -54.46788,11.28455 -113.04302,37.83519 -29.43242,13.34095 -37.52612,15.71968 -84.25932,24.76384 -16.9017,3.27101 -35.989,8.97186 -49.5418,14.79702 -4.2903,1.84398 -14.7457,7.17792 -23.2342,11.85307 -20.3216,11.19251 -21.1467,11.58973 -31.701,15.2634 -6.4314,2.23861 -15.4374,4.21396 -31.0811,6.81708 -44.2796,7.36826 -72.2566,15.00711 -101.2373,27.64183 -7.7292,3.36967 -20.5653,8.96785 -28.5247,12.44037 -15.0998,6.58786 -26.4483,10.39325 -46.7414,15.67348 -6.6352,1.72647 -14.8788,4.21003 -18.3193,5.519 -6.5501,2.49213 -17.0339,5.93945 -21.2235,6.97873 -1.8464,0.45807 -2.4574,0.28167 -2.4574,-0.70971 z m -21.4838,-149.26854 c 7.1062,-0.73965 16.1541,-1.73407 20.1064,-2.20983 3.9523,-0.47585 11.3078,-1.32917 16.3456,-1.89626 5.0378,-0.5671 9.1596,-1.35196 9.1596,-1.74399 0,-1.9716 -75.1001,-3.91701 -105.4472,-2.73153 -20.7503,0.8106 -24.7973,1.12086 -31.0534,2.38087 -2.623,0.52831 -2.5519,1.62469 0.1863,2.87227 2.4531,1.11775 18.2193,3.43696 31.5256,4.63754 11.6684,1.05268 43.1824,0.35557 59.1771,-1.30907 z m 105.7409,-30.52823 c 14.3467,-0.9349 10.4645,-2.3563 -11.4995,-4.21047 -24.2897,-2.05041 -89.4574,-2.43556 -111.1832,-0.65699 -13.2654,1.08593 -15.0843,1.37528 -14.2006,2.25899 0.3312,0.33108 24.985,2.26157 45.0305,3.52604 7.7822,0.49087 81.5472,-0.24601 91.8528,-0.91757 z m 117.2544,-7.41204 c 21.9856,-2.60875 30.8299,-4.4774 30.8299,-6.51405 0,-2.14165 -45.1058,0.87932 -76.8513,5.14707 -11.8847,1.5978 -13.4044,1.97062 -13.4044,3.28817 0,1.54025 41.583,0.19588 59.4258,-1.92119 z m -75.9577,-17.9163 c 16.316,-1.06814 55.6263,-5.18103 57.6385,-6.03051 2.5122,-1.06064 -11.1302,-1.85623 -42.8938,-2.50142 -41.1519,-0.83589 -87.2523,0.95734 -119.2984,4.6403 -11.7793,1.35384 -17.5308,2.8772 -11.5724,3.06521 1.4499,0.0456 11.4831,0.61794 22.2959,1.27145 21.8157,1.31862 70.411,1.08816 93.8302,-0.44503 z m 176.9829,-20.12523 c 23.1971,-1.51942 31.5733,-2.39776 48.3547,-5.07058 11.588,-1.84569 14.6783,-2.74154 13.5049,-3.91496 -0.3278,-0.32778 -25.0472,-0.65127 -54.9318,-0.71873 -47.4579,-0.10724 -55.8062,0.0777 -65.9528,1.45803 -15.0664,2.05023 -28.3699,4.28071 -29.4536,4.93824 -1.7195,1.04321 4.7542,2.01761 19.177,2.88657 32.0949,1.93379 45.0131,2.01234 69.3016,0.42143 z m 102.9438,-25.14238 c 5.0378,-0.29507 9.15958,-0.89058 9.15958,-1.32336 0,-0.43278 -0.93374,-0.78692 -2.07488,-0.78692 -1.1413,0 -8.0094,-1.00533 -15.2626,-2.23405 -15.3717,-2.60402 -22.7447,-2.74932 -42.0392,-0.8283 -17.7924,1.77142 -21.2653,2.37015 -21.7237,3.74534 -0.273,0.81909 1.786,1.13258 7.9724,1.21381 4.5873,0.0599 12.5628,0.41678 17.7235,0.79246 9.3628,0.68147 28.9044,0.4368 46.2449,-0.57898 z m 56.29808,-30.38775 c 7.49498,-0.9988 4.24961,-2.52868 -11.39366,-5.37084 -9.50831,-1.72746 -36.15224,-2.1942 -51.15982,-0.89612 -7.5218,0.65064 -8.7128,0.97395 -8.7128,2.36523 0,1.34508 1.2928,1.79618 7.8192,2.72832 4.3006,0.61427 11.0362,1.43059 14.96815,1.81414 7.34771,0.71668 41.70028,0.26272 48.47893,-0.64073 z m 124.43669,-21.04817 c 6.63514,-2.25916 21.7762,-7.96332 33.64679,-12.67583 42.76413,-16.97692 71.79796,-25.02951 97.52226,-27.04802 4.07134,-0.31947 7.60642,-0.91078 7.85556,-1.31389 1.10138,-1.78215 -30.32985,-15.5843 -45.19443,-19.84589 -18.47713,-5.29729 -43.234,-6.80296 -62.10664,-3.77707 -13.3969,2.14791 -31.49638,6.94308 -53.99623,14.30526 -50.72209,16.59686 -82.81899,23.69909 -119.05031,26.34278 -15.89063,1.15948 -21.96001,1.21416 -20.82449,0.18748 0.46692,-0.42214 3.86491,-1.24213 7.5511,-1.82218 11.30153,-1.7783 63.64108,-17.11364 81.7663,-23.95726 15.92387,-6.01237 29.16653,-13.04766 35.36871,-18.78971 2.91007,-2.69418 5.29103,-5.45842 5.29103,-6.14275 0,-1.4785 0.0999,-1.4734 -6.70215,-0.34208 -15.10183,2.51179 -29.7179,3.74927 -48.70233,4.12343 -19.15548,0.37756 -21.31411,0.26729 -24.57457,-1.25544 l -3.57449,-1.66938 6.70216,-1.91833 c 17.32847,-4.95978 33.25315,-10.76232 43.18547,-15.7355 5.98324,-2.99578 10.83069,-5.84911 10.77215,-6.3406 -0.15334,-1.28735 -14.57084,-5.57977 -22.39797,-6.66838 -13.09834,-1.82182 -23.01932,-0.72329 -48.57687,5.37898 -24.83211,5.9289 -65.61462,15.01363 -65.94222,14.68915 -0.6909,-0.68415 10.9556,-9.06247 21.95856,-15.79662 6.5061,-3.98197 13.41271,-8.70172 15.34794,-10.48843 3.16485,-2.92169 5.45957,-7.49944 4.32709,-8.63193 -0.2386,-0.23868 -2.19706,-0.009 -4.35202,0.51482 -9.28008,2.2471 -36.08177,7.2016 -46.36507,8.57081 -12.4021,1.65141 -43.6903,2.18534 -56.4364,0.96314 -6.3389,-0.60784 -7.8104,-1.03338 -8.157,-2.35898 -0.3408,-1.30326 0.2754,-1.72898 3.1735,-2.19241 1.9781,-0.31634 5.4477,-1.32166 7.7103,-2.23423 2.2625,-0.91248 7.5317,-2.757 11.7094,-4.09904 8.2187,-2.6402 15.8517,-6.33979 20.1065,-9.74529 3.0921,-2.47497 2.7355,-3.29121 -1.4721,-3.36976 -10.4182,-0.19436 -90.1519,2.12566 -96.3794,2.80437 -4.1777,0.4553 -11.6948,0.85314 -16.7047,0.88405 -8.3739,0.0518 -9.2188,-0.10062 -10.4704,-1.8875 -1.3009,-1.85739 -1.2104,-2.01136 2.0379,-3.46564 1.8697,-0.83706 9.3962,-3.61452 16.7257,-6.17215 16.434,-5.73454 19.1984,-7.90971 19.8369,-15.60861 0.4868,-5.86948 -0.5918,-7.66172 -4.6092,-7.65958 -1.5372,8.1e-4 -13.4513,1.99456 -26.4758,4.43057 -13.0246,2.43592 -28.8623,5.25995 -35.1951,6.27555 -6.3327,1.01551 -11.862,2.06149 -12.2873,2.3243 -1.5449,0.95484 -0.6754,2.70839 3.9505,7.96815 2.5936,2.94895 5.4395,6.50342 6.3241,7.8988 2.5415,4.00879 2.8399,10.88011 0.7436,17.12258 -0.9903,2.94895 -1.8832,6.16599 -1.984,7.14897 -0.4184,4.07822 -0.2822,4.15837 6.0544,3.55911 4.9028,-0.46361 9.8794,0.12091 26.5852,3.12276 11.3043,2.03129 24.9767,4.45282 30.3831,5.38121 17.9208,3.07745 30.1549,5.99896 52.2768,12.4837 24.0516,7.05031 43.8726,14.79219 43.5413,17.00658 -0.1718,1.14768 2.3048,1.36465 17.225,1.50853 17.8762,0.17238 37.41541,1.44775 46.91505,3.06226 9.81973,1.66892 17.4256,3.60558 17.4256,4.43709 0,0.45208 -4.32289,0.82222 -9.60642,0.82249 -16.42716,0 -41.66953,1.70476 -66.79813,4.50894 -29.5746,3.30041 -36.4934,4.34684 -62.5535,9.46076 -11.3043,2.21824 -23.2806,4.26427 -26.6141,4.54657 -6.889,0.58344 -8.2839,1.55159 -4.0153,2.78693 1.61,0.46594 9.5719,2.87925 17.6931,5.36289 15.6906,4.79848 47.5429,13.14194 61.6387,16.14576 31.607,6.73558 63.18779,10.10614 109.4685,11.68338 29.93361,1.02016 41.22934,2.12771 68.8088,6.74683 14.31929,2.39821 19.9155,2.95029 28.14905,2.7772 9.58042,-0.20142 11.09395,-0.49435 22.34052,-4.3237 z m -321.25667,-58.82848 c 31.0387,-1.70825 55.3938,-3.66974 56.278,-4.53253 2.6351,-2.57122 -6.4438,-7.26005 -24.7659,-12.79031 -12.8004,-3.86366 -24.2473,-6.21781 -39.5547,-8.13472 -6.3894,-0.80015 -18.6126,-2.6402 -27.1627,-4.08903 -8.5501,-1.44883 -15.7413,-2.4386 -15.9803,-2.19965 -0.2391,0.23905 3.1773,4.03283 7.5918,8.4306 8.8838,8.84997 12.0748,14.26612 11.8476,20.10897 -0.079,2.02369 -0.1057,4.00208 -0.06,4.39635 0.046,0.39426 3.4004,0.4981 7.4552,0.23073 4.0548,-0.26728 15.0128,-0.90649 24.3512,-1.42041 z m -57.9163,-3.18174 c 0.6442,-0.88111 1.1714,-2.10787 1.1714,-2.72626 0,-1.99214 -5.4905,-6.4371 -20.1065,-16.27757 l -14.2979,-9.62644 -11.2228,-1.95336 c -14.8721,-2.58864 -15.139,-2.5772 -15.139,0.64662 0,1.81066 1.7911,4.99874 5.899,10.50005 3.2446,4.34496 6.8705,9.81008 8.0577,12.14466 1.6883,3.32007 2.6351,4.2447 4.3461,4.2447 2.9652,0 4.2094,-2.54057 3.1144,-6.35874 -1.412,-4.92349 -1.1162,-7.04557 0.982,-7.04557 3.0611,0 5.4524,1.68483 12.0052,8.45803 4.6506,4.80723 7.5161,6.95898 11.1702,8.38824 5.8205,2.27659 12.1983,2.09724 14.0202,-0.39436 z m 389.79678,-38.2794 c 7.57594,-5.03645 15.29119,-13.20835 15.29119,-16.19626 0,-1.94496 -2.70642,-7.79791 -4.46238,-9.6503 -1.3768,-1.45249 -4.57945,0.4957 -13.21281,8.03759 -14.13556,12.34832 -17.34062,17.82317 -12.48451,21.32563 3.13929,2.26426 7.84805,1.15054 14.86851,-3.51666 z m 132.50859,1.58251 c 3.43812,-3.11141 1.30129,-8.05054 -6.16214,-14.24324 -2.83867,-2.35541 -7.25262,-6.44131 -9.80874,-9.07991 -4.05972,-4.19054 -4.87908,-4.67336 -6.47875,-3.81728 -2.39731,1.28298 -2.37426,4.88454 0.0599,9.44102 1.04036,1.94702 2.69347,5.1485 3.67377,7.11447 2.56344,5.14127 5.00293,7.54842 10.07316,9.93939 5.31892,2.5083 6.48769,2.59561 8.64248,0.64555 z m -690.96277,-7.97351 c 2.2603,-2.04201 4.2098,-4.99016 5.3957,-8.15992 2.8587,-7.64046 3.495,-8.59315 4.9394,-7.39436 0.6783,0.56299 2.0983,2.81026 3.1554,4.99383 2.6295,5.43205 6.2677,8.83665 11.2609,10.53802 5.2926,1.80333 7.8473,1.81074 9.63,0.0277 2.0791,-2.07919 1.7498,-4.29751 -1.8314,-12.33438 -5.7572,-12.92086 -5.3502,-12.39246 -12.1301,-15.75087 -6.3683,-3.15448 -12.3365,-9.17293 -12.3365,-12.44036 0,-0.80292 -0.626,-2.35362 -1.3911,-3.44598 -1.2732,-1.81781 -2.1179,-1.98607 -9.9688,-1.98607 -7.736,0 -8.8607,-0.21572 -11.4604,-2.19858 -1.965,-1.49878 -3.0829,-3.26672 -3.512,-5.5543 -0.7741,-4.12585 -2.8741,-8.3323 -4.16,-8.3323 -0.5263,0 -2.7999,1.62228 -5.0524,3.60496 -2.2525,1.98276 -7.1398,5.44742 -10.8606,7.69934 -10.779,6.5237 -28.9986,23.26301 -30.1009,27.65533 -1.4628,5.82811 3.9119,11.08313 11.3355,11.08313 4.7245,0 6.276,-0.98289 15.328,-9.7107 2.8133,-2.7125 5.3821,-4.66479 5.7084,-4.33835 0.3264,0.32644 0.086,2.40786 -0.5353,4.62529 -0.6209,2.21752 -0.9393,6.31852 -0.7075,9.11332 0.752,9.06846 6.804,11.67015 15.3899,6.61601 l 4.4172,-2.60026 1.6702,3.73248 c 2.5569,5.71408 4.888,7.75377 8.8614,7.75377 2.6632,0 4.1963,-0.70471 6.955,-3.19711 z m 88.4859,-6.15767 c 1.7064,-2.05623 -1.2372,-8.09487 -5.2896,-10.85088 -2.8707,-1.95239 -3.2782,-2.02146 -4.234,-0.71767 -0.6329,0.86342 -1.53,1.1668 -2.2341,0.75565 -3.3794,-1.9733 -13.2403,-9.67291 -13.2403,-10.3383 0,-0.42394 -0.6032,-0.77075 -1.3404,-0.77075 -1.8545,0 -1.8037,0.1772 2.3402,8.14213 7.0718,13.59287 18.6404,20.2356 23.9982,13.77982 z m 28.6111,-3.5929 c 1.3412,-1.61593 0.6467,-5.97224 -1.895,-11.88649 -2.0041,-4.66363 -3.4125,-19.2175 -1.9474,-20.12309 0.476,-0.29409 2.3846,1.45723 4.2413,3.89199 1.8568,2.43475 3.6343,4.42932 3.9501,4.43235 0.3157,0 2.6648,1.93219 5.2202,4.28697 8.2816,7.63179 15.7395,9.96816 21.8055,6.83129 2.1584,-1.11614 2.563,-1.77027 2.0725,-3.35108 -1.2102,-3.89967 -4.1801,-6.91037 -15.5721,-15.78572 -14.9582,-11.6538 -19.8514,-17.98251 -24.0686,-31.12982 -2.0988,-6.54318 -2.8034,-10.12991 -2.4353,-12.39801 0.2849,-1.75533 0.7321,-3.40558 0.9938,-3.66741 1.2037,-1.20371 8.207,3.32543 14.1075,9.1236 9.2595,9.09884 14.8584,10.50272 20.5677,5.15735 4.9563,-4.64048 2.502,-9.40179 -9.5262,-18.48106 -11.3525,-8.56929 -23.4265,-20.60216 -26.0472,-25.95843 -2.1176,-4.32843 -2.3219,-5.5275 -1.7893,-10.5013 0.809,-7.55413 1.3546,-8.33105 4.6269,-6.5892 1.4169,0.75413 4.3476,3.25144 6.5128,5.54956 5.8877,6.24918 11.7872,8.19138 15.9741,5.25869 2.6872,-1.88223 1.7184,-3.62515 -6.4281,-11.56417 -6.1842,-6.02657 -12.4162,-14.55484 -16.5205,-22.60744 -1.0768,-2.11279 -2.5358,-4.0632 -3.2421,-4.33424 -1.521,-0.58362 -10.2848,6.24409 -17.6786,13.77302 l -5.1924,5.28729 1.7889,3.04707 c 0.9839,1.67589 3.0728,6.46516 4.6418,10.64284 5.3554,14.25924 3.6514,27.90635 -4.1476,33.21696 -1.681,1.14455 -3.059,2.39284 -3.0624,2.7738 0,0.38104 2.3203,3.19594 5.1636,6.25534 7.3061,7.86145 11.3399,14.36567 13.6415,21.99549 2.7899,9.24942 1.7691,13.3792 -5.9207,23.95458 -1.3429,1.84676 -1.2709,2.1874 1.2268,5.80853 1.4594,2.11574 3.4999,4.60868 4.5345,5.53992 3.4493,3.10461 7.1752,9.90471 8.4714,15.46089 0.7051,3.02249 1.5497,5.92864 1.8768,6.45802 0.8442,1.36581 2.7612,1.19182 4.0558,-0.36809 z m 389.89463,-10.84721 c 1.57287,-0.79997 5.14226,-3.61488 7.93187,-6.25535 2.78953,-2.64056 5.5039,-4.80097 6.03194,-4.80097 0.52795,0 0.95993,1.03624 0.95993,2.30277 0,1.35374 1.07654,3.3794 2.61214,4.91491 3.01267,3.01275 8.1878,3.54276 12.5526,1.28556 4.08841,-2.11412 8.98617,-8.86185 12.07363,-16.63376 l 2.85565,-7.18856 1.47707,2.25434 c 2.32189,3.54365 6.13256,6.72745 9.30527,7.7745 5.77654,1.90645 10.48458,-1.27618 18.02853,-12.18702 l 3.0535,-4.41645 1.1509,2.68086 c 0.63295,1.47447 1.17118,5.49577 1.19611,8.93621 0.0894,12.34465 2.91535,16.54753 11.1027,16.51241 6.59447,-0.0286 10.94828,-2.41966 17.71791,-9.73144 l 5.97519,-6.45373 2.19608,4.30448 c 3.31283,6.49341 10.97375,12.78307 15.5792,12.79058 2.29768,0 8.67152,-3.00963 9.62331,-4.54961 1.28726,-2.08285 0.32537,-12.31579 -1.72415,-18.34156 -2.38105,-7.00054 -4.54585,-11.46069 -9.45736,-19.48514 -1.87634,-3.06565 -4.90339,-8.45669 -6.72682,-11.98023 -3.59352,-6.94397 -5.41481,-7.88737 -9.74691,-5.04887 -1.13945,0.74653 -4.2077,1.45026 -6.81823,1.56383 -4.4782,0.19472 -4.84191,0.0456 -6.43693,-2.64395 -1.03964,-1.75284 -1.70405,-4.59151 -1.72558,-7.37237 -0.0232,-3.04251 -0.40651,-4.52208 -1.17038,-4.52208 -0.62446,0 -5.0696,2.64887 -9.87808,5.88646 -11.00047,7.4066 -18.81108,11.56372 -25.2355,13.43139 -5.01303,1.45731 -5.02724,1.45597 -6.73629,-0.65467 -1.46187,-1.80538 -1.62719,-2.98335 -1.12864,-8.04294 l 0.58416,-5.92793 -3.43615,0.6284 c -2.20733,0.40365 -6.45704,2.86468 -11.88355,6.88177 -4.64611,3.43937 -11.2623,8.30772 -14.70274,10.81853 -10.34071,7.54654 -27.35829,22.64882 -31.93381,28.33957 -5.57476,6.93343 -7.87396,11.80375 -7.9761,16.89534 -0.0923,4.59821 1.0853,6.51905 5.05834,8.25062 3.61979,1.5776 6.2398,1.51897 9.65119,-0.2159 z m -54.37995,-12.41579 c 6.07654,-3.56108 12.11419,-9.30715 15.84551,-15.08021 4.58177,-7.08882 4.50537,-8.23445 -0.5225,-7.83455 -5.18559,0.41241 -8.12775,-2.16685 -7.32412,-6.42075 0.29266,-1.54865 0.78103,-4.27562 1.08539,-6.05991 l 0.55342,-3.24421 -3.90119,-0.0393 c -2.14567,-0.0214 -5.32035,-0.15021 -7.05487,-0.28569 -3.7398,-0.29203 -7.03485,1.77197 -22.4767,14.07891 -11.85415,9.44763 -16.32252,15.00595 -16.32654,20.30869 -0.009,6.56633 6.47812,8.81191 13.36106,4.62789 9.94046,-6.04258 11.17026,-6.39118 11.17026,-3.16628 0,1.54427 3.0434,4.75942 5.36172,5.66422 2.18678,0.85349 6.07725,-0.116 10.22856,-2.54879 z m -592.66668,-2.88523 c 0.7553,-0.86011 1.6668,-2.56916 2.0256,-3.79789 0.5166,-1.76883 5.0988,-10.12383 6.285,-11.45953 0.5704,-0.64242 5.5258,2.66862 8.4226,5.62767 3.9257,4.01012 7.201,4.17303 10.8351,0.53885 1.4367,-1.43667 2.6122,-3.46331 2.6122,-4.50367 0,-4.19876 -4.0885,-9.7007 -12.2285,-16.4562 -1.8824,-1.56223 -2.049,-1.5625 -4.6829,-0.009 -2.4079,1.42229 -3.2235,1.48163 -6.8902,0.50097 -6.378,-1.70593 -9.2624,-4.13899 -9.2624,-7.8132 0,-1.68671 -0.1565,-3.06682 -0.348,-3.06682 -0.1913,0 -3.7011,1.65588 -7.7994,3.67967 -7.6615,3.78341 -17.7539,12.42642 -23.2508,19.91201 -4.8874,6.65533 -2.7981,13.59903 4.3814,14.562 3.439,0.46129 4.4645,0.0831 10.9377,-4.03747 3.9286,-2.50053 7.1451,-4.06186 7.1479,-3.46957 0.013,2.60857 1.9209,7.59095 3.5979,9.39088 2.2081,2.37015 6.3109,2.56925 8.2168,0.39882 z m 860.19011,0.42116 c 2.18776,-2.63618 -7.35101,-16.40134 -14.86565,-21.45226 -2.30071,-1.54632 -7.33108,-5.97752 -11.17848,-9.84708 -3.84748,-3.86955 -7.13377,-6.89723 -7.30285,-6.72816 -0.89862,0.89863 2.90686,13.76159 5.91399,19.98994 3.43847,7.1218 9.39937,14.08543 14.14056,16.51912 5.24189,2.69078 11.70652,3.42927 13.29243,1.51844 z m -355.83371,-6.25302 c 7.3332,-5.66297 12.04565,-11.653 14.23529,-18.09457 1.4272,-4.19895 1.47733,-5.20105 0.42009,-8.40459 -1.25438,-3.80066 -2.6369,-4.52825 -4.45098,-2.34245 -3.13,3.77144 -13.5497,3.54008 -18.5745,-0.4125 -4.782,-3.76152 -7.3062,-2.49847 -24.5709,12.29497 -4.7867,4.10154 -9.1096,8.21685 -9.6064,9.14514 -0.4968,0.92838 -0.9033,3.30005 -0.9033,5.27049 0,4.30108 2.3239,6.36472 7.1674,6.36472 2.4397,0 5.2646,-1.37394 11.9469,-5.81068 4.8134,-3.19586 9.0675,-5.61551 9.4535,-5.37692 0.386,0.2386 1.1515,2.21949 1.7011,4.40198 0.8933,3.54776 4.3348,7.67924 6.3966,7.67924 0.3738,0 3.4271,-2.12163 6.7852,-4.71483 z m -282.9535,-10.02223 c 1.2756,-0.78835 -0.7841,-4.90839 -4.3979,-8.79769 -6.5176,-7.0143 -26.0413,-24.95007 -26.5765,-24.41488 -1.0281,1.02811 2.3422,12.34715 5.5919,18.77997 5.7141,11.31101 12.1904,16.22673 20.2779,15.39146 2.3463,-0.24226 4.6434,-0.67379 5.1046,-0.95886 z m 189.1919,-1.72352 c 3.4238,-2.26578 12.7788,-12.41168 12.7788,-13.85908 0,-0.35977 -1.8288,-1.96739 -4.064,-3.5726 -5.1119,-3.67109 -7.1031,-3.2812 -12.9129,2.52858 -6.3976,6.39761 -9.9582,14.82276 -7.3742,17.44911 1.2942,1.3155 7.9499,-0.14879 11.5723,-2.54601 z m -231.6648,-3.15672 c 1.5123,-1.67098 1.5025,-1.9077 -0.2281,-5.58513 -0.994,-2.11216 -3.4744,-8.08065 -5.512,-13.26339 -2.3818,-6.0583 -4.9623,-10.89439 -7.2263,-13.54309 -3.2868,-3.84516 -3.7514,-4.08903 -6.9673,-3.65768 -2.3974,0.32153 -4.7738,-0.12528 -7.8109,-1.46875 -6.3022,-2.78774 -8.4087,-5.06227 -8.4087,-9.07946 v -3.34982 l -6.4787,0.45056 c -5.1348,0.35709 -7.5871,0.0599 -11.8212,-1.4314 l -5.3424,-1.88197 -2.2534,1.78957 c -1.2394,0.98423 -5.2693,3.66903 -8.9555,5.96626 -11.3685,7.0848 -13.7042,8.67393 -18.175,12.36548 -2.3781,1.96364 -4.7532,4.37257 -5.278,5.35323 -4.4605,8.33435 -0.5682,16.56978 7.8314,16.56978 2.8749,0 5.1005,-0.95849 10.5836,-4.55809 3.8187,-2.50696 7.0171,-4.41707 7.1076,-4.2447 0.091,0.17238 0.7802,1.51979 1.5329,2.99426 1.1096,2.17364 2.0235,2.73493 4.8298,2.96646 5.1268,0.42304 6.9857,-0.30633 11.7898,-4.62565 l 4.3525,-3.91325 v 6.49028 c 0,5.1284 0.3571,6.88508 1.7023,8.37135 3.3224,3.67126 10.3013,2.03602 17.4592,-4.09082 2.0412,-1.74721 3.845,-3.02839 4.0084,-2.84708 0.1635,0.18123 1.5544,2.38901 3.091,4.90616 3.9817,6.52299 10.0765,11.06178 14.8538,11.06178 2.571,0 4.2286,-0.54413 5.3152,-1.74489 z m -141.4384,-30.09634 c 3.123,-2.77791 6.7917,-11.68946 9.307,-22.6078 1.31,-5.6862 2.5257,-10.50157 2.7017,-10.70084 0.176,-0.19937 2.4357,1.62978 5.0214,4.06472 5.2261,4.92126 13.2948,9.85682 17.4835,10.69459 2.1834,0.43662 3.2022,0.0831 5.0311,-1.74578 3.0925,-3.09247 2.8892,-5.02599 -0.9124,-8.67795 -3.7436,-3.5962 -12.7668,-15.02418 -18.0361,-22.84265 -3.9857,-5.91398 -8.4528,-10.17325 -10.6699,-10.17325 -0.7653,0 -3.9084,2.57962 -6.9846,5.73249 -10.2029,10.45697 -15.6708,12.59863 -19.3895,7.59444 -0.9447,-1.27127 -1.9422,-3.98564 -2.2167,-6.03194 -0.6937,-5.17192 -2.4143,-4.72207 -5.4231,1.41782 -2.6644,5.43705 -5.0105,7.50552 -23.2886,20.53263 -9.7954,6.98133 -14.781,12.45046 -16.7632,18.38893 -1.8187,5.44841 -0.5877,9.05318 3.8074,11.14908 2.9051,1.38538 3.3096,1.32024 13.9319,-2.24567 6.017,-2.01985 13.8318,-5.35118 17.3662,-7.40293 6.7115,-3.8961 8.3185,-3.98072 8.3185,-0.43796 0,4.53664 4.6342,11.88917 9.1424,14.50525 2.7043,1.5692 9.2119,0.88701 11.573,-1.21318 z m 370.8323,-1.12051 c 2.2875,-1.45071 5.3642,-4.58204 7.0337,-7.15844 l 2.9676,-4.57981 1.1703,3.36055 c 0.6437,1.84837 1.1764,3.44697 1.1838,3.5525 0.01,0.10563 0.8085,0.61749 1.7803,1.13758 3.0852,1.65114 7.5965,-1.01238 11.166,-6.59242 1.7338,-2.71035 3.1523,-5.3493 3.1523,-5.86438 0,-1.53542 0.7745,-1.13177 6.0072,3.13071 5.8716,4.78301 8.9797,5.07961 10.3353,0.98611 0.7513,-2.26908 0.4637,-2.94127 -2.6772,-6.25535 -4.5898,-4.84271 -6.235,-7.57451 -9.7676,-16.21913 -1.7045,-4.17115 -3.5206,-7.27818 -4.3562,-7.45243 -2.6606,-0.55512 -26.7837,17.02642 -31.5486,22.99339 -7.6534,9.58418 -9.0203,21.53975 -2.4628,21.53975 1.0723,0 3.7794,-1.16037 6.0159,-2.57863 z m 79.7075,-4.19412 c 2.5287,-1.26751 5.2327,-2.87603 6.0086,-3.57449 1.9801,-1.78223 3.5041,-1.5792 3.5041,0.46674 0,2.24031 3.2737,4.51877 6.4925,4.51877 3.3383,0 10.8007,-6.95898 13.7914,-12.86081 l 2.23316,-4.4068 4.2405,4.61251 c 4.76085,5.17854 6.3809,5.55359 12.32749,2.85423 l 3.7869,-1.71897 -1.76561,-4.11914 c -0.97119,-2.2656 -3.39978,-6.86971 -5.39694,-10.23152 -1.99724,-3.3618 -4.01673,-7.46146 -4.48785,-9.11037 -0.47112,-1.64891 -1.58984,-3.94507 -2.48605,-5.10266 l -1.62952,-2.10466 -3.68753,1.88125 c -2.28615,1.16635 -5.377,1.88125 -8.13315,1.88125 -2.445,0 -5.4004,0.36308 -6.5674,0.80676 -4.7529,1.80708 -17.0229,12.18649 -23.421,19.8122 -5.7635,6.86935 -6.7438,8.52389 -6.7438,11.38294 0,4.27571 2.1031,7.31742 5.0593,7.31742 1.2523,0 4.346,-1.03705 6.8749,-2.30465 z m 118.2529,1.35625 c 6.03123,-2.27382 9.93608,-8.56858 11.46891,-18.48786 0.32278,-2.08883 0.79729,-3.79788 1.05447,-3.79788 0.71642,0 9.55611,7.41866 10.36654,8.70002 1.5919,2.51688 6.22594,4.03139 10.70995,3.50031 5.33438,-0.63179 6.67616,-1.63747 7.41107,-5.55501 0.76923,-4.10038 -1.56196,-7.6435 -9.99524,-15.1912 -6.73665,-6.02935 -6.80269,-6.06268 -11.75567,-5.9323 -9.38025,0.24673 -15.40396,-4.36847 -15.40396,-11.80214 0,-3.01168 -1.09675,-3.47181 -6.50217,-2.7284 -3.58127,0.49256 -5.14368,1.23686 -6.88445,3.27976 -1.23847,1.45348 -8.74265,9.14407 -16.67595,17.09014 -11.53361,11.5522 -14.62169,15.16368 -15.40995,18.02183 -1.63086,5.91354 -1.27922,9.15613 1.16671,10.75875 1.93236,1.26608 2.62876,1.27841 6.54434,0.11564 5.58513,-1.65865 12.6106,-5.21401 16.09277,-8.14402 1.49261,-1.25598 2.94189,-2.28356 3.22061,-2.28356 0.27872,0 0.95716,1.70905 1.50754,3.79789 2.18258,8.28235 6.50118,11.13997 13.08448,8.65803 z m 168.21678,-16.52439 c 1.93282,-1.74614 4.79079,-5.16424 6.35115,-7.59578 1.56026,-2.43145 3.11543,-4.42092 3.45598,-4.42092 0.34047,0 2.20868,1.64605 4.1515,3.65786 4.30028,4.453 11.63253,8.83308 14.8056,8.84443 3.5525,0.0125 6.69134,-2.99988 7.82776,-7.51312 1.37206,-5.44885 1.23364,-7.5191 -0.78165,-11.69133 -1.93433,-4.00458 -2.13102,-9.4041 -0.58443,-16.04522 l 1.03124,-4.42816 3.53588,5.5517 c 4.75862,7.47157 9.16238,10.46779 15.29744,10.40792 6.05464,-0.059 7.86905,-1.5037 7.18409,-5.71971 l -0.51508,-3.17084 6.43764,6.11791 c 10.09791,9.59641 17.89735,12.5056 22.74372,8.48341 5.08372,-4.21914 2.36711,-9.5789 -11.10377,-21.90694 -5.27639,-4.82876 -13.42013,-12.4156 -18.09725,-16.85967 -4.67713,-4.44407 -12.22357,-11.20842 -16.76987,-15.03195 l -8.26599,-6.95175 v 5.26334 c 0,4.40251 -1.84828,13.28081 -3.24679,15.59601 -0.6637,1.09879 -5.99084,-2.63252 -10.72515,-7.51241 -5.89709,-6.07831 -12.61712,-15.83102 -14.28873,-20.73691 -1.63381,-4.79508 -9.16345,-14.28578 -11.61716,-14.64269 -2.37471,-0.34557 -3.11552,0.62562 -7.86475,10.31131 -6.29244,12.83257 -18.1095,25.24273 -25.43093,26.70702 -2.4823,0.4964 -2.72474,0.29963 -3.5945,-2.91821 -1.10845,-4.10083 -3.31605,-7.47183 -4.8932,-7.47183 -0.62366,0 -2.10886,1.05465 -3.30041,2.3437 -2.98943,3.23392 -10.06521,8.34427 -16.46434,11.89096 -12.12554,6.72048 -20.21513,12.89128 -29.22265,22.29137 -11.10172,11.58553 -15.39458,19.00446 -15.39458,26.60515 0,4.34844 0.31643,5.13447 3.2467,8.06475 4.59178,4.59178 8.89948,4.56104 16.79596,-0.11993 3.19469,-1.89385 7.27389,-4.58606 9.0648,-5.98288 1.7909,-1.39682 3.60049,-2.52412 4.02129,-2.50526 0.42081,0.0188 1.57572,1.32586 2.56657,2.90426 3.90834,6.22613 13.23953,4.96469 21.09258,-2.85136 3.41292,-3.39683 4.56721,-5.46315 6.66292,-11.92778 2.60321,-8.02999 3.95374,-9.80731 3.95374,-5.2032 0,4.54487 7.15504,8.30326 13.00978,6.83379 2.93563,-0.73679 10.12669,-8.14679 14.70301,-15.15072 1.95462,-2.99139 3.70209,-5.84785 3.88332,-6.34775 0.7048,-1.9438 1.78474,0.65154 2.13209,5.12421 0.32831,4.22691 0.009,5.2787 -3.25957,10.64355 -1.99314,3.27414 -4.43629,8.01409 -5.4292,10.53311 -4.34612,11.0263 -0.1604,19.62061 9.58578,19.68164 3.11106,0.0197 4.42888,-0.54859 7.30946,-3.15108 z m -566.43738,-4.21432 c 5.1577,-3.22105 1.0518,-9.0698 -17.0315,-24.26127 -12.1645,-10.21918 -21.6674,-19.50086 -22.4888,-21.96511 -0.3482,-1.04428 -1.6791,-0.50748 -6.0968,2.45889 -6.3079,4.23567 -9.7568,4.76622 -14.9533,2.30036 -3.7337,-1.77178 -5.6102,-5.60568 -5.6102,-11.46238 0,-5.05182 -1.2569,-5.69308 -6.9593,-3.55054 -12.4266,4.66899 -27.4775,18.68052 -33.8261,31.49013 -2.1783,4.395 -2.257,4.97559 -1.1916,8.7808 1.267,4.52557 4.0285,6.91743 7.9863,6.91743 2.847,0 13.3774,-6.601 19.4285,-12.17871 l 3.9194,-3.61282 -0.5501,5.73615 c -0.4716,4.91787 -0.2543,6.30736 1.5235,9.73993 3.1632,6.10754 8.3076,6.42183 15.1474,0.92517 4.0038,-3.21757 5.2443,-3.37923 5.2487,-0.68425 0.01,3.00739 3.2438,7.73894 6.0197,8.79439 5.9515,2.26274 11.7729,-1.33766 15.8059,-9.77567 l 2.5918,-5.42276 6.9557,6.27045 c 9.0342,8.14428 15.3746,11.742 19.4466,11.03487 1.6579,-0.28792 3.7432,-0.97869 4.6342,-1.53506 z m 161.9605,-24.43892 c 1.5729,-0.79469 3.7236,-2.23369 4.7793,-3.19773 1.8175,-1.65972 2.0698,-1.67509 4.7484,-0.28989 3.0505,1.57751 8.183,1.53122 8.7104,-0.0786 0.1783,-0.54439 -1.2438,-2.7561 -3.1604,-4.91491 -1.9165,-2.15872 -4.4814,-5.0982 -5.6998,-6.5321 -1.3737,-1.61692 -2.7352,-2.4076 -3.5842,-2.08178 -2.3252,0.89228 -10.5092,13.40368 -10.5198,16.08249 -0.012,2.83912 0.7767,3.00793 4.7261,1.01247 z m 125.5175,-2.79971 c 1.5866,-0.86011 5.9843,-4.37749 9.7728,-7.81641 3.7885,-3.43892 6.6172,-5.54662 6.2861,-4.68374 -0.3311,0.86288 -0.2211,2.57068 0.2444,3.79512 0.6744,1.77384 1.4677,2.22628 3.90372,2.22628 4.08358,0 7.60257,-4.04337 10.79896,-12.40819 1.33614,-3.49683 2.89766,-6.35785 3.46984,-6.35785 0.57228,0 1.99975,1.80824 3.17218,4.01826 2.93554,5.53365 8.86275,9.38605 14.441,9.38605 7.62106,0 7.98021,-3.34777 1.53971,-14.35262 -7.36728,-12.58835 -9.19965,-17.55393 -9.00323,-24.39808 0.0969,-3.37342 0.39837,-6.35579 0.67003,-6.62745 0.27158,-0.27166 2.61304,0.96565 5.20311,2.74949 7.7409,5.33134 15.95551,7.53135 17.08934,4.57668 1.56357,-4.07446 0.36343,-6.32621 -9.25076,-17.35662 -3.21481,-3.68842 -7.25263,-9.00841 -8.97285,-11.82215 -1.72022,-2.81383 -3.74481,-5.1242 -4.49911,-5.13421 -0.75422,-0.01 -5.11607,2.82474 -9.69284,6.29949 -4.69553,3.56492 -8.86838,6.1079 -9.57676,5.83606 -0.69041,-0.26496 -1.93245,-1.90154 -2.75994,-3.63695 -1.9262,-4.03916 -3.9237,-4.04605 -8.8245,-0.0304 -4.5533,3.73104 -15.2188,17.15734 -18.0407,22.71057 -2.8023,5.51462 -2.675,10.15054 0.344,12.52516 4.4326,3.48682 6.2717,2.70598 18.321,-7.77834 11.11689,-9.67309 14.73739,-9.8847 11.05237,-0.64618 -1.73354,4.34604 -3.37548,6.4607 -8.66737,11.16293 -11.5831,10.29246 -22.6114,21.81043 -24.2999,25.37875 -2.6495,5.59916 -2.8782,9.83045 -0.6517,12.05691 2.3002,2.30018 4.1509,2.37649 7.9311,0.32715 z m -71.5618,-3.35108 c 4.1537,-3.63346 5.0342,-4.02129 9.1307,-4.02129 4.384,0 4.645,-0.14593 7.8985,-4.41717 1.8506,-2.42949 3.5657,-4.4102 3.8114,-4.40162 0.2458,0.009 2.0554,2.03826 4.0213,4.51037 1.966,2.47212 4.6366,5.12268 5.9347,5.89004 2.1554,1.27412 2.6401,1.26233 5.5861,-0.13566 l 3.226,-1.53077 -1.4616,-2.86182 c -0.8038,-1.57402 -2.2815,-4.02728 -3.2837,-5.45171 -1.0023,-1.42434 -4.1019,-6.97364 -6.8882,-12.33179 l -5.0658,-9.74198 -10.1846,7.29042 c -14.8278,10.61425 -20.0387,15.39932 -22.7055,20.85005 -2.2415,4.58151 -2.2861,6.57071 -0.2072,9.2572 1.7502,2.26202 5.5061,1.19137 10.1879,-2.90427 z m -433.4854,-4.25783 c 6.8324,-4.03872 14.6777,-9.79766 16.8273,-12.35235 1.391,-1.65302 3.8919,-5.83025 5.5576,-9.28284 2.8391,-5.8844 6.2877,-10.99216 6.8883,-10.20175 0.1462,0.19248 1.0055,2.34343 1.9095,4.77998 2.2499,6.06384 4.8904,8.52835 9.1328,8.52415 8.8957,-0.009 15.6859,-9.35317 18.5046,-25.46488 0.7739,-4.42342 1.9407,-9.79766 2.593,-11.9428 l 1.1859,-3.9002 6.9558,7.64108 c 8.0205,8.81083 12.3379,12.07907 16.9433,12.82641 3.8959,0.63223 6.3262,-1.11274 7.1271,-5.11732 0.7225,-3.61255 -0.3861,-6.09843 -6.4947,-14.56379 -5.9298,-8.21773 -10.8217,-17.518 -12.9062,-24.53722 l -1.4075,-4.73958 1.9772,0.63438 c 1.0875,0.34887 3.3221,0.94063 4.9657,1.31487 1.6436,0.37434 5.7607,2.52395 9.1489,4.77703 6.7247,4.47159 10.1069,5.09936 13.3453,2.47703 2.9809,-2.41367 1.7713,-4.74504 -7.054,-13.59626 -7.7647,-7.78755 -14.6986,-16.23807 -17.0049,-20.72468 -1.901,-3.6978 -4.8617,-6.0776 -8.2439,-6.62646 -2.6182,-0.42483 -3.8184,0.0777 -8.3941,3.5122 -8.0799,6.06554 -12.1688,7.93258 -16.6646,7.60909 -3.4719,-0.24977 -3.8948,-0.52858 -4.1488,-2.73591 -0.3681,-3.1997 -2.8557,-4.5841 -5.2382,-2.91535 -0.9769,0.68425 -3.3513,3.95972 -5.2765,7.27881 -1.9252,3.31917 -7.4865,10.28012 -12.3583,15.46884 -14.05,14.96404 -15.7167,17.33437 -15.7167,22.35142 0,6.46356 2.3596,8.97642 8.429,8.97642 4.503,0 5.0529,-0.27273 11.7149,-5.81148 6.1589,-5.12036 10.8379,-7.57156 14.4839,-7.58782 0.7029,0 1.117,1.28261 1.117,3.46769 0,5.55815 -5.4377,12.72373 -15.6742,20.65471 -13.9708,10.82416 -27.2658,26.11767 -30.3815,34.94861 -2.0596,5.83767 -1.7153,11.19224 0.8872,13.79474 2.4282,2.42814 4.4585,2.725 7.2698,1.06323 z m 635.65249,-1.6339 c 2.69766,-1.99447 5.12938,-6.33702 10.83739,-19.35306 1.1315,-2.58033 2.29535,-4.69151 2.58631,-4.69151 0.29097,0 0.92588,0.89497 1.41112,1.98876 1.18851,2.67952 5.9054,5.71497 11.73717,7.55333 4.66819,1.47152 4.87399,1.46285 7.25138,-0.30428 3.92907,-2.92053 3.57966,-5.41079 -1.67581,-11.9453 -2.55754,-3.18004 -7.47675,-9.53672 -10.93148,-14.12609 -6.06474,-8.05652 -6.37563,-8.32104 -9.01789,-7.67495 -1.50512,0.36808 -4.34514,0.70489 -6.31111,0.74841 -3.39915,0.0751 -3.67778,-0.12895 -5.67994,-4.16552 -1.15804,-2.33459 -2.6058,-4.2447 -3.2173,-4.2447 -2.26122,0 -32.34836,22.19977 -37.06525,27.34855 -5.39291,5.88663 -9.8888,14.7736 -9.8888,19.54697 0,6.56123 6.00986,8.59609 13.43835,4.54996 2.19295,-1.19451 6.46124,-3.37172 9.48507,-4.83833 3.02384,-1.4667 7.12743,-4.1389 9.11923,-5.93838 l 3.62139,-3.27164 -0.18301,8.48422 c -0.17131,7.94303 -0.0402,8.63684 2.05104,10.8759 1.89421,2.02771 2.79158,2.32967 5.89941,1.98455 2.01601,-0.22385 4.95576,-1.36098 6.53273,-2.52689 z m -314.46099,-11.90589 c 2.5633,-1.18753 5.9387,-3.39808 7.5008,-4.91223 l 2.8404,-2.75289 3.5002,1.78447 c 4.0206,2.04988 5.8942,2.22985 7.4118,0.71222 1.9717,-1.97169 1.1112,-3.98234 -4.8311,-11.28938 -5.1063,-6.27903 -6.1335,-7.1361 -7.6071,-6.34739 -4.2679,2.284 -14.1917,18.82716 -14.1917,23.65754 0,1.67285 -0.1119,1.69055 5.3767,-0.85234 z m -41.8621,-2.00055 c 0.8988,-0.81337 1.6342,-2.15166 1.6342,-2.97388 0,-0.82231 -2.7768,-5.03144 -6.1705,-9.35371 -3.3938,-4.32226 -7.3922,-10.62443 -8.8852,-14.00491 l -2.7148,-6.14614 h 2.2023 c 4.5968,0 4.7895,-4.38518 0.8249,-18.76604 -0.6098,-2.21171 -1.6476,-7.53993 -2.3063,-11.84048 -0.6587,-4.30055 -1.4352,-7.81918 -1.7257,-7.81918 -0.9861,0 -4.3743,7.90479 -5.8169,13.57106 -0.79,3.10301 -2.6172,9.50661 -4.0605,14.23029 -1.4432,4.72359 -2.624,9.42055 -2.624,10.43767 0,1.66061 0.2956,1.76436 2.8983,1.01792 3.9787,-1.14106 3.9782,-1.14169 1.4217,1.62621 -1.2483,1.3516 -3.6054,4.46811 -5.238,6.92556 -1.6325,2.45746 -3.9034,5.60479 -5.0464,6.99411 -1.3928,1.69296 -2.0782,3.68234 -2.0782,6.03194 0,3.37475 0.111,3.50594 2.9663,3.50594 2.0682,0 4.422,-1.08611 7.7744,-3.58735 2.6444,-1.97303 5.1371,-4.08421 5.5394,-4.69151 0.5491,-0.82893 0.9618,-0.7132 1.6555,0.46405 1.6191,2.74762 10.65,13.06796 12.6783,14.48873 2.5346,1.77526 5.0306,1.73639 7.0712,-0.11028 z m 109.7623,-9.10018 c 1.7202,-1.26743 3.2617,-2.6226 3.4255,-3.0116 0.5453,-1.29458 2.2599,-0.73142 4.6006,1.51103 2.932,2.80909 7.0402,3.67841 9.3376,1.97588 1.6519,-1.22426 1.5331,-1.48332 -2.7923,-6.08743 -2.4847,-2.64485 -5.3772,-6.51146 -6.4277,-8.59243 -1.2899,-2.55495 -2.6808,-3.97706 -4.2837,-4.37928 -2.0175,-0.50642 -2.7868,-0.0768 -5.1274,2.86146 -1.5147,1.90154 -4.8651,5.83302 -7.4454,8.73675 -3.3536,3.77394 -4.6915,6.01416 -4.6915,7.85547 v 2.57595 l 5.1383,-0.57076 c 3.4595,-0.38426 6.1603,-1.32363 8.266,-2.87504 z m -262.4133,-6.18207 c 1.0576,-0.94394 3.5954,-2.51689 5.6395,-3.49549 l 3.7167,-1.7792 0.4959,2.47998 c 0.6042,3.0207 3.289,4.61063 6.4472,3.81799 1.2921,-0.32429 4.874,-2.95145 7.96,-5.8382 l 5.6106,-5.2485 0.6136,3.27011 c 0.3373,1.79859 1.7817,4.43844 3.2096,5.86626 2.2517,2.25175 3.1579,2.55996 6.8301,2.32306 3.5971,-0.23207 4.5158,-0.69238 6.1058,-3.0594 1.0295,-1.53238 2.3716,-5.01991 2.9825,-7.7501 0.9391,-4.19582 3.1696,-8.01659 3.966,-6.79322 2.0406,3.13464 11.2921,12.80317 13.19,13.78464 5.2035,2.69087 12.4535,1.01971 12.4535,-2.87067 0,-2.01869 -19.5358,-20.92815 -35.1414,-34.01487 -1.4227,-1.19307 -2.3906,-2.9116 -2.3906,-4.2447 0,-2.94582 -0.7729,-2.82947 -4.9775,0.7493 -5.7105,4.86049 -7.0698,5.30677 -14.1448,4.64379 -3.9442,-0.3696 -7.3593,-0.22439 -8.9504,0.3805 -3.6306,1.38038 -16.0024,13.61342 -21.1834,20.94585 -4.0025,5.66448 -4.3612,6.59635 -4.3612,11.32986 0,6.56838 1.5138,8.35812 6.5033,7.68889 1.9262,-0.25834 4.3674,-1.24204 5.425,-2.18588 z m 584.46485,-7.68514 c 7.95439,-5.25342 12.6862,-9.95753 20.5783,-20.45811 2.8628,-3.80906 5.35216,-6.92556 5.53169,-6.92556 0.17962,0 0.90863,1.39315 1.62013,3.09586 1.4424,3.45232 4.18814,4.61475 8.74632,3.70316 3.93157,-0.78629 11.768,-6.9487 13.51315,-10.6264 2.15667,-4.54486 5.95563,-19.34001 5.95822,-23.20465 0,-3.92389 0.59149,-4.11208 3.44714,-1.10156 1.63247,1.72102 3.00498,2.21859 6.12014,2.21859 5.18675,0 8.14607,-3.00981 11.44344,-11.63906 1.3415,-3.51067 2.77773,-5.99762 3.28325,-5.68521 0.49417,0.30544 2.00967,3.02142 3.3677,6.03551 5.08917,11.2951 13.19512,18.71859 21.71436,19.88628 3.65822,0.50141 4.364,0.29937 6.53389,-1.87052 l 2.43261,-2.43262 -0.49015,-10.63972 -0.49024,-10.63971 3.86321,4.29688 c 3.90137,4.33925 18.15159,14.77826 24.81246,18.17643 1.98651,1.01345 5.42016,1.90225 7.63027,1.97508 3.74364,0.12341 4.07071,-0.0509 4.78399,-2.54843 1.2853,-4.50063 0.15451,-6.33827 -7.40561,-12.03501 -3.98939,-3.00606 -11.43513,-8.94166 -16.5461,-13.19038 -5.11107,-4.24863 -12.20168,-9.71214 -15.75704,-12.14109 -8.18887,-5.5946 -15.04366,-12.20096 -19.17996,-18.48482 -1.77938,-2.7032 -5.7878,-7.45494 -8.90761,-10.55947 -7.57469,-7.53742 -9.5856,-7.86663 -17.79771,-2.91374 -9.21144,5.55564 -18.94449,7.92079 -21.61329,5.2519 -0.58979,-0.58979 -1.07235,-3.38092 -1.07235,-6.20262 0,-2.83179 -0.44976,-5.40819 -1.00389,-5.75063 -0.5805,-0.35879 -3.31328,1.78581 -6.48027,5.0856 -3.01204,3.13822 -11.16963,10.62729 -18.12799,16.64217 -13.13158,11.3513 -19.0419,18.51796 -20.8698,25.30617 -2.13656,7.93455 1.20353,11.12272 10.98099,10.48164 7.00733,-0.4595 13.31066,-3.05869 19.78378,-8.15786 l 3.49567,-2.7537 -0.5309,5.14422 c -1.0517,10.18987 -5.92033,16.56952 -25.49241,33.4048 -18.72064,16.10277 -23.86843,21.95831 -26.22795,29.8337 -1.5062,5.02734 0.5242,10.60818 4.60018,12.64438 1.72022,0.85931 3.88752,1.56303 4.81617,1.56384 0.92874,7.1e-4 4.95003,-2.15265 8.93621,-4.78534 z m -268.47125,-1.38601 4.8781,-4.32852 2.4984,1.84721 c 3.7619,2.7813 6.6074,1.34195 11.1907,-5.66056 2.082,-3.18102 4.1372,-5.90084 4.5671,-6.04418 0.4299,-0.14325 1.4715,0.79237 2.3147,2.07928 1.6354,2.49597 9.8344,6.79759 11.6376,6.10566 0.7517,-0.28846 0.8902,-1.55963 0.4549,-4.17374 -0.4807,-2.88631 -1.7695,-4.96237 -5.5517,-8.94282 -2.7169,-2.85923 -6.2771,-7.94331 -7.9392,-11.33764 -1.6575,-3.38468 -3.4902,-6.17903 -4.0729,-6.20986 -1.1204,-0.059 -19.0237,14.30803 -22.3353,17.92389 -3.9651,4.32941 -8.3289,12.68602 -8.3289,15.94979 0,3.69798 2.0981,7.1898 4.2954,7.14852 0.8322,-0.0152 3.7082,-1.97633 6.3911,-4.35703 z m -115.245,-5.88815 c 1.9438,-1.22704 4.1864,-3.22642 4.9836,-4.44309 l 1.4494,-2.21207 4.0634,3.10266 c 3.2013,2.44441 4.8893,3.10265 7.9562,3.10265 2.141,0 3.8928,-0.25281 3.8928,-0.56191 0,-0.30902 -1.3609,-2.0682 -3.0242,-3.90932 -1.6633,-1.84104 -4.7434,-6.65203 -6.8448,-10.6911 -2.1013,-4.03908 -4.4271,-7.57648 -5.1682,-7.86083 -3.4236,-1.3138 -16.6004,20.25231 -14.9701,24.50094 0.7084,1.84595 3.7574,1.43694 7.6619,-1.02793 z m -110.8041,-8.43748 c 0,-1.5264 -7.715,-8.72299 -8.5047,-7.9333 -0.6101,0.61016 2.2218,5.49702 4.6767,8.07002 2.4591,2.57738 3.828,2.5285 3.828,-0.13672 z m 189.4476,-3.30845 c 0,-1.26341 -1.0687,-3.56144 -2.3747,-5.10687 -1.3061,-1.54543 -3.3118,-4.92108 -4.4569,-7.50141 -1.1451,-2.58033 -2.6561,-4.69151 -3.3578,-4.69151 -1.3809,0 -7.7918,6.83173 -10.482,11.17026 -0.9144,1.47448 -1.6639,3.58566 -1.6658,4.69151 -0.01,2.71348 2.4298,2.61599 6.6789,-0.26755 1.8464,-1.25303 3.4317,-2.15783 3.5228,-2.01065 2.5021,4.04042 3.5221,5.11554 5.9848,6.30834 3.64,1.76285 6.1507,0.7048 6.1507,-2.59212 z m 199.628,-3.85893 c 3.76134,-1.42997 16.90007,-12.3014 19.75527,-16.34611 l 2.68033,-3.7969 0.52456,3.92639 c 0.63652,4.7646 2.53958,6.35025 7.62142,6.35025 2.78229,0 4.52181,-0.62259 6.58125,-2.3555 2.85717,-2.40411 7.40552,-10.62819 10.31149,-18.64459 0.89076,-2.45746 1.9211,-4.8159 2.28954,-5.241 0.36844,-0.42509 1.77196,0.98236 3.11901,3.12767 6.52209,10.38745 13.29189,15.96445 19.3787,15.96445 4.43611,0 5.88753,-0.71356 7.39999,-3.63838 1.964,-3.79798 1.63452,-5.44286 -2.15068,-10.73748 -4.34684,-6.08028 -11.3791,-20.00656 -13.94924,-27.62432 -1.84873,-5.47932 -2.13039,-5.82515 -4.97086,-6.10227 -2.11144,-0.20597 -3.36216,0.18624 -4.18581,1.31264 -0.9358,1.27985 -2.39696,1.59708 -7.18837,1.56089 -3.30756,-0.025 -7.04048,-0.34583 -8.29522,-0.71293 -1.95202,-0.57111 -3.5651,0.3327 -11.17025,6.25821 -13.36821,10.41577 -17.81246,14.60614 -23.70642,22.35195 -6.34266,8.33552 -9.25452,14.1605 -11.13756,22.28002 -2.3235,10.01883 0.38051,14.6191 7.09285,12.06701 z m -470.7501,-18.30814 c -0.2553,-1.0173 -0.1794,-2.29839 0.1688,-2.84681 0.9039,-1.42381 6.6473,-4.78927 8.1799,-4.7932 0.7104,0 2.4492,-1.10925 3.8643,-2.46086 2.4987,-2.38686 2.609,-2.40804 3.8354,-0.73831 0.6945,0.94546 1.5156,3.06709 1.8246,4.71475 0.3871,2.06346 0.8774,2.74654 1.5753,2.19527 0.5572,-0.44029 2.508,-1.28181 4.335,-1.87017 3.6115,-1.16305 6.9346,-4.59223 9.6965,-10.00596 1.6024,-3.1409 3.8008,-4.48464 4.5562,-2.78497 0.8763,1.97177 26.2065,17.05966 27.1151,16.15103 0.7606,-0.76065 -9.1122,-17.30077 -12.7354,-21.33564 -2.0848,-2.32172 -6.7972,-6.52424 -10.4721,-9.33896 -6.9104,-5.29292 -10.5494,-9.32592 -12.1037,-13.41415 l -0.9004,-2.36818 -3.7449,2.75396 c -3.0772,2.26301 -4.5935,2.75396 -8.5058,2.75396 -4.3683,0 -4.8391,-0.20267 -5.7085,-2.45746 -0.521,-1.3516 -0.737,-4.06597 -0.4798,-6.03194 0.6225,-4.75871 4.0709,-7.73866 11.8641,-10.25251 3.3767,-1.08914 7.1748,-2.70642 8.4403,-3.59396 2.2898,-1.60602 2.3297,-1.59503 8.4122,2.3185 3.3613,2.16274 6.7695,3.9322 7.5737,3.9322 0.8043,0 1.9381,0.47585 2.5197,1.05751 0.5817,0.58157 1.3271,0.78772 1.6567,0.45816 0.6216,-0.62161 -3.762,-11.23639 -6.8995,-16.70723 -4.1781,-7.28524 -8.1534,-16.56013 -8.9393,-20.85639 -0.464,-2.53645 -1.2728,-6.9471 -1.7974,-9.80141 -1.4961,-8.14089 -4.0858,-6.1365 -7.0641,5.46762 -0.8867,3.45456 -1.2359,3.8238 -3.3807,3.57448 -1.6581,-0.19266 -2.6484,-1.01194 -3.2282,-2.67059 -0.8802,-2.51795 -0.8416,-2.65441 6.1163,-21.63598 1.7816,-4.86041 4.4842,-14.51151 6.0056,-21.4469 2.7802,-12.67324 3.0836,-13.69724 3.8349,-12.94598 0.6025,0.60248 4.5524,16.6193 7.1687,29.06931 2.9519,14.04709 12.4546,39.62877 14.7205,39.62877 1.3818,0 2.7236,-3.18343 2.7236,-6.46186 0,-4.28232 -3.1833,-18.51636 -6.2491,-27.94254 -1.4387,-4.42342 -3.433,-12.19238 -4.4318,-17.26421 -4.3219,-21.94733 -9.2348,-32.33165 -15.2961,-32.33165 -1.5295,0 -8.6398,7.10241 -9.6395,9.62885 -0.5299,1.33927 -2.5785,8.81799 -4.5523,16.61947 -2.0901,8.26126 -4.5935,15.9111 -5.9948,18.31923 -5.145,8.84166 -6.682,12.5543 -7.175,17.3316 -0.7585,7.34922 2.9903,26.24885 5.6434,28.45065 1.8228,1.51281 1.5166,2.24987 -1.4443,3.47627 -3.5457,1.46876 -8.7162,7.30026 -10.95,12.35002 -1.4766,3.3383 -1.7178,5.29765 -1.3332,10.83283 0.5946,8.55731 3.4364,16.84636 6.681,19.48719 1.3556,1.10335 1.9804,2.00814 1.3882,2.01064 -0.5922,0 -3.005,1.77661 -5.3618,3.94266 -2.3567,2.16604 -6.2956,5.7592 -8.7531,7.98477 l -4.4681,4.04658 0.025,5.64286 c 0.029,6.28367 1.7979,10.24598 5.6088,12.55832 3.0522,1.85203 6.7731,0.38229 6.0748,-2.39964 z m 198.6798,-3.91013 3.5906,-3.41578 2.8712,2.96236 c 1.5791,1.62925 3.5842,3.18862 4.4558,3.46519 1.7723,0.56254 5.2266,-0.97145 5.2266,-2.321 0,-0.48113 -1.8399,-3.13366 -4.0886,-5.89441 -2.2487,-2.76084 -5.1473,-7.17864 -6.4415,-9.81723 -1.2941,-2.63868 -2.6609,-4.79758 -3.0374,-4.79758 -0.3765,0 -1.3599,1.30593 -2.1853,2.90203 -0.8253,1.5961 -2.8408,4.85031 -4.4788,7.23145 -3.0735,4.4681 -5.2782,10.69378 -4.3302,12.22768 1.1755,1.90198 4.9408,0.76458 8.4176,-2.54271 z m 189.4223,0.99263 c 1.76656,-1.33265 5.7102,-5.05235 8.76352,-8.26599 l 5.55153,-5.84294 0.034,3.62944 c 0.0223,2.38186 0.65985,4.30163 1.85569,5.58513 2.18375,2.34397 2.80472,2.38829 6.81342,0.48604 2.88174,-1.3675 9.23691,-8.47715 9.23691,-10.33365 0,-1.50253 3.78269,-9.6436 4.48088,-9.6436 0.37738,0 2.64011,1.62184 5.02823,3.60416 5.00847,4.1573 12.34921,6.68267 16.92803,5.82372 5.54671,-1.04062 3.69888,-4.68597 -9.59141,-18.92161 -5.19685,-5.56655 -7.87727,-9.21529 -8.64015,-11.76139 -0.6082,-2.03013 -1.52228,-3.94856 -2.03129,-4.26311 -0.50892,-0.31455 -2.43878,1.06734 -4.28848,3.07102 -4.45542,4.826 -8.47457,6.45006 -14.2655,5.76421 -6.66847,-0.78978 -9.03272,0.62669 -16.86012,10.10131 -8.58706,10.39397 -11.60906,15.5826 -12.78676,21.95367 -1.8681,10.10551 2.7174,14.3352 9.7718,9.01359 z m -64.9425,-2.62018 c 0.8514,-0.23583 2.8297,-2.21359 4.3962,-4.39492 1.5665,-2.18141 3.1682,-3.96615 3.5593,-3.96615 0.391,0 2.0876,1.20871 3.7702,2.68604 3.3447,2.93671 12.1106,7.14378 14.8847,7.14378 1.5165,0 1.1459,-1.02605 -2.8243,-7.81918 -7.8314,-13.40002 -15.8391,-23.45754 -18.6766,-23.45754 -1.3995,0 -9.9417,11.88194 -15.4752,21.52545 -2.2837,3.97991 -3.0147,7.89746 -1.7161,9.19616 0.6082,0.6082 8.8332,-0.0134 12.0818,-0.91364 z m -62.832,-4.53611 c 1.5804,-1.91735 2.7793,-2.71643 3.1573,-2.10474 0.3352,0.54242 2.1388,1.76642 4.0081,2.72 2.8648,1.46152 3.6502,1.54989 5.0005,0.56262 1.4938,-1.09236 1.2759,-1.69037 -3.2359,-8.87803 -6.5344,-10.40997 -7.5251,-10.4063 -14.4441,0.0527 -4.6345,7.00545 -6.0441,10.66179 -4.6485,12.05736 1.2907,1.29066 7.7878,-1.52845 10.1626,-4.40957 z m -113.7199,-9.69087 c 0.2952,-0.76941 -1.0853,-4.68695 -3.0705,-8.7128 -1.9838,-4.02326 -3.8589,-8.79332 -4.1671,-10.60022 -0.5011,-2.93867 -0.3451,-3.31578 1.4786,-3.57448 2.8103,-0.39874 3.0298,-3.64517 0.7119,-10.52578 -1.6222,-4.81546 -2.819,-11.43513 -4.9755,-27.51897 -0.6291,-4.69204 -1.8295,-4.8696 -3.0203,-0.44681 -1.6478,6.12086 -4.5889,28.7972 -4.4662,34.43586 0.094,4.31404 -0.4106,6.69563 -2.2601,10.66965 -2.8373,6.097 -2.8807,11.64728 -0.095,12.17594 0.9504,0.18042 2.2574,-0.39569 2.9042,-1.28038 1.1205,-1.5322 1.2306,-1.53399 2.3252,-0.0366 1.8926,2.5882 8.9506,6.69394 11.6131,6.75533 1.4711,0.034 2.7044,-0.51312 3.0219,-1.34043 z m -173.5215,-14.01716 c -0.3194,-1.10585 -1.3423,-3.01597 -2.2731,-4.24469 -0.9308,-1.22873 -2.8078,-3.92845 -4.1711,-5.99933 -2.6094,-3.96392 -4.7127,-4.94404 -4.7127,-2.19625 0,1.83827 9.4681,14.45092 10.848,14.45092 0.4988,0 0.6344,-0.88325 0.3089,-2.01065 z m 226.2355,-0.44681 c 2.1439,-1.3516 4.1416,-3.21864 4.4392,-4.14899 0.4838,-1.51218 0.7758,-1.39181 2.753,1.13472 1.2166,1.55445 3.4196,3.45081 4.8955,4.21396 2.4617,1.27305 2.8244,1.26018 4.3894,-0.15621 2.1735,-1.96685 2.1653,-4.3673 -0.025,-7.44377 -1.3728,-1.92781 -7.2048,-15.28216 -7.2048,-16.49767 0,-0.15817 1.2343,-0.32268 2.7428,-0.36558 2.8288,-0.0804 5.2998,-1.52353 5.2998,-3.09523 0,-0.4923 -1.4075,-4.01227 -3.1277,-7.82222 -3.7017,-8.19844 -4.0177,-10.78886 -1.227,-10.05904 2.2384,0.58532 2.2485,0.70864 -1.3674,-16.74958 -1.2725,-6.14365 -2.3152,-13.08038 -2.3171,-15.41496 0,-4.49197 -1.2314,-5.70077 -2.1348,-2.10171 -1.3981,5.57083 -5.1739,27.39207 -5.428,31.36958 -0.1968,3.08165 -1.4476,6.74361 -4.0274,11.79141 -4.7052,9.20653 -4.5888,11.33746 0.64,11.71573 2.0888,0.15111 3.7978,0.41937 3.7978,0.59613 0,0.99031 -3.7537,8.83157 -5.7153,11.93904 -3.4825,5.51659 -4.2723,13.55185 -1.3319,13.55185 0.5781,0 2.8054,-1.10586 4.9493,-2.45746 z m 272.86507,1.1971 c 0,-1.4701 -11.42851,-15.71843 -12.60764,-15.71843 -0.43815,0 -0.79667,0.77807 -0.79667,1.72906 0,3.25037 1.82612,6.53282 6.0516,10.8776 4.13943,4.25632 7.35271,5.61623 7.35271,3.11177 z m -193.91567,-3.30944 c 0,-0.48934 -1.6171,-3.57091 -3.5935,-6.8479 -1.9765,-3.27691 -4.0111,-7.57782 -4.5213,-9.55746 -0.5103,-1.97963 -1.1447,-4.34281 -1.4096,-5.25145 -0.3919,-1.34338 -0.1328,-1.54122 1.3863,-1.05912 1.4161,0.44941 2.099,0.0867 2.8214,-1.49887 0.7508,-1.64783 0.3603,-4.45711 -1.8402,-13.23881 -4.3825,-17.48977 -4.4882,-17.84918 -5.2461,-17.84918 -0.7271,0 -2.2082,6.07948 -3.2655,13.40431 -0.3193,2.21171 -1.3411,6.98624 -2.2706,10.61005 -1.7419,6.79098 -1.6471,8.15599 0.5662,8.15599 2.0321,0 1.5298,2.673 -1.8131,9.64842 -2.9356,6.1255 -4.2211,11.92349 -2.9299,13.21469 1.0023,1.00228 5.1946,-0.49891 7.3152,-2.61948 l 2.0242,-2.02422 3.0372,2.53815 c 4.3102,3.60191 9.7393,4.92581 9.7393,2.37488 z m -384.898,-9.694 5.3607,-5.32767 2.2288,1.75319 c 1.2258,0.96422 3.5277,1.75311 5.1154,1.75311 4.2757,0 6.7629,-2.28303 14.0055,-12.85554 0.3563,-0.52027 2.0772,0.0992 4.2255,1.52085 4.5055,2.98157 6.1051,2.99756 10.3697,0.10348 4.4729,-3.03545 6.2492,-5.26825 8.5774,-10.78198 l 1.9371,-4.58749 7.8188,3.47046 c 4.3002,1.90887 8.9086,3.47056 10.2408,3.47056 2.9479,0 7.758,-2.69543 7.4148,-4.15507 -0.1369,-0.58237 -6.3531,-7.28694 -13.8139,-14.89907 -9.7468,-9.94466 -14.3371,-14.00983 -16.3086,-14.44288 -1.5089,-0.33135 -2.7435,-1.17377 -2.7435,-1.87195 0,-1.7927 -1.5663,-1.58037 -2.1725,0.29435 -0.2781,0.86011 -1.919,2.52404 -3.6463,3.69754 -2.7064,1.83889 -3.8659,2.06802 -8.3887,1.65784 -6.0274,-0.54653 -6.0006,-0.56012 -16.6742,8.46465 -8.2277,6.95666 -22.7897,22.3726 -27.2521,28.85037 -6.2666,9.09652 -3.1088,18.83484 6.2071,19.14234 1.4694,0.0482 3.8128,-1.59449 7.4982,-5.25709 z m 430.7666,-0.25754 c 3.033,-2.58033 5.8048,-5.09364 6.1596,-5.58513 0.3831,-0.53072 1.2248,-0.0706 2.0728,1.13347 1.7534,2.48936 9.379,6.46231 12.4035,6.46231 1.844,0 2.326,-0.54725 2.8251,-3.20801 0.4718,-2.51483 0.1975,-3.72148 -1.2692,-5.58513 -4.2864,-5.44581 -9.3311,-15.09057 -9.7527,-18.64584 -0.4364,-3.67815 -0.3913,-3.7541 2.1234,-3.57449 2.2859,0.16336 2.5998,-0.13341 2.847,-2.69274 0.1529,-1.58198 -0.5373,-5.80434 -1.5337,-9.38302 -1.6354,-5.87359 -3.8548,-16.983 -5.1872,-25.96478 -1.1603,-7.82213 -2.784,-4.77756 -6.5647,12.30909 -1.4137,6.38939 -3.3783,14.02985 -4.3658,16.9788 -0.9874,2.94894 -1.8053,6.46758 -1.8173,7.81918 -0.019,2.10778 0.3382,2.45745 2.5099,2.45745 1.3926,0 2.7628,0.23092 3.045,0.51303 0.2822,0.28221 -2.2646,5.89808 -5.6596,12.47977 -4.044,7.83974 -6.1727,13.0046 -6.1727,14.97637 0,5.61257 1.2494,5.53911 8.3366,-0.49033 z m -257.4212,1.78724 c 5.6803,-3.17485 6.7365,-7.51588 3.3787,-13.88668 -2.3703,-4.49742 -8.0058,-10.85437 -8.0488,-9.07937 -0.019,0.76181 0.332,1.76714 0.7789,2.23405 1.2211,1.27583 3.6556,10.16735 3.6556,13.35105 0,1.53703 -0.5904,3.57529 -1.312,4.52932 -1.2906,1.70637 -1.8093,3.96866 -0.9099,3.96866 0.2524,0 1.3583,-0.50266 2.4575,-1.11703 z m 333.08499,-12.39317 c 8.16555,-7.60052 12.51069,-9.56881 12.51069,-5.6669 0,1.98178 4.16624,2.60169 6.63103,0.98665 1.18244,-0.77477 4.04756,-3.60675 6.36695,-6.29324 l 4.21709,-4.88462 2.33932,1.61665 c 4.0288,2.78425 16.37935,9.87925 17.1972,9.87925 1.59252,0 0.68424,-4.15695 -1.85489,-8.4894 -1.44016,-2.45746 -7.00992,-8.99206 -12.37728,-14.52134 -10.45858,-10.77421 -12.03394,-11.5748 -16.26407,-8.26599 -2.66129,2.08169 -10.39326,2.43234 -12.91845,0.58586 -3.62783,-2.65272 1.51513,-9.94547 11.22843,-15.92218 2.36667,-1.45625 5.05387,-3.67832 5.97153,-4.93806 l 1.66839,-2.29035 2.28428,2.1228 c 1.25634,1.16751 3.79342,3.0459 5.63803,4.17428 l 3.35367,2.05157 -0.53305,-3.28486 c -0.29319,-1.80663 -1.76543,-5.84017 -3.27172,-8.96337 -1.50629,-3.12321 -3.13446,-7.76521 -3.61809,-10.3156 -0.48372,-2.5504 -1.08691,-4.84459 -1.34052,-5.0982 -0.25361,-0.25361 -2.45326,1.50102 -4.88802,3.89923 -2.43485,2.39821 -4.67918,4.10815 -4.98739,3.79985 -0.30829,-0.30821 -0.53465,-2.72385 -0.5031,-5.36789 0.042,-3.51729 1.04973,-7.18954 3.7549,-13.68357 5.07326,-12.1788 6.19726,-16.01458 6.2431,-21.30544 0.0456,-5.22759 2.07133,-13.79071 2.93296,-12.39657 0.31848,0.51535 0.97637,3.69816 1.46205,7.07292 1.79913,12.50282 6.08431,30.71053 7.22778,30.71053 2.28946,0 1.42944,-15.58877 -1.45428,-26.36182 -0.78942,-2.94895 -2.05416,-7.7745 -2.81052,-10.72345 -2.52886,-9.85878 -5.27844,-12.76421 -9.47658,-10.01355 -3.14984,2.0639 -6.56669,10.14027 -7.26085,17.16252 -1.02918,10.41006 -2.93215,17.0014 -7.17292,24.84462 -5.12965,9.48722 -5.2762,12.83972 -0.95572,21.8552 l 3.0846,6.43648 -5.78486,5.1553 c -3.18173,2.83546 -6.80796,6.62262 -8.0584,8.41594 -2.10519,3.01936 -2.19598,3.5483 -1.2273,7.14897 1.58082,5.87582 3.07504,8.23837 6.8774,10.8733 l 3.46215,2.39929 -7.96904,8.26545 c -11.61989,12.05209 -15.44119,19.67646 -11.72459,23.39312 2.71385,2.71383 5.86574,1.64649 12.00009,-4.06338 z m 91.81569,-2.22467 c 6.16599,-3.58896 14.12448,-10.66564 16.87603,-15.00631 1.41022,-2.22458 2.82,-4.05945 3.13286,-4.07741 0.31276,-0.0179 0.85367,1.8775 1.20201,4.21208 1.82843,12.25449 6.77436,14.7241 15.2684,7.62392 4.04051,-3.37743 6.91707,-8.76615 8.00523,-14.99629 0.34342,-1.96597 1.19853,-4.48964 1.9002,-5.60819 l 1.27582,-2.0337 4.20905,3.4693 c 6.18626,5.09909 14.63554,9.98112 17.27413,9.98112 5.44099,0 9.72215,-2.88675 9.72215,-6.5556 0,-0.72133 -3.23589,-4.85397 -7.19088,-9.18374 -3.95498,-4.32968 -9.2832,-11.00324 -11.84047,-14.83008 -2.59892,-3.88913 -5.43786,-7.13119 -6.43684,-7.35093 -0.98299,-0.21625 -2.82688,-0.61052 -4.09761,-0.87619 -1.72326,-0.36022 -3.76715,0.47719 -8.04259,3.29505 -5.38058,3.54624 -6.12041,3.77796 -12.06022,3.77796 h -6.32799 l -9.29804,8.04258 c -21.7837,18.84244 -25.61984,23.6898 -26.50917,33.49809 -0.43412,4.78704 -0.27416,5.42062 1.92272,7.61749 2.77254,2.77264 4.86049,2.58319 11.01521,-0.99915 z m 236.88716,-6.94603 c 0.4007,-2.06659 -1.07484,-3.67895 -7.13064,-7.7913 -2.81491,-1.91163 -7.45566,-5.6291 -10.31257,-8.26099 -5.50631,-5.07255 -9.01109,-7.34413 -9.92339,-6.43174 -0.94536,0.94536 2.76603,6.87945 5.8332,9.32681 1.60432,1.28002 2.91687,2.74627 2.91696,3.25832 0,1.23078 7.00527,7.93991 9.77764,9.36443 2.83823,1.4583 6.51852,2.55718 7.64796,2.28364 0.4915,-0.11903 1.0274,-0.90613 1.19084,-1.74917 z m -743.34284,-15.82218 c 0,-1.10845 -7.8228,-12.48844 -11.2285,-16.33432 -1.2471,-1.40825 -2.5199,-2.30822 -2.8283,-1.99974 -0.3084,0.30839 0.1455,2.80123 1.0087,5.53964 1.0925,3.46582 2.8563,6.31397 5.804,9.37212 3.956,4.10422 7.2441,5.6576 7.2441,3.4223 z m 468.25724,-15.11417 c 2.82902,-2.82902 2.36345,-8.43792 -1.31005,-15.78071 -2.91302,-5.82284 -7.62616,-11.65675 -7.62616,-9.43968 0,0.55333 1.41156,4.21664 3.13688,8.14053 3.85106,8.75891 4.82063,14.40276 2.76727,16.10689 -0.78987,0.65556 -1.43605,1.54471 -1.43605,1.97606 0,1.41452 2.64405,0.82097 4.46811,-1.00309 z m 195.2867,0.89363 c 1.35321,0 3.74758,-1.62916 6.62906,-4.51064 3.72908,-3.72917 4.51064,-5.06192 4.51064,-7.69202 v -3.18138 l 5.38111,4.98193 c 6.37563,5.90272 10.83605,7.5435 15.36286,5.65126 5.95884,-2.49079 6.76766,-5.94669 4.22138,-18.03648 -1.63533,-7.7645 -1.74185,-9.5806 -0.81248,-13.85113 0.58836,-2.70311 1.12623,-5.22026 1.1953,-5.59353 0.0688,-0.37326 1.88009,1.52005 4.02443,4.20726 4.68221,5.86787 11.24737,10.55786 18.19036,12.99485 6.09262,2.13853 7.79997,2.21046 11.8915,0.50088 2.15238,-0.89925 3.09899,-1.87258 3.09899,-3.18638 0,-4.11343 -1.81217,-6.02372 -20.54095,-21.65315 -14.89683,-12.43161 -20.12675,-17.58226 -24.77545,-24.40005 -4.84262,-7.10223 -10.85383,-13.81395 -13.14257,-14.67423 -1.53337,-0.5763 -3.1174,0.504 -9.0094,6.14409 -9.89855,9.47541 -14.94581,12.79218 -20.24051,13.30092 -5.35225,0.51427 -5.98949,-0.63072 -3.88198,-6.9757 1.2492,-3.76116 1.32229,-5.00687 0.42126,-7.18221 -0.59962,-1.44748 -1.58421,-2.6318 -2.18812,-2.6318 -3.02732,0 -15.18298,11.61421 -20.99142,20.0566 -6.77249,9.84342 -7.62652,19.35637 -2.12628,23.68283 1.28315,1.00935 3.513,1.83523 4.95521,1.83523 h 2.62224 l -5.64697,6.6858 c -13.25373,15.69198 -14.92909,18.74522 -13.74603,25.05132 1.22507,6.5304 6.99884,9.37319 12.8349,6.31942 2.82071,-1.476 32.7831,-31.6802 35.96573,-36.25598 l 2.16614,-3.11427 0.55431,3.41005 c 0.86056,5.29399 -0.59533,10.8029 -4.66541,17.65384 -4.05275,6.8219 -5.39122,13.27724 -3.4895,16.83063 1.1777,2.20045 6.06107,4.69437 7.92311,4.04632 0.65457,-0.22788 2.14335,-0.41428 3.30854,-0.41428 z m -669.86734,-16.73198 c 5.5791,-6.76837 4.7367,-11.98408 -3.8669,-23.94296 -3.1762,-4.41502 -6.4239,-8.9321 -7.2171,-10.03795 -1.4023,-1.95525 -4.0395,-2.77488 -4.0395,-1.25554 0,0.41526 0.8653,1.52112 1.9229,2.45746 2.5948,2.29696 9.1744,12.59504 10.4508,16.35692 1.5691,4.62467 1.2706,6.61583 -1.634,10.90244 -1.4656,2.16283 -2.672,5.03824 -2.6809,6.38984 -0.025,3.78144 3.5983,3.33517 7.0647,-0.87021 z m 529.08614,-6.9462 c 1.42274,-0.73572 4.97631,-3.32624 7.89693,-5.7568 l 5.31007,-4.41904 0.49203,2.46005 c 0.69551,3.47752 4.07375,4.87175 8.35196,3.44687 2.34772,-0.78183 4.84378,-2.98729 8.71781,-7.70239 2.98549,-3.63373 6.08538,-7.02046 6.88865,-7.52598 1.49396,-0.94027 2.39115,-0.42268 9.96611,5.74884 5.54232,4.51547 17.61612,9.46041 17.61612,7.21483 0,-2.05676 -10.07834,-15.48413 -17.90307,-23.85217 -2.75744,-2.94895 -6.10208,-7.67397 -7.43251,-10.50005 -1.33051,-2.82607 -2.63475,-5.13832 -2.89837,-5.13832 -1.52746,0 -4.95369,2.57345 -9.0547,6.80117 -3.56733,3.67761 -5.29345,4.8159 -7.30303,4.8159 -2.20331,0 -2.76647,-0.47272 -3.46009,-2.90426 -1.15331,-4.04328 -0.75395,-10.9944 0.73473,-12.78816 0.68389,-0.82401 4.15114,-3.46037 7.70507,-5.85858 3.55402,-2.39812 7.17577,-5.30695 8.04848,-6.46392 l 1.5868,-2.10367 6.25034,2.99542 c 3.43767,1.64748 6.94666,2.99541 7.79783,2.99541 1.39056,0 1.42273,-0.24914 0.31741,-2.45745 -3.10301,-6.1995 -6.00692,-14.77164 -6.72503,-19.85188 -0.51267,-3.626847 -1.34937,-5.987883 -2.40581,-6.788924 -3.16833,-2.402053 -4.39339,-1.479122 -9.04862,6.816984 -1.53515,2.73582 -3.64454,5.74643 -4.68749,6.69027 -1.87026,1.69252 -1.9136,1.69243 -3.156,-0.009 -1.79126,-2.44969 -1.57161,-4.55041 0.92186,-8.817807 1.19987,-2.053451 3.46484,-7.553866 5.03323,-12.223034 2.57944,-7.678973 2.87817,-9.697126 3.12946,-21.14128 0.29105,-13.257669 2.45504,-23.7007 5.55305,-26.798704 1.2777,-1.277699 1.51299,-1.051881 2.59507,2.490789 0.65449,2.142724 2.42913,9.726704 3.94364,16.85333 1.51442,7.126626 3.702,15.370277 4.86112,18.319226 2.91017,7.403737 6.38769,18.889624 7.12091,23.51983 0.56351,3.55858 2.39579,5.64536 3.75946,4.28161 1.3163,-1.31622 0.0545,-17.326954 -2.01038,-25.505996 -1.18717,-4.702948 -2.57684,-11.56676 -3.08817,-15.252945 -0.97771,-7.048166 -5.60336,-23.799445 -7.68952,-27.846743 -1.70423,-3.306396 -5.52428,-6.110847 -8.32372,-6.110847 -5.67798,0 -12.33376,8.036153 -16.76352,20.239885 -1.53926,4.240678 -2.40384,9.259699 -3.03903,17.641504 -0.95188,12.56261 -2.33762,16.814547 -8.76454,26.892356 -5.14779,8.072256 -5.29792,10.727116 -1.44731,25.593926 l 1.53336,5.92059 -4.0372,3.72131 c -2.22046,2.04675 -4.67864,5.07317 -5.46261,6.72521 -2.06748,4.35703 -1.84854,11.66809 0.46147,15.40575 l 1.88688,3.05306 -5.28756,5.28755 c -11.05525,11.05525 -12.95857,23.22163 -3.63275,23.22163 1.40495,0 3.71845,-0.60194 5.14118,-1.33766 z m 75.82355,-39.73128 c -6.21978,-5.89307 -9.67792,-7.58809 -11.02719,-5.40497 -0.80203,1.2978 5.8021,8.95202 8.93272,10.35304 1.47447,0.65985 4.02549,1.2155 5.66895,1.23472 l 2.98809,0.0348 z m -469.48379,1.52631 c -3.6954,-5.94437 -10.6695,-21.03843 -12.9028,-27.92565 -4.1922,-12.92828 -6.6342,-10.41998 -6.6928,6.87426 l -0.038,11.34229 3.1277,3.23794 c 3.7529,3.88529 7.6062,6.36079 13.2374,8.5045 5.8622,2.23164 5.9041,2.20555 3.2689,-2.03334 z M -1042.04,127.4926 c -8.0554,-14.11885 -17.2397,-25.74513 -20.3373,-25.74513 -1.3575,0 0.2525,11.55166 2.1203,15.21265 0.9495,1.86141 2.8436,4.25917 4.2089,5.32839 5.3659,4.20189 11.5092,9.54753 14.5173,12.63213 5.2787,5.41293 5.0686,2.34808 -0.5092,-7.42804 z m -50.7282,5.96063 c -0.2866,-0.74707 -2.074,-3.66251 -3.972,-6.47875 -1.8979,-2.81634 -5.0051,-7.93544 -6.905,-11.37588 -1.8997,-3.44044 -5.1656,-8.77036 -7.2576,-11.84414 -2.092,-3.07379 -7.694,-12.322765 -12.449,-20.55328 -4.755,-8.230516 -8.9978,-15.412993 -9.4286,-15.96114 -1.0238,-1.302631 -28.8513,26.013033 -27.9637,27.44935 1.9576,3.16726 63.9227,39.82877 67.7313,40.0729 0.4212,0.0268 0.5313,-0.56208 0.2446,-1.30906 z M -1259.65,87.021855 c -19.7031,-30.371578 -21.8746,-33.481557 -31.3662,-44.921065 -5.2674,-6.348371 -12.9079,-14.473082 -16.9788,-18.054714 -4.0709,-3.581721 -8.7384,-8.173323 -10.3723,-10.203451 -3.2878,-4.0851875 -4.6251,-4.9485145 -4.6251,-2.985855 0,2.284363 16.8225,29.307633 24.8491,39.916967 4.2606,5.631688 13.7834,16.719555 21.1617,24.639716 7.3783,7.920251 16.311,17.574125 19.8504,21.453065 3.5395,3.879032 6.7094,6.778742 7.0443,6.443902 0.3348,-0.33493 -3.9685,-7.664767 -9.5631,-16.288565 z m 280.70164,-8.18074 c 0,-0.653505 -12.09105,-13.932978 -29.46564,-32.36203 -6.6483,-7.05174 -13.4952,-14.561729 -15.2154,-16.688904 -2.916,-3.60576 -12.9556,-12.043059 -14.3302,-12.043059 -0.3373,0 -0.2869,1.70905 0.1121,3.797888 0.399,2.088839 1.1884,6.813859 1.7542,10.500044 1.368,8.911365 2.1489,10.789667 6.0411,14.530632 3.28,3.152694 17.6602,12.944722 32.56738,22.176539 4.30394,2.665403 9.93375,6.151418 12.51069,7.74671 4.66729,2.889433 6.02577,3.417473 6.02577,2.34218 z m 89.11204,-39.8705 c 0.98871,-3.563312 2.66165,-9.49472 3.71782,-13.180906 1.05608,-3.686186 3.34304,-11.728773 5.08202,-17.8724154 6.84827,-24.1937096 12.53965,-40.8841336 14.75252,-43.2626836 1.18039,-1.268763 7.82758,4.39295 24.70602,21.042982 8.49128,8.3764436 15.47171,14.89245813 15.51192,14.48005215 0.58541,-5.99717835 -0.49087,-12.12580815 -3.11346,-17.72854215 -1.6104,-3.44044 -4.04471,-9.201345 -5.40963,-12.802011 -1.36491,-3.600667 -3.91888,-8.426219 -5.67547,-10.72345 -1.75659,-2.297231 -4.49134,-6.468831 -6.07734,-9.270153 -3.11471,-5.501666 -10.37493,-14.977621 -17.96446,-23.44709 -4.95012,-5.524006 -10.09121,-14.622674 -10.08442,-17.847216 0,-1.027306 1.56589,-6.37375 3.47485,-11.880862 3.06396,-8.83916 3.4214,-10.72479 3.04894,-16.08518 -0.46137,-6.64148 -2.42484,-13.9042 -4.14488,-15.33176 -2.56317,-2.12718 -10.8994,3.65848 -34.55319,23.98076 -6.63513,5.70067 -16.5982,13.90313 -22.14008,18.227808 -12.31793,9.612232 -17.20658,15.58144 -27.48777,33.562877 l -7.8837,13.7883 2.25299,4.084115 c 1.23919,2.246295 5.45994,9.311886 9.37945,15.701275 3.9196,6.389388 8.90913,14.98182 11.08787,19.0944416 3.73676,7.05361679 9.20143,14.5055204 9.91642,13.5227163 0.17872,-0.2457457 1.37304,-2.6585218 2.65387,-5.3617247 1.28092,-2.7032028 5.17621,-9.2865964 8.65624,-14.6297332 6.01621,-9.23718 6.35596,-9.588641 6.91019,-7.148967 1.68251,7.406329 3.48253,13.0102252 9.15389,28.4990859 3.42302,9.3483451 6.90805,20.2058381 7.74448,24.1277611 1.9472,9.130212 3.12275,12.939271 3.99323,12.939271 0.38176,0 1.50298,-2.915438 2.49168,-6.478751 z m -348.97628,-1.340431 c 4.4475,-3.438295 43.5068,-39.5066166 57.2357,-52.852843 l 11.3937,-11.075982 -0.054,9.735551 c -0.058,10.5967339 -0.1537,11.2961709 -4.3173,31.550264 -1.5571,7.574687 -2.6954,14.17926 -2.5296,14.676828 0.4309,1.292354 3.2971,-2.982281 9.84,-14.674683 10.3894,-18.5664012 15.793,-26.554745 30.3245,-44.82929 12.716,-15.991344 32.8237,-39.075981 34.6719,-39.804997 0.3682,-0.145213 4.0327,3.472074 8.1434,8.038387 8.3786,9.307328 20.4887,21.206246 21.6207,21.243689 0.4085,0.0134 0.461,-9.726973 0.1168,-21.64564 l -0.6258,-21.670303 3.0109,2.733496 c 1.656,1.503428 6.0269,5.116605 9.7131,8.029362 3.6862,2.912667 10.3213,8.541495 14.7447,12.508367 11.0797,9.936259 20.2182,17.574661 20.5861,17.206757 0.8759,-0.875927 -3.4737,-10.987425 -7.0579,-16.407681 -4.2614,-6.444257 -6.094,-9.000102 -17.9963,-25.099127 -10.9286,-14.781917 -38.9001,-42.037349 -41.9433,-40.869569 -0.6726,0.25808 -3.8369,3.55786 -7.0318,7.3327 -7.6579,9.048 -19.9949,20.976404 -23.6202,22.837816 l -2.8928,1.485287 1.0847,-2.474436 c 3.6405,-8.304237 32.6981,-51.045857 40.1304,-59.028747 2.8767,-3.08978 5.2304,-5.96027 5.2304,-6.37884 0,-0.67308 -2.8477,-7.58595 -10.5188,-25.53539 -2.0918,-4.89463 -2.3429,-6.84094 -2.8822,-22.34052 -0.6774,-19.46682 -1.5403,-22.69127 -7.4184,-27.72271 -1.9966,-1.70896 -4.072,-3.10721 -4.6121,-3.10721 -1.7857,0 -16.1567,15.62969 -34.9201,37.97888 -21.5274,25.6412 -46.0298,53.96567 -51.8718,59.96303 l -6.1814,6.34587 -8.163,0.56262 c -13.0298,0.89818 -16.41,2.84574 -27.2289,15.68939 -3.9791,4.72359 -14.1448,16.0278 -22.5908,25.120395 -8.4458,9.092591 -20.8204,22.563925 -27.4991,29.936296 -6.6786,7.372371 -15.6134,17.023476 -19.855,21.446898 -4.2417,4.423423 -7.6102,8.492347 -7.4858,9.042191 0.1245,0.549756 5.0519,6.286712 10.9498,12.748752 l 10.7235,11.749147 1.7345,-2.472112 c 4.4049,-6.278312 36.8706,-36.876513 39.127,-36.876513 0.4113,0 -1.2501,3.920761 -3.6917,8.712803 -2.4417,4.792041 -6.3627,12.935161 -8.7133,18.09582 -2.3505,5.16066 -6.0241,12.38058 -8.1635,16.0443358 -3.7764,6.46740165 -6.4419,12.040825 -6.4419,13.4697246 0,2.0816003 29.5537,33.0393936 31.5409,33.0393936 0.6626,0 2.6351,-1.105855 4.3834,-2.457457 z m 20.3739,-56.373887 c 0,-1.039907 4.0407,-6.990974 7.2056,-10.612194 1.3789,-1.577777 3.5945,-4.794811 4.9235,-7.148966 6.9043,-12.230719 9.6716,-16.601061 15.2645,-24.106939 5.1259,-6.879182 21.6441,-25.937433 35.4094,-40.854198 l 3.3772,-3.65973 -1.4981,4.02129 c -4.0055,10.751866 -13.9181,31.691099 -18.428,38.926925 -3.631,5.825513 -8.0065,11.00771 -15.5972,18.47275 -15.9117,15.648103 -30.6569,27.653809 -30.6569,24.961062 z m -5.361,-45.05207 c 0,-2.489806 5.6585,-12.817382 11.5085,-21.010633 6.8182,-9.549053 17.9215,-22.909934 18.5319,-22.299684 0.7488,0.74886 -11.9648,27.378041 -15.1296,31.689315 -6.2348,8.493597 -14.9132,15.257145 -14.9108,11.621002 z m 123.3189,97.75961 c 0,-0.419108 -2.436,-7.344133 -5.4134,-15.389043 -2.9772,-8.044911 -6.1688,-17.3534902 -7.0922,-20.685802 -1.9125,-6.9013438 -5.164,-13.205838 -6.811,-13.205838 -1.7976,0 -4.8111,4.957629 -4.8111,7.9150669 0,3.8864461 1.0692,5.9549994 11.7201,22.6748231 5.2386,8.223366 9.7789,15.964356 10.0896,17.202199 0.5213,2.077401 2.318,3.231154 2.318,1.488594 z M -767.18865,3.672595 c -0.0152,-0.3686186 -0.62956,-1.4654487 -1.3642,-2.4373507 -2.04175,-2.7010581 -31.67144,-32.5121573 -31.67091,-31.8648183 0,1.817356 4.08242,10.872237 6.09575,13.525486 4.66934,6.153115 12.33295,13.0969061 18.92519,17.14751031 6.92484,4.25497529 8.06251,4.77014769 8.01417,3.62917269 z m -225.62709,-92.240161 c 0.64635,-1.045715 -1.32855,-5.022328 -5.78218,-11.643254 -1.81838,-2.7032 -5.82368,-9.13727 -8.90078,-14.29793 -6.4912,-10.88663 -16.2446,-24.24277 -22.8412,-31.27816 -2.5353,-2.70401 -4.8225,-5.51891 -5.0826,-6.25534 -0.2601,-0.73653 -0.7109,-1.12257 -1.0018,-0.85806 -0.8507,0.7737 1.2585,5.90505 7.3322,17.83828 9.9305,19.51105 14.4863,26.28416 27.1986,40.43634 5.96956,6.64559 7.9131,7.94268 9.07776,6.058124 z M -1011.9876,917.15078 c 6.0122,-6.20298 27.42909,-17.18549 50.33286,-25.81045 25.76067,-9.70088 43.66749,-18.96451 55.82681,-28.88039 29.54596,-24.0947 56.85716,-37.61822 96.09774,-47.58415 30.04818,-7.63125 72.68569,-14.83794 69.82539,-11.80196 -0.49149,0.52161 -6.99044,3.55679 -14.44208,6.74479 -27.35382,11.70267 -53.02388,25.836 -77.71712,42.78924 -52.46001,36.01658 -58.49177,39.70831 -76.73513,46.96567 -15.0038,5.96858 -32.7663,9.5722 -55.8513,11.33093 -10.23946,0.78013 -15.99626,1.76034 -31.27672,5.32535 -7.12665,1.66268 -14.35025,3.26672 -16.05235,3.56439 l -3.0949,0.54136 z m -415.1116,-304.88393 c -7.7772,-1.05554 -18.417,-4.25229 -24.7038,-7.42232 -8.6667,-4.37016 -22.4485,-12.98967 -29.747,-18.60474 -4.9813,-3.83238 -5.2403,-4.1968 -3.1877,-4.48642 7.7335,-1.0912 28.9518,6.81556 45.9639,17.12794 4.8833,2.96012 12.5237,7.31714 16.9788,9.68247 l 8.1001,4.30037 -5.3617,-0.11671 c -2.9489,-0.0643 -6.5681,-0.2805 -8.0426,-0.48059 z m -4.9149,-825.15485 c -31.7976,-1.10299 -44.8182,-3.26913 -50.7698,-8.44614 -2.9328,-2.55093 -2.1913,-4.32924 3.0468,-7.30804 7.4891,-4.25872 24.4911,-6.43853 68.2763,-8.75337 14.0075,-0.74054 26.6746,-1.54909 28.149,-1.79689 1.4745,-0.2478 8.4956,-0.81695 15.6024,-1.26492 10.7482,-0.67737 13.1169,-1.08155 14.0833,-2.40313 2.1363,-2.9216 -0.3439,-3.71451 -14.9409,-4.77694 -30.9328,-2.25129 -42.3879,-3.63855 -52.2768,-6.33076 -13.5991,-3.70236 -17.7968,-5.8744 -18.1401,-9.38579 -0.6169,-6.31102 8.1635,-9.79382 31.3813,-12.44769 38.5029,-4.40099 112.7241,-3.93265 148.5041,0.93705 10.7128,1.45803 23.6261,4.29528 26.4654,5.81488 2.7252,1.45848 1.7989,4.58561 -1.8908,6.38349 -2.744,1.33712 -17.6403,4.86675 -33.2874,7.88737 -2.826,0.54555 -5.1383,1.31183 -5.1383,1.70279 0,0.39087 6.7357,0.99102 14.9682,1.33355 20.0842,0.83562 45.6199,2.90954 48.9257,3.97357 1.4745,0.47461 5.4958,1.73184 8.9362,2.79382 7.562,2.33423 10.2766,4.59625 10.2766,8.56348 0,2.16399 -0.7314,3.51068 -2.9042,5.34725 -8.6908,7.34583 -23.0467,9.80659 -75.2876,12.90486 -8.8468,0.52474 -24.932,1.76133 -35.7448,2.74798 -34.9761,3.19174 -82.1874,4.12084 -128.2346,2.52358 z m 569.50631,-45.59995 c -15.17573,-0.72249 -29.77866,-2.98871 -34.81564,-5.40283 -2.04898,-0.98209 -2.53949,-1.80038 -2.53949,-4.23639 0,-4.49491 3.05681,-6.20342 17.91692,-10.01427 12.15083,-3.11605 18.26212,-5.57217 17.0014,-6.83289 -0.29409,-0.29409 -15.50941,-0.44753 -33.81175,-0.34092 -33.96787,0.19785 -70.67352,-0.99585 -81.07088,-2.63636 -9.53163,-1.50396 -16.99354,-5.79817 -16.99354,-9.77943 0,-4.12531 11.25122,-8.6237 24.5306,-9.80766 4.93913,-0.44029 16.62063,-2.01404 25.95897,-3.49719 38.91629,-6.18081 72.07409,-8.87732 114.38346,-9.30205 42.56887,-0.42733 64.69135,1.58001 73.85329,6.70126 5.56484,3.11051 6.15472,4.59821 3.09139,7.79568 -4.7193,4.9259 -13.48644,7.6695 -34.24936,10.71826 -11.26891,1.65463 -15.43989,2.87871 -15.43989,4.53111 0,1.26179 3.89056,1.69681 20.55328,2.29812 17.85106,0.64421 65.13557,4.40546 72.15934,5.73991 11.92287,2.26524 17.41274,8.8447 11.11923,13.32603 -5.79602,4.12719 -15.14472,6.21674 -38.4525,8.59458 -28.74438,2.93259 -85.7934,3.92585 -123.19483,2.14504 z"
       id="path102" /></g></svg>
