<?xml version="1.0" encoding="UTF-8" standalone="no"?>
<!-- Created with Inkscape (http://www.inkscape.org/) -->

<svg
   width="1280"
   height="787.91174"
   viewBox="0 0 1279.9999 787.9118"
   version="1.1"
   id="svg5"
   inkscape:version="1.4.2 (f4327f4, 2025-05-13)"
   xml:space="preserve"
   sodipodi:docname="52.svg"
   xmlns:inkscape="http://www.inkscape.org/namespaces/inkscape"
   xmlns:sodipodi="http://sodipodi.sourceforge.net/DTD/sodipodi-0.dtd"
   xmlns="http://www.w3.org/2000/svg"
   xmlns:svg="http://www.w3.org/2000/svg"><sodipodi:namedview
     id="namedview7"
     pagecolor="#ffffff"
     bordercolor="#666666"
     borderopacity="1.0"
     inkscape:showpageshadow="2"
     inkscape:pageopacity="0.0"
     inkscape:pagecheckerboard="0"
     inkscape:deskcolor="#d1d1d1"
     inkscape:document-units="px"
     showgrid="false"
     showborder="false"
     inkscape:zoom="0.37276506"
     inkscape:cx="553.96823"
     inkscape:cy="481.53655"
     inkscape:window-width="1920"
     inkscape:window-height="991"
     inkscape:window-x="-9"
     inkscape:window-y="-9"
     inkscape:window-maximized="1"
     inkscape:current-layer="layer1" /><defs
     id="defs2"><clipPath
       clipPathUnits="userSpaceOnUse"
       id="clipPath8006"><path
         inkscape:connector-curvature="0"
         id="path8008"
         d="m -1244.8456,-140.77945 h 33.9355 c 11.5456,0 20.8405,9.29479 20.8405,20.84039 v 31.873282 c 0,11.545575 -9.2949,20.840392 -20.8405,20.840392 h -33.9355 c -11.5456,0 -20.8405,-9.294817 -20.8405,-20.840392 v -31.873282 c 0,-11.5456 9.2949,-20.84039 20.8405,-20.84039 z"
         style="opacity:0.521;fill:#ff0000;fill-opacity:1;stroke:none;stroke-width:1.61448;stroke-linecap:round;stroke-linejoin:round;stroke-miterlimit:4;stroke-dasharray:none" /></clipPath><clipPath
       clipPathUnits="userSpaceOnUse"
       id="clipPath8001"><path
         style="opacity:0.521;fill:#ff0000;fill-opacity:1;stroke:none;stroke-width:1.59706;stroke-linecap:round;stroke-linejoin:round;stroke-miterlimit:4;stroke-dasharray:none"
         d="m -2936.6731,-1508.8075 h 33.5693 c 11.421,0 20.6155,9.1945 20.6155,20.6155 v 31.5293 c 0,11.421 -9.1945,20.6155 -20.6155,20.6155 h -33.5693 c -11.421,0 -20.6156,-9.1945 -20.6156,-20.6155 v -31.5293 c 0,-11.421 9.1946,-20.6155 20.6156,-20.6155 z"
         id="path8003"
         inkscape:connector-curvature="0" /></clipPath></defs><g
     inkscape:label="Layer 1"
     inkscape:groupmode="layer"
     id="layer1"
     transform="translate(729.65086,81.637875)"><path
       style="fill:#000000;stroke-width:1"
       d="m -729.64375,626.62075 v -79.64881 l 2.70836,0.54903 c 17.02437,3.45184 31.27596,8.0217 48.24953,15.4714 3.22264,1.41447 6.00243,2.42883 6.17704,2.25412 0.55526,-0.55516 -5.09553,-8.33996 -10.74923,-14.80889 -3.00433,-3.43744 -5.09942,-6.37763 -4.6558,-6.53384 1.54431,-0.54358 12.88948,3.34994 18.2696,6.26999 7.43783,4.03688 15.05124,9.56124 20.00826,14.51827 2.28712,2.28702 4.14385,3.85906 4.12624,3.4935 -0.0175,-0.36557 -1.66977,-5.53964 -3.67152,-11.49798 -2.00185,-5.95824 -3.47189,-11.00501 -3.26682,-11.21504 0.20507,-0.20994 3.07606,2.42912 6.37987,5.86461 4.34999,4.52343 7.18575,8.50747 10.27991,14.44284 l 4.27281,8.19631 1.83707,-5.52056 c 1.7961,-5.39715 8.35282,-15.51812 10.05324,-15.51812 0.57112,0 0.6703,3.70383 0.29782,11.12628 -0.38298,7.63005 -0.27583,11.30079 0.34075,11.68193 0.51467,0.31797 2.23125,-1.45127 4.01392,-4.13704 1.71317,-2.58086 4.90301,-6.10599 7.08842,-7.83357 3.9997,-3.16151 11.36308,-7.1583 12.00515,-6.51622 0.19008,0.18988 -0.92676,2.13479 -2.48177,4.32186 -2.50767,3.52708 -9.61721,16.40303 -9.61721,17.41748 0,0.21442 4.21879,0.84997 9.37496,1.41253 8.08146,0.8816 30.63875,4.97056 34.99108,6.34288 1.275,0.40207 1.38907,0.0146 0.94623,-3.2166 -1.24561,-9.08715 1.91191,-21.4276 14.60781,-57.09278 6.46328,-18.1565 5.79171,-17.33768 18.12496,-22.10083 15.73653,-6.07747 24.57005,-11.94072 31.33446,-20.79838 6.7213,-8.8013 9.91231,-19.19041 12.72792,-41.43996 1.3807,-10.90972 4.33286,-23.86305 7.09465,-31.12939 2.15728,-5.67599 2.05012,-6.46561 -0.46883,-3.45359 -4.4445,5.31422 -8.92219,13.91892 -12.82924,24.65355 -5.14127,14.12564 -6.92403,18.21217 -10.67769,24.47622 -9.06828,15.1328 -26.85571,34.7499 -39.81594,43.91122 -14.26278,10.08234 -34.681,21.38926 -47.67043,26.39846 -10.20011,3.93371 -21.72261,5.97634 -33.70402,5.97498 -12.07241,0 -19.23421,-1.14215 -36.18773,-5.76456 -15.31705,-4.17607 -22.13499,-5.07713 -33.77215,-4.46328 -8.18852,0.43204 -9.08647,0.33617 -9.60903,-1.02574 -1.45613,-3.79454 4.43107,-17.04404 11.94978,-26.89357 6.01868,-7.88447 13.73993,-14.90904 23.63861,-21.50615 7.28473,-4.85483 12.85483,-7.71959 36.81979,-18.93629 4.46873,-2.09159 8.12496,-4.15611 8.12496,-4.58796 0,-0.43175 -1.03119,-1.20453 -2.29159,-1.71746 -3.22147,-1.31052 -17.08394,-4.13499 -23.54148,-4.79653 -4.12828,-0.42279 -7.01377,-1.41457 -12.13139,-4.16964 -12.15066,-6.54114 -34.3493,-12.80286 -57.42516,-16.19796 -5.97265,-0.87878 -10.95323,-1.5995 -11.06779,-1.60164 -0.11465,0 -0.20838,-4.89162 -0.20838,-10.86583 v -10.86184 l 3.95834,0.43633 c 14.65414,1.61526 20.29996,2.49374 27.0889,4.21509 4.22785,1.07207 7.81235,1.82374 7.96565,1.67055 0.31797,-0.31807 -10.36391,-12.52966 -13.06438,-14.93533 -3.14672,-2.80315 -2.3354,-4.10141 2.14356,-3.42975 6.26492,0.93951 12.47388,3.63687 17.9741,7.80855 4.4845,3.40124 6.46552,5.54431 13.34751,14.43963 1.48678,1.92185 1.49379,1.90598 0.98788,-2.23105 -0.28021,-2.2917 -1.27247,-7.47326 -2.20507,-11.51453 -0.9325,-4.04126 -1.4716,-7.57185 -1.19782,-7.84563 0.80247,-0.80238 6.74407,5.91659 9.50197,10.74534 2.12059,3.71288 4.50834,9.44931 6.52771,15.68212 0.26191,0.80841 1.27821,-0.19758 2.94652,-2.91664 1.40075,-2.28284 3.53545,-5.21933 4.74397,-6.52557 2.79128,-3.01689 9.24639,-7.52017 9.87659,-6.89007 0.26337,0.26357 -0.34172,3.39345 -1.34488,6.95528 -1.00317,3.56202 -2.1241,8.42912 -2.49093,10.8159 l -0.66689,4.33967 2.48868,-2.09411 c 4.09334,-3.44435 10.15933,-6.10093 16.35758,-7.16385 3.21252,-0.55078 6.0875,-0.75498 6.38893,-0.45355 0.30142,0.30133 -2.53482,3.44795 -6.3026,6.99255 l -6.85055,6.4445 7.07305,1.87756 c 3.89011,1.03275 11.25631,3.75044 16.36926,6.03931 l 9.29631,4.16157 4.75108,-2.81191 c 9.97703,-5.90501 22.35145,-14.60752 34.42093,-24.20711 l 12.52801,-9.96408 -4.43243,-1.95076 c -4.45044,-1.95863 -31.25251,-10.0251 -45.26535,-13.62333 -4.25695,-1.09309 -7.50003,-2.36226 -7.50003,-2.93532 0,-0.85679 12.12361,-10.81211 18.77376,-15.41613 l 2.05947,-1.42566 -2.91664,0.50309 c -5.01163,0.86447 -11.68164,3.6646 -20.7759,8.72178 -9.23256,5.13426 -14.22385,6.33111 -14.22385,3.41077 0,-2.23582 8.16653,-13.90899 15.51375,-22.17547 12.57491,-14.14813 12.57968,-14.15455 10.26823,-13.46041 -6.25938,1.87941 -14.96676,8.58767 -26.83137,20.67117 -6.76461,6.88929 -12.52508,12.30035 -12.80091,12.02452 -0.82165,-0.82174 1.37155,-14.33723 4.42376,-27.26049 3.82637,-16.20107 6.09723,-27.81614 6.07475,-31.07099 l -0.0185,-2.67877 -1.63541,2.08332 c -5.21154,6.63886 -12.6301,24.24798 -17.12521,40.64955 -1.57662,5.7523 -3.02019,10.61249 -3.20823,10.80053 -0.43126,0.43126 -0.95411,-1.39628 -2.20293,-7.70042 -1.17027,-5.90793 -5.19986,-17.62704 -7.8797,-22.91654 -2.34814,-4.63468 -9.30235,-14.16652 -10.33549,-14.16652 -0.41861,0 -0.20468,2.34376 0.47535,5.20833 3.46489,14.59408 4.48859,20.26317 5.40893,29.95123 0.67575,7.11469 0.73415,11.18263 0.17821,12.42853 -0.77522,1.73741 -1.18965,1.41797 -6.69249,-5.15986 -7.45545,-8.91148 -12.01849,-13.08842 -19.96778,-18.27777 -7.03304,-4.59117 -8.71935,-5.15655 -6.42211,-2.1531 6.95917,9.09864 14.44439,19.68494 14.44439,20.42873 0,1.58781 -2.28429,0.99888 -10.61968,-2.73785 -10.90593,-4.88909 -18.81415,-7.67979 -29.79667,-10.51486 l -9.16658,-2.36635 -0.21198,-94.28066 -0.21188,-94.28067 4.96462,-6.52177 c 4.92189,-6.46562 8.90232,-13.1403 8.23465,-13.80807 -0.19096,-0.19086 -2.70806,0.38786 -5.59384,1.286 -7.65896,2.38377 -7.59823,2.41043 -7.59823,-3.33145 0,-4.6885 0.1637,-5.09377 2.94564,-7.29164 4.36848,-3.45126 11.7923,-13.09854 15.03557,-19.53885 1.56864,-3.1147 2.85191,-5.80758 2.85191,-5.98424 0,-0.17655 -2.59097,0.44197 -5.75775,1.37457 -5.50255,1.62042 -5.85585,1.63132 -7.96778,0.24751 l -2.21003,-1.44805 5.25952,-5.585577 c 8.87158,-9.421764 13.30167,-19.672061 16.96988,-39.26495 1.16287,-6.211415 2.32536,-12.230966 2.58328,-13.376793 l 0.46903,-2.083312 0.78291,2.054075 c 0.43068,1.129748 2.06832,8.523741 3.63939,16.431111 1.57108,7.90737 4.00283,17.349617 5.40387,20.982757 2.45131,6.356541 8.00866,15.971113 9.91094,17.146839 0.50406,0.31155 0.91654,1.28717 0.91654,2.16799 0,1.80232 -3.01309,2.91157 -5.77313,2.12526 -0.94973,-0.27048 -2.47681,-0.70466 -3.39354,-0.96472 -2.43837,-0.69171 -2.12672,1.13388 1.29446,7.58265 4.0111,7.56076 8.4007,13.34917 14.01285,18.47837 2.58095,2.35885 4.69258,4.4771 4.69258,4.70728 0,0.23018 -0.58922,1.00774 -1.30955,1.72797 -1.69984,1.69993 -8.57939,1.7265 -12.59506,0.0487 -1.65974,-0.69356 -3.17816,-1.10068 -3.37408,-0.90476 -0.91129,0.91128 4.62767,8.67468 10.87566,15.24317 l 3.32376,3.49438 3.41457,-2.35953 c 7.98092,-5.51463 30.49773,-28.87887 30.49773,-31.64552 0,-1.23695 -2.44664,-1.13038 -10.22317,0.44537 -5.36357,1.08677 -7.52406,1.16765 -11.24249,0.42085 -4.49355,-0.90233 -6.86739,-2.10813 -6.86739,-3.48815 0,-0.37647 2.74115,-2.74748 6.09139,-5.26897 8.90418,-6.70154 18.74543,-17.370667 25.48201,-27.62562 3.25349,-4.952775 5.75989,-9.160618 5.56971,-9.350768 -0.19018,-0.190151 -1.40649,0.422784 -2.70291,1.36207 -2.29393,1.661978 -15.67141,5.938915 -18.57588,5.938915 -0.79693,0 -2.63001,-0.411679 -4.07339,-0.914857 -4.25626,-1.483731 -3.40668,-3.582372 4.41122,-10.896906 3.86967,-3.620419 8.71818,-8.820729 10.77443,-11.556238 3.95951,-5.267243 15.85196,-25.747085 15.28211,-26.316971 -0.18493,-0.184914 -2.50446,0.622707 -5.15461,1.794705 -2.65005,1.171998 -7.26624,2.698622 -10.25811,3.392495 -4.74612,1.100686 -5.59356,1.107849 -6.64529,0.05606 -1.85673,-1.856752 -0.63905,-4.09357 4.80773,-8.831026 15.48951,-13.472311 22.91498,-31.2870996 28.42035,-68.18465 0.65483,-4.388952 1.40173,-6.874941 2.06541,-6.874941 1.22147,0 1.26692,0.196973 4.46853,19.365988 5.35462,32.0611024 9.92039,42.944996 24.72178,58.932251 5.90579,6.378937 5.79406,7.989633 -0.54465,7.852331 -2.80422,-0.06073 -6.60148,-0.936395 -9.87201,-2.276577 l -5.3149,-2.177867 0.48061,2.961341 c 1.35627,8.358019 11.05309,22.757032 24.61686,36.554108 4.64674,4.72674 8.44878,9.208095 8.44878,9.958564 0,3.986373 -11.00881,3.419339 -21.82218,-1.123927 -3.12268,-1.312005 -5.67765,-2.226055 -5.67765,-2.031203 0,1.393848 7.18517,14.176291 10.29014,18.306223 4.36245,5.80262 14.71029,15.88447 19.67686,19.17124 3.66441,2.42504 4.20663,4.32041 1.84681,6.45599 -3.60329,3.26088 -15.07888,2.15582 -25.06574,-2.41394 -2.47603,-1.133 -4.64334,-1.91854 -4.8161,-1.74558 -0.17295,0.17285 1.64981,3.27188 4.05032,6.88685 5.47851,8.24974 26.54532,29.48697 34.22569,34.50259 3.09378,2.02034 5.62499,3.95105 5.62499,4.29062 0,0.33958 -0.43028,1.56164 -0.95605,2.71585 -2.10103,4.61113 -11.09854,4.85581 -23.6902,0.64422 -3.86101,-1.29145 -7.02019,-2.16828 -7.02019,-1.94851 0,0.21967 1.17495,2.49238 2.61102,5.05017 5.51297,9.81974 14.36751,19.31587 24.31009,26.07153 l 4.8378,3.28726 3.68738,-3.02156 c 4.20974,-3.44951 11.44727,-11.46274 16.73521,-18.52897 3.865,-5.16463 8.51623,-13.18633 7.30274,-12.59458 -4.97786,2.42757 -7.99182,3.41136 -11.58713,3.78247 -4.58446,0.47321 -7.89742,-0.65579 -7.89742,-2.69151 0,-0.66223 2.2878,-3.72846 5.08395,-6.81386 7.14837,-7.88807 11.76767,-14.60217 16.45228,-23.91337 4.32011,-8.58689 4.24663,-8.84607 -1.65721,-5.84466 -3.46207,1.76008 -8.84413,2.37306 -10.2912,1.17202 -1.98463,-1.64708 -1.51132,-3.18545 2.39602,-7.78743 4.41881,-5.20424 10.2041,-14.11173 13.76262,-21.18983 3.03099,-6.02871 5.75259,-16.745138 9.02632,-35.541084 1.2822,-7.362507 2.73872,-13.407305 3.27305,-13.584705 1.43647,-0.47686 2.47565,3.580513 5.27588,20.599857 3.25456,19.780981 4.31709,23.883862 8.41676,32.499752 4.01284,8.4331 7.16083,13.58138 12.65083,20.68898 6.80111,8.80509 3.92505,10.27641 -10.84802,5.54956 -2.57005,-0.82233 -2.44703,1.06497 0.52343,8.02628 3.59813,8.43223 11.31052,19.65545 18.12516,26.37597 6.36586,6.27797 7.03664,7.57934 4.84481,9.39851 -1.8069,1.49953 -12.54114,-0.21967 -18.55126,-2.97124 -2.48518,-1.13777 -4.66582,-2.06862 -4.84579,-2.06862 -0.85016,0 2.60782,6.62738 6.87051,13.16755 5.13017,7.87133 14.71847,18.34862 19.69954,21.5262 3.86695,2.46678 4.32683,5.72358 0.98739,6.99313 -3.90763,1.48572 -12.09615,0.91693 -17.23723,-1.19733 -2.63536,-1.08385 -4.79167,-1.79824 -4.79167,-1.58762 0,0.21043 2.46475,4.12078 5.47716,8.68938 5.39004,8.1745 17.31363,21.15314 25.67238,27.94393 3.35062,2.72217 3.9636,3.62732 3.4825,5.14292 -1.29845,4.09129 -9.91026,5.81809 -19.95347,4.00117 l -4.07134,-0.73658 1.5664,2.65161 c 0.86136,1.45837 5.62412,6.65025 10.58368,11.53749 l 9.01737,8.88598 1.69887,-2.68324 c 2.0872,-3.29642 1.50917,-5.16882 -1.59551,-5.16882 -2.3497,0 -6.04486,-2.00224 -6.04486,-3.27539 0,-0.37452 2.02121,-2.94622 4.4915,-5.71473 8.01567,-8.9834 17.17495,-21.70003 17.17495,-23.84563 0,-0.23037 -1.78695,-0.20711 -3.971,0.0516 -4.40488,0.52168 -10.19553,-1.32961 -10.19553,-3.25953 0,-0.62095 1.3406,-2.42133 2.97932,-4.00078 5.10604,-4.92179 11.65954,-13.44561 15.26516,-19.85458 l 3.45973,-6.14959 -2.72714,0.66533 c -1.50002,0.36576 -4.41471,0.69561 -6.47719,0.73288 -3.45711,0.0623 -3.76992,-0.10472 -4.00565,-2.14102 -0.17402,-1.50353 0.52635,-3.09991 2.19388,-4.99995 6.67769,-7.60933 12.21996,-22.13966 15.66918,-41.08004 1.1729,-6.441 2.43505,-12.02978 2.80471,-12.41968 0.88997,-0.93863 1.17553,0.12244 4.17966,15.53155 4.03183,20.6811 7.87211,31.0926 14.96365,40.56995 1.87658,2.50776 3.30371,5.1328 3.17124,5.83327 -0.33403,1.76817 -4.82797,2.05343 -8.45753,0.53686 -1.64067,-0.68548 -3.18108,-0.92578 -3.42324,-0.53394 -1.09971,1.77926 7.77994,16.04535 15.19539,24.41306 3.95844,4.46659 4.37121,6.06511 1.77857,6.88792 -2.28244,0.72451 -12.50863,-0.35603 -13.86179,-1.4646 -4.92821,-4.03747 8.02287,15.14224 18.32342,27.13582 5.69147,6.62679 6.00837,8.77687 1.4681,9.95844 -1.60416,0.41744 -4.75799,0.54396 -7.00832,0.28098 l -4.09178,-0.47798 2.05567,2.26824 c 1.13067,1.24755 3.02,3.58071 4.19855,5.18478 4.67351,6.36157 10.33676,11.74567 11.7741,11.19421 1.86267,-0.71488 1.77293,-2.48547 -0.29568,-5.83269 -1.97441,-3.19461 -1.59181,-4.5681 3.68455,-13.22896 3.50723,-5.75717 3.55901,-6.0145 1.34946,-6.71575 -2.29461,-0.72821 -2.13928,-1.6721 1.59249,-9.67628 1.96428,-4.21306 4.14044,-10.96316 5.47744,-16.99012 1.22011,-5.50002 2.53929,-10.32945 2.93143,-10.7321 0.39953,-0.41034 1.67531,2.51993 2.90233,6.6666 1.20415,4.06929 2.99538,9.63852 3.98034,12.37578 l 1.79113,4.97717 2.76539,-6.01761 c 2.98915,-6.50445 6.79001,-20.75205 8.99761,-33.72786 0.76024,-4.46873 1.68193,-8.12497 2.04808,-8.12497 1.31082,0 3.33652,6.78145 5.89732,19.74315 2.52703,12.79049 5.80933,22.93084 10.27524,31.74382 1.19578,2.35972 2.17412,5.04569 2.17412,5.96885 0,1.9271 -3.01912,3.0201 -5.85546,2.11991 -1.59122,-0.50504 -1.74092,-0.3386 -1.24337,1.38313 1.00608,3.48114 4.42707,10.14648 8.37013,16.30804 4.91625,7.68242 4.82807,9.71016 -0.43797,10.0766 -2.06249,0.14356 -4.07397,0.57998 -4.4699,0.96997 -0.77123,0.75945 7.33738,12.97708 12.7137,19.15626 2.81415,3.23441 3.41272,3.57506 4.57998,2.60625 1.89819,-1.57526 1.78072,-1.97644 -2.40722,-8.21918 -2.06249,-3.0745 -3.74996,-6.44566 -3.74996,-7.49155 0,-1.04599 0.91469,-3.30002 2.0326,-5.00891 3.65098,-5.581 3.54149,-6.63613 -1.45068,-13.97488 -6.08555,-8.94593 -6.17236,-9.36639 -3.12901,-15.13981 1.399,-2.65404 2.54436,-5.41165 2.54533,-6.12798 0,-0.71624 -1.15674,-2.40382 -2.57248,-3.74997 -4.25033,-4.04097 -6.35554,-8.58153 -9.00949,-19.43237 -1.82617,-7.46635 -2.29656,-10.74261 -1.70217,-11.85342 1.10127,-2.05762 9.8503,-8.98136 22.03581,-17.43861 11.13523,-7.72816 34.59827,-24.83614 47.77885,-34.83759 11.19792,-8.49706 17.13806,-12.0727 19.04628,-11.4646 0.82924,0.26415 3.94355,3.29651 6.92072,6.73843 2.97718,3.44192 5.80914,6.25802 6.29315,6.25802 1.96808,0 17.1183,-12.47623 21.81099,-17.96116 2.76577,-3.23286 10.41831,-10.71897 17.00559,-16.63585 6.58718,-5.91678 16.10598,-14.70913 21.15304,-19.53846 8.28079,-7.92379 28.74465,-26.378696 32.20185,-29.04062 1.13679,-0.875371 2.30522,-0.748942 6.6666,0.721295 8.20059,2.764513 16.21753,4.076304 19.45262,3.183025 2.76617,-0.763736 4.17568,-1.939851 11.096986,-9.259519 2.791279,-2.952065 5.608641,-4.672216 12.603821,-7.695788 10.042627,-4.340803 11.277918,-5.411065 19.260007,-16.688603 2.919557,-4.124968 7.99883,-10.87491 11.287164,-14.999878 3.288237,-4.124969 9.083456,-11.9926 12.878092,-17.48362 C -27.450564,18.566533 -5.286572,-3.6081944 1.9720759,-6.5576606 9.1693096,-9.4821622 13.052806,-12.48474 23.266731,-23.022096 36.64295,-36.821684 60.522061,-62.737925 64.5133,-67.78723 c 4.415785,-5.586353 6.223853,-6.636584 18.797402,-10.918776 9.551702,-3.253043 10.53394,-3.436663 12.2767,-2.294797 1.041803,0.682661 7.883298,8.878424 15.203068,18.212822 17.77536,22.667491 21.41359,26.812314 30.20643,34.411484 6.64587,5.743753 8.00476,7.425459 12.16049,15.049118 2.57316,4.7205098 5.93041,10.4431612 7.4607,12.71699384 3.02243,4.49140946 32.26443,40.30452816 37.14554,45.49284716 l 3.00171,3.19052 12.54299,-0.575425 12.54309,-0.575434 4.66455,4.88485 c 6.91975,7.246491 9.62937,10.683572 19.04423,24.156749 9.20522,13.173036 23.11596,31.087868 28.48576,36.685018 3.98919,4.15806 2.32644,4.45822 24.12934,-4.35573 21.08579,-8.524015 20.58873,-8.487809 28.07133,-2.04769 3.29447,2.83546 12.2586,11.22779 19.92029,18.64966 7.66168,7.42187 15.61788,14.7867 17.68036,16.36624 2.06249,1.57964 9.06516,7.29116 15.56163,12.69249 6.49628,5.40123 12.20429,9.82052 12.68422,9.82052 1.16365,0 3.77896,-8.90846 6.3423,-21.60328 1.14984,-5.69439 2.29568,-10.55847 2.5463,-10.80909 0.9436,-0.9436 1.94998,2.15904 3.63745,11.21368 1.89888,10.18921 5.97625,25.14088 8.39457,30.78242 0.8416,1.9633 2.92141,4.64129 4.62193,5.95123 10.00856,7.70918 17.54975,13.94219 18.1525,15.00345 1.05777,1.86267 -1.59764,5.21914 -5.5482,7.0128 -5.10292,2.3169 -9.49992,2.05548 -15.02583,-0.89328 -2.58543,-1.37963 -4.70067,-2.25792 -4.70067,-1.95192 0,1.46216 7.78802,10.35505 15.603,17.81643 9.74129,9.3006 10.52245,11.25018 5.23022,13.05494 -4.17081,1.42236 -12.12438,1.32571 -15.04131,-0.18278 -1.35228,-0.69921 -2.45851,-1.05183 -2.45851,-0.78359 0,0.66417 10.99927,13.7447 13.23451,15.73877 1.78101,1.58878 1.81313,1.58285 4.43107,-0.83333 7.763,-7.16473 19.79871,-21.16346 19.82528,-23.05854 0.01,-0.34376 -1.58499,-0.64256 -3.53282,-0.66397 -4.24449,-0.0467 -12.18998,-3.15149 -13.46333,-5.26128 -0.76441,-1.26643 -0.4408,-1.86023 2.00506,-3.67784 5.33175,-3.96243 13.89566,-13.27422 17.1437,-18.641 1.7633,-2.91362 4.2223,-6.79614 5.46431,-8.62796 1.242,-1.83191 2.14482,-3.44415 2.00603,-3.58294 -0.13869,-0.1386 -1.64631,0.69395 -3.35033,1.8504 -4.06248,2.75683 -8.11504,3.46071 -12.18755,2.1166 -4.97133,-1.64066 -5.47812,-2.8161 -2.11134,-4.89688 5.55774,-3.43491 13.61448,-12.98301 17.09387,-20.25791 1.81459,-3.79415 3.21504,-6.98331 3.11217,-7.08696 -0.10288,-0.10375 -2.18911,0.57219 -4.63604,1.50197 -5.24668,1.99348 -9.4754,1.8686 -9.88476,-0.29208 -0.16556,-0.87392 1.4025,-3.31987 3.83395,-5.98024 5.17291,-5.65994 10.48849,-16.4444 12.58835,-25.53954 0.889,-3.85069 2.40479,-13.18866 3.36834,-20.75107 2.12146,-16.64968 2.3969,-17.995234 3.46537,-16.926793 0.44781,0.447778 2.28401,9.156686 4.08059,19.353183 4.74037,26.90408 6.55516,32.03951 14.99411,42.4294 2.35554,2.90009 4.1638,5.90014 4.01858,6.6667 -0.36468,1.92369 -6.28195,2.27193 -10.2728,0.60441 -4.48012,-1.87192 -4.64831,-1.70753 -2.72636,2.66426 2.8743,6.53813 7.24521,12.787 13.35373,19.09124 6.85824,7.07781 7.28707,9.35861 2.00516,10.663 -2.62222,0.64743 -4.23261,0.44391 -8.63108,-1.09115 -2.97396,-1.03791 -5.56425,-1.7303 -5.75599,-1.53856 -1.02701,1.0271 21.18205,28.15484 22.97036,28.05751 0.65784,-0.036 5.67842,-6.78563 6.35115,-8.53871 0.46445,-1.21028 0.0302,-1.4353 -2.76967,-1.4353 -5.60786,0 -5.84252,-1.60426 -1.0528,-7.19685 2.30172,-2.68752 5.52903,-7.43452 7.17174,-10.54873 l 2.98661,-5.66227 -4.12487,0.54718 c -2.68967,0.35671 -4.32449,0.22424 -4.69852,-0.38085 -0.31544,-0.51048 0.75303,-3.08365 2.37432,-5.71823 1.62139,-2.63448 3.88856,-7.11324 5.0383,-9.95279 2.05187,-5.0674 5.76621,-21.83415 6.81629,-30.76879 0.94681,-8.05567 2.9763,-6.88422 4.46396,2.57677 2.7543,17.51579 4.23787,23.51909 7.48465,30.28536 1.84135,3.83755 4.0982,8.03094 5.01513,9.3187 3.19422,4.48576 1.86938,5.89819 -3.96331,4.2255 -1.48659,-0.42629 -2.7028,-0.62153 -2.7028,-0.43359 0,1.60329 3.56309,8.69472 7.2164,14.36235 3.46927,5.38186 4.45015,7.63199 4.45015,10.20818 0,3.60153 -0.38503,3.79483 -4.95032,2.48557 -1.57068,-0.45044 -3.00442,-0.67059 -3.18604,-0.48898 -0.43058,0.43058 1.96,4.18453 5.39958,8.47915 l 2.74018,3.42128 -0.21003,201.68936 -0.21004,201.68947 -8.74991,-5.35715 C 523.45238,602.368 502.65994,593.50606 477.638,586.13938 c -6.76023,-1.99017 -12.2915,-3.8544 -12.2916,-4.14239 0,-1.02769 8.99178,-8.17928 19.1473,-15.22896 8.15398,-5.66013 9.8618,-7.16385 8.13597,-7.16385 -5.31267,0 -20.34969,6.68811 -30.61657,13.6173 -7.11508,4.80218 -11.65039,6.62757 -14.61676,5.88311 -2.50202,-0.62806 -2.52645,-1.13242 -0.2697,-5.55609 5.4572,-10.69696 19.40902,-25.15946 33.48659,-34.71224 2.20925,-1.49924 3.82694,-2.91566 3.59482,-3.14789 -0.73814,-0.73813 -11.55064,3.1733 -18.02832,6.52168 -8.22989,4.25413 -14.37286,8.95596 -23.72417,18.15884 -4.22998,4.16273 -8.15533,7.56864 -8.72314,7.56864 -0.75108,0 -0.87206,-0.96463 -0.44421,-3.54168 2.60752,-15.70548 8.53238,-28.96929 20.5608,-46.02929 3.22692,-4.57676 6.0765,-8.8667 6.33218,-9.5333 0.88355,-2.30221 -10.27436,6.18171 -17.4351,13.25669 -8.73707,8.63264 -13.0528,15.14993 -17.17815,25.94102 -1.72583,4.51447 -3.38031,8.21519 -3.67668,8.22404 -0.29646,0.01 -1.93868,-3.64037 -3.64942,-8.109 -4.93318,-12.88559 -9.43189,-20.88997 -15.10039,-26.86699 -2.82943,-2.98351 -5.35851,-5.21291 -5.62022,-4.95421 -0.26172,0.2587 0.66786,3.19237 2.06569,6.51924 3.27218,7.78802 6.45978,21.80466 7.12804,31.34352 l 0.52537,7.49992 -6.19786,-6.6666 c -3.40893,-3.66665 -7.80106,-8.42717 -9.76038,-10.579 -3.58178,-3.93333 -11.46333,-9.58684 -12.25782,-8.79235 -0.23436,0.23437 0.56626,1.87639 1.77936,3.64884 2.96287,4.32926 10.37675,19.12414 10.37675,20.70737 0,1.8617 -1.02048,1.60865 -8.32663,-2.06482 -15.29816,-7.69185 -33.90295,-13.94938 -54.17284,-18.22083 -25.67267,-5.4098 -50.85637,-9.63677 -50.81394,-8.52859 0.01,0.27291 5.35413,2.51477 11.87493,4.98175 46.76801,17.69361 70.91127,32.22589 78.5346,47.27158 4.35496,8.59497 3.72953,20.82077 -1.6684,32.61725 -1.10107,2.40625 -2.36187,4.37491 -2.80179,4.37491 -0.43992,0 -1.92272,-1.96866 -3.29515,-4.37491 -2.63964,-4.62825 -8.44498,-11.78821 -9.05951,-11.17358 -0.50299,0.50299 1.95669,10.07328 3.88924,15.13183 0.87547,2.29169 2.5975,7.53739 3.82685,11.6571 1.22926,4.11981 2.8344,8.40518 3.56689,9.52309 1.30877,1.99757 1.34936,1.92594 2.34658,-4.15708 1.20026,-7.32143 3.51891,-13.35938 7.97732,-20.77308 4.80783,-7.99474 9.50713,-13.80057 14.18502,-17.52522 6.72354,-5.35326 6.77386,-5.06584 1.46401,8.35865 -4.83527,12.22502 -11.34556,33.3331 -10.28069,33.3331 0.23223,0 3.10302,-2.48791 6.37948,-5.52864 13.68514,-12.70028 26.90982,-18.42756 35.23879,-15.26079 l 2.30678,0.87703 -4.96083,3.14312 c -5.93654,3.76125 -12.62611,10.88802 -16.62591,17.71268 -1.60504,2.73852 -2.9182,5.17212 -2.9182,5.40795 0,0.23582 1.10108,-0.35535 2.44693,-1.31354 4.28761,-3.0531 12.93075,-6.69571 18.87595,-7.95523 6.36751,-1.34887 17.01017,-1.66792 17.01017,-0.50971 0,0.40664 -2.59195,2.83362 -5.75989,5.39316 -8.10531,6.54883 -12.05742,12.39709 -7.10506,10.51428 1.17407,-0.44645 4.64285,-1.04181 7.7082,-1.32299 26.81882,-2.46036 71.60123,18.74874 105.5726,49.9994 l 4.99995,4.59955 -186.24852,0.01 c -156.63521,0.01 -185.91721,-0.17364 -184.16511,-1.11782 1.14585,-0.61735 10.52071,-4.77113 20.83313,-9.23042 48.54025,-20.99011 72.86396,-34.13537 93.33259,-50.43952 8.18064,-6.51632 17.65856,-16.12788 21.57038,-21.87463 12.59078,-18.49657 10.42007,-36.27894 -6.49043,-53.17017 -19.01815,-18.99663 -47.25572,-31.3693 -103.4125,-45.31177 -11.68747,-2.90175 -28.74981,-6.85805 -37.91638,-8.79167 -18.35641,-3.8723 -40.444,-8.90827 -40.85288,-9.31451 -0.14375,-0.14278 7.39559,-0.13821 16.7541,0.01 10.46795,0.16604 17.01552,-0.038 17.01552,-0.52781 0,-0.43866 -0.84374,-0.98934 -1.87503,-1.22361 -1.0312,-0.23447 -7.12492,-1.78111 -13.54158,-3.43715 -14.59428,-3.76671 -32.1636,-7.09018 -57.664591,-10.90807 C 28.67984,483.34171 5.6361947,477.78192 4.0548043,472.7994 2.950712,469.32088 7.1225926,466.96398 22.767339,462.2276 c 6.107254,-1.84895 11.318017,-3.57565 11.579539,-3.83717 0.261423,-0.26143 0.04477,-0.90584 -0.481289,-1.43199 -1.872207,-1.87221 -43.3122649,5.99308 -51.825864,9.83658 -8.345221,3.76738 -9.35909,6.02919 -4.582704,10.22288 7.706066,6.76597 24.6074194,12.44838 85.809406,28.84976 22.979112,6.15806 38.215563,11.16706 52.499563,17.25913 43.10827,18.38561 54.47748,35.57321 35.00909,52.92509 -15.43967,13.76116 -42.24467,22.62008 -107.508452,35.53126 -29.327258,5.80174 -39.2213618,7.41593 -57.082859,9.31257 -22.04272,2.34065 -31.048411,1.30021 -42.589602,-4.92024 -3.846414,-2.07309 -9.618372,-4.71566 -12.826605,-5.8725 -6.160006,-2.22103 -29.044909,-8.82047 -43.749662,-12.61628 -11.26906,-2.90885 -11.96243,-3.28084 -8.74991,-4.69473 1.68164,-0.74008 6.09314,-1.08258 13.47734,-1.04628 l 10.977469,0.0545 -1.930215,-3.80408 c -1.061564,-2.09217 -3.680954,-6.18035 -5.820724,-9.08482 -3.35811,-4.55788 -3.62703,-5.19928 -1.96398,-4.6847 4.61102,1.42673 8.918676,4.30337 13.893223,9.27801 2.932989,2.9329 5.429557,5.22488 5.548006,5.09339 0.118448,-0.13159 -0.09441,-3.42674 -0.472237,-7.3225 -0.378218,-3.89585 -0.70709,-8.39573 -0.730838,-9.9999 l -0.04282,-2.91663 2.282349,2.82223 c 1.255341,1.55238 4.157379,5.83736 6.449071,9.52221 2.291595,3.68485 4.505035,6.72723 4.918681,6.76091 0.413645,0.0331 1.7996,-2.52479 3.079857,-5.68534 3.792981,-9.36376 5.099711,-9.51929 5.60173,-0.66709 l 0.316512,5.58023 8.041557,0.0866 c 7.932938,0.0856 22.943007,3.09932 32.546197,6.53423 2.019367,0.72227 3.854006,1.13086 4.076888,0.90807 0.222784,-0.22297 -1.364543,-2.4769 -3.527762,-5.0089 l -3.933037,-4.60363 h 2.476616 c 4.530243,0 13.020776,3.19227 16.5694632,6.22989 1.8870015,1.61516 3.6687908,2.93669 3.9593158,2.93669 0.2907197,0 -1.717358,-4.39525 -4.462406,-9.76719 -2.74495,-5.37184 -4.917318,-9.82938 -4.827484,-9.90549 0.08954,-0.0759 1.990753,0.45102 4.224341,1.17144 2.6045054,0.83994 5.5187096,2.72957 8.1249671,5.26809 l 4.0638461,3.95844 -0.036985,-6.4042 c -0.020439,-3.52231 -0.36245064,-8.09168 -0.76101006,-10.15417 -0.39865675,-2.06248 -0.53365112,-3.93751 -0.30006318,-4.16662 1.10341104,-1.08259 8.64285104,8.70368 10.38376304,13.47851 1.858776,5.09767 1.868801,5.10759 3.164046,3.11684 3.245899,-4.98895 9.498075,-10.75789 10.534913,-9.72096 0.188622,0.18863 -0.187649,2.0002 -0.836147,4.02579 -1.402015,4.37949 -2.233101,10.76627 -1.400944,10.76627 0.324493,0 2.173828,-1.16483 4.109785,-2.58855 3.775852,-2.77687 11.291738,-5.98345 12.108907,-5.16628 0.273298,0.2733 -0.747871,2.22366 -2.26921,4.33422 -4.328579,6.00448 -4.428632,6.26941 -2.120005,5.61283 5.269452,-1.49866 12.076302,-2.28731 33.136396,-3.83931 31.805524,-2.34386 45.874908,-4.8013 44.877778,-7.83824 -0.93766,-2.8559 -12.494123,-6.80111 -27.259314,-9.30585 -4.35408,-0.73862 -8.246429,-1.6613 -8.649563,-2.05042 -0.411504,-0.39719 1.354615,-2.04292 4.027441,-3.75259 2.618132,-1.67482 4.575696,-3.22974 4.350089,-3.45544 -0.225607,-0.22551 -6.151149,0.39135 -13.167737,1.37096 -11.970701,1.67133 -12.821448,1.69381 -13.793174,0.36489 -1.180203,-1.61409 -0.642172,-2.97465 2.528687,-6.39428 3.239378,-3.4936 0.734829,-2.87089 -7.542068,1.87494 -3.996689,2.29169 -7.938681,4.16662 -8.759937,4.16662 -3.422939,0 -0.337048,-8.44761 6.240302,-17.08316 2.094602,-2.74992 3.462065,-5.12473 3.038882,-5.27724 -1.308482,-0.47146 -6.768211,3.3223 -12.498318,8.6846 -3.011629,2.81824 -6.350866,5.59259 -7.420602,6.16507 l -1.944814,1.04093 0.520706,-4.88997 c 0.28634,-2.68957 1.260889,-7.69215 2.16575,-11.11703 0.904764,-3.42499 1.499245,-6.37287 1.321037,-6.55108 -0.786023,-0.78612 -5.030511,4.89523 -7.211736,9.65312 -1.31325,2.86457 -2.555646,5.20824 -2.760912,5.20824 -0.205265,0 -1.347899,-1.66315 -2.539198,-3.69585 -2.115041,-3.60903 -8.52596,-10.12672 -9.249304,-9.40338 -0.199912,0.19992 0.396516,2.13636 1.32532,4.30318 1.991629,4.64645 3.107595,12.50104 1.883497,13.25758 -0.461725,0.28536 -3.932063,-1.53925 -7.7118085,-4.0547 -3.7797449,-2.51535 -7.197623,-4.57346 -7.5954038,-4.57346 -0.94817241,0 -0.90544529,2.58796 0.06813,4.12692 1.2514474,1.978 0.3002578,2.3714 -3.9005293,1.61282 -8.1258434,-1.46742 -14.8824714,-4.19232 -20.3498894,-8.20711 -5.852449,-4.29743 -16.440406,-15.79638 -21.445806,-23.29086 l -3.011143,-4.50863 -0.482748,-12.15796 c -0.52859,-13.31549 -1.02477,-15.23393 -6.535694,-25.27539 -1.868995,-3.40522 -3.39812,-7.23207 -3.39812,-8.50416 0,-1.27208 1.839408,-7.80251 4.087497,-14.51213 4.215483,-12.58115 6.491798,-24.68324 5.568444,-29.60504 -0.287118,-1.53 -1.265949,-3.45525 -2.175287,-4.27826 -1.493309,-1.3513 -2.117475,-1.39471 -6.442064,-0.44858 -6.038443,1.32123 -14.400112,4.8122 -19.75969,8.24964 l -4.137816,2.65385 -1.059321,-2.0218 c -0.582705,-1.11197 -2.339773,-5.55881 -3.904617,-9.88174 -3.951238,-10.91557 -5.747042,-14.14326 -9.798041,-17.61078 -4.455497,-3.81371 -8.005257,-3.98871 -13.257187,-0.65346 -5.61157,3.56358 -16.47944,15.72397 -21.6213,24.1928 -2.5208,4.15173 -5.15995,7.56494 -5.86471,7.5847 -2.37695,0.0671 -26.96607,-5.02263 -38.19348,-7.90569 -7.7483,-1.98949 -13.67472,-4.14288 -19.45777,-7.06973 -17.02292,-8.6156 -25.2969,-10.82155 -40.58883,-10.82155 -10.64081,0 -13.79171,-0.52762 -35.47743,-5.94024 -25.06652,-6.25665 -41.30458,-10.83283 -72.21877,-20.35281 -41.9998,-12.93396 -50.75769,-15.14769 -64.19289,-16.22599 -8.16185,-0.65502 -14.12652,-0.66339 -20.9396,-0.0292 -16.00428,1.48932 -21.69769,2.90603 -33.89712,8.43447 -3.89585,1.76544 -10.7648,4.1897 -15.26438,5.38722 -23.01581,6.12526 -38.21567,14.78777 -65.03945,37.06622 -16.74621,13.90871 -26.99342,21.97498 -35.27577,27.76806 -14.83225,10.37432 -36.74708,22.37656 -57.9556,31.7409 -23.39977,10.33179 -38.8704,21.60952 -48.15464,35.1036 -1.36123,1.97849 -2.47496,3.74977 -2.47496,3.93605 0,0.18639 4.79176,0.16575 10.6483,-0.0457 8.37977,-0.3025 13.21777,0.0146 22.70815,1.49078 6.63293,1.03129 12.38717,2.17421 12.78729,2.53968 0.66602,0.6085 -1.55949,1.41107 -8.22746,2.96725 -2.3824,0.55604 -2.28439,0.63867 2.08341,1.75824 7.29817,1.87074 27.93644,1.81916 37.26769,-0.0934 4.22658,-0.86622 7.51949,-1.84233 7.31744,-2.16906 -0.20186,-0.32683 -2.63828,-0.83157 -5.41418,-1.12171 -6.26142,-0.65443 -9.17125,-1.3624 -9.17125,-2.23134 0,-0.36781 3.65624,-2.60801 8.12497,-4.97815 4.46873,-2.37014 9.03109,-5.19325 10.13859,-6.27349 l 2.01373,-1.96419 -2.01373,-0.426 c -1.1075,-0.23427 -5.75891,-0.83362 -10.33646,-1.33184 -4.57745,-0.49823 -8.66786,-1.25087 -9.08959,-1.67259 -1.14234,-1.14244 0.48772,-2.72432 9.6468,-9.3624 5.27363,-3.82208 7.84767,-6.16692 7.16472,-6.52703 -0.58621,-0.30902 -6.47856,-0.98029 -13.09416,-1.49165 -6.6155,-0.51137 -12.34308,-1.24464 -12.72782,-1.62938 -1.33466,-1.33456 2.33861,-3.38332 18.5062,-10.32215 27.83395,-11.94579 36.61297,-17.87347 68.71184,-46.39446 28.28117,-25.12881 39.6426,-32.49344 57.43285,-37.22847 4.22921,-1.1256 10.57258,-2.41218 14.09596,-2.85892 3.52358,-0.44673 7.84632,-1.54684 9.60621,-2.44459 7.76115,-3.95951 25.30633,-7.58256 36.67029,-7.57263 12.94768,0.0117 36.55797,5.4242 76.39737,17.51452 30.60634,9.28833 45.15673,13.39004 66.24943,18.67574 24.9796,6.25977 25.82052,6.39477 41.45797,6.65512 16.67049,0.27748 19.48911,0.94535 35.20812,8.34327 14.2803,6.72101 17.73828,7.75561 42.11435,12.60168 l 20.03124,3.98219 0.01,8.81931 c 0,7.40727 0.31369,9.51559 1.93489,13.16803 2.12263,4.78203 5.01192,8.18648 3.44084,4.05431 -3.32638,-8.74913 2.77591,-28.92442 13.39491,-44.28535 6.67614,-9.65731 17.58509,-18.70767 20.979515,-17.40513 4.084188,1.56718 10.735702,22.68704 13.935565,44.24818 l 1.008321,6.7941 6.450337,5.08073 c 10.320791,8.12935 15.519388,14.11163 19.432764,22.36235 3.279769,6.91459 3.456615,7.67745 3.333884,14.38512 -0.142489,7.78802 0.948172,14.89162 2.878582,18.74981 2.302982,4.60285 12.469606,17.42109 20.135378,25.38712 4.889579,5.08122 7.589953,8.54182 7.589953,9.7267 0,2.23446 -5.381866,7.06973 -11.249887,10.10754 -3.24658,1.68057 -5.737796,2.2369 -11.281421,2.51934 -9.751324,0.49687 -15.09202,-1.0163 -31.634912,-8.96325 -32.508049,-15.61623 -45.347409,-19.19421 -68.875359,-19.19421 -9.81517,0 -30.94992,1.80748 -34.2545,2.92968 -1.42869,0.48508 1.10185,7.04423 5.71083,14.80217 4.41004,7.42323 12.19397,15.21796 22.41967,22.45053 8.68188,6.14073 9.7159,7.47296 16.67585,21.48376 8.14774,16.40167 16.8594,26.99021 25.57331,31.08287 6.09693,2.86349 8.10521,4.44469 10.05781,7.91882 5.742664,10.21763 1.758529,16.63195 -9.81615,15.80378 -8.0945,-0.5792 -16.00272,-4.93629 -24.57433,-13.53924 -6.47574,-6.49958 -8.50717,-9.51433 -17.97936,-26.68304 -5.82627,-10.56051 -13.27908,-17.36688 -31.95853,-29.18662 -16.61131,-10.51117 -27.57311,-19.94491 -32.14472,-27.66392 -1.9669,-3.32094 -2.53501,-3.65925 -10.16594,-6.05265 -4.44547,-1.39433 -8.2947,-2.87829 -8.55379,-3.29768 -0.25919,-0.41929 4.50289,-4.15981 10.5825,-8.31222 l 11.05387,-7.54966 6.02044,-0.01 c 3.33417,-0.01 12.8158,-1.29641 21.24979,-2.89298 8.37617,-1.58577 20.10433,-3.46372 26.06267,-4.17334 5.95824,-0.70962 12.2364,-1.50704 13.95143,-1.77225 2.75049,-0.42533 3.20901,-0.24333 3.88836,1.54343 0.72451,1.90588 1.27111,2.05839 9.25436,2.58153 17.14176,1.12346 33.36834,5.90423 50.355247,14.83624 22.174308,11.65964 25.950257,13.3406 31.446582,13.99961 6.337338,0.75975 7.353056,0.46338 7.353056,-2.14609 0,-2.24507 0.117767,-2.15475 -18.749812,-14.37169 -23.834827,-15.43306 -37.407853,-22.34035 -50.416263,-25.65662 -6.52168,-1.66256 -9.95367,-2.01616 -19.47686,-2.00652 -6.35816,0.01 -12.82281,0.24858 -14.36605,0.53803 -2.08409,0.39097 -2.92997,0.20313 -3.28814,-0.73035 -0.60236,-1.56971 2.96433,-8.70144 7.25972,-14.51574 1.79153,-2.42523 2.95937,-4.40946 2.59507,-4.40946 -1.53214,0 -9.49272,6.05995 -11.64319,8.8632 -6.20585,8.09003 -5.4246,7.66023 -19.4134,10.68081 -7.10419,1.53399 -16.40517,3.79649 -20.66893,5.02789 -10.01781,2.89318 -10.69998,2.6336 -8.08711,-3.07655 2.86389,-6.2585 4.72403,-14.14881 4.42718,-18.77862 l -0.25432,-3.96672 -3.93226,8.19086 c -7.24337,15.08803 -11.47881,19.79317 -29.3839,32.64207 -10.70894,7.68494 -16.65512,14.17032 -21.03937,22.94748 -1.93742,3.87873 -6.74096,16.61472 -10.67448,28.3021 -7.05085,20.94982 -7.14682,21.34429 -6.78953,27.93702 0.39457,7.2825 3.02049,14.86486 5.6323,16.26259 0.82213,0.44002 3.50255,0.80004 5.95639,0.80004 8.306,0 14.54036,4.8633 16.57063,12.92636 l 0.86204,3.42324 23.4824,2.72003 c 46.38823,5.3732 65.41367,7.72602 81.81525,10.11767 66.750874,9.7338 76.690527,11.6244 77.719579,14.78251 0.191445,0.58757 -0.897269,1.57185 -2.461627,2.22551 -3.182247,1.3296 -20.509119,4.78106 -32.341613,6.44236 -9.418469,1.3223 -35.871039,1.27568 -53.332909,-0.0944 -27.5623,-2.16205 -82.53022,-1.87902 -95.66049,0.49258 -6.50016,1.17407 0.52052,4.3641 15.49302,7.03946 5.36327,0.9583 9.89712,1.88525 10.07533,2.05976 0.17811,0.17451 -0.6303,0.68013 -1.79659,1.12356 -3.86841,1.47082 -18.25723,2.5135 -41.02699,2.97299 -28.92053,0.58358 -39.45164,1.06905 -55.83287,2.57326 -22.32128,2.04983 -56.39777,7.51647 -72.89696,11.69429 l -7.89741,1.99981 h -167.30951 -167.3093 z m 1139.99061,56.68634 c 0,-1.47228 -10.06063,-4.8448 -15.49223,-5.19343 -6.1204,-0.39282 -15.21583,1.13961 -13.94997,2.35028 1.46479,1.40065 12.73278,3.13631 20.90057,3.21913 4.69794,0.0477 8.54163,-0.12146 8.54163,-0.37598 z m -741.2378,-11.19392 c -0.97513,-1.57769 -7.54917,-4.91537 -13.7885,-7.00024 -8.20059,-2.74038 -20.16438,-4.16244 -28.89794,-3.43501 -11.09708,0.92443 -10.00545,1.57049 11.84729,7.01095 15.38595,3.83045 16.14258,3.95601 24.84062,4.12292 4.10404,0.0788 6.31952,-0.17937 5.99853,-0.69862 z m 674.11261,-11.05143 c -0.8271,-2.7141 -2.90876,-4.8599 -5.97246,-6.1566 -2.88812,-1.22254 -12.73502,-1.57487 -12.73502,-0.45579 0,0.37354 2.34376,1.51404 5.20833,2.53443 2.86457,1.02039 6.89581,2.74874 8.95829,3.84087 4.74554,2.51291 5.2422,2.5388 4.54086,0.23709 z m -864.53379,-3.02458 c 0,-2.40167 -18.48877,-14.56664 -25.36842,-16.69151 -5.66227,-1.74889 -19.12239,-3.093 -22.49579,-2.24634 -3.57652,0.89766 -2.44596,2.55643 4.7396,6.95392 3.7812,2.31398 8.62397,5.75044 10.76169,7.63667 l 3.8868,3.42926 9.86306,0.7069 c 13.95337,1.00014 18.61306,1.05289 18.61306,0.2111 z m 99.16587,0.0136 c 0,-1.8397 -8.38143,-8.34561 -12.95878,-10.05879 -4.48031,-1.67706 -19.54099,-3.51325 -19.54099,-2.38249 0,0.58942 9.02516,6.81706 12.31875,8.50036 2.48664,1.27072 15.1837,4.37461 18.72265,4.57696 0.80209,0.0457 1.45837,-0.2404 1.45837,-0.63604 z m 780.82686,-3.20785 c 0,-2.14414 -7.32677,-14.81297 -9.84602,-17.02486 -3.14857,-2.76451 -12.43213,-7.38108 -14.84267,-7.38108 -0.80422,0 3.85206,5.2092 11.02321,12.33227 11.92525,11.84534 13.66548,13.38274 13.66548,12.07367 z m -989.99182,-16.25879 c 0,-2.335 -8.00009,-10.0145 -14.43768,-13.85926 -9.12054,-5.44697 -20.15027,-9.03975 -30.28584,-9.865 -9.34741,-0.76111 -9.93372,0.10541 -2.57297,3.8033 6.95401,3.4934 16.14628,10.0217 20.55992,14.60139 2.29967,2.3862 3.98034,3.20259 8.74991,4.24994 5.00141,1.09835 13.08823,2.44449 16.94496,2.82076 0.57297,0.0555 1.0417,-0.7321 1.0417,-1.75113 z m 345.95085,-7.10545 c -1.7924,-3.38771 -9.28697,-25.91697 -9.28697,-27.91716 0,-1.20016 0.57015,-4.8926 1.26711,-8.20556 1.32201,-6.28498 7.14341,-48.93064 8.74787,-64.08485 0.91002,-8.59545 1.0054,-8.86778 5.4024,-15.43063 7.41954,-11.0743 17.62811,-31.68182 16.85036,-34.01497 -0.41822,-1.25457 -11.06312,11.51695 -17.07596,20.48751 l -5.44601,8.12496 h -3.65808 c -11.4716,0 -27.8103,-5.54421 -51.08734,-17.33524 -27.38546,-13.8723 -34.01585,-16.34775 -52.30579,-19.52805 l -6.05625,-1.05309 3.05474,-4.52547 c 2.92228,-4.32917 15.26624,-28.84607 15.29427,-30.37627 0.0253,-1.38829 -14.16876,14.06959 -18.95225,20.63964 -18.11893,24.88626 -23.20745,30.79964 -33.7848,39.26273 -11.5882,9.27159 -25.417,15.09571 -57.52064,24.22521 -22.05139,6.27086 -25.39237,7.67132 -29.36162,12.30852 -7.07693,8.26785 -21.19927,36.34191 -21.19927,42.14238 0,1.16746 1.38644,2.04555 5.55044,3.5157 6.47077,2.28429 13.00695,7.67054 14.57696,12.01245 0.57092,1.57886 1.61954,3.04394 2.33023,3.25583 4.26736,1.27208 100.63601,16.51243 111.77202,17.67637 l 5.13252,0.53648 -1.05981,-2.00399 c -1.40766,-2.66154 -16.75663,-23.02438 -26.00807,-34.50376 -8.75848,-10.86768 -13.12852,-18.97377 -13.12852,-24.35252 0,-3.27218 0.64061,-4.56567 5.40522,-10.9141 9.30099,-12.39272 12.38795,-23.42235 8.80617,-31.46381 l -1.82714,-4.10229 4.43282,-3.69468 c 2.43807,-2.03222 8.15533,-7.43063 12.70514,-11.99659 l 8.27222,-8.30182 6.63993,1.0164 c 16.89016,2.58573 28.48537,6.62096 46.75185,16.27047 19.64231,10.37627 33.5005,15.83318 50.06266,19.71327 4.12497,0.96637 8.00526,1.90608 8.62281,2.08828 0.86923,0.25646 0.99148,1.50644 0.54065,5.53447 -0.3203,2.86184 -0.84179,5.48202 -1.15888,5.82267 -1.11519,1.19782 -23.66295,-5.21709 -37.42361,-10.64723 -7.65264,-3.01981 -18.1786,-7.72544 -23.39092,-10.45686 -7.28376,-3.81712 -9.73653,-4.75098 -10.59876,-4.03542 -0.61706,0.51214 -3.82948,4.92617 -7.13883,9.80903 -7.03285,10.37695 -14.47321,18.43116 -23.20171,25.11606 -7.08862,5.42888 -13.68329,12.17616 -14.54046,14.87683 -1.29914,4.09343 16.01236,34.00437 24.33928,42.05352 l 3.2786,3.1692 3.94871,-0.99431 c 10.65307,-2.68246 23.58401,6.12672 23.96748,16.3278 0.1238,3.29272 -1.11674,2.88296 15.25592,5.03859 14.16069,1.86442 31.03518,5.06925 41.24969,7.83405 10.80178,2.92384 11.99104,3.04103 10.95362,1.08025 z M -468.1731,581.24513 c -3.55715,-2.35613 -15.99873,-16.55925 -15.20287,-17.3552 0.79964,-0.79965 8.19601,2.7358 11.9779,5.72515 4.47155,3.53457 7.31198,7.58002 8.10453,11.54294 0.65171,3.25806 -0.073,3.27101 -4.87956,0.0876 z m -25.54839,-6.3461 c -7.97761,-8.00827 -8.63535,-9.65224 -3.13601,-7.83727 5.56212,1.83571 13.04511,10.20624 13.04511,14.59254 0,2.53832 -2.0294,1.15489 -9.9091,-6.75527 z m 147.7287,0.40021 c -5.91561,-4.44118 -14.35329,-13.60679 -13.40201,-14.55807 1.37253,-1.37253 18.08117,12.94515 18.08117,15.49389 0,1.417 -2.10667,0.99566 -4.67916,-0.93582 z m 23.65828,-0.7502 c -1.67337,-0.97514 -8.2004,-10.12186 -9.65195,-13.52572 -2.58777,-6.06871 -0.19719,-7.28891 4.69531,-2.39642 3.5735,3.57341 6.64947,9.33768 7.37768,13.82578 0.5027,3.09709 0.0175,3.51735 -2.42104,2.09636 z m 253.518637,-71.04305 c 0,-0.14599 -0.558665,-2.14648 -1.241423,-4.44566 -1.400457,-4.71595 -2.857753,-5.72417 -9.558224,-6.61307 -4.525961,-0.60032 -4.970946,-0.14697 -2.840624,2.89444 2.242931,3.2022 13.640271,10.02404 13.640271,8.16429 z M 254.87413,482.19761 c 0.25179,-0.40732 -0.86904,-1.75259 -2.49053,-2.98944 -3.61857,-2.75994 -8.19787,-9.52143 -10.43369,-15.4058 -1.56436,-4.11689 -1.57604,-4.35924 -0.17899,-3.7303 2.02501,0.91186 9.9742,1.48143 11.65789,0.83536 1.06691,-0.40936 0.35437,-1.41768 -3.30965,-4.68334 -4.80929,-4.28643 -9.53565,-12.19173 -8.65745,-14.48031 0.33792,-0.88072 1.26984,-1.08414 3.38994,-0.74008 1.60806,0.26093 3.56455,0.22852 4.34776,-0.072 1.23821,-0.47515 1.09221,-0.8961 -1.12035,-3.22799 -3.9527,-4.16604 -4.9909,-6.97279 -7.34576,-19.85799 -1.20521,-6.59457 -2.47788,-12.28935 -2.82816,-12.65511 -0.35029,-0.36586 -1.67716,3.75911 -2.94866,9.16657 -3.13368,13.32668 -5.08404,18.23106 -8.89415,22.36439 -2.80501,3.04307 -3.06244,3.63872 -1.96633,4.54855 0.82116,0.68139 2.42318,0.86096 4.5902,0.51447 2.09081,-0.33432 3.32882,-0.20993 3.32882,0.33462 0,2.24079 -5.48727,11.35042 -8.8814,14.74455 -2.88832,2.88832 -3.52056,3.95776 -2.66174,4.50202 1.74695,1.10692 6.03154,0.86807 9.35802,-0.52177 3.62295,-1.51385 3.73605,-0.93309 0.90594,4.652 -2.51468,4.96238 -6.96647,10.07056 -10.88987,12.4953 -3.59346,2.22093 -2.85815,3.63093 1.52795,2.92958 4.15982,-0.66514 7.54713,-2.37121 12.21081,-6.15008 l 3.65303,-2.95995 1.71161,2.34961 c 3.62928,4.98233 14.4406,10.43865 15.92476,8.03717 z m 47.65691,-13.78597 c 2.34668,-1.07168 5.80884,-3.34177 7.6936,-5.04452 l 3.42703,-3.09612 3.85031,3.38927 c 5.53029,4.86778 16.63156,8.58309 18.17664,6.08302 0.23632,-0.38231 -1.86802,-2.53852 -4.67633,-4.79167 -6.37364,-5.11373 -9.24492,-8.71049 -11.43082,-14.31904 l -1.71074,-4.38921 2.28508,0.62747 c 2.83517,0.77853 10.10189,0.77065 12.14443,-0.0136 1.28765,-0.49414 0.90729,-1.05222 -2.47827,-3.63648 -5.19539,-3.96574 -6.63088,-5.65604 -9.08619,-10.6993 -3.05523,-6.27554 -2.87332,-6.71799 2.62193,-6.37627 6.284,0.39087 7.07596,-0.67994 2.93124,-3.96263 -4.80403,-3.80485 -7.25047,-9.54508 -8.86681,-20.80451 -2.05956,-14.34716 -2.23913,-14.41899 -5.30633,-2.12127 -3.30537,13.25242 -5.53361,18.27631 -10.01694,22.58426 -3.01172,2.89386 -3.30585,3.47764 -2.21081,4.38649 0.74739,0.62027 2.80237,0.92588 5.03304,0.74845 4.46737,-0.35534 4.62212,0.16906 1.73274,5.87104 -2.60363,5.13806 -5.61215,8.69901 -9.24794,10.94613 -1.5848,0.97941 -2.88141,2.10823 -2.88141,2.50834 0,1.31948 6.0038,1.88447 10.75118,1.01192 2.56596,-0.47155 4.71595,-0.80519 4.77765,-0.74135 0.0613,0.0642 -0.83274,2.10064 -1.98783,4.52626 -2.53969,5.33339 -8.21675,11.81361 -13.44075,15.34225 -2.11767,1.43034 -3.9816,2.70242 -4.142,2.8268 -0.16049,0.12448 -0.0204,0.66651 0.31301,1.20483 0.83537,1.3515 6.41763,0.37199 11.74529,-2.06112 z m -402.713,-5.16979 c 3.670344,-0.50309 3.866363,-0.66329 3.866363,-3.1583 0,-1.44552 -0.536182,-4.67585 -1.191396,-7.17835 -1.208039,-4.61346 -7.344877,-20.44741 -8.292177,-21.39461 -0.284,-0.28401 -0.51642,5.22351 -0.51642,12.23893 v 12.75546 l -4.58329,-0.47311 c -2.5208,-0.26016 -4.58329,-0.2767 -4.58329,-0.037 0,1.39365 3.96263,5.62763 6.16361,6.58563 3.00744,1.30916 3.92466,1.37564 9.1366,0.66115 z m 628.86116,-7.87756 c -8.19514,-6.62961 -9.22653,-7.77604 -12.01985,-13.35947 -3.96331,-7.92224 -3.94219,-9.11412 0.14492,-8.16497 4.05577,0.94184 8.64674,0.93707 10.14385,-0.0107 0.92666,-0.5864 0.15738,-1.69001 -3.52153,-5.05231 -4.39924,-4.02073 -8.52645,-10.732 -10.19991,-16.5864 -0.61006,-2.13383 -0.4445,-2.14765 6.397,-0.53375 1.08472,0.25588 2.53335,0.10103 3.21913,-0.34405 1.03187,-0.66972 0.64353,-1.42567 -2.25179,-4.38328 -4.61141,-4.71069 -6.59185,-9.44912 -8.13849,-19.47179 -2.0584,-13.33817 -2.19028,-13.93761 -2.89834,-13.16882 -0.3716,0.40343 -1.32678,3.73352 -2.12264,7.40007 -2.58835,11.92535 -5.98793,19.99308 -10.50902,24.93989 -2.24196,2.45316 -4.0764,4.73269 -4.0764,5.06545 0,0.33296 2.43749,0.45015 5.41661,0.26036 6.357,-0.40469 6.57287,0.01 3.35656,6.44547 -2.74466,5.49175 -6.58367,10.02092 -10.69278,12.61491 l -3.36931,2.12692 2.01947,1.11879 c 2.33432,1.2932 6.50941,1.45009 10.97775,0.41238 1.71872,-0.39915 3.12152,-0.48392 3.11714,-0.18853 -0.0292,2.00876 -6.16254,10.61667 -10.87498,15.26274 -3.10098,3.05737 -5.42099,5.77604 -5.15539,6.04165 1.74325,1.74325 13.82802,-3.30712 17.65098,-7.37651 l 1.95669,-2.08273 4.09188,3.67891 c 4.62036,4.15417 11.14214,7.002 16.08846,7.02526 l 3.3333,0.0156 z m -97.49922,-9.0524 c 0,-0.43623 -1.65409,-1.93129 -3.6756,-3.32211 -5.35578,-3.68495 -11.00696,-10.47438 -14.24011,-17.10847 -1.55666,-3.19412 -2.72324,-5.91444 -2.59253,-6.04525 0.13081,-0.13091 1.47667,0.38016 2.99061,1.13543 3.85313,1.92213 13.28852,2.47428 15.37622,0.8998 1.56698,-1.18186 1.55627,-1.24026 -0.41667,-2.26639 -6.14044,-3.19315 -13.11839,-11.26507 -16.2801,-18.83215 l -1.26011,-3.01601 6.62377,0.5864 c 6.27164,0.55516 10.14122,-0.17392 10.14122,-1.91065 0,-0.33802 -1.34809,-1.3405 -2.99567,-2.22775 -5.2237,-2.81327 -13.67083,-13.8578 -13.67083,-17.87473 0,-0.47399 2.35077,-0.59682 5.83328,-0.30493 3.39899,0.28508 5.83327,0.16507 5.83327,-0.28741 0,-0.42717 -1.64251,-2.51535 -3.64991,-4.64052 -4.40206,-4.66008 -5.82227,-8.55438 -8.09946,-22.21022 -1.8979,-11.38079 -2.81016,-14.65336 -3.51647,-12.61414 -0.23817,0.68753 -1.07626,4.99441 -1.86248,9.57088 -2.37403,13.81896 -5.00774,20.109 -10.8779,25.97916 -2.03737,2.03728 -3.48464,4.05937 -3.21631,4.49355 0.26834,0.43419 2.56888,0.78943 5.11227,0.78943 h 4.62446 l -0.57191,2.2916 c -1.14029,4.56869 -7.90072,13.57681 -12.30444,16.39563 -2.38541,1.52679 -2.43106,1.65965 -0.94681,2.76092 1.64008,1.21679 9.40795,1.13426 12.18415,-0.12955 2.17947,-0.99207 1.85459,0.95538 -1.16882,7.00569 -3.04618,6.09587 -7.47335,10.71605 -12.39544,12.93562 -3.16093,1.42527 -3.33622,1.66003 -1.97995,2.65171 1.75298,1.28181 9.55092,1.43569 13.61954,0.26892 1.57078,-0.45054 3.02963,-0.64539 3.24191,-0.43312 0.21237,0.21237 -0.79936,2.79391 -2.24819,5.73692 -3.34303,6.7906 -9.23869,13.01913 -15.10292,15.95542 -4.36858,2.18746 -4.48275,2.32537 -2.52255,3.05056 4.86544,1.7998 16.34599,-2.5828 22.02228,-8.40683 l 3.25738,-3.34235 4.29033,3.92107 c 5.64241,5.15684 13.32094,9.28648 17.31957,9.3149 1.71872,0.0127 3.12492,-0.33471 3.12492,-0.77103 z M 49.049292,429.397 c 1.484646,-1.4896 2.884616,-3.27081 3.111002,-3.95824 0.319237,-0.96939 1.135237,-0.61473 3.635017,1.58013 1.772738,1.55657 3.340795,2.47749 3.484451,2.04652 0.14356,-0.43087 -0.648985,-3.01699 -1.761447,-5.74666 -1.958635,-4.80646 -1.972164,-4.98223 -0.428926,-5.56143 1.972261,-0.74028 1.970995,-1.01543 -0.04574,-9.77819 -0.901844,-3.91795 -1.856342,-8.52975 -2.121075,-10.24847 -0.264831,-1.71882 -0.779406,-3.12502 -1.143608,-3.12502 -0.364203,0 -1.136697,2.71877 -1.716969,6.04165 -0.580174,3.32289 -1.765243,8.186 -2.633412,10.80685 -1.933037,5.83552 -1.934011,5.65127 0.03017,5.65127 1.359774,0 1.506545,0.35554 0.949048,2.29938 -0.362742,1.26459 -1.740619,4.35837 -3.062046,6.87489 -3.190227,6.07562 -3.105162,5.82568 -1.981507,5.82568 0.542314,0 2.200788,-1.21875 3.685434,-2.70836 z m 45.229531,-11.61185 c -2.737553,-3.65 -5.249889,-8.76908 -5.993282,-12.21139 -0.563239,-2.6083 -0.495109,-2.72509 1.093581,-1.87493 2.170421,1.16161 5.710446,1.16803 6.42503,0.0117 0.304249,-0.49229 -0.192223,-1.71103 -1.103313,-2.70836 -1.925543,-2.10784 -4.269988,-6.54065 -5.230423,-9.88953 -0.620176,-2.16215 -0.495986,-2.34026 1.631611,-2.34026 3.257189,0 3.615066,-0.72451 1.812935,-3.66957 -1.19344,-1.95016 -5.898777,-21.89234 -5.898777,-24.99984 0,-0.2734 -0.326245,-0.49706 -0.724901,-0.49706 -0.398657,0 -1.169205,2.34377 -1.712103,5.20833 -1.707333,9.00793 -4.231056,17.45282 -5.927683,19.83561 -2.263658,3.17903 -2.052942,4.12253 0.920921,4.12253 2.266679,0 2.490631,0.21228 1.977711,1.87494 -0.929388,3.01289 -2.95226,6.69579 -5.073332,9.23713 -2.518078,3.01689 -1.771083,4.19359 2.314074,3.64563 2.13295,-0.28605 3.225071,-0.10667 3.224682,0.52976 0,2.2841 -4.986807,11.2203 -7.385463,13.23859 -1.441043,1.21262 -2.260158,2.42718 -1.820331,2.69902 1.447466,0.89454 6.368576,-1.79591 8.898139,-4.86476 l 2.483721,-3.01319 3.287264,3.42216 c 2.94058,3.06117 7.808163,6.06706 8.579685,5.29807 0.160883,-0.1604 -0.640031,-1.53487 -1.779746,-3.05456 z M 1.1835219,414.24308 c 0,-0.19932 -0.32001546,-1.23061 -0.71127525,-2.29169 -1.86111195,-5.04774 -1.89215965,-6.51253 -0.13791422,-6.51253 2.01041357,0 1.98598417,0.23622 0.43126174,-4.17042 -0.6883058,-1.95075 -1.6468923,-6.0291 -2.13012737,-9.06311 -0.483235,-3.03402 -1.1842908,-5.82432 -1.5579342,-6.20059 -0.3736434,-0.37647 -1.5089781,2.39038 -2.5230417,6.14842 -2.5002669,9.26614 -2.9670535,12.45238 -1.8244192,12.45238 0.5121416,0 1.5166671,1.40114 2.2321274,3.11353 1.3324246,3.18896 4.30337118,6.88637 5.53330901,6.88637 0.37841246,0 0.68801379,-0.16303 0.68801379,-0.36236 z M -29.65943,403.56393 c -0.0097,-0.11465 -0.53404,-2.17714 -1.174558,-4.58329 l -1.16463,-4.375 h 2.007883 c 2.094505,0 2.547763,-0.77717 1.239281,-2.12497 -0.685678,-0.70621 -2.18648,-7.25242 -3.788893,-16.52508 -0.308531,-1.78607 -0.872159,-2.90515 -1.258845,-2.50007 -0.385128,0.40352 -1.83931,4.67107 -3.231494,9.48357 -2.166626,7.48912 -2.358849,8.88228 -1.333885,9.66869 0.658621,0.50523 1.799893,2.38016 2.536084,4.16663 1.367657,3.31811 4.254999,6.9978 5.490874,6.9978 0.378412,0 0.683634,-0.0934 0.678183,-0.20828 z m 180.84174,-1.14497 c 0,-0.28595 -1.73926,-2.0509 -3.86501,-3.92204 -2.53735,-2.23349 -4.82729,-5.40999 -6.6666,-9.24804 -3.00277,-6.2658 -3.71414,-9.77117 -1.63239,-8.0435 2.88053,2.39058 11.33067,2.91167 11.33067,0.69872 0,-0.45472 -1.48241,-2.26541 -3.29427,-4.02375 -3.91172,-3.79619 -8.3535,-11.2274 -8.36449,-13.99415 -0.01,-1.85683 0.20244,-1.938 3.6682,-1.41827 4.80121,0.71994 5.37846,-0.39399 2.23525,-4.3133 -3.17038,-3.95309 -4.71332,-8.3388 -6.32819,-17.98676 -1.71366,-10.23864 -2.96239,-15.56163 -3.6504,-15.56163 -0.31242,0 -1.53944,4.96871 -2.72675,11.04151 -2.52616,12.91994 -4.91703,19.66849 -8.35583,23.58499 -3.18526,3.62781 -2.43564,4.84013 2.6886,4.34785 3.90744,-0.3755 3.97343,-0.34309 3.2384,1.59024 -1.40396,3.69235 -6.73989,11.51092 -9.37982,13.74373 l -2.63137,2.22542 2.28605,0.57384 c 2.45199,0.61531 6.74914,0.2225 9.21417,-0.84237 1.44503,-0.62427 1.45321,-0.50348 0.17461,2.58124 -2.24527,5.41739 -6.81756,11.672 -10.37043,14.18628 -1.85226,1.31082 -3.37583,2.66456 -3.38566,3.00832 -0.01,0.34367 1.20093,0.62125 2.69054,0.61677 3.58324,-0.0107 10.45676,-3.32473 13.40084,-6.46094 l 2.35943,-2.51331 3.43219,3.72339 c 1.88759,2.04789 4.76344,4.42737 6.39048,5.28775 2.84111,1.50226 7.54178,2.19913 7.54178,1.11801 z m 41.63636,-18.80217 c 2.81464,-4.16566 5.33214,-8.64733 5.59453,-9.95912 0.2624,-1.31189 0.63264,-2.38513 0.82272,-2.38513 0.19018,0 1.91007,0.79799 3.82208,1.77342 3.85294,1.96564 11.87376,2.64285 11.87376,1.00238 0,-0.53569 -2.58835,-3.16064 -5.752,-5.83327 -3.47569,-2.9362 -6.72841,-6.60042 -8.21948,-9.25914 l -2.46746,-4.39992 3.63618,0.64996 c 4.17772,0.7467 9.96983,0.69931 12.04934,-0.0987 1.13787,-0.43661 0.68257,-1.01747 -2.26064,-2.88393 -5.80495,-3.68145 -9.7121,-9.09835 -11.95055,-16.5684 -0.54786,-1.8285 -0.45307,-1.85673 4.49413,-1.33962 5.93177,0.61998 6.58202,-0.43331 2.61443,-4.23456 -3.63492,-3.48251 -5.56922,-8.85046 -7.97595,-22.13441 -1.19247,-6.58241 -2.38873,-12.32478 -2.65833,-12.76091 -0.84734,-1.37106 -1.72563,1.26216 -2.72539,8.17091 -1.14331,7.90111 -3.72884,17.92009 -5.51657,21.37729 -0.7031,1.35967 -2.60051,3.93556 -4.21655,5.72417 -3.71074,4.10745 -3.09397,5.34575 2.3059,4.62951 3.37564,-0.4479 4.05986,-0.31612 4.05986,0.78145 0,3.56913 -5.78043,11.38654 -11.40785,15.42781 -3.27423,2.35135 -3.59084,2.82709 -2.34571,3.52396 1.4644,0.81951 9.31256,0.41822 12.70144,-0.64937 1.7923,-0.5647 1.82753,-0.47866 0.90953,2.21529 -1.64582,4.82972 -5.66626,9.87191 -10.98253,13.77361 -2.81862,2.06861 -5.24521,4.08886 -5.39228,4.48936 -0.40547,1.10361 3.72953,1.88788 7.08375,1.34352 1.63658,-0.26561 4.45598,-1.21534 6.26532,-2.11046 l 3.2896,-1.62763 -0.57025,3.46713 c -0.31349,1.90686 -1.46099,6.27953 -2.5499,9.71706 -1.08891,3.43745 -1.98463,6.57706 -1.99046,6.97689 -0.0224,1.51219 2.51184,-1.47696 7.45933,-8.79916 z m 268.2159,6.47914 c 2.33763,-1.18458 5.56854,-3.3112 7.17971,-4.72587 l 2.92939,-2.5721 3.62392,2.96949 c 4.66543,3.82306 8.94506,5.5811 13.85809,5.69302 6.68441,0.15223 6.58767,-0.54124 -1.20327,-8.62319 -6.71692,-6.96763 -10.34833,-12.53588 -10.39116,-15.93303 -0.0175,-1.3735 0.1712,-1.37574 3.50859,-0.0409 3.34994,1.34041 11.63784,2.01664 12.62747,1.03032 0.25481,-0.25393 -2.68295,-3.65779 -6.52839,-7.56416 -5.5629,-5.65137 -7.23967,-7.94082 -8.20595,-11.20492 -0.66796,-2.25637 -1.05114,-4.38367 -0.85133,-4.72743 0.19962,-0.34377 2.59088,-0.62495 5.31374,-0.62495 5.37165,0 6.70368,-1.43384 2.92968,-3.15344 -4.01226,-1.82802 -8.11348,-11.58401 -10.93523,-26.01303 -1.63862,-8.37851 -2.5535,-10.55477 -3.14808,-7.48815 -1.88476,9.72145 -5.0637,21.04297 -6.96248,24.79565 -1.26371,2.49774 -3.80933,5.83941 -5.65691,7.42586 -3.22634,2.77045 -3.29525,2.93172 -1.74169,4.07553 0.92315,0.67964 3.51695,1.19091 6.04165,1.19091 2.43321,0 4.42406,0.20604 4.42406,0.45793 0,2.84062 -11.29018,16.9724 -15.26429,19.10642 -3.48815,1.87289 -3.73945,2.51798 -1.45701,3.73945 2.22658,1.19169 6.30882,1.0636 11.68261,-0.36664 2.49949,-0.66514 4.66407,-1.08968 4.81026,-0.9435 0.54854,0.54835 -4.998,10.19417 -7.89411,13.72836 -1.65623,2.02121 -5.26409,5.13095 -8.01751,6.9106 -6.22025,4.02034 -6.15329,3.94919 -4.66894,4.9543 1.98044,1.34118 9.40815,0.22833 13.99718,-2.09704 z m -524.860421,0.1347 c -0.0097,-0.11455 -0.563433,-2.27076 -1.24006,-4.79157 -0.676529,-2.5208 -1.234609,-4.67711 -1.24006,-4.79166 -0.0097,-0.11456 0.899119,-0.20829 2.010316,-0.20829 h 2.020244 l -1.528249,-4.375 c -0.840527,-2.40625 -2.179862,-7.67589 -2.9763,-11.71045 -0.796534,-4.03455 -1.71619,-7.03459 -2.043894,-6.6666 -0.327704,0.36791 -1.231884,3.29389 -2.00944,6.50212 -0.777459,3.20833 -2.307557,7.80028 -3.400165,10.20448 l -1.986568,4.37102 1.997469,0.50134 c 1.32785,0.33335 2.313591,1.45904 2.940386,3.35841 1.13368,3.435 4.658911,7.81458 6.290328,7.81458 0.646747,0 1.171541,-0.0934 1.165993,-0.20838 z m -39.156439,-12.74134 c 0,-0.24751 -0.74992,-1.92 -1.66665,-3.71678 -2.26892,-4.4477 -2.16887,-5.69828 0.41666,-5.20395 2.45725,0.46971 2.69823,-0.80763 0.85074,-4.51087 -0.67798,-1.359 -1.84855,-6.19777 -2.60129,-10.75283 -0.75274,-4.55516 -1.66071,-8.6011 -2.01791,-8.99109 -0.75643,-0.82583 -0.82466,-0.62826 -4.12652,11.95882 -2.31505,8.82544 -2.4046,9.66431 -1.13232,10.60752 1.25797,0.9326 1.15003,1.39657 -1.20687,5.18809 -1.42362,2.29023 -2.29461,4.34551 -1.93547,4.56752 0.35924,0.222 1.93187,-0.28381 3.49477,-1.12395 2.82164,-1.51676 2.85824,-1.51365 5.19723,0.44995 2.14784,1.80301 4.72763,2.63662 4.72763,1.52757 z m -37.64329,-8.50844 c -0.15543,-0.34377 -1.36376,-2.68403 -2.68519,-5.20064 -1.32143,-2.51652 -2.68208,-5.55005 -3.0235,-6.74096 -0.55974,-1.95143 -0.4263,-2.12799 1.35169,-1.78812 4.20994,0.80481 4.63633,-0.21801 2.10044,-5.03878 -1.49807,-2.84802 -3.05766,-8.14366 -4.30531,-14.6191 -1.07597,-5.5846 -2.23213,-10.15368 -2.56928,-10.15368 -0.8306,0 -1.1911,1.38352 -3.25057,12.47846 -0.9763,5.25904 -2.27553,10.75965 -2.88714,12.22356 -1.21495,2.90768 -0.93903,3.63103 1.38488,3.63103 0.84024,0 1.52776,0.39359 1.52776,0.87478 0,1.64748 -2.68616,6.20799 -5.24463,8.90428 -1.40698,1.4828 -2.33364,2.92034 -2.05937,3.1947 0.64354,0.64344 7.73478,-2.48177 8.52216,-3.7558 0.39895,-0.64538 1.95971,0.30084 4.65522,2.82223 2.23028,2.08614 4.66494,3.79308 5.41028,3.79308 0.74525,0 1.22799,-0.28128 1.07256,-0.62504 z m 396.78542,-16.6483 c 2.39505,-5.37525 4.5538,-11.00024 4.79712,-12.49988 0.24332,-1.49953 0.62066,-2.72655 0.83848,-2.72655 0.21792,0 1.82656,1.1329 3.57477,2.51759 3.90676,3.09416 9.35413,5.56299 13.86676,6.28459 4.50075,0.71974 5.61895,-0.89387 2.27972,-3.28931 -7.47735,-5.36376 -14.2986,-13.99211 -16.14142,-20.41783 -0.72159,-2.51593 -0.65735,-2.64236 1.06069,-2.09109 6.4153,2.05849 12.61959,2.57978 13.51238,1.13523 0.29266,-0.4736 -1.67084,-3.00481 -4.36323,-5.62489 -3.25018,-3.16317 -6.0729,-7.04716 -8.39953,-11.55793 -1.9273,-3.73663 -3.50421,-6.97474 -3.50421,-7.19568 0,-0.22094 2.3862,-0.21023 5.30264,0.0243 6.31019,0.5066 7.55803,-0.5537 4.08808,-3.47335 -5.12871,-4.31564 -8.38707,-12.99401 -10.66056,-28.39388 -1.77615,-12.03105 -2.96258,-16.75848 -3.82111,-15.22439 -0.38659,0.69074 -1.47034,6.08633 -2.40819,11.99007 -0.93806,5.90384 -2.29267,12.79673 -3.01037,15.31753 -1.887,6.62806 -5.91007,13.74957 -9.70324,17.1765 -1.81381,1.63852 -2.97659,3.29262 -2.58407,3.6757 1.83123,1.78685 5.0164,1.6648 8.77999,-0.33627 l 3.88242,-2.06433 -1.26458,3.06574 c -3.15383,7.64602 -7.42946,14.55088 -11.18595,18.06472 -2.24487,2.09966 -4.08146,4.13752 -4.08146,4.52839 0,2.1386 6.32138,2.21919 12.2915,0.1567 2.40624,-0.83128 4.375,-1.27986 4.375,-0.99703 0,0.28284 -1.6612,3.31899 -3.69147,6.7469 -3.73215,6.30123 -10.21042,13.73565 -15.37787,17.64757 -5.34342,4.04506 -0.94272,5.23801 8.52976,2.31222 3.00803,-0.92909 5.69468,-2.05411 5.97031,-2.49997 0.27554,-0.44586 0.91021,-0.81075 1.41048,-0.81075 0.63556,0 0.74184,2.75965 0.35262,9.16668 -0.31768,5.2313 -0.23767,9.16657 0.18648,9.16657 0.40888,0 2.70291,-4.39807 5.09806,-9.77332 z m -435.46632,8.22784 c 0.24216,-0.39175 -0.52226,-1.61049 -1.69857,-2.70826 -2.27369,-2.12214 -5.09961,-7.1073 -6.19611,-10.93065 -0.64451,-2.24731 -0.56918,-2.31544 2.56187,-2.31544 4.19495,0 4.76656,-1.11927 2.15602,-4.22152 -2.43778,-2.89726 -3.21592,-5.47306 -5.14419,-17.02826 -2.21588,-13.27987 -3.37739,-14.10385 -5.286,-3.74997 -1.70334,9.24045 -3.54888,16.11816 -5.20648,19.40338 -1.81595,3.59881 -1.4645,4.76305 1.43764,4.76305 1.11878,0 2.03416,0.34133 2.03416,0.75848 0,1.22857 -6.50475,9.0962 -8.32673,10.07124 -2.45764,1.31529 -2.03932,2.50348 0.8815,2.50348 2.88588,0 5.32688,-1.08395 8.07241,-3.5848 l 1.87727,-1.70986 3.06964,3.58616 c 3.63716,4.24916 8.68373,6.91663 9.76757,5.16297 z m 503.02209,-20.12097 c 1.4281,-4.35418 2.75683,-8.42221 2.95275,-9.04005 0.25072,-0.7905 1.26459,-0.32585 3.42158,1.56796 4.77006,4.18823 10.75069,6.62115 16.29908,6.63059 6.11582,0.0107 6.28663,-1.35871 0.6229,-4.99314 -6.75108,-4.33218 -13.35763,-12.46367 -15.33933,-18.88023 -0.54426,-1.76213 -0.42279,-1.78928 6.0402,-1.34625 6.77006,0.46397 12.63457,-0.16283 12.63457,-1.35052 0,-0.3682 -3.01737,-3.73177 -6.70504,-7.47453 -4.89435,-4.96715 -7.47832,-8.41831 -9.56844,-12.77949 -1.57478,-3.2862 -2.73444,-6.10356 -2.57706,-6.26094 0.15738,-0.15748 1.30011,0.0992 2.53929,0.57034 3.14312,1.195 12.73006,1.09855 13.49292,-0.13577 0.34259,-0.55428 0.11533,-1.1585 -0.51467,-1.36853 -2.26668,-0.75556 -8.68714,-7.34683 -11.75366,-12.06647 -3.00492,-4.62475 -6.33316,-12.76344 -5.54266,-13.55385 0.20546,-0.20555 1.73157,0.19369 3.39131,0.88725 1.65984,0.69356 4.18619,1.26098 5.61419,1.26098 h 2.59623 l -1.77585,-2.29169 c -5.74724,-7.41681 -6.87488,-9.33106 -8.42571,-14.30395 -0.94117,-3.01815 -2.43087,-10.36255 -3.31023,-16.32079 -2.10911,-14.28906 -2.49511,-15.99347 -3.28698,-14.51467 -0.34804,0.64977 -0.89065,3.0564 -1.20589,5.34809 -2.4556,17.85167 -8.02686,33.46994 -13.40133,37.56932 -3.37681,2.57559 -3.54645,3.27539 -1.10984,4.57939 1.35296,0.72412 2.59244,0.71721 5.08103,-0.0282 1.8104,-0.54241 3.49768,-0.78008 3.74957,-0.5282 0.25189,0.25199 -0.71643,2.84365 -2.15183,5.7595 -2.90992,5.91075 -8.02939,12.13246 -12.86641,15.63638 -2.87226,2.08059 -3.04356,2.4007 -1.67687,3.13212 3.11625,1.66782 7.48376,1.91533 12.17616,0.68996 2.65443,-0.69317 4.732,-0.89006 4.732,-0.44829 0,3.47248 -9.26478,16.67837 -15.34546,21.87337 -2.56665,2.19271 -4.48469,4.28118 -4.2623,4.641 0.79439,1.28542 7.35033,1.73585 12.273,0.84316 2.7543,-0.49949 5.16891,-0.7471 5.36571,-0.5503 0.1967,0.1968 -1.54382,3.20094 -3.86802,6.67585 -4.57141,6.83488 -10.15689,12.25879 -15.36755,14.92325 -3.09144,1.58071 -3.19413,1.75006 -1.71581,2.83109 3.03733,2.22093 10.36907,1.64708 16.78408,-1.31374 l 5.11353,-2.36012 0.50221,3.03684 c 0.27632,1.67025 0.5064,5.50557 0.51146,8.52295 0.0156,9.49982 1.52582,8.19747 5.87717,-5.06945 z m -588.84706,0.83157 c -1.48163,-5.28064 -2.30114,-6.16682 -5.26089,-5.68913 -1.54811,0.24984 -1.35481,0.77405 2.17139,5.88943 2.12877,3.08842 4.02015,5.46586 4.20274,5.28308 0.18268,-0.18268 -0.31827,-2.65015 -1.11324,-5.48338 z m 24.75263,-6.82252 c 1.78529,-1.00336 3.81829,-2.69784 4.51788,-3.76553 l 1.27198,-1.94131 3.09553,2.48255 c 3.00569,2.41053 9.09212,5.04861 11.64767,5.04861 0.77658,0 -0.19222,-1.5517 -2.52752,-4.04827 -3.47151,-3.71142 -7.27461,-9.79921 -7.27461,-11.64494 0,-0.41783 1.47579,-0.72101 3.27938,-0.67371 3.77731,0.0991 5.28444,-0.88793 3.16609,-2.07338 -2.62446,-1.46879 -4.67458,-7.00404 -7.23509,-19.53506 -2.43117,-11.8978 -3.66753,-15.35666 -4.57132,-12.78855 -0.22862,0.64947 -1.7594,6.5791 -3.40182,13.17679 -3.21757,12.92578 -4.58815,16.3823 -7.36872,18.58397 -2.45959,1.94734 -0.73269,3.58547 3.65847,3.47024 1.81858,-0.0477 3.30644,0.25266 3.30644,0.66757 0,2.05499 -4.49647,9.2241 -7.07665,11.28288 -1.60776,1.28279 -2.92325,2.61375 -2.92325,2.95742 0,1.30615 5.32483,0.54903 8.43554,-1.19928 z m -22.60207,-5.56747 c 0,-0.39885 -1.48036,-3.86753 -3.28969,-7.7083 l -3.2896,-6.98302 2.15884,-0.41666 c 4.17149,-0.8051 4.17392,-2.58173 0.0127,-9.25943 -5.24142,-8.41062 -5.99017,-10.41656 -10.9727,-29.39957 -2.60723,-9.93352 -4.56849,-16.00798 -4.89435,-15.15888 -0.29909,0.7794 -1.86607,6.92588 -3.48231,13.65915 -3.43627,14.31582 -5.69438,21.51841 -8.50688,27.13503 -1.5264,3.04823 -1.79464,4.29393 -1.07626,4.99995 2.10687,2.07095 8.59312,-9.88914 10.98672,-20.25849 0.5354,-2.31963 1.19499,-4.21753 1.46576,-4.21753 0.27077,0 1.20697,2.53121 2.08059,5.62499 2.33919,8.28468 6.77823,18.43749 9.59229,21.93907 2.73453,3.40269 2.57248,4.10229 -0.94993,4.10229 -4.82962,0 -3.50976,3.90335 4.29705,12.70825 3.19499,3.60339 5.86802,5.07626 5.86802,3.23315 z M 16.391557,263.42168 c 7.67677,-5.36785 15.090754,-11.14088 16.475346,-12.82894 4.446639,-5.42109 21.614476,-28.87945 21.632287,-29.55842 0.0097,-0.36079 -2.201371,0.85065 -4.913133,2.69211 -13.717159,9.31509 -26.570725,21.76747 -41.2543548,39.9665 -7.39130639,9.16093 -9.5195845,12.3205 -6.9398004,10.30318 0.5728744,-0.4481 7.3227873,-5.20648 14.9996552,-10.57443 z m 359.385843,6.89454 c 2.59273,-2.27641 5.40299,-6.3132 5.40299,-7.76106 0,-0.25714 -1.97859,1.1439 -4.39671,3.11354 -2.41822,1.96963 -5.60572,4.08195 -7.08326,4.69404 -3.50684,1.45253 -3.41905,2.57726 0.20108,2.57726 2.05051,0 3.75395,-0.76072 5.8759,-2.62378 z M 116.0753,241.22352 C 108.61188,233.199 89.849412,216.2738 88.417129,216.2738 c -0.705241,0 9.153338,16.52022 11.907051,19.95289 1.45885,1.81848 6.3312,5.12852 13.05143,8.86671 5.898,3.28074 10.86281,5.84291 11.03294,5.6937 0.17013,-0.1492 -3.57983,-4.45287 -8.33325,-9.56358 z m -232.80746,-9.40288 c 13.66762,-9.09115 26.986418,-18.68071 30.707279,-22.1091 2.175191,-2.00438 14.709033,-25.56581 14.709033,-27.65049 0,-2.34814 -12.347751,8.85153 -30.842752,27.97508 -20.22123,20.90855 -29.15675,30.36984 -29.15675,30.87234 0,0.60947 0.071,0.56519 14.58319,-9.08783 z m 500.45262,6.92121 c 2.7287,-2.16127 6.6265,-7.15733 6.6265,-8.49394 0,-0.22678 -3.09368,0.84802 -6.87488,2.38834 -3.78121,1.54032 -8.28118,3.03674 -9.9999,3.32541 -1.71882,0.28878 -3.12502,0.81289 -3.12502,1.16473 0,0.89805 6.75926,4.1457 8.63001,4.14648 0.85065,3.9e-4 2.98515,-1.13855 4.74329,-2.53102 z M -13.022908,178.88153 c 12.34794588,-11.28288 23.0146418,-20.10725 24.304923,-20.10725 0.458319,0 0.668743,0.28118 0.467955,0.62495 -4.9111867,8.40469 -11.84699663,20.92734 -17.4263419,31.46381 -3.8848594,7.33631 -9.9306021,18.15357 -13.4350051,24.03824 -3.504306,5.88466 -6.371501,10.86223 -6.371501,11.06126 0,0.35681 22.9189681,-19.54897 38.333047,-33.29329 4.354079,-3.88252 8.025984,-6.76898 8.159616,-6.41451 0.274563,0.72811 -4.443135,12.79322 -11.1482765,28.51067 -2.4812879,5.81605 -4.5113617,10.81424 -4.5113617,11.10691 0,1.05708 18.0216012,-15.6247 22.3356792,-20.67506 4.425907,-5.18128 10.396609,-14.96433 14.854927,-24.33987 2.008564,-4.22356 5.775851,-8.3642 24.262293,-26.6664 18.172748,-17.99172 21.884071,-22.05868 21.882222,-23.97897 0,-1.27188 -1.27539,-4.84033 -2.83128,-7.92992 -1.555988,-3.08959 -3.850211,-8.89269 -5.098252,-12.89571 -1.248041,-4.00301 -2.506301,-7.24667 -2.796047,-7.20813 -1.819841,0.24206 -13.806114,15.83901 -23.026609,29.96301 -9.871232,15.12102 -15.635695,22.7611 -14.339769,19.00598 0.261424,-0.75741 1.852255,-6.3824 3.535159,-12.49988 C 50.448581,115.6739 50.365365,115.8596 58.246233,107.1019 65.52824,99.009737 70.001838,91.564029 70.897258,86.046166 71.56785,81.91421 70.550964,81.999605 62.898137,86.717858 46.730445,96.685926 34.341038,108.3661 16.32148,130.6282 c -5.389068,6.65794 -14.7804712,14.21626 -32.738518,26.34853 -13.794535,9.31938 -20.301516,16.75302 -29.70528,33.93575 -4.247602,7.76125 -12.401087,21.61136 -18.118833,30.77793 -5.717746,9.16658 -10.385709,17.04151 -10.373348,17.49983 0.01265,0.45832 11.353347,-10.61901 25.202095,-24.61618 13.84865,-13.99737 30.223943,-30.05897 36.389496,-35.69253 z m -527.860662,52.25216 c 7.40016,-7.0746 18.45666,-20.41909 17.61525,-21.26049 -0.20069,-0.20069 -2.86826,0.50114 -5.92788,1.55949 -5.34381,1.84866 -5.54469,2.01713 -5.09844,4.27505 0.63127,3.19412 -1.32756,6.6704 -5.05776,8.97581 -4.54932,2.81162 -15.02555,3.23675 -20.57015,0.83479 -2.21509,-0.95956 -4.20176,-1.74461 -4.415,-1.74461 -0.21325,0 0.74261,1.64261 2.12389,3.65039 2.7325,3.97148 10.70359,11.29651 12.32848,11.32912 0.55565,0.0107 4.60636,-3.41759 9.00161,-7.61955 z m 278.93543,-9.6499 c 4.46387,-3.82413 8.55954,-7.77955 9.10176,-8.78982 1.45496,-2.71127 7.33252,-18.39719 7.01318,-18.71653 -0.15066,-0.15085 -1.56562,1.523 -3.14419,3.7195 -1.57857,2.19651 -4.92257,6.24361 -7.43121,8.99363 -2.50873,2.74991 -8.41559,9.9631 -13.12638,16.02919 -4.71088,6.06608 -8.91332,11.24444 -9.33884,11.50742 -0.42542,0.26298 -0.77366,0.87654 -0.77366,1.36357 0,0.89075 2.76996,-1.31695 17.69934,-14.10696 z m 431.76366,11.24823 c -2.14716,-3.5409 -17.45165,-22.10092 -22.7392,-27.57622 -5.84798,-6.05567 -22.2186,-19.83756 -27.95522,-23.53457 l -2.47828,-1.59716 1.22829,1.70529 c 9.90812,13.75706 19.74888,25.74645 25.28142,30.80188 5.57798,5.09679 26.1233,21.23801 27.03712,21.24141 0.14171,5.9e-4 -0.0263,-0.46776 -0.37413,-1.04063 z m 340.55146,-1.48776 c 1.44756,-2.03299 1.60221,-2.7688 0.78797,-3.74996 -0.55721,-0.67137 -1.48446,-1.2206 -2.06064,-1.2206 -0.57618,0 -3.6138,-1.29145 -6.75011,-2.87011 -3.1363,-1.57847 -5.87279,-2.6995 -6.08117,-2.49122 -0.20828,0.20828 0.71303,1.59356 2.04721,3.0783 5.7449,6.39282 9.08988,9.78296 9.65253,9.78296 0.3317,0 1.4136,-1.13826 2.40421,-2.52937 z m -696.51612,-34.13703 c 3.75609,-5.27072 8.63029,-11.98287 10.83166,-14.91576 l 4.00244,-5.33252 v 3.40834 c 0,1.87464 0.32974,3.61215 0.73278,3.86121 0.40294,0.24916 3.92496,-3.38488 7.82646,-8.07572 3.9016,-4.69074 10.74067,-12.84111 15.19772,-18.11182 5.56786,-6.58407 9.09582,-11.66967 11.27286,-16.24984 3.69448,-7.77244 9.96982,-24.03766 9.96982,-25.84096 0,-3.98199 -7.56698,1.42051 -19.9998,14.27914 -21.92077,22.67146 -36.95293,39.60113 -40.97288,46.14481 -0.70388,1.14584 -4.3789,8.83322 -8.16652,17.08316 -3.78773,8.24994 -7.72836,16.49987 -8.75702,18.33325 -1.02867,1.83327 -3.25515,5.95824 -4.94769,9.16657 l -3.07732,5.83327 9.62917,-9.9999 c 5.29603,-5.50002 12.70222,-14.31241 16.45832,-19.58323 z m 437.18007,21.87483 c -6.30103,-7.72758 -32.86894,-34.96597 -33.49486,-34.34015 -0.49452,0.49462 6.99635,12.56382 13.04015,21.00987 2.29208,3.20307 5.82373,6.81989 8.33325,8.53414 2.39554,1.63638 6.98038,4.82806 10.18871,7.0927 3.20833,2.26473 6.14054,4.12759 6.51604,4.13966 0.37549,0.0117 -1.68699,-2.88413 -4.58329,-6.43622 z m 141.30085,-16.09771 c 1.11304,-1.88515 1.23393,-2.51857 0.41666,-2.18288 -0.63331,0.26016 -3.21397,1.09932 -5.73478,1.865 -2.5208,0.76559 -4.90817,1.6941 -5.30527,2.06336 -0.3971,0.36927 0.72792,1.42119 2.49998,2.33754 3.14078,1.62421 3.264,1.62723 4.8886,0.11952 0.91674,-0.85065 2.37238,-2.74184 3.23481,-4.20254 z m -92.08514,-10.15203 c -5.14,-9.70538 -32.50473,-45.79627 -33.76659,-44.53441 -0.49862,0.49851 7.44152,18.12194 10.85191,24.08603 3.96457,6.93347 4.11231,7.09562 11.34926,12.45082 3.43744,2.54377 7.37486,5.75745 8.74991,7.14156 3.02623,3.04638 4.15787,3.39043 2.81551,0.856 z m -960.266,-9.9999 c 5.18361,-5.74704 12.15397,-14.95702 11.6792,-15.43169 -0.20624,-0.20634 -1.49185,0.42026 -2.85678,1.39228 -2.80646,1.99834 -12.67672,6.64898 -18.73414,8.82729 l -4.03679,1.45165 4.26473,4.06764 c 2.34562,2.23729 4.59624,4.06774 5.00132,4.06774 0.40508,0 2.51214,-1.96876 4.68246,-4.37491 z m 548.89487,-26.04145 c 1.63025,-2.75001 5.61555,-10.24994 8.85629,-16.6665 3.240647,-6.41666 7.11227,-13.72913 8.603631,-16.24993 l 2.71147,-4.58319 -3.722906,3.17222 c -8.441675,7.19295 -18.285365,19.23879 -24.306585,29.74411 -2.49822,4.35846 -16.4989,30.03727 -16.50045,30.26366 -6.8e-4,0.0837 4.81288,-4.53472 10.69657,-10.26386 6.62076,-6.44673 11.82744,-12.32205 13.66198,-15.41651 z m 272.2374,0.29539 c -9.60689,-16.80042 -14.74826,-23.64912 -26.72217,-35.59627 -13.02817,-12.99888 -15.67161,-14.73989 -8.91858,-5.87367 2.93581,3.8545 10.38541,14.88306 16.55467,24.50805 9.53311,14.87293 12.34424,18.59 18.72771,24.76246 4.13101,3.99445 7.63473,6.90428 7.78607,6.4663 0.15135,-0.43788 -3.1912,-6.85804 -7.4277,-14.26687 z m 173.28302,0.0263 c -13.29582,-18.74835 -16.65462,-23.2384 -17.38332,-23.2384 -0.75507,0 3.41593,10.23943 7.32688,17.98695 2.04224,4.04565 3.83269,6.03377 9.11294,10.11845 3.61429,2.79605 7.07266,5.68757 7.68524,6.42571 0.61268,0.73814 1.25933,1.19675 1.43705,1.01903 0.17773,-0.17772 -3.50274,-5.71804 -8.17879,-12.31174 z m -110.39151,-2.88471 c -4.37812,-10.86311 -14.11514,-31.29397 -18.76743,-39.37865 -5.12444,-8.90564 -10.73064,-15.703629 -22.4515,-27.22457 -9.35724,-9.197691 -9.88243,-9.501706 -5.75726,-3.333339 1.22614,1.833315 4.58513,7.645761 7.46469,12.916571 4.53005,8.292078 41.75365,65.172198 42.30706,64.648088 0.11105,-0.10502 -1.14702,-3.53778 -2.79556,-7.6281 z m -270.929989,-9.1038 c 2.338313,-2.75001 8.119809,-10.89357 12.847629,-18.09694 C -21.490178,107.74894 -15.984511,99.92657 8.6122024,66.274855 11.875231,61.810619 11.863649,61.86453 5.7087043,79.711797 -0.7206091,98.35462 -11.523662,126.76203 -14.169143,131.98204 c -1.242591,2.45189 -2.094116,4.62299 -1.892257,4.82485 0.765098,0.765 25.5132537,-24.53909 29.355775,-30.01527 2.212467,-3.15314 6.616963,-11.590534 9.787724,-18.749902 C 30.147356,72.0888 34.617742,64.439272 43.28113,53.478246 46.95576,48.82897 51.805143,42.499466 54.057515,39.41267 c 2.252371,-3.086806 4.235533,-5.472021 4.407025,-5.30048 0.730741,0.730663 -8.760423,30.578909 -12.678082,39.87093 -1.027885,2.437714 0.588544,1.672042 6.668741,-3.159004 9.3988,-7.467836 21.785287,-20.119844 23.827235,-24.338043 1.737111,-3.588222 1.792102,-4.214559 0.854834,-9.731322 C 76.58639,33.511801 75.165689,26.783933 73.98023,21.803955 71.378936,10.87603 71.711604,8.2627255 77.489013,-5.7561717 c 2.08944,-5.0700653 4.016638,-9.7808033 4.282636,-10.4682923 0.860869,-2.225012 -8.03036,6.8394452 -15.939258,16.24986628 C 61.595105,5.0670281 54.665816,13.879455 50.433787,19.608569 c -4.231932,5.729123 -8.391647,11.354077 -9.243756,12.499903 -1.511801,2.033072 -1.512482,1.962743 -0.02725,-2.916647 3.535256,-11.616639 10.965494,-30.9360169 13.51715,-35.1461961 1.513455,-2.4972692 5.88447,-8.5452499 9.713365,-13.4399779 7.686309,-9.825926 9.066424,-12.212299 11.661489,-20.163253 2.512721,-7.698688 6.748546,-24.166473 6.216063,-24.166473 -0.246241,0 -2.238648,1.314662 -4.427562,2.921455 -6.162143,4.523421 -16.971231,16.355633 -27.441129,30.03868 -5.242102,6.85089 -12.521871,16.206126 -16.17723,20.7894231 C 25.656044,0.76966212 22.869826,6.640457 22.278459,15.197192 21.739553,22.99645 20.137334,26.259878 9.7180466,40.779675 3.2648878,49.772285 -17.03624,76.327127 -19.01074,78.358086 c -1.455058,1.496705 0.229111,-6.255514 3.711323,-17.083191 C -10.150457,45.264671 -0.33479968,24.202825 8.7681223,9.6325339 11.465576,5.3148941 10.78603,4.6189772 5.5572614,6.3445984 0.92550458,7.8732371 -18.990398,28.02082 -24.852774,37.108422 c -2.513114,3.895809 -9.54489,16.270704 -15.625962,27.499773 -12.273392,22.663364 -20.966172,38.575855 -32.342002,59.203135 -7.563578,13.71482 -10.605574,19.96281 -9.7194,19.96281 0.508541,0 17.123261,-14.29938 34.141019,-29.38332 5.958341,-5.28123 10.926562,-9.51832 11.040728,-9.41573 0.522167,0.46951 -11.646402,31.78732 -18.475248,47.54896 l -2.166237,4.99995 3.411552,-3.74996 c 1.876393,-2.06248 5.324735,-5.9999 7.663047,-8.74991 z M 236.7554,119.816 c -0.1969,-0.34376 -3.25671,-5.68738 -6.79965,-11.87483 -3.54295,-6.18746 -7.43199,-12.562363 -8.64207,-14.166523 -3.20561,-4.249354 -13.64358,-15.09928 -14.09324,-14.649575 -1.24911,1.249044 15.87366,26.884908 23.56056,35.274408 4.91323,5.36221 7.05562,7.30459 5.9744,5.41652 z M 140.54286,76.940714 c -4.58445,-6.553719 -11.65974,-16.426702 -15.7228,-21.939962 -4.06317,-5.513249 -9.23334,-12.729754 -11.48951,-16.036658 -2.25617,-3.306905 -4.23923,-5.875409 -4.40693,-5.70778 -0.91742,0.917504 11.32084,27.163163 15.85021,33.991376 4.36634,6.582586 6.55973,8.893189 14.28088,15.043686 5.01708,3.996632 9.27987,7.108753 9.47277,6.915848 0.19291,-0.192807 -3.40016,-5.712792 -7.98462,-12.26651 z m -8.6921,-62.001267 c -5.0052,-8.723176 -22.07513,-32.534721 -22.80207,-31.807728 -0.41939,0.419349 4.81298,13.574642 7.53788,18.9519531 1.7777,3.5080724 19.40765,22.9908839 20.14083,22.2576319 0.18112,-0.181051 -2.01334,-4.411893 -4.87664,-9.401857 z M 47.016493,688.87223 c 0,-2.8378 36.492856,-12.29802 44.790775,-11.61127 l 3.125504,0.2587 -4.166625,2.17539 c -5.968269,3.11606 -18.78942,7.15723 -27.40064,8.63652 -8.173631,1.40416 -16.349014,1.67444 -16.349014,0.54066 z m 68.434347,-16.68879 c -0.63166,-0.40011 -0.89678,-1.13455 -0.58922,-1.63219 1.4499,-2.346 20.85152,-5.85167 24.63584,-4.45151 l 2.06492,0.76413 -2.52217,1.3042 c -7.68592,3.97459 -20.27154,6.11689 -23.58937,4.01537 z M 3.9073519,656.32 c -7.9673926,-1.29846 -5.7600839,-2.63205 8.8907461,-5.37174 20.951086,-3.91757 51.719484,-7.54295 59.634904,-7.02662 4.143752,0.27038 4.100733,0.29364 -7.838725,4.24312 C 44.390964,654.84771 17.252036,658.4947 3.9073519,656.32 Z M 237.88178,640.64508 c 0.0185,-0.34376 2.33218,-2.31252 5.14156,-4.375 9.15723,-6.72257 21.84047,-19.52689 24.75069,-24.9871 1.46936,-2.75692 3.02467,-5.0126 3.45612,-5.0126 1.56855,0 0.73201,6.44469 -1.38916,10.70115 -4.17509,8.3785 -14.09742,17.30838 -24.73482,22.26102 -4.33277,2.01723 -7.28785,2.59497 -7.22439,1.41253 z m 271.63094,-4.49696 c -13.44026,-4.13411 -27.00052,-6.60275 -39.16637,-7.13017 l -11.24988,-0.48771 -12.70826,-12.53122 c -6.98953,-6.89211 -12.70825,-12.98846 -12.70825,-13.54751 0,-2.25267 20.8447,3.81186 27.91648,8.12214 1.37496,0.83809 2.80452,1.52513 3.1767,1.52689 1.16473,0.01 -4.70904,-7.61078 -7.54362,-9.7813 -5.10536,-3.90939 -1.09047,-4.32722 9.36687,-0.97484 2.86992,0.92004 7.30751,3.34702 10.41656,5.69711 2.97913,2.25188 5.54373,3.74325 5.69906,3.31432 0.15534,-0.42902 -0.48829,-2.08623 -1.43024,-3.68271 -1.7013,-2.88345 -1.70159,-2.90282 -0.0496,-2.90282 4.93697,0 19.50108,9.59015 27.59598,18.1711 4.47622,4.74505 11.51851,14.80646 11.51851,16.45666 0,0.76744 -3.1511,0.113 -10.83322,-2.24994 z m -334.6626,0.25471 c 0.31446,-0.50903 3.92885,-2.6592 8.03172,-4.77833 20.17042,-10.41754 39.97799,-27.17095 45.65126,-38.61219 6.86603,-13.8468 1.03353,-25.94733 -18.78212,-38.96626 -7.98005,-5.24278 -21.956,-12.47982 -32.7355,-16.95099 -5.44737,-2.25948 -5.81216,-2.53384 -2.84053,-2.13626 4.22901,0.56587 23.06379,6.33111 30.29811,9.27412 20.88451,8.49618 35.70469,19.38955 40.99458,30.13246 3.06351,6.22171 2.75916,13.24142 -0.89629,20.6665 -5.36639,10.90096 -20.25208,23.3912 -37.63929,31.58255 -13.73877,6.47243 -33.81906,12.59915 -32.08194,9.7884 z M 73.025926,630.22842 c 0.517105,-1.70889 7.213094,-4.58961 15.822854,-6.80704 8.55837,-2.2043 26.75234,-5.01163 28.42434,-4.38591 0.54601,0.20429 -1.44464,1.52329 -4.42386,2.93085 -12.35748,5.83872 -40.880709,11.75658 -39.823334,8.2621 z M -220.96581,610.5135 c -6.28946,-4.23037 -16.1568,-13.31899 -14.51535,-13.36979 1.9233,-0.0594 11.52338,4.70494 14.90008,7.39471 3.59239,2.86165 6.07679,6.81756 5.18644,8.25821 -0.46611,0.7541 -1.97519,0.13577 -5.57117,-2.28313 z m 14.50347,-0.28488 c -3.75395,-3.65876 -9.85284,-14.23553 -8.80987,-15.2784 0.87109,-0.87119 6.83158,3.32931 9.28094,6.54056 3.6537,4.79011 6.04428,12.27952 3.9197,12.27952 -0.41637,0 -2.39213,-1.59375 -4.39077,-3.54168 z m 345.9781,-0.60353 c 0,-0.96725 2.641,-2.41267 13.74986,-7.52513 11.3733,-5.23422 19.62284,-10.2623 24.77735,-15.10156 2.37919,-2.23369 4.43379,-4.06122 4.56577,-4.06122 0.79712,0 -0.0253,3.26468 -1.63288,6.48411 -2.47603,4.95781 -9.4753,11.08229 -16.79195,14.69317 -8.63186,4.26006 -24.66815,7.84232 -24.66815,5.51063 z M -706.61198,474.58031 c -1.31159,-0.39301 -6.18657,-1.33126 -10.83332,-2.08516 -4.64665,-0.75381 -9.29223,-1.53224 -10.32342,-1.72972 -1.74539,-0.33423 -1.87503,-0.79011 -1.87503,-6.59322 0,-4.4371 0.30026,-6.23105 1.04171,-6.22385 2.10346,0.0204 13.68669,5.57137 18.61384,8.91985 4.35612,2.96063 7.84427,6.57307 7.84427,8.1239 0,0.59886 -1.58119,0.45316 -4.46805,-0.4118 z m 10.15689,-9.70792 c -4.39486,-3.53895 -9.02214,-8.04418 -9.02214,-8.78397 0,-0.97669 7.62577,3.02876 10.71439,5.62771 2.44275,2.05538 3.58674,5.38868 1.84943,5.38868 -0.42318,0 -2.01693,-1.00462 -3.54168,-2.23242 z m 623.712117,-11.32697 c -5.238015,-5.40191 -5.98462,-6.58474 -6.880722,-10.90145 -1.438804,-6.93046 -0.867001,-8.18473 5.730593,-12.57083 9.333201,-6.20467 18.890938,-9.85711 19.773803,-7.55637 1.131831,2.94944 -10.081752,37.08812 -12.182292,37.08812 -0.311256,0 -3.209888,-2.72675 -6.441382,-6.05947 z"
       id="path8" /></g></svg>
