<?xml version="1.0" encoding="UTF-8" standalone="no"?>
<!-- Created with Inkscape (http://www.inkscape.org/) -->

<svg
   width="1080"
   height="1080"
   viewBox="0 0 285.74997 285.74997"
   version="1.1"
   id="svg1"
   inkscape:version="1.4.2 (f4327f4, 2025-05-13)"
   sodipodi:docname="105.svg"
   xml:space="preserve"
   xmlns:inkscape="http://www.inkscape.org/namespaces/inkscape"
   xmlns:sodipodi="http://sodipodi.sourceforge.net/DTD/sodipodi-0.dtd"
   xmlns="http://www.w3.org/2000/svg"
   xmlns:svg="http://www.w3.org/2000/svg"><sodipodi:namedview
     id="namedview1"
     pagecolor="#ffffff"
     bordercolor="#000000"
     borderopacity="0.25"
     inkscape:showpageshadow="2"
     inkscape:pageopacity="0.0"
     inkscape:pagecheckerboard="0"
     inkscape:deskcolor="#3c3c3c"
     inkscape:document-units="px"
     inkscape:zoom="0.41041912"
     inkscape:cx="219.28803"
     inkscape:cy="307.00324"
     inkscape:window-width="1920"
     inkscape:window-height="991"
     inkscape:window-x="-9"
     inkscape:window-y="-9"
     inkscape:window-maximized="1"
     inkscape:current-layer="layer1" /><defs
     id="defs1"><inkscape:path-effect
       effect="spiro"
       id="path-effect15"
       is_visible="true"
       lpeversion="1" /><inkscape:path-effect
       effect="spiro"
       id="path-effect3"
       is_visible="true"
       lpeversion="1" /><inkscape:path-effect
       effect="fillet_chamfer"
       id="path-effect2"
       is_visible="true"
       lpeversion="1"
       nodesatellites_param="F,0,0,1,0,0,0,1 @ F,0,1,1,0,38.620634,0,1 @ F,0,0,1,0,0,0,1 @ F,0,0,1,0,0,0,1 @ F,0,0,1,0,0,0,1 @ F,0,0,1,0,38.620634,0,1 @ F,0,0,1,0,0,0,1"
       radius="0"
       unit="px"
       method="auto"
       mode="F"
       chamfer_steps="1"
       flexible="false"
       use_knot_distance="true"
       apply_no_radius="true"
       apply_with_radius="true"
       only_selected="false"
       hide_knots="false" /><inkscape:path-effect
       effect="fillet_chamfer"
       id="path-effect1"
       is_visible="true"
       lpeversion="1"
       nodesatellites_param="C,0,0,1,0,45.584779,0,1 @ F,0,0,1,0,37.379523,0,1 @ F,0,0,1,0,82.964302,0,1 @ F,0,0,1,0,0,0,1"
       radius="0"
       unit="px"
       method="auto"
       mode="F"
       chamfer_steps="1"
       flexible="false"
       use_knot_distance="true"
       apply_no_radius="true"
       apply_with_radius="true"
       only_selected="false"
       hide_knots="false" /></defs><g
     inkscape:label="Capa1"
     inkscape:groupmode="layer"
     id="layer1"
     style="display:inline;opacity:1;mix-blend-mode:multiply"><g
       id="g20"><path
         style="fill:#55ff55;stroke:#000000;stroke-width:4.89518;stroke-linecap:round;stroke-linejoin:round;stroke-miterlimit:4.7;stroke-dasharray:none;paint-order:stroke fill markers"
         d="m 126.35501,227.31122 c -5.86808,-0.35181 -11.67089,-1.85453 -16.81363,-4.35415 -6.60848,-3.21203 -11.938866,-7.60862 -16.327134,-13.46687 -3.322128,-4.43498 -6.045076,-9.88344 -7.531244,-15.0696 -0.345911,-1.2071 -0.403895,-1.55516 -0.271661,-1.63074 0.633462,-0.36205 5.660411,-1.29448 8.216206,-1.524 1.909819,-0.17151 5.851633,-0.17151 7.761453,0 12.80145,1.1496 24.22597,7.6288 31.96084,18.12597 2.0829,2.82675 4.15673,6.54282 5.54495,9.93594 0.62329,1.52346 1.81666,5.05882 2.00507,5.94005 l 0.0876,0.40984 -1.65684,0.39426 c -2.03014,0.48309 -3.47331,0.73618 -5.66693,0.99382 -1.70785,0.20058 -5.77755,0.33727 -7.30871,0.24548 z"
         id="path16" /><path
         style="fill:#55ff55;stroke:#000000;stroke-width:4.89518;stroke-linecap:round;stroke-linejoin:round;stroke-miterlimit:4.7;stroke-dasharray:none;paint-order:stroke fill markers"
         d="m 154.68432,227.31122 c -2.66641,-0.15986 -5.63595,-0.61395 -8.49208,-1.29858 l -1.44209,-0.34568 0.25037,-0.92436 c 1.7588,-6.49349 5.16207,-12.93075 9.55862,-18.08009 1.43639,-1.68234 4.62694,-4.75888 6.25944,-6.03577 5.3093,-4.15279 11.42227,-7.05147 17.92625,-8.50037 6.41904,-1.42997 13.64715,-1.33039 20.17979,0.278 l 1.48761,0.36627 -0.0359,0.43806 c -0.0516,0.62907 -1.44148,4.73255 -2.22379,6.56553 -3.68472,8.63341 -10.04485,16.11879 -17.77136,20.91549 -5.55654,3.44956 -11.79704,5.61965 -18.32343,6.37185 -1.77067,0.20408 -5.83704,0.34176 -7.37339,0.24965 z"
         id="path17" /><path
         style="fill:#9955ff;stroke:#000000;stroke-width:4.89518;stroke-linecap:round;stroke-linejoin:round;stroke-miterlimit:4.7;stroke-dasharray:none;paint-order:stroke fill markers"
         d="m 176.09172,112.69833 c -5.63013,-8.2483 -12.56796,-15.935174 -20.8693,-23.122478 -2.91628,-2.524916 -7.6984,-6.362226 -8.91603,-7.154483 -0.32575,-0.211957 -0.59269,-0.426732 -0.59318,-0.477277 -0.002,-0.148804 5.13227,-3.469789 8.59451,-5.559742 8.16801,-4.930559 17.22837,-9.467331 26.23771,-13.137945 3.44965,-1.40547 9.1502,-3.54235 9.44991,-3.54235 0.27872,0 0.23154,0.138609 -1.25122,3.67604 -3.92361,9.360565 -7.06334,20.062588 -8.9208,30.407174 -1.06874,5.952096 -1.65739,10.952211 -2.23715,19.002961 l -0.13663,1.89734 z"
         id="path18" /><path
         style="fill:#ccaaff;stroke:#000000;stroke-width:4.89518;stroke-linecap:round;stroke-linejoin:round;stroke-miterlimit:4.7;stroke-dasharray:none;paint-order:stroke fill markers"
         d="m 134.37518,154.83351 c -1.56522,-0.41156 -4.82215,-1.72172 -7.23761,-2.91146 -3.4645,-1.70647 -5.26861,-3.05048 -8.54493,-6.36573 -7.5095,-7.59872 -9.4525,-12.94882 -10.11668,-27.85664 -0.24841,-5.57561 -0.71206,-12.35992 -1.03034,-15.07625 -1.35041,-11.525014 -4.78829,-25.311005 -9.029874,-36.209996 -1.281724,-3.293466 -2.330406,-6.080123 -2.330406,-6.192574 0,-0.411469 7.69654,2.579607 15.00548,5.831517 27.54713,12.256332 50.0141,30.124495 63.21395,50.274553 3.35629,5.1235 3.44253,5.58168 2.19498,11.66211 -2.70182,13.16827 -12.8685,23.84244 -25.57464,26.85124 -4.1956,0.99352 -12.75898,0.99001 -16.54993,-0.007 z"
         id="path19" /><path
         style="fill:none;stroke:#000000;stroke-width:4.89513;stroke-linecap:round;stroke-linejoin:round;stroke-miterlimit:4.7;stroke-dasharray:none;paint-order:stroke fill markers"
         d="m 106.74017,120.43267 v 0.86669 c 0,20.6605 16.11613,36.348 36.13481,36.348 20.01866,0 36.1348,-16.2112 36.1348,-36.348 v -0.86669 c 0,-20.68338 4.33452,-41.134439 12.72088,-60.019317 l 1.59633,-3.594732"
         id="path9"
         sodipodi:nodetypes="csssssc" /><path
         id="path10"
         style="fill:none;stroke:#000000;stroke-width:4.89513;stroke-linecap:round;stroke-linejoin:round;stroke-miterlimit:4.7;stroke-dasharray:none;paint-order:stroke fill markers"
         d="M 142.87497,81.913835 C 157.86407,71.242742 175.28825,62.72285 193.32699,56.818621" /><path
         style="fill:none;stroke:#000000;stroke-width:4.89513;stroke-linecap:round;stroke-linejoin:round;stroke-miterlimit:4.7;stroke-dasharray:none;paint-order:stroke fill markers"
         d="m 106.74017,120.43267 c 0,-20.68338 -4.33454,-41.134439 -12.720883,-60.019317 l -1.596343,-3.594732"
         id="path6" /><path
         style="fill:none;stroke:#000000;stroke-width:4.89513;stroke-linecap:round;stroke-linejoin:round;stroke-miterlimit:4.7;stroke-dasharray:none;paint-order:stroke fill markers"
         d="m 106.74017,121.29936 v -0.86669"
         id="path5" /><path
         style="fill:none;stroke:#000000;stroke-width:4.89513;stroke-linecap:round;stroke-linejoin:round;stroke-miterlimit:4.7;stroke-dasharray:none;paint-order:stroke fill markers"
         d="m 179.00978,120.43267 v 0.86669"
         id="path2" /><path
         style="fill:none;stroke:#000000;stroke-width:4.89513;stroke-linecap:round;stroke-linejoin:round;stroke-miterlimit:4.7;stroke-dasharray:none;paint-order:stroke fill markers"
         d="M 179.00978,120.43267 C 162.51781,91.162394 128.71414,68.697022 92.422944,56.818621"
         id="path3"
         sodipodi:nodetypes="cc" /><path
         id="path1"
         style="fill:none;stroke:#000000;stroke-width:5.46744;stroke-linecap:round;stroke-linejoin:round;stroke-miterlimit:4.7;stroke-dasharray:none;paint-order:stroke fill markers"
         d="M 159.91507,70.860152 A 58.482134,24.834129 0 0 0 142.87497,57.40739 v 0 a 58.482134,24.834129 0 0 0 -17.0401,13.452762" /><path
         id="path12"
         style="fill:none;stroke:#000000;stroke-width:4.89513;stroke-linecap:round;stroke-linejoin:round;stroke-miterlimit:4.7;stroke-dasharray:none;paint-order:stroke fill markers"
         d="M 152.43226,89.295576" /><path
         id="path13"
         style="fill:none;stroke:#000000;stroke-width:4.89512;stroke-linecap:round;stroke-linejoin:round;stroke-miterlimit:4.7;stroke-dasharray:none;paint-order:stroke fill markers"
         d="m 83.354799,191.7191 c 2.920301,13.12411 10.922836,24.29582 22.155871,30.93012 11.25478,6.59516 24.75043,8.07103 37.36432,4.08615 -2.91988,-13.12401 -10.92188,-24.29583 -22.15445,-30.93049 -11.25522,-6.59546 -24.751455,-8.07121 -37.365741,-4.08578 z"
         sodipodi:nodetypes="ccccc" /><path
         id="path14"
         style="fill:none;stroke:#000000;stroke-width:4.89512;stroke-linecap:round;stroke-linejoin:round;stroke-miterlimit:4.7;stroke-dasharray:none;paint-order:stroke fill markers"
         d="m 202.39517,191.7191 c -2.9203,13.12411 -10.92283,24.29582 -22.15586,30.93012 -11.25477,6.59515 -24.75043,8.07103 -37.36432,4.08615 2.91987,-13.12401 10.92188,-24.29583 22.15444,-30.93049 11.25522,-6.59546 24.75146,-8.07121 37.36574,-4.08578 z"
         sodipodi:nodetypes="ccccc" /><path
         style="fill:none;stroke:#000000;stroke-width:5.0329;stroke-linecap:round;stroke-linejoin:round;stroke-miterlimit:4.7;stroke-dasharray:none;paint-order:stroke fill markers"
         d="m 94.053313,161.63599 v 68.61714"
         id="path15"
         inkscape:path-effect="#path-effect15"
         inkscape:original-d="m 94.053313,161.63599 v 68.61714"
         sodipodi:nodetypes="cc"
         transform="matrix(0.96981151,0,0,0.97545122,51.660998,-0.02066463)" /><path
         style="opacity:1;fill:#6600ff;stroke:#000000;stroke-width:12.1827;stroke-linecap:round;stroke-linejoin:round;stroke-miterlimit:4.7;stroke-dasharray:none;paint-order:stroke fill markers"
         d="m 531.77347,291.90117 c -4.02028,-2.82325 -14.16235,-9.32392 -22.53794,-14.44592 -22.27206,-13.62024 -20.59461,-11.49598 -14.524,-18.39257 7.37392,-8.3772 18.88738,-16.7323 33.1604,-24.06385 l 12.34325,-6.34029 11.48721,5.8585 c 6.31796,3.22217 15.76018,9.07828 20.9827,13.01357 8.77922,6.61534 16.9766,15.14013 16.94111,17.61774 -0.008,0.57362 -4.25692,3.49753 -9.44157,6.49756 -5.18464,3.00004 -15.96077,9.76846 -23.94694,15.04093 -7.98617,5.27248 -15.11304,9.75759 -15.83747,9.96692 -0.72443,0.20933 -4.60647,-1.92933 -8.62675,-4.75259 z"
         id="path20"
         transform="scale(0.26458331)" /></g></g></svg>
