<?xml version="1.0" encoding="UTF-8" standalone="no"?>
<!-- Created with Inkscape (http://www.inkscape.org/) -->

<svg
   width="1080"
   height="1080"
   viewBox="0 0 285.74997 285.74997"
   version="1.1"
   id="svg1"
   inkscape:version="1.4.2 (f4327f4, 2025-05-13)"
   sodipodi:docname="121.svg"
   xml:space="preserve"
   xmlns:inkscape="http://www.inkscape.org/namespaces/inkscape"
   xmlns:sodipodi="http://sodipodi.sourceforge.net/DTD/sodipodi-0.dtd"
   xmlns:xlink="http://www.w3.org/1999/xlink"
   xmlns="http://www.w3.org/2000/svg"
   xmlns:svg="http://www.w3.org/2000/svg"><sodipodi:namedview
     id="namedview1"
     pagecolor="#ffffff"
     bordercolor="#000000"
     borderopacity="0.25"
     inkscape:showpageshadow="2"
     inkscape:pageopacity="0.0"
     inkscape:pagecheckerboard="0"
     inkscape:deskcolor="#3c3c3c"
     inkscape:document-units="px"
     inkscape:zoom="0.35277778"
     inkscape:cx="83.622047"
     inkscape:cy="566.92913"
     inkscape:window-width="1920"
     inkscape:window-height="991"
     inkscape:window-x="-9"
     inkscape:window-y="-9"
     inkscape:window-maximized="1"
     inkscape:current-layer="layer1" /><defs
     id="defs1"><linearGradient
       id="linearGradient6"
       inkscape:collect="always"><stop
         style="stop-color:#ff7f2a;stop-opacity:1;"
         offset="0"
         id="stop6" /><stop
         style="stop-color:#ff7f2a;stop-opacity:0;"
         offset="1"
         id="stop7" /></linearGradient><inkscape:path-effect
       effect="fillet_chamfer"
       id="path-effect1"
       is_visible="true"
       lpeversion="1"
       nodesatellites_param="C,0,0,1,0,45.584779,0,1 @ F,0,0,1,0,37.379523,0,1 @ F,0,0,1,0,82.964302,0,1 @ F,0,0,1,0,0,0,1"
       radius="0"
       unit="px"
       method="auto"
       mode="F"
       chamfer_steps="1"
       flexible="false"
       use_knot_distance="true"
       apply_no_radius="true"
       apply_with_radius="true"
       only_selected="false"
       hide_knots="false" /><linearGradient
       inkscape:collect="always"
       xlink:href="#linearGradient6"
       id="linearGradient7"
       x1="135.49939"
       y1="102.29529"
       x2="155.43214"
       y2="201.70982"
       gradientUnits="userSpaceOnUse"
       gradientTransform="matrix(1.9195691,0,0,1.9195691,-111.93379,-101.44597)" /><linearGradient
       inkscape:collect="always"
       xlink:href="#linearGradient6"
       id="linearGradient10"
       gradientUnits="userSpaceOnUse"
       gradientTransform="matrix(1.9195691,0,0,1.9195691,-96.058784,-101.44597)"
       x1="135.49939"
       y1="102.29529"
       x2="155.43214"
       y2="201.70982" /><linearGradient
       inkscape:collect="always"
       xlink:href="#linearGradient6"
       id="linearGradient11"
       gradientUnits="userSpaceOnUse"
       gradientTransform="matrix(1.9195691,0,0,1.9195691,-138.39214,-101.44597)"
       x1="135.49939"
       y1="102.29529"
       x2="155.43214"
       y2="201.70982" /><linearGradient
       inkscape:collect="always"
       xlink:href="#linearGradient6"
       id="linearGradient12"
       gradientUnits="userSpaceOnUse"
       gradientTransform="matrix(1.9195691,0,0,1.9195691,-122.51713,-101.44597)"
       x1="135.49939"
       y1="102.29529"
       x2="155.43214"
       y2="201.70982" /></defs><g
     inkscape:label="Capa1"
     inkscape:groupmode="layer"
     id="layer1"
     style="display:inline;opacity:1;mix-blend-mode:multiply"><path
       style="fill:url(#linearGradient10);fill-opacity:1;fill-rule:evenodd;stroke:#000000;stroke-width:1.24127;stroke-linecap:round;stroke-linejoin:round;stroke-miterlimit:4.7"
       d="m 220.57473,65.666901 a 95.692478,95.692478 0 0 0 -39.15978,77.208569 95.692478,95.692478 0 0 0 39.15978,77.20761 95.692478,95.692478 0 0 0 39.15881,-77.20761 95.692478,95.692478 0 0 0 -39.15881,-77.208569 z"
       id="path10" /><path
       style="fill:url(#linearGradient11);fill-opacity:1;fill-rule:evenodd;stroke:#000000;stroke-width:1.24127;stroke-linecap:round;stroke-linejoin:round;stroke-miterlimit:4.7"
       d="M 65.175269,220.08308 A 95.692478,95.692478 0 0 0 104.33504,142.87547 95.692478,95.692478 0 0 0 65.175269,65.666901 95.692478,95.692478 0 0 0 26.015486,142.87547 95.692478,95.692478 0 0 0 65.175269,220.08308 Z"
       id="path9" /><path
       style="fill:url(#linearGradient12);fill-opacity:1;fill-rule:evenodd;stroke:#000000;stroke-width:1.24127;stroke-linecap:round;stroke-linejoin:round;stroke-miterlimit:4.7"
       d="m 137.58332,47.182631 a 95.692478,95.692478 0 0 0 -56.533053,18.48427 95.692478,95.692478 0 0 1 39.159783,77.208569 95.692478,95.692478 0 0 1 -39.159783,77.20761 95.692478,95.692478 0 0 0 56.533053,18.48426 z"
       id="path8" /><path
       style="fill:url(#linearGradient7);fill-opacity:1;fill-rule:evenodd;stroke:#000000;stroke-width:1.24127;stroke-linecap:round;stroke-linejoin:round;stroke-miterlimit:4.7"
       d="M 148.16666,47.182631 V 238.56734 a 95.692478,95.692478 0 0 0 56.53306,-18.48426 95.692478,95.692478 0 0 1 -39.15978,-77.20761 95.692478,95.692478 0 0 1 39.15978,-77.208569 95.692478,95.692478 0 0 0 -56.53306,-18.48427 z"
       id="path7" /></g></svg>
