<?xml version="1.0" encoding="UTF-8" standalone="no"?>
<!-- Created with Inkscape (http://www.inkscape.org/) -->

<svg
   width="924.49414"
   height="924.49408"
   viewBox="0 0 244.60572 244.6057"
   version="1.1"
   id="svg1"
   inkscape:version="1.4.2 (f4327f4, 2025-05-13)"
   sodipodi:docname="61.svg"
   xml:space="preserve"
   xmlns:inkscape="http://www.inkscape.org/namespaces/inkscape"
   xmlns:sodipodi="http://sodipodi.sourceforge.net/DTD/sodipodi-0.dtd"
   xmlns="http://www.w3.org/2000/svg"
   xmlns:svg="http://www.w3.org/2000/svg"><sodipodi:namedview
     id="namedview1"
     pagecolor="#ffffff"
     bordercolor="#000000"
     borderopacity="0.25"
     inkscape:showpageshadow="2"
     inkscape:pageopacity="0.0"
     inkscape:pagecheckerboard="0"
     inkscape:deskcolor="#3c3c3c"
     inkscape:document-units="px"
     inkscape:zoom="11.451852"
     inkscape:cx="204.55207"
     inkscape:cy="129.54237"
     inkscape:window-width="1920"
     inkscape:window-height="991"
     inkscape:window-x="-9"
     inkscape:window-y="-9"
     inkscape:window-maximized="1"
     inkscape:current-layer="layer1"
     showgrid="true"><inkscape:page
       x="0"
       y="0"
       width="244.60571"
       height="244.6057"
       id="page2"
       margin="0"
       bleed="0" /></sodipodi:namedview><defs
     id="defs1"><inkscape:path-effect
       effect="skeletal"
       id="path-effect11"
       is_visible="true"
       lpeversion="1"
       pattern="#path9"
       copytype="repeated_stretched"
       prop_scale="1"
       scale_y_rel="false"
       spacing="0"
       normal_offset="0"
       tang_offset="0"
       prop_units="false"
       vertical_pattern="false"
       hide_knot="false"
       fuse_tolerance="0" /></defs><g
     inkscape:label="Capa1"
     inkscape:groupmode="layer"
     id="layer1"
     style="display:inline;opacity:1;mix-blend-mode:multiply"
     transform="translate(-20.017647,-19.278315)"><path
       style="fill:none;stroke:#000000;stroke-width:1.32292;stroke-linecap:square;stroke-linejoin:miter;stroke-miterlimit:4.7;stroke-dasharray:none"
       id="path11"
       inkscape:path-effect="#path-effect11"
       sodipodi:type="arc"
       sodipodi:cx="159.69469"
       sodipodi:cy="96.112541"
       sodipodi:rx="65.800125"
       sodipodi:ry="65.800125"
       d="M 263.42439,156.88013 C 255.36252,128.29306 238.06565,105.7896 216.31871,96.197951 m -40.23621,-0.08541 c 22.74714,1.493566 42.20392,17.339639 53.47137,40.547259 l 28.79913,17.48975 c -7.74949,-25.45157 -23.11246,-45.67452 -42.41247,-55.422488 l -27.85339,-1.530241 c 16.0211,3.805599 29.95662,14.818819 39.90294,30.323109 l 19.81982,9.73073 c -6.64889,-13.57127 -15.77525,-24.78968 -26.56075,-32.48742 l -15.9701,-2.57051 c 7.73976,4.19629 14.74782,10.17314 20.74776,17.5361 l 9.02702,3.50241 c -3.05069,-4.21153 -6.39485,-8.04854 -9.99174,-11.4529 l -3.22274,-0.86161 m 2.1396,22.13719 C 212.21263,110.99425 192.59825,96.405127 169.92074,96.114756 m 51.0555,103.423724 c 6.27165,-28.6652 0.43642,-56.17805 -12.72075,-75.71035 m -34.10625,-20.81561 c 16.53824,13.97351 26.8688,37.29024 26.09269,62.95921 l 17.48974,28.79914 c 5.06711,-25.81619 0.11157,-50.5405 -11.19018,-68.92656 l -23.1503,-15.51274 c 10.84032,11.98397 18.04161,28.5081 19.70021,46.85584 l 13.11739,17.88672 c 0.35131,-14.97196 -2.65972,-29.11043 -8.21473,-41.24761 l -12.69469,-10.19126 c 4.47775,7.66868 7.79464,16.381 9.67424,25.74252 l 6.38026,7.38436 c -0.75384,-5.14671 -1.92088,-10.1245 -3.4604,-14.87524 l -2.43469,-2.32483 m -8.50034,20.64034 C 196.72989,135.26885 185.7814,112.87459 168.89791,99.847828 m -8.87182,117.632132 c 22.46186,-22.73541 29.94497,-49.24973 27.23427,-72.71473 m -20.6657,-34.19813 c 8.458,20.39817 7.791,45.13024 -6.89997,67.20527 -1e-5,0 -1e-5,1e-5 -1e-5,2e-5 v 33.92817 c 0,-1e-5 0,-1e-5 1e-5,-2e-5 19.58424,-20.6781 26.73668,-44.40106 25.13377,-65.92251 l -13.34159,-24.38959 c 4.294,15.74363 3.39548,33.35996 -4.59921,50.13244 l 2.35507,21.98281 c 8.38212,-13.03778 12.51704,-26.76144 13.22312,-40.00319 l -6.44199,-14.83475 c 0.49799,8.81858 -0.59405,17.94388 -3.55255,26.98146 l 1.94961,9.48241 c 1.92213,-4.85514 3.31132,-9.74696 4.2083,-14.61732 l -1.0315,-3.17293 m -17.70844,13.74799 c 13.16592,-21.79951 12.74002,-45.99098 3.50725,-65.7462 m -64.469455,94.50106 c 28.587065,-8.06185 51.090535,-25.35872 60.682185,-47.10565 m 0.0854,-40.23621 c -1.49357,22.74713 -17.33965,42.20391 -40.54727,53.47135 l -17.48975,28.79913 c 25.45157,-7.74948 45.67452,-23.11244 55.42249,-42.41246 L 158.6104,124.505 c -3.80561,16.02109 -14.81883,29.95661 -30.32312,39.90292 l -9.73074,19.81982 c 13.57128,-6.64888 24.78969,-15.77524 32.48744,-26.56074 l 2.57051,-15.9701 c -4.19629,7.73976 -10.17314,14.74781 -17.5361,20.74775 l -3.50242,9.02703 c 4.21153,-3.05069 8.04854,-6.39485 11.4529,-9.99174 l 0.86161,-3.22274 m -22.13719,2.13959 c 22.05967,-11.76631 36.6488,-31.38069 36.93918,-54.0582 M 56.268729,157.39407 c 28.665203,6.27165 56.178061,0.43643 75.710351,-12.72074 m 20.81563,-34.10624 c -13.97353,16.53824 -37.29025,26.86879 -62.959226,26.09268 l -28.799136,17.48972 c 25.816186,5.06712 50.540492,0.11159 68.926562,-11.19015 l 15.51274,-23.15031 c -11.98397,10.84033 -28.5081,18.04161 -46.855842,19.7002 l -17.886726,13.11739 c 14.971962,0.35132 29.110438,-2.65971 41.247618,-8.21472 l 10.19126,-12.69468 c -7.66868,4.47775 -16.38101,7.79463 -25.74253,9.67423 l -7.384356,6.38026 c 5.146716,-0.75384 10.124496,-1.92088 14.875236,-3.4604 l 2.32484,-2.43468 M 95.604812,133.37628 C 120.53837,133.14773 142.93263,122.19925 155.9594,105.31576 M 38.327267,96.443911 C 61.062676,118.90578 87.576987,126.3889 111.04199,123.6782 m 34.19814,-20.66569 c -20.39816,8.45799 -45.13022,7.79099 -67.205236,-6.899969 -1.2e-5,-7e-6 -2.5e-5,-1.4e-5 -3.8e-5,-2.2e-5 H 44.106692 c 9e-6,8e-6 1.8e-5,1.5e-5 2.7e-5,2.2e-5 C 64.78481,115.69677 88.50775,122.84921 110.02919,121.2463 l 24.38959,-13.34158 c -15.74362,4.294 -33.35995,3.39547 -50.132435,-4.59922 l -21.98281,2.35505 c 13.037775,8.38213 26.761438,12.51706 40.003185,13.22314 l 14.83475,-6.44199 c -8.81857,0.49799 -17.943878,-0.59405 -26.98146,-3.55255 l -9.482403,1.94961 c 4.855138,1.92213 9.746953,3.31131 14.617317,4.20829 l 3.172925,-1.03149 M 84.719865,96.307119 c 21.799505,13.165921 45.990975,12.740031 65.746195,3.507267 M 55.96502,35.344903 c 8.061849,28.587069 25.358708,51.090538 47.10564,60.6822 m 40.23621,0.08543 C 120.55974,94.618955 101.10296,78.772871 89.835527,55.565242 L 61.036407,38.075487 c 7.749471,25.451573 23.11243,45.674529 42.412443,55.422505 l 27.85338,1.530258 C 115.28114,91.222636 101.34562,80.209408 91.399312,64.705114 L 71.579497,54.974375 c 6.648879,13.571279 15.775241,24.789693 26.560734,32.487439 l 15.970099,2.570519 C 106.37057,85.83604 99.362518,79.859184 93.362582,72.496222 l -9.027025,-3.502421 c 3.050689,4.211533 6.394845,8.048544 9.991735,11.452905 l 3.222744,0.86161 M 95.410447,59.171128 C 107.17675,81.230803 126.79113,95.819939 149.46864,96.110326 M 98.413186,-7.3134324 C 92.141523,21.35177 97.976741,48.864624 111.1339,68.396923 m 34.10624,20.815634 C 128.70191,75.23903 118.37136,51.922301 119.14748,26.253328 L 101.65776,-2.5458129 C 96.590635,23.270373 101.54616,47.994681 112.8479,66.38075 l 23.1503,15.512745 C 125.15788,69.909521 117.9566,53.385391 116.29801,35.037651 l -13.11739,-17.88673 c -0.35131,14.971962 2.65971,29.110436 8.21472,41.247619 l 12.69467,10.191268 c -4.47774,-7.668682 -7.79462,-16.381011 -9.67421,-25.742531 l -6.38027,-7.384362 c 0.75384,5.146711 1.92088,10.124501 3.4604,14.875239 l 2.43468,2.324838 m 8.50035,-20.640336 c 0.22855,24.933555 11.17702,47.327822 28.06051,60.354593 m 8.87188,-117.63213 c -22.46188,22.7354049 -29.945,49.249715 -27.23431,72.71472 m 20.66568,34.198141 c -8.45798,-20.398154 -7.79098,-45.130195 6.89997,-67.205199 1e-5,-1.9e-5 2e-5,-3.8e-5 3e-5,-5.7e-5 v -33.928158 c -1e-5,1.3e-5 -2e-5,2.6e-5 -3e-5,4e-5 -19.58421,20.6780793 -26.73665,44.401003 -25.13375,65.922435 l 13.34157,24.389593 c -4.29399,-15.743628 -3.39546,-33.359956 4.59924,-50.132437 L 150.1467,-1.2786141 C 141.76457,11.759159 137.62964,25.482821 136.92355,38.72457 l 6.44199,14.834751 c -0.49799,-8.818574 0.59406,-17.943879 3.55256,-26.98146 l -1.94961,-9.482404 c -1.92213,4.855137 -3.31132,9.746953 -4.2083,14.617315 l 1.03149,3.172926 M 159.50013,21.137719 C 146.3342,42.937223 146.76008,67.128691 155.99284,86.883915 M 220.46235,-7.6171106 C 191.87528,0.44473232 169.37181,17.741585 159.78014,39.488515 m -0.0854,40.236208 C 161.18828,56.977592 177.03437,37.520821 200.242,26.253392 L 217.73177,-2.5457237 C 192.28019,5.2037409 172.05723,20.566696 162.30925,39.8667 l -1.53027,27.853382 C 164.5846,51.698998 175.59783,37.76348 191.10213,27.817175 L 200.83288,7.9973623 C 187.2616,14.646238 176.04318,23.772597 168.34543,34.558088 l -2.57052,15.970098 c 4.19629,-7.739755 10.17315,-14.747809 17.53611,-20.747743 l 3.50243,-9.027024 c -4.21154,3.050687 -8.04855,6.394843 -11.45291,9.991731 l -0.86161,3.222745 m 22.13719,-2.139584 C 174.57644,43.594612 159.9873,63.208982 159.6969,85.886488 M 263.12068,34.831067 c -28.6652,-6.271671 -56.17806,-0.436459 -75.71036,12.720699 m -20.81565,34.106231 c 13.97354,-16.538229 37.29027,-26.868772 62.95924,-26.092648 l 28.79915,-17.489711 c -25.81619,-5.067131 -50.5405,-0.111609 -68.92657,11.190124 l -15.51275,23.150295 c 11.98398,-10.84032 28.50811,-18.041594 46.85585,-19.700177 l 17.88673,-13.117382 c -14.97196,-0.351322 -29.11043,2.659696 -41.24762,8.214705 l -10.19127,12.694674 c 7.66868,-4.477745 16.38101,-7.794622 25.74253,-9.674213 l 7.38437,-6.380263 c -5.14671,0.753837 -10.12451,1.920879 -14.87524,3.460391 l -2.32484,2.434687 m 20.64033,8.500357 c -24.93355,0.228534 -47.32782,11.177009 -60.3546,28.06049 M 281.06211,95.78124 C 258.32671,73.319354 231.8124,65.836222 208.3474,68.546907 m -34.19815,20.665675 c 20.39819,-8.457989 45.13027,-7.790968 67.2053,6.900047 l 33.92825,-4.4e-5 C 254.60463,76.528382 230.88166,69.375908 209.36019,70.978807 L 184.9706,84.320376 c 15.74363,-4.29399 33.35995,-3.395456 50.13243,4.599247 L 257.08585,86.56458 C 244.04807,78.182446 230.32441,74.047509 217.08266,73.341421 l -14.83475,6.441983 c 8.81858,-0.497985 17.94388,0.594064 26.98146,3.552565 l 9.48241,-1.949603 c -4.85514,-1.922132 -9.74696,-3.311322 -14.61732,-4.208304 l -3.17292,1.03149 m 13.74797,17.708451 c -21.7995,-13.165934 -45.99097,-12.740057 -65.7462,-3.507301"
       transform="translate(-17.37419,45.468624)"
       inkscape:export-filename="64.svg"
       inkscape:export-xdpi="96"
       inkscape:export-ydpi="96" /></g></svg>
