<?xml version="1.0" encoding="UTF-8" standalone="no"?>
<!-- Created with Inkscape (http://www.inkscape.org/) -->

<svg
   width="944.46393"
   height="1280"
   viewBox="0 0 944.46384 1280.0001"
   version="1.1"
   id="svg5"
   inkscape:version="1.4.2 (f4327f4, 2025-05-13)"
   xml:space="preserve"
   sodipodi:docname="8.svg"
   xmlns:inkscape="http://www.inkscape.org/namespaces/inkscape"
   xmlns:sodipodi="http://sodipodi.sourceforge.net/DTD/sodipodi-0.dtd"
   xmlns="http://www.w3.org/2000/svg"
   xmlns:svg="http://www.w3.org/2000/svg"><sodipodi:namedview
     id="namedview7"
     pagecolor="#ffffff"
     bordercolor="#666666"
     borderopacity="1.0"
     inkscape:showpageshadow="2"
     inkscape:pageopacity="0.0"
     inkscape:pagecheckerboard="0"
     inkscape:deskcolor="#d1d1d1"
     inkscape:document-units="px"
     showgrid="false"
     showborder="false"
     inkscape:zoom="0.53690799"
     inkscape:cx="811.12594"
     inkscape:cy="859.55137"
     inkscape:window-width="1920"
     inkscape:window-height="991"
     inkscape:window-x="-9"
     inkscape:window-y="-9"
     inkscape:window-maximized="1"
     inkscape:current-layer="layer1" /><defs
     id="defs2"><clipPath
       clipPathUnits="userSpaceOnUse"
       id="clipPath8006"><path
         inkscape:connector-curvature="0"
         id="path8008"
         d="m -1244.8456,-140.77945 h 33.9355 c 11.5456,0 20.8405,9.29479 20.8405,20.84039 v 31.873282 c 0,11.545575 -9.2949,20.840392 -20.8405,20.840392 h -33.9355 c -11.5456,0 -20.8405,-9.294817 -20.8405,-20.840392 v -31.873282 c 0,-11.5456 9.2949,-20.84039 20.8405,-20.84039 z"
         style="opacity:0.521;fill:#ff0000;fill-opacity:1;stroke:none;stroke-width:1.61448;stroke-linecap:round;stroke-linejoin:round;stroke-miterlimit:4;stroke-dasharray:none" /></clipPath><clipPath
       clipPathUnits="userSpaceOnUse"
       id="clipPath8001"><path
         style="opacity:0.521;fill:#ff0000;fill-opacity:1;stroke:none;stroke-width:1.59706;stroke-linecap:round;stroke-linejoin:round;stroke-miterlimit:4;stroke-dasharray:none"
         d="m -2936.6731,-1508.8075 h 33.5693 c 11.421,0 20.6155,9.1945 20.6155,20.6155 v 31.5293 c 0,11.421 -9.1945,20.6155 -20.6155,20.6155 h -33.5693 c -11.421,0 -20.6156,-9.1945 -20.6156,-20.6155 v -31.5293 c 0,-11.421 9.1946,-20.6155 20.6156,-20.6155 z"
         id="path8003"
         inkscape:connector-curvature="0" /></clipPath></defs><g
     inkscape:label="Layer 1"
     inkscape:groupmode="layer"
     id="layer1"
     transform="translate(1088.5408,183.68658)"><path
       id="path134"
       style="fill:#000000;stroke-width:0.999996"
       d="m -380.55565,-183.67848 c -9.61231,-0.16058 -19.4528,2.06739 -26.97263,6.58597 -9.62494,5.78354 -17.09838,16.87508 -19.73098,29.28029 l -1.19072,5.60599 -4.07484,-4.53231 c -2.33755,-2.59986 -6.31794,-5.63413 -9.33497,-7.11566 -4.64004,-2.27861 -6.29239,-2.58326 -14.02223,-2.58326 -7.66638,0 -9.40017,0.31461 -13.86553,2.50763 -10.07808,4.94948 -17.74299,15.43062 -18.97974,25.95308 -0.53845,4.58139 -0.78324,5.04227 -2.2644,4.24953 -4.12308,-2.20666 -13.55628,-0.0544 -28.87502,6.58957 -6.34967,2.75398 -44.29311,13.734 -47.46019,13.734 -0.28878,0 -0.10229,0.42381 0.41431,0.94041 1.07958,1.07958 18.47725,2.479856 45.08418,3.628061 10.1456,0.438106 49.36756,0.660848 87.15992,0.495382 69.96967,-0.306305 86.15236,-0.933948 119.90253,-4.649453 21.44088,-2.36042 46.42229,-6.97113 47.53591,-8.77298 0.26443,-0.42787 -1.29476,-1.2421 -3.46601,-1.8086 -6.61742,-1.72641 -21.35501,-6.41976 -23.38782,-7.4489 -1.05339,-0.53338 -2.41161,-2.34446 -3.01915,-4.02439 -4.59743,-12.714 -20.82734,-20.37789 -33.34249,-15.7444 -7.23336,2.67807 -7.29709,2.68674 -6.80041,0.7873 0.78416,-2.99848 -2.28074,-15.27281 -5.30874,-21.26038 -3.25729,-6.44088 -11.20738,-14.61049 -17.18738,-17.66118 -5.99909,-3.06047 -13.3374,-4.63082 -20.8136,-4.7557 z m -362.08545,16.29567 c -0.39918,0 -0.96365,1.47222 -1.25556,3.27131 -1.07922,6.65008 -4.60481,16.04278 -6.80041,18.11691 -1.24146,1.17274 -5.44644,3.20508 -9.34392,4.51617 -3.89738,1.31109 -6.92667,2.76376 -6.73197,3.22815 0.19461,0.46439 2.72557,1.70307 5.62407,2.75259 10.69854,3.87387 11.18184,4.37912 14.75539,15.40028 1.76543,5.44505 3.29105,9.89888 3.38854,9.89888 0.0974,0 1.45497,-4.11367 3.0173,-9.14229 3.28838,-10.58463 4.93768,-12.4362 14.02233,-15.748 3.23275,-1.17855 6.20781,-2.43144 6.61299,-2.78322 0.40527,-0.35177 -2.84363,-1.99065 -7.22007,-3.64245 -9.5412,-3.60104 -10.57383,-4.93547 -13.38997,-17.29723 -1.07387,-4.71402 -2.27944,-8.5711 -2.67872,-8.5711 z m -27.4645,102.673737 c -6.39727,-0.0092 -7.95157,0.327241 -11.69115,2.525516 -5.70763,3.355334 -9.50541,8.126994 -11.99569,15.070734 -2.02294,5.640491 -2.06426,5.682918 -4.69806,4.764742 -5.6036,-1.953397 -16.97331,1.491587 -22.46918,6.809357 -1.59148,1.540009 -3.61866,4.409 -4.50529,6.375217 -1.34734,2.987879 -1.8845,3.430043 -3.27141,2.687754 -2.43697,-1.304171 -5.22784,-1.090652 -8.98005,0.689901 -3.21422,1.525252 -10.32582,8.059479 -10.32582,9.488072 0,0.768667 3.70453,2.321958 7.50839,3.147165 6.78335,1.471573 34.62342,3.4149159 79.19036,5.5285208 11.85449,0.5621584 75.49553,-0.3595231 87.79946,-1.2717969 15.03052,-1.1145399 21.03515,-1.9243439 21.03515,-2.8354179 0,-1.206312 -8.25962,-3.489533 -16.60189,-4.588209 -6.66335,-0.877502 -13.66179,-2.114988 -23.78774,-4.208118 -1.16259,-0.240266 -4.39304,-2.864287 -7.17866,-5.831229 -2.83007,-3.01435 -7.59555,-6.756969 -10.79953,-8.481075 -7.58337,-4.080744 -15.28056,-4.34121 -22.51234,-0.763779 l -4.78992,2.368813 -0.62331,-3.752304 c -1.95266,-11.740671 -8.3312,-20.537643 -18.17455,-25.068576 -4.80145,-2.210172 -6.96744,-2.646064 -13.12877,-2.655287 z m 205.77986,6.767944 c -0.23547,0.09832 -0.87815,2.232585 -1.48615,4.970052 -0.64858,2.919996 -1.99361,7.495569 -2.98852,10.169026 -1.97295,5.301352 -3.94664,6.744057 -13.50527,9.87176 -2.70878,0.886357 -4.5765,1.929785 -4.15047,2.318454 0.42602,0.388577 3.56525,1.617116 6.9751,2.731011 7.80491,2.549773 9.93521,5.012387 12.74324,14.730211 2.43789,8.4369871 2.74964,8.3473369 5.56633,-1.608723 2.09673,-7.411084 4.83844,-10.227502 12.77571,-13.121488 3.08168,-1.123671 5.6024,-2.353318 5.6024,-2.731011 0,-0.377785 -1.3489,-1.191739 -2.99756,-1.808591 -11.99496,-4.487768 -12.85236,-5.381964 -15.83627,-16.5317 -1.27069,-4.748048 -2.46584,-8.788764 -2.65713,-8.980054 -0.012,-0.01199 -0.0258,-0.01568 -0.0415,-0.0092 z m -328.05665,39.551972 c -0.28491,0.224494 -0.60754,1.252797 -1.23398,3.294737 -0.70023,2.28276 -2.54,9.6718917 -4.08923,16.4217584 -3.11415,13.5680786 -4.295,16.7429126 -7.87041,21.1630736 -2.64412,3.268728 -1.79835,3.854498 2.95256,2.048212 1.37159,-0.521299 2.69319,-0.747454 2.93816,-0.502576 0.80833,0.80842 -4.36057,8.698744 -11.89663,18.158316 -4.82792,6.060058 -7.10681,9.630203 -6.52113,10.21588 1.21295,1.21286 8.79144,1.145162 11.11653,-0.09915 9.95735,-5.329022 -7.29118,16.490841 -21.22967,26.855589 -5.85382,4.352923 -6.30133,4.910194 -4.81519,5.996972 1.34328,0.982186 3.71071,1.414942 7.74248,1.415864 0.25364,9.2e-5 2.5364,-0.282878 5.0728,-0.628658 l 4.61163,-0.628658 -5.9717,5.569933 c -7.26176,6.771727 -6.86931,7.8455 2.66793,7.306584 3.59283,-0.203004 6.53192,-0.131708 6.53192,0.158548 0,0.290164 -2.80157,3.597542 -6.22571,7.349752 -7.43848,8.15106 -16.44832,15.43911 -26.77092,21.65126 -4.17159,2.51057 -7.58577,5.09004 -7.58577,5.73217 0,2.32832 3.82794,3.32886 10.39776,2.71828 l 6.3897,-0.59444 -4.93408,4.21172 c -2.71432,2.31697 -4.93592,4.71134 -4.93592,5.31961 0,1.83562 16.55254,1.36329 22.42583,-0.63954 2.69605,-0.91938 5.11605,-1.45737 5.37726,-1.19607 0.74099,0.74099 -12.22434,14.01466 -19.93269,20.40648 -3.8212,3.16838 -10.3522,8.07821 -14.51227,10.91113 l -7.56234,5.15212 -1.46457,-5.03858 c -2.30535,-7.93035 -3.23091,-9.96224 -4.118,-9.04139 -0.44604,0.4631 -2.16849,6.65376 -3.82628,13.75568 -1.65788,7.10192 -3.41187,13.442 -3.89821,14.08892 -1.10947,1.47572 -3.33855,-0.38092 -7.22736,-6.01855 l -2.70389,-3.91989 h 2.63546 c 1.44925,0 3.41574,-0.57203 4.37026,-1.26996 1.64146,-1.20031 1.47157,-1.56279 -3.13444,-6.68687 -4.27711,-4.75828 -10.20536,-13.57693 -10.23027,-15.2184 -0.009,-0.31811 1.75492,-0.38968 3.91085,-0.15854 2.52119,0.27033 4.53776,-0.0443 5.65101,-0.87907 2.33432,-1.75095 1.13087,-3.92137 -6.64361,-11.99026 -3.29991,-3.42488 -5.76851,-6.45776 -5.48711,-6.73917 0.2814,-0.2814 2.96343,0.12406 5.96091,0.90075 4.22176,1.09397 6.25328,1.19054 9.01252,0.4287 l 3.56138,-0.98357 -8.27208,-7.66685 c -4.54993,-4.21725 -10.47007,-10.84693 -13.1558,-14.73196 -4.8555,-7.02361 -5.6487,-9.95071 -1.69154,-6.24379 3.96296,3.71228 9.2098,4.83825 12.23706,2.62467 1.68473,-1.23195 1.62099,-1.43652 -1.57625,-4.97549 -4.97882,-5.511 -9.65824,-13.248496 -13.23503,-21.889041 -3.44104,-8.312566 -3.80854,-9.729906 -2.08604,-8.007368 1.5018,1.501825 6.27073,1.427947 6.27073,-0.09721 0,-0.662415 -0.93385,-2.474331 -2.07523,-4.026239 -1.14138,-1.551815 -3.5063,-5.787511 -5.2565,-9.414193 -2.913,-6.036447 -3.0585,-6.719707 -1.7114,-8.066766 1.347,-1.347059 1.2838,-1.832018 -0.744,-5.750157 -1.5883,-3.069043 -2.6197,-7.542238 -3.6461,-15.809241 -1.4382,-11.585167 -1.9819,-14.40841 -2.6498,-13.737602 -0.1986,0.1995 -1.2383,6.110971 -2.3095,13.135968 -1.3168,8.635012 -2.6129,13.951951 -3.9992,16.414473 -1.887,3.352105 -1.9285,3.735148 -0.5241,4.790013 1.3982,1.050162 1.2991,1.67799 -1.1836,7.497506 -1.4902,3.493314 -4.1762,8.394653 -5.9699,10.891392 -3.937,5.480196 -3.604,7.124613 1.4447,7.124613 h 3.7146 l -1.751,4.606195 c -2.4859,6.542251 -5.6585,11.647977 -11.0787,17.826917 -2.5914,2.95422 -4.5034,5.71105 -4.2477,6.12481 0.9689,1.56768 5.0405,1.81597 8.6864,0.5296 2.0823,-0.73463 3.7866,-1.08078 3.7866,-0.76738 0,2.32362 -6.0786,9.79807 -14.0529,17.2774 -10.7201,10.05485 -10.8126,11.04847 -0.9602,10.35995 6.8705,-0.48016 6.9502,-0.82059 -2.4355,10.45006 -3.5908,4.31188 -6.5295,8.2077 -6.5302,8.65761 -7e-4,0.44991 2.6961,0.60163 5.9934,0.33693 3.2973,-0.2649 5.9951,-0.3028 5.9951,-0.0849 0,0.81654 -9.4217,14.32107 -13.3953,19.19953 -2.2703,2.78728 -4.1289,5.47328 -4.1289,5.96986 0,1.53853 3.119,2.667 5.9033,2.13472 l 2.6553,-0.50801 -3.1255,4.24593 c -1.7195,2.3357 -3.3719,4.26438 -3.6714,4.28375 -0.8837,0.0581 -9.1402,-15.04233 -9.1403,-16.71718 0,-1.32004 0.3844,-1.3882 2.7543,-0.49354 2.0306,0.76765 3.0242,0.7695 3.7848,0.009 0.7606,-0.76064 0.065,-2.32777 -2.6498,-5.96275 -3.7485,-5.0194 -7.5786,-11.92025 -7.5786,-13.65478 0,-0.52748 0.6505,-0.96014 1.4447,-0.96014 0.7943,0 2.2625,-0.43774 3.2624,-0.97278 1.7242,-0.92288 1.6322,-1.18344 -1.7834,-5.06376 -3.204,-3.63996 -3.8304,-5.1856 -5.6691,-14.01504 -1.1366,-5.45814 -2.5769,-12.20681 -3.2011,-14.99685 l -1.1349,-5.0728 -1.1115,7.83978 c -2.479,17.48714 -3.9461,23.82592 -6.2329,26.91323 l -2.2698,3.0624 2.8138,0.29007 c 1.5477,0.15892 2.8138,0.57978 2.8138,0.93488 0,1.10891 -6.5642,10.62373 -9.4214,13.65662 -3.8775,4.11579 -3.3175,7.15587 1.3907,7.54436 l 3.4983,0.28822 -2.0337,3.40109 c -1.1182,1.87038 -2.7964,4.25617 -3.729,5.30338 -1.6207,1.82021 -1.6951,5.809 -1.6951,90.51414 v 88.61 l 2.5364,0.50986 c 1.395,0.28048 3.671,0.78952 5.0566,1.13124 1.3857,0.34541 3.6385,0.34375 5.0079,0 2.308,-0.57922 16.9136,-13.82209 16.9136,-15.33544 0,-0.37124 -2.4881,-0.44862 -5.5286,-0.17294 -5.3475,0.48496 -13.8403,-1.56832 -13.8403,-3.34528 0,-0.36884 2.594,-2.38947 5.7645,-4.4909 6.0134,-3.98566 11.4573,-9.21451 16.002,-15.37151 l 2.6752,-3.62447 -2.3059,0.6377 c -6.226,1.72567 -9.7039,1.72973 -11.8245,0.0129 l -2.1166,-1.71497 7.2957,-6.62019 c 7.5405,-6.84192 14.5236,-16.00311 12.945,-16.98207 -0.493,-0.30575 -2.5903,-0.24543 -4.6621,0.13337 -3.8208,0.69866 -9.0161,-0.4394 -9.0161,-1.97434 0,-0.45766 0.3596,-0.83046 0.798,-0.83046 1.233,0 10.1196,-9.03641 12.655,-12.86757 1.2464,-1.88349 2.6558,-4.78467 3.1327,-6.44725 0.8295,-2.89251 0.7686,-3.00439 -1.4249,-2.5851 -3.2516,0.62165 -3.53,-0.52923 -1.2214,-5.04753 1.1105,-2.17337 3.3234,-9.23222 4.9161,-15.68676 l 2.8948,-11.73633 1.643,8.12441 c 0.9033,4.46849 2.8577,11.59725 4.3432,15.84171 1.4855,4.24436 2.7003,7.84171 2.7003,7.99288 0,0.15117 -0.8571,0.27569 -1.9059,0.27569 -1.5495,0 -1.79,0.38885 -1.2772,2.07523 1.1051,3.63471 6.6291,12.11007 10.0357,15.39853 1.8109,1.74818 3.293,3.5695 3.293,4.04773 0,0.50359 -2.3289,0.65817 -5.5339,0.36754 -3.0437,-0.27605 -5.534,-0.16989 -5.534,0.23594 0,1.35932 10.2655,15.17883 14.5393,19.57242 l 4.2242,4.34324 -2.5237,0.96015 c -3.1588,1.2005 -6.2108,1.21996 -9.2629,0.06 -1.3013,-0.49474 -2.3522,-0.5985 -2.3365,-0.23059 0.089,2.02276 10.8683,15.51327 14.9842,18.75276 2.649,2.08492 4.9392,4.11469 5.0891,4.50898 0.4143,1.0901 -5.1681,2.77058 -9.2016,2.77058 -1.9698,0 -5.057,-0.61584 -6.8598,-1.3691 l -3.2769,-1.36901 2.5076,4.36657 c 4.5797,7.97361 9.6617,14.03662 15.8255,18.88068 l 6.0959,4.79002 -3.1398,1.28083 c -1.8446,0.75262 -4.9348,1.10864 -7.4921,0.86293 -3.5625,-0.34227 -4.218,-0.1804 -3.619,0.88986 1.6129,2.88209 21.7989,22.3942 23.13562,22.36284 0.78813,-0.0184 2.49711,-0.95212 3.79916,-2.07524 2.28202,-1.96843 9.16378,-10.14873 9.16378,-10.89858 0,-0.20153 -2.51574,-0.22588 -5.59336,-0.0526 -5.81693,0.32797 -10.08795,-0.30898 -10.08795,-1.50598 0,-0.38221 1.48449,-1.49463 3.29843,-2.47156 4.409,-2.37435 12.2141,-10.953 15.51382,-17.05042 l 2.67152,-4.93592 -2.21036,0.69894 c -4.30478,1.36375 -7.77614,1.55864 -10.34196,0.5783 l -2.59764,-0.99261 5.84017,-5.76455 c 5.42218,-5.35171 12.08784,-16.08059 14.09796,-22.69072 0.60689,-1.99573 0.44954,-2.12468 -1.96899,-1.61583 -4.52411,0.95184 -5.44016,-0.5117 -2.89306,-4.62427 4.84065,-7.81543 8.57321,-20.71316 11.84074,-40.92107 l 1.1151,-6.90482 3.46767,17.05042 c 3.77398,18.55796 6.08773,26.10185 9.65741,31.49609 1.27373,1.92471 2.31486,3.76826 2.31486,4.09817 0,0.32983 -2.07524,0.32568 -4.61164,-0.0111 -2.5364,-0.33646 -4.61163,-0.27882 -4.61163,0.12968 0,1.83451 8.59138,15.04371 12.90538,19.84267 4.05077,4.50612 4.52457,5.39765 3.15067,5.92485 -0.8894,0.34135 -3.57263,-0.0738 -5.96266,-0.92233 -2.38993,-0.84882 -4.58904,-1.54379 -4.88547,-1.54379 -2.09572,0 7.31672,15.19626 13.51965,21.82789 5.00169,5.34737 5.23366,5.78778 3.51997,6.70485 -3.78431,2.02534 -9.09046,0.39089 -14.17718,-4.36841 -3.9851,-3.72842 -3.15925,-0.652 2.30582,8.59092 4.98296,8.42758 16.07201,20.7009 21.67468,23.98955 1.64866,0.9677 2.99757,2.09534 2.99757,2.50577 0,2.74955 -13.17268,3.61802 -18.85726,1.24293 -1.95847,-0.81838 -3.70785,-1.34318 -3.88567,-1.16545 -0.17782,0.17782 1.71258,3.19273 4.19908,6.69941 5.11052,7.20707 12.15258,14.35723 16.18038,16.42721 l 2.70934,1.39243 -2.70934,1.03227 c -1.49002,0.56834 -3.85071,0.86791 -5.24573,0.66472 -1.39502,-0.20319 -2.5364,-0.0498 -2.5364,0.34043 0,2.18749 18.07936,19.26078 20.3957,19.26078 1.04001,0 16.49739,-14.71804 16.49739,-15.70834 0,-0.38341 -1.63105,-0.2826 -3.62447,0.22339 -2.82638,0.71738 -4.65167,0.57802 -8.29016,-0.63051 -2.56619,-0.85232 -4.8637,-1.87075 -5.10701,-2.2644 -0.24322,-0.39365 1.51584,-1.99555 3.90909,-3.55963 4.95779,-3.24014 17.44306,-15.54278 16.61453,-16.37131 -0.30142,-0.30132 -2.27852,-0.083 -4.39194,0.48644 -3.75147,1.01022 -10.18922,-0.0498 -10.17078,-1.67532 0,-0.34108 1.92933,-2.48927 4.2784,-4.77203 4.90365,-4.76529 9.69883,-11.85697 12.87837,-19.04633 3.04478,-6.8849 2.95578,-7.93294 -0.52785,-6.19509 -2.071,1.03319 -3.18812,1.11851 -4.61164,0.35667 -2.36457,-1.26553 -2.36051,-1.29643 0.48634,-4.14328 4.8306,-4.8306 9.9842,-20.56153 13.87817,-42.36221 0.87021,-4.87201 1.69238,-8.74874 1.82667,-8.61444 0.13429,0.13419 0.91679,4.18275 1.74015,8.99628 2.39317,13.99161 5.98701,29.28288 7.9785,33.95142 1.01244,2.37324 3.15879,5.68264 4.77019,7.35344 2.46159,2.55235 2.70989,3.18488 1.55642,3.96305 -0.75501,0.50977 -3.32185,0.72108 -5.70514,0.4702 -4.97882,-0.52415 -4.98398,-0.44188 -0.46652,7.26158 4.79186,8.17154 8.19174,12.84091 12.89995,17.71154 l 4.61707,4.77553 -3.53445,0.66297 c -2.43485,0.45674 -4.81565,0.18806 -7.65605,-0.86468 -2.26726,-0.84033 -4.3354,-1.31386 -4.59715,-1.0521 -1.12451,1.12459 9.02958,14.04271 16.30462,20.74157 l 7.91541,7.2886 -2.56518,0.97453 c -4.06045,1.54379 -11.7141,1.12303 -16.14616,-0.88811 -3.42451,-1.55394 -3.9352,-1.60761 -3.45513,-0.35666 1.68887,4.40116 11.12022,16.21377 17.7999,22.2944 4.21227,3.83448 7.6578,7.28832 7.6578,7.67404 0,1.28793 -6.61548,2.90274 -9.78349,2.38864 -1.72051,-0.27919 -3.12909,-0.16574 -3.12909,0.25226 0,1.25252 16.68997,18.4933 17.90247,18.4933 1.03549,0 4.15563,-2.99812 6.82383,-6.55894 0.9904,-1.32179 0.57535,-1.47766 -3.73616,-1.41587 -7.41422,0.10681 -7.8301,-0.66121 -3.26236,-6.0204 4.24344,-4.97863 10.4341,-13.17701 11.82635,-15.66333 0.7553,-1.34881 0.22145,-1.52405 -4.54144,-1.48439 -2.96925,0.0249 -5.87043,-0.24691 -6.44726,-0.60348 -0.68768,-0.42501 0.40915,-2.43946 3.18674,-5.84921 3.94719,-4.84563 9.45284,-14.59113 10.9292,-19.3472 0.61344,-1.97627 0.46311,-2.04203 -3.44793,-1.50597 -2.29189,0.31414 -4.3295,0.1686 -4.63866,-0.33149 -0.30317,-0.49068 0.70217,-2.59736 2.23378,-4.68007 3.94922,-5.37007 7.85205,-16.74854 10.84454,-31.61673 1.41817,-7.04621 2.80056,-13.03461 3.0732,-13.30715 0.27254,-0.27264 0.73325,1.50883 1.02323,3.9577 0.29007,2.44878 2.00799,10.59247 3.81723,18.09708 3.23958,13.4384 6.32477,21.30419 9.83035,25.06322 0.98117,1.05219 1.50293,2.19357 1.1601,2.5364 -0.96651,0.96651 -5.76104,0.7351 -7.84162,-0.37834 -1.68851,-0.90369 -1.80546,-0.79108 -1.20512,1.15291 1.68943,5.47088 7.69304,14.33583 15.05626,22.22956 2.25499,2.41742 3.83918,4.65628 3.51997,4.9755 -1.1352,1.1352 -9.76892,1.44206 -12.61892,0.44853 -1.61093,-0.56152 -2.76412,-0.62903 -2.59764,-0.15311 0.82991,2.37186 11.73163,16.21765 15.66877,19.90031 2.47571,2.31578 4.25949,4.59974 3.9649,5.0764 -0.68815,1.11399 -7.39955,1.11897 -11.26973,0.009 -1.87675,-0.53827 -2.99212,-0.53006 -2.99212,0.0194 0,0.48192 3.11,4.08425 6.91026,8.00553 l 6.90841,7.13005 1.81229,-2.30582 c 1.65345,-2.10475 1.67356,-2.32925 0.23777,-2.57246 -6.08035,-1.03015 -6.00767,-0.92464 -2.62291,-3.89647 2.53787,-2.22825 9.81236,-14.07139 9.81236,-15.97498 0,-0.27439 -1.45267,-0.26277 -3.22815,0.0249 -4.09208,0.66408 -4.11044,-0.31553 -0.11353,-5.94108 3.43696,-4.83733 6.10866,-9.76071 6.10866,-11.25534 0,-0.53246 -0.80593,-0.96918 -1.79061,-0.96918 -2.72141,0 -3.02597,-1.38921 -1.04481,-4.77009 2.2407,-3.82379 4.84794,-13.18753 7.01827,-25.20554 l 1.66637,-9.22328 2.55798,12.35061 c 2.90533,14.02177 5.94366,24.64486 7.285,25.47385 2.06251,1.27475 0.74533,2.47977 -2.31846,2.12209 -1.77547,-0.20725 -3.22814,-0.0314 -3.22814,0.39088 0,1.19082 4.52844,9.86558 7.94244,15.2148 3.04709,4.77406 3.05806,4.83189 1.14027,5.85825 -1.40222,0.75069 -2.54267,0.76148 -4.12705,0.0397 -1.204,-0.5486 -2.18868,-0.77862 -2.18868,-0.51152 0,1.29652 7.06826,11.44451 10.30775,14.79865 3.59015,3.71725 3.62087,3.80598 1.52036,4.36842 -1.1792,0.3158 -3.08795,0.57802 -4.24234,0.58724 -1.99416,0.012 -2.03373,0.13918 -0.78001,2.54904 0.72578,1.39502 2.3417,3.49064 3.59025,4.65664 l 2.26976,2.1185 3.62447,-4.42431 c 3.34933,-4.09034 6.76794,-9.01326 6.76794,-9.74384 0,-0.16998 -1.40277,-0.14443 -3.1183,0.0553 -1.71552,0.20024 -3.38955,-0.0701 -3.71808,-0.60163 -0.32863,-0.53172 0.89189,-2.91649 2.71109,-5.29979 2.94342,-3.85606 6.89227,-10.61801 6.89227,-11.80108 0,-0.24229 -1.40009,-0.21278 -3.1111,0.0646 -4.20886,0.68299 -4.87699,-0.868 -1.99951,-4.6405 2.44905,-3.2109 6.95527,-13.38693 6.95527,-15.70659 0,-0.88017 -0.63798,-1.14737 -1.92573,-0.81063 -1.88395,0.49261 -1.87583,0.40638 0.34587,-4.00631 2.00505,-3.98224 4.82184,-14.66879 6.78234,-25.72435 0.60772,-3.427 0.89585,-2.70556 4.05141,10.1456 1.86836,7.60919 3.81474,14.86975 4.32341,16.13353 0.71628,1.77917 0.60661,2.52985 -0.48635,3.32904 -1.22411,0.89512 -1.25353,1.60255 -0.21084,5.32681 0.66131,2.36199 2.39252,6.16917 3.84611,8.46125 1.45358,2.29207 2.64265,4.41518 2.64265,4.71798 0,0.30243 -1.66019,0.32798 -3.68931,0.0563 -2.02912,-0.27246 -3.68931,-0.28103 -3.68931,-0.0203 0,1.74661 6.61179,12.39534 9.48807,15.28148 1.92075,1.92739 3.24558,3.90495 2.94352,4.39369 -0.73086,1.18252 -3.80368,1.12653 -6.11402,-0.10994 -1.02461,-0.54841 -2.02183,-0.83701 -2.2157,-0.64314 -0.19388,0.19388 1.73148,3.85838 4.2783,8.14425 4.69788,7.90581 9.58612,13.78805 11.4589,13.78805 0.96835,0 5.98609,-4.68727 5.98609,-5.59161 0,-0.22994 -1.86771,-0.26987 -4.15047,-0.0885 -2.28276,0.18151 -4.15047,0.0544 -4.15047,-0.28279 0,-0.33748 1.26939,-1.68112 2.82103,-2.98677 2.53354,-2.13187 8.21572,-10.75074 8.23785,-12.49467 0.009,-0.38046 -1.06381,-0.69175 -2.37425,-0.69175 -1.31054,0 -2.22309,-0.31129 -2.02838,-0.69175 2.67502,-5.22701 5.82495,-12.81739 7.3372,-17.68267 1.03725,-3.33735 2.08787,-6.68982 2.33644,-7.45074 0.24857,-0.76092 1.62274,3.18203 3.05161,8.76211 1.42896,5.58008 3.23728,11.90955 4.01895,14.06549 1.35997,3.7511 1.34475,3.91989 -0.36386,3.91989 -1.6767,0 -1.6399,0.26673 0.63226,4.38105 1.33064,2.40958 3.19042,5.48268 4.13248,6.82919 2.07395,2.96445 2.12837,3.54699 0.32964,3.54699 -1.92452,0 -1.72687,1.24837 0.52057,3.28219 1.8654,1.68823 1.99102,1.67707 6.09962,-0.50257 7.43553,-3.94452 13.16742,-10.0934 22.12147,-23.73554 9.14708,-13.93645 11.15711,-15.85646 20.60285,-19.66429 5.81822,-2.34539 8.42702,-4.96627 16.14072,-16.2182 6.24978,-9.11637 14.92851,-18.37682 18.4898,-19.73088 5.51285,-2.09599 7.98182,-1.2397 14.006,4.85835 3.62484,3.6693 6.59842,7.77596 8.18031,11.29851 1.60844,3.58186 4.3365,7.32337 7.73343,10.60676 9.7099,9.38533 10.41963,18.26559 2.67152,33.42542 -3.57632,6.9976 -3.92782,8.32308 -4.31437,16.28664 -0.2458,5.06394 0.047,10.81714 0.70429,13.8349 1.21987,5.59751 6.78741,16.51547 8.81976,17.29539 1.29771,0.49796 13.22571,-1.09674 14.00065,-1.87168 1.10799,-1.10799 2.78773,-7.52462 2.04102,-7.79652 -0.48552,-0.17672 -0.44669,-1.03255 0.0904,-2.03558 0.5095,-0.95202 1.68768,-4.96184 2.61923,-8.90986 l 1.69339,-7.17682 1.68426,9.21424 c 2.44011,13.36037 4.55538,16.72419 7.97131,12.67296 1.84613,-2.18952 3.75184,-8.91125 2.6337,-9.28987 -0.53947,-0.18271 -0.51705,-0.89041 0.0572,-1.84465 0.51281,-0.85159 1.86817,-6.07629 3.01379,-11.61016 l 2.08419,-10.06093 1.21055,5.44929 c 0.66638,2.99747 2.05605,8.14885 3.08767,11.44617 1.03154,3.29732 1.92951,6.92991 1.99592,8.07406 0.0664,1.14414 0.99824,2.95799 2.06989,4.02973 1.91364,1.91356 1.99979,1.91854 4.81159,0.25761 2.96602,-1.75205 3.95061,-3.49774 1.42675,-2.5292 -1.00331,0.38497 -0.73878,-0.47943 0.88082,-2.86604 2.81098,-4.14227 3.88558,-7.2399 2.65354,-7.65062 -0.51872,-0.17293 -0.15643,-1.83321 0.83941,-3.8461 0.96392,-1.94823 2.66903,-7.32494 3.78846,-11.947 1.11952,-4.62205 2.26219,-8.40516 2.53815,-8.41439 0.58927,-0.0129 5.85309,20.78428 5.96091,23.55172 0.083,2.13011 3.41233,7.88663 5.62407,9.72225 1.24081,1.02978 1.71655,0.87169 3.17225,-1.05016 0.9417,-1.24321 1.32308,-2.39685 0.84845,-2.56343 -0.47472,-0.16657 -0.17671,-1.61923 0.66113,-3.22814 0.83793,-1.60891 1.63676,-3.9614 1.77446,-5.2296 0.33038,-3.04257 5.66383,-23.13205 6.31398,-23.78229 0.27845,-0.27836 0.50617,0.42768 0.50617,1.56906 0,1.14147 0.88101,5.46423 1.9581,9.60696 1.077,4.14272 2.08372,8.92886 2.23738,10.63554 0.31193,3.46417 2.14654,8.42702 3.1147,8.42702 1.03965,0 6.09077,-5.75458 8.2991,-9.45385 1.13557,-1.9023 2.36798,-3.45873 2.73821,-3.45873 0.37022,0 1.5828,-0.84623 2.6931,-1.88062 l 2.01759,-1.88247 -1.96179,-3.84426 c -1.08014,-2.11665 -1.55191,-3.9803 -1.05201,-4.14688 0.49944,-0.16648 1.69201,-0.88976 2.65169,-1.60687 1.68196,-1.25695 1.6209,-1.53531 -1.71313,-7.70826 -1.9023,-3.52209 -3.45872,-6.6545 -3.45872,-6.96246 0,-0.30806 0.84291,-0.56032 1.87343,-0.56032 2.94213,0 3.12235,-2.36023 0.53504,-6.98949 l -2.38329,-4.26576 2.06269,-1.68435 c 1.13437,-0.92611 6.54778,-4.24603 12.02982,-7.37862 5.48204,-3.13259 11.81437,-7.10672 14.07268,-8.83054 2.25841,-1.72383 4.33559,-3.13269 4.61533,-3.13269 1.45368,0 -10.39463,15.38423 -17.81789,23.13566 -4.69234,4.89986 -8.53152,9.53511 -8.53152,10.2987 0,2.1422 2.09451,3.40127 6.7067,4.03343 3.07236,0.42113 4.08148,0.92426 3.72353,1.85729 -0.27015,0.70392 0.0544,1.93698 0.72052,2.73996 2.25952,2.72252 11.11653,-0.0692 20.43895,-6.4419 1.9023,-1.30039 3.45873,-2.14691 3.45873,-1.88072 0,0.26618 -1.72115,3.0185 -3.82443,6.11586 -5.14031,7.56935 -16.37481,18.63055 -30.07294,29.60818 -12.83676,10.28736 -14.00766,11.75256 -11.43898,14.32125 2.8499,2.84989 12.2225,3.51323 19.74177,1.39612 1.12321,-0.31626 1.61407,0.0701 1.61407,1.2682 0,4.21061 5.18606,5.16605 11.46785,2.11305 2.06242,-1.00238 6.51578,-4.32276 9.89519,-7.37861 6.4692,-5.84986 7.91006,-6.70754 6.33915,-3.77223 -2.41889,4.51977 -0.31377,6.07943 6.22756,4.61348 5.45907,-1.22337 9.51205,-4.31621 13.58449,-10.36354 l 3.21376,-4.77203 v 9.47368 c 0,7.21647 -0.35897,10.02431 -1.50782,11.77775 -0.82964,1.26608 -6.32901,6.4764 -12.22084,11.57945 -5.89192,5.10305 -10.71301,9.75924 -10.71301,10.3474 0,2.67014 10.55612,-1.07608 20.52178,-7.28315 l 3.91989,-2.44094 -0.0955,27.53294 -0.0937,27.53285 -4.66569,-14.29607 c -2.56563,-7.86284 -4.81279,-14.47611 -4.99347,-14.6959 -1.16361,-1.4155 -2.96981,3.56535 -5.42772,14.96798 l -2.82287,13.10166 -3.04433,-12.45141 c -4.56985,-18.69253 -5.6309,-22.13401 -6.82199,-22.13401 -0.95258,0 -8.98946,28.44567 -10.68064,37.80278 l -0.58005,3.21735 -2.52376,-4.30358 c -2.86577,-4.88999 -3.11765,-6.2816 -1.13853,-6.2816 2.11047,0 1.67034,-2.18444 -1.45552,-7.21288 -2.44878,-3.93925 -2.68148,-4.82487 -1.68076,-6.42742 0.95581,-1.53032 0.90628,-2.24826 -0.28103,-4.06045 -0.79311,-1.21037 -2.63029,-7.47629 -4.08204,-13.92493 -1.45174,-6.44854 -2.87932,-11.7237 -3.17409,-11.7237 -0.29487,0 -1.01945,2.62393 -1.61048,5.83123 -0.59093,3.20721 -2.17697,9.68149 -3.52356,14.38794 -1.88404,6.58532 -2.185,8.72032 -1.30417,9.26468 0.862,0.53274 0.42611,2.34825 -1.76903,7.34984 -2.18831,4.98583 -2.66248,6.94513 -1.90055,7.86321 0.75207,0.90619 0.60385,2.08326 -0.56916,4.5432 l -1.5817,3.32001 -2.5994,-4.75395 c -3.02717,-5.53553 -2.99055,-5.37911 -1.27004,-5.37911 2.35654,0 2.3915,-1.55403 0.12968,-5.66364 -1.21729,-2.21174 -3.5743,-10.03898 -5.23854,-17.39454 -2.87462,-12.70561 -4.52153,-17.50254 -4.52153,-13.16834 0,1.0771 -1.29144,7.28131 -2.86964,13.78806 -2.33505,9.62771 -3.52873,12.76353 -6.40952,16.83791 -1.94694,2.75351 -3.33855,5.33123 -3.09303,5.72848 0.24553,0.39734 1.88478,0.99242 3.64246,1.32225 1.75768,0.32973 3.19033,0.86496 3.19033,1.18897 0,0.32401 -2.06463,3.2868 -4.57917,6.58412 -5.08544,6.66852 -5.48084,7.90933 -2.79401,8.76211 2.27612,0.72255 2.28193,1.11574 0.0664,4.7486 -0.97398,1.59738 -1.90617,4.05474 -2.07164,5.46193 -0.63364,5.3887 -2.38126,2.74134 -6.4419,-9.7655 l -4.20637,-12.95769 -3.01914,12.48204 c -1.66075,6.86488 -3.27537,12.47485 -3.58841,12.47485 -0.31295,0 -1.31939,-1.32152 -2.23554,-2.93088 -1.48872,-2.61489 -1.51326,-3.01122 -0.23058,-3.72897 2.21663,-1.24062 1.73167,-3.52523 -1.89335,-8.90802 -2.63048,-3.90606 -3.066,-5.11154 -2.07524,-5.73928 0.68972,-0.43699 1.5651,-0.79965 1.94556,-0.80888 1.21922,-0.0249 0.74293,-1.8619 -1.14747,-4.4315 -1.08216,-1.47075 -3.18166,-8.36274 -5.10351,-16.74956 -1.79605,-7.83784 -3.39629,-14.37954 -3.55419,-14.53744 -0.1579,-0.1579 -1.2361,3.34814 -2.39768,7.79293 -3.69392,14.13475 -5.42937,19.08581 -7.82714,22.33581 -2.91852,3.95595 -2.92249,4.6548 -0.0304,4.6548 1.2682,0 2.30582,0.17109 2.30582,0.38018 0,0.83102 -7.58439,13.47133 -8.37658,13.96099 -1.58668,0.98062 -0.85241,2.25233 1.96889,3.41003 l 2.81568,1.15651 -4.70534,6.82559 c -5.56173,8.06768 -5.37634,10.21606 0.80519,9.35664 1.32455,-0.18419 -0.22191,2.7738 -5.67628,10.85892 -2.572,3.81235 -2.61452,4.0386 -0.98532,5.24934 1.32898,0.98772 1.48467,1.61942 0.71333,2.87867 -1.7551,2.86503 -3.16008,2.53945 -3.18129,-0.73675 -0.0111,-1.69091 -0.84117,-4.88262 -1.84466,-7.09399 -2.18591,-4.81713 -2.17927,-4.74141 -0.44133,-4.74141 1.76653,0 1.7456,-0.20079 -0.40712,-3.86759 -1.9521,-3.32518 -6.96421,-19.94044 -8.00552,-26.54034 -0.51512,-3.26476 -0.80224,-3.74418 -1.37989,-2.30581 -1.49307,3.71716 -7.50323,32.35459 -7.34975,35.01956 0.0876,1.52184 -0.76194,4.74196 -1.88791,7.15707 -1.89668,4.06839 -1.93375,4.47523 -0.50258,5.53397 1.41052,1.04343 1.22457,1.77649 -2.14376,8.42702 -2.75509,5.44026 -3.43595,7.58716 -2.68951,8.48652 0.73759,0.88876 0.55579,1.81247 -0.69175,3.52541 -0.92979,1.2765 -1.96428,2.33515 -2.30037,2.35083 -0.74543,0.0351 -5.54614,-12.52963 -7.21288,-18.87893 -1.42112,-5.4136 -2.40939,-6.8445 -3.09127,-4.47467 -3.43659,11.94303 -8.22771,26.10324 -9.32058,27.54908 -1.34724,1.78268 -1.38321,1.77105 -1.43209,-0.47739 -0.0277,-1.2682 -0.80049,-5.21115 -1.71858,-8.76211 l -1.66987,-6.45629 -3.41731,7.37861 c -2.7561,5.9492 -4.94746,8.91716 -11.3129,15.3265 -5.37228,5.40936 -7.79376,8.50376 -7.57498,9.68443 0.66205,3.57292 10.61635,6.77856 46.94682,15.11935 17.18351,3.94497 23.53954,6.01892 30.3287,9.89343 5.99024,3.4187 12.0515,8.43985 12.0515,9.98345 0,1.69515 -6.54041,6.50758 -12.45142,9.16203 -2.5364,1.13898 -8.17126,2.94389 -12.5217,4.01176 -4.35034,1.06787 -9.3309,2.55909 -11.06792,3.31281 -2.98004,1.2931 -2.37776,1.37289 10.67704,1.40148 7.6092,0.0166 17.30793,-0.24064 21.5522,-0.57101 9.16268,-0.71315 8.09342,0.83913 14.29248,-20.7686 l 4.05501,-14.12858 0.99252,3.68931 c 5.93711,22.03532 8.65059,29.97564 10.24106,29.97564 0.9404,0 7.36588,-8.14692 7.41108,-9.39621 0.0129,-0.34855 -1.42924,-0.39799 -3.20472,-0.10985 -3.826,0.62091 -3.9459,0.1781 -0.99621,-3.7001 2.14008,-2.81374 6.99134,-11.82294 6.99134,-12.98462 0,-0.30676 -0.96909,-0.55671 -2.15271,-0.55671 -3.14136,0 -3.42442,-0.73602 -1.54204,-3.99728 2.34215,-4.05787 5.75873,-15.49906 8.85941,-29.66766 1.44326,-6.59464 2.76883,-11.16016 2.94711,-10.1456 1.64018,9.3309 8.09407,34.18642 9.90063,38.13251 1.25354,2.73811 2.27879,5.1345 2.27879,5.32681 0,0.19239 -1.03761,0.35122 -2.30581,0.35122 -1.2682,0 -2.30582,0.32069 -2.30582,0.71342 0,0.39272 1.82667,3.92026 4.06036,7.83978 4.1169,7.22385 4.11736,7.74718 0.0129,8.84493 l -2.23738,0.59813 3.25702,4.83678 c 4.43307,6.58274 6.10986,6.45278 13.01708,-1.0034 2.97505,-3.21155 6.15948,-7.15449 7.0759,-8.76211 l 1.66637,-2.92193 h -4.17214 -4.17021 l 2.58316,-3.91989 c 1.42084,-2.15594 4.12548,-6.72146 6.00961,-10.1456 l 3.42441,-6.22571 h -3.27315 c -1.80029,0 -3.27316,-0.11262 -3.27316,-0.25032 0,-0.1378 2.07524,-4.30275 4.61164,-9.25389 4.82211,-9.41291 5.58008,-12.02457 3.22814,-11.12198 -0.76092,0.29247 -1.94934,0.31581 -2.6409,0.0507 -0.98504,-0.37806 -0.70631,-1.6482 1.28444,-5.86369 1.39751,-2.95938 3.63415,-10.1539 4.97189,-15.98762 1.33775,-5.83372 2.67503,-11.64438 2.97054,-12.91258 0.38895,-1.66877 1.36173,1.01013 3.52357,9.69891 3.04654,12.24472 5.89016,19.87827 8.46309,22.72125 1.99933,2.20925 0.69479,3.85238 -2.5436,3.20472 -1.46032,-0.2921 -2.65187,-0.22901 -2.64265,0.13872 0.0203,1.05367 7.27357,14.09436 9.20344,16.54784 l 1.74016,2.2122 1.39253,-2.12928 c 2.15225,-3.29031 4.24418,-8.74578 3.60104,-9.38902 -0.31811,-0.31801 -1.33793,-0.57829 -2.268,-0.57829 -2.03078,0 -2.02635,0.0424 -0.3729,-3.31642 0.72514,-1.47295 2.81863,-9.09682 4.65305,-16.94047 1.83442,-7.84366 3.47358,-14.39928 3.64245,-14.56816 0.44281,-0.44281 3.97173,12.94145 5.75191,21.817 2.27271,11.33116 2.71174,9.98318 5.39174,-16.50642 2.30296,-22.76341 3.72408,-31.75527 6.92281,-43.81054 0.40379,-1.52184 0.56981,5.11891 0.3693,14.75723 -0.20043,9.63832 -0.57932,33.22508 -0.8431,52.41419 -0.44143,32.12189 -1.47895,52.62532 -3.13259,61.94719 l -0.65578,3.6965 -2.78681,-8.27927 -2.78681,-8.28112 -2.89482,7.58218 c -1.5924,4.16993 -4.05086,11.31622 -5.46377,15.87952 -2.56352,8.27927 -2.57929,8.30205 -7.37678,10.8319 -3.11718,1.64387 -5.10738,2.21359 -5.66004,1.62311 -0.46873,-0.50091 -2.79557,-7.34301 -5.17186,-15.20585 -4.04081,-13.37024 -5.38713,-16.63518 -6.42926,-15.59305 -0.234,0.234 -2.74577,8.9226 -5.58082,19.30763 -7.60367,27.85271 -7.33628,27.17434 -11.16339,28.34893 -3.07199,0.9428 -3.30488,0.86025 -4.20636,-1.46817 -0.85906,-2.21875 -3.29492,-8.70713 -5.59881,-14.91578 -1.20068,-3.2358 -1.6279,-2.16221 -6.28151,15.76248 l -3.97393,15.30122 -4.68912,2.63555 c -7.57166,4.2547 -33.04845,20.22489 -46.04792,28.86589 -18.81261,12.5051 -21.23935,15.53513 -14.67256,18.31143 2.96048,1.25159 6.44808,1.37915 24.21109,0.8881 11.41379,-0.31552 29.67587,-1.40756 40.58239,-2.42645 10.90652,-1.0189 21.22635,-1.85729 22.93385,-1.85729 2.06251,0 4.53923,-1.05183 7.37862,-3.1219 14.12489,-10.29796 47.86666,-27.9074 63.95767,-33.38031 3.44544,-1.17191 6.26352,-2.00698 6.26352,-1.85544 0,0.68962 -10.54257,7.16915 -16.70094,10.26448 -3.74991,1.88478 -10.3463,5.95473 -14.65818,9.04499 -10.99294,7.87843 -30.06833,25.85098 -34.21797,32.23819 -1.91346,2.94527 -5.01008,10.00107 -6.88148,15.67956 -1.8714,5.6785 -4.25783,11.88216 -5.30338,13.78631 -1.85231,3.37313 -1.85776,3.49312 -0.17294,4.72508 1.65069,1.20705 1.54471,1.5745 -2.36346,8.06852 -2.25159,3.74142 -4.22002,7.07489 -4.37377,7.40923 -0.15366,0.33435 0.96678,0.88156 2.48954,1.216 l 2.76874,0.60892 -2.76874,4.4981 -2.76698,4.49819 -3.18129,-3.51997 c -3.75793,-4.15961 -3.99617,-5.60249 -0.92777,-5.60249 1.23823,0 2.49647,-0.39651 2.79576,-0.88083 0.29939,-0.48431 -1.69385,-5.36112 -4.42782,-10.83734 -2.73396,-5.47623 -5.70772,-12.23928 -6.60939,-15.02932 -3.7262,-11.52964 -5.27571,-15.00737 -6.11226,-13.71593 -0.45019,0.69497 -3.31549,8.87749 -6.36803,18.18165 -5.65405,17.23415 -7.12608,20.7994 -10.43023,25.26854 -2.17946,2.94803 -1.83764,3.55871 2.05725,3.66948 1.57396,0.0443 2.86245,0.23316 2.86245,0.41975 0,0.71462 -5.01368,8.28674 -7.49031,11.31289 -1.95377,2.38726 -2.34539,3.46961 -1.5889,4.38106 0.55248,0.66573 1.55053,1.21055 2.2194,1.21055 2.20657,0 2.40506,1.83433 0.526,4.87469 -1.91853,3.10427 -6.38822,7.72255 -6.8148,7.04178 -0.13373,-0.21333 -1.61342,-3.24751 -3.28754,-6.74277 -2.14377,-4.47568 -2.75471,-6.64333 -2.06629,-7.33176 1.49011,-1.49002 1.1922,-3.6063 -1.27539,-9.02875 -1.23989,-2.72456 -3.80442,-10.34953 -5.69786,-16.94417 -1.89354,-6.59464 -3.72925,-12.32976 -4.0802,-12.74499 -0.35094,-0.41523 -1.7883,3.94276 -3.19392,9.68444 -1.40563,5.74167 -3.95531,14.76018 -5.66549,20.04078 -2.79253,8.62265 -2.9663,9.7573 -1.71497,11.13996 1.84142,2.03484 1.84816,1.99905 -1.56003,8.03799 l -2.9543,5.2331 -1.29707,-3.17234 c -0.71352,-1.74431 -3.07864,-9.39621 -5.25653,-17.00541 -2.17798,-7.6092 -4.18386,-13.21234 -4.45668,-12.45142 -0.27292,0.76092 -1.96327,8.18187 -3.75775,16.49029 -1.79448,8.30851 -4.10242,16.52893 -5.12869,18.26816 -2.26985,3.84722 -2.31919,4.82802 -0.31166,6.29599 1.42454,1.04159 1.30842,1.52083 -1.38349,5.71585 -1.61619,2.5186 -2.93807,4.8412 -2.93807,5.16107 0,0.31986 1.01686,1.11463 2.25896,1.76542 2.20962,1.15771 2.22493,1.25077 0.76738,4.26032 -1.87389,3.86926 -2.76339,4.43566 -18.35284,11.70564 -7.04243,3.2842 -14.25714,6.9092 -16.03262,8.0542 -3.85201,2.484 -4.26651,5.3513 -0.92233,6.3806 v -0.01 c 1.2682,0.3904 8.53152,0.5103 16.14072,0.2667 22.54583,-0.7216 47.0374,-4.997 68.71513,-11.9975 16.9865,-5.4854 80.51354,-31.34634 86.27365,-35.12051 2.8678,-1.87905 2.94177,-4.04237 0.13872,-4.04237 -1.17126,0 -2.90339,-0.56539 -3.84961,-1.25732 -1.63298,-1.19404 -1.52949,-1.48725 2.02119,-5.76454 4.73403,-5.70257 8.63455,-11.97559 7.90278,-12.70727 -0.30935,-0.30935 -1.3514,-0.56207 -2.31477,-0.56207 -0.96337,0 -2.56047,-0.43386 -3.55059,-0.96374 -1.73351,-0.92777 -1.69644,-1.11297 1.01059,-5.04753 3.09921,-4.50446 8.28831,-15.01613 8.28831,-16.7929 4.6e-4,-0.75299 -0.88405,-0.95194 -2.65353,-0.59804 -3.72215,0.74441 -4.24049,-0.84144 -1.62846,-4.97918 2.59377,-4.10878 6.88019,-17.05872 9.90782,-29.93053 1.1602,-4.93261 2.28396,-8.79476 2.49674,-8.58198 0.21269,0.21269 1.1399,4.14263 2.06085,8.73324 2.24015,11.16698 7.10551,26.19566 9.73304,30.0675 2.32454,3.42543 1.67633,4.64032 -1.98328,3.72177 -1.23952,-0.31073 -2.25361,-0.33397 -2.25361,-0.0507 0,0.97333 3.96038,8.28748 7.67403,14.17184 3.5909,5.68983 3.6574,5.9337 1.94196,7.18944 -1.21184,0.8871 -2.90846,1.10809 -5.34479,0.6971 l -3.57042,-0.60348 1.72577,2.97598 c 0.94889,1.63658 3.20278,4.65628 5.00971,6.7103 l 3.28579,3.73616 4.09283,-3.56322 c 6.03875,-5.25432 12.85668,-11.82276 12.85668,-12.39018 6.5e-4,-0.27227 -2.19403,-0.35851 -4.87819,-0.19092 -3.8236,0.2387 -5.37218,-0.0974 -7.14988,-1.54748 l -2.26975,-1.85 2.85884,-3.066 c 4.62492,-4.95926 15.12654,-18.26706 15.12654,-19.16901 0,-0.48643 -1.23758,-0.47564 -2.99037,0.0267 -4.21614,1.20917 -8.362,1.06603 -10.30774,-0.35666 -1.53762,-1.12432 -1.33636,-1.5022 2.69135,-5.04753 7.03532,-6.19269 17.22501,-19.70958 15.87592,-21.05867 -0.22071,-0.22071 -1.55532,0.0378 -2.96694,0.57471 -1.83672,0.6982 -3.46943,0.67763 -5.74112,-0.072 l -3.17409,-1.04665 2.25536,-2.4391 c 4.34527,-4.69824 12.65857,-18.0813 12.65857,-20.37771 0,-0.53246 -1.58981,-0.96918 -3.53435,-0.96918 -1.94464,0 -3.77656,-0.23851 -4.0694,-0.53135 -0.29293,-0.29284 0.66453,-2.47184 2.12744,-4.84222 2.85958,-4.63322 6.04244,-15.74514 9.16018,-31.98068 1.07147,-5.58008 2.18868,-11.18322 2.48235,-12.45142 0.36119,-1.56021 1.50081,2.31726 3.52366,11.99026 3.50844,16.77768 6.86211,27.33003 10.64458,33.4956 1.49887,2.44334 2.72372,4.66624 2.72372,4.93952 0,0.27319 -1.66019,0.33942 -3.68931,0.14591 -2.02912,-0.19341 -3.6893,-0.2268 -3.6893,-0.0738 0,1.622 7.33074,13.94494 10.9328,18.3781 l 4.62787,5.69427 -2.477,0.83046 c -1.36219,0.45655 -3.82582,0.53984 -5.47448,0.18557 -1.64866,-0.35426 -2.99756,-0.46872 -2.99756,-0.25401 0,2.34604 6.78086,11.73016 13.68356,18.93833 l 4.15951,4.34509 -2.52561,0.95829 c -3.1195,1.18602 -5.68311,1.21406 -9.55836,0.10266 -1.64533,-0.47186 -2.99212,-0.61353 -2.99212,-0.31525 0,1.06132 7.34837,10.00863 11.8389,14.41505 l 4.56478,4.47827 2.40497,-3.5398 c 3.36926,-4.95834 3.18858,-6.80217 -0.66832,-6.80217 -1.69099,0 -3.33633,-0.25945 -3.65509,-0.5782 -0.31875,-0.31876 0.8099,-2.29023 2.50753,-4.38106 2.61895,-3.22556 9.75472,-16.11139 9.75472,-17.61432 0,-0.26628 -0.96724,-0.4846 -2.15087,-0.4846 -3.16552,0 -3.42755,-0.74072 -1.44657,-4.09817 2.97413,-5.0408 7.04879,-18.31244 9.57818,-31.19883 1.31727,-6.71103 2.72179,-13.00822 3.12005,-13.99345 0.50497,-1.24911 1.36799,1.68168 2.85165,9.68443 2.61231,14.09077 6.72653,29.03652 9.75647,35.44116 1.25021,2.64275 2.2716,5.28392 2.2716,5.86905 0,3.79906 7.6365,-3.18618 13.17738,-12.05334 2.52662,-4.04339 5.26916,-9.37288 5.26916,-10.23922 0,-0.11639 -1.69542,-0.0498 -3.76854,0.14767 -5.66594,0.54039 -6.05756,-0.76397 -1.77981,-5.92844 3.60676,-4.35431 6.54917,-9.60706 7.83259,-13.98267 0.5509,-1.87804 0.29523,-2.07524 -2.68232,-2.07524 -1.80969,0 -3.28247,-0.31128 -3.27324,-0.69174 0.009,-0.38046 1.19247,-2.42618 2.63011,-4.5468 3.15684,-4.65664 5.8945,-12.91461 9.31688,-28.1093 1.41024,-6.26103 2.79327,-10.76245 3.07329,-10.00153 0.28002,0.76092 1.40784,5.74148 2.50578,11.06792 2.57698,12.5016 6.8575,25.86012 9.27012,28.92723 2.44731,3.11119 1.49952,4.62335 -2.49139,3.97578 -3.63895,-0.59057 -3.75119,-0.9487 3.3308,10.44637 2.36457,3.8046 4.54828,7.59389 4.85301,8.41983 0.8122,2.20095 -1.03771,3.54737 -4.04772,2.94536 -3.28524,-0.65716 -3.28192,-0.18087 0.0415,4.60979 4.4209,6.37301 9.36208,11.37728 9.91862,10.04655 0.27301,-0.65283 1.53106,-2.41678 2.79575,-3.9199 l 2.30047,-2.73276 h -3.3723 c -1.85388,0 -4.19594,-0.44115 -5.20608,-0.98172 -1.76026,-0.94216 -1.70437,-1.12939 1.34568,-4.50539 2.64763,-2.9306 12.60268,-18.60739 12.60268,-19.84626 0,-0.20614 -1.44972,-0.13964 -3.22086,0.14775 -1.94999,0.31645 -3.76586,0.0692 -4.60269,-0.62506 -1.20401,-0.99925 -1.10071,-1.36753 0.79984,-2.86253 1.19986,-0.94373 3.93234,-5.08249 6.0726,-9.19625 l 3.89102,-7.47943 -2.62282,0.30797 c -3.19236,0.37474 -3.1906,-0.13042 0.0166,-6.79848 2.38496,-4.95907 5.38141,-15.74209 8.15144,-29.32539 l 1.2231,-5.99513 3.93972,16.14073 c 2.44361,10.01352 4.94598,17.97883 6.59325,20.98294 l 2.65529,4.84222 h -3.14707 c -1.73112,0 -3.14892,0.22127 -3.14892,0.49178 0,1.32096 4.87284,9.85489 7.86681,13.77727 2.62761,3.4424 3.10178,4.59614 2.13647,5.20792 -1.59138,1.00893 -2.44093,1.00294 -6.08883,-0.0434 -1.64534,-0.47233 -2.99212,-0.64711 -2.99212,-0.39088 0,1.10614 8.38275,13.26158 12.79544,18.55464 5.43878,6.52371 5.20396,7.10708 -2.88043,7.12645 -2.40958,0.009 -4.38105,0.27559 -4.38105,0.59988 0,0.32429 0.79514,1.56943 1.76543,2.76698 1.63408,2.01676 1.99139,2.08834 4.84221,0.98532 1.69294,-0.65503 8.36865,-3.11008 14.83647,-5.45648 l 11.75967,-4.26577 V 765.03416 c 0,-100.13475 -0.19194,-117.90292 -1.28259,-117.90292 -0.70623,0 -3.6455,-2.54969 -6.53017,-5.66549 -5.2545,-5.67554 -5.51376,-7.19572 -1.23398,-7.23446 2.89887,-0.0258 2.44583,-1.40267 -2.10042,-6.37346 -4.98425,-5.44957 -5.21981,-6.10793 -3.04441,-8.5117 1.37196,-1.51603 1.33968,-1.94879 -0.40352,-5.606 -1.03919,-2.17992 -3.25489,-9.04747 -4.92514,-15.26165 -1.67024,-6.21418 -3.30036,-11.29851 -3.62262,-11.29851 -0.32235,0 -0.84015,1.84585 -1.14931,4.10186 -0.30926,2.25611 -1.46659,8.04076 -2.57246,12.85494 l -2.01031,8.75307 -4.57566,-1.74016 c -7.79975,-2.96362 -14.43304,-7.5355 -21.99529,-15.16259 l -7.27237,-7.33361 v -24.79474 -24.79473 l 4.77378,7.1354 c 2.62504,3.92477 7.17626,9.59229 10.11314,12.59373 4.36805,4.46406 5.80651,5.40244 7.90821,5.16106 2.43117,-0.27919 2.56675,-0.53679 2.50403,-4.8079 l -0.0664,-4.51258 1.91134,2.31836 c 1.05099,1.27595 3.87359,5.02825 6.27431,8.33701 4.29021,5.91258 10.93982,11.26715 15.37151,12.37938 1.65281,0.41486 2.68932,0.024 3.90375,-1.47535 1.59221,-1.96631 1.58557,-2.2099 -0.15495,-6.62563 -0.99372,-2.52119 -2.4782,-5.60812 -3.29843,-6.85981 -2.29991,-3.51019 -0.13576,-2.72852 6.47252,2.33644 3.30922,2.5364 6.2401,4.61163 6.5121,4.61163 0.27208,0 0.49363,-11.58249 0.49363,-25.73874 v -25.73864 l -4.38106,-3.14892 c -9.71589,-6.98257 -23.81753,-22.04961 -29.14157,-31.13574 -1.54342,-2.63389 -0.98311,-2.37213 5.97714,2.78857 6.92345,5.13349 24.25213,14.72126 26.60693,14.72126 0.62432,0 0.93856,-14.93091 0.93856,-44.5365 v -44.53651 l -4.41168,-3.29483 c -12.05214,-8.99776 -27.09631,-24.24493 -33.02549,-33.47402 -1.40498,-2.18693 -0.22708,-1.5626 6.08883,3.22999 8.09628,6.14372 22.13493,13.40252 24.3084,12.56846 0.92269,-0.35408 1.07478,-1.55421 0.59628,-4.70709 -0.35316,-2.32694 -0.45563,-4.2297 -0.22883,-4.2297 0.2268,0 1.71599,1.09821 3.31106,2.44094 l 2.90026,2.44094 0.2612,-20.19583 c 0.14333,-11.10787 0.0267,-21.02574 -0.2576,-22.0403 -0.28463,-1.01456 -3.03704,-3.91989 -6.11761,-6.45629 -14.16833,-11.6655 -22.22809,-19.31925 -30.55393,-29.01549 -4.94921,-5.76372 -8.8003,-10.67852 -8.55855,-10.92027 0.24174,-0.24164 3.04552,1.25631 6.23115,3.32905 7.37972,4.80155 15.43957,8.36579 18.82847,8.32613 1.4535,-0.0175 4.47025,0.6353 6.70302,1.45017 2.23277,0.81497 6.27948,1.74375 8.99269,2.0626 l 4.93233,0.5783 v -7.45065 -7.4525 l -5.08719,-4.39369 c -2.79797,-2.41566 -6.72819,-6.33731 -8.73333,-8.71525 l -3.6443,-4.32341 7.29219,-0.10625 c 10.3368,-0.15099 10.17263,-0.0258 10.17263,-7.874 v -6.65994 l -4.6513,-2.17964 c -12.28549,-5.75413 -28.88729,-18.5243 -39.1989,-30.15217 -6.84146,-7.71471 -12.41176,-14.57517 -12.41176,-15.28693 0,-0.29394 2.0697,0.85961 4.599,2.56167 8.31773,5.59742 21.53781,9.12782 28.05535,7.49207 3.54468,-0.88968 2.93715,-2.50052 -2.28784,-6.06172 -4.6476,-3.16773 -17.01629,-15.539 -16.27584,-16.27944 0.21287,-0.21278 2.6278,0.61583 5.36822,1.84281 8.94528,4.00806 24.34113,4.00649 27.66622,0 0.75059,-0.90435 0.0765,-1.80721 -2.81734,-3.77039 -13.55711,-9.19689 -31.39095,-26.29314 -42.75494,-40.98951 -3.39047,-4.38474 -6.16447,-8.20004 -6.16447,-8.47747 0,-0.27753 1.14138,0.0904 2.5364,0.81782 3.19688,1.66766 9.82463,1.72881 11.17418,0.10275 0.80031,-0.96429 -0.23012,-2.24992 -4.73052,-5.9087 -5.64511,-4.58923 -10.67234,-9.46105 -9.76367,-9.46105 0.25328,0 3.51121,1.03762 7.2399,2.30582 10.10548,3.43705 25.82516,2.88799 25.82516,-0.9025 0,-0.65107 -1.55642,-2.35489 -3.45872,-3.78661 -10.83818,-8.15697 -19.89174,-17.67807 -28.29488,-29.754 -3.23174,-4.64438 -3.85071,-7.12378 -1.24117,-4.97015 2.20989,1.82381 12.64095,4.82599 16.76578,4.82599 2.2657,0 5.25828,-0.43257 6.65081,-0.96199 l 2.53105,-0.96374 -6.08883,-6.1843 c -8.80804,-8.947491 -18.17935,-21.929799 -24.21284,-33.542457 -2.89279,-5.567535 -5.0289,-10.355243 -4.74676,-10.637383 0.28214,-0.28214 1.80804,0.576454 3.3902,1.907741 1.64073,1.38054 4.0136,2.421109 5.52142,2.421109 h 2.64265 l -5.4385,-11.298508 c -6.45473,-13.408792 -9.11453,-22.171915 -13.57546,-44.7310228 -1.83045,-9.2568444 -3.44628,-16.7134902 -3.59025,-16.5695152 -0.2577,0.257698 -5.10702,24.556961 -8.13161,40.746293 -1.96972,10.543491 -5.18025,16.54987 -13.93221,26.061184 -6.48451,7.047133 -6.77689,7.543714 -4.81519,8.167668 3.23829,1.030055 10.74326,0.49446 13.5737,-0.969181 l 2.55263,-1.320404 -3.529,8.805273 c -1.94141,4.843602 -4.98841,11.413619 -6.7697,14.598784 -4.98214,8.908943 -15.30703,21.671549 -21.59186,26.689839 -3.11692,2.48881 -5.66724,4.86076 -5.66724,5.27092 0,4.33697 20.66566,2.70943 26.43943,-2.08243 2.45726,-2.03927 2.39989,0.13687 -0.15311,5.82579 -1.70142,3.79113 -2.217,5.85834 -1.52036,6.09058 2.96998,0.98994 -22.94916,27.65239 -35.62129,36.64268 -4.19521,2.97635 -7.48367,5.8517 -7.30659,6.3897 1.71092,5.19685 20.91682,4.17085 34.51884,-1.84466 2.82702,-1.25021 5.32957,-2.08501 5.56098,-1.85369 0.6531,0.6531 -7.84605,12.46156 -15.00045,20.84063 -7.25881,8.50127 -15.71729,15.62228 -29.68925,24.99654 -5.23015,3.50899 -9.50965,6.77717 -9.50965,7.26148 0,3.62484 11.87459,5.20285 20.96671,2.78681 2.65418,-0.70567 5.10701,-1.00164 5.45113,-0.65752 0.90896,0.90895 -2.18702,4.0337 -7.24893,7.31377 -2.42573,1.57174 -4.41168,3.17078 -4.41168,3.55235 0,3.02108 18.31576,1.1328 26.05574,-2.68591 2.91686,-1.43911 5.30338,-2.31763 5.30338,-1.95266 0,1.61758 -8.99278,12.62878 -17.68995,21.65845 -9.66738,10.03714 -22.86782,20.69343 -32.36613,26.12778 -2.90523,1.66222 -5.28355,3.41178 -5.28355,3.88927 0,1.60679 5.96737,4.52697 9.26109,4.52697 4.5468,0.009 12.9706,-2.31366 18.39434,-5.06201 5.42162,-2.74734 5.54835,-2.76265 5.54835,-0.72956 0,0.8703 -1.93126,3.54349 -4.29279,5.94107 -4.21844,4.28283 -4.25395,4.36925 -2.04646,4.9233 2.90358,0.72873 9.54,-0.77937 15.98947,-3.63167 2.8095,-1.24247 5.10702,-1.93467 5.10702,-1.53844 0,1.43468 -17.83661,19.58414 -25.87202,26.32598 -12.77451,10.71809 -31.41142,22.47094 -34.17296,21.55036 -0.47527,-0.15836 2.28737,-2.91547 6.13744,-6.1284 l 7.00037,-5.84202 -9.75111,-9.99784 c -5.36223,-5.49873 -9.74928,-10.44213 -9.74928,-10.9851 0,-1.20696 -0.30013,-1.23408 4.15047,0.3693 6.92788,2.49581 17.98538,1.39631 17.98538,-1.78876 0,-0.77033 -1.76395,-2.62144 -3.91989,-4.11451 -10.57725,-7.32521 -12.66198,-8.86863 -12.67121,-9.37278 -0.009,-0.30012 1.6494,-1.04223 3.67852,-1.65013 2.02912,-0.60791 3.68931,-1.19718 3.68931,-1.30777 0,-0.11059 -2.68176,-3.00522 -5.96091,-6.43286 -5.66899,-5.92549 -14.19277,-18.63811 -13.17738,-19.6535 0.26194,-0.26194 2.03576,0.58198 3.94147,1.87527 3.38937,2.3001 7.11613,2.88393 11.27693,1.76893 1.14138,-0.30593 2.06564,-0.81893 2.05365,-1.14027 -0.012,-0.32125 -2.9045,-3.89075 -6.42751,-7.9334 -4.339,-4.979 -8.05182,-10.60731 -11.50926,-17.44499 -2.80729,-5.55176 -4.92237,-10.27629 -4.6999,-10.49866 0.22237,-0.22247 1.35278,0.26092 2.51297,1.07359 2.47912,1.73637 5.50712,1.9129 7.01116,0.40896 0.80981,-0.80981 0.43488,-1.87057 -1.54923,-4.38106 -3.43714,-4.34923 -9.29715,-15.45626 -9.29715,-17.62327 0,-0.93828 0.83009,-1.96945 1.84465,-2.29143 2.34447,-0.74413 2.35222,-2.48281 0.0194,-4.59365 -2.91317,-2.63629 -5.2544,-10.25656 -7.47048,-24.3083 -1.13446,-7.19379 -2.18038,-12.96248 -2.32389,-12.81897 -0.14361,0.14361 -1.33535,6.27008 -2.6481,13.61337 -2.8783,16.10014 -4.28181,20.55452 -7.88479,25.03795 -2.93752,3.65537 -2.44297,5.03978 1.45193,4.06221 1.23942,-0.31101 2.25361,-0.23658 2.25361,0.16749 0,1.59351 -7.45305,15.18916 -10.55096,19.24639 -1.80628,2.36558 -3.28394,4.62759 -3.28394,5.02779 0,1.22632 3.57807,1.94648 6.4941,1.30601 l 2.76339,-0.60707 -1.91854,4.91785 c -2.79871,7.17801 -8.37141,16.16765 -13.72137,22.1305 -2.57624,2.87139 -4.68551,5.66447 -4.68551,6.20763 0,2.94075 8.27244,1.84124 14.52665,-1.93108 1.64866,-0.99436 2.99757,-1.53881 2.99757,-1.21055 0,0.32825 -1.3917,3.57909 -3.09303,7.22366 -4.76262,10.20214 -11.1976,17.62595 -25.09744,28.95241 -3.04968,2.48512 -3.40892,3.1171 -2.24633,3.96315 1.35259,0.9843 7.85767,0.71904 11.52909,-0.47021 1.01456,-0.32862 -0.74939,1.87196 -3.91989,4.89092 -3.1705,3.01896 -5.76455,6.16483 -5.76455,6.98949 0,2.12771 6.58579,1.98226 13.94476,-0.30806 3.19393,-0.99408 5.98498,-1.62966 6.20228,-1.41227 1.09702,1.09693 -11.3544,16.56943 -18.92929,23.52294 -2.95237,2.71026 -8.18307,6.9906 -11.62455,9.5115 -3.44138,2.52091 -6.10728,5.04135 -5.92309,5.60056 0.60892,1.84889 4.73347,3.29104 9.41244,3.30027 2.86788,0 8.08899,-1.19368 13.80788,-3.16515 5.05786,-1.74357 9.37112,-2.99572 9.58354,-2.78322 0.69986,0.69977 -4.73791,7.20817 -14.01679,16.77667 -9.04324,9.32556 -9.1138,9.43227 -6.85622,10.46085 1.75805,0.80104 3.52772,0.72209 7.7209,-0.34762 2.99221,-0.7635 5.54789,-1.28434 5.67803,-1.1566 0.37917,0.37225 -11.15195,13.5215 -15.74081,17.94941 l -4.19373,4.04597 -2.78321,-9.11877 c -1.53116,-5.0158 -3.28293,-10.98833 -3.89287,-13.27109 l -1.10965,-4.15047 -3.44609,13.98266 c -1.89547,7.69027 -3.75572,14.48072 -4.13249,15.09047 -0.37686,0.60966 -0.27845,1.37317 0.21795,1.69699 0.54353,0.35445 -0.63272,5.17361 -2.95606,12.11449 -3.59191,10.73027 -3.9387,11.37516 -5.02963,9.33682 -0.93211,-1.74099 -0.93672,-2.33331 -0.0249,-2.89667 0.87455,-0.54057 0.53099,-2.39491 -1.44833,-7.82179 -2.11997,-5.81269 -2.39427,-7.43433 -1.49878,-8.86836 0.88571,-1.41808 0.75769,-2.41788 -0.66656,-5.20977 -1.32982,-2.60649 -6.87448,-24.79464 -7.58578,-30.35572 -0.0535,-0.41708 -1.49204,6.28151 -3.19752,14.88516 -2.01362,10.15824 -3.94055,17.26228 -5.49615,20.26058 -2.21939,4.27784 -2.27962,4.70119 -0.83037,5.76095 1.44003,1.05302 1.29864,1.69966 -1.76008,8.14055 -2.7038,5.69343 -3.06922,7.09371 -1.96529,7.51733 1.88118,0.72182 1.77908,1.11362 -1.86448,7.16427 -3.33634,5.5406 -3.43161,6.99309 -0.46117,6.99309 1.53531,0 1.62634,0.32862 0.77642,2.76698 -0.53053,1.52184 -1.29919,2.76698 -1.70954,2.76698 -0.77466,0 -5.37412,-10.62604 -7.38581,-17.06305 -0.63419,-2.02912 -1.36292,-4.05345 -1.61951,-4.4981 -0.68695,-1.19017 -2.53363,3.68073 -5.26917,13.89975 -1.33184,4.97503 -2.88522,10.49755 -3.45328,12.27303 l -1.03402,3.22815 -1.17634,-4.57373 c -0.83378,-3.23746 -0.89299,-4.91554 -0.2018,-5.7484 0.7053,-0.84974 0.0729,-4.44746 -2.27695,-12.95215 -1.78886,-6.47603 -3.71882,-13.85216 -4.28919,-16.39298 -0.57037,-2.54074 -1.35315,-5.13285 -1.74016,-5.75911 -0.40093,-0.64867 -2.66654,6.77311 -5.26556,17.25223 -2.50855,10.1147 -4.80302,18.10067 -5.09798,17.7476 -0.29496,-0.35307 -1.05441,-2.45985 -1.68795,-4.68376 -1.02379,-3.59385 -1.30528,-3.89001 -2.53465,-2.66064 -0.76074,0.76083 -2.30619,5.05887 -3.4353,9.55107 l -2.05356,8.16582 -2.93457,-10.11857 c -1.61361,-5.56542 -3.65776,-12.92015 -4.5432,-16.34429 -0.88552,-3.42414 -1.85683,-6.22571 -2.15806,-6.22571 -0.30123,0 -2.72769,6.88425 -5.39349,15.29772 -2.6658,8.41347 -5.08562,15.05764 -5.37717,14.76618 -0.69405,-0.69405 -10.38882,-34.53893 -10.38882,-36.26793 0,-0.73085 -0.49473,-1.16204 -1.1007,-0.96014 -0.60588,0.20199 -2.41244,4.66928 -4.01351,9.92756 l -2.91114,9.5602 -1.43394,-6.39145 c -0.7885,-3.51573 -2.59045,-11.69336 -4.00456,-18.17096 -1.41411,-6.4775 -2.98585,-11.63857 -3.49295,-11.46959 -1.06731,0.35583 -7.57212,21.27578 -8.50265,27.34552 l -0.62875,4.10002 -4.43326,-8.71166 c -4.95345,-9.73239 -5.06764,-10.09339 -3.19753,-10.09339 2.43366,0 2.34096,-1.55772 -0.33683,-5.64022 -1.8608,-2.8368 -3.41722,-7.48606 -5.21336,-15.57331 -1.4083,-6.341 -2.84418,-11.86444 -3.19033,-12.27488 -0.34624,-0.41043 -1.95921,4.15508 -3.58481,10.1456 -1.62569,5.99051 -4.14051,12.83557 -5.58801,15.2112 l -2.63186,4.31982 1.94196,1.28803 c 1.92849,1.28046 1.91659,1.32363 -1.69155,6.69406 -1.99739,2.97294 -4.05649,5.53728 -4.57557,5.69795 -0.51909,0.16067 -2.67346,-3.19724 -4.78827,-7.46153 -3.62493,-7.30898 -3.73966,-7.78057 -2.00495,-8.23426 1.75445,-0.45877 1.69229,-0.77466 -1.32225,-6.78058 -3.99294,-7.95563 -5.05389,-12.29471 -3.00476,-12.29471 1.88699,0 1.83793,-0.75032 -0.38009,-5.76455 -1.01059,-2.28451 -2.75591,-9.44795 -3.87847,-15.91918 l -2.04102,-11.76502 -2.93448,11.88215 c -1.61416,6.53534 -3.38263,13.01155 -3.92893,14.39154 -0.80869,2.04313 -0.71803,2.66248 0.48284,3.33449 1.30897,0.73251 1.18759,1.43541 -1.07728,6.25273 l -2.55263,5.42762 -4.73052,-14.68336 c -2.60226,-8.07617 -5.1916,-14.83831 -5.75376,-15.02563 -0.58743,-0.19581 -2.07284,3.1075 -3.49294,7.76765 -3.37913,11.0885 -4.29307,13.24711 -5.33576,12.60277 -0.56382,-0.34845 -0.52314,-0.92527 0.1081,-1.55642 1.76718,-1.76718 1.09535,-3.82453 -3.14892,-9.65741 -2.28276,-3.13721 -4.15047,-5.91904 -4.15047,-6.1807 0,-0.26167 1.63602,-0.47556 3.63526,-0.47556 6.21363,0 5.95371,-1.35462 -2.44998,-12.74508 -5.73272,-7.77024 -6.53662,-9.39077 -4.6548,-9.39077 0.73657,0 2.07515,-0.81165 2.97414,-1.80499 1.57533,-1.7408 1.53392,-1.93255 -1.1115,-5.30338 -3.16736,-4.03601 -3.65601,-5.49836 -7.61824,-22.70512 -1.61481,-7.01245 -3.13812,-12.54687 -3.38485,-12.30015 -0.24672,0.24672 -1.85443,6.77099 -3.57217,14.49788 -2.91437,13.11032 -3.37442,14.34716 -6.89947,18.52761 l -3.77757,4.48011 2.42111,0.92058 c 1.33211,0.50645 2.80968,0.92048 3.28394,0.92048 1.59959,0 0.88304,1.21969 -4.77369,8.11178 -5.87716,7.16076 -5.94984,7.75225 -1.09886,9.04673 1.98789,0.53053 1.96373,0.63549 -1.29347,5.54116 -2.84815,4.28965 -3.1776,5.31464 -2.31845,7.20033 0.55035,1.20899 0.80288,2.39649 0.56031,2.63906 -0.48487,0.48496 -10.50411,-9.73692 -10.50411,-10.71661 0,-0.33453 1.78812,-0.60892 3.97394,-0.60892 2.18573,0 4.77978,-0.60118 5.76455,-1.33664 1.71018,-1.27742 1.5639,-1.5354 -3.2714,-5.76455 -2.78396,-2.43503 -6.61051,-6.08809 -8.50451,-8.11721 l -3.44434,-3.68931 3.98298,-0.59444 c 5.2011,-0.77706 9.8761,-3.20785 9.25934,-4.81519 -0.26277,-0.68483 -4.8151,-5.27848 -10.11498,-10.20685 -9.15926,-8.51723 -11.61653,-11.65009 -8.02176,-10.22851 4.12622,1.63132 7.67718,1.62827 9.48623,-0.009 1.80961,-1.6376 1.7408,-1.75713 -4.95207,-8.65586 -6.67543,-6.88065 -8.05164,-8.75335 -9.78709,-13.31794 l -0.87187,-2.29494 5.02235,0.51697 c 2.76255,0.28518 5.02234,0.18833 5.02234,-0.2162 0,-0.40462 -1.60641,-2.8498 -3.57042,-5.43306 -5.19713,-6.83555 -8.23057,-11.75727 -8.8702,-14.39337 -0.48072,-1.98116 -0.13116,-2.47968 2.41032,-3.4389 2.75056,-1.03827 2.86604,-1.24275 1.53659,-2.75435 -3.26079,-3.70775 -5.48,-10.08325 -7.2327,-20.77579 -2.86023,-17.44923 -2.76108,-17.44185 -5.55915,-0.35491 -2.26136,13.80909 -2.82499,15.84116 -5.02778,18.14033 -2.66138,2.77787 -2.40839,4.58462 0.64129,4.58462 1.20852,0 1.71673,0.44843 1.41051,1.24661 -0.43404,1.13096 -8.21655,13.16982 -10.24106,15.84162 -0.46116,0.60864 -0.55902,1.83764 -0.21619,2.73101 0.5083,1.32464 1.30214,1.51677 4.29823,1.03762 2.42572,-0.38784 3.67308,-0.24027 3.67308,0.43414 0,1.78119 -3.75978,6.62747 -10.5149,13.55571 -7.35971,7.54824 -7.27191,8.76617 0.59988,8.30095 2.40995,-0.1425 4.38142,0.059 4.38105,0.44853 0,1.22743 -11.89627,12.66576 -13.17203,12.66576 -0.66905,0 -3.65915,-2.17706 -6.64537,-4.83862 l -5.42955,-4.84037 4.44774,-0.63595 c 8.31219,-1.18906 7.81571,-2.28442 -6.4419,-14.18253 l -4.48731,-3.7452 6.15543,0.39273 c 3.38604,0.21554 7.2422,0.1187 8.56934,-0.21435 2.33505,-0.58605 2.10512,-0.92307 -7.12461,-10.48972 -6.07186,-6.29359 -10.65768,-12.00086 -12.62251,-15.70659 -1.69745,-3.2013 -2.87904,-6.02907 -2.62467,-6.28335 0.25429,-0.25438 2.33681,0.17395 4.62603,0.9512 3.45365,1.17255 4.82386,1.22051 8.05053,0.28638 l 3.88752,-1.12589 -6.80936,-7.00572 c -6.13993,-6.31702 -11.58249,-13.93378 -13.38278,-18.72933 -0.56078,-1.49389 -0.386,-1.64976 1.1079,-0.98901 2.52773,1.11805 7.99796,1.09425 8.38561,-0.036 0.18004,-0.52462 -1.59747,-3.59901 -3.95051,-6.83278 -2.35313,-3.23387 -5.92309,-8.92748 -7.93174,-12.65138 -3.34731,-6.20569 -3.49608,-6.7697 -1.78701,-6.7697 1.02563,0 2.96381,-0.41763 4.30543,-0.92777 l 2.43909,-0.92767 -2.71468,-3.45338 c -4.32065,-5.49781 -5.51856,-8.53678 -7.57683,-19.22831 -3.45365,-17.94 -4.63663,-23.75518 -4.88723,-24.00578 -0.13539,-0.1353 -1.40553,6.47686 -2.82278,14.69424 -3.25821,18.89166 -4.62722,23.79715 -7.63263,27.36896 -2.81687,3.34767 -2.51869,4.14521 1.04482,2.7904 1.40894,-0.53578 2.74115,-0.79513 2.95975,-0.57645 0.76368,0.76359 -3.29253,7.5676 -10.22492,17.15492 -4.52817,6.26241 -6.66871,9.97635 -6.08699,10.55815 0.58171,0.58171 2.60114,0.54085 5.74111,-0.11713 2.66433,-0.55829 5.2118,-0.6674 5.66014,-0.24313 1.37676,1.30297 -3.90698,9.09525 -11.60121,17.10982 -7.95139,8.28231 -7.95655,8.36347 -0.54759,10.03215 l 4.41343,0.99436 -4.32157,4.93952 c -2.376,2.71616 -6.37761,6.5643 -8.89363,8.55311 l -4.57557,3.61728 -2.30766,-3.96131 c -1.26977,-2.17816 -2.93402,-4.68588 -3.69826,-5.57362 -1.70391,-1.97913 -1.33415,-2.00191 3.0173,-0.18373 4.65877,1.94657 11.88843,1.47324 12.32174,-0.80703 0.43792,-2.30499 -0.82862,-3.56129 -18.74916,-18.57623 -15.33424,-12.84792 -21.62645,-18.88169 -24.90827,-23.89048 -2.46575,-3.76319 -1.11556,-3.84122 3.6407,-0.21076 4.75727,3.6313 10.63738,5.59724 14.11953,4.72333 1.94012,-0.48698 2.20944,-0.97001 1.76718,-3.18129 l -0.5224,-2.60843 4.4945,1.31681 c 3.77444,1.10642 5.2782,1.12588 9.39805,0.11704 7.34588,-1.799 6.8884,-3.1729 -3.50014,-10.52929 -4.9339,-3.49377 -12.91581,-10.29474 -17.73856,-15.1139 -8.53365,-8.52737 -19.4932,-21.47519 -19.4932,-23.02931 0,-0.42436 1.93301,-0.1888 4.29638,0.52241 4.97347,1.49684 18.43603,1.72134 21.99713,0.36745 1.33812,-0.50875 2.29844,-1.49048 2.13473,-2.18333 -0.1638,-0.69276 -4.96655,-5.10028 -10.67345,-9.79428 -5.7069,-4.694 -10.37618,-8.86025 -10.37618,-9.25749 0,-0.39725 2.179,-0.17405 4.84222,0.49713 10.78025,2.71699 22.38009,2.49001 24.21284,-0.47555 0.29782,-0.48182 -4.3532,-4.05372 -10.33652,-7.93709 -12.01571,-7.79873 -22.48938,-17.60418 -28.78666,-26.9492 -2.16286,-3.2096 -3.7583,-6.00905 -3.54524,-6.22211 0.21306,-0.21306 2.33893,0.27735 4.72333,1.08982 4.92753,1.67901 18.24511,1.52194 20.00297,-0.23593 0.93856,-0.93856 -6.07685,-6.97768 -19.52742,-16.809042 -2.93752,-2.147454 -1.95884,-2.688584 4.03343,-2.235629 4.1192,0.311378 6.26131,0.05995 7.5047,-0.87907 1.63796,-1.236379 1.42167,-1.558548 -3.68931,-5.496147 -8.80952,-6.786949 -18.19032,-17.787638 -20.62084,-24.180472 -1.08714,-2.859306 -0.57341,-2.924238 4.12345,-0.5296 3.70886,1.890863 13.37374,2.626511 13.37374,1.017788 0,-0.4548 -2.94757,-4.071798 -6.54999,-8.037897 -6.03728,-6.646751 -14.66353,-19.659035 -14.66353,-22.117867 0,-0.616483 0.94437,-0.863667 2.30582,-0.603478 3.12447,0.597299 2.91999,-0.796799 -0.83766,-5.719536 -3.93566,-5.155993 -4.55307,-7.186773 -7.01476,-23.0310624 -1.09683,-7.0597687 -2.43153,-13.9080476 -2.9651,-15.2183986 -0.4773,-1.172185 -0.72393,-1.750392 -1.00884,-1.525805 z m 560.34797,65.101448 c -0.0286,-0.01199 -0.0544,-0.01107 -0.0775,0 -0.37438,0.23132 -1.1946,2.600871 -1.82132,5.265566 -2.66608,11.334663 -4.03989,13.029624 -12.88012,15.884964 -2.79004,0.901114 -5.4218,1.95515 -5.84737,2.343634 -0.42556,0.388576 1.87795,1.589723 5.11781,2.667923 8.78342,2.922947 9.60825,3.767615 12.29647,12.581101 1.3085,4.289836 2.54387,7.798368 2.7454,7.798368 0.20143,0 1.25326,-2.97598 2.33644,-6.613085 2.40487,-8.075159 5.01902,-10.890106 12.71981,-13.697947 3.17244,-1.156783 5.43813,-2.404415 5.03314,-2.772423 -0.40499,-0.368009 -3.01426,-1.409316 -5.79692,-2.313012 -7.4512,-2.41991 -9.69264,-5.138193 -11.61376,-14.078126 -0.82982,-3.861322 -1.78719,-6.896701 -2.2122,-7.07056 z m -319.10897,19.192338 c -0.43469,-0.06364 -1.0307,1.851664 -2.60483,6.940881 -1.43625,4.643271 -3.44692,9.094427 -4.65665,10.304151 -1.17117,1.171171 -5.08829,3.009185 -8.70271,4.085633 -3.61432,1.076448 -6.57158,2.113236 -6.57158,2.303973 0,0.190829 2.7133,1.249753 6.02759,2.352672 8.81561,2.933738 10.85995,5.03646 13.38094,13.761031 1.16887,4.04505 2.42535,7.16694 2.79401,6.93913 0.36874,-0.22791 1.18325,-2.59359 1.81043,-5.25837 2.02931,-8.622934 3.86336,-11.196872 9.82491,-13.795252 2.94933,-1.285448 6.15746,-2.612123 7.13005,-2.948957 2.39777,-0.830463 1.07958,-1.844839 -4.93952,-3.79925 -6.40169,-2.078649 -8.84438,-4.571423 -10.50946,-10.723811 -0.735,-2.7157 -1.72374,-6.390343 -2.19772,-8.165823 -0.32199,-1.206035 -0.52462,-1.957547 -0.78546,-1.996008 z m 132.92137,16.041672 -10.46076,0.03413 5.0728,1.824824 c 15.66536,5.634128 33.03213,21.235105 40.66522,36.530975 6.65837,13.34303 8.49104,21.91726 7.90287,36.97776 -0.38618,9.88827 -0.95618,13.65708 -2.98318,19.72203 -8.74024,26.15139 -30.72585,46.07577 -57.051,51.70428 -12.50206,2.67308 -35.42189,0.0249 -48.73743,-5.63118 -4.56322,-1.93836 -4.16698,-1.04426 1.91309,4.32156 13.54834,11.95696 26.64373,18.23063 45.25168,21.67654 1.28839,0.23888 8.03651,0.27153 14.99501,0.0719 15.36329,-0.44051 25.05188,-2.61738 36.97775,-8.30639 31.32961,-14.94493 49.91718,-46.68571 48.0241,-82.00604 -1.16905,-21.81313 -9.34741,-40.10426 -24.56055,-54.93067 -15.47444,-15.080971 -33.5812,-22.065847 -57.0096,-21.98994 z M -932.89266,191.8996 c 0.34181,0.3419 -4.63239,5.10093 -12.68744,12.13792 -2.28276,1.99416 -5.04458,4.37718 -6.13744,5.29618 l -1.98697,1.67172 -1.50958,-6.63642 c -0.83009,-3.64965 -1.38865,-6.72247 -1.24117,-6.82919 0.14739,-0.1068 3.38125,-0.72615 7.18585,-1.37629 3.8046,-0.65015 8.96705,-1.95405 11.4732,-2.89666 2.50614,-0.94253 4.71327,-1.55754 4.90355,-1.36726 z m 85.8124,72.01715 c 0.53679,0.31479 1.42066,0.95774 2.62291,1.86992 2.4663,1.87122 5.2355,4.83789 6.15358,6.59317 2.86586,5.47899 1.29062,5.12546 -3.51452,-0.78905 -5.36527,-6.60377 -6.87245,-8.61823 -5.26197,-7.67404 z m 32.84351,17.03068 -2.66432,2.78137 c -3.0589,3.19282 -3.73847,3.37756 -4.55759,1.24292 -0.75483,-1.96695 0.0933,-2.68637 4.03703,-3.42626 z m 74.1374,47.62049 c 0.44502,0.25991 0.12931,0.90535 -1.13308,1.82842 -2.07192,1.51501 -2.38689,1.55237 -4.06036,0.49178 -0.90628,-0.57433 -0.4299,-1.06907 1.76358,-1.83377 1.78028,-0.62063 2.98493,-0.74625 3.42986,-0.48643 z m 456.51957,20.67128 c 3.85035,-0.18538 -21.61676,28.35981 -34.67193,38.86208 -6.90731,5.55665 -23.2041,16.8725 -23.2041,16.11194 0,-0.22172 3.0091,-2.99166 6.68688,-6.15542 14.31,-12.31021 22.04777,-20.17739 21.51079,-21.8693 -0.28482,-0.89724 -2.59469,-4.51793 -5.13404,-8.04509 -2.53945,-3.52726 -4.61348,-6.6319 -4.61348,-6.89947 0,-0.26757 1.85323,-0.49695 4.1144,-0.50986 3.19993,-0.0185 4.69216,-0.58042 6.73373,-2.5364 3.12678,-2.99563 3.9055,-3.12881 3.9055,-0.66832 0,3.03418 3.48935,2.25269 14.37171,-3.21736 5.53839,-2.78395 10.17372,-5.06357 10.30054,-5.0728 z m -762.34482,19.18155 c -0.4228,-0.42279 -2.772,7.64296 -5.2205,17.92239 -2.4485,10.27942 -5.2184,20.21898 -6.1555,22.08899 -1.6757,3.34381 -1.6734,3.41068 0.1297,3.98298 2.308,0.73251 2.2905,1.07073 -0.2828,5.32137 l -2.1077,3.48031 -2.7147,-2.83182 c -2.1461,-2.24006 -2.4486,-2.99757 -1.4429,-3.61903 1.0438,-0.64517 0.5933,-3.24097 -2.5202,-14.4834 -2.0864,-7.53338 -4.05,-14.94133 -4.3631,-16.46317 -0.313,-1.52184 -0.7862,-3.38955 -1.052,-4.15047 -0.2657,-0.76092 -2.0301,4.42717 -3.9199,11.52909 -3.5761,13.43987 -6.4096,20.93277 -8.3766,22.14839 -0.8469,0.52352 -0.6124,1.11999 0.8881,2.25177 l 2.0428,1.54029 -3.7613,4.75755 -3.7596,4.75755 0.027,100.79126 0.027,100.79127 11.1868,4.88179 11.1868,4.88188 3.1633,-3.03723 c 1.7399,-1.67024 4.3869,-4.56745 5.8816,-6.43821 l 2.7166,-3.40108 -3.765,0.0507 c -2.0711,0.0286 -3.9936,-0.17626 -4.273,-0.45573 -0.2793,-0.27937 1.3498,-3.13065 3.6209,-6.33555 2.2712,-3.20491 4.992,-7.53966 6.0473,-9.63408 l 1.9186,-3.8082 -3.6497,-0.58365 c -2.0081,-0.32115 -3.6515,-0.74201 -3.6515,-0.93487 0,-0.19295 2.2828,-3.98666 5.0728,-8.43071 2.7901,-4.44405 5.0728,-8.79448 5.0728,-9.6682 0,-1.04408 -0.9959,-1.78867 -2.9057,-2.1707 -2.6907,-0.53809 -2.7989,-0.70014 -1.4627,-2.19053 2.0127,-2.24476 4.8522,-11.12336 6.7824,-21.20808 0.8981,-4.69234 1.967,-8.53153 2.3761,-8.53153 0.4088,0 0.7439,0.78398 0.7439,1.74375 0,2.49066 5.2593,22.41597 7.411,28.07693 2.2375,5.88703 2.2771,5.54356 -0.5674,4.82959 -2.1435,-0.53791 -2.3173,-0.38692 -1.7582,1.51501 0.3415,1.16121 2.204,5.4279 4.1396,9.48263 1.9356,4.05464 3.3251,7.68631 3.0877,8.07036 -0.2373,0.38397 -1.6413,0.69904 -3.12,0.69904 h -2.6896 l 2.8409,4.84221 c 1.5618,2.66322 4.2185,6.77403 5.905,9.13492 1.6866,2.36088 2.8189,4.53987 2.5166,4.84221 -0.8873,0.88719 -5.7453,0.63088 -7.6812,-0.40527 -0.9813,-0.52508 -1.7835,-0.71111 -1.7835,-0.41255 0,0.9416 9.7875,13.72201 12.219,15.95524 l 2.3257,2.13464 1.951,-2.73812 c 2.5636,-3.6003 2.4932,-3.83882 -1.1241,-3.83882 -1.691,0 -3.3213,-0.2481 -3.6227,-0.54952 -0.3014,-0.30132 0.8179,-2.68784 2.486,-5.30338 1.6681,-2.61544 3.9552,-6.57223 5.0836,-8.79273 l 2.0518,-4.03693 -3.2354,0.60707 c -4.0201,0.75419 -4.8259,-0.37649 -2.4355,-3.41547 2.0294,-2.57993 6.4136,-11.5823 6.4275,-13.19905 0.01,-0.59712 -0.9536,-0.84218 -2.2968,-0.5854 -2.8149,0.53808 -2.8559,-0.13448 -0.3261,-5.36463 1.7705,-3.66034 5.8474,-19.21465 7.9623,-30.37915 l 0.7854,-4.15047 1.1439,5.53396 c 2.7508,13.31619 5.966,25.26882 8.03257,29.85666 1.22715,2.72446 2.23194,5.14289 2.23194,5.3755 0,0.23261 -1.24515,0.15053 -2.76699,-0.18372 -1.52184,-0.33426 -2.76698,-0.25558 -2.76698,0.17468 0,0.88627 6.29562,13.47696 8.34236,16.68472 1.15531,1.81007 1.16038,2.217 0.036,2.91658 -0.75474,0.46568 -2.21543,0.46366 -3.45873,-0.009 -1.18371,-0.4501 -2.15271,-0.60745 -2.15271,-0.34947 0,1.17523 5.13423,10.52301 7.96227,14.49603 3.5327,4.96286 2.92082,5.97022 -2.95791,4.8674 -3.93483,-0.73823 -3.78218,-0.32042 3.05697,8.39281 l 4.45493,5.67452 3.42626,-4.90346 c 1.88459,-2.69698 3.42635,-5.06302 3.42635,-5.25837 0,-0.19489 -1.45266,-0.18382 -3.22814,0.0231 -3.66164,0.4275 -3.99838,-0.25973 -1.46457,-2.99397 2.16775,-2.3392 6.53737,-10.48584 6.53737,-12.18837 0,-0.68538 -0.51881,-1.25003 -1.15291,-1.25925 -3.3189,-0.0406 -3.64541,-1.52276 -1.34208,-6.08515 1.25178,-2.4793 3.39887,-9.28027 4.77194,-15.11399 1.37306,-5.83372 2.78607,-11.58443 3.13987,-12.77921 0.47334,-1.59848 1.33646,0.95904 3.26965,9.68444 1.44483,6.52122 3.56775,14.65845 4.71789,18.08259 l 2.09147,6.22571 h -2.21395 c -1.21784,0 -2.21396,0.24755 -2.21396,0.55127 0,0.30372 2.07524,4.07798 4.61164,8.38746 2.5364,4.30948 4.61163,8.00488 4.61163,8.21083 0,0.20596 -1.24514,0.37465 -2.76698,0.37465 -1.52184,0 -2.76698,0.14084 -2.76698,0.3135 0,0.17266 2.08096,3.77546 4.62427,8.00728 4.78854,7.96724 4.83503,9.76062 0.22514,8.60365 -1.14562,-0.28712 -2.08243,-0.2588 -2.08243,0.0627 0,1.34318 6.94891,9.76006 8.05773,9.76006 1.13787,0 6.69951,-7.80648 6.69951,-9.4034 0,-0.40803 -1.07285,-0.74219 -2.3833,-0.74219 -1.31053,0 -2.23987,-0.31129 -2.06619,-0.69175 0.17367,-0.38046 2.07984,-4.11588 4.23689,-8.30094 l 3.92174,-7.6092 h -2.77602 c -3.21985,0 -3.50217,-0.90324 -0.98902,-3.1777 2.28203,-2.06518 4.19825,-7.64129 6.93729,-20.18485 1.19967,-5.49393 2.35175,-10.15722 2.55807,-10.36364 0.20642,-0.20632 1.10799,2.83597 2.00496,6.76075 0.89696,3.92478 2.83929,11.25387 4.31621,16.28849 1.47702,5.03461 2.68591,9.46861 2.68591,9.85193 0,0.38341 -0.82096,0.82861 -1.82482,0.99076 -1.70483,0.27531 -1.57894,0.82677 1.90949,8.34964 3.76005,8.10864 3.93972,10.47423 0.73316,9.63574 -0.95729,-0.25051 -1.74016,-0.28316 -1.74016,-0.0738 0,0.89272 10.54147,17.89343 11.09495,17.89343 1.80491,0 6.07611,-7.95378 4.54855,-8.4702 -0.47444,-0.16039 0.11336,-3.19724 1.30602,-6.7482 1.19266,-3.55096 2.92285,-10.49747 3.84426,-15.43635 0.9214,-4.93887 1.82574,-8.82962 2.00855,-8.64681 0.1828,0.1828 1.72549,6.50683 3.42995,14.05285 1.70437,7.54602 3.54598,14.861 4.09098,16.25602 0.61944,1.58566 0.65246,2.5364 0.0904,2.5364 -1.41384,0 -1.05404,2.0412 0.93496,5.30338 v 0 c 2.15751,3.53841 3.18425,3.72795 4.99892,0.92232 1.97295,-3.05032 2.98604,-7.62506 1.48255,-6.69591 -1.36218,0.8419 -1.30481,0.6816 2.08068,-5.7555 2.43439,-4.62879 2.46455,-4.84222 0.6863,-4.84222 -2.22852,0 -2.2597,-0.24146 -0.46835,-3.70554 1.55827,-3.01334 6.90841,-23.64995 6.90841,-26.64668 0,-4.75764 1.61232,-1.09499 3.59929,8.17846 1.90101,8.87233 4.62658,17.99866 6.99853,23.43467 0.66758,1.53005 0.52997,1.60338 -1.23398,0.65938 -1.09149,-0.58411 -1.98522,-0.79394 -1.98522,-0.46661 0,1.24948 5.82782,11.4589 6.54096,11.4589 0.41219,0 2.00053,-1.81735 3.52901,-4.03887 4.31962,-6.27847 14.32457,-14.893 24.00209,-20.66769 4.84913,-2.89362 11.32239,-7.75391 14.38433,-10.79944 8.20309,-8.1589 20.94458,-14.66214 35.47538,-18.10611 4.31188,-1.02203 14.98072,-4.16163 23.70851,-6.97694 l 15.87049,-5.11781 -3.48206,-5.19169 c -4.86583,-7.25512 -10.53492,-16.78709 -10.14025,-17.05042 0.1816,-0.12119 1.49859,-0.72292 2.92553,-1.33663 l 2.59404,-1.1151 -1.78157,-2.5292 c -4.51368,-6.40658 -6.29977,-11.97734 -10.36898,-32.36253 -0.69212,-3.46712 -1.43911,-5.34673 -1.83387,-4.61163 -0.36653,0.68243 -1.80167,7.11713 -3.18848,14.29967 -2.2051,11.41933 -2.96482,13.72782 -6.05646,18.38345 -3.67621,5.53581 -3.83043,6.83288 -0.81239,6.83288 0.98468,0 1.78876,0.45803 1.78876,1.01594 0,1.1661 -5.76131,10.91906 -6.45629,10.92921 -0.88635,0.0129 -8.25187,-11.86556 -7.58752,-12.23707 0.36865,-0.20614 1.81145,-0.64655 3.20647,-0.97997 1.39502,-0.33351 2.5364,-0.94972 2.5364,-1.36901 0,-0.41938 -2.4865,-4.20821 -5.52668,-8.41808 -5.08783,-7.04538 -5.39976,-7.75032 -3.91989,-8.8738 0.88433,-0.67137 2.1256,-1.23445 2.7597,-1.25013 1.381,-0.035 1.54222,-2.44767 0.21803,-3.26605 -1.84898,-1.14267 -4.47208,-7.59011 -6.38969,-15.70658 -2.93079,-12.40429 -5.76916,-22.68778 -6.15543,-22.30151 -0.18871,0.18871 -1.77622,6.84127 -3.52901,14.78426 -2.02949,9.19643 -4.04293,15.90083 -5.54116,18.45734 -2.93355,5.00547 -2.9401,5.97511 -0.047,6.70126 1.26819,0.31829 2.29862,0.8454 2.29862,1.17089 0,0.3254 -2.07976,3.01205 -4.61164,5.96995 -2.53188,2.95799 -4.60444,5.62361 -4.60444,5.92309 0,1.09849 3.09072,3.9163 4.29463,3.9163 1.69653,0 1.51345,0.98172 -0.67191,3.60639 -1.08337,1.3014 -2.17909,1.8749 -2.6409,1.38349 -0.74727,-0.79486 -8.07359,-26.0124 -11.90024,-40.96064 l -1.77077,-6.91746 -2.02119,6.91746 c -1.11251,3.80459 -3.89406,12.88961 -6.1807,20.18845 l -4.15766,13.27108 -2.17605,-3.58665 c -2.09027,-3.44655 -2.10494,-3.59698 -0.38738,-3.88023 2.68766,-0.44318 2.21682,-2.32343 -2.65344,-10.60316 -6.15617,-10.4662 -6.24001,-10.77786 -2.9093,-10.77786 1.50589,0 2.73811,-0.46762 2.73811,-1.03946 0,-0.57184 -1.23877,-3.58094 -2.75434,-6.68687 -1.51557,-3.10594 -4.30173,-11.49737 -6.18965,-18.64835 l -3.4317,-13.00085 -3.32905,13.46201 c -1.83128,7.40463 -4.23191,15.47933 -5.334,17.94397 -2.03843,4.55915 -1.97203,6.1249 0.25761,6.1249 0.84762,0 0.19101,2.05282 -2.05901,6.43821 -3.11359,6.06873 -3.21468,6.53662 -1.75823,8.14609 0.84983,0.93902 1.26709,1.98447 0.92777,2.3238 -0.92574,0.92574 -2.15456,0.74321 -2.15456,-0.32069 0,-0.51605 -2.07523,-4.62114 -4.61163,-9.12053 -2.5364,-4.49939 -4.61164,-8.3774 -4.61164,-8.61804 0,-0.24165 1.0331,-0.24119 2.29503,0 4.06875,0.7778 3.71799,-1.9902 -1.28443,-10.14735 -2.58492,-4.21513 -4.69991,-7.96264 -4.69991,-8.32797 0,-0.36543 1.03762,-0.66472 2.30582,-0.66472 2.76458,0 2.85304,-0.84596 0.56032,-5.34129 -0.95987,-1.8821 -3.4971,-10.60206 -5.64031,-19.37782 -2.14312,-8.77576 -4.00678,-15.83156 -4.14144,-15.67956 -0.13466,0.152 -1.7788,6.25688 -3.65324,13.56651 -1.87435,7.30963 -4.17621,15.23786 -5.11431,17.61783 -1.68121,4.26549 -1.67909,4.35394 0.15311,6.18605 l 1.85914,1.85914 -1.89871,3.58121 c -1.04416,1.97009 -3.07485,4.97236 -4.51257,6.67064 l -2.61388,3.08767 -6.58597,-9.77454 c -5.18661,-7.69848 -6.22626,-9.77446 -4.89442,-9.77446 0.92989,0 2.56896,-0.72633 3.64061,-1.61407 l 1.94731,-1.61407 -4.2261,-5.99513 c -5.24205,-7.43497 -8.00857,-12.69952 -7.28676,-13.86737 0.3028,-0.48994 1.3573,-0.88986 2.34188,-0.88986 2.30582,0 2.25878,-0.59813 -0.51881,-6.66529 -1.26967,-2.77326 -3.78513,-11.63341 -5.58985,-19.68957 -1.80481,-8.05625 -3.41326,-14.77845 -3.57402,-14.93912 -0.16067,-0.16076 -1.63824,5.43223 -3.28395,12.42975 -3.51609,14.95046 -5.81508,21.5415 -8.29919,23.78958 -2.17586,1.96908 -1.61509,3.22999 1.43579,3.22999 3.9387,0 2.48004,3.47764 -4.57198,10.90034 l -3.78486,3.98113 2.08787,1.70954 c 1.14812,0.94012 2.51602,1.85231 3.03898,2.02663 0.89087,0.29689 -4.53425,12.53876 -5.61863,12.6784 -0.61759,0.0793 -3.95504,-5.49633 -3.51813,-5.87809 0.17626,-0.15402 1.66951,-0.96659 3.31817,-1.80499 1.64866,-0.83849 2.99756,-1.84585 2.99756,-2.23738 0,-0.39162 -2.94536,-4.6335 -6.54631,-9.42858 l -6.54815,-8.71885 2.62826,-0.25401 c 8.11021,-0.78075 8.39474,-1.71138 2.80664,-9.18906 -2.18416,-2.92248 -5.54051,-7.49317 -7.45794,-10.15639 -3.46776,-4.81639 -3.47357,-4.84221 -1.21415,-4.84221 4.54228,0 4.8401,-2.16876 1.20696,-8.77834 -1.82953,-3.3285 -3.99543,-7.07241 -4.81335,-8.32078 -1.40461,-2.14358 -1.38736,-2.26975 0.30981,-2.26975 2.88725,0 2.98327,-0.78859 0.71333,-5.83483 -1.18049,-2.62448 -3.31411,-10.47884 -4.74132,-17.45394 -1.42721,-6.97509 -2.91372,-12.68199 -3.30377,-12.68199 -0.39015,0 -0.70983,0.77392 -0.70983,1.72032 0,2.61157 -4.52871,22.12322 -5.89238,25.38558 -0.65955,1.57773 -1.88606,3.43991 -2.72556,4.13608 -2.09221,1.73518 -1.92029,3.80645 0.317,3.80645 1.01456,0 1.84465,0.22329 1.84465,0.49713 0,0.85915 -3.85062,8.15153 -5.66364,10.72565 -1.53678,2.18204 -1.5769,2.61683 -0.35666,3.83707 0.75695,0.75695 1.85397,1.53669 2.43734,1.73111 1.20834,0.40278 -1.41974,6.26722 -2.80839,6.26722 -0.44595,0 -2.19791,-2.38652 -3.89472,-5.30338 -3.95782,-6.80401 -3.97382,-6.84404 -2.49312,-6.64011 2.7677,0.38092 4.47825,-0.11124 4.47825,-1.28803 0,-0.68289 -2.01049,-4.93713 -4.46925,-9.45386 -3.6181,-6.6461 -4.1897,-8.27419 -2.9976,-8.53328 2.6228,-0.56999 3.2518,-1.86051 1.7456,-3.57761 -2.4704,-2.81623 -4.1441,-6.92677 -5.7393,-14.08707 -0.8476,-3.8046 -2.4082,-10.63886 -3.466,-15.18778 l -1.922,-8.27217 -3.9596,15.98937 c -3.1336,12.65692 -4.4528,16.50496 -6.3319,18.46638 -2.9662,3.09643 -2.9829,4.30551 -0.085,5.82403 l 2.286,1.19792 -1.8627,3.06425 -1.8627,3.0624 -5.0367,-8.02175 c -2.7699,-4.41196 -5.0354,-8.0795 -5.035,-8.15144 4e-4,-0.0719 1.0397,-0.19101 2.3094,-0.2648 1.2698,-0.0729 2.9285,-0.37161 3.6875,-0.66288 1.6031,-0.61519 1.8517,-3.87691 0.3657,-4.79536 -1.2187,-0.75317 -8.2072,-11.42975 -8.2072,-12.53793 0,-0.42861 0.7597,-0.77817 1.6897,-0.77817 2.8123,0 2.9349,-0.95498 0.6917,-5.41507 -2.2164,-4.40661 -4.6398,-13.80208 -7.865,-30.49085 -1.0225,-5.29102 -2.2054,-9.96786 -2.6282,-10.39066 z m 651.89615,36.04648 c 0,0.43497 -1.72992,3.12678 -3.84426,5.98065 -2.11435,2.85377 -4.21218,5.18809 -4.66209,5.18809 -0.4501,0 -0.69138,-1.91881 -0.53679,-4.26392 0.27374,-4.15195 0.39604,-4.3081 4.66208,-5.97889 2.40958,-0.94336 4.38106,-1.36099 4.38106,-0.92593 z m 89.05142,24.28313 c 0.48487,0.48486 -12.71077,15.99204 -19.71474,23.16802 -3.38605,3.46925 -9.27013,8.83507 -13.07473,11.92367 -10.66948,8.66139 -10.52421,8.36642 2.41207,-4.90171 6.65312,-6.82375 12.56579,-13.31038 13.13957,-14.41496 0.87667,-1.68758 0.67404,-2.44841 -1.27355,-4.76299 l -2.31845,-2.75435 4.85845,-1.59064 c 2.67161,-0.87501 7.28546,-2.80655 10.25369,-4.29095 2.96814,-1.48448 5.54061,-2.55318 5.71769,-2.37609 z m -278.69056,17.64854 c -0.54399,-0.17469 -1.12386,0.0969 -2.12744,0.69175 -3.00605,1.78156 -15.39917,18.73624 -17.26301,23.61655 -1.45387,3.80682 -2.0342,4.24926 -11.82996,9.03051 -11.79988,5.75938 -12.85511,6.82826 -22.06022,22.33581 -6.52795,10.99737 -9.97976,14.55377 -20.22995,20.84607 -8.17699,5.01967 -13.77902,9.13086 -14.20412,10.42304 -0.43635,1.32612 7.14509,6.09224 13.1071,8.2397 2.5364,0.91356 4.77341,1.78581 4.9719,1.93652 1.324,1.00552 -12.62233,15.87398 -23.91742,25.49911 l -4.11266,3.50558 5.53397,-0.44677 5.53396,-0.44493 -5.24574,4.91785 c -2.88531,2.70472 -9.83911,7.68566 -15.45257,11.06792 -6.04088,3.63969 -13.44726,9.1506 -18.14568,13.50343 -6.42706,5.95426 -9.89418,8.30592 -18.21237,12.35236 -12.44653,6.05452 -39.96693,15.40664 -52.98705,18.00521 -16.79982,3.35302 -26.42845,8.09849 -37.52894,18.49699 -2.5364,2.37601 -7.30944,5.66659 -10.60676,7.31378 -8.42601,4.20922 -22.99103,18.67454 -32.03823,31.8166 -7.9714,11.57944 -20.41793,24.36576 -28.15985,28.92906 -7.96503,4.69474 -20.30983,8.6507 -27.19786,8.71526 -6.95149,0.0655 -6.42429,1.41079 1.63575,4.17925 l 5.05656,1.7384 -3.68931,1.07368 c -11.58332,3.37212 -26.35633,3.28957 -39.89065,-0.22163 -4.73347,-1.22799 -4.84221,-1.21047 -4.84221,0.735 0,5.2758 12.73217,18.9196 21.8098,23.37168 2.71589,1.33193 4.9387,2.64532 4.93944,2.92008 6.4e-4,0.27495 -2.28212,0.3575 -5.0728,0.18373 -2.90183,-0.18068 -5.07456,0.0701 -5.07456,0.58549 0,1.08429 8.0736,4.39858 13.83491,5.67988 9.8108,2.18186 23.28646,0.6721 31.30508,-3.50743 4.87265,-2.53972 5.38491,-1.40922 1.27004,2.8048 -3.84868,3.94138 -3.41455,4.13369 4.64586,2.0555 12.54365,-3.23414 23.9734,-12.16439 30.14857,-23.55541 l 3.18848,-5.88168 0.28463,3.94692 c 0.15947,2.20943 -0.31719,5.15267 -1.08263,6.68687 -2.03899,4.08729 -0.18289,3.30986 3.44609,-1.44289 4.8259,-6.32015 10.88826,-18.79389 16.1209,-33.1714 2.58473,-7.10192 5.50989,-14.98782 6.5013,-17.52422 l 1.80324,-4.61164 -0.48819,18.44655 c -0.2683,10.1456 -1.02987,21.14435 -1.69154,24.44167 -2.80203,13.96477 -7.937,22.61684 -18.64291,31.41142 -3.4317,2.81909 -6.73078,6.13947 -7.33176,7.37862 -0.60109,1.23923 -1.50819,9.30932 -2.01575,17.93308 -0.58199,9.88725 -1.8228,20.10894 -3.35967,27.66981 -2.78414,13.69638 -2.5887,16.87001 1.34927,21.77025 1.54029,1.91668 2.8012,3.66034 2.8012,3.87478 0,0.21445 -1.87278,0.64646 -4.16126,0.96015 -2.28857,0.31368 -11.89802,2.23867 -21.35409,4.27664 -9.45616,2.03807 -17.50595,3.70545 -17.88807,3.70545 -0.38222,0 -2.45717,-4.58 -4.61164,-10.17797 -2.15437,-5.59797 -4.17399,-10.33818 -4.48915,-10.53288 -0.31516,-0.1948 -2.43098,4.1774 -4.70165,9.71505 -2.27068,5.53766 -4.33642,10.06268 -4.59006,10.06268 -0.52333,-0.009 -7.37862,-10.46638 -7.37862,-11.25884 0,-0.28353 0.70974,-0.45739 1.57801,-0.38729 2.69348,0.21859 2.41549,-3.11184 -0.61242,-7.32816 -3.94415,-5.49209 -7.0594,-12.64797 -5.7033,-13.1 1.52248,-0.50756 1.29199,-2.56047 -0.73316,-6.53008 -0.98007,-1.92102 -3.12245,-8.23287 -4.76124,-14.02767 -1.63888,-5.7948 -3.23893,-10.8415 -3.55419,-11.21384 -0.31525,-0.37225 -2.09423,4.70331 -3.9541,11.27868 -3.04202,10.75479 -12.0384,35.42437 -13.53045,37.10384 -0.32577,0.36671 -2.99351,-2.01981 -5.93029,-5.30339 l -5.3412,-5.96994 h 4.25498 c 5.02603,0 10.08122,-2.27741 9.34031,-4.20812 -0.2779,-0.72421 -3.87193,-5.67775 -7.98569,-11.00659 -7.05977,-9.14524 -7.34532,-9.68813 -5.07455,-9.68813 2.90625,0 8.31588,-2.154 9.26468,-3.6893 0.42676,-0.69046 -1.55117,-3.42931 -5.22775,-7.24166 -3.25222,-3.37249 -6.67184,-7.04999 -7.60016,-8.17126 -1.67983,-2.02894 -1.66978,-2.04674 2.1113,-3.55963 2.29161,-0.91689 3.79796,-2.12034 3.79731,-3.03354 -6.4e-4,-0.83267 -2.50476,-4.5787 -5.56633,-8.32437 -7.09455,-8.67983 -7.95056,-10.21708 -5.7628,-10.35819 0.90564,-0.0581 2.37287,-0.0323 3.26061,0.0572 2.09728,0.21334 2.04554,-0.24958 -0.64313,-5.85456 -2.04729,-4.26807 -4.87109,-15.86348 -10.78505,-44.28259 l -2.09332,-10.06268 -1.64285,7.2957 c -0.90351,4.01323 -3.09855,14.26683 -4.87828,22.78443 -2.90155,13.88647 -3.62115,16.0651 -6.95705,21.08735 -4.2092,6.33713 -3.8695,8.15863 1.5186,8.15863 1.71336,0 3.11465,0.27264 3.11465,0.60708 0,0.88552 -7.16525,10.41455 -10.49695,13.95923 -3.2594,3.46795 -2.6981,4.37128 3.3489,5.38271 1.9023,0.31811 3.4587,0.87934 3.4587,1.24837 0,1.38422 -11.2725,12.91165 -12.1163,12.39017 -1.3778,-0.85158 -8.1748,-9.67512 -8.1748,-10.6122 0,-0.46172 1.8435,-0.83951 4.0964,-0.83951 2.2528,0 4.329,-0.37732 4.6135,-0.83765 0.2843,-0.46025 -1.9897,-3.83633 -5.0531,-7.50286 -7.848,-9.39326 -8.0005,-9.77805 -4.1306,-10.50411 1.7464,-0.32761 3.3779,-0.92149 3.6244,-1.3204 0.2467,-0.39891 -1.6249,-3.28966 -4.1595,-6.42207 -4.3053,-5.32091 -4.4653,-5.69436 -2.4157,-5.69436 1.2067,0 2.3981,-0.20392 2.6463,-0.45212 0.2482,-0.2482 -0.9569,-3.28478 -2.6769,-6.74987 -2.5729,-5.18339 -3.6433,-9.3654 -6.0437,-23.58962 -1.824,-10.80866 -3.1744,-16.66138 -3.6011,-15.61473 -0.3753,0.92076 -2.1943,8.52175 -4.0423,16.89187 -1.8481,8.37012 -4.1791,17.41714 -5.1809,20.10388 -1.0018,2.68674 -1.5631,5.55942 -1.2466,6.38425 0.3795,0.98892 -0.6117,2.71432 -2.9093,5.06736 -3.8976,3.99137 -3.3408,5.29646 2.268,5.32321 1.6486,0.009 2.9975,0.37354 2.9975,0.81248 0,1.571 -3.9066,5.71594 -9.2863,9.85553 -3.0095,2.31578 -5.4709,4.74445 -5.4709,5.39709 0,1.93052 2.982,4.03942 6.6869,4.72692 1.9023,0.35307 3.4587,0.97278 3.4587,1.37805 0,2.26948 -14.1791,17.35525 -15.0131,15.97323 -0.9862,-1.63436 -8.896,-30.90995 -11.8587,-43.89161 -1.7073,-7.4809 -3.4151,-13.60433 -3.7956,-13.60433 -0.3804,0 -0.6917,0.63567 -0.6917,1.41596 0,0.78038 -2.0753,9.23323 -4.6117,18.78338 l -4.6116,17.36391 V 934.31846 1096.313 h 279.95146 279.95332 l -8.4522,-16.3713 c -4.64853,-9.0043 -10.25158,-19.7348 -12.45142,-23.8454 l -4.00096,-7.4741 -12.24611,-4.4225 c -6.73548,-2.4327 -14.35575,-5.1958 -16.93328,-6.1393 l -4.68552,-1.7148 -2.62466,-19.1311 c -2.35996,-17.2006 -2.99194,-19.96667 -6.25818,-27.43033 l -3.63166,-8.30094 0.56207,-9.50421 c 0.30907,-5.22711 1.02821,-10.4152 1.59968,-11.52909 0.57138,-1.1139 6.33325,-7.4205 12.80264,-14.01513 6.46948,-6.59464 12.40438,-13.2568 13.19002,-14.804 0.78564,-1.54711 2.49434,-7.5653 3.79556,-13.37375 1.30112,-5.80835 5.3186,-19.89856 8.92785,-31.31236 l 6.56079,-20.75236 8.11002,-7.83978 8.11002,-7.83978 2.83182,-14.29607 c 1.55717,-7.86284 4.681,-19.88335 6.94264,-26.71143 2.83339,-8.55449 3.85892,-12.88906 3.29483,-13.943 -1.0094,-1.88616 -12.19427,-4.77443 -26.70968,-6.89762 -10.42395,-1.5247 -21.66915,-1.4785 -39.92671,0.16749 -4.9433,0.44558 -6.59501,0.26342 -7.84153,-0.86468 -2.01667,-1.82501 -5.59235,-3.23765 -13.10535,-5.17905 l -5.99513,-1.54924 -1.72216,-6.40584 c -3.62715,-13.49973 -3.06619,-33.85309 1.72216,-62.57408 1.92804,-11.56442 2.66571,-13.98064 6.65266,-21.77024 2.46649,-4.81907 4.94764,-10.00725 5.51413,-11.52909 0.99233,-2.66608 1.05496,-2.69135 1.68795,-0.69175 0.36128,1.14138 1.03421,2.07524 1.49519,2.07524 1.38838,0 7.90803,-10.97726 11.86592,-19.9777 4.20913,-9.57154 7.04732,-19.7901 7.95332,-28.63356 0.57452,-5.60858 0.70235,-5.8767 1.83017,-3.84241 0.66666,1.20234 1.22725,2.8891 1.24478,3.74695 0.13835,6.60534 5.89929,-3.45319 9.34575,-16.31735 3.39721,-12.68043 3.54368,-35.51817 0.29008,-45.30563 -0.33001,-0.9927 0.47942,-0.45286 1.8951,1.26451 3.72242,4.5159 4.49284,3.88825 3.98289,-3.23894 -0.3124,-4.36565 -1.48541,-8.72208 -3.91086,-14.52665 -4.0325,-9.65096 -5.08977,-13.53017 -3.20112,-11.74888 0.67229,0.6341 2.36181,1.15291 3.75415,1.15291 h 2.53105 l -2.21036,-4.84222 c -4.71309,-10.32047 -6.33039,-23.14718 -4.12344,-32.71015 0.98735,-4.27867 4.29721,-11.61283 7.81995,-17.3261 1.25113,-2.02912 2.2822,-4.82082 2.29143,-6.20228 0.0184,-2.98889 -3.62982,-10.87248 -5.01156,-10.8319 -0.53301,0.0157 -2.36697,1.88339 -4.07484,4.15047 -4.95769,6.5809 -5.97032,5.72645 -5.22775,-4.40992 0.34384,-4.69234 0.81866,-9.21562 1.05385,-10.05189 0.24681,-0.87769 -1.04906,-3.25453 -3.06425,-5.62039 -1.92019,-2.25435 -4.333,-5.26114 -5.36278,-6.68327 -0.86514,-1.19469 -1.37454,-1.81597 -1.91853,-1.99057 z m 200.15579,24.00569 c 0.22947,0.58983 0.5403,2.86419 0.88091,6.69047 0.52684,5.91802 0.4132,6.62526 -1.13123,7.02914 -1.53872,0.40242 -1.63603,0.10118 -0.94041,-2.89131 0.42704,-1.837 0.7861,-5.17241 0.79809,-7.41283 0.0157,-2.91022 0.16325,-4.0053 0.39264,-3.41547 z m 102.77104,13.94116 c 1.30952,1.30952 -12.21816,19.24251 -22.88884,30.34318 -9.29042,9.66479 -18.12235,16.74457 -27.21944,21.81875 -3.04368,1.69764 -5.83861,3.52366 -6.21132,4.05686 -1.2196,1.74495 -0.74174,2.57707 1.19072,2.07164 1.61472,-0.42224 1.72392,-0.28675 0.72956,0.91144 -0.64258,0.7743 -3.57125,3.04036 -6.50849,5.03499 l -5.3412,3.62631 0.0286,-21.01716 c 0.0258,-18.70295 0.1793,-20.81978 1.38709,-19.22296 9.312,12.31251 15.62819,17.54506 18.7546,15.539 1.56658,-1.00515 1.58133,-1.37113 0.51706,-11.56875 -0.61944,-5.93591 0.87879,-17.29363 2.28055,-17.29363 0.31894,0 1.31145,2.06223 2.20676,4.58285 1.5769,4.44009 1.72014,4.56525 4.59724,4.0172 5.39442,-1.02756 9.63463,-3.85523 13.18642,-8.79633 1.92785,-2.68194 3.65657,-5.07169 3.84242,-5.31066 0.18575,-0.23898 0.66546,0.0952 1.06639,0.74404 1.18547,1.91807 4.68589,0.43192 11.59033,-4.92329 3.53307,-2.74033 6.58883,-4.81603 6.79138,-4.61348 z m -330.73177,5.07639 c 0.43211,0 -0.43128,1.76395 -1.91844,3.91989 -2.7786,4.02827 -6.60764,7.95157 -6.60764,6.76979 0,-2.2253 6.75107,-10.68968 8.52608,-10.68968 z m 354.80054,40.12124 0.036,21.69996 0.0341,21.69986 -6.83103,6.2366 c -8.03476,7.33462 -12.96654,11.10767 -19.93269,15.25436 -8.06741,4.80229 -9.82481,6.33316 -8.63778,7.52453 2.61544,2.62476 23.1434,-4.37256 31.47977,-10.731 1.71589,-1.30887 3.28772,-2.21201 3.49294,-2.0068 0.20513,0.20513 -0.048,24.83726 -0.56382,54.73975 -0.51586,29.9024 -1.28379,56.44384 -1.70769,58.98024 -0.57737,3.45523 -0.79799,3.88457 -0.87916,1.71498 -0.15799,-4.21826 -2.86945,-17.965 -3.93603,-19.95796 -1.3038,-2.43605 -3.047,-0.69046 -4.50179,4.50538 l -1.17809,4.21172 -1.13132,-2.68951 c -0.62211,-1.4796 -2.19403,-4.37515 -3.49295,-6.43286 l -2.36171,-3.73976 2.71293,-0.54399 c 1.49196,-0.29837 2.71119,-0.94981 2.71119,-1.44833 0,-0.49852 -2.2907,-4.76355 -5.09079,-9.47728 -4.94515,-8.32474 -5.03111,-8.58364 -2.99756,-9.07201 2.65381,-0.63724 2.61535,-1.20041 -0.49907,-7.15339 -1.40692,-2.68904 -4.13941,-11.40503 -6.07251,-19.36887 l -3.51638,-14.47989 -1.46096,6.45629 c -0.80381,3.55096 -2.18389,10.54534 -3.06785,15.54269 -1.17643,6.64989 -2.3238,10.16524 -4.2784,13.11614 -2.91169,4.3959 -2.71662,5.92844 0.75299,5.92844 1.23832,0 2.25002,0.2161 2.25002,0.48099 0,0.2649 -1.70714,3.87701 -3.79381,8.0272 -3.09441,6.15451 -3.60178,7.855 -2.75075,9.21783 0.80178,1.28379 0.72726,2.25371 -0.32244,4.19189 -2.82721,5.21991 -2.98742,5.30006 -4.56838,2.24282 -1.88293,-3.64116 -1.89843,-3.56461 0.83766,-4.25138 l 2.31476,-0.58005 -1.97433,-3.90006 c -1.08558,-2.14505 -2.75001,-5.00178 -3.69835,-6.34828 -2.20971,-3.13767 -2.16941,-3.54386 0.35131,-3.56139 4.95668,-0.0341 4.87506,-1.32907 -0.55847,-8.7693 -5.38952,-7.38 -6.17691,-9.05568 -3.82977,-8.15503 2.07791,0.79735 2.63112,-1.90756 1.02498,-5.01331 -1.05072,-2.03189 -10.30433,-37.01548 -10.76707,-40.70488 -0.036,-0.28758 -1.93116,6.5333 -4.21171,15.15706 -2.44352,9.24052 -5.47226,18.28662 -7.37502,22.02785 -3.38734,6.66049 -3.22344,9.06223 0.48459,7.07776 1.06907,-0.57194 1.94371,-0.86948 1.94371,-0.66113 0,1.10458 -4.87385,11.15417 -7.40564,15.26885 -3.3082,5.37643 -3.09118,7.26619 0.92952,8.07036 l 2.79041,0.55838 -4.31437,8.1839 -4.31446,8.18381 2.01584,2.14552 2.01399,2.14367 -2.75803,5.00621 -2.75795,5.00427 -0.0175,-37.35425 c -0.0102,-20.54484 -0.29035,-50.01319 -0.62156,-65.48523 l -0.60163,-28.13098 8.21268,-0.0231 c 7.46098,-0.0212 8.74956,-0.30215 14.07093,-3.0589 3.22178,-1.66895 6.06707,-2.82462 6.32292,-2.56877 0.48173,0.48173 -6.60469,10.22926 -10.60492,14.5879 -1.43938,1.56832 -2.05707,3.05262 -1.68076,4.03333 0.93349,2.43264 9.36089,1.33922 16.34069,-2.12024 4.44294,-2.20215 6.08699,-2.62135 7.30474,-1.86089 2.34631,1.46539 9.31993,-2.25813 13.83491,-7.38756 3.22215,-3.66044 8.50339,-13.18135 10.6086,-19.12575 1.2481,-3.52412 1.51373,0.39005 0.47915,7.05802 -1.20511,7.7671 -0.59232,8.99416 3.62088,7.24894 6.75143,-2.7965 14.65061,-14.74866 19.51293,-29.52536 z m -656.91489,13.26029 c 0.48404,-0.0701 0.9642,0.17082 1.67172,0.68815 1.57985,1.15522 1.54029,1.40424 -0.7944,4.93224 -1.3525,2.04369 -2.6326,3.71633 -2.84446,3.71633 -0.50552,0 -4.20092,-5.19593 -4.20092,-5.90686 0,-0.30215 0.62257,-0.54943 1.38349,-0.54943 0.76092,0 2.15022,-0.76673 3.08758,-1.70409 0.72477,-0.72467 1.21296,-1.10624 1.69699,-1.17634 z m 706.79084,65.63834 5.58977,3.61183 c 6.43037,4.15619 14.68824,7.1129 22.31063,7.98569 5.03194,0.57618 6.41008,1.40379 4.40263,2.6445 -1.74993,1.08152 -7.57525,12.52557 -7.05976,13.86913 0.28767,0.74966 1.36716,1.36366 2.39768,1.36366 2.64117,0 2.37812,1.22162 -2.28774,10.60676 -2.26985,4.56552 -4.13424,8.58345 -4.13424,8.9297 0,0.34633 0.84799,0.90092 1.89141,1.23213 2.30093,0.7303 2.18952,1.23574 -1.88062,8.43063 l -3.21376,5.67812 -3.3272,-9.36743 c -4.06451,-11.44544 -5.62998,-12.36666 -7.79477,-4.58637 -0.8206,2.94951 -2.43162,8.65927 -3.58121,12.68744 l -2.08963,7.32273 -0.61252,-7.23271 c -0.33628,-3.9779 -0.61067,-19.81896 -0.61067,-35.20338 z m -464.33408,76.72609 c 1.6363,1.6363 3.35201,12.66927 4.55399,29.30187 2.5126,34.76851 2.62263,38.38154 1.44473,46.78477 l -1.13308,8.0937 5.12501,12.70008 c 2.819,6.98543 5.53202,13.46219 6.02934,14.39153 0.84559,1.57994 0.18788,1.73019 -10.12392,2.31301 -16.8714,0.95341 -25.11912,2.18149 -38.69633,5.76095 -16.95874,4.47098 -24.4615,6.85418 -36.79938,11.68939 l -10.5149,4.11985 -3.04626,-3.04617 c -2.27437,-2.27437 -4.4031,-3.31355 -8.39456,-4.09827 -2.94094,-0.57821 -5.85023,-1.21544 -6.46533,-1.41586 -0.6151,-0.20052 -2.44122,-2.97792 -4.05861,-6.17166 -2.29401,-4.52992 -2.93254,-6.94015 -2.90026,-10.96528 0.0618,-7.81487 3.17401,-12.32201 13.15036,-19.04642 2.28276,-1.53863 7.69728,-6.12213 12.03166,-10.18526 6.58136,-6.16945 8.43957,-8.58115 11.27693,-14.62931 4.39415,-9.36669 6.84321,-19.12067 7.25788,-28.91643 0.31009,-7.32521 0.20688,-7.8573 -1.55818,-8.10993 -2.53796,-0.36312 -15.86762,6.39532 -19.32386,9.79788 -1.52184,1.49823 -4.42717,5.93804 -6.45629,9.86641 -2.83938,5.49689 -6.27459,9.84575 -14.91218,18.87884 -8.86809,9.274 -11.46536,12.58755 -12.37754,15.78591 -1.36634,4.79102 -3.31835,7.17865 -9.83395,12.02982 -6.93802,5.16577 -6.76619,6.35944 3.49839,24.21837 4.58756,7.98173 9.55347,16.4522 11.03546,18.82479 l 2.69495,4.31437 -4.34868,0.77466 c -2.39178,0.42603 -9.45339,1.78148 -15.69211,3.01196 -6.2388,1.23047 -15.05856,3.43234 -19.59945,4.89266 l -8.25593,2.65354 v -2.27879 c 0,-4.86104 -8.29883,-9.51519 -16.964,-9.51519 h -2.11489 l 2.48779,-11.29851 c 3.59265,-16.32067 6.05996,-23.86402 9.24485,-28.26066 3.65602,-5.04688 13.32311,-11.23164 25.58204,-16.36771 17.30156,-7.24866 31.14597,-18.30884 39.92662,-31.89416 1.91088,-2.95662 7.24488,-12.73393 11.85338,-21.7269 7.75502,-15.13299 15.47444,-26.95648 17.59809,-26.95648 0.48865,0 -0.34854,1.95118 -1.86088,4.33604 -3.01786,4.75866 -6.43287,13.19684 -6.43287,15.89576 0,1.60641 0.54842,1.54554 8.53153,-0.94032 6.32753,-1.97036 11.33116,-2.81595 19.36887,-3.27324 5.96054,-0.33877 10.83734,-0.30253 10.83734,0.0812 0,0.38351 -1.04186,1.51705 -2.31485,2.51842 -5.1761,4.07142 1.23269,4.41416 11.66781,0.6233 4.08498,-1.48402 5.61282,-1.66987 7.11741,-0.86468 1.52931,0.81848 3.27177,0.53763 8.63243,-1.38893 3.6942,-1.3276 8.0664,-2.85728 9.71505,-3.39924 l 2.99757,-0.98541 v -9.22143 c 0,-5.07224 0.23307,-8.98835 0.51881,-8.70271 z m 28.59389,36.21933 1.5781,9.68443 c 0.86819,5.32644 1.83414,16.94776 2.14552,25.82516 0.53301,15.19857 0.71729,16.46382 3.17585,21.67469 1.43606,3.04368 2.89002,6.67534 3.22999,8.07036 0.34015,1.39502 0.47002,2.48568 0.28823,2.4248 -0.18179,-0.0609 -2.10282,-0.53541 -4.26761,-1.05569 -3.70222,-0.88986 -4.13378,-1.34863 -7.28131,-7.7173 -1.94307,-3.93151 -3.53224,-8.6957 -3.78837,-11.3615 -0.52019,-5.41379 1.1435,-24.18822 3.35423,-37.86052 z m 228.83629,1.65013 c -0.17423,-5.5e-4 -0.29662,0.0249 -0.35131,0.0793 -0.42391,0.424 2.72824,6.94965 5.13763,10.63563 l 1.45193,2.21931 2.09332,-4.52512 c 2.7477,-5.93979 2.66967,-6.83104 -0.59094,-6.83104 -1.48882,0 -3.82904,-0.42611 -5.20063,-0.9475 -1.02877,-0.39153 -2.0175,-0.62875 -2.54,-0.63051 z m 149.17923,13.49623 c 1.02802,-0.13835 0.72688,0.54869 -1.07369,2.08428 -3.58444,3.05677 -29.4001,17.7987 -37.81541,21.59361 -7.78278,3.50983 -12.62454,5.08202 -11.17058,3.62807 1.00017,-1.00017 36.31682,-20.99641 43.16196,-24.43807 3.51241,-1.76598 5.8696,-2.72954 6.89772,-2.86789 z m -793.88949,64.88 c 0.2699,-0.22911 1.027,-0.0138 2.4066,0.53135 1.4049,0.55524 1.4634,0.88737 0.4144,2.32205 -1.1514,1.5746 -1.2884,1.5318 -2.3112,-0.71332 -0.564,-1.23758 -0.7798,-1.91107 -0.5098,-2.14008 z m 46.4226,3.44425 c 0.048,0.048 -0.2317,0.4215 -0.8053,1.1529 -0.6963,0.88774 -1.4226,1.61408 -1.6141,1.61408 -0.7592,0 -0.27,-0.75686 1.2664,-1.9617 0.7314,-0.57369 1.1054,-0.85288 1.153,-0.80528 z m 323.46478,56.60423 c 0.94235,0.94234 -26.25865,17.78496 -40.92107,25.33882 -6.20615,3.19734 -8.79605,3.93677 -18.29703,5.21686 -14.95563,2.01483 -39.38651,6.20911 -62.25709,10.68784 -10.39924,2.0364 -19.7378,3.94073 -20.75236,4.23154 -1.0152,0.29081 -1.50514,0.17119 -1.08982,-0.2648 0.41505,-0.4358 3.11285,-1.46225 5.99513,-2.28239 28.50627,-8.11076 96.56073,-29.42805 121.79035,-38.14865 8.30168,-2.86945 15.29117,-5.01995 15.53189,-4.77922 z m -219.49772,25.58379 c 0.15716,0.0756 0.11981,0.29616 -0.10801,0.66472 -0.3668,0.59352 -1.11546,1.07903 -1.66277,1.07903 -0.5474,0 -12.55176,4.58618 -26.6772,10.1907 -25.21458,10.00439 -26.00566,10.24733 -43.45204,13.37015 -16.93014,3.03049 -20.86364,3.59255 -19.99937,2.86059 0.2114,-0.17902 9.05569,-4.13977 19.65525,-8.80167 20.28853,-8.92324 25.39416,-10.35027 59.73148,-16.71183 5.40548,-1.00147 10.55797,-2.10226 11.44986,-2.44454 0.55395,-0.2125 0.90573,-0.28232 1.0628,-0.20715 z m 638.90618,14.65633 c -0.88655,0 1.7324,4.17113 5.35558,8.53152 2.0021,2.40958 3.72039,4.38106 3.81908,4.38106 0.0986,0 2.1338,-1.98577 4.52328,-4.41168 l 4.34508,-4.40983 -5.00252,-0.0719 c -3.19817,-0.0461 -6.36913,-0.78508 -8.78913,-2.04646 -2.08215,-1.0853 -3.99552,-1.97258 -4.25137,-1.97258 z m -358.78887,5.57362 c -0.47131,0.78269 -4.03684,5.38252 -7.9227,10.22123 -11.71171,14.58347 -15.91309,21.68908 -18.18894,30.76293 -1.10338,4.39941 -3.23764,11.84278 -4.74306,16.5424 -1.50543,4.69954 -4.83613,13.90418 -7.40205,20.45334 -4.47255,11.41583 -4.64659,11.69788 -4.19917,6.83454 0.25659,-2.79004 2.43845,-15.76045 4.84766,-28.82272 l 4.37921,-23.74993 7.05977,-7.6092 c 7.54067,-8.12764 27.60055,-27.00915 26.16928,-24.63259 z m -133.63838,28.7435 c 0.34808,0.35067 -23.93679,25.27591 -32.31567,33.16771 -5.58857,5.26363 -7.22284,7.61474 -12.15959,17.49 -3.13675,6.27487 -11.17944,20.33188 -17.87194,31.23838 -12.89496,21.0145 -13.41866,21.8 -12.61891,18.9077 1.31395,-4.752 22.46374,-66.54939 23.13381,-67.59466 1.6102,-2.51187 50.93432,-34.11403 51.8323,-33.20913 z M -886.09,959.5893 l -4.15047,4.31622 c -7.01983,7.30058 -10.3772,8.83285 -47.03869,21.47104 -24.8533,8.56758 -33.20377,11.28937 -33.20377,10.8248 0,-0.50184 43.1721,-23.86052 55.80079,-30.19183 6.78676,-3.40247 9.56278,-4.27176 15.2184,-4.76115 3.8046,-0.32917 8.37012,-0.83765 10.1456,-1.12948 z m 170.80346,42.0523 c 0.94391,0.9439 -8.20585,29.1213 -18.16191,55.9305 -2.9378,7.9109 -4.40568,10.7019 -3.39748,6.4599 0.30141,-1.2682 1.58345,-8.324 2.8498,-15.6796 3.83698,-22.2871 4.44027,-24.1535 11.68764,-36.149 3.64273,-6.0291 6.80262,-10.7811 7.02195,-10.5618 z m 246.18388,26.3566 c -12.55047,-0.025 -23.97967,0.2392 -26.38178,0.8071 -3.07061,0.7257 -2.93568,0.7968 2.76698,1.4464 8.65373,0.9858 30.63224,4.8064 46.11636,8.0164 40.6227,8.4216 69.12611,17.1679 74.03114,22.7159 1.56279,1.7677 1.54554,1.9445 -0.41071,4.4315 -2.73138,3.4723 -12.35845,7.7824 -27.77791,12.4334 -6.99936,2.1112 -14.16879,4.4406 -15.93173,5.1773 -6.42991,2.6865 -8.45866,6.8945 -5.41692,11.2373 l 1.43579,2.0499 104.86242,-0.081 104.86251,-0.079 -35.97076,-9.0106 c -35.06328,-8.7818 -51.32031,-13.0088 -57.41487,-14.9302 -2.83643,-0.8942 -2.99756,-1.1843 -2.99756,-5.3899 0,-3.9721 -0.3634,-4.7623 -3.41907,-7.4452 -14.00683,-12.2982 -68.96221,-25.6608 -125.24557,-30.453 -6.88619,-0.5864 -20.55784,-0.901 -33.10832,-0.926 z" /></g></svg>
