<?xml version="1.0" encoding="UTF-8" standalone="no"?>
<!-- Created with Inkscape (http://www.inkscape.org/) -->

<svg
   width="1147.5544"
   height="1280"
   viewBox="0 0 1147.5543 1280.0001"
   version="1.1"
   id="svg5"
   inkscape:version="1.4.2 (f4327f4, 2025-05-13)"
   xml:space="preserve"
   sodipodi:docname="18.svg"
   xmlns:inkscape="http://www.inkscape.org/namespaces/inkscape"
   xmlns:sodipodi="http://sodipodi.sourceforge.net/DTD/sodipodi-0.dtd"
   xmlns="http://www.w3.org/2000/svg"
   xmlns:svg="http://www.w3.org/2000/svg"><sodipodi:namedview
     id="namedview7"
     pagecolor="#ffffff"
     bordercolor="#666666"
     borderopacity="1.0"
     inkscape:showpageshadow="2"
     inkscape:pageopacity="0.0"
     inkscape:pagecheckerboard="0"
     inkscape:deskcolor="#d1d1d1"
     inkscape:document-units="px"
     showgrid="false"
     showborder="false"
     inkscape:zoom="0.47022002"
     inkscape:cx="819.82898"
     inkscape:cy="624.17589"
     inkscape:window-width="1920"
     inkscape:window-height="991"
     inkscape:window-x="-9"
     inkscape:window-y="-9"
     inkscape:window-maximized="1"
     inkscape:current-layer="layer1" /><defs
     id="defs2"><clipPath
       clipPathUnits="userSpaceOnUse"
       id="clipPath8006"><path
         inkscape:connector-curvature="0"
         id="path8008"
         d="m -1244.8456,-140.77945 h 33.9355 c 11.5456,0 20.8405,9.29479 20.8405,20.84039 v 31.873282 c 0,11.545575 -9.2949,20.840392 -20.8405,20.840392 h -33.9355 c -11.5456,0 -20.8405,-9.294817 -20.8405,-20.840392 v -31.873282 c 0,-11.5456 9.2949,-20.84039 20.8405,-20.84039 z"
         style="opacity:0.521;fill:#ff0000;fill-opacity:1;stroke:none;stroke-width:1.61448;stroke-linecap:round;stroke-linejoin:round;stroke-miterlimit:4;stroke-dasharray:none" /></clipPath><clipPath
       clipPathUnits="userSpaceOnUse"
       id="clipPath8001"><path
         style="opacity:0.521;fill:#ff0000;fill-opacity:1;stroke:none;stroke-width:1.59706;stroke-linecap:round;stroke-linejoin:round;stroke-miterlimit:4;stroke-dasharray:none"
         d="m -2936.6731,-1508.8075 h 33.5693 c 11.421,0 20.6155,9.1945 20.6155,20.6155 v 31.5293 c 0,11.421 -9.1945,20.6155 -20.6155,20.6155 h -33.5693 c -11.421,0 -20.6156,-9.1945 -20.6156,-20.6155 v -31.5293 c 0,-11.421 9.1946,-20.6155 20.6156,-20.6155 z"
         id="path8003"
         inkscape:connector-curvature="0" /></clipPath></defs><g
     inkscape:label="Layer 1"
     inkscape:groupmode="layer"
     id="layer1"
     transform="translate(1921.0344,165.10659)"><path
       style="fill:#000000;stroke-width:0.999999"
       d="M -1921.0344,849.42472 V 583.95569 l 14.9278,-7.13111 c 8.2103,-3.92186 21.9171,-11.01373 30.4595,-15.75956 8.5423,-4.74595 17.7374,-9.48766 20.4332,-10.53737 2.6959,-1.04983 7.5078,-4.26397 10.6932,-7.14286 7.844,-7.08887 12.3613,-9.21767 23.7431,-11.18897 11.7695,-2.03843 19.086,-4.51597 24.299,-8.22808 l 3.9334,-2.80078 -3.3256,-6.56888 c -1.8291,-3.61287 -3.3255,-7.48611 -3.3255,-8.60719 0,-1.56795 -1.0506,-1.81131 -4.5515,-1.05471 -2.5033,0.54098 -7.0069,1.34532 -10.008,1.78743 -5.2904,0.77922 -5.4293,0.69448 -4.5575,-2.77915 0.4946,-1.9708 1.2225,-4.42921 1.6175,-5.46355 0.5628,-1.4742 -1.6311,-1.88068 -10.1473,-1.88068 -17.2694,0 -23.1792,-3.89536 -17.7246,-11.6827 2.6418,-3.77187 3.0504,-3.34651 -5.7333,-5.96841 -9.4155,-2.81053 -15.8863,-12.05694 -12.2438,-17.49575 0.7372,-1.10071 4.7141,-0.91471 14.0282,0.65635 12.102,2.04118 13.8354,2.02056 25.1109,-0.30048 6.6612,-1.37108 13.4156,-3.20589 15.0094,-4.07711 2.7439,-1.49994 2.6537,-1.65556 -1.6984,-2.93027 -5.657,-1.65669 -5.1588,-3.9721 1.205,-5.60017 21.9712,-5.62092 39.874,-14.09486 43.6395,-20.65575 2.1881,-3.81236 2.1849,-4.06823 -0.05,-4.0676 -1.3121,2.5e-4 -5.7009,1.2607 -9.7529,2.80089 -4.0521,1.54007 -8.6209,2.80015 -10.1532,2.80015 -3.1066,0 -3.6777,-2.74927 -1.1053,-5.32168 2.4041,-2.40404 0.04,-2.12192 -9.3829,1.12034 -9.6535,3.32125 -23.8999,3.67761 -30.8547,0.77172 -5.1798,-2.1643 -5.8443,-3.42513 -3.1993,-6.07003 0.9114,-0.91147 1.3841,-1.84406 1.0504,-2.0723 -5.5277,-3.78024 -20.1144,-17.73924 -21.6598,-20.72775 -2.1341,-4.12673 -2.841,-13.91938 -1.0039,-13.90875 0.5776,0 5.4616,1.56557 10.8533,3.47162 11.2871,3.99011 19.253,4.65809 18.0463,1.51345 -0.6309,-1.64369 1.1038,-1.98068 9.4969,-1.84493 11.5649,0.18711 22.1254,-1.98918 33.1791,-6.83763 5.2686,-2.31104 7.2731,-3.89786 6.7259,-5.32418 -0.5715,-1.48933 1.2866,-2.63278 6.9565,-4.2811 5.098,-1.48195 9.8585,-4.20522 13.9591,-7.98496 3.4228,-3.15489 5.9306,-6.02878 5.5728,-6.38627 -0.3575,-0.35761 -5.1442,1.11308 -10.637,3.26813 -7.1343,2.79915 -10.2722,3.45688 -10.9853,2.30304 -0.7435,-1.20295 -2.6882,-1.10671 -7.6181,0.37699 -5.1631,1.55382 -9.7339,1.72169 -20.773,0.76285 -7.7844,-0.6761 -14.8646,-1.96218 -15.7342,-2.85777 -1.1847,-1.22059 -0.061,-2.98777 4.4881,-7.0565 l 6.0689,-5.42805 -3.9682,-0.80285 c -6.5789,-1.33108 -21.3505,-9.21429 -24.3059,-12.97128 -3.3471,-4.25535 -3.4831,-6.40927 -0.5582,-8.83693 1.834,-1.52207 3.7256,-1.43182 11.0833,0.52873 10.3296,2.75253 17.3776,2.96464 27.3615,0.82347 l 7.1836,-1.54057 -3.0186,-3.21313 c -3.595,-3.82674 -3.2063,-4.1386 8.0592,-6.46539 6.9935,-1.44458 10.8842,-3.4265 19.5172,-9.94264 15.7538,-11.8907 17.019,-14.64047 5.0292,-10.93073 -5.7122,1.76743 -8.6542,2.0668 -10.287,1.04721 -1.7,-1.06159 -4.3624,-0.47786 -10.3749,2.27467 -8.1423,3.72786 -15.2616,4.66833 -18.7238,2.47366 -1.2169,-0.77123 -1.7185,-3.30713 -1.434,-7.24787 l 0.4378,-6.06153 -6.5337,-1.66681 c -10.9097,-2.78303 -23.5089,-11.44709 -23.5089,-16.16604 0,-3.82236 2.3148,-4.42334 9.7239,-2.52454 5.3973,1.38345 9.3943,1.39408 19.2026,0.05 12.7574,-1.74668 32.7438,-6.51314 37.4681,-8.93592 2.5568,-1.31108 2.5633,-1.43395 0.1455,-2.7869 -2.1753,-1.21733 -1.5629,-1.83069 4.3752,-4.38235 12.3581,-5.31068 19.6588,-10.44424 28.3646,-19.94527 9.1475,-9.98264 10.9509,-13.63201 4.7026,-9.51566 -17.9926,11.85332 -35.7319,18.42558 -33.4117,12.37868 0.6814,-1.77569 0.09,-2.06893 -3.0011,-1.4877 -9.583,1.80206 -19.4169,2.21067 -21.3552,0.88747 -1.74,-1.18771 -1.0184,-2.37267 4.1997,-6.89838 3.4652,-3.00526 5.986,-5.72829 5.6018,-6.05128 -0.3842,-0.32274 -5.0491,-1.63381 -10.3661,-2.91339 -10.5713,-2.54391 -19.0416,-7.95159 -19.0416,-12.15669 0,-3.65487 3.2724,-5.05032 14.0969,-6.01078 15.1764,-1.3467 35.8873,-10.71586 47.4324,-21.45735 l 4.9916,-4.64421 -3.8513,-0.0375 c -2.1182,-0.0212 -3.8511,-0.52748 -3.8511,-1.12583 0,-0.59835 4.4593,-5.4823 9.9099,-10.85348 8.2891,-8.16808 15.2979,-17.74961 15.2979,-20.91312 0,-1.68381 -3.2375,-0.57023 -7.4458,2.56116 -2.4519,1.82443 -6.0438,3.69011 -7.982,4.14585 -1.938,0.45586 -6.9358,3.37437 -11.1063,6.48589 -4.1702,3.11138 -8.7486,5.65717 -10.1742,5.65717 -3.6756,0 -4.6023,-3.62787 -1.9578,-7.66398 3.0396,-4.6387 2.8628,-5.10194 -1.3375,-3.50487 -5.1956,1.97543 -20.3392,1.58582 -24.3327,-0.6261 l -3.417,-1.89256 4.2111,-4.2111 c 2.3161,-2.31616 7.604,-5.38093 11.751,-6.8105 5.5672,-1.9193 10.6722,-5.48368 19.5124,-13.62301 20.8919,-19.2363 20.9758,-19.41317 10.465,-22.059699 -8.1866,-2.061425 -8.7702,-3.428126 -2.3568,-5.5183 2.8957,-0.943716 7.8794,-3.501748 11.075,-5.684669 5.9135,-4.039104 15.3966,-14.798715 14.1456,-16.049545 -0.9395,-0.939591 -8.1231,2.226419 -11.5532,5.091691 -6.3536,5.307308 -18.9059,7.32111 -18.9059,3.03314 0,-1.627066 -1.1762,-2.592781 -3.3799,-2.775149 -5.5071,-0.455734 -19.1587,-6.046282 -19.9778,-8.18108 -1.3403,-3.492873 3.4491,-8.613313 10.3454,-11.0601 13.5289,-4.800201 29.269,-13.26702 35.0691,-18.864068 3.2736,-3.15901 5.9519,-6.310646 5.9519,-7.003871 0,-0.693225 -2.2057,-0.902468 -4.9016,-0.465108 -2.6958,0.437484 -4.9014,0.205367 -4.9014,-0.516232 0,-1.79306 6.6199,-10.63324 8.9314,-11.926819 2.6113,-1.461322 12.7167,-16.3624078 11.7512,-17.32787291 -0.4346,-0.43448428 -6.303,1.15583321 -13.0409,3.53399721 -11.4303,4.0346041 -12.4213,4.1698492 -14.796,2.0208019 -2.2669,-2.0515508 -2.3324,-2.7144018 -0.5988,-6.0666556 1.0703,-2.0698001 4.8457,-5.5961726 8.3897,-7.8363416 5.6768,-3.588245 30.173,-29.742424 30.173,-32.21521 0,-0.518731 -4.407,-0.500607 -9.793,0.04125 -8.3083,0.834345 -9.9243,0.640977 -10.6599,-1.276078 -1.1284,-2.940769 1.8121,-6.384645 7.4713,-8.750184 4.9033,-2.049551 7.9312,-5.956535 9.349,-12.063439 0.8346,-3.594995 0.6952,-3.755864 -1.8703,-2.153672 -5.4436,3.399502 -4.7817,-0.475358 0.952,-5.574423 8.0749,-7.181241 8.6683,-12.229558 1.4349,-12.207809 -6.0875,0.01875 -6.5534,-3.347879 -1.2922,-9.340037 5.4422,-6.198276 7.8843,-15.082578 12.0582,-43.865788 3.6979,-25.50133 4.6703,-30.10666 6.3565,-30.10666 1.047,0 3.1939,13.0804 4.9422,30.10941 1.9274,18.77482 5.1556,31.36511 9.9503,38.806971 2.5912,4.022229 4.7115,7.805092 4.7115,8.406571 0,0.601353 -2.0481,1.966054 -4.5514,3.032515 l -4.5515,1.93893 8.0526,7.747595 c 4.4288,4.261096 8.0525,8.447569 8.0525,9.303288 0,2.272043 -6.6507,4.428715 -10.6005,3.437376 -1.8957,-0.475858 -3.4039,-0.237241 -3.4039,0.538356 0,2.936768 11.2893,18.117219 16.7174,22.479562 3.1294,2.514534 5.6897,5.487676 5.6897,6.606761 0,3.218758 -5.2661,7.636474 -9.103,7.636474 -1.9255,0 -3.5011,0.601728 -3.5011,1.337451 0,0.735599 4.9452,5.101941 10.9891,9.702899 14.2388,10.8389835 23.6258,21.7733381 21.2006,24.695357 -3.0936,3.727366 -10.9181,2.418538 -21.9513,-3.6719918 -5.7269,-3.1613857 -10.6387,-5.5219253 -10.915,-5.2455603 -1.4143,1.4141988 13.7134,28.9310791 17.7918,32.3622051 l 4.5917,3.86336 -3.316,2.796774 c -2.8152,2.374414 -3.0377,3.131887 -1.4741,5.016068 3.9155,4.71783 19.1513,14.257985 26.4969,16.591525 4.2362,1.345827 8.4901,3.094139 9.4529,3.885235 2.787,2.290167 2.0371,7.340234 -1.5971,10.754236 -3.2708,3.073014 -3.517,3.094638 -10.7574,0.944466 -9.0887,-2.699028 -9.7024,-2.710652 -9.7024,-0.182619 0,1.110085 -0.5319,2.346791 -1.1819,2.748401 -2.0799,1.285454 -10.5932,-1.78881 -19.0414,-6.876001 -4.5125,-2.717277 -8.4867,-4.658207 -8.8316,-4.313219 -1.7585,1.758561 5.5841,10.266503 13.4262,15.557187 7.9042,5.332557 8.596,6.159652 6.302,7.535228 -2.4013,1.439698 -2.2904,1.78281 1.6243,5.028943 2.3107,1.916056 7.9825,5.489297 12.6039,7.940457 13.589,7.20762 28.709,20.45151 28.709,25.14684 0,3.06902 -7.5937,8.22083 -12.1291,8.22871 -1.6643,0 -6.9747,-1.22371 -11.8005,-2.72565 -4.826,-1.50195 -9.2887,-2.41292 -9.9176,-2.02456 -0.6286,0.38874 0.1138,3.16801 1.6475,6.17628 1.5348,3.00839 2.7905,6.44014 2.7905,7.62622 0,3.00777 -4.68,2.69541 -7.5768,-0.50573 -1.3252,-1.46432 -4.5553,-3.06489 -7.1782,-3.55674 -2.6227,-0.49211 -6.5204,-2.35154 -8.6611,-4.1321 -9.9834,-8.3032 -12.1989,-7.50148 -7.5505,2.7324 3.3221,7.31411 10.1912,12.59704 27.0342,20.791 17.3365,8.43419 21.4751,11.5602 19.0974,14.42522 -0.9601,1.15684 -3.1896,2.65241 -4.9542,3.32338 -4.3446,1.65182 -4.0401,3.32251 1.3428,7.36836 5.2253,3.92736 24.6082,13.76038 31.86,16.16254 2.6959,0.8931 6.4472,2.81265 8.3364,4.26572 2.9713,2.2853 3.2254,3.10214 1.8817,6.05116 -2.4097,5.28856 -9.8622,8.05408 -21.7033,8.05408 -6.1107,0 -11.0415,-0.67985 -12.0189,-1.65719 -2.2839,-2.28391 -3.1417,-1.01584 -3.3671,4.97732 -0.105,2.81453 -1.0481,5.82742 -2.0939,6.69539 -2.905,2.41116 -19.051,-6.3499 -25.7703,-13.98337 -6.7804,-7.70297 -7.4833,-4.46597 -1.3515,6.22477 5.4482,9.49866 10.2889,13.33527 27.9595,22.15933 22.4886,11.22984 24.0823,11.59008 31.6551,7.15186 3.4514,-2.02255 6.2754,-4.54483 6.2754,-5.6048 0,-1.06008 2.0482,-3.19751 4.5515,-4.7497 6.2167,-3.85498 11.0597,-8.54294 10.2233,-9.89627 -0.3804,-0.61572 -4.9119,-1.55182 -10.07,-2.0803 -5.1579,-0.52835 -9.8997,-1.2832 -10.5375,-1.67731 -2.3901,-1.47732 3.1856,-8.79056 10.3315,-13.55114 4.0726,-2.71327 8.8065,-6.43701 10.5195,-8.27507 3.6469,-3.91323 4.9381,-10.46575 1.9358,-9.82402 -3.5922,0.76772 -9.952,-1.31808 -9.952,-3.26388 0,-1.05821 1.6377,-3.05639 3.6395,-4.44034 7.4375,-5.14182 14.5662,-12.00932 14.5662,-14.03237 0,-1.44695 -0.7521,-1.77144 -2.4507,-1.05734 -4.8324,2.03106 -8.1224,2.24067 -12.0046,0.76473 -6.7709,-2.57429 -4.5803,-7.02738 6.0528,-12.30381 14.1456,-7.01937 18.9855,-14.94008 8.7527,-14.32398 -2.8884,0.17387 -6.0395,0.22812 -7.0022,0.11999 -3.411,-0.38136 -1.676,-4.22072 3.9041,-8.64031 4.6133,-3.65374 11.1506,-12.99115 11.1506,-15.92667 0,-0.37161 -2.6784,-0.86935 -5.9519,-1.10609 -8.2032,-0.59348 -8.6245,-4.36234 -1.3285,-11.88057 6.1787,-6.36664 9.7069,-17.176874 13.6317,-41.766735 4.0547,-25.403707 5.6107,-30.345653 8.2231,-26.118806 0.4043,0.654477 1.4578,8.689561 2.3408,17.855605 2.1165,21.97208 7.0561,41.461496 12.1058,47.764516 7.2635,9.06618 8.1713,11.08698 6.1008,13.58164 -1.1141,1.34257 -4.0219,2.23429 -7.2846,2.23429 -2.9866,0 -5.4302,0.56473 -5.4302,1.25483 0,0.6901 3.4661,4.59309 7.7025,8.67319 5.5348,5.33081 7.7023,8.46357 7.7023,11.1321 0,4.1401 -3.821,8.34919 -7.5792,8.34919 -3.7763,0 -1.936,3.03527 4.8883,8.06259 10.4786,7.71959 14.0784,11.6462 13.6204,14.85734 -0.4015,2.81514 -1.095,2.96351 -11.9798,2.56215 -6.3544,-0.23424 -11.5536,0.025 -11.5536,0.57761 0,3.3585 10.2041,15.64743 22.3403,26.90427 8.6146,7.99046 14.0711,14.11737 14.0711,15.80006 0,3.54587 -5.0716,5.41555 -10.4812,3.86423 -5.1703,-1.48294 -18.9315,-1.59606 -18.919,-0.15562 0.023,2.58341 6.2614,10.15064 15.001,18.1956 9.0948,8.37207 9.3823,8.8323 6.7791,10.85335 -3.8902,3.02064 -5.9434,2.69553 -17.2774,-2.73615 -6.3019,-3.02014 -10.1135,-4.19822 -10.1135,-3.12589 0,3.61125 7.1156,11.95495 13.918,16.32004 7.5411,4.83907 8.3688,6.20178 4.935,8.12346 -3.4198,1.91393 1.3323,5.2828 14.8912,10.55724 14.3478,5.5813 15.5419,8.32232 7.358,16.89364 -4.832,5.06044 -5.5562,5.3558 -11.229,4.57833 -3.3351,-0.45711 -7.7107,-1.24445 -9.7237,-1.74981 -3.6581,-0.91809 -3.6586,-0.91697 -1.2597,2.74453 1.3201,2.01455 5.608,5.96741 9.5286,8.78418 l 7.1285,5.12131 -3.3575,2.71878 c -1.9578,1.58544 -4.6966,2.46266 -6.5699,2.10455 -3.2768,-0.62635 -4.5611,1.11546 -1.5601,2.1158 0.9225,0.30761 1.2512,1.59632 0.7442,2.91752 -0.7121,1.85543 -2.71,2.36691 -9.2474,2.36691 -6.8746,0 -9.0775,-0.62123 -12.5429,-3.53725 -5.7852,-4.86782 -6.6056,-2.29216 -1.4872,4.66796 4.6678,6.34727 17.2722,15.17158 28.7861,20.1529 4.0986,1.77318 7.4626,3.68161 7.4757,4.24097 0.014,0.5591 -2.1837,2.1493 -4.8818,3.5335 -4.7005,2.41166 -4.8142,2.64728 -2.7214,5.63529 2.6028,3.71624 8.6324,4.11898 14.6988,0.98184 4.1986,-2.17129 5.8734,-5.44605 2.0312,-3.9716 -1.5199,0.58322 -2.1007,-0.15587 -2.1007,-2.67341 0,-1.91368 0.9454,-4.26384 2.1007,-5.22268 1.1553,-0.95897 2.1007,-2.92665 2.1007,-4.37297 0,-2.13392 -1.0556,-2.62928 -5.6018,-2.62928 -8.5965,0 -7.3354,-3.70699 5.0238,-14.76834 10.458,-9.35991 10.574,-9.53766 7.3524,-11.26634 -1.8003,-0.96609 -5.0064,-1.4117 -7.1245,-0.98997 -3.2585,0.64835 -3.8513,0.29637 -3.8513,-2.28829 0,-2.27029 1.606,-3.76499 6.2534,-5.82079 3.4394,-1.52145 7.2345,-4.16435 8.4336,-5.87316 2.0482,-2.91852 1.9878,-3.15314 -0.9943,-3.86861 -4.4786,-1.07446 -4.7049,-4.89395 -0.6451,-10.89111 2.4006,-3.54637 4.2471,-9.51778 5.9231,-19.15681 2.976,-17.11525 4.3817,-21.3216 6.4385,-19.26492 2.0501,2.05017 6.6943,22.15157 6.753,29.22919 0.031,3.69549 1.1138,7.11812 3.0191,9.54028 l 2.9712,3.77724 -2.9712,2.76815 c -1.6342,1.52244 -2.9712,3.42225 -2.9712,4.22159 0,1.71032 6.6068,8.51907 10.2099,10.52237 3.4249,1.90418 1.7657,5.57755 -3.32,7.35049 -5.5442,1.9328 -5.1821,5.30368 1.1627,10.82148 2.8884,2.51191 7.4572,6.46389 10.1531,8.78218 4.0888,3.51588 4.6459,4.63446 3.3598,6.74538 -0.8991,1.47583 -3.5258,2.68816 -6.3019,2.90865 -13.2945,1.05571 -14.2577,3.79361 -4.4216,12.56892 5.4646,4.87507 6.2855,6.19078 4.5628,7.31236 -6.6201,4.31009 -6.7632,3.78824 3.8513,14.03337 14.3546,13.85537 13.3642,18.36696 -4.3076,19.62429 l -9.8418,0.7001 4.82,4.90157 c 2.6509,2.6959 7.8037,7.49385 11.4509,10.66237 7.531,6.54263 8.5026,10.90123 3.4801,15.61293 -2.1378,2.00568 -5.4023,3.09726 -10.1531,3.39513 l -7.0021,0.43898 5.2707,4.03198 c 2.8989,2.21767 7.3102,4.44909 9.803,4.95882 3.6115,0.73873 4.5323,1.61844 4.5323,4.32935 0,2.08092 -1.1678,3.98448 -3.0069,4.90144 -2.5972,1.29496 -2.7805,1.92206 -1.3447,4.60484 0.9143,1.70818 3.1237,4.12935 4.9099,5.38055 4.0928,2.86665 4.8983,1.75269 7.7381,-10.70149 5.5054,-24.14387 6.7648,-35.1041 7.2412,-63.01972 0.2695,-15.78993 0.5075,-29.19757 0.5287,-29.79467 0.021,-0.5971 3.6843,-5.00844 8.14,-9.80315 9.6114,-10.3425 15.1998,-18.27396 21.0217,-29.83592 8.8369,-17.54961 10.3651,-32.4812 7.008,-68.47365 -1.5558,-16.67927 -1.9872,-18.42183 -5.2587,-21.23798 -3.023,-2.60228 -3.548,-4.20172 -3.46,-10.53899 0.1559,-11.23884 5.5933,-20.55988 20.721,-35.52059 10.5508,-10.43437 15.1115,-13.80513 26.0901,-19.28205 23.114,-11.53146 29.2696,-12.56343 77.0241,-12.91216 35.8998,-0.26224 43.0214,-0.68123 54.3531,-3.19776 16.4722,-3.65824 28.2643,-9.25379 38.0758,-18.06747 37.6271,-33.80116 56.9826,-40.915647 94.5296,-34.74662 16.7021,2.74427 22.5499,2.64253 31.8414,-0.55423 10.2635,-3.53125 44.48243,-20.972117 44.48243,-22.67218 0,-2.003053 -5.95953,-3.889109 -22.1752,-7.018496 -25.14963,-4.8532 -43.70443,-13.328018 -66.22333,-30.246657 -15.5347,-11.671327 -31.9022,-28.558092 -36.1152,-37.2614021 -3.9246,-8.1068319 -6.609,-21.6435919 -4.6755,-23.5771479 2.1692,-2.169046 7.0695,-0.102496 8.1405,3.434001 0.5131,1.693689 2.1832,4.4465895 3.7112,6.1177791 2.9095,3.1821349 10.5049,6.93037434 11.6742,5.7612916 0.374,-0.3742364 -0.5776,-3.4523751 -2.1148,-6.8406276 -3.3251,-7.3286101 -3.8231,-16.6636471 -0.8891,-16.6636471 1.0824,0 3.5587,2.714651 5.503,6.032407 3.5175,6.002157 15.1312,17.7749818 17.5347,17.7749818 3.3483,0 4.715,-4.4472142 3.8724,-12.6004198 -0.4779,-4.623332 -1.2501,-12.055189 -1.7161,-16.515152 -0.6755,-6.464517 -0.3915,-8.487568 1.4005,-9.97464 3.3847,-2.809148 5.7139,-0.05375 8.4958,10.055012 3.8095,13.840624 11.0967,27.6889984 18.4107,34.9871095 11.0735,11.0491005 13.2515,8.9006785 14.2155,-14.0214929 0.3802,-9.0409236 1.2652,-17.1607546 1.9666,-18.0440976 0.7013,-0.883218 2.4763,-1.291828 3.9446,-0.907842 2.7155,0.710099 3.3052,2.49866 4.973,15.082829 1.2619,9.5210312 9.34253,31.657231 14.95033,40.954395 6.01703,9.975889 15.64131,18.91994 19.73279,18.337961 2.68665,-0.382236 3.14188,-1.429448 3.51962,-8.098957 0.44523,-7.856341 2.02268,-11.245843 5.23418,-11.245843 1.00309,0 5.0837,5.696544 9.06818,12.658917 12.03219,21.026115 18.19334,26.106806 20.09977,16.575151 2.12305,-10.615741 1.77719,-11.246469 -16.98039,-30.958131 -9.82052,-10.320127 -19.9589,-22.3108179 -22.52968,-26.6459112 -4.46234,-7.5251029 -7.51623,-19.2449288 -5.0147,-19.2449288 0.65098,0 5.93916,4.984569 11.75158,11.0768492 8.2402,8.6368127 11.70183,11.2894667 15.71543,12.0425645 2.8309,0.5309808 5.81842,0.5507301 6.63864,0.043748 2.37554,-1.46819688 1.74081,-11.3623391 -1.58857,-24.7688537 -2.33154,-9.388161 -2.68615,-12.794788 -1.45982,-14.021368 2.29741,-2.297167 5.15806,0.39711 12.39367,11.672453 6.87488,10.713487 16.30479,17.4767424 22.27782,15.9775466 3.4625,-0.8689686 3.47875,-0.9513406 3.47875,-17.6516116 0,-13.626007 0.37674,-16.778518 2.0053,-16.778518 3.32863,0 7.26399,6.985747 12.64142,22.439439 2.8079,8.069583 5.67917,15.2474478 6.38065,15.9504224 2.04205,2.046801 4.33059,-5.3358064 9.73027,-31.3877394 0.08,-0.385111 1.38445,0.787471 2.89939,2.605906 3.41026,4.093727 3.71562,19.884781 0.65373,33.80552672 -1.10133,5.00656898 -2.02455,11.46608528 -2.05155,14.35448128 -0.0437,4.589459 0.36486,5.251685 3.23488,5.251685 6.4349,0 10.79736,-8.145705 14.0435,-26.2211771 1.2757,-7.1042429 2.96489,-14.6143459 3.75386,-16.6891459 l 1.4342,-3.772364 2.22117,3.171136 c 3.458,4.936946 4.25509,30.5271453 1.31183,42.111102 -6.20841,24.434366 -17.26676,35.444093 -46.64769,46.442695 -4.01223,1.501946 -8.70831,3.875485 -10.43588,5.27431 l -3.14101,2.543408 9.0073,3.284256 c 5.77367,2.105174 11.59108,5.624047 16.20429,9.80177 6.68476,6.053782 8.3312,6.78288 23.13541,10.24588 34.66013,8.107827 45.8506,16.566027 53.21246,40.219417 2.90139,9.32254 3.35925,17.35287 1.29807,22.77405 -1.81806,4.78196 -8.9678,8.2822 -15.29982,7.49011 -2.78665,-0.34874 -6.71526,0.19474 -8.73018,1.2077 -4.86333,2.44442 -11.88482,0.49086 -21.73022,-6.04615 -6.58813,-4.37422 -8.2422,-4.87658 -13.94212,-4.23422 -8.02296,0.90446 -9.6554,2.50878 -13.22164,12.99515 -7.35649,21.63022 -8.61544,23.59902 -10.98848,17.184 -1.00509,-2.7169 -1.4287,-2.27254 -3.67174,3.85124 -8.70019,23.75164 -13.86738,34.13814 -15.94843,32.05709 -0.43498,-0.43486 -1.49244,1.2942 -2.34991,3.84261 -1.99131,5.91779 -5.47443,6.56501 -10.32475,1.91818 -2.82078,-2.7024 -4.8862,-7.4596 -7.80897,-17.98497 -2.1858,-7.87097 -4.44009,-14.85559 -5.00957,-15.52144 -0.56973,-0.66598 -7.23399,3.97461 -14.80972,10.3125 -7.5756,6.3379 -18.89731,15.80743 -25.15959,21.04361 l -11.38546,9.52029 -2.20904,10.27662 c -1.21508,5.65205 -2.84178,13.8845 -3.61512,18.29422 -2.45529,14.00049 -9.90314,25.52595 -23.29704,36.05182 -5.8523,4.59896 -10.0503,9.15417 -11.3886,12.35743 -3.6089,8.63681 -12.9349,53.39732 -14.5042,69.6126 -0.82,8.47257 -2.1822,20.56276 -3.027,26.86691 -1.7653,13.1709 -0.7614,46.2917 1.7537,57.85953 2.1858,10.05264 4.1051,13.70401 14.7987,28.15236 l 8.9164,12.04706 10.1663,0.86947 c 13.63672,1.16608 26.74049,5.73529 31.01434,10.81461 4.1386,4.91832 7.04637,20.29202 6.1589,32.56195 l -0.61298,8.47494 -14.08636,13.46076 c -13.5926,12.98903 -14.1446,13.75338 -15.7519,21.81122 -0.9164,4.5927 -3.1944,14.51997 -5.0628,22.0607 -1.9369,7.81784 -3.3968,17.84923 -3.3968,23.34015 0,9.27229 -0.2619,10.01064 -7.0549,19.90003 -3.88,5.6488 -9.8494,13.58114 -13.2651,17.62762 -7.3906,8.7548 -12.7027,23.85838 -11.3411,32.24521 0.4654,2.86639 1.2448,9.77339 1.7321,15.34869 0.8607,9.84789 0.7219,10.46712 -4.8661,21.70672 -7.1908,14.46347 -10.4506,26.94627 -10.3363,39.57869 0.1163,12.84516 4.9482,36.51843 8.183,40.0928 1.3858,1.53132 7.8685,6.01503 14.406,9.96389 16.4145,9.91477 23.9567,17.69061 28.8744,29.7683 12.48332,30.65889 22.22809,52.21586 24.91849,55.12313 4.07711,4.40584 15.40995,12.01331 32.46946,21.79596 7.70247,4.41684 15.72405,9.6609 17.8256,11.65345 2.1018,1.99256 7.30761,9.97739 11.56858,17.74399 13.91137,25.35621 30.34703,44.91611 44.30503,52.72701 30.1444,16.8688 51.8165,30.424 57.71716,36.1 3.72761,3.5858 12.16568,13.7668 18.75144,22.6246 6.58577,8.8578 14.85572,19.0984 18.37784,22.7572 l 6.40377,6.652 h -573.77687 -573.7769 z m 755.4519,82.27865 c -5.0332,-16.38903 -15.8278,-40.9284 -24.4511,-55.58437 -7.1161,-12.09443 -32.3345,-48.62986 -33.0633,-47.90089 -0.1938,0.19374 0.8782,4.08198 2.3821,8.64056 2.9096,8.81968 8.3021,34.12239 8.3021,38.95547 0,1.82393 5.3323,8.11021 14.4235,17.00413 12.7118,12.43568 15.6619,16.29717 24.8578,32.53708 5.7388,10.13463 10.5774,18.28909 10.7523,18.12097 0.175,-0.16825 -1.2665,-5.46605 -3.2034,-11.77295 z m -208.5853,-90.75847 c -2.0167,-13.737 -4.0413,-32.5542 -4.4992,-41.81586 l -0.8325,-16.83939 -13.1942,-26.59879 c -7.2566,-14.62947 -13.3032,-26.70929 -13.4369,-26.84416 -0.1331,-0.13449 -0.023,5.84767 0.2463,13.29465 0.3652,10.11138 1.3021,15.49031 3.6996,21.24236 3.093,7.42073 7.9897,30.21378 9.9286,46.21445 0.5719,4.71808 4.6645,16.48403 10.5634,30.36815 5.2964,12.46618 9.63,23.75727 9.63,25.09122 0,1.33395 0.3514,2.07405 0.7808,1.64469 0.4293,-0.42961 -0.8691,-12.02032 -2.8859,-25.75732 z m -286.2359,-136.37069 c 14.0682,-1.16596 60.9633,-10.85736 88.0522,-18.19709 l 6.2759,-1.70044 -3.659,-1.91718 c -4.733,-2.47979 -5.8426,-5.5813 -3.6404,-10.17601 1.5762,-3.28863 4.5355,-4.49946 26.9681,-11.03548 38.2175,-11.13497 73.1047,-22.72505 74.8941,-24.8811 1.2416,-1.49632 1.0232,-2.23692 -0.9746,-3.30638 -4.8821,-2.61265 -41.8019,-5.98366 -73.2296,-6.68601 -32.0705,-0.71697 -37.0774,0.30074 -17.5055,3.558 5.3917,0.89734 11.0531,2.00843 12.5808,2.46916 2.5752,0.77635 2.524,0.93184 -0.7002,2.12905 -4.9792,1.84881 -40.3138,10.10476 -55.9944,13.08303 l -13.3041,2.52703 7.0471,3.09364 c 3.876,1.70169 7.8832,4.10122 8.9049,5.3323 1.5992,1.92694 1.377,2.42129 -1.5968,3.552 -5.9909,2.27767 -34.4231,10.91011 -60.3508,18.32321 -13.7439,3.92961 -35.8008,10.70687 -49.0154,15.06083 -21.8069,7.18499 -23.5736,8.00296 -19.1248,8.85518 7.6504,1.46558 56.3392,1.41083 74.3725,-0.0837 z m -45.8616,-96.95537 c 19.1914,-5.87641 19.3476,-5.95741 14.0043,-7.25711 -2.972,-0.72285 -18.6377,-1.28471 -34.8128,-1.24846 -27.8669,0.0625 -30.3273,0.28924 -46.9147,4.32147 -9.628,2.34054 -16.6405,4.31059 -15.5833,4.37797 1.0572,0.0675 11.7706,1.06083 23.8074,2.20779 12.0369,1.14696 24.7212,2.29729 28.1873,2.55616 3.4662,0.25899 7.5624,0.58648 9.1028,0.72785 1.5406,0.14137 11.5345,-2.41704 22.209,-5.68567 z m 333.2057,-4.40734 c 13.2572,-4.13835 26.5443,-8.54982 29.5268,-9.80302 4.2456,-1.78419 10.325,-2.28142 28.0087,-2.29142 23.2201,-0.0138 31.182,-1.24158 61.4052,-9.47478 12.1623,-3.31313 13.1662,-4.51546 3.7776,-4.52334 -4.1721,0 -23.3405,-1.26095 -42.5966,-2.7944 -50.7093,-4.03848 -60.3286,-3.83573 -121.8381,2.56578 -8.8864,0.92472 -9.5061,1.18571 -6.6273,2.7909 1.747,0.97384 9.7809,2.8454 17.8534,4.15885 8.0725,1.31346 14.6783,2.75828 14.6796,3.21101 0,1.02246 -19.3154,4.44272 -46.9123,8.3057 -29.2592,4.0956 -32.8628,4.8257 -29.4092,5.95891 1.5405,0.50548 14.1444,2.48841 28.0087,4.40634 13.8644,1.91806 26.7835,3.74512 28.709,4.05998 8.288,1.3552 12.5694,0.56085 35.4145,-6.57051 z m -183.1608,-30.69914 c 9.2429,-2.61828 24.0012,-6.55864 32.7962,-8.75619 14.4205,-3.60337 15.5896,-4.1241 11.9038,-5.30218 -6.6245,-2.11767 -44.6329,-1.52107 -63.6058,0.99834 -9.628,1.27845 -28.8491,4.34872 -42.7134,6.82288 l -25.2079,4.49859 16.1051,1.79043 c 8.8578,0.98484 22.0919,2.68478 29.4091,3.77749 16.5047,2.46478 20.3536,2.10805 41.3129,-3.82936 z m 432.0353,-9.39129 c 8.0842,-2.31079 15.9604,-4.26422 17.5025,-4.34097 2.2924,-0.11499 2.1651,-0.32798 -0.6973,-1.17245 -4.8043,-1.4172 -57.0166,-0.36374 -70.3887,1.42032 -10.1791,1.35808 -23.0556,4.95695 -19.9395,5.57292 3.1679,0.62623 33.1319,2.26067 45.5171,2.48279 11.0581,0.19837 15.7914,-0.47148 28.0059,-3.96261 z m -648.6836,-57.99878 c 4.3173,-2.26179 14.1279,-12.02319 12.084,-12.02319 -0.7426,0 -3.7181,1.60907 -6.6123,3.57575 -6.7156,4.56333 -16.0522,7.91446 -17.1411,6.15228 -1.0502,-1.69907 -4.8552,-1.73181 -4.8552,-0.0425 0,1.43157 6.3298,4.03673 10.2226,4.20747 1.3862,0.06 4.2221,-0.78084 6.302,-1.87056 z m 430.5915,-1.47607 c 4.9922,-1.51469 15.6884,-2.0743 42.3633,-2.21604 l 35.685,-0.18962 v -3.19551 c 0,-2.39941 -1.0034,-3.396 -4.0271,-4.00073 -3.7744,-0.75497 -4.7051,-2.51791 -14.8384,-28.10673 -5.9464,-15.01571 -14.6007,-34.11052 -19.2318,-42.43309 -18.4519,-33.15968 -18.7813,-34.33776 -13.093,-46.82269 1.8849,-4.13685 4.7247,-13.49726 6.311,-20.80112 1.5861,-7.30373 3.2809,-14.53022 3.766,-16.05892 0.4852,-1.52857 -5.9783,4.14223 -14.3635,12.6018 -8.3849,8.45982 -19.4756,19.01293 -24.6461,23.45165 -7.0399,6.04353 -10.4416,10.25813 -13.546,16.78264 -8.1868,17.20638 -12.7644,42.72258 -12.7644,71.14993 0,15.20557 0.2431,16.66102 3.6319,21.74359 2.5879,3.88123 17.3361,20.35526 18.0269,20.13639 0.026,-0.0138 3.0532,-0.92696 6.7262,-2.04155 z m 283.3948,-1.09408 c -0.4644,-1.73306 -0.8531,-4.56896 -0.8636,-6.30202 -0.015,-2.56329 -0.8027,-3.15102 -4.2203,-3.15102 h -4.2014 l -0.056,-28.35885 c -0.038,-19.20505 -0.7262,-31.74935 -2.1333,-38.86221 -1.1426,-5.7768 -2.6459,-19.64104 -3.3405,-30.80964 -0.6948,-11.16847 -1.9063,-25.03272 -2.6924,-30.80964 -0.7861,-5.77679 -1.8441,-15.7023 -2.3512,-22.05682 -0.8661,-10.85174 -2.0094,-13.58739 -4.1982,-10.04552 -2.3975,3.87949 -16.051,47.07443 -18.1738,57.49593 -1.3127,6.44489 -4.2691,15.45006 -6.5694,20.01152 -4.9321,9.7794 -9.8974,28.56072 -12.3568,46.74019 -2.3394,17.29337 -0.641,25.10734 8.0469,37.01978 3.521,4.82795 6.6093,9.02055 6.8627,9.31704 0.2535,0.29636 10.0916,0.98471 21.8623,1.52982 11.7707,0.54511 22.2624,1.09021 23.3152,1.21171 1.3288,0.15312 1.6556,-0.74248 1.0693,-2.93027 z m -82.8082,-6.94738 c 0,-7.12324 -0.1063,-7.31211 -4.6226,-8.23682 -2.5423,-0.52048 -5.0141,-1.33796 -5.4927,-1.81656 -0.4786,-0.47874 2.8378,-13.9435 7.3699,-29.92167 7.6266,-26.88865 8.3144,-30.51102 9.2384,-48.65749 0.549,-10.78336 1.6293,-22.45169 2.4005,-25.92944 0.7713,-3.47775 2.1017,-16.39678 2.9569,-28.70896 0.855,-12.31231 1.9276,-24.74898 2.3833,-27.63738 0.4559,-2.88839 0.4469,-5.25168 -0.02,-5.25168 -0.467,0 -8.8975,1.37032 -18.7348,3.04514 -12.5832,2.14242 -24.114,3.07289 -38.8926,3.13826 -21.9146,0.0962 -25.7837,-0.56548 -45.2691,-7.75197 l -8.8577,-3.26688 -2.6313,3.46812 c -1.447,1.90731 -5.2589,10.08514 -8.4705,18.1726 -3.2117,8.08758 -9.7342,22.89717 -14.4946,32.91031 -10.7844,22.68355 -12.4638,28.60984 -11.782,41.57537 0.4744,9.02117 1.4902,12.21356 8.53,26.8054 12.8595,26.65516 19.873,37.3319 33.3079,50.70454 l 12.2787,12.22169 34.0991,0.98796 c 18.7546,0.54336 36.935,1.08959 40.4012,1.21383 l 6.302,0.22624 z m -454.7228,-31.08162 c 4.5387,-2.36154 8.5077,-6.66014 12.8585,-13.927 l 3.2279,-5.3913 -4.5832,2.37016 c -2.7767,1.43582 -6.7199,2.1663 -10.0037,1.85318 -5.3989,-0.51485 -6.9218,0.99647 -3.9739,3.94424 2.1013,2.10142 0.105,6.11615 -3.0408,6.11615 -1.4824,0 -6.5301,-1.29183 -11.2171,-2.8709 -4.6872,-1.57894 -8.7909,-2.60178 -9.1195,-2.27316 -0.3288,0.32873 2.3544,3.19613 5.9622,6.37189 7.1998,6.3374 12.9211,7.43236 19.8896,3.80674 z m 120.3751,-2.58378 c -0.3171,-0.96284 -1.8993,-1.94606 -3.516,-2.1848 -1.6168,-0.23874 -3.6928,-1.34158 -4.6133,-2.45079 -0.9205,-1.10908 -2.3445,-2.01642 -3.1646,-2.01642 -0.82,0 0.3204,1.89055 2.5342,4.20122 4.0016,4.17685 9.8688,5.81829 8.7597,2.45079 z m 9.0311,-46.87793 c -0.9984,-0.36499 -5.0006,-2.8069 -8.8935,-5.42668 -3.8929,-2.61991 -7.4874,-4.76721 -7.9877,-4.77196 -0.5003,0 -2.6426,-0.91259 -4.7608,-2.01755 -2.9521,-1.53994 -3.8512,-1.59919 -3.8512,-0.25336 0,3.84261 11.9509,12.3283 20.9975,14.90908 3.6728,1.04772 7.8442,-1.2157 4.4957,-2.43953 z m -132.3692,-30.14616 c 4.0082,-4.23498 7.4449,-9.54828 7.4449,-11.51084 0,-0.46286 -1.3374,-0.12612 -2.972,0.74885 -1.6345,0.87484 -4.8169,1.22171 -7.0718,0.77072 -2.255,-0.45098 -3.7603,-0.27074 -3.3456,0.40061 0.415,0.67135 -0.1632,1.98231 -1.2848,2.91327 -1.6037,1.33083 -3.3206,1.25621 -8.0371,-0.34986 -13.1835,-4.48921 -15.6478,-5.14569 -16.4086,-4.37009 -0.436,0.44436 2.8604,4.2146 7.3252,8.37832 7.1881,6.70338 8.8004,7.57048 14.0798,7.57048 4.9089,0 6.7227,-0.80385 10.27,-4.55146 z m 13.3789,-53.01859 c 4.1724,-1.71268 3.9329,-4.04923 -0.415,-4.04923 -4.5825,0 -3.075,-2.17054 5.3344,-7.68072 9.8695,-6.46701 14.3545,-10.45749 14.3545,-12.77216 0,-1.31758 -1.1392,-1.43195 -4.5422,-0.45598 -6.5332,1.87368 -11.6685,1.60594 -13.5893,-0.70848 -2.4352,-2.93439 0.115,-6.81213 7.246,-11.01622 6.9757,-4.11286 16.1665,-13.2824 11.5857,-11.55884 -1.5404,0.57948 -6.8971,1.58045 -11.9037,2.22417 -6.8141,0.8761 -9.586,1.89806 -11.0242,4.06386 -2.0279,3.05364 -8.2227,3.88786 -12.5253,1.68668 -1.2972,-0.66372 -4.075,-1.61681 -6.1725,-2.11804 -3.2422,-0.7746 -3.6724,-0.54136 -2.8702,1.55681 0.5192,1.35746 3.0232,5.19469 5.5646,8.52732 6.6778,8.75681 6.2251,10.04589 -3.5279,10.04589 -8.1438,0 -21.8083,-3.21926 -25.112,-5.91616 -1.2892,-1.05246 -1.7504,-0.71798 -1.7504,1.26845 0,3.29838 6.3378,9.41266 17.5054,16.88827 4.6214,3.09338 9.663,7.03587 11.2035,8.76093 5.0551,5.66092 9.2768,5.91728 20.6386,1.25345 z m 761.46166,-180.15436 c -0.0862,-2.03167 -4.13885,-6.43676 -5.06731,-5.50817 -0.51686,0.51673 0.20462,2.20379 1.60294,3.74899 2.72665,3.01289 3.53475,3.42325 3.46437,1.75918 z"
       id="path181" /></g></svg>
