<?xml version="1.0" encoding="UTF-8" standalone="no"?>
<!-- Created with Inkscape (http://www.inkscape.org/) -->

<svg
   width="1080"
   height="1080"
   viewBox="0 0 285.74997 285.74997"
   version="1.1"
   id="svg1"
   inkscape:version="1.4.2 (f4327f4, 2025-05-13)"
   sodipodi:docname="73.svg"
   xml:space="preserve"
   xmlns:inkscape="http://www.inkscape.org/namespaces/inkscape"
   xmlns:sodipodi="http://sodipodi.sourceforge.net/DTD/sodipodi-0.dtd"
   xmlns="http://www.w3.org/2000/svg"
   xmlns:svg="http://www.w3.org/2000/svg"><sodipodi:namedview
     id="namedview1"
     pagecolor="#ffffff"
     bordercolor="#000000"
     borderopacity="0.25"
     inkscape:showpageshadow="2"
     inkscape:pageopacity="0.0"
     inkscape:pagecheckerboard="0"
     inkscape:deskcolor="#3c3c3c"
     inkscape:document-units="px"
     inkscape:zoom="0.49890312"
     inkscape:cx="262.57603"
     inkscape:cy="386.84865"
     inkscape:window-width="1920"
     inkscape:window-height="991"
     inkscape:window-x="-9"
     inkscape:window-y="-9"
     inkscape:window-maximized="1"
     inkscape:current-layer="layer1" /><defs
     id="defs1"><inkscape:path-effect
       effect="fillet_chamfer"
       id="path-effect30"
       is_visible="true"
       lpeversion="1"
       nodesatellites_param="F,0,0,1,0,0,0,1 @ F,0,0,1,0,0,0,1 @ F,0,0,1,0,0,0,1 @ F,0,0,1,0,0,0,1 @ F,0,0,1,0,0,0,1 @ F,0,0,1,0,0,0,1 @ F,0,0,1,0,0,0,1 @ F,0,0,1,0,0,0,1 @ F,0,0,1,0,0,0,1 @ F,0,0,1,0,0,0,1 @ F,0,0,1,0,0,0,1 @ F,0,0,1,0,0,0,1 @ F,0,0,1,0,0,0,1 @ F,0,0,1,0,0,0,1 @ F,0,0,1,0,0,0,1 @ F,0,0,1,0,0,0,1 @ F,0,0,1,0,0,0,1 @ F,0,0,1,0,0,0,1 @ F,0,0,1,0,0,0,1 @ F,0,0,1,0,0,0,1 @ F,0,0,1,0,0,0,1 @ F,0,0,1,0,0,0,1"
       radius="0"
       unit="px"
       method="auto"
       mode="F"
       chamfer_steps="1"
       flexible="false"
       use_knot_distance="true"
       apply_no_radius="true"
       apply_with_radius="true"
       only_selected="false"
       hide_knots="false" /><inkscape:path-effect
       effect="fillet_chamfer"
       id="path-effect1"
       is_visible="true"
       lpeversion="1"
       nodesatellites_param="C,0,0,1,0,45.584779,0,1 @ F,0,0,1,0,37.379523,0,1 @ F,0,0,1,0,82.964302,0,1 @ F,0,0,1,0,0,0,1"
       radius="0"
       unit="px"
       method="auto"
       mode="F"
       chamfer_steps="1"
       flexible="false"
       use_knot_distance="true"
       apply_no_radius="true"
       apply_with_radius="true"
       only_selected="false"
       hide_knots="false" /></defs><g
     inkscape:label="Capa1"
     inkscape:groupmode="layer"
     id="layer1"
     style="display:inline;opacity:1;mix-blend-mode:multiply"><text
       xml:space="preserve"
       style="font-weight:bold;font-size:29.1135px;line-height:0px;font-family:Dubai;-inkscape-font-specification:'Dubai, Bold';text-align:center;letter-spacing:0px;word-spacing:0.00727839px;writing-mode:lr-tb;direction:ltr;text-anchor:middle;fill:#000000;stroke-width:1.32292;stroke-linecap:round;stroke-linejoin:round;stroke-miterlimit:4.7"
       x="-110.77085"
       y="-49.501209"
       id="text16"><tspan
         sodipodi:role="line"
         id="tspan16"
         style="font-style:normal;font-variant:normal;font-weight:normal;font-stretch:normal;font-size:29.1135px;font-family:'Festival Budaya XXXI';-inkscape-font-specification:'Festival Budaya XXXI, Normal';font-variant-ligatures:normal;font-variant-caps:normal;font-variant-numeric:normal;font-variant-east-asian:normal;fill:#000000;stroke-width:1.32292"
         x="-110.77085"
         y="-49.501209">DESIGN</tspan></text><g
       id="g47"
       transform="translate(-50.249994,-192.37498)"><path
         style="font-size:52.9167px;line-height:0px;font-family:'Festival Budaya XXXI';-inkscape-font-specification:'Festival Budaya XXXI, Normal';text-align:center;letter-spacing:0px;word-spacing:0.0132292px;text-anchor:middle;opacity:0.5;stroke-width:1.32292;stroke-linecap:round;stroke-linejoin:round;stroke-miterlimit:4.7"
         d="m 197.27833,77.454461 h -11.4205 l -0.51676,0.103352 c -0.67179,0.103353 -0.62012,1.395265 0.0258,1.291912 0.31006,-0.05168 0.72347,0.258382 1.24023,0.930176 0.80099,1.111044 1.31775,2.041221 1.52446,2.790529 v 27.49188 c 0,2.73885 -0.51677,4.41834 -2.01538,6.1495 -0.56844,0.67179 -1.08521,1.00769 -1.49862,1.00769 -0.41341,0 -0.62012,0.25838 -0.62012,0.82682 0,0.56844 0.31006,0.8785 0.95602,0.93018 l 0.95601,0.10335 h 10.67119 l 0.95602,-0.0775 c 0.62011,-0.0517 0.95601,-0.38758 0.95601,-0.95602 -0.0258,-0.5426 -0.25838,-0.82682 -0.67179,-0.82682 -0.41342,0 -0.90434,-0.3359 -1.47278,-1.00769 -0.6718,-0.74931 -1.16272,-1.57613 -1.47278,-2.48047 l 0.0258,-22.660131 13.07414,26.354991 c 0.31006,0.59428 0.5426,1.0077 0.74931,1.26608 0.18087,0.25838 0.5426,0.41341 1.08521,0.41341 h 11.42049 l 0.51677,-0.10335 c 0.64595,-0.12919 0.56844,-1.36943 -0.0517,-1.26608 -0.80098,0.15503 -2.19625,-2.35128 -2.45463,-2.99723 l 0.0258,-31.160909 c 0.25838,-1.16272 0.82682,-2.247926 1.70532,-3.255617 0.56844,-0.620117 1.05937,-0.956014 1.47278,-0.956014 0.41341,0 0.64596,-0.284221 0.64596,-0.852662 0,-0.568441 -0.3359,-0.8785 -0.95602,-0.956015 l -0.93017,-0.103352 h -10.69703 l -0.95602,0.103352 c -0.62011,0.07752 -0.93017,0.387574 -0.93017,0.930177 0,0.568441 0.2067,0.852661 0.62011,0.852661 0.41342,0 0.93018,0.335897 1.49862,0.981853 0.8785,1.085206 1.47278,2.273765 1.757,3.514 V 105.4631 L 198.98366,78.255446 c -0.28422,-0.542603 -0.85267,-0.800985 -1.70533,-0.800985 z m -2.17041,11.67888 c -0.31006,-0.155029 -0.28422,-0.310059 0.0775,-0.413411 0.46508,-0.129192 1.65364,1.085205 1.86035,1.395264 l 12.97079,26.303316 c 0.0517,0.25839 0.20671,0.43925 0.46509,0.56845 0.25838,0.12919 0.28422,0.31005 0.0775,0.51676 -0.36173,0.38757 -1.18855,-0.62012 -1.21439,-0.77515 L 196.45151,90.554444 c -0.64596,-0.930176 -0.51677,-0.72347 -1.34359,-1.421103 z m -6.40788,-8.75916 c -0.18087,-0.284221 -0.10335,-0.387574 0.23254,-0.335897 0.41342,0.103353 1.00769,1.498617 1.05937,2.067058 v 31.781028 c -0.2067,0.74931 -0.43925,1.13688 -0.67179,1.16272 -0.23255,0 -0.25838,-0.38758 -0.0517,-1.16272 V 82.260372 c -0.18087,-1.162721 -0.15503,-0.930177 -0.56844,-1.886191 z m 24.36545,0.671794 c -0.10335,-0.258383 -0.0258,-0.387574 0.25838,-0.335897 0.38758,0.129191 1.0077,1.550294 1.05937,2.067058 l -0.0258,23.512794 c -0.2067,0.72347 -0.41341,1.11104 -0.64595,1.13688 -0.23255,0.0258 -0.25838,-0.36174 -0.0775,-1.13688 V 82.906327 c -0.18086,-1.136882 -0.15503,-0.904338 -0.56844,-1.860352 z"
         id="path44" /><path
         style="font-size:52.9167px;line-height:0px;font-family:'Festival Budaya XXXI';-inkscape-font-specification:'Festival Budaya XXXI, Normal';text-align:center;letter-spacing:0px;word-spacing:0.0132292px;text-anchor:middle;opacity:0.5;stroke-width:1.32292;stroke-linecap:round;stroke-linejoin:round;stroke-miterlimit:4.7"
         d="m 171.48338,123.05894 c 5.24516,0.74931 8.16488,1.26607 12.91912,2.99723 0.59428,0.1292 1.03353,0 1.00769,-0.59428 -0.0517,-0.43924 -0.23254,-0.67179 -0.51676,-0.69763 -0.31006,-0.0258 -0.69764,-0.43925 -1.2144,-1.24023 -1.2144,-1.86036 -1.98954,-3.514 -2.32544,-4.96094 -0.3359,-1.42111 -0.49093,-2.60966 -0.49093,-3.56568 0,-3.53984 0.0258,-7.07967 0.0258,-10.64535 0.23254,-0.82682 0.74931,-1.78284 1.57613,-2.86804 0.51677,-0.6718 0.90434,-0.98186 1.2144,-0.93018 0.31006,0.0517 0.46509,-0.12919 0.51676,-0.59428 0.0517,-0.671794 -0.43925,-0.697632 -0.98185,-0.826823 h -16.53647 l -0.5426,0.103353 c -0.36174,0.07751 -0.49093,0.310059 -0.43925,0.72347 0,0.46509 0.49093,0.77515 1.44694,0.95601 0.93018,0.20671 1.73116,0.56845 2.35128,1.08521 0.59428,0.59428 1.62781,1.91203 1.83451,2.94556 v 5.55522 c -2.04122,1.67948 -4.44417,2.50631 -7.20886,2.50631 -2.68718,0 -5.24516,-1.42111 -7.67396,-4.31499 -2.42879,-2.89388 -3.64319,-6.38204 -3.64319,-10.464481 0,-4.082441 1.2144,-7.570602 3.66903,-10.464484 2.45463,-2.893882 5.01262,-4.340823 7.64812,-4.340823 1.86035,0 3.41064,0.542603 4.62504,1.627809 2.22209,1.989544 3.92741,4.728396 5.6069,7.053837 0.77514,1.085206 1.67948,1.60197 2.71301,1.60197 h 3.41065 V 79.599034 l -0.10335,-1.033529 c -0.0775,-0.697633 -0.41342,-1.059368 -1.03353,-1.059368 -0.62012,0.02584 -0.93018,0.258382 -0.93018,0.723471 0,0.465088 -0.36174,0.981852 -1.05937,1.60197 -0.80098,0.72347 -1.70532,1.266073 -2.73885,1.627808 -2.76469,-2.506308 -6.45956,-4.159955 -11.65304,-4.159955 -5.271,0 -10.15443,1.963706 -14.65028,5.865279 -4.49585,3.901573 -6.6921,8.91419 -6.61459,15.063689 0.0517,6.149501 2.27377,11.187951 6.66627,15.063691 4.3925,3.87573 9.25008,5.8136 14.5986,5.8136 3.10059,0 5.8136,-0.49093 8.13904,-1.47278 -0.28422,1.36943 -0.90434,3.07475 -2.17041,3.30729 -0.49093,0.0775 -0.77515,0.54261 -0.77515,1.03353 -0.2067,1.18856 1.86035,0.90434 2.9714,1.05937 0.10335,0 0.23254,0.0258 0.36173,0.0258 z m -19.8696,-39.790877 c -1.44694,1.111044 -2.55798,2.196249 -3.33313,3.281455 -2.22209,3.07475 -4.52169,7.828984 -4.0566,12.919116 0.25838,3.410646 2.24793,8.164886 4.5992,10.929576 1.24024,1.49861 2.22209,2.91972 3.95325,3.77238 0.90434,0.46509 1.5503,0.82682 1.91203,1.13688 0.64596,0.5426 0.54261,0.8785 -0.43925,0.38757 -0.93017,-0.43925 -2.04122,-1.11104 -3.28145,-1.98954 -1.24024,-0.8785 -2.35128,-2.01538 -3.28146,-3.35897 -2.27376,-3.15226 -4.44417,-7.23471 -4.54753,-12.143969 -0.12919,-4.444176 2.89389,-10.516161 5.14181,-12.996631 0.56844,-0.645956 1.57613,-1.498617 3.02307,-2.583823 2.14458,-1.627809 2.29961,-1.731162 3.90158,-2.402956 0.36173,-0.155029 0.46509,-0.155029 0.33589,0 -0.0517,0.05168 -0.15502,0.129192 -0.31005,0.232544 -1.05937,0.749309 -1.96371,1.524456 -3.61736,2.816368 z m 21.72996,24.236257 c 0,1.11105 -0.0258,1.96371 -0.0258,2.53215 0,0.18087 -0.31006,0.8785 -0.49093,0.8785 -0.2067,0 -0.31006,-0.69763 -0.25838,-0.8785 v -2.53215 c 0,-1.52445 -0.0775,-2.45463 -0.3359,-3.64319 h -0.0258 c -0.23254,-0.85266 -0.77514,-1.65364 -1.29191,-2.19625 -0.31006,-0.33589 -0.43925,-0.56844 -0.36173,-0.72347 0.2067,-0.2067 0.56844,-0.0517 1.11104,0.51677 0.62012,0.72347 0.93018,1.16272 1.29191,2.17041 v 0.0258 c 0.31006,1.13688 0.38758,2.24792 0.38758,3.84989 z"
         id="path45" /><path
         style="font-size:52.9167px;line-height:0px;font-family:'Festival Budaya XXXI';-inkscape-font-specification:'Festival Budaya XXXI, Normal';text-align:center;letter-spacing:0px;word-spacing:0.0132292px;text-anchor:middle;opacity:0.5;stroke-width:1.32292;stroke-linecap:round;stroke-linejoin:round;stroke-miterlimit:4.7"
         d="m 69.11958,77.454461 h -2.273764 l -0.542603,0.103352 c -0.645956,0.129192 -0.568441,1.421103 0.02584,1.291912 0.310059,-0.05168 0.697633,0.258382 1.214397,0.930176 0.775147,1.059368 1.291912,1.989544 1.550294,2.790529 v 27.51772 c 0,2.71301 -0.465088,4.41833 -1.989544,6.1495 -0.568441,0.67179 -1.059367,1.00769 -1.472779,1.00769 -0.413412,0 -0.645956,0.25838 -0.645956,0.82682 0,0.56844 0.335897,0.8785 0.956015,0.93018 l 0.956015,0.10335 H 78.47302 l 16.820689,-0.0258 1.446941,-7.95817 -0.103353,-0.51677 c -0.129191,-0.64595 -1.472779,-0.5426 -1.369426,0.0517 0.05168,0.28422 -0.258382,0.67179 -0.981853,1.18856 -0.180868,0.18086 -0.645956,0.36173 -0.904338,0.46509 l -14.90866,0.0258 V 99.52031 H 89.609298 L 88.963342,93.370811 78.47302,93.344973 v -9.120896 h 13.668425 c 0.568441,0.387574 1.653647,1.266074 1.60197,1.679485 -0.05168,0.310059 0.15503,0.465088 0.568441,0.490927 0.413412,0.05168 0.671794,-0.07751 0.723471,-0.43925 l 0.07752,-0.542603 -0.852662,-7.958175 H 73.460403 Z m 0.800986,2.893882 c -0.15503,-0.258383 -0.07751,-0.387574 0.232544,-0.335898 0.413411,0.15503 1.033529,1.524456 1.033529,2.041221 l 0.02584,31.160904 c -0.180867,0.74931 -0.387573,1.13689 -0.620117,1.13689 -0.232544,0.0258 -0.258383,-0.36174 -0.103353,-1.13689 V 82.182857 c -0.180868,-1.085206 -0.15503,-0.826823 -0.568441,-1.834514 z m 44.570954,0.594279 0.77515,0.620117 -0.62012,0.775147 c -0.38758,0.413412 -0.56844,0.904338 -0.56844,1.524456 0,1.085206 0.49092,1.860353 1.49861,2.325441 0.98186,0.465088 1.91203,0.516764 2.73886,0.103353 0.36173,-0.180868 0.72347,-0.749309 1.0852,-1.679485 0.62012,-1.576132 0.41341,-3.178103 -0.56844,-4.805911 -1.88619,-2.868044 -4.80591,-4.211632 -8.785,-4.056603 -2.73885,0.15503 -5.24516,1.059368 -7.49308,2.713015 -3.307298,2.428793 -4.960945,5.684411 -4.960945,9.715175 0.05168,4.780073 2.222088,7.906499 5.012615,10.903733 1.34359,1.44694 3.95325,3.61735 7.85482,6.51123 l 0.6718,0.49093 c 1.47278,1.16272 2.94556,2.35128 4.41834,3.53984 3.12642,2.55798 5.01261,4.75423 6.87297,8.81084 0.93017,2.06705 1.4211,4.41833 1.4211,7.00216 -0.0517,2.32544 -0.72347,4.78007 -2.01538,7.33805 -2.60967,5.14181 -5.68441,7.38974 -11.83391,9.06922 -4.70256,1.13689 -9.01755,0.98186 -12.970796,-0.46508 -3.720705,-1.44695 -6.304529,-4.23747 -7.75147,-8.37159 -1.240235,-3.72071 -0.8785,-7.54477 1.03353,-11.4205 1.550294,-3.25562 3.824058,-5.55522 6.872969,-6.87297 2.118735,-0.8785 4.392497,-0.95601 6.821297,-0.20671 3.53983,1.08521 5.58105,3.28146 6.1495,6.58875 0.49092,3.56568 -0.85267,5.91696 -4.03077,7.028 l -0.98185,0.28422 -0.25838,-0.98185 c -0.31006,-0.98185 -1.03353,-1.49862 -2.19625,-1.55029 -1.44694,-0.10336 -2.29961,0.82682 -2.35128,2.2996 -0.0517,1.52445 0.98185,2.48047 3.15226,2.89388 0.93018,0.15503 1.88619,0.15503 2.89388,0.0517 2.76469,-0.36174 4.75424,-1.78284 5.99447,-4.26331 0.36174,-0.77515 0.69764,-1.88619 0.95602,-3.33313 0.25838,-1.44694 0.15503,-2.9714 -0.3359,-4.57337 -0.67179,-2.11873 -2.14457,-3.92741 -4.44417,-5.42603 -2.4288,-1.55029 -5.16765,-2.32544 -8.21656,-2.27376 -2.945561,0.10335 -5.348516,0.82682 -7.208869,2.19625 -1.653647,1.18856 -4.030764,3.61735 -5.193485,5.34851 -2.325441,3.33313 -3.436484,8.47494 -2.428793,13.79762 0.620117,3.04891 2.170411,5.94279 4.702558,8.68164 4.108279,4.23747 9.534307,6.61459 16.278089,7.13135 4.54753,0.28423 8.75916,-0.28422 12.60905,-1.70532 2.01539,-0.77515 4.23747,-2.14457 6.66627,-4.10828 3.30729,-2.89388 5.68441,-6.1495 7.18303,-9.79269 1.36942,-3.64319 1.55029,-7.69979 0.56844,-12.1698 -1.52446,-6.66627 -5.37436,-12.58322 -11.54969,-17.77671 l -5.37435,-4.418335 c -3.25562,-2.609662 -5.78777,-4.728397 -7.54477,-6.330367 -4.15995,-3.875735 -5.42603,-7.131352 -3.79822,-9.766852 0.36174,-0.594279 1.00769,-1.214397 1.91203,-1.860352 2.06706,-1.498618 5.50354,-0.956015 7.33806,0.465088 z m -14.727794,2.532147 c 0.620114,-1.007692 0.645954,-0.956015 0.361734,-0.05168 -0.826822,2.222088 -0.723469,4.935102 0.31006,8.139043 0.41341,1.291912 1.2144,2.6355 2.42879,4.082441 1.18856,1.446941 2.89389,3.074749 5.11597,4.883427 3.8499,3.15227 7.57061,5.94279 10.92958,9.04338 2.73885,2.45463 4.54752,4.7284 5.45186,6.84713 0.93018,2.11874 1.57614,4.67672 1.93787,7.67396 0.15503,1.26607 0.10335,2.55798 -0.12919,3.87573 -0.46509,2.86805 -2.55799,7.05384 -4.18579,8.91419 -0.93018,1.08521 -1.67949,1.83452 -2.22209,2.19625 -1.31775,0.8785 -0.69763,0.10336 0.10335,-0.72347 2.14457,-2.19625 3.02307,-3.79822 4.70256,-7.5706 1.47278,-3.30729 1.24023,-7.00216 0.15503,-10.95541 -1.18856,-4.47001 -3.74655,-7.38973 -7.00216,-10.23194 -1.42111,-1.24023 -4.0566,-3.38481 -7.88066,-6.38204 -4.44418,-3.462329 -7.33806,-6.201181 -8.70749,-8.216563 -0.98185,-1.472779 -1.653644,-3.07475 -1.963703,-4.831749 -0.542603,-2.764691 -0.335897,-4.986779 0.594279,-6.692102 z m 27.388524,-6.020308 -0.51677,0.103352 c -0.64595,0.103353 -0.59428,1.369427 0.0258,1.291912 0.31006,-0.05168 0.72347,0.258382 1.24024,0.930176 0.77514,1.03353 1.29191,1.963706 1.55029,2.790529 v 27.51772 c 0,2.71301 -0.51677,4.44417 -2.01538,6.1495 -0.56844,0.67179 -1.08521,1.00769 -1.49862,1.00769 -0.41341,0 -0.62012,0.25838 -0.62012,0.82682 0,0.56844 0.31006,0.8785 0.95602,0.93018 l 0.95601,0.10335 h 13.79762 l 0.95601,-0.10335 c 0.62012,-0.0517 0.95602,-0.36174 0.95602,-0.93018 0,-0.56844 -0.23255,-0.82682 -0.64596,-0.82682 -0.43925,0 -0.93018,-0.3359 -1.47278,-1.00769 -1.52445,-1.70533 -2.01538,-3.43649 -2.01538,-6.1495 V 82.57043 c 0.23254,-0.826823 0.74931,-1.756999 1.55029,-2.790529 0.51677,-0.671794 0.90434,-0.981852 1.2144,-0.930176 0.28422,0.05168 0.43925,-0.155029 0.49093,-0.594279 0.0517,-0.671794 -0.43925,-0.697633 -0.98186,-0.800985 z m 2.99723,2.687176 c -0.18087,-0.258383 -0.10335,-0.387574 0.23255,-0.335897 0.41341,0.129191 1.00769,1.524455 1.05936,2.067058 v 31.781022 c -0.2067,0.77515 -0.41341,1.16272 -0.64595,1.18856 -0.23255,0.0258 -0.25838,-0.36173 -0.0775,-1.18856 V 82.027828 c -0.18086,-1.136883 -0.15503,-0.904339 -0.56844,-1.886191 z"
         id="path46" /><path
         style="font-size:52.9167px;line-height:0px;font-family:'Festival Budaya XXXI';-inkscape-font-specification:'Festival Budaya XXXI, Normal';text-align:center;letter-spacing:0px;word-spacing:0.0132292px;text-anchor:middle;opacity:0.5;stroke-width:1.32292;stroke-linecap:round;stroke-linejoin:round;stroke-miterlimit:4.7"
         d="m 40.879973,77.506137 -0.103353,-0.02584 h -0.310059 l -12.454028,-0.02584 -0.516765,0.103352 c -0.594279,0.129192 -0.568441,1.421103 0.05168,1.291912 0.310059,-0.05168 0.697632,0.258382 1.214397,0.930176 0.800985,1.085206 1.31775,2.015382 1.524456,2.790529 v 27.466044 c 0,2.73885 -0.465089,4.41834 -1.989544,6.17534 -0.568441,0.67179 -1.059368,0.98185 -1.47278,0.98185 -0.413411,0 -0.645955,0.28422 -0.645955,0.82682 0,0.56845 0.335897,0.90434 0.956014,0.95602 l 0.956015,0.0775 h 12.376513 c 0.258382,0.0258 0.335897,0.0258 0.335897,0.0258 h 0.413412 c 0.697632,0 0.155029,0.0258 0.826823,0.0258 h 2.04122 c 0.516765,0 1.472779,-0.0258 2.91972,-0.0775 9.50847,-0.38758 15.167042,-4.75424 18.112601,-12.04062 1.834514,-4.47001 2.067058,-9.534312 0.594279,-14.3919 -1.16272,-3.79822 -3.100588,-7.338057 -5.477705,-9.482631 -2.532147,-2.247926 -5.891117,-4.030764 -9.63766,-4.857587 -2.6355,-0.516765 -6.588749,-0.749309 -9.430955,-0.749309 z m 0.413411,6.252852 3.927411,0.206706 c 2.6355,0.129191 4.883426,1.31775 6.795455,3.565676 1.240235,1.498617 1.834515,2.428794 2.713015,4.030764 1.317749,2.48047 1.860352,5.787764 1.369426,9.405115 -0.981853,7.77731 -4.263308,10.98125 -12.557381,11.26547 -1.498617,0.0775 -1.240235,0.0775 -2.583823,0.0775 H 39.665576 V 83.758989 h 1.524455 z M 30.518842,79.831578 c -0.129192,-0.258382 -0.05168,-0.361735 0.232544,-0.335897 0.43925,0.129191 1.498617,2.015382 1.550294,2.532147 v 31.936052 c -0.206706,0.74931 -0.413412,1.13688 -0.645956,1.16272 -0.232544,0.0258 -0.258383,-0.36173 -0.103353,-1.16272 V 82.182857 C 31.42318,81.097651 30.932253,80.761754 30.518842,79.831578 Z m 19.921276,4.599205 c -0.568441,-0.413412 -0.361735,-0.413412 0.645956,0 1.007691,0.465088 1.937867,1.085206 2.790529,1.860353 1.731162,1.757 3.333132,4.418337 4.263308,7.260543 1.343588,4.211632 0.516765,10.955411 -1.343588,13.952641 -1.007691,1.60197 -2.893882,3.514 -4.108279,4.34083 -0.335897,0.23254 -0.542602,0.31006 -0.620117,0.23254 -0.258383,-0.23254 2.635499,-2.91972 2.945558,-3.30729 2.015382,-2.32544 2.997235,-6.35621 2.997235,-10.516163 0,-2.144573 -0.387573,-4.211632 -1.214397,-6.175337 -1.136882,-2.713015 -2.91972,-5.167647 -5.141808,-6.743779 -0.568441,-0.413411 -0.981853,-0.697632 -1.214397,-0.904338 z"
         id="path47" /></g><text
       xml:space="preserve"
       style="font-style:normal;font-variant:normal;font-weight:normal;font-stretch:normal;font-size:8.81879px;line-height:0px;font-family:'Festival Budaya XXXI';-inkscape-font-specification:'Festival Budaya XXXI, Normal';font-variant-ligatures:normal;font-variant-caps:normal;font-variant-numeric:normal;font-variant-east-asian:normal;text-align:center;letter-spacing:0px;word-spacing:0.0022047px;writing-mode:lr-tb;direction:ltr;text-anchor:middle;opacity:0.5;fill:#000000;stroke:none;stroke-width:3.96876;stroke-linecap:square;stroke-linejoin:miter;stroke-miterlimit:4.7;stroke-dasharray:none"
       x="70.391014"
       y="296.68887"
       id="text51"><tspan
         sodipodi:role="line"
         id="tspan51"
         style="stroke-width:3.96876"
         x="70.391014"
         y="296.68887">FONT FAMILY: Festival Budaya</tspan></text><g
       id="g31"
       transform="translate(-0.41126225,-0.2416285)"><path
         style="font-size:52.9167px;line-height:0px;font-family:'Festival Budaya XXXI';-inkscape-font-specification:'Festival Budaya XXXI, Normal';text-align:center;letter-spacing:0px;word-spacing:0.0132292px;text-anchor:middle;stroke-width:1.91154;stroke-linecap:round;stroke-linejoin:round;stroke-miterlimit:4.7"
         d="M 223.59723,133.38133 H 210.8361 l -0.57741,0.11165 c -0.75065,0.11165 -0.69291,1.50746 0.0289,1.3958 0.34645,-0.0558 0.8084,0.27916 1.38583,1.00497 0.89501,1.2004 1.47243,2.20537 1.7034,3.01493 v 29.7027 c 0,2.9591 -0.57743,4.77366 -2.25196,6.64402 -0.63516,0.72582 -1.21259,1.08872 -1.67453,1.08872 -0.46195,0 -0.69293,0.27918 -0.69293,0.89332 0,0.61416 0.34646,0.94915 1.06825,1.00498 l 1.06824,0.11165 h 11.92384 l 1.06825,-0.0836 c 0.6929,-0.0559 1.06823,-0.41877 1.06823,-1.03292 -0.0287,-0.58622 -0.28871,-0.8933 -0.75064,-0.8933 -0.46195,0 -1.01051,-0.36292 -1.64567,-1.08873 -0.75066,-0.80956 -1.29921,-1.70287 -1.64566,-2.67995 l 0.0287,-24.48237 14.60888,28.47436 c 0.34645,0.64208 0.60628,1.08875 0.83725,1.36791 0.20211,0.27915 0.6063,0.44665 1.21261,0.44665 h 12.7611 l 0.57743,-0.11165 c 0.72178,-0.13958 0.63517,-1.47955 -0.0578,-1.3679 -0.89499,0.1675 -2.45405,-2.54037 -2.74276,-3.23826 l 0.0288,-33.66678 c 0.2887,-1.25622 0.92387,-2.42869 1.90549,-3.51741 0.63517,-0.66999 1.18373,-1.0329 1.64566,-1.0329 0.46194,0 0.72179,-0.30708 0.72179,-0.92123 0,-0.61416 -0.37533,-0.94915 -1.06824,-1.03289 l -1.03936,-0.11165 h -11.95272 l -1.06825,0.11165 c -0.69289,0.0838 -1.03936,0.41873 -1.03936,1.00497 0,0.61415 0.23097,0.92123 0.69291,0.92123 0.46194,0 1.03936,0.36291 1.67453,1.06082 0.98163,1.17246 1.64567,2.45661 1.96325,3.79658 v 23.36574 l -15.09942,-29.39567 c -0.31756,-0.58624 -0.95274,-0.8654 -1.9055,-0.8654 z m -2.42519,12.61805 c -0.34646,-0.16748 -0.31759,-0.33498 0.0865,-0.44665 0.51968,-0.13958 1.84775,1.17247 2.07873,1.50747 l 14.4934,28.41856 c 0.0578,0.27916 0.23097,0.47456 0.51968,0.61416 0.2887,0.13958 0.31759,0.33498 0.0866,0.55831 -0.4042,0.41873 -1.32807,-0.67 -1.35695,-0.8375 l -14.40674,-28.27896 c -0.72179,-1.00497 -0.57743,-0.78165 -1.50131,-1.53539 z m -7.16008,-9.46354 c -0.20211,-0.30707 -0.11541,-0.41873 0.25984,-0.3629 0.46196,0.11165 1.12598,1.61912 1.18372,2.23328 v 34.33675 c -0.23096,0.80958 -0.49081,1.22831 -0.75065,1.25623 -0.25985,0 -0.2887,-0.41874 -0.0578,-1.25623 v -34.16925 c -0.20209,-1.25622 -0.17323,-1.00498 -0.63516,-2.03788 z m 27.22564,0.72582 c -0.11541,-0.27916 -0.0288,-0.41874 0.2887,-0.3629 0.43308,0.13958 1.12599,1.67496 1.18373,2.23327 l -0.0287,25.40363 c -0.23096,0.78165 -0.46193,1.20038 -0.72178,1.2283 -0.25984,0.0279 -0.28872,-0.39082 -0.0866,-1.2283 v -25.26405 c -0.2021,-1.2283 -0.17324,-0.97705 -0.63518,-2.00995 z"
         id="path39" /><path
         style="font-size:52.9167px;line-height:0px;font-family:'Festival Budaya XXXI';-inkscape-font-specification:'Festival Budaya XXXI, Normal';text-align:center;letter-spacing:0px;word-spacing:0.0132292px;text-anchor:middle;stroke-width:1.91154;stroke-linecap:round;stroke-linejoin:round;stroke-miterlimit:4.7"
         d="m 194.7743,182.65319 c 5.86086,0.80955 9.12333,1.36788 14.43565,3.23825 0.66403,0.13958 1.15485,0 1.12597,-0.64207 -0.0578,-0.47456 -0.25983,-0.72581 -0.57742,-0.75373 -0.34645,-0.0279 -0.77953,-0.47457 -1.35696,-1.33997 -1.35695,-2.00996 -2.22308,-3.79658 -2.59841,-5.35988 -0.37532,-1.53539 -0.54855,-2.81952 -0.54855,-3.85242 0,-3.82451 0.0287,-7.64899 0.0287,-11.50141 0.25984,-0.89332 0.83728,-1.92622 1.76115,-3.09868 0.57742,-0.72583 1.01049,-1.06083 1.35695,-1.00499 0.34646,0.0559 0.51968,-0.13958 0.57742,-0.64207 0.0578,-0.72582 -0.49082,-0.75374 -1.0971,-0.89332 h -18.47765 l -0.60629,0.11165 c -0.40419,0.0838 -0.54856,0.335 -0.49081,0.78166 0,0.50249 0.54857,0.83748 1.6168,1.0329 1.03937,0.22333 1.93437,0.61416 2.62728,1.17247 0.66404,0.64207 1.8189,2.06579 2.04986,3.18243 v 6.00195 c -2.28084,1.81454 -4.96585,2.70787 -8.05508,2.70787 -3.00262,0 -5.86088,-1.53539 -8.57478,-4.66198 -2.71391,-3.12661 -4.07086,-6.89527 -4.07086,-11.30602 0,-4.41073 1.35695,-8.1794 4.09972,-11.306 2.74278,-3.1266 5.60104,-4.6899 8.54592,-4.6899 2.07873,0 3.811,0.58623 5.16795,1.75871 2.48293,2.14954 4.38845,5.10864 6.26509,7.62109 0.86613,1.17247 1.87662,1.73079 3.03147,1.73079 h 3.81102 v -15.24216 l -0.1154,-1.11665 c -0.0866,-0.75372 -0.46195,-1.14456 -1.15486,-1.14456 -0.69292,0.0279 -1.03937,0.27917 -1.03937,0.78165 0,0.50249 -0.40421,1.0608 -1.18373,1.7308 -0.89499,0.78165 -1.90549,1.36789 -3.06036,1.75871 -3.08922,-2.70785 -7.21782,-4.49448 -13.02094,-4.49448 -5.88975,0 -11.34644,2.12161 -16.37004,6.33694 -5.0236,4.21532 -7.47766,9.63104 -7.39106,16.27506 0.0578,6.64404 2.54069,12.08766 7.44882,16.27508 4.9081,4.1874 10.33591,6.28109 16.31228,6.28109 3.46455,0 6.49603,-0.53039 9.09446,-1.59119 -0.31759,1.47954 -1.0105,3.322 -2.42519,3.57325 -0.54856,0.0837 -0.86615,0.58624 -0.86615,1.11665 -0.23096,1.28413 2.07874,0.97705 3.32021,1.14455 0.11541,0 0.25983,0.0279 0.4042,0.0279 z m -22.20204,-42.99074 c -1.6168,1.20039 -2.85825,2.37287 -3.7244,3.54533 -2.48292,3.32202 -5.05248,8.45858 -4.53279,13.95803 0.28873,3.68493 2.51182,8.82149 5.13909,11.80851 1.38582,1.61912 2.48293,3.15451 4.41731,4.07573 1.0105,0.5025 1.73227,0.89332 2.13648,1.22831 0.72178,0.58624 0.60631,0.94914 -0.49081,0.41874 -1.03937,-0.47457 -2.28084,-1.20038 -3.66666,-2.14955 -1.38582,-0.94913 -2.62729,-2.17745 -3.66665,-3.62908 -2.54067,-3.40574 -4.96586,-7.81649 -5.08136,-13.12055 -0.14435,-4.80156 3.23359,-11.36183 5.74539,-14.04178 0.63518,-0.69789 1.76114,-1.61913 3.37795,-2.79161 2.39631,-1.75869 2.56954,-1.87037 4.35956,-2.59618 0.4042,-0.1675 0.51969,-0.1675 0.37532,0 -0.0578,0.0558 -0.17322,0.13958 -0.34643,0.25123 -1.18373,0.80958 -2.19423,1.64706 -4.042,3.04287 z m 24.28076,26.18527 c 0,1.20038 -0.0288,2.12161 -0.0288,2.73577 0,0.19542 -0.34647,0.94914 -0.54857,0.94914 -0.23096,0 -0.34645,-0.75372 -0.2887,-0.94914 v -2.73577 c 0,-1.64706 -0.0865,-2.65203 -0.37534,-3.93618 h -0.0289 c -0.25983,-0.92122 -0.86613,-1.78662 -1.44356,-2.37286 -0.34645,-0.3629 -0.49081,-0.61415 -0.40419,-0.78165 0.23097,-0.22332 0.63517,-0.0559 1.24147,0.55833 0.69291,0.78165 1.03936,1.2562 1.44356,2.34493 v 0.0279 c 0.34645,1.2283 0.43308,2.42868 0.43308,4.15949 z"
         id="path38" /><path
         style="font-size:52.9167px;line-height:0px;font-family:'Festival Budaya XXXI';-inkscape-font-specification:'Festival Budaya XXXI, Normal';text-align:center;letter-spacing:0px;word-spacing:0.0132292px;text-anchor:middle;stroke-width:1.91154;stroke-linecap:round;stroke-linejoin:round;stroke-miterlimit:4.7"
         d="m 48.839755,133.43716 -0.115481,-0.0279 h -0.346455 l -13.915968,-0.0279 -0.577426,0.11165 c -0.66404,0.13958 -0.635168,1.53537 0.05774,1.39579 0.346456,-0.0558 0.779524,0.27916 1.35695,1.00498 0.895011,1.17248 1.472437,2.17745 1.703408,3.01494 v 29.67478 c 0,2.95909 -0.519685,4.77365 -2.22309,6.67193 -0.63517,0.72582 -1.183723,1.06081 -1.645665,1.06081 -0.46194,0 -0.721782,0.30709 -0.721782,0.89332 0,0.61416 0.375327,0.97705 1.068237,1.0329 l 1.068239,0.0838 h 13.829353 c 0.288713,0.0279 0.375327,0.0279 0.375327,0.0279 h 0.461942 c 0.779524,0 0.173227,0.0279 0.923881,0.0279 h 2.280831 c 0.577428,0 1.645664,-0.0279 3.262458,-0.0837 10.624644,-0.41874 16.947454,-5.13656 20.238774,-13.0089 2.04988,-4.82946 2.30971,-10.30101 0.66405,-15.54925 -1.29921,-4.10364 -3.46455,-7.92815 -6.12072,-10.24518 -2.82938,-2.4287 -6.582654,-4.35492 -10.768993,-5.24823 -2.944873,-0.55833 -7.362181,-0.80956 -10.538024,-0.80956 z m 0.461941,6.75568 4.388437,0.22334 c 2.944874,0.13958 5.456676,1.42372 7.593152,3.85241 1.385822,1.61914 2.049864,2.62411 3.031488,4.3549 1.472435,2.67995 2.078735,6.25321 1.530175,10.16146 -1.097107,8.40273 -4.763761,11.86433 -14.031449,12.17141 -1.674534,0.0836 -1.385823,0.0836 -2.887132,0.0836 h -1.443563 v -30.84722 h 1.703406 z m -12.039333,-4.24323 c -0.14435,-0.27917 -0.05774,-0.39083 0.259842,-0.36291 0.490813,0.13958 1.674535,2.17745 1.732278,2.73577 v 34.50426 c -0.23097,0.80955 -0.461941,1.2283 -0.721782,1.25622 -0.259842,0.0279 -0.288713,-0.39082 -0.11548,-1.25622 v -34.33676 c -0.144351,-1.17247 -0.692911,-1.53539 -1.154852,-2.54036 z m 22.259773,4.96906 c -0.635168,-0.44666 -0.404197,-0.44666 0.721782,0 1.125981,0.50249 2.165348,1.17247 3.118102,2.00995 1.934377,1.89831 3.724398,4.77365 4.763768,7.84443 1.5013,4.55031 0.57742,11.8364 -1.50131,15.07467 -1.125984,1.73077 -3.233587,3.79658 -4.590539,4.68988 -0.375327,0.25126 -0.606297,0.335 -0.69291,0.25126 -0.288715,-0.25126 2.94487,-3.15453 3.291328,-3.57326 2.251961,-2.51245 3.349071,-6.86736 3.349071,-11.36184 0,-2.31703 -0.43307,-4.55032 -1.35695,-6.67193 -1.270339,-2.93121 -3.262458,-5.58323 -5.74539,-7.28609 -0.63517,-0.44668 -1.09711,-0.75374 -1.356952,-0.97707 z"
         id="text1" /><path
         id="path15"
         style="font-size:52.9167px;line-height:0px;font-family:'Festival Budaya XXXI';-inkscape-font-specification:'Festival Budaya XXXI, Normal';text-align:center;letter-spacing:0px;word-spacing:0.0132292px;text-anchor:middle;stroke-width:1.91154;stroke-linecap:round;stroke-linejoin:round;stroke-miterlimit:4.7"
         d="m 145.23954,133.38116 -0.57794,0.11201 c -0.72176,0.11165 -0.66383,1.47933 0.0292,1.39557 0.34645,-0.0558 0.80845,0.27925 1.38588,1.00506 0.86613,1.11664 1.44361,2.12186 1.73233,3.01518 v 28.38047 c 0.49851,0.65658 0.97022,1.32193 1.41499,1.99667 v -30.9633 c -0.20209,-1.22832 -0.1735,-0.97768 -0.63544,-2.0385 -0.17684,-0.24426 -0.13307,-0.38171 0.13222,-0.37483 0.0378,9.8e-4 0.0807,0.005 0.12772,0.0121 0.46196,0.13958 1.1258,1.64714 1.18353,2.23337 v 32.41637 c 1.48852,2.48636 2.62142,5.09116 3.38999,7.81121 h 7.32137 l 1.06853,-0.11201 c 0.69291,-0.0559 1.06777,-0.39089 1.06777,-1.00506 0,-0.61414 -0.25936,-0.89304 -0.7213,-0.89304 -0.49081,0 -1.03943,-0.36289 -1.64573,-1.0887 -1.70339,-1.84246 -2.25204,-3.71292 -2.25204,-6.6441 v -29.73052 c 0.25984,-0.8933 0.83733,-1.89853 1.73234,-3.01517 0.57743,-0.72581 1.01029,-1.06088 1.35675,-1.00505 0.31759,0.0558 0.49108,-0.16758 0.54883,-0.64216 0.0578,-0.72582 -0.49135,-0.75376 -1.09765,-0.86542 z" /><path
         id="path13"
         style="font-size:52.9167px;line-height:0px;font-family:'Festival Budaya XXXI';-inkscape-font-specification:'Festival Budaya XXXI, Normal';text-align:center;letter-spacing:0px;word-spacing:0.0132292px;text-anchor:middle;stroke-width:1.91154;stroke-linecap:round;stroke-linejoin:round;stroke-miterlimit:4.7"
         d="m 126.12632,131.53907 c -3.06036,0.16747 -5.86093,1.14416 -8.37272,2.93079 -3.69554,2.62411 -5.54273,6.14142 -5.54273,10.49631 0.0578,5.16447 2.48288,8.54237 5.60098,11.78065 1.50131,1.5633 4.41712,3.90879 8.77668,7.03539 l 0.75043,0.53016 c 1.64568,1.25622 3.2915,2.54044 4.93717,3.82457 3.49341,2.76369 5.60105,5.13682 7.67977,9.51966 1.03937,2.23327 1.58749,4.77318 1.58749,7.56479 -0.0578,2.51245 -0.80772,5.16475 -2.25129,7.92843 -2.91601,5.55529 -6.35189,7.98363 -13.22327,9.79817 -5.25457,1.2283 -10.07609,1.06075 -14.4934,-0.50252 -4.15746,-1.56333 -7.04489,-4.57817 -8.6617,-9.04474 -1.38581,-4.01993 -0.98135,-8.15105 1.15514,-12.33845 1.73228,-3.51742 4.27296,-6.00219 7.67978,-7.4259 2.36745,-0.94915 4.90839,-1.03282 7.62229,-0.22327 3.95538,1.1725 6.23593,3.54503 6.87112,7.11827 0.54854,3.85243 -0.95291,6.39278 -4.50408,7.59317 l -1.09689,0.30765 -0.28899,-1.06107 c -0.34645,-1.06081 -1.15443,-1.61902 -2.45364,-1.67485 -1.61679,-0.11165 -2.56989,0.89307 -2.62763,2.48428 -0.0578,1.64704 1.09699,2.67975 3.52218,3.12642 1.03937,0.16749 2.10795,0.16759 3.23394,0.056 3.08922,-0.39082 5.31206,-1.92643 6.69787,-4.60638 0.40421,-0.83748 0.77982,-2.03727 1.06853,-3.60058 0.28872,-1.56329 0.17298,-3.21084 -0.37558,-4.94165 -0.75065,-2.28911 -2.396,-4.24317 -4.96553,-5.86232 -2.71392,-1.67495 -5.77459,-2.51247 -9.18141,-2.45663 -3.29134,0.11165 -5.97664,0.89345 -8.05536,2.373 -1.84777,1.28414 -4.5034,3.90833 -5.80261,5.7787 -2.598422,3.60117 -3.840212,9.15636 -2.714232,14.90707 0.69291,3.29409 2.425122,6.42089 5.254512,9.38 4.59053,4.57824 10.65339,7.14613 18.1888,7.70445 5.08136,0.30709 9.78762,-0.30673 14.08944,-1.84212 2.25197,-0.83749 4.73515,-2.31675 7.44905,-4.43837 3.69553,-3.12661 6.35172,-6.64454 8.02626,-10.5807 1.53017,-3.93616 1.73179,-8.31912 0.63469,-13.1486 -1.7034,-7.20236 -6.00494,-13.59466 -12.90518,-19.2058 l -6.00493,-4.77365 c -3.63778,-2.81953 -6.46771,-5.10895 -8.43097,-6.83975 -4.64828,-4.1874 -6.06312,-7.70488 -4.24423,-10.55233 0.40421,-0.64206 1.12653,-1.31145 2.13704,-2.00935 2.3097,-1.61915 6.14962,-1.03361 8.1995,0.50176 l 0.86617,0.67055 -0.69293,0.83704 c -0.43309,0.44665 -0.63545,0.97724 -0.63545,1.64722 0,1.17247 0.54887,2.01016 1.67484,2.51263 1.09712,0.5025 2.13608,0.5579 3.05996,0.11129 0.4042,-0.19542 0.80845,-0.80951 1.21264,-1.81448 0.69292,-1.70288 0.46167,-3.43382 -0.63544,-5.19253 -2.1076,-3.09869 -5.3699,-4.54987 -9.81608,-4.38237 z m -10.90926,7.54388 c 8.6e-4,0 0.002,6e-4 0.002,7.4e-4 3.7e-4,9e-5 0.001,6.2e-4 0.002,7.5e-4 3.5e-4,1.6e-4 0.001,5.4e-4 0.002,7.5e-4 l 7.6e-4,7.4e-4 7.5e-4,7.5e-4 c 0.0339,0.0337 -0.0383,0.28881 -0.18594,0.74296 -0.92387,2.40078 -0.80838,5.33226 0.34648,8.79385 0.46195,1.39581 1.35656,2.84746 2.71349,4.41075 1.32809,1.56331 3.2338,3.32205 5.71673,5.27618 4.30182,3.40577 8.45897,6.4206 12.21223,9.77054 3.06036,2.65202 5.08182,5.10841 6.09231,7.39752 1.03938,2.28911 1.76122,5.05306 2.16542,8.29133 0.17322,1.36788 0.11504,2.76375 -0.14486,4.18747 -0.5197,3.09869 -2.85768,7.62097 -4.67656,9.63092 -1.03936,1.17248 -1.87722,1.98219 -2.48353,2.373 -1.47243,0.94915 -0.77923,0.11153 0.11578,-0.7818 2.3963,-2.37287 3.37786,-4.10358 5.25451,-8.17932 1.64566,-3.57325 1.38581,-7.5655 0.17323,-11.83665 -1.32809,-4.82948 -4.18613,-7.98408 -7.8239,-11.05485 -1.58795,-1.33996 -4.53285,-3.65677 -8.80581,-6.89502 -4.96586,-3.74076 -8.19928,-6.70004 -9.72947,-8.87749 -1.0971,-1.59122 -1.84809,-3.32185 -2.19454,-5.22014 -0.60631,-2.98702 -0.37555,-5.38781 0.66382,-7.23028 0.34646,-0.54437 0.52753,-0.8027 0.58166,-0.8027 z" /><path
         id="path37"
         style="font-size:52.9167px;line-height:0px;font-family:'Festival Budaya XXXI';-inkscape-font-specification:'Festival Budaya XXXI, Normal';text-align:center;letter-spacing:0px;word-spacing:0.0132292px;text-anchor:middle;stroke-width:1.91154;stroke-linecap:round;stroke-linejoin:round;stroke-miterlimit:4.7"
         d="m 77.853808,133.38116 -0.60631,0.11201 c -0.72179,0.13959 -0.63567,1.53517 0.0284,1.39557 0.34645,-0.0558 0.78006,0.27925 1.35749,1.00506 0.86614,1.14456 1.44363,2.14977 1.73233,3.01518 v 29.7305 c 0,2.93119 -0.52025,4.77373 -2.22366,6.64411 -0.63517,0.72581 -1.18303,1.08869 -1.64497,1.08869 -0.46194,0 -0.72205,0.27891 -0.72205,0.89306 0,0.61416 0.37485,0.94921 1.06777,1.00505 l 1.06852,0.11201 h 12.9343 l 8.61614,-0.013 c 0.23938,-0.40383 0.49301,-0.79275 0.760882,-1.16484 1.46424,-2.10468 4.0774,-4.68307 6.14682,-6.12441 h 7.5e-4 c 9.4e-4,-4.6e-4 0.002,-0.001 0.005,-0.001 l 7.4e-4,-7.4e-4 h 7.5e-4 c 0.0167,-0.0121 0.0332,-0.0247 0.0499,-0.0365 l -15.579832,0.0269 v -13.84677 h 12.443712 l -0.72206,-6.64412 -11.721652,-0.0276 v -9.85416 h 15.272942 c 0.63518,0.41875 1.84759,1.36782 1.78985,1.81447 -0.0578,0.33499 0.17347,0.50224 0.63542,0.53016 0.46193,0.0558 0.75094,-0.0841 0.80868,-0.4749 l 0.0866,-0.58617 -0.95279,-8.59822 h -23.241702 -4.85055 z m 3.52816,2.75233 c 0.0467,-0.002 0.10232,7.3e-4 0.16725,0.0121 0.46193,0.1675 1.15513,1.64741 1.15513,2.20575 l 0.0284,33.6671 c -0.20211,0.80957 -0.43311,1.22757 -0.69295,1.22757 -0.25985,0.0279 -0.28825,-0.3901 -0.11504,-1.22757 v -33.52747 c -0.20209,-1.17247 -0.17348,-0.89372 -0.63542,-1.98247 -0.14075,-0.2268 -0.10971,-0.36152 0.0926,-0.37409 z"
         sodipodi:nodetypes="cccccscssccccccccccccccccccccscccccscccccccs" /><path
         style="fill:none;stroke:#000000;stroke-width:5.73464;stroke-linecap:square;stroke-linejoin:miter;stroke-miterlimit:4.7;stroke-dasharray:none"
         d="m 63.8383,188.3075 v 20.27136 c 23.841108,7.62378 51.05021,11.64691 78.77064,11.64699 27.72015,-1.5e-4 54.92896,-4.02328 78.76985,-11.64699 V 188.3075"
         id="path53"
         sodipodi:nodetypes="ccccc" /><path
         style="fill:none;stroke:#000000;stroke-width:5.73464;stroke-linecap:square;stroke-linejoin:miter;stroke-miterlimit:4.7;stroke-dasharray:none"
         d="M 221.37879,124.26741 V 77.107989 c -23.84089,-7.266067 -51.0497,-11.100457 -78.76985,-11.100607 -27.72043,8e-5 -54.929532,3.834472 -78.77064,11.100607 v 47.159421"
         id="path5" /><path
         style="fill:none;stroke:#000000;stroke-width:3.82309;stroke-linecap:square;stroke-linejoin:miter;stroke-miterlimit:4.7;stroke-dasharray:none"
         d="m 55.487233,188.3075 v 27.85109 c 26.368785,8.43084 56.462497,12.87982 87.121707,12.87978 30.65917,1e-5 60.7529,-4.44894 87.12167,-12.87978 V 188.3075"
         id="path1"
         sodipodi:nodetypes="ccscc" /><path
         style="fill:none;stroke:#000000;stroke-width:3.82309;stroke-linecap:square;stroke-linejoin:miter;stroke-miterlimit:4.7;stroke-dasharray:none"
         d="M 229.73061,125.22319 V 69.72257 C 203.36184,61.522179 173.26811,57.194835 142.60894,57.194857 111.94973,57.194834 81.856018,61.522178 55.487233,69.72257 v 55.50062"
         id="path6" /><rect
         style="fill:#000000;stroke:none;stroke-width:5.73462;stroke-linecap:square;stroke-linejoin:miter;stroke-miterlimit:4.7;stroke-dasharray:none"
         id="rect48"
         width="223.51541"
         height="6.266325"
         x="31.528542"
         y="121.13426" /><rect
         style="fill:#000000;stroke:none;stroke-width:5.73464;stroke-linecap:square;stroke-linejoin:miter;stroke-miterlimit:4.7;stroke-dasharray:none"
         id="rect49"
         width="12.564677"
         height="3.8230917"
         x="41.011017"
         y="113.47743" /><path
         style="fill:#000000;stroke:none;stroke-width:5.73462;stroke-linecap:square;stroke-linejoin:miter;stroke-miterlimit:4.7;stroke-dasharray:none"
         d="m 154.48367,185.24901 c 0.0506,1.98215 -0.13772,3.89683 -0.57124,5.73465 h 101.13123 v -5.73465 z"
         id="path26" /><path
         style="fill:#000000;stroke:none;stroke-width:5.73462;stroke-linecap:square;stroke-linejoin:miter;stroke-miterlimit:4.7;stroke-dasharray:none"
         d="m 31.528694,185.24901 v 5.73465 h 65.406974 c -0.19671,-1.97583 -0.14002,-3.90732 0.13885,-5.73465 z"
         id="rect50" /><rect
         style="fill:#000000;stroke:none;stroke-width:5.73464;stroke-linecap:square;stroke-linejoin:miter;stroke-miterlimit:4.7;stroke-dasharray:none"
         id="rect51"
         width="12.564673"
         height="3.8230917"
         x="41.011017"
         y="-198.90663"
         transform="scale(1,-1)" /><rect
         style="fill:#000000;stroke:none;stroke-width:5.73464;stroke-linecap:square;stroke-linejoin:miter;stroke-miterlimit:4.7;stroke-dasharray:none"
         id="rect4"
         width="14.097277"
         height="3.8230917"
         x="231.64217"
         y="113.47743" /><rect
         style="fill:#000000;stroke:none;stroke-width:5.73464;stroke-linecap:square;stroke-linejoin:miter;stroke-miterlimit:4.7;stroke-dasharray:none"
         id="rect5"
         width="14.097272"
         height="3.8230917"
         x="231.64217"
         y="-198.90663"
         transform="scale(1,-1)" /><text
         xml:space="preserve"
         style="font-size:17.3821px;line-height:0px;font-family:'Festival Budaya XXXI';-inkscape-font-specification:'Festival Budaya XXXI, Normal';text-align:center;letter-spacing:0px;word-spacing:0.00434555px;writing-mode:lr-tb;direction:ltr;text-anchor:middle;fill:#000000;stroke:none;stroke-width:4.58773;stroke-linecap:square;stroke-miterlimit:4.7;stroke-dasharray:none"
         x="142.57036"
         y="113.06651"
         id="text26"><tspan
           sodipodi:role="line"
           id="tspan26"
           style="fill:#000000;stroke-width:4.58773"
           x="145.54311"
           y="113.06651">VINTAGE logo </tspan></text><g
         id="g30"
         transform="matrix(1.4449482,0,0,1.4449482,-63.838031,-25.36451)"><path
           sodipodi:type="star"
           style="opacity:1;fill:#000000;stroke:none;stroke-width:10.1288;stroke-linecap:square;stroke-miterlimit:4.7;stroke-dasharray:none"
           id="path27"
           inkscape:flatsided="false"
           sodipodi:sides="5"
           sodipodi:cx="105.80084"
           sodipodi:cy="19.357046"
           sodipodi:r1="18.202955"
           sodipodi:r2="9.1014776"
           sodipodi:arg1="0.57790194"
           sodipodi:arg2="1.2062205"
           inkscape:rounded="0"
           inkscape:randomized="0"
           d="M 121.04783,29.300734 109.046,27.86033 101.05541,36.930562 98.716548,25.071035 87.621017,20.274388 98.177348,14.385202 99.310523,2.3504787 108.17356,10.570288 119.96943,7.9290672 114.89076,18.898375 Z"
           inkscape:transform-center-x="-0.036036956"
           inkscape:transform-center-y="-0.7334405"
           transform="matrix(0.29120726,0.11600151,-0.11600151,0.29120726,114.28462,57.979436)" /><path
           sodipodi:type="star"
           style="opacity:1;fill:#000000;stroke:none;stroke-width:13.9171;stroke-linecap:square;stroke-miterlimit:4.7;stroke-dasharray:none"
           id="path28"
           inkscape:flatsided="false"
           sodipodi:sides="5"
           sodipodi:cx="105.80084"
           sodipodi:cy="19.357046"
           sodipodi:r1="18.202955"
           sodipodi:r2="9.1014776"
           sodipodi:arg1="0.57790194"
           sodipodi:arg2="1.2062205"
           inkscape:rounded="0"
           inkscape:randomized="0"
           d="M 121.04783,29.300734 109.046,27.86033 101.05541,36.930562 98.716548,25.071035 87.621017,20.274388 98.177348,14.385202 99.310523,2.3504787 108.17356,10.570288 119.96943,7.9290672 114.89076,18.898375 Z"
           inkscape:transform-center-x="-0.0262276"
           inkscape:transform-center-y="-0.53379725"
           transform="matrix(0.21194056,0.08442587,-0.08442587,0.21194056,112.09358,63.84191)" /><path
           sodipodi:type="star"
           style="opacity:1;fill:#000000;stroke:none;stroke-width:13.9171;stroke-linecap:square;stroke-miterlimit:4.7;stroke-dasharray:none"
           id="path29"
           inkscape:flatsided="false"
           sodipodi:sides="5"
           sodipodi:cx="105.80084"
           sodipodi:cy="19.357046"
           sodipodi:r1="18.202955"
           sodipodi:r2="9.1014776"
           sodipodi:arg1="0.57790194"
           sodipodi:arg2="1.2062205"
           inkscape:rounded="0"
           inkscape:randomized="0"
           d="M 121.04783,29.300734 109.046,27.86033 101.05541,36.930562 98.716548,25.071035 87.621017,20.274388 98.177348,14.385202 99.310523,2.3504787 108.17356,10.570288 119.96943,7.9290672 114.89076,18.898375 Z"
           inkscape:transform-center-x="-0.0262276"
           inkscape:transform-center-y="-0.53379725"
           transform="matrix(0.21194056,0.08442587,-0.08442587,0.21194056,132.04014,63.84191)" /></g></g></g></svg>
