<?xml version="1.0" encoding="UTF-8" standalone="no"?>
<!-- Created with Inkscape (http://www.inkscape.org/) -->

<svg
   width="1080"
   height="1080"
   viewBox="0 0 285.74997 285.74997"
   version="1.1"
   id="svg1"
   inkscape:version="1.4.2 (f4327f4, 2025-05-13)"
   sodipodi:docname="61.svg"
   xml:space="preserve"
   xmlns:inkscape="http://www.inkscape.org/namespaces/inkscape"
   xmlns:sodipodi="http://sodipodi.sourceforge.net/DTD/sodipodi-0.dtd"
   xmlns="http://www.w3.org/2000/svg"
   xmlns:svg="http://www.w3.org/2000/svg"><sodipodi:namedview
     id="namedview1"
     pagecolor="#ffffff"
     bordercolor="#000000"
     borderopacity="0.25"
     inkscape:showpageshadow="2"
     inkscape:pageopacity="0.0"
     inkscape:pagecheckerboard="0"
     inkscape:deskcolor="#3c3c3c"
     inkscape:document-units="px"
     inkscape:zoom="1.0122103"
     inkscape:cx="218.82805"
     inkscape:cy="305.76651"
     inkscape:window-width="1920"
     inkscape:window-height="991"
     inkscape:window-x="-9"
     inkscape:window-y="-9"
     inkscape:window-maximized="1"
     inkscape:current-layer="layer1"
     showgrid="true"><inkscape:page
       x="0"
       y="0"
       width="285.74997"
       height="285.74997"
       id="page2"
       margin="0"
       bleed="0" /></sodipodi:namedview><defs
     id="defs1"><inkscape:path-effect
       effect="skeletal"
       id="path-effect23"
       is_visible="true"
       lpeversion="1"
       pattern="#path7"
       copytype="repeated_stretched"
       prop_scale="1"
       scale_y_rel="false"
       spacing="0"
       normal_offset="0"
       tang_offset="0"
       prop_units="false"
       vertical_pattern="false"
       hide_knot="false"
       fuse_tolerance="0" /></defs><g
     inkscape:label="Capa1"
     inkscape:groupmode="layer"
     id="layer1"
     style="display:inline;opacity:1;mix-blend-mode:multiply"><path
       style="fill:none;stroke:#000000;stroke-width:2.64583;stroke-linecap:round;stroke-linejoin:round;stroke-miterlimit:4.7"
       d="m -10.756452,-4.4648831 c -6.864701,8.0087234 -11.280893,18.1685871 -12.48793,29.6169591 0,10e-7 0,2e-6 0,3e-6 -0.67057,10.64704 1.237898,20.308975 4.982876,28.403934 l 2e-6,2e-6 c 0.397702,0.860926 0.808781,1.7127 1.232917,2.55512 m 37.485374,-18.07436 c -0.172095,-0.383816 -0.334601,-0.770156 -0.487138,-1.158779 l 0,0 C 18.751074,33.729282 17.950845,30.82331 18.311486,28.741952 l 0,-1e-6 c 0.0061,-1.920566 1.225745,-4.343632 2.875026,-6.38008 L -5.7020137,-0.57472566 C -11.871769,6.5535311 -15.865666,15.608204 -16.899703,25.700172 c -0.572465,8.578228 0.848248,16.558465 3.68674,23.489806 l 27.17356,-10.802657 c -1.362761,-3.561571 -2.145241,-7.10331 -1.772042,-10.17431 0.11661,-2.108242 0.837195,-4.309926 1.96485,-6.381752 L -6.3289834,10.880902 c -2.4669714,4.653244 -4.0702386,9.838994 -4.6129006,15.333946 -0.307059,4.302955 -0.0065,8.479452 0.790924,12.442623 L 6.5239689,35.182055 C 5.9852847,32.657909 5.780489,30.128323 6.0204372,27.680168 6.124884,26.313988 6.3787035,24.950676 6.7635099,23.611081 L -3.0211959,20.817 c -0.5523286,1.941881 -0.9323742,3.943893 -1.1217508,5.985186 -0.072992,0.927382 -0.1091691,1.851836 -0.110492,2.771826 l 3.50860988,0.01197 M 26.206461,26.697112 c -0.791145,1.072282 -1.474595,2.231644 -1.2897,2.615447 -0.311379,0.719849 0.312697,2.551966 1.129702,4.914478 l 0,10e-7 c 0.103829,0.288739 0.215849,0.57657 0.335736,0.86329 m -43.213624,21.409896 c 7.6401182,14.980816 19.4218414,26.973383 33.522147,34.830534 0.519126,0.233092 1.03397,0.485909 1.542557,0.756892 M 39.635478,56.214152 C 38.325479,55.500888 36.987281,54.834183 35.623066,54.215756 29.047117,50.32487 23.374162,44.543286 20.456787,38.036775 L -11.24243,53.476308 C -4.3346527,67.24272 6.5400318,78.350669 19.535542,85.638475 L 32.80649,59.6686 C 26.636064,56.069946 21.18449,51.038868 17.40766,45.176878 L -1.7721451,57.992574 C 2.8592957,65.006473 8.7384858,71.080165 15.454501,75.955069 l 9.500581,-14.068412 c -3.467521,-2.549321 -6.633677,-5.513995 -9.359667,-8.80668 l -7.6791117,6.61075 c 1.7565844,2.111982 3.6534447,4.104686 5.6701267,5.965242 l 2.302279,-2.636483 m 10.549519,-27.79658 c 2.182527,5.110234 6.85491,9.857107 12.19412,13.093448 1.446709,0.656178 2.865891,1.361566 4.255571,2.114605 M 18.369917,92.160971 c 2.792991,1.50935 5.391082,3.564842 7.46512,5.906983 2.226044,2.465436 4.195537,6.291736 6.419518,10.934646 M 70.231201,91.677521 C 67.270406,85.076842 63.361175,78.163961 57.98357,71.492603 52.909164,65.231723 46.680047,60.049753 39.635478,56.214152 l -18.09076,30.419787 c 3.469446,1.867981 6.648766,4.41598 9.198702,7.376536 2.236447,2.566835 4.17225,5.948303 6.09703,9.835965 L 63.048336,90.873021 C 60.461552,85.646997 57.290892,80.389268 53.246735,75.408273 50.322223,71.820326 46.974449,68.615707 43.28861,65.861584 L 28.94524,84.234415 c 2.364864,1.734789 4.529023,3.745838 6.40728,5.965981 1.505592,1.768163 2.871746,3.771337 4.154267,5.950092 l 14.614661,-8.722145 c -1.668493,-2.782584 -3.532059,-5.49423 -5.646504,-8.075504 -1.200074,-1.462128 -2.479707,-2.854937 -3.830949,-4.172158 l -7.199736,7.27021 c 1.117861,1.076096 2.176535,2.212027 3.168068,3.401523 0.455987,0.545755 0.899469,1.104624 1.331434,1.675554 L 44.74868,85.413674 M 43.260981,50.634648 c 7.619667,4.191729 14.340244,9.822834 19.832574,16.633823 5.84276,7.295493 10.044013,14.651388 13.114794,21.523443 M 32.356646,109.21592 c 0.10662,0.22298 0.213838,0.44781 0.321711,0.67443 2.377616,5.24111 4.68429,11.55311 7.673261,18.61627 l 10e-7,1e-5 c 1.910259,4.85225 4.341789,10.07374 7.559456,15.44665 m 37.033227,-19.25521 c -2.165255,-3.64148 -4.135709,-7.86622 -6.181984,-12.45169 l -10e-7,0 C 76.298435,106.42788 73.871366,99.839844 70.727873,92.801997 70.565327,92.428252 70.399802,92.053393 70.231201,91.677521 L 38.085422,106.42563 c 0.133812,0.28316 0.26787,0.56843 0.40227,0.8557 2.494549,5.51544 4.819605,11.86958 7.728406,18.74271 l 10e-7,0 c 1.514232,3.77344 3.293653,7.70624 5.466421,11.69302 l 26.315448,-12.81377 c -1.725219,-3.19677 -3.314221,-6.65226 -4.895165,-10.26109 -1.858165,-4.38859 -3.645798,-9.06882 -5.65737,-13.91569 l -21.444651,8.88857 c 1.841095,4.44834 3.650344,9.18259 5.722217,14.07774 0.67999,1.66437 1.402074,3.34761 2.177551,5.04045 l 15.641365,-6.87364 c -0.733392,-1.57788 -1.443091,-3.18229 -2.140394,-4.80393 -1.128816,-2.66631 -2.215333,-5.39202 -3.319849,-8.15152 l -9.472238,3.79046 c 0.929554,2.32345 1.867177,4.67205 2.849135,7.03039 l 3.247566,-1.35189 M 76.348274,89.106477 c 0.145058,0.327589 0.287553,0.654056 0.427542,0.979339 3.265228,7.323437 5.711433,13.955344 8.091853,19.576004 l 10e-7,0 c 2.050949,4.5051 3.932421,8.53939 5.909279,11.88507 M 48.095696,144.2603 c 1.084891,1.79672 2.25807,3.60988 3.529409,5.43135 2.439992,5.12334 6.157758,10.04995 11.17761,14.43817 4.835312,4.23264 10.043662,7.39533 15.387477,9.50575 5.674137,2.0742 10.896155,3.39211 15.562623,4.22669 m 6.723075,-41.22436 c -2.758409,-0.37981 -5.002862,-0.84003 -6.626727,-1.66205 -1.369931,-0.59413 -2.529419,-1.23379 -3.240892,-1.93668 l 0,0 c -1.132223,-1.08604 -2.241886,-2.80152 -3.3533,-4.8048 l -10e-7,0 c -0.800504,-1.10397 -1.567073,-2.28574 -2.310668,-3.5363 l -31.320105,16.41365 c 1.059889,1.76627 2.203174,3.53723 3.440815,5.30387 l 2e-6,0 c 2.237146,4.64698 5.556711,9.08331 9.983006,12.96736 4.205691,3.69373 8.795868,6.4712 13.532957,8.35012 3.511609,1.30767 6.883054,2.27974 10.079624,3.0078 l 6.101634,-28.49301 c -1.935183,-0.38654 -3.686853,-0.88128 -5.220298,-1.57581 l -10e-7,0 c -1.955451,-0.81754 -3.711507,-1.82894 -5.030595,-3.05191 l -10e-7,0 c -1.495382,-1.37923 -2.828395,-3.2323 -4.015441,-5.32873 L 62.96903,144.87768 c 1.989225,3.63049 4.672239,7.05659 8.065442,10.04784 l 1e-6,0 c 3.61446,3.18767 7.624156,5.60342 11.791512,7.26495 l 2e-6,0 c 0.342086,0.13017 0.683363,0.25661 1.023783,0.37944 l 6.018214,-15.89541 c -0.218461,-0.0854 -0.435243,-0.1734 -0.650301,-0.2642 -2.545293,-1.0426 -4.90232,-2.4285 -6.833508,-4.17539 l 0,0 c -0.730456,-0.66025 -1.419828,-1.38223 -2.068912,-2.15474 l -7.617276,6.83522 c 0.889298,1.02644 1.850946,2.00465 2.88574,2.9234 1.180138,1.04783 2.425946,1.9978 3.722056,2.85106 l 1.929202,-2.93949 m 9.65497,-28.01314 c 0.66162,1.10885 1.334448,2.1404 2.028356,3.08653 0.900238,1.50735 1.595345,2.71242 2.109632,3.27359 0.05599,0.14183 0.571917,0.38046 1.310202,0.73357 0.961049,0.61336 2.698718,0.93605 5.109575,1.24103 m -7.317843,47.85692 c 3.876097,0.67605 7.361953,1.01945 10.397123,1.18967 6.96907,0.87001 11.86011,0.9665 14.15366,2.08542 0,0 0,1e-5 0,1e-5 0.76358,0.32364 1.27958,0.50873 1.41112,0.60824 m 23.34573,-34.51245 c -3.71555,-2.50113 -7.54009,-4.34492 -11.33096,-5.58659 l 0,0 c -9.20059,-2.88183 -17.24372,-3.65517 -23.60994,-4.11595 l -1e-5,0 c -2.99709,-0.37534 -5.69204,-0.63867 -8.02071,-0.95931 l -5.575615,34.95183 c 3.719414,0.64493 7.151735,0.98496 10.232795,1.18939 l 0,0 c 6.87703,0.80753 12.24932,1.00736 15.59743,2.39545 l 10e-6,0 c 0.7117,0.26953 1.35346,0.5295 1.89797,0.79049 l 13.25016,-26.01763 c -1.89563,-0.97584 -3.8215,-1.77752 -5.75029,-2.41561 -8.18289,-2.62208 -15.76159,-3.29569 -22.21663,-3.81677 0,0 -1e-5,0 -1e-5,0 -0.82756,-0.095 -1.64089,-0.18473 -2.43865,-0.27281 l -2.35223,23.16691 c 0.87774,0.0818 1.73864,0.15298 2.58136,0.21711 6.09827,0.67251 11.41717,0.98049 15.58045,2.2247 l 4.66568,-16.32567 c -5.09471,-1.43699 -10.13863,-2.05785 -14.94327,-2.51429 l -0.98319,10.18321 c 2.46552,0.24182 4.86745,0.49181 7.178,0.84601 l 0.54868,-3.47321 m -16.10391,-27.67039 c 2.04589,0.25434 4.56035,0.50144 7.48294,0.90081 6.2704,0.39573 14.81456,1.27665 25.11302,4.4387 4.21175,1.36784 8.50081,3.4365 12.73032,6.25896 m -26.86618,40.12776 c 0.0182,0.0165 0.0243,0.0304 0.0174,0.0419 0.15515,0.1405 0.51587,0.73556 1.02201,1.4886 l 0,0 c 2.61094,3.77366 5.09041,8.84869 8.12795,14.77469 0,0 0,0 0,0 0.83779,1.7063 1.71171,3.48179 2.63766,5.31697 m 37.31923,-18.67344 c -0.8478,-1.68569 -1.71218,-3.42817 -2.60999,-5.21735 -2.70209,-5.56501 -5.82694,-11.78058 -10.06407,-18.19633 l 0,0 c -2.6265,-4.66466 -6.29165,-8.93121 -10.93531,-12.50307 -0.7224,-0.54416 -1.45012,-1.06238 -2.18207,-1.5551 l -19.77689,29.24663 c 0.1322,0.0917 0.2507,0.18436 0.35439,0.2785 0.84045,0.66439 1.70569,1.82001 2.53556,3.17027 l 0,0 c 2.85922,4.17705 5.43723,9.42622 8.42355,15.2971 0.36859,0.74811 0.74207,1.50608 1.12177,2.27313 l 26.1545,-13.00138 c -0.37473,-0.75178 -0.75236,-1.50973 -1.1342,-2.27305 -2.75152,-5.61819 -5.78127,-11.66571 -9.7788,-17.69217 l 0,0 c -1.19179,-2.10554 -2.61279,-4.11488 -4.2548,-5.98749 l -17.36209,15.5005 c 0.68455,0.8222 1.32292,1.74567 1.90687,2.72989 2.42999,3.57999 4.5995,7.68906 6.8431,12.10867 l 15.27718,-7.57116 c -2.14678,-4.26386 -4.44829,-8.58842 -7.18722,-12.78902 l -8.71034,5.29831 c 1.29873,1.97758 2.51235,4.04629 3.68253,6.17893 l 3.11846,-1.636 m 2.78665,-36.42156 c 0.74716,0.50897 1.4923,1.04157 2.23466,1.59809 5.3571,4.11728 9.54749,8.96741 12.51102,14.25382 l 0,0 c 4.49561,6.8357 7.72304,13.23257 10.37181,18.74019 0.88808,1.76396 1.7331,3.46478 2.55098,5.09292 m -43.05744,22.02539 c 2.19214,4.33421 4.67709,8.9965 7.6625,13.86262 0,0 0,0 0,0 4.02215,6.81657 9.76618,13.94774 17.69088,20.49946 l 0,0 c 2.25757,1.47149 4.58628,2.81734 6.97653,4.03458 m 19.8792,-35.47607 c -0.3688,-0.39266 -0.70367,-0.82175 -0.99428,-1.28407 -2.76355,-1.97402 -5.32307,-5.54177 -8.13733,-9.80922 l 0,0 c -2.01883,-3.19465 -3.91261,-6.82971 -5.89731,-10.77596 l -31.57694,15.91046 c 2.17837,4.31596 4.59516,8.8712 7.46635,13.5365 l 1e-5,1e-5 c 3.83772,6.42737 9.09555,13.01448 16.23225,18.86729 l 0,0 c 0.45107,0.30337 0.90568,0.60083 1.36372,0.89233 l 17.14326,-23.39101 c -0.13722,-0.13374 -0.27209,-0.26994 -0.40449,-0.40855 l 0,0 c -3.52401,-2.64851 -6.55274,-6.7413 -9.54497,-11.38434 l 0,0 c -1.12914,-1.79781 -2.20877,-3.6892 -3.26946,-5.65589 l -20.41139,11.04949 c 1.23496,2.27372 2.5476,4.57031 3.96848,6.87149 2.5654,4.24368 5.68787,8.49438 9.52482,12.44536 l 12.23405,-11.78834 c -2.70098,-2.81677 -5.08289,-6.13615 -7.30313,-9.65142 -0.1708,-0.27341 -0.3403,-0.54817 -0.50857,-0.82423 l -8.71437,5.2979 c 0.18538,0.30563 0.3725,0.61083 0.56144,0.91554 1.19332,1.94298 2.48301,3.86799 3.88777,5.73858 l 2.82229,-2.11075 m 12.5284,-29.14391 c 1.91913,3.81577 3.69224,7.22617 5.52698,10.10695 l 0,0 c 2.62226,3.86227 4.67561,6.86362 6.6188,8.11001 0,0 0,0 0,0 -0.0305,0.28846 -0.0235,0.56029 0.0113,0.81252 m -22.51733,41.39639 c 8.4012,4.20201 17.54929,6.82379 27.03168,7.73789 5.45072,-1.26637 11.12629,-1.88097 16.62905,-1.75298 m 5.84933,-41.94855 c -8.63591,-0.52683 -17.27361,0.46198 -25.50944,2.87423 -1.65686,-0.35474 -3.33643,-1.27669 -4.61095,-2.63372 l -16.68748,30.13912 c 7.38371,3.84352 15.48186,6.25039 23.86672,7.08846 4.99149,-1.22412 10.1647,-1.89327 15.27506,-1.9516 l 3.04133,-29.45271 c -6.91895,-0.0336 -13.81316,0.92698 -20.43807,2.82604 -1.58298,-0.24572 -3.15619,-0.72392 -4.64455,-1.4114 l -5.5465,21.57256 c 3.83583,1.27791 7.82025,2.14023 11.87817,2.56375 3.42666,-0.87651 6.93596,-1.4908 10.46278,-1.82797 l 0.66465,-17.14692 c -4.18192,0.40528 -8.32518,1.18022 -12.36466,2.30995 -0.59696,-0.078 -1.19203,-0.1764 -1.78379,-0.29471 l -0.12104,9.90356 c 0.87723,0.15194 1.75975,0.27754 2.64615,0.37635 1.61438,-0.42994 3.24637,-0.80204 4.89044,-1.11502 l -0.0861,-3.5011 m -7.91794,-25.70032 c 0.1351,0.87408 0.60396,1.5053 0.99401,1.76622 8.63094,-2.58045 17.68726,-3.63122 26.7713,-3.06147 m -6.41075,48.63073 c 4.76604,0.12803 9.39827,0.81497 13.63764,2.11999 3.17863,1.21881 6.06396,2.75357 8.23474,4.59864 m 26.80902,-31.91226 c -6.32457,-5.27236 -13.38846,-9.23294 -20.76259,-11.876 -7.25036,-2.81783 -14.76857,-4.42568 -22.28814,-4.8844 l -4.88622,35.5456 c 5.227,0.17045 10.34037,0.9985 15.07362,2.54501 3.1118,1.17034 6.02685,2.65144 8.51605,4.44022 l 17.09225,-23.6395 c -4.8483,-3.51255 -10.12859,-6.25778 -15.61178,-8.23265 -4.45136,-1.69671 -9.02541,-2.91334 -13.64781,-3.66686 l -4.80233,23.03684 c 3.60498,0.48354 7.13012,1.29234 10.50109,2.44338 1.95594,0.7259 3.85335,1.57148 5.65541,2.53626 l 8.08163,-14.99357 c -2.55177,-1.3783 -5.19996,-2.55818 -7.90774,-3.53915 -2.1007,-0.78271 -4.23477,-1.45254 -6.39267,-2.01169 l -2.78473,9.90135 c 1.92541,0.46901 3.82347,1.03328 5.68464,1.695 0.34199,0.12547 0.68263,0.25442 1.02179,0.38684 l 1.275,-3.27999 m -15.72698,-29.82028 c 7.87511,0.53114 15.76709,2.28089 23.4169,5.30843 7.98874,2.85071 15.66893,7.15952 22.61931,12.9208 m -30.8303,37.18695 c 0.24281,0.20977 0.4764,0.4235 0.70015,0.6412 l 0,0 c 2.5682,2.62939 4.73992,6.07311 6.16706,9.68317 2.19944,3.93702 4.42761,8.18463 6.82703,12.66252 m 37.36656,-18.42539 c -2.06545,-3.80314 -4.20105,-7.80813 -6.55274,-11.93275 -3.25099,-8.62178 -8.5388,-16.38299 -15.51532,-22.63566 l 0,-1e-5 c -0.75144,-0.68488 -1.51475,-1.35011 -2.28914,-1.99567 L 234.747,250.22957 c 0.34391,0.29156 0.67691,0.59012 0.99821,0.89565 l 0,0 c 3.24125,3.18259 5.88873,7.2855 7.59433,11.66075 1.69588,3.02579 3.387,6.19469 5.13692,9.47088 l 26.26659,-12.66246 c -1.62421,-3.00924 -3.28826,-6.08618 -5.05568,-9.195 -2.34846,-6.20793 -5.84191,-11.94565 -10.31036,-16.89672 l -17.21493,15.72088 c 2.77697,3.23358 5.02496,7.0142 6.57399,11.02541 0.6392,1.13705 1.27491,2.28908 1.91046,3.45421 l 15.38696,-7.21149 c -0.63507,-1.15473 -1.27834,-2.3106 -1.93313,-3.46573 -1.33114,-3.50486 -3.06103,-6.85181 -5.1485,-9.96419 l -8.32045,6.01027 c 1.25627,1.89776 2.36174,3.89929 3.30026,5.97452 l 3.10809,-1.65613 m 4.8547,-35.13159 c 0.78321,0.6568 1.557,1.33216 2.32076,2.02609 l 0,0 c 7.67722,6.82859 13.46033,15.27607 17.00122,24.69446 2.35451,4.11694 4.45794,8.04806 6.4528,11.71301 m -43.09888,21.73899 c 1.97498,3.6826 4.0673,7.51913 6.35572,11.46522 4.79883,8.34735 10.92982,17.01911 19.00677,25.19464 m 29.39095,-29.59422 c -4.55801,-4.35589 -8.50874,-10.23173 -12.47397,-16.79622 -1.69494,-2.82286 -3.3553,-5.83037 -5.06364,-8.97597 l -31.61327,15.70221 c 1.95761,3.64585 4.0094,7.40584 6.23794,11.23342 4.06725,7.03073 8.98942,14.19096 15.17228,20.93817 l 21.44402,-19.75458 c -4.23363,-4.57291 -7.92185,-10.09382 -11.47042,-16.02021 -0.7615,-1.27686 -1.51224,-2.57926 -2.25861,-3.9036 l -20.39264,11.04459 c 0.86179,1.54535 1.7449,3.09882 2.65571,4.65681 2.77323,4.76406 5.89371,9.53789 9.50069,14.13529 l 13.41474,-10.46308 c -2.74084,-3.525 -5.24409,-7.32742 -7.61741,-11.26331 l -8.75216,5.25236 c 1.32488,2.21722 2.71479,4.41874 4.18561,6.58334 l 2.91448,-1.97648 m 12.58707,-28.96785 c 1.6334,2.99846 3.1957,5.81654 4.76566,8.40984 3.81299,6.24841 7.39756,11.654 11.36754,15.39612"
       id="path20"
       inkscape:path-effect="#path-effect23"
       inkscape:original-d="M 7.8417492,10.978449 C -9.5990167,31.424223 8.1445332,58.685846 27.661535,69.823556 56.273969,82.76676 56.353847,114.84104 72.271708,137.2577 c 14.942651,29.66265 54.074872,6.68813 69.392052,33.34987 13.51564,20.17747 19.84338,52.42762 48.4797,55.83592 26.25694,-7.17286 58.70229,1.10012 69.26106,28.79005 8.3395,14.74894 15.36189,30.68177 27.6035,42.75294"
       transform="matrix(0.87772343,0,0,0.87772343,25.570564,7.9996411)" /></g></svg>
