<?xml version="1.0" encoding="UTF-8" standalone="no"?>
<!-- Created with Inkscape (http://www.inkscape.org/) -->

<svg
   width="1080"
   height="1080"
   viewBox="0 0 285.74997 285.74997"
   version="1.1"
   id="svg1"
   inkscape:version="1.4.2 (f4327f4, 2025-05-13)"
   sodipodi:docname="78.svg"
   xml:space="preserve"
   xmlns:inkscape="http://www.inkscape.org/namespaces/inkscape"
   xmlns:sodipodi="http://sodipodi.sourceforge.net/DTD/sodipodi-0.dtd"
   xmlns="http://www.w3.org/2000/svg"
   xmlns:svg="http://www.w3.org/2000/svg"><sodipodi:namedview
     id="namedview1"
     pagecolor="#ffffff"
     bordercolor="#000000"
     borderopacity="0.25"
     inkscape:showpageshadow="2"
     inkscape:pageopacity="0.0"
     inkscape:pagecheckerboard="0"
     inkscape:deskcolor="#3c3c3c"
     inkscape:document-units="px"
     inkscape:zoom="0.58042029"
     inkscape:cx="351.46945"
     inkscape:cy="501.36083"
     inkscape:window-width="1920"
     inkscape:window-height="991"
     inkscape:window-x="-9"
     inkscape:window-y="-9"
     inkscape:window-maximized="1"
     inkscape:current-layer="layer1" /><defs
     id="defs1"><inkscape:path-effect
       effect="fillet_chamfer"
       id="path-effect1"
       is_visible="true"
       lpeversion="1"
       nodesatellites_param="C,0,0,1,0,45.584779,0,1 @ F,0,0,1,0,37.379523,0,1 @ F,0,0,1,0,82.964302,0,1 @ F,0,0,1,0,0,0,1"
       radius="0"
       unit="px"
       method="auto"
       mode="F"
       chamfer_steps="1"
       flexible="false"
       use_knot_distance="true"
       apply_no_radius="true"
       apply_with_radius="true"
       only_selected="false"
       hide_knots="false" /></defs><g
     inkscape:label="Capa1"
     inkscape:groupmode="layer"
     id="layer1"
     style="display:inline;opacity:1;mix-blend-mode:multiply"><g
       id="g34"
       transform="translate(-2.5404475,11.582697)"><g
         style="fill:#00ccff;stroke-width:0.292614"
         id="g1"
         transform="matrix(0.90420604,0,0,0.90420604,122.81029,14.122196)"
         inkscape:transform-center-y="-84.619008"
         inkscape:transform-center-x="-4.0978412e-06"><path
           fill="#ffffff"
           d="m 41.715,23.193 c -2.762,0.82 -4.844,2.675 -6.37,4.69 -0.327,0.432 -1.01,0.107 -0.88,-0.423 C 37.385,15.453 33.528,5.474 21.504,0.562 a 0.803,0.803 0 0 0 -1.085,0.937 c 5.47,21.961 -17.537,20.109 -14.63,45.005 0.05,0.427 -0.43,0.72 -0.78,0.47 C 3.919,46.192 2.702,44.559 1.867,43.412 A 0.502,0.502 0 0 0 0.98,43.572 C 0.315,45.976 0,48.242 0,50.492 c 0,8.749 4.497,16.45 11.304,20.915 0.39,0.255 0.89,-0.11 0.758,-0.557 a 13.5,13.5 0 0 1 -0.563,-3.697 c 0,-0.788 0.05,-1.593 0.173,-2.343 0.285,-1.885 0.94,-3.68 2.04,-5.314 3.772,-5.663 11.334,-11.132 10.127,-18.56 -0.078,-0.47 0.477,-0.78 0.827,-0.457 5.328,4.868 6.383,11.415 5.508,17.287 -0.075,0.51 0.564,0.782 0.887,0.382 a 11.6,11.6 0 0 1 2.892,-2.587 c 0.27,-0.168 0.63,-0.04 0.733,0.26 0.602,1.752 1.497,3.397 2.342,5.042 a 13.46,13.46 0 0 1 0.905,9.982 0.502,0.502 0 0 0 0.755,0.57 C 45.5,66.95 50,59.248 50,50.494 50,47.451 49.468,44.469 48.46,41.674 46.348,35.812 40.988,31.41 42.343,23.77 42.408,23.405 42.07,23.088 41.715,23.193"
           id="path1"
           style="fill:#00ccff;stroke-width:0.292614"
           inkscape:transform-center-y="-77.494124" /><path
           fill="#ffffff"
           d="m 41.715,23.193 c -2.762,0.82 -4.844,2.675 -6.37,4.69 -0.327,0.432 -1.01,0.107 -0.88,-0.423 C 37.385,15.453 33.528,5.474 21.504,0.562 a 0.803,0.803 0 0 0 -1.085,0.937 c 5.47,21.961 -17.537,20.109 -14.63,45.005 0.05,0.427 -0.43,0.72 -0.78,0.47 C 3.919,46.192 2.702,44.559 1.867,43.412 A 0.502,0.502 0 0 0 0.98,43.572 C 0.315,45.976 0,48.242 0,50.492 c 0,8.749 4.497,16.45 11.304,20.915 0.39,0.255 0.89,-0.11 0.758,-0.557 a 13.5,13.5 0 0 1 -0.563,-3.697 c 0,-0.788 0.05,-1.593 0.173,-2.343 0.285,-1.885 0.94,-3.68 2.04,-5.314 3.772,-5.663 11.334,-11.132 10.127,-18.56 -0.078,-0.47 0.477,-0.78 0.827,-0.457 5.328,4.868 6.383,11.415 5.508,17.287 -0.075,0.51 0.564,0.782 0.887,0.382 a 11.6,11.6 0 0 1 2.892,-2.587 c 0.27,-0.168 0.63,-0.04 0.733,0.26 0.602,1.752 1.497,3.397 2.342,5.042 a 13.46,13.46 0 0 1 0.905,9.982 0.502,0.502 0 0 0 0.755,0.57 C 45.5,66.95 50,59.248 50,50.494 50,47.451 49.468,44.469 48.46,41.674 46.348,35.812 40.988,31.41 42.343,23.77 42.408,23.405 42.07,23.088 41.715,23.193"
           id="path7"
           style="fill:#00ccff;stroke-width:0.292614"
           inkscape:transform-center-y="-77.494124" /></g><g
         style="fill:#00ccff;stroke-width:0.292614"
         id="g13"
         transform="matrix(0.7830654,0.45210302,-0.45210302,0.7830654,184.42384,18.517435)"
         inkscape:transform-center-y="-71.128114"
         inkscape:transform-center-x="-37.338657"><path
           fill="#ffffff"
           d="m 41.715,23.193 c -2.762,0.82 -4.844,2.675 -6.37,4.69 -0.327,0.432 -1.01,0.107 -0.88,-0.423 C 37.385,15.453 33.528,5.474 21.504,0.562 a 0.803,0.803 0 0 0 -1.085,0.937 c 5.47,21.961 -17.537,20.109 -14.63,45.005 0.05,0.427 -0.43,0.72 -0.78,0.47 C 3.919,46.192 2.702,44.559 1.867,43.412 A 0.502,0.502 0 0 0 0.98,43.572 C 0.315,45.976 0,48.242 0,50.492 c 0,8.749 4.497,16.45 11.304,20.915 0.39,0.255 0.89,-0.11 0.758,-0.557 a 13.5,13.5 0 0 1 -0.563,-3.697 c 0,-0.788 0.05,-1.593 0.173,-2.343 0.285,-1.885 0.94,-3.68 2.04,-5.314 3.772,-5.663 11.334,-11.132 10.127,-18.56 -0.078,-0.47 0.477,-0.78 0.827,-0.457 5.328,4.868 6.383,11.415 5.508,17.287 -0.075,0.51 0.564,0.782 0.887,0.382 a 11.6,11.6 0 0 1 2.892,-2.587 c 0.27,-0.168 0.63,-0.04 0.733,0.26 0.602,1.752 1.497,3.397 2.342,5.042 a 13.46,13.46 0 0 1 0.905,9.982 0.502,0.502 0 0 0 0.755,0.57 C 45.5,66.95 50,59.248 50,50.494 50,47.451 49.468,44.469 48.46,41.674 46.348,35.812 40.988,31.41 42.343,23.77 42.408,23.405 42.07,23.088 41.715,23.193"
           id="path12"
           style="fill:#00ccff;stroke-width:0.292614"
           inkscape:transform-center-y="-77.494124" /><path
           fill="#ffffff"
           d="m 41.715,23.193 c -2.762,0.82 -4.844,2.675 -6.37,4.69 -0.327,0.432 -1.01,0.107 -0.88,-0.423 C 37.385,15.453 33.528,5.474 21.504,0.562 a 0.803,0.803 0 0 0 -1.085,0.937 c 5.47,21.961 -17.537,20.109 -14.63,45.005 0.05,0.427 -0.43,0.72 -0.78,0.47 C 3.919,46.192 2.702,44.559 1.867,43.412 A 0.502,0.502 0 0 0 0.98,43.572 C 0.315,45.976 0,48.242 0,50.492 c 0,8.749 4.497,16.45 11.304,20.915 0.39,0.255 0.89,-0.11 0.758,-0.557 a 13.5,13.5 0 0 1 -0.563,-3.697 c 0,-0.788 0.05,-1.593 0.173,-2.343 0.285,-1.885 0.94,-3.68 2.04,-5.314 3.772,-5.663 11.334,-11.132 10.127,-18.56 -0.078,-0.47 0.477,-0.78 0.827,-0.457 5.328,4.868 6.383,11.415 5.508,17.287 -0.075,0.51 0.564,0.782 0.887,0.382 a 11.6,11.6 0 0 1 2.892,-2.587 c 0.27,-0.168 0.63,-0.04 0.733,0.26 0.602,1.752 1.497,3.397 2.342,5.042 a 13.46,13.46 0 0 1 0.905,9.982 0.502,0.502 0 0 0 0.755,0.57 C 45.5,66.95 50,59.248 50,50.494 50,47.451 49.468,44.469 48.46,41.674 46.348,35.812 40.988,31.41 42.343,23.77 42.408,23.405 42.07,23.088 41.715,23.193"
           id="path13"
           style="fill:#00ccff;stroke-width:0.292614"
           inkscape:transform-center-y="-77.494124" /></g><g
         style="fill:#00ccff;stroke-width:0.292614"
         id="g15"
         transform="matrix(0.45210302,0.7830654,-0.7830654,0.45210302,235.58513,53.130598)"
         inkscape:transform-center-y="-37.423369"
         inkscape:transform-center-x="-69.532833"><path
           fill="#ffffff"
           d="m 41.715,23.193 c -2.762,0.82 -4.844,2.675 -6.37,4.69 -0.327,0.432 -1.01,0.107 -0.88,-0.423 C 37.385,15.453 33.528,5.474 21.504,0.562 a 0.803,0.803 0 0 0 -1.085,0.937 c 5.47,21.961 -17.537,20.109 -14.63,45.005 0.05,0.427 -0.43,0.72 -0.78,0.47 C 3.919,46.192 2.702,44.559 1.867,43.412 A 0.502,0.502 0 0 0 0.98,43.572 C 0.315,45.976 0,48.242 0,50.492 c 0,8.749 4.497,16.45 11.304,20.915 0.39,0.255 0.89,-0.11 0.758,-0.557 a 13.5,13.5 0 0 1 -0.563,-3.697 c 0,-0.788 0.05,-1.593 0.173,-2.343 0.285,-1.885 0.94,-3.68 2.04,-5.314 3.772,-5.663 11.334,-11.132 10.127,-18.56 -0.078,-0.47 0.477,-0.78 0.827,-0.457 5.328,4.868 6.383,11.415 5.508,17.287 -0.075,0.51 0.564,0.782 0.887,0.382 a 11.6,11.6 0 0 1 2.892,-2.587 c 0.27,-0.168 0.63,-0.04 0.733,0.26 0.602,1.752 1.497,3.397 2.342,5.042 a 13.46,13.46 0 0 1 0.905,9.982 0.502,0.502 0 0 0 0.755,0.57 C 45.5,66.95 50,59.248 50,50.494 50,47.451 49.468,44.469 48.46,41.674 46.348,35.812 40.988,31.41 42.343,23.77 42.408,23.405 42.07,23.088 41.715,23.193"
           id="path14"
           style="fill:#00ccff;stroke-width:0.292614"
           inkscape:transform-center-y="-77.494124" /><path
           fill="#ffffff"
           d="m 41.715,23.193 c -2.762,0.82 -4.844,2.675 -6.37,4.69 -0.327,0.432 -1.01,0.107 -0.88,-0.423 C 37.385,15.453 33.528,5.474 21.504,0.562 a 0.803,0.803 0 0 0 -1.085,0.937 c 5.47,21.961 -17.537,20.109 -14.63,45.005 0.05,0.427 -0.43,0.72 -0.78,0.47 C 3.919,46.192 2.702,44.559 1.867,43.412 A 0.502,0.502 0 0 0 0.98,43.572 C 0.315,45.976 0,48.242 0,50.492 c 0,8.749 4.497,16.45 11.304,20.915 0.39,0.255 0.89,-0.11 0.758,-0.557 a 13.5,13.5 0 0 1 -0.563,-3.697 c 0,-0.788 0.05,-1.593 0.173,-2.343 0.285,-1.885 0.94,-3.68 2.04,-5.314 3.772,-5.663 11.334,-11.132 10.127,-18.56 -0.078,-0.47 0.477,-0.78 0.827,-0.457 5.328,4.868 6.383,11.415 5.508,17.287 -0.075,0.51 0.564,0.782 0.887,0.382 a 11.6,11.6 0 0 1 2.892,-2.587 c 0.27,-0.168 0.63,-0.04 0.733,0.26 0.602,1.752 1.497,3.397 2.342,5.042 a 13.46,13.46 0 0 1 0.905,9.982 0.502,0.502 0 0 0 0.755,0.57 C 45.5,66.95 50,59.248 50,50.494 50,47.451 49.468,44.469 48.46,41.674 46.348,35.812 40.988,31.41 42.343,23.77 42.408,23.405 42.07,23.088 41.715,23.193"
           id="path15"
           style="fill:#00ccff;stroke-width:0.292614"
           inkscape:transform-center-y="-77.494124" /></g><g
         style="fill:#00ccff;stroke-width:0.292614"
         id="g17"
         transform="matrix(0,0.90420604,-0.90420604,0,262.58552,108.68712)"
         inkscape:transform-center-y="-1.0197199e-05"
         inkscape:transform-center-x="-84.619008"><path
           fill="#ffffff"
           d="m 41.715,23.193 c -2.762,0.82 -4.844,2.675 -6.37,4.69 -0.327,0.432 -1.01,0.107 -0.88,-0.423 C 37.385,15.453 33.528,5.474 21.504,0.562 a 0.803,0.803 0 0 0 -1.085,0.937 c 5.47,21.961 -17.537,20.109 -14.63,45.005 0.05,0.427 -0.43,0.72 -0.78,0.47 C 3.919,46.192 2.702,44.559 1.867,43.412 A 0.502,0.502 0 0 0 0.98,43.572 C 0.315,45.976 0,48.242 0,50.492 c 0,8.749 4.497,16.45 11.304,20.915 0.39,0.255 0.89,-0.11 0.758,-0.557 a 13.5,13.5 0 0 1 -0.563,-3.697 c 0,-0.788 0.05,-1.593 0.173,-2.343 0.285,-1.885 0.94,-3.68 2.04,-5.314 3.772,-5.663 11.334,-11.132 10.127,-18.56 -0.078,-0.47 0.477,-0.78 0.827,-0.457 5.328,4.868 6.383,11.415 5.508,17.287 -0.075,0.51 0.564,0.782 0.887,0.382 a 11.6,11.6 0 0 1 2.892,-2.587 c 0.27,-0.168 0.63,-0.04 0.733,0.26 0.602,1.752 1.497,3.397 2.342,5.042 a 13.46,13.46 0 0 1 0.905,9.982 0.502,0.502 0 0 0 0.755,0.57 C 45.5,66.95 50,59.248 50,50.494 50,47.451 49.468,44.469 48.46,41.674 46.348,35.812 40.988,31.41 42.343,23.77 42.408,23.405 42.07,23.088 41.715,23.193"
           id="path16"
           style="fill:#00ccff;stroke-width:0.292614"
           inkscape:transform-center-y="-77.494124" /><path
           fill="#ffffff"
           d="m 41.715,23.193 c -2.762,0.82 -4.844,2.675 -6.37,4.69 -0.327,0.432 -1.01,0.107 -0.88,-0.423 C 37.385,15.453 33.528,5.474 21.504,0.562 a 0.803,0.803 0 0 0 -1.085,0.937 c 5.47,21.961 -17.537,20.109 -14.63,45.005 0.05,0.427 -0.43,0.72 -0.78,0.47 C 3.919,46.192 2.702,44.559 1.867,43.412 A 0.502,0.502 0 0 0 0.98,43.572 C 0.315,45.976 0,48.242 0,50.492 c 0,8.749 4.497,16.45 11.304,20.915 0.39,0.255 0.89,-0.11 0.758,-0.557 a 13.5,13.5 0 0 1 -0.563,-3.697 c 0,-0.788 0.05,-1.593 0.173,-2.343 0.285,-1.885 0.94,-3.68 2.04,-5.314 3.772,-5.663 11.334,-11.132 10.127,-18.56 -0.078,-0.47 0.477,-0.78 0.827,-0.457 5.328,4.868 6.383,11.415 5.508,17.287 -0.075,0.51 0.564,0.782 0.887,0.382 a 11.6,11.6 0 0 1 2.892,-2.587 c 0.27,-0.168 0.63,-0.04 0.733,0.26 0.602,1.752 1.497,3.397 2.342,5.042 a 13.46,13.46 0 0 1 0.905,9.982 0.502,0.502 0 0 0 0.755,0.57 C 45.5,66.95 50,59.248 50,50.494 50,47.451 49.468,44.469 48.46,41.674 46.348,35.812 40.988,31.41 42.343,23.77 42.408,23.405 42.07,23.088 41.715,23.193"
           id="path17"
           style="fill:#00ccff;stroke-width:0.292614"
           inkscape:transform-center-y="-77.494124" /></g><g
         style="fill:#00ccff;stroke-width:0.292614"
         id="g19"
         transform="matrix(-0.45210302,0.7830654,-0.7830654,-0.45210302,258.19029,170.30069)"
         inkscape:transform-center-y="37.338662"
         inkscape:transform-center-x="-71.128122"><path
           fill="#ffffff"
           d="m 41.715,23.193 c -2.762,0.82 -4.844,2.675 -6.37,4.69 -0.327,0.432 -1.01,0.107 -0.88,-0.423 C 37.385,15.453 33.528,5.474 21.504,0.562 a 0.803,0.803 0 0 0 -1.085,0.937 c 5.47,21.961 -17.537,20.109 -14.63,45.005 0.05,0.427 -0.43,0.72 -0.78,0.47 C 3.919,46.192 2.702,44.559 1.867,43.412 A 0.502,0.502 0 0 0 0.98,43.572 C 0.315,45.976 0,48.242 0,50.492 c 0,8.749 4.497,16.45 11.304,20.915 0.39,0.255 0.89,-0.11 0.758,-0.557 a 13.5,13.5 0 0 1 -0.563,-3.697 c 0,-0.788 0.05,-1.593 0.173,-2.343 0.285,-1.885 0.94,-3.68 2.04,-5.314 3.772,-5.663 11.334,-11.132 10.127,-18.56 -0.078,-0.47 0.477,-0.78 0.827,-0.457 5.328,4.868 6.383,11.415 5.508,17.287 -0.075,0.51 0.564,0.782 0.887,0.382 a 11.6,11.6 0 0 1 2.892,-2.587 c 0.27,-0.168 0.63,-0.04 0.733,0.26 0.602,1.752 1.497,3.397 2.342,5.042 a 13.46,13.46 0 0 1 0.905,9.982 0.502,0.502 0 0 0 0.755,0.57 C 45.5,66.95 50,59.248 50,50.494 50,47.451 49.468,44.469 48.46,41.674 46.348,35.812 40.988,31.41 42.343,23.77 42.408,23.405 42.07,23.088 41.715,23.193"
           id="path18"
           style="fill:#00ccff;stroke-width:0.292614"
           inkscape:transform-center-y="-77.494124" /><path
           fill="#ffffff"
           d="m 41.715,23.193 c -2.762,0.82 -4.844,2.675 -6.37,4.69 -0.327,0.432 -1.01,0.107 -0.88,-0.423 C 37.385,15.453 33.528,5.474 21.504,0.562 a 0.803,0.803 0 0 0 -1.085,0.937 c 5.47,21.961 -17.537,20.109 -14.63,45.005 0.05,0.427 -0.43,0.72 -0.78,0.47 C 3.919,46.192 2.702,44.559 1.867,43.412 A 0.502,0.502 0 0 0 0.98,43.572 C 0.315,45.976 0,48.242 0,50.492 c 0,8.749 4.497,16.45 11.304,20.915 0.39,0.255 0.89,-0.11 0.758,-0.557 a 13.5,13.5 0 0 1 -0.563,-3.697 c 0,-0.788 0.05,-1.593 0.173,-2.343 0.285,-1.885 0.94,-3.68 2.04,-5.314 3.772,-5.663 11.334,-11.132 10.127,-18.56 -0.078,-0.47 0.477,-0.78 0.827,-0.457 5.328,4.868 6.383,11.415 5.508,17.287 -0.075,0.51 0.564,0.782 0.887,0.382 a 11.6,11.6 0 0 1 2.892,-2.587 c 0.27,-0.168 0.63,-0.04 0.733,0.26 0.602,1.752 1.497,3.397 2.342,5.042 a 13.46,13.46 0 0 1 0.905,9.982 0.502,0.502 0 0 0 0.755,0.57 C 45.5,66.95 50,59.248 50,50.494 50,47.451 49.468,44.469 48.46,41.674 46.348,35.812 40.988,31.41 42.343,23.77 42.408,23.405 42.07,23.088 41.715,23.193"
           id="path19"
           style="fill:#00ccff;stroke-width:0.292614"
           inkscape:transform-center-y="-77.494124" /></g><g
         style="fill:#00ccff;stroke-width:0.292614"
         id="g21"
         transform="matrix(-0.7830654,0.45210302,-0.45210302,-0.7830654,223.57711,221.46198)"
         inkscape:transform-center-y="69.53284"
         inkscape:transform-center-x="-37.423361"><path
           fill="#ffffff"
           d="m 41.715,23.193 c -2.762,0.82 -4.844,2.675 -6.37,4.69 -0.327,0.432 -1.01,0.107 -0.88,-0.423 C 37.385,15.453 33.528,5.474 21.504,0.562 a 0.803,0.803 0 0 0 -1.085,0.937 c 5.47,21.961 -17.537,20.109 -14.63,45.005 0.05,0.427 -0.43,0.72 -0.78,0.47 C 3.919,46.192 2.702,44.559 1.867,43.412 A 0.502,0.502 0 0 0 0.98,43.572 C 0.315,45.976 0,48.242 0,50.492 c 0,8.749 4.497,16.45 11.304,20.915 0.39,0.255 0.89,-0.11 0.758,-0.557 a 13.5,13.5 0 0 1 -0.563,-3.697 c 0,-0.788 0.05,-1.593 0.173,-2.343 0.285,-1.885 0.94,-3.68 2.04,-5.314 3.772,-5.663 11.334,-11.132 10.127,-18.56 -0.078,-0.47 0.477,-0.78 0.827,-0.457 5.328,4.868 6.383,11.415 5.508,17.287 -0.075,0.51 0.564,0.782 0.887,0.382 a 11.6,11.6 0 0 1 2.892,-2.587 c 0.27,-0.168 0.63,-0.04 0.733,0.26 0.602,1.752 1.497,3.397 2.342,5.042 a 13.46,13.46 0 0 1 0.905,9.982 0.502,0.502 0 0 0 0.755,0.57 C 45.5,66.95 50,59.248 50,50.494 50,47.451 49.468,44.469 48.46,41.674 46.348,35.812 40.988,31.41 42.343,23.77 42.408,23.405 42.07,23.088 41.715,23.193"
           id="path20"
           style="fill:#00ccff;stroke-width:0.292614"
           inkscape:transform-center-y="-77.494124" /><path
           fill="#ffffff"
           d="m 41.715,23.193 c -2.762,0.82 -4.844,2.675 -6.37,4.69 -0.327,0.432 -1.01,0.107 -0.88,-0.423 C 37.385,15.453 33.528,5.474 21.504,0.562 a 0.803,0.803 0 0 0 -1.085,0.937 c 5.47,21.961 -17.537,20.109 -14.63,45.005 0.05,0.427 -0.43,0.72 -0.78,0.47 C 3.919,46.192 2.702,44.559 1.867,43.412 A 0.502,0.502 0 0 0 0.98,43.572 C 0.315,45.976 0,48.242 0,50.492 c 0,8.749 4.497,16.45 11.304,20.915 0.39,0.255 0.89,-0.11 0.758,-0.557 a 13.5,13.5 0 0 1 -0.563,-3.697 c 0,-0.788 0.05,-1.593 0.173,-2.343 0.285,-1.885 0.94,-3.68 2.04,-5.314 3.772,-5.663 11.334,-11.132 10.127,-18.56 -0.078,-0.47 0.477,-0.78 0.827,-0.457 5.328,4.868 6.383,11.415 5.508,17.287 -0.075,0.51 0.564,0.782 0.887,0.382 a 11.6,11.6 0 0 1 2.892,-2.587 c 0.27,-0.168 0.63,-0.04 0.733,0.26 0.602,1.752 1.497,3.397 2.342,5.042 a 13.46,13.46 0 0 1 0.905,9.982 0.502,0.502 0 0 0 0.755,0.57 C 45.5,66.95 50,59.248 50,50.494 50,47.451 49.468,44.469 48.46,41.674 46.348,35.812 40.988,31.41 42.343,23.77 42.408,23.405 42.07,23.088 41.715,23.193"
           id="path21"
           style="fill:#00ccff;stroke-width:0.292614"
           inkscape:transform-center-y="-77.494124" /></g><g
         style="fill:#00ccff;stroke-width:0.292614"
         id="g23"
         transform="matrix(-0.90420604,0,0,-0.90420604,168.02058,248.46238)"
         inkscape:transform-center-y="84.619025"
         inkscape:transform-center-x="6.5278113e-06"><path
           fill="#ffffff"
           d="m 41.715,23.193 c -2.762,0.82 -4.844,2.675 -6.37,4.69 -0.327,0.432 -1.01,0.107 -0.88,-0.423 C 37.385,15.453 33.528,5.474 21.504,0.562 a 0.803,0.803 0 0 0 -1.085,0.937 c 5.47,21.961 -17.537,20.109 -14.63,45.005 0.05,0.427 -0.43,0.72 -0.78,0.47 C 3.919,46.192 2.702,44.559 1.867,43.412 A 0.502,0.502 0 0 0 0.98,43.572 C 0.315,45.976 0,48.242 0,50.492 c 0,8.749 4.497,16.45 11.304,20.915 0.39,0.255 0.89,-0.11 0.758,-0.557 a 13.5,13.5 0 0 1 -0.563,-3.697 c 0,-0.788 0.05,-1.593 0.173,-2.343 0.285,-1.885 0.94,-3.68 2.04,-5.314 3.772,-5.663 11.334,-11.132 10.127,-18.56 -0.078,-0.47 0.477,-0.78 0.827,-0.457 5.328,4.868 6.383,11.415 5.508,17.287 -0.075,0.51 0.564,0.782 0.887,0.382 a 11.6,11.6 0 0 1 2.892,-2.587 c 0.27,-0.168 0.63,-0.04 0.733,0.26 0.602,1.752 1.497,3.397 2.342,5.042 a 13.46,13.46 0 0 1 0.905,9.982 0.502,0.502 0 0 0 0.755,0.57 C 45.5,66.95 50,59.248 50,50.494 50,47.451 49.468,44.469 48.46,41.674 46.348,35.812 40.988,31.41 42.343,23.77 42.408,23.405 42.07,23.088 41.715,23.193"
           id="path22"
           style="fill:#00ccff;stroke-width:0.292614"
           inkscape:transform-center-y="-77.494124" /><path
           fill="#ffffff"
           d="m 41.715,23.193 c -2.762,0.82 -4.844,2.675 -6.37,4.69 -0.327,0.432 -1.01,0.107 -0.88,-0.423 C 37.385,15.453 33.528,5.474 21.504,0.562 a 0.803,0.803 0 0 0 -1.085,0.937 c 5.47,21.961 -17.537,20.109 -14.63,45.005 0.05,0.427 -0.43,0.72 -0.78,0.47 C 3.919,46.192 2.702,44.559 1.867,43.412 A 0.502,0.502 0 0 0 0.98,43.572 C 0.315,45.976 0,48.242 0,50.492 c 0,8.749 4.497,16.45 11.304,20.915 0.39,0.255 0.89,-0.11 0.758,-0.557 a 13.5,13.5 0 0 1 -0.563,-3.697 c 0,-0.788 0.05,-1.593 0.173,-2.343 0.285,-1.885 0.94,-3.68 2.04,-5.314 3.772,-5.663 11.334,-11.132 10.127,-18.56 -0.078,-0.47 0.477,-0.78 0.827,-0.457 5.328,4.868 6.383,11.415 5.508,17.287 -0.075,0.51 0.564,0.782 0.887,0.382 a 11.6,11.6 0 0 1 2.892,-2.587 c 0.27,-0.168 0.63,-0.04 0.733,0.26 0.602,1.752 1.497,3.397 2.342,5.042 a 13.46,13.46 0 0 1 0.905,9.982 0.502,0.502 0 0 0 0.755,0.57 C 45.5,66.95 50,59.248 50,50.494 50,47.451 49.468,44.469 48.46,41.674 46.348,35.812 40.988,31.41 42.343,23.77 42.408,23.405 42.07,23.088 41.715,23.193"
           id="path23"
           style="fill:#00ccff;stroke-width:0.292614"
           inkscape:transform-center-y="-77.494124" /></g><g
         style="fill:#00ccff;stroke-width:0.292614"
         id="g25"
         transform="matrix(-0.7830654,-0.45210302,0.45210302,-0.7830654,106.40702,244.06712)"
         inkscape:transform-center-y="71.12811"
         inkscape:transform-center-x="37.33867"><path
           fill="#ffffff"
           d="m 41.715,23.193 c -2.762,0.82 -4.844,2.675 -6.37,4.69 -0.327,0.432 -1.01,0.107 -0.88,-0.423 C 37.385,15.453 33.528,5.474 21.504,0.562 a 0.803,0.803 0 0 0 -1.085,0.937 c 5.47,21.961 -17.537,20.109 -14.63,45.005 0.05,0.427 -0.43,0.72 -0.78,0.47 C 3.919,46.192 2.702,44.559 1.867,43.412 A 0.502,0.502 0 0 0 0.98,43.572 C 0.315,45.976 0,48.242 0,50.492 c 0,8.749 4.497,16.45 11.304,20.915 0.39,0.255 0.89,-0.11 0.758,-0.557 a 13.5,13.5 0 0 1 -0.563,-3.697 c 0,-0.788 0.05,-1.593 0.173,-2.343 0.285,-1.885 0.94,-3.68 2.04,-5.314 3.772,-5.663 11.334,-11.132 10.127,-18.56 -0.078,-0.47 0.477,-0.78 0.827,-0.457 5.328,4.868 6.383,11.415 5.508,17.287 -0.075,0.51 0.564,0.782 0.887,0.382 a 11.6,11.6 0 0 1 2.892,-2.587 c 0.27,-0.168 0.63,-0.04 0.733,0.26 0.602,1.752 1.497,3.397 2.342,5.042 a 13.46,13.46 0 0 1 0.905,9.982 0.502,0.502 0 0 0 0.755,0.57 C 45.5,66.95 50,59.248 50,50.494 50,47.451 49.468,44.469 48.46,41.674 46.348,35.812 40.988,31.41 42.343,23.77 42.408,23.405 42.07,23.088 41.715,23.193"
           id="path24"
           style="fill:#00ccff;stroke-width:0.292614"
           inkscape:transform-center-y="-77.494124" /><path
           fill="#ffffff"
           d="m 41.715,23.193 c -2.762,0.82 -4.844,2.675 -6.37,4.69 -0.327,0.432 -1.01,0.107 -0.88,-0.423 C 37.385,15.453 33.528,5.474 21.504,0.562 a 0.803,0.803 0 0 0 -1.085,0.937 c 5.47,21.961 -17.537,20.109 -14.63,45.005 0.05,0.427 -0.43,0.72 -0.78,0.47 C 3.919,46.192 2.702,44.559 1.867,43.412 A 0.502,0.502 0 0 0 0.98,43.572 C 0.315,45.976 0,48.242 0,50.492 c 0,8.749 4.497,16.45 11.304,20.915 0.39,0.255 0.89,-0.11 0.758,-0.557 a 13.5,13.5 0 0 1 -0.563,-3.697 c 0,-0.788 0.05,-1.593 0.173,-2.343 0.285,-1.885 0.94,-3.68 2.04,-5.314 3.772,-5.663 11.334,-11.132 10.127,-18.56 -0.078,-0.47 0.477,-0.78 0.827,-0.457 5.328,4.868 6.383,11.415 5.508,17.287 -0.075,0.51 0.564,0.782 0.887,0.382 a 11.6,11.6 0 0 1 2.892,-2.587 c 0.27,-0.168 0.63,-0.04 0.733,0.26 0.602,1.752 1.497,3.397 2.342,5.042 a 13.46,13.46 0 0 1 0.905,9.982 0.502,0.502 0 0 0 0.755,0.57 C 45.5,66.95 50,59.248 50,50.494 50,47.451 49.468,44.469 48.46,41.674 46.348,35.812 40.988,31.41 42.343,23.77 42.408,23.405 42.07,23.088 41.715,23.193"
           id="path25"
           style="fill:#00ccff;stroke-width:0.292614"
           inkscape:transform-center-y="-77.494124" /></g><g
         style="fill:#00ccff;stroke-width:0.292614"
         id="g27"
         transform="matrix(-0.45210302,-0.7830654,0.7830654,-0.45210302,55.24573,209.45395)"
         inkscape:transform-center-y="37.423357"
         inkscape:transform-center-x="69.532848"><path
           fill="#ffffff"
           d="m 41.715,23.193 c -2.762,0.82 -4.844,2.675 -6.37,4.69 -0.327,0.432 -1.01,0.107 -0.88,-0.423 C 37.385,15.453 33.528,5.474 21.504,0.562 a 0.803,0.803 0 0 0 -1.085,0.937 c 5.47,21.961 -17.537,20.109 -14.63,45.005 0.05,0.427 -0.43,0.72 -0.78,0.47 C 3.919,46.192 2.702,44.559 1.867,43.412 A 0.502,0.502 0 0 0 0.98,43.572 C 0.315,45.976 0,48.242 0,50.492 c 0,8.749 4.497,16.45 11.304,20.915 0.39,0.255 0.89,-0.11 0.758,-0.557 a 13.5,13.5 0 0 1 -0.563,-3.697 c 0,-0.788 0.05,-1.593 0.173,-2.343 0.285,-1.885 0.94,-3.68 2.04,-5.314 3.772,-5.663 11.334,-11.132 10.127,-18.56 -0.078,-0.47 0.477,-0.78 0.827,-0.457 5.328,4.868 6.383,11.415 5.508,17.287 -0.075,0.51 0.564,0.782 0.887,0.382 a 11.6,11.6 0 0 1 2.892,-2.587 c 0.27,-0.168 0.63,-0.04 0.733,0.26 0.602,1.752 1.497,3.397 2.342,5.042 a 13.46,13.46 0 0 1 0.905,9.982 0.502,0.502 0 0 0 0.755,0.57 C 45.5,66.95 50,59.248 50,50.494 50,47.451 49.468,44.469 48.46,41.674 46.348,35.812 40.988,31.41 42.343,23.77 42.408,23.405 42.07,23.088 41.715,23.193"
           id="path26"
           style="fill:#00ccff;stroke-width:0.292614"
           inkscape:transform-center-y="-77.494124" /><path
           fill="#ffffff"
           d="m 41.715,23.193 c -2.762,0.82 -4.844,2.675 -6.37,4.69 -0.327,0.432 -1.01,0.107 -0.88,-0.423 C 37.385,15.453 33.528,5.474 21.504,0.562 a 0.803,0.803 0 0 0 -1.085,0.937 c 5.47,21.961 -17.537,20.109 -14.63,45.005 0.05,0.427 -0.43,0.72 -0.78,0.47 C 3.919,46.192 2.702,44.559 1.867,43.412 A 0.502,0.502 0 0 0 0.98,43.572 C 0.315,45.976 0,48.242 0,50.492 c 0,8.749 4.497,16.45 11.304,20.915 0.39,0.255 0.89,-0.11 0.758,-0.557 a 13.5,13.5 0 0 1 -0.563,-3.697 c 0,-0.788 0.05,-1.593 0.173,-2.343 0.285,-1.885 0.94,-3.68 2.04,-5.314 3.772,-5.663 11.334,-11.132 10.127,-18.56 -0.078,-0.47 0.477,-0.78 0.827,-0.457 5.328,4.868 6.383,11.415 5.508,17.287 -0.075,0.51 0.564,0.782 0.887,0.382 a 11.6,11.6 0 0 1 2.892,-2.587 c 0.27,-0.168 0.63,-0.04 0.733,0.26 0.602,1.752 1.497,3.397 2.342,5.042 a 13.46,13.46 0 0 1 0.905,9.982 0.502,0.502 0 0 0 0.755,0.57 C 45.5,66.95 50,59.248 50,50.494 50,47.451 49.468,44.469 48.46,41.674 46.348,35.812 40.988,31.41 42.343,23.77 42.408,23.405 42.07,23.088 41.715,23.193"
           id="path27"
           style="fill:#00ccff;stroke-width:0.292614"
           inkscape:transform-center-y="-77.494124" /></g><g
         style="fill:#00ccff;stroke-width:0.292614"
         id="g29"
         transform="matrix(0,-0.90420604,0.90420604,0,28.245345,153.89742)"
         inkscape:transform-center-y="-1.1038709e-05"
         inkscape:transform-center-x="84.619018"><path
           fill="#ffffff"
           d="m 41.715,23.193 c -2.762,0.82 -4.844,2.675 -6.37,4.69 -0.327,0.432 -1.01,0.107 -0.88,-0.423 C 37.385,15.453 33.528,5.474 21.504,0.562 a 0.803,0.803 0 0 0 -1.085,0.937 c 5.47,21.961 -17.537,20.109 -14.63,45.005 0.05,0.427 -0.43,0.72 -0.78,0.47 C 3.919,46.192 2.702,44.559 1.867,43.412 A 0.502,0.502 0 0 0 0.98,43.572 C 0.315,45.976 0,48.242 0,50.492 c 0,8.749 4.497,16.45 11.304,20.915 0.39,0.255 0.89,-0.11 0.758,-0.557 a 13.5,13.5 0 0 1 -0.563,-3.697 c 0,-0.788 0.05,-1.593 0.173,-2.343 0.285,-1.885 0.94,-3.68 2.04,-5.314 3.772,-5.663 11.334,-11.132 10.127,-18.56 -0.078,-0.47 0.477,-0.78 0.827,-0.457 5.328,4.868 6.383,11.415 5.508,17.287 -0.075,0.51 0.564,0.782 0.887,0.382 a 11.6,11.6 0 0 1 2.892,-2.587 c 0.27,-0.168 0.63,-0.04 0.733,0.26 0.602,1.752 1.497,3.397 2.342,5.042 a 13.46,13.46 0 0 1 0.905,9.982 0.502,0.502 0 0 0 0.755,0.57 C 45.5,66.95 50,59.248 50,50.494 50,47.451 49.468,44.469 48.46,41.674 46.348,35.812 40.988,31.41 42.343,23.77 42.408,23.405 42.07,23.088 41.715,23.193"
           id="path28"
           style="fill:#00ccff;stroke-width:0.292614"
           inkscape:transform-center-y="-77.494124" /><path
           fill="#ffffff"
           d="m 41.715,23.193 c -2.762,0.82 -4.844,2.675 -6.37,4.69 -0.327,0.432 -1.01,0.107 -0.88,-0.423 C 37.385,15.453 33.528,5.474 21.504,0.562 a 0.803,0.803 0 0 0 -1.085,0.937 c 5.47,21.961 -17.537,20.109 -14.63,45.005 0.05,0.427 -0.43,0.72 -0.78,0.47 C 3.919,46.192 2.702,44.559 1.867,43.412 A 0.502,0.502 0 0 0 0.98,43.572 C 0.315,45.976 0,48.242 0,50.492 c 0,8.749 4.497,16.45 11.304,20.915 0.39,0.255 0.89,-0.11 0.758,-0.557 a 13.5,13.5 0 0 1 -0.563,-3.697 c 0,-0.788 0.05,-1.593 0.173,-2.343 0.285,-1.885 0.94,-3.68 2.04,-5.314 3.772,-5.663 11.334,-11.132 10.127,-18.56 -0.078,-0.47 0.477,-0.78 0.827,-0.457 5.328,4.868 6.383,11.415 5.508,17.287 -0.075,0.51 0.564,0.782 0.887,0.382 a 11.6,11.6 0 0 1 2.892,-2.587 c 0.27,-0.168 0.63,-0.04 0.733,0.26 0.602,1.752 1.497,3.397 2.342,5.042 a 13.46,13.46 0 0 1 0.905,9.982 0.502,0.502 0 0 0 0.755,0.57 C 45.5,66.95 50,59.248 50,50.494 50,47.451 49.468,44.469 48.46,41.674 46.348,35.812 40.988,31.41 42.343,23.77 42.408,23.405 42.07,23.088 41.715,23.193"
           id="path29"
           style="fill:#00ccff;stroke-width:0.292614"
           inkscape:transform-center-y="-77.494124" /></g><g
         style="fill:#00ccff;stroke-width:0.292614"
         id="g31"
         transform="matrix(0.45210302,-0.7830654,0.7830654,0.45210302,32.64059,92.283853)"
         inkscape:transform-center-y="-37.338682"
         inkscape:transform-center-x="71.128116"><path
           fill="#ffffff"
           d="m 41.715,23.193 c -2.762,0.82 -4.844,2.675 -6.37,4.69 -0.327,0.432 -1.01,0.107 -0.88,-0.423 C 37.385,15.453 33.528,5.474 21.504,0.562 a 0.803,0.803 0 0 0 -1.085,0.937 c 5.47,21.961 -17.537,20.109 -14.63,45.005 0.05,0.427 -0.43,0.72 -0.78,0.47 C 3.919,46.192 2.702,44.559 1.867,43.412 A 0.502,0.502 0 0 0 0.98,43.572 C 0.315,45.976 0,48.242 0,50.492 c 0,8.749 4.497,16.45 11.304,20.915 0.39,0.255 0.89,-0.11 0.758,-0.557 a 13.5,13.5 0 0 1 -0.563,-3.697 c 0,-0.788 0.05,-1.593 0.173,-2.343 0.285,-1.885 0.94,-3.68 2.04,-5.314 3.772,-5.663 11.334,-11.132 10.127,-18.56 -0.078,-0.47 0.477,-0.78 0.827,-0.457 5.328,4.868 6.383,11.415 5.508,17.287 -0.075,0.51 0.564,0.782 0.887,0.382 a 11.6,11.6 0 0 1 2.892,-2.587 c 0.27,-0.168 0.63,-0.04 0.733,0.26 0.602,1.752 1.497,3.397 2.342,5.042 a 13.46,13.46 0 0 1 0.905,9.982 0.502,0.502 0 0 0 0.755,0.57 C 45.5,66.95 50,59.248 50,50.494 50,47.451 49.468,44.469 48.46,41.674 46.348,35.812 40.988,31.41 42.343,23.77 42.408,23.405 42.07,23.088 41.715,23.193"
           id="path30"
           style="fill:#00ccff;stroke-width:0.292614"
           inkscape:transform-center-y="-77.494124" /><path
           fill="#ffffff"
           d="m 41.715,23.193 c -2.762,0.82 -4.844,2.675 -6.37,4.69 -0.327,0.432 -1.01,0.107 -0.88,-0.423 C 37.385,15.453 33.528,5.474 21.504,0.562 a 0.803,0.803 0 0 0 -1.085,0.937 c 5.47,21.961 -17.537,20.109 -14.63,45.005 0.05,0.427 -0.43,0.72 -0.78,0.47 C 3.919,46.192 2.702,44.559 1.867,43.412 A 0.502,0.502 0 0 0 0.98,43.572 C 0.315,45.976 0,48.242 0,50.492 c 0,8.749 4.497,16.45 11.304,20.915 0.39,0.255 0.89,-0.11 0.758,-0.557 a 13.5,13.5 0 0 1 -0.563,-3.697 c 0,-0.788 0.05,-1.593 0.173,-2.343 0.285,-1.885 0.94,-3.68 2.04,-5.314 3.772,-5.663 11.334,-11.132 10.127,-18.56 -0.078,-0.47 0.477,-0.78 0.827,-0.457 5.328,4.868 6.383,11.415 5.508,17.287 -0.075,0.51 0.564,0.782 0.887,0.382 a 11.6,11.6 0 0 1 2.892,-2.587 c 0.27,-0.168 0.63,-0.04 0.733,0.26 0.602,1.752 1.497,3.397 2.342,5.042 a 13.46,13.46 0 0 1 0.905,9.982 0.502,0.502 0 0 0 0.755,0.57 C 45.5,66.95 50,59.248 50,50.494 50,47.451 49.468,44.469 48.46,41.674 46.348,35.812 40.988,31.41 42.343,23.77 42.408,23.405 42.07,23.088 41.715,23.193"
           id="path31"
           style="fill:#00ccff;stroke-width:0.292614"
           inkscape:transform-center-y="-77.494124" /></g><g
         style="fill:#00ccff;stroke-width:0.292614"
         id="g33"
         transform="matrix(0.7830654,-0.45210302,0.45210302,0.7830654,67.253768,41.122568)"
         inkscape:transform-center-y="-69.532853"
         inkscape:transform-center-x="37.423355"><path
           fill="#ffffff"
           d="m 41.715,23.193 c -2.762,0.82 -4.844,2.675 -6.37,4.69 -0.327,0.432 -1.01,0.107 -0.88,-0.423 C 37.385,15.453 33.528,5.474 21.504,0.562 a 0.803,0.803 0 0 0 -1.085,0.937 c 5.47,21.961 -17.537,20.109 -14.63,45.005 0.05,0.427 -0.43,0.72 -0.78,0.47 C 3.919,46.192 2.702,44.559 1.867,43.412 A 0.502,0.502 0 0 0 0.98,43.572 C 0.315,45.976 0,48.242 0,50.492 c 0,8.749 4.497,16.45 11.304,20.915 0.39,0.255 0.89,-0.11 0.758,-0.557 a 13.5,13.5 0 0 1 -0.563,-3.697 c 0,-0.788 0.05,-1.593 0.173,-2.343 0.285,-1.885 0.94,-3.68 2.04,-5.314 3.772,-5.663 11.334,-11.132 10.127,-18.56 -0.078,-0.47 0.477,-0.78 0.827,-0.457 5.328,4.868 6.383,11.415 5.508,17.287 -0.075,0.51 0.564,0.782 0.887,0.382 a 11.6,11.6 0 0 1 2.892,-2.587 c 0.27,-0.168 0.63,-0.04 0.733,0.26 0.602,1.752 1.497,3.397 2.342,5.042 a 13.46,13.46 0 0 1 0.905,9.982 0.502,0.502 0 0 0 0.755,0.57 C 45.5,66.95 50,59.248 50,50.494 50,47.451 49.468,44.469 48.46,41.674 46.348,35.812 40.988,31.41 42.343,23.77 42.408,23.405 42.07,23.088 41.715,23.193"
           id="path32"
           style="fill:#00ccff;stroke-width:0.292614"
           inkscape:transform-center-y="-77.494124" /><path
           fill="#ffffff"
           d="m 41.715,23.193 c -2.762,0.82 -4.844,2.675 -6.37,4.69 -0.327,0.432 -1.01,0.107 -0.88,-0.423 C 37.385,15.453 33.528,5.474 21.504,0.562 a 0.803,0.803 0 0 0 -1.085,0.937 c 5.47,21.961 -17.537,20.109 -14.63,45.005 0.05,0.427 -0.43,0.72 -0.78,0.47 C 3.919,46.192 2.702,44.559 1.867,43.412 A 0.502,0.502 0 0 0 0.98,43.572 C 0.315,45.976 0,48.242 0,50.492 c 0,8.749 4.497,16.45 11.304,20.915 0.39,0.255 0.89,-0.11 0.758,-0.557 a 13.5,13.5 0 0 1 -0.563,-3.697 c 0,-0.788 0.05,-1.593 0.173,-2.343 0.285,-1.885 0.94,-3.68 2.04,-5.314 3.772,-5.663 11.334,-11.132 10.127,-18.56 -0.078,-0.47 0.477,-0.78 0.827,-0.457 5.328,4.868 6.383,11.415 5.508,17.287 -0.075,0.51 0.564,0.782 0.887,0.382 a 11.6,11.6 0 0 1 2.892,-2.587 c 0.27,-0.168 0.63,-0.04 0.733,0.26 0.602,1.752 1.497,3.397 2.342,5.042 a 13.46,13.46 0 0 1 0.905,9.982 0.502,0.502 0 0 0 0.755,0.57 C 45.5,66.95 50,59.248 50,50.494 50,47.451 49.468,44.469 48.46,41.674 46.348,35.812 40.988,31.41 42.343,23.77 42.408,23.405 42.07,23.088 41.715,23.193"
           id="path33"
           style="fill:#00ccff;stroke-width:0.292614"
           inkscape:transform-center-y="-77.494124" /></g></g></g></svg>
