<?xml version="1.0" encoding="UTF-8" standalone="no"?>
<svg
   sodipodi:docname="81.svg"
   inkscape:version="1.4.2 (f4327f4, 2025-05-13)"
   id="svg219"
   version="1.1"
   viewBox="0 0 1380.8533 1200"
   height="1200"
   width="1380.8533"
   xmlns:inkscape="http://www.inkscape.org/namespaces/inkscape"
   xmlns:sodipodi="http://sodipodi.sourceforge.net/DTD/sodipodi-0.dtd"
   xmlns="http://www.w3.org/2000/svg"
   xmlns:svg="http://www.w3.org/2000/svg"
   xmlns:rdf="http://www.w3.org/1999/02/22-rdf-syntax-ns#"
   xmlns:cc="http://creativecommons.org/ns#"
   xmlns:dc="http://purl.org/dc/elements/1.1/">
  <title
     id="title4690">Vector Shark Design</title>
  <defs
     id="defs213" />
  <sodipodi:namedview
     inkscape:showpageshadow="false"
     fit-margin-bottom="100"
     fit-margin-right="100"
     fit-margin-left="100"
     fit-margin-top="100"
     units="px"
     showgrid="false"
     inkscape:document-rotation="0"
     inkscape:current-layer="layer1"
     inkscape:document-units="px"
     inkscape:cy="642.05296"
     inkscape:cx="435.57778"
     inkscape:zoom="0.35355339"
     inkscape:pageshadow="2"
     inkscape:pageopacity="0"
     borderopacity="1.0"
     bordercolor="#666666"
     pagecolor="#eeeeee"
     id="base"
     inkscape:window-width="1920"
     inkscape:window-height="991"
     inkscape:window-x="-9"
     inkscape:window-y="-9"
     inkscape:window-maximized="1"
     inkscape:snap-global="true"
     inkscape:pagecheckerboard="0"
     inkscape:deskcolor="#d1d1d1" />
  <metadata
     id="metadata216">
    <rdf:RDF>
      <cc:Work
         rdf:about="">
        <dc:format>image/svg+xml</dc:format>
        <dc:type
           rdf:resource="http://purl.org/dc/dcmitype/StillImage" />
        <dc:title>Vector Shark Design</dc:title>
        <dc:creator>
          <cc:Agent>
            <dc:title>Logos By Nick LLC</dc:title>
          </cc:Agent>
        </dc:creator>
        <dc:rights>
          <cc:Agent>
            <dc:title>For personal use only. Commercial use is prohibited.</dc:title>
          </cc:Agent>
        </dc:rights>
        <dc:description>©2020 Logos By Nick LLC</dc:description>
      </cc:Work>
    </rdf:RDF>
  </metadata>
  <g
     transform="translate(2616.2753,-2012.87)"
     id="layer1"
     inkscape:groupmode="layer"
     inkscape:label="Layer 1">
    <path
       style="color:#000000;font-style:normal;font-variant:normal;font-weight:normal;font-stretch:normal;font-size:medium;line-height:normal;font-family:sans-serif;font-variant-ligatures:normal;font-variant-position:normal;font-variant-caps:normal;font-variant-numeric:normal;font-variant-alternates:normal;font-feature-settings:normal;text-indent:0;text-align:start;text-decoration:none;text-decoration-line:none;text-decoration-style:solid;text-decoration-color:#000000;letter-spacing:normal;word-spacing:normal;text-transform:none;writing-mode:lr-tb;direction:ltr;text-orientation:mixed;dominant-baseline:auto;baseline-shift:baseline;text-anchor:start;white-space:normal;shape-padding:0;clip-rule:nonzero;display:inline;overflow:visible;visibility:visible;opacity:0.12900002;isolation:auto;mix-blend-mode:normal;color-interpolation:sRGB;color-interpolation-filters:linearRGB;solid-color:#000000;solid-opacity:1;vector-effect:none;fill:#000000;fill-opacity:1;fill-rule:nonzero;stroke:none;stroke-width:15.20000076;stroke-linecap:butt;stroke-linejoin:miter;stroke-miterlimit:4;stroke-dasharray:none;stroke-dashoffset:0;stroke-opacity:1;color-rendering:auto;image-rendering:auto;shape-rendering:auto;text-rendering:auto;enable-background:accumulate"
       d="m -1778.8922,2130.3355 c -28.7454,0.094 -57.2001,10.586 -82.7479,33.2722 -13.0885,-3.2631 -26.3663,-5.309 -39.752,-5.309 h -16.3299 v 0.6589 c -93.0772,6.8938 -181.6244,75.4554 -224.2553,125.7988 -0.021,0.021 -0.039,0.039 -0.054,0.058 -3.6761,4.0181 -7.1629,8.1195 -10.6682,12.2085 -130.2999,5.4297 -274.9648,48.4336 -344.846,130.1465 l -18.7301,21.9031 28.4122,4.8137 c 40.0998,6.7918 82.3667,18.9208 123.0876,33.7589 -10.0618,11.8933 -18.7337,24.7012 -25.4368,38.3503 v 0.021 0.022 c -23.2085,47.5191 -26.2653,99.0572 -15.7379,145.1712 11.6854,52.2309 40.7561,97.2488 79.7012,128.8162 l 0.026,0.021 0.026,0.021 c 7.2739,5.8475 14.8365,10.8962 22.4906,15.5996 -1.5284,16.1045 -1.3681,33.8444 1.5361,52.9341 5.5902,36.7276 20.497,74.7159 46.1478,108.0882 l 0.043,0.05 0.034,0.049 c 0.2615,0.3345 0.5806,0.7447 0.9401,1.2003 26.0913,33.3641 60.079,56.7606 95.1873,69.6581 11.1967,4.1147 22.0522,6.8075 32.5839,8.7253 16.3922,18.6632 39.1663,35.9282 69.2261,46.0512 h 0.03 0.026 c 39.9076,13.2952 84.0486,13.3573 127.2465,3.2526 5.2671,-1.2171 10.5044,-2.5583 15.7044,-4.0122 h 0.022 0.022 c 48.8135,-13.7533 91.7843,-37.7774 126.2142,-67.1569 28.1255,-23.9995 48.0595,-49.5871 61.9237,-73.3096 6.2495,-0.624 12.6575,-1.6655 19.2759,-3.8065 l 0.062,-0.022 0.067,-0.021 c 20.3337,-6.7692 38.1726,-19.9999 53.0936,-36.7974 15.803,-17.5231 29.9524,-37.0645 42.4968,-58.0626 l 3.2567,-5.4559 -0.075,-0.3692 c 12.0656,-20.8833 22.3524,-42.5197 29.2348,-65.2643 6.555,-20.4111 10.8796,-42.921 4.4445,-65.4992 -3.0267,-10.7395 -9.3206,-20.3204 -18.7135,-26.6833 l -0.1719,-0.1139 -0.1762,-0.1139 c -0.8184,-0.5243 -1.6597,-0.829 -2.4887,-1.2843 -0.7387,-3.9773 -1.8816,-8.011 -3.496,-12.0364 -0.3863,-0.9741 -0.7793,-1.8884 -1.1668,-2.7404 l -0.3021,-0.6631 -0.3567,-0.6338 c -8.1388,-14.3511 -20.8016,-22.5267 -33.1841,-26.1626 l -0.1096,-0.2184 -0.3358,-0.5539 c -10.9404,-18.042 -33.0663,-27.9895 -55.3767,-22.7381 l 0.052,-0.021 c -5.8897,1.3659 -12.1916,1.9865 -18.9275,1.9893 -9.7012,-0.049 -19.9299,-1.5658 -29.8813,-4.0373 l -0.2642,-0.067 -0.2603,-0.054 c -23.5497,-4.4484 -40.2086,1.8662 -53.1817,23.1663 -1.1818,1.9728 -1.9549,3.9892 -2.858,5.9972 -3.3506,0.4229 -6.6384,0.9799 -9.5478,1.9348 l -0.041,0.021 -0.043,0.021 c -3.8031,1.2723 -7.3294,2.9228 -10.5341,4.8936 l -0.071,0.045 -0.067,0.043 c -2.7693,1.7411 -5.221,3.7152 -7.466,5.8083 7.8605,-15.4987 16.1762,-30.0738 24.8323,-43.676 14.0457,-0.056 27.8794,-3.1694 39.8695,-10.706 13.813,-8.6825 24.0549,-23.5147 28.3786,-41.9553 l 38.6608,-51.9141 63.0275,-42.9627 c 10.0794,0.8024 20.1087,1.4902 29.7468,1.62 l 24.5974,0.5371 h 0.101 c 30.412,0.2977 79.6037,-3.2132 112.3943,-15.4482 l 0.101,-0.039 0.101,-0.041 c 67.9035,-26.3612 104.624,-78.9055 121.8035,-149.0658 l 4.8976,-20.006 -20.5979,-0.2063 c -81.9254,-0.8232 -156.8693,-40.7873 -226.2865,-82.232 -69.4175,-41.4446 -132.32,-85.4726 -196.5525,-85.262 z m -63.2581,581.6834 c -0.2948,2.1766 -0.766,4.4582 -0.9276,6.53 -1.8963,22.8982 1.4111,44.5622 6.2784,63.699 5.0647,20.2003 12.3924,38.4952 21.7646,54.7849 -18.4634,2.2403 -38.3201,6.5243 -58.7341,13.2492 2.6584,-29.5477 7.474,-60.3448 15.9521,-91.5026 l 0.022,-0.079 0.022,-0.08 c 0.099,-0.3825 0.265,-0.9654 0.4742,-1.7418 4.3212,-15.7746 9.5382,-30.5673 15.1505,-44.8593 z"
       id="path14484"
       inkscape:connector-curvature="0"
       sodipodi:nodetypes="ccsccccccccccccccccccccccccccccccccccccccccccccccccccccccccccccccccccccccccccccccccccccccccccccccc" />
    <path
       sodipodi:nodetypes="ccsccccccccccccccccccccccccccccccccccccccccccccccccccccccccccccccccccccccccccccccccccccccccccccccc"
       inkscape:connector-curvature="0"
       id="path14486"
       d="m -1778.8922,2112.87 c -28.7454,0.095 -57.2001,10.5861 -82.7479,33.2722 -13.0885,-3.2631 -26.3663,-5.3089 -39.752,-5.3089 h -16.3299 v 0.6588 c -93.0772,6.8938 -181.6244,75.4555 -224.2553,125.7989 -0.021,0.021 -0.039,0.039 -0.054,0.058 -3.6761,4.0181 -7.1629,8.1195 -10.6682,12.2086 -130.2999,5.4297 -274.9648,48.4336 -344.846,130.1464 l -18.7301,21.9032 28.4122,4.8136 c 40.0998,6.7918 82.3667,18.9209 123.0876,33.7589 -10.0618,11.8933 -18.7337,24.7012 -25.4368,38.3503 v 0.021 0.021 c -23.2085,47.5191 -26.2653,99.0572 -15.7379,145.1712 11.6854,52.2309 40.7561,97.2488 79.7012,128.8162 l 0.026,0.022 0.026,0.021 c 7.274,5.8474 14.8365,10.8961 22.4906,15.5995 -1.5284,16.1045 -1.3681,33.8444 1.5361,52.9342 5.5902,36.7276 20.497,74.7158 46.1478,108.0882 l 0.043,0.049 0.034,0.049 c 0.2615,0.3346 0.5806,0.7448 0.9401,1.2003 26.0913,33.3641 60.079,56.7607 95.1873,69.6581 11.1967,4.1147 22.0522,6.8075 32.5839,8.7253 16.3923,18.6632 39.1663,35.9282 69.2261,46.0512 h 0.03 0.026 c 39.9076,13.2952 84.0486,13.3573 127.2465,3.2526 5.2671,-1.217 10.5044,-2.5583 15.7044,-4.0121 h 0.022 0.022 c 48.8135,-13.7534 91.7843,-37.7775 126.2143,-67.157 28.1254,-23.9995 48.0595,-49.5871 61.9237,-73.3096 6.2494,-0.624 12.6574,-1.6655 19.2758,-3.8065 l 0.062,-0.021 0.067,-0.021 c 20.3337,-6.7692 38.1727,-19.9999 53.0936,-36.7974 15.803,-17.5231 29.9524,-37.0645 42.4968,-58.0626 l 3.2567,-5.4559 -0.075,-0.3691 c 12.0657,-20.8834 22.3524,-42.5198 29.2349,-65.2644 6.5549,-20.411 10.8795,-42.921 4.4444,-65.4992 -3.0267,-10.7395 -9.3206,-20.3204 -18.7135,-26.6833 l -0.1719,-0.1139 -0.1762,-0.1139 c -0.8184,-0.5242 -1.6597,-0.8289 -2.4887,-1.2843 -0.7387,-3.9773 -1.8816,-8.011 -3.496,-12.0364 -0.3863,-0.9741 -0.7793,-1.8884 -1.1668,-2.7403 l -0.3021,-0.6631 -0.3567,-0.6339 c -8.1388,-14.3511 -20.8016,-22.5267 -33.1841,-26.1626 l -0.1095,-0.2183 -0.3359,-0.554 c -10.9404,-18.042 -33.0663,-27.9895 -55.3766,-22.7381 l 0.052,-0.021 c -5.8897,1.366 -12.1916,1.9865 -18.9275,1.9893 -9.7012,-0.049 -19.9299,-1.5658 -29.8812,-4.0373 l -0.2643,-0.067 -0.2603,-0.054 c -23.5497,-4.4484 -40.2085,1.8662 -53.1817,23.1664 -1.1818,1.9727 -1.9549,3.9891 -2.858,5.9971 -3.3506,0.4229 -6.6384,0.9799 -9.5478,1.9348 l -0.041,0.022 -0.043,0.021 c -3.8031,1.2723 -7.3294,2.9228 -10.5341,4.8936 l -0.071,0.045 -0.067,0.043 c -2.7693,1.7412 -5.221,3.7152 -7.466,5.8083 7.8605,-15.4987 16.1762,-30.0737 24.8323,-43.676 14.0457,-0.056 27.8794,-3.1694 39.8695,-10.706 13.813,-8.6824 24.0549,-23.5147 28.3786,-41.9553 l 38.6608,-51.9141 63.0275,-42.9627 c 10.0794,0.8024 20.1087,1.4902 29.7468,1.62 l 24.5974,0.5372 h 0.101 c 30.412,0.2976 79.6037,-3.2133 112.3943,-15.4483 l 0.101,-0.039 0.101,-0.041 c 67.9035,-26.3612 104.624,-78.9055 121.8035,-149.0658 l 4.8977,-20.006 -20.598,-0.2063 c -81.9254,-0.8232 -156.8693,-40.7873 -226.2865,-82.232 -69.4175,-41.4446 -132.32,-85.4726 -196.5525,-85.262 z m -63.2581,581.6834 c -0.2948,2.1767 -0.766,4.4582 -0.9276,6.53 -1.8963,22.8983 1.4111,44.5622 6.2785,63.699 5.0646,20.2003 12.3923,38.4952 21.7645,54.7849 -18.4634,2.2403 -38.3201,6.5243 -58.7341,13.2492 2.6584,-29.5477 7.474,-60.3447 15.9522,-91.5026 l 0.021,-0.08 0.022,-0.079 c 0.099,-0.3824 0.265,-0.9654 0.4743,-1.7417 4.3211,-15.7747 9.5381,-30.5674 15.1504,-44.8594 z"
       style="color:#000000;font-style:normal;font-variant:normal;font-weight:normal;font-stretch:normal;font-size:medium;line-height:normal;font-family:sans-serif;font-variant-ligatures:normal;font-variant-position:normal;font-variant-caps:normal;font-variant-numeric:normal;font-variant-alternates:normal;font-feature-settings:normal;text-indent:0;text-align:start;text-decoration:none;text-decoration-line:none;text-decoration-style:solid;text-decoration-color:#000000;letter-spacing:normal;word-spacing:normal;text-transform:none;writing-mode:lr-tb;direction:ltr;text-orientation:mixed;dominant-baseline:auto;baseline-shift:baseline;text-anchor:start;white-space:normal;shape-padding:0;clip-rule:nonzero;display:inline;overflow:visible;visibility:visible;opacity:1;isolation:auto;mix-blend-mode:normal;color-interpolation:sRGB;color-interpolation-filters:linearRGB;solid-color:#000000;solid-opacity:1;vector-effect:none;fill:#ffffff;fill-opacity:1;fill-rule:nonzero;stroke:none;stroke-width:15.20000076;stroke-linecap:butt;stroke-linejoin:miter;stroke-miterlimit:4;stroke-dasharray:none;stroke-dashoffset:0;stroke-opacity:1;color-rendering:auto;image-rendering:auto;shape-rendering:auto;text-rendering:auto;enable-background:accumulate" />
    <path
       inkscape:connector-curvature="0"
       id="path14488"
       d="m -1371.1755,2304.204 -35.6365,76.9003 -54.3927,30.947 -39.3876,14.0679 -76.8999,12.1892 -71.2722,-2.8067 -68.4602,52.5176 -33.7606,46.8882 -15.9425,39.3888 -36.5744,10.3162 h -12.1914 l -34.6988,59.0811 -33.7608,63.7686 -18.756,92.8447 1.8745,60.9561 -45.9522,-9.3765 -45.9522,1.8711 -0.939,-38.4502 -6.5642,-55.33 -34.6986,-48.7661 11.414,-31.3385 6.3,-46.75 -21.4657,-105.7207 32.8235,-67.521 53.4542,-83.4639 57.2065,-48.766 55.3298,-14.0673 60.9574,8.4418 103.6268,46.8883 65.6464,28.6027 149.5794,-48.766 z"
       style="fill:#ffffff;stroke:none;stroke-width:0.99999982px;stroke-linecap:butt;stroke-linejoin:miter;stroke-opacity:1" />
    <path
       sodipodi:nodetypes="ccccccscccscccccccccccccccccccccccccccccccccccccsccccccccccccccccccccccccccccccccccc"
       inkscape:connector-curvature="0"
       id="path14490"
       d="m -1555.886,2404.6591 c 78.8755,1.3329 134.1032,-33.8138 165.1764,-88.2281 l -15.0145,-17.5037 -180.9007,-59.8164 -124.6624,-79.2595 -57.6634,-21.6242 c 0,0 -34.2726,-1.361 -40.9108,-0.7091 -3.9657,0.4027 -34.3192,21.3978 -36.7723,23.241 -2.4523,1.8423 -9.54,7.0152 -9.54,7.0152 l -15.3127,-5.2487 c 0,0 -36.4852,-1.2197 -41.3906,-0.936 -4.9054,0.315 -34.9525,8.8922 -34.9525,8.8922 l -64.9986,27.5928 -99.3387,83.3968 -21.1553,19.0094 -41.0842,-0.6231 -142.7393,34.171 -129.2124,69.3749 6.0703,11.2741 124.8766,49.4296 c 0,0 -46.8287,71.9779 -49.4306,80.652 -2.603,8.6709 -9.539,64.1709 -9.539,64.1709 l 6.9379,61.5719 45.9615,75.4458 39.8905,37.2872 2.603,39.8929 30.3523,97.9916 55.4998,58.1034 81.5164,40.7587 10.4067,15.6092 32.9531,19.0777 54.6338,15.6103 57.2343,-2.6094 97.1261,-35.5548 86.0694,-65.0392 31.4355,-33.1701 6.0704,-9.539 30.3516,-8.4562 58.1024,-64.6051 45.961,-81.9499 8.2385,-38.5897 -3.8877,-20.6822 -8.4315,-12.5726 -11.3441,-5.5182 c 0,0 -3.9856,-10.4237 -4.446,-11.1923 -0.4612,-0.7651 -10.7309,-13.7948 -10.7309,-13.7948 l -14.2568,-9.505 c 0,0 -8.2789,-6.5922 -11.1907,-9.0452 -2.9127,-2.4384 -15.1771,-9.6578 -15.7901,-9.6578 -0.6157,0 -35.2594,5.0584 -38.0182,4.7524 -2.7594,-0.3092 -14.104,-3.9868 -19.0096,-5.521 -4.906,-1.531 -16.5564,-4.5962 -22.3817,-3.0648 -5.8252,1.531 -10.1178,0.9356 -15.6365,6.1328 -5.5188,5.2118 -9.5045,10.1174 -10.4242,15.3292 -0.9212,5.2118 -1.8402,11.651 -1.8402,11.651 0,0 -1.2257,-10.1172 -13.7965,-3.9833 -12.5715,6.1299 -17.784,1.2192 -21.1562,17.4751 -3.3727,16.2476 -4.2926,21.1537 -1.84,38.3252 2.4524,17.1699 0.6156,30.3519 0.6156,30.3519 l 15.0232,49.3618 20.2357,35.8722 -67.1456,18.0914 -52.1217,14.1036 -11.6505,-7.9736 -74.8105,-9.1982 h -4.2919 v -55.1858 l -22.6887,-56.416 -19.6222,-30.6582 15.9431,-41.084 0.6384,-35.6887 -19.0784,-99.7268 18.2112,-48.5616 37.2892,-69.3773 41.6251,-57.2328 48.5636,-30.3518 45.961,-13.0103 46.8287,2.6095 c 0,0 42.4925,20.8128 46.8283,23.4158 4.3364,2.6088 58.1021,23.4131 58.1021,23.4131 l 48.5629,21.6777 53.4086,18.5502 22.9952,1.985 z"
       style="fill:#00bafc;fill-opacity:1;stroke:none;stroke-width:0.99999982px;stroke-linecap:butt;stroke-linejoin:miter;stroke-opacity:1" />
    <path
       style="fill:#053174;fill-opacity:0.0486725;stroke:none;stroke-width:15;stroke-linecap:square;stroke-miterlimit:4.7"
       d="m -1794.2753,2532.37 25,-49 55.5,-56 67,14.5 -75,60 -39.5,45.5 z"
       id="path15" />
    <path
       style="fill:#4dd0ff;fill-opacity:1;stroke:none;stroke-width:15;stroke-linecap:square;stroke-miterlimit:4.7"
       d="m -1890.7696,2209.5244 c 37.7492,-23.2646 80.602,-37.8865 123.3852,-27.6174 114.9237,27.5845 241.3308,165.3618 376.676,134.4387 l -127.992,-54.775 -120.6954,-56.0112 -90.3795,-52.6895 -62,-10.5 -48,17 -16.5,10 z"
       id="path7"
       sodipodi:nodetypes="cscccccccc" />
    <path
       style="fill:#00a3dd;fill-opacity:1;stroke:none;stroke-width:15;stroke-linecap:square;stroke-miterlimit:4.7"
       d="m -1860.1471,2168.716 c 0,0 -62.5167,-3.647 -64.9337,-3.159 -2.4172,0.488 -92.8172,36.5987 -92.8172,36.5987 l -72.03,52.2141 -53.1766,59.0458 -37.2235,51.2381 -17.4032,48.7983 68.5951,46.1298 c 0,0 51.9239,-170.8715 238.3666,-250.0574 z"
       id="path1"
       sodipodi:nodetypes="cscccccccc" />
    <path
       sodipodi:nodetypes="ccscccccccccc"
       inkscape:connector-curvature="0"
       id="path14492"
       d="m -1892.0367,2210.5992 c 157.9026,-181.5262 282.091,119.924 501.3283,105.7465 -18.3501,45.2384 -39.6299,73.3678 -87.4794,92.065 -126.7205,49.517 -281.6355,7.205 -384.337,-56.1664 -0.1117,0.3677 -0.2568,0.7371 -0.3676,1.1054 -47.2778,143.5557 13.7574,214.9129 116.5949,197.8627 l 3.7362,-24.4857 c -91.39,12.2954 -138.2318,-49.37 -111.648,-152.4136 55.7602,42.5106 168.8241,72.8338 255.0143,73.9881 l 24.603,0.537 c 28.6451,0.2802 78.2906,-3.8824 106.5278,-14.4186 63.2108,-24.5394 95.4307,-70.679 111.8479,-137.726 -237.1384,-2.3823 -403.8217,-309.5293 -535.8193,-86.0961 z"
       style="opacity:1;fill:#053174;fill-opacity:1;stroke:none;stroke-width:0.99999982px;stroke-linecap:butt;stroke-linejoin:miter;stroke-opacity:1" />
    <path
       id="path14494"
       d="m -1821.921,2581.6885 c -5.6495,6.2928 -11.2541,12.9701 -16.7636,20.1044 -27.0094,34.9793 -49.4897,77.5266 -62.7299,125.5214 -0.1976,0.6805 -0.3852,1.3611 -0.572,2.0704 -12.3886,46.4436 -15.1633,91.5711 -12.426,132.1701 0.5486,0.2802 1.0325,0.3153 1.5967,0.537 8.9902,3.2951 11.0891,5.3985 15.8841,5.0981 1.2443,0 2.8395,-0.4553 4.5571,-0.9362 1.5993,-40.333 6.5904,-84.3552 18.7998,-129.227 0.1698,-0.6496 0.3503,-1.2759 0.5254,-1.9283 16.5787,-60.5227 43.5686,-110.1897 71.4195,-150.7953 l -11.2251,0.4028 z"
       style="opacity:1;fill:#053174;fill-opacity:1;stroke:none;stroke-width:0.99999982px;stroke-linecap:butt;stroke-linejoin:miter;stroke-opacity:1"
       inkscape:connector-curvature="0" />
    <path
       style="opacity:1;fill:#053174;fill-opacity:1;stroke:none;stroke-width:0.99999982px;stroke-linecap:butt;stroke-linejoin:miter;stroke-opacity:1"
       d="m -1901.3934,2157.161 c 18.7414,0 37.2536,3.3621 55.0094,10.5362 -2.0413,1.3045 -4.0287,2.5523 -5.5595,3.4457 -13.5835,-1.9003 -28.2204,-2.4676 -43.6498,-1.078 -22.457,2.0136 -45.5897,7.9818 -69.2445,17.8078 -47.4088,19.6555 -90.7802,51.9672 -131.4103,93.0658 -4.7385,4.8173 -9.3965,9.7141 -13.9693,14.6995 -36.673,39.964 -66.3869,83.5829 -89.5127,128.3737 -0.8358,1.6161 -1.6107,3.2188 -2.4214,4.8319 l -23.5654,2.722 c 2.1466,-5.4866 4.4279,-11.019 6.8711,-16.6077 20.9467,-48.1164 50.7514,-95.0648 89.2776,-137.0594 42.2258,-49.8918 137.8748,-121.3364 228.1759,-120.7184 z"
       id="path14496"
       inkscape:connector-curvature="0" />
    <path
       style="fill:#00a3dd;fill-opacity:1;stroke:none;stroke-width:15;stroke-linecap:square;stroke-miterlimit:4.7"
       d="m -2365.3633,2433.2234 c 26.4081,-19.0086 75.9785,-37.0722 111.6276,-44.0673 15.5833,-31.6948 41.0208,-57.5876 48.0723,-83.9042 l 65.2197,-9.8711 -79.3213,131.4969 -95.5378,37.3691 z"
       id="path2"
       sodipodi:nodetypes="ccccccc" />
    <path
       style="fill:#00a3dd;fill-opacity:1;stroke:none;stroke-width:15;stroke-linecap:square;stroke-miterlimit:4.7"
       d="m -2267.2522,2445.5084 c -39.05,162.0048 -16.5844,231.7085 104.0486,372.3225 l -58.8217,-8.2109 -98.6794,-51.813 -57.2756,-101.1163 12.205,-125.3207 48.5,-70.5 z"
       id="path3"
       sodipodi:nodetypes="cccccccc" />
    <path
       style="opacity:1;fill:#053174;fill-opacity:1;stroke:none;stroke-width:0.99999982px;stroke-linecap:butt;stroke-linejoin:miter;stroke-opacity:1"
       d="m -2131.6437,2295.1102 -5.6541,7.069 c -139.5124,22.7302 -237.0517,61.9851 -289.41,104.8021 43.561,10.296 86.4154,28.3045 122.7074,48.6977 l -26.3785,9.9958 c -49.9046,-20.1633 -103.786,-36.721 -154.7592,-45.3544 67.6547,-79.1097 221.6446,-123.9682 353.4944,-125.2102 z"
       id="path14498"
       inkscape:connector-curvature="0" />
    <path
       style="opacity:1;fill:#053174;fill-opacity:1;stroke:none;stroke-width:0.99999982px;stroke-linecap:butt;stroke-linejoin:miter;stroke-opacity:1"
       d="m -1834.0669,2304.8535 c 14.9165,0 29.5819,2.1834 43.366,5.7499 31.085,7.9087 59.649,21.497 84.9349,34.4723 28.4141,14.5182 54.1871,29.1803 78.8946,40.4578 25.9909,11.7339 47.787,19.3614 70.9848,19.1256 -22.7268,3.9015 -47.1622,-0.7937 -74.5384,-10.1086 -28.1294,-9.4513 -52.0642,-20.7567 -82.6581,-33.9247 -25.8193,-11.0644 -53.9929,-22.7755 -82.5658,-28.7379 -25.04,-5.1214 -51.8713,-6.0314 -75.1196,2.8522 -19.8523,7.2136 -37.9438,19.5539 -54.342,34.4833 -4.6271,4.2137 -9.1094,8.6225 -13.4469,13.1684 -24.3871,25.7264 -43.6784,56.1266 -59.5799,87.3888 -10.7459,21.1502 -19.8166,42.5275 -27.5072,63.7321 l -14.8505,-18.1503 c 6.079,-18.3863 13.3296,-36.9532 21.9671,-55.4983 15.5009,-33.3083 35.551,-66.0682 61.9755,-94.3894 4.6714,-5.0384 9.5796,-9.9299 14.7209,-14.6118 18.2313,-16.6019 39.2451,-30.4201 62.8915,-38.8465 14.7886,-5.0532 29.956,-7.1828 44.8731,-7.1629 z"
       id="path14500"
       inkscape:connector-curvature="0" />
    <path
       inkscape:connector-curvature="0"
       style="opacity:1;vector-effect:none;fill:#053174;fill-opacity:1;fill-rule:nonzero;stroke:none;stroke-width:1.99999893;stroke-linecap:round;stroke-linejoin:miter;stroke-miterlimit:4;stroke-dasharray:none;stroke-dashoffset:0;stroke-opacity:1;marker:none;paint-order:normal"
       d="m -1771.595,2182.9149 a 51.602954,58.610764 5.4473318 0 0 -56.9315,53.4406 51.602954,58.610764 5.4473318 0 0 7.4226,36.8243 c 2.3368,-0.2041 5.6134,-0.5254 6.2933,-0.5193 2.6193,0 6.3936,-0.7046 16.5308,0.5017 10.1346,1.2314 15.0512,2.2961 19.5481,3.1733 4.5004,0.8481 9.9952,2.6958 14.9981,5.1389 5.0012,2.4548 8.1008,4.2627 12.4553,6.6412 0.7464,0.4085 1.4345,0.9822 2.2039,1.477 a 51.602954,58.610764 5.4473318 0 0 23.2966,-43.4366 51.602954,58.610764 5.4473318 0 0 -45.8172,-63.2394 z"
       id="path14502" />
    <path
       inkscape:connector-curvature="0"
       style="opacity:1;vector-effect:none;fill:#ffffff;fill-opacity:1;fill-rule:nonzero;stroke:none;stroke-width:1.99999893;stroke-linecap:round;stroke-linejoin:miter;stroke-miterlimit:4;stroke-dasharray:none;stroke-dashoffset:0;stroke-opacity:1;marker:none;paint-order:normal"
       d="m -1768.1388,2196.2782 a 42.061423,47.773468 5.4473318 0 0 -46.4049,43.5652 42.061423,47.773468 5.4473318 0 0 7.6682,32.6746 c 2.2569,0.064 4.8996,0.2041 8.5957,0.6431 10.1346,1.2321 15.0512,2.296 19.5481,3.1733 4.5004,0.8479 9.9947,2.6963 14.9981,5.1387 3.6879,1.8106 6.2999,3.3035 9.1853,4.8979 a 42.061423,47.773468 5.4473318 0 0 23.7437,-38.5411 42.061423,47.773468 5.4473318 0 0 -37.3348,-51.5506 z"
       id="path14504" />
    <path
       style="opacity:1;vector-effect:none;fill:#053174;fill-opacity:1;fill-rule:nonzero;stroke:none;stroke-width:1.99999964;stroke-linecap:round;stroke-linejoin:miter;stroke-miterlimit:4;stroke-dasharray:none;stroke-dashoffset:0;stroke-opacity:1;marker:none;paint-order:normal"
       d="m -1750.2517,2249.8263 a 26.451528,30.043717 5.4473322 0 1 -29.1839,27.3964 26.451528,30.043717 5.4473322 0 1 -23.4799,-32.4185 26.451528,30.043717 5.4473322 0 1 29.1837,-27.3956 26.451528,30.043717 5.4473322 0 1 23.4801,32.4177 z"
       id="path14506"
       inkscape:connector-curvature="0" />
    <path
       style="opacity:1;vector-effect:none;fill:#ffffff;fill-opacity:1;fill-rule:nonzero;stroke:none;stroke-width:1.99999964;stroke-linecap:round;stroke-linejoin:miter;stroke-miterlimit:4;stroke-dasharray:none;stroke-dashoffset:0;stroke-opacity:1;marker:none;paint-order:normal"
       d="m -1748.5329,2231.8266 a 10.527805,11.957507 5.4473322 0 1 -11.6153,10.9041 10.527805,11.957507 5.4473322 0 1 -9.3451,-12.9035 10.527805,11.957507 5.4473322 0 1 11.6153,-10.9041 10.527805,11.957507 5.4473322 0 1 9.3451,12.9035 z"
       id="path14508"
       inkscape:connector-curvature="0" />
    <path
       style="opacity:1;vector-effect:none;fill:#ffffff;fill-opacity:1;fill-rule:nonzero;stroke:none;stroke-width:1.99999964;stroke-linecap:round;stroke-linejoin:miter;stroke-miterlimit:4;stroke-dasharray:none;stroke-dashoffset:0;stroke-opacity:1;marker:none;paint-order:normal"
       d="m -1774.5354,2243.5616 a 4.9671408,5.6416899 5.4473322 0 1 -5.4808,5.1471 4.9671408,5.6416899 5.4473322 0 1 -4.4082,-6.0902 4.9671408,5.6416899 5.4473322 0 1 5.4798,-5.1441 4.9671408,5.6416899 5.4473322 0 1 4.4092,6.0872 z"
       id="path14510"
       inkscape:connector-curvature="0" />
    <path
       style="opacity:1;fill:#053174;fill-opacity:1;stroke:none;stroke-width:0.99999982px;stroke-linecap:butt;stroke-linejoin:miter;stroke-opacity:1"
       d="m -1800.1713,2267.2144 c 37.552,3.2975 64.4235,25.7494 76.4142,43.5933 -18.8682,-10.6501 -45.7648,-25.5141 -77.7209,-28.0378 0,0 -0.1977,0 -0.1977,0 -30.8707,-2.6659 -62.8938,5.512 -83.1901,9.1952 16.771,-12.6093 48.0764,-27.5445 84.4641,-24.7571 0.058,0 0.1698,0 0.2278,0 z"
       id="path14512"
       inkscape:connector-curvature="0" />
    <path
       style="fill:#00a3dd;fill-opacity:1;stroke:none;stroke-width:15;stroke-linecap:square;stroke-miterlimit:4.7"
       d="m -2163.2036,2817.8309 -114.2065,-30.7597 1.5576,46.1789 -0.4228,10.1199 52.5,118 41.5,31 c 7.631,5.6928 -1.752,-8.3245 -22.914,-77.7379 -10.4737,-34.3549 0.3585,-74.4884 41.9857,-96.8012 z"
       id="path4"
       sodipodi:nodetypes="ccccccsc" />
    <path
       style="fill:#4dd0ff;fill-opacity:1;stroke:none;stroke-width:15;stroke-linecap:square;stroke-miterlimit:4.7"
       d="m -2063.5473,2758.7208 c 17.8695,-150.1889 -7.152,-233.7675 -40.7827,-298.9593 l 68.1591,71.9821 23.0577,101.2591 -16.9706,62.9324 -9.1924,27.5772 z"
       id="path8"
       sodipodi:nodetypes="ccccccc" />
    <path
       style="fill:#4dd0ff;fill-opacity:1;stroke:none;stroke-width:15;stroke-linecap:square;stroke-miterlimit:4.7"
       d="m -2063.5473,2758.7208 28.4065,-47.5095 43.7777,84.106 -1.5759,58.4403 c -17.458,-37.3068 -29.0106,-80.0815 -70.6083,-95.0368 z"
       id="path9"
       sodipodi:nodetypes="ccccc" />
    <path
       style="opacity:1;fill:#053174;fill-opacity:1;stroke:none;stroke-width:0.99999982px;stroke-linecap:butt;stroke-linejoin:miter;stroke-opacity:1"
       d="m -2294.6303,2434.7699 c 9.2016,-4.7438 18.8938,-8.8129 29.0024,-12.1162 23.7893,-7.707 49.4511,-11.5887 75.2832,-10.2988 0,0 0,0 0,0 23.5181,1.2757 46.2552,6.9667 66.6011,16.2734 43.0754,20.0477 73.3007,53.348 91.4239,87.9533 0,0 0,0 0,0 21.9592,41.4587 28.4861,85.0922 24.3977,124.1061 -5.185,50.0482 -28.2196,90.6392 -55.6253,118.0331 21.41,-31.3246 36.4951,-72.12 35.9465,-118.7555 -0.4611,-36.4631 -10.2399,-75.6732 -32.2842,-111.3184 0,0 0,0 0,0 -18.4329,-29.4507 -45.5581,-57.0349 -80.355,-71.3682 -16.1847,-6.8227 -34.0823,-10.8772 -52.0885,-11.501 0,0 0,0 0,0 -19.8416,-0.7944 -40.2629,2.6653 -59.748,8.9722 -7.8879,2.523 -15.5042,5.6985 -22.7826,9.4472 -28.7083,14.7763 -52.0221,38.3142 -66.0451,64.9857 -19.1172,36.1758 -23.3247,77.7028 -17.1885,116.1501 7.1605,43.4151 27.5954,82.3813 57.3075,111.3609 38.7795,38.2062 92.984,55.9055 137.5816,61.1371 -44.9751,1.8432 -104.6562,-9.2861 -152.7778,-47.9693 -36.1371,-29.2912 -63.199,-71.1719 -74.0545,-119.7284 -9.7998,-42.8905 -6.937,-90.5479 14.4828,-134.4049 16.3138,-33.2191 44.573,-62.2211 80.9228,-80.9584 z"
       id="path14514"
       inkscape:connector-curvature="0" />
    <path
       style="opacity:1;fill:#053174;fill-opacity:1;stroke:none;stroke-width:0.99999982px;stroke-linecap:butt;stroke-linejoin:miter;stroke-opacity:1"
       d="m -2031.4226,2701.1223 c 16.6652,13.7608 32.9478,33.261 42.8608,58.8353 0.3503,0.9356 0.6922,1.8997 1.0216,2.8357 11.3806,32.98 7.6863,64.6221 -1.0188,88.1716 -4.8082,-0.2802 -8.2641,-0.4261 -11.3965,-0.2802 0,-24.0912 -1.4034,-52.5601 -11.1641,-79.6821 -0.286,-0.7935 -0.572,-1.56 -0.8668,-2.3531 -6.3597,-17.6578 -16.0299,-34.4744 -25.87,-49.5713 l 2.6538,-4.2505 z"
       id="path14516"
       inkscape:connector-curvature="0" />
    <path
       style="opacity:1;fill:#053174;fill-opacity:1;stroke:none;stroke-width:0.99999982px;stroke-linecap:butt;stroke-linejoin:miter;stroke-opacity:1"
       d="m -2285.3195,2783.5153 7.9094,3.5559 c 6.3721,43.6814 21.0002,96.1388 57.9555,143.9778 0.286,0.3677 0.5428,0.7091 0.8202,1.0499 20.7596,26.668 46.596,47.7247 73.5386,62.9267 27.139,15.3093 52.7878,23.334 75.0835,28.4403 -22.3086,4.2109 -51.9289,3.235 -84.1882,-8.6201 -32.2952,-11.8642 -63.8346,-33.5421 -87.9578,-64.3899 -0.3094,-0.391 -0.621,-0.7937 -0.9304,-1.1899 -23.857,-31.0388 -37.7616,-66.4937 -42.9524,-100.5977 -3.7212,-24.4588 -2.7529,-46.5902 0.724,-65.1466 z"
       id="path14518"
       inkscape:connector-curvature="0" />
    <path
       style="opacity:1;fill:#053174;fill-opacity:1;stroke:none;stroke-width:0.99999982px;stroke-linecap:butt;stroke-linejoin:miter;stroke-opacity:1"
       d="m -1732.9312,2921.1529 c -12.5528,25.642 -33.9003,55.6932 -66.446,83.4646 -32.6651,27.8736 -73.6021,50.7794 -120.0382,63.8627 -4.9673,1.389 -9.9662,2.6649 -14.9876,3.8252 -40.7836,9.5469 -81.9198,9.32 -118.4078,-2.8359 -33.0305,-11.1235 -56.4839,-31.5459 -71.1492,-52.1937 3.6744,0.5662 7.5445,0.9643 11.1804,1.3034 17.4103,13.6902 39.3145,25.5489 65.4713,31.1658 33.2681,7.3298 69.3717,4.9451 106.6556,-3.9301 4.6231,-1.1335 9.2296,-2.3245 13.8176,-3.6348 42.8526,-12.1134 81.6907,-31.0633 115.3192,-53.6177 33.6486,-22.568 58.8972,-46.5229 78.5847,-67.4211 z"
       id="path14520"
       inkscape:connector-curvature="0" />
    <path
       style="fill:#00a3dd;fill-opacity:1;stroke:none;stroke-width:15;stroke-linecap:square;stroke-miterlimit:4.7"
       d="m -2099.2857,2875.986 c 5.3181,12.0149 4.1376,23.4756 1.253,34.7908 l 28.5074,-17.5825 z"
       id="path5"
       sodipodi:nodetypes="cccc" />
    <path
       style="fill:#4dd0ff;fill-opacity:1;stroke:none;stroke-width:15;stroke-linecap:square;stroke-miterlimit:4.7"
       d="m -2089.7143,2911.7761 c 55.0728,-19.1485 114.8597,-33.583 179.3606,-43.3035 0,0 -15.6316,-10.4588 -27.4719,-11.9146 -11.8403,-1.4558 -84.8336,3.7795 -84.8336,3.7795 z"
       id="path10"
       sodipodi:nodetypes="ccscc" />
    <path
       style="opacity:1;fill:#053174;fill-opacity:1;stroke:none;stroke-width:0.99999982px;stroke-linecap:butt;stroke-linejoin:miter;stroke-opacity:1"
       d="m -1973.8222,2841.4231 c 34.0819,-0.2802 63.2867,12.3934 82.7241,26.0872 l -6.1609,4.0322 c -26.8657,-6.7263 -61.5461,-13.1287 -95.7487,-5.8952 -1.534,0.3153 -3.0601,0.6234 -4.5829,0.9642 -42.7486,9.6292 -81.4247,38.2915 -106.1122,54.5223 15.011,-26.0358 49.2881,-63.962 101.0448,-76.3163 1.7665,-0.4261 3.5448,-0.7944 5.334,-1.162 8.0403,-1.4743 15.8925,-2.1834 23.5018,-2.2405 z"
       id="path14522"
       inkscape:connector-curvature="0" />
    <path
       style="opacity:1;fill:#053174;fill-opacity:1;stroke:none;stroke-width:0.99999982px;stroke-linecap:butt;stroke-linejoin:miter;stroke-opacity:1"
       d="m -1781.1643,2833.5767 4.0884,5.9577 c -26.3388,7.6416 -61.0975,16.9453 -94.7766,29.3107 -46.8964,17.2043 -74.2249,32.8193 -103.8762,49.1494 18.4081,-23.9436 51.8221,-49.736 97.4394,-66.6164 35.2217,-13.0202 69.8328,-17.8241 97.125,-17.8014 z"
       id="path14524"
       inkscape:connector-curvature="0" />
    <path
       style="opacity:1;fill:#053174;fill-opacity:1;stroke:none;stroke-width:0.99999982px;stroke-linecap:butt;stroke-linejoin:miter;stroke-opacity:1"
       d="m -1905.9219,2979.6672 c 1.2334,-0.4259 2.4612,-0.8788 3.6898,-1.3032 0,0 0,0 0,0 51.5566,-18.5133 92.0446,-46.4383 123.2219,-65.7857 -18.4017,30.843 -57.1631,70.2628 -113.832,91.4076 0,0 0,0 0,0 -1.358,0.5138 -2.7218,0.993 -4.0876,1.4743 -59.2328,20.5662 -115.81,13.0266 -150.0119,-1.5314 38.2633,-2.8748 87.3275,-5.4183 141.0198,-24.2412 z"
       id="path14526"
       inkscape:connector-curvature="0" />
    <path
       style="opacity:1;fill:#053174;fill-opacity:1;stroke:none;stroke-width:0.99999982px;stroke-linecap:butt;stroke-linejoin:miter;stroke-opacity:1"
       d="m -2116.8532,2817.0058 c 6.1753,12.5783 13.0242,31.2394 24.8181,45.99 0.257,0.3444 0.5428,0.6801 0.8174,0.9929 7.3442,9.2809 16.5463,16.84 25.0582,23.3084 -3.1407,2.2966 -6.1072,4.5279 -8.8654,6.6178 -9.8168,-3.4481 -20.0934,-9.6894 -28.5793,-19.7862 -0.3444,-0.4261 -0.6777,-0.8515 -1.0063,-1.2474 -15.0816,-19.4804 -16.0608,-42.3524 -12.2393,-55.8721 z"
       id="path14528"
       inkscape:connector-curvature="0" />
    <path
       style="fill:#4dd0ff;fill-opacity:1;stroke:none;stroke-width:15;stroke-linecap:square;stroke-miterlimit:4.7"
       d="m -1611.0277,2694.7516 c 4.14,23.2132 0.3827,45.3886 -2.4791,67.6962 l 16.3511,-12.3875 0.2315,-39.977 z"
       id="path13"
       sodipodi:nodetypes="ccccc" />
    <path
       style="opacity:1;fill:#053174;fill-opacity:1;stroke:none;stroke-width:0.99999982px;stroke-linecap:butt;stroke-linejoin:miter;stroke-opacity:1"
       d="m -1625.8787,2836.645 c -12.0693,20.203 -25.6155,38.9006 -40.6312,55.5453 0,0 0,0 0,0 -13.448,15.1534 -29.1225,26.5442 -46.0958,32.1948 -17.5671,5.6828 -34.2299,4.0558 -46.4563,0.5662 12.6244,-1.1352 28.1057,-4.1549 41.52,-11.9243 13.3745,-7.5428 24.5813,-19.0859 35.4433,-33.61 0,0 0,0 0,0 12.7049,-17.2004 24.5156,-35.3081 36.1509,-54.7686 0.3326,-0.5661 0.6751,-1.1341 1.0118,-1.7013 12.2043,-20.569 22.8731,-40.1487 31.4292,-60.4993 7.1558,-18.0687 13.0634,-32.2632 11.7081,-47.3908 0,0 0,0 0,0 -0.4727,-5.5999 -2.0555,-10.8345 -5.4137,-14.6397 -4.1285,-4.9961 -11.2309,-7.7753 -17.4464,-9.2384 6.3319,-0.879 14.4338,-0.624 21.7944,4.0919 5.7384,3.8875 10.0892,10.2362 12.1623,17.6086 0,0 0,0 0,0 5.0997,17.8639 1.8007,37.1628 -4.3183,56.181 -6.8348,22.639 -17.2029,44.5211 -29.8078,65.805 -0.35,0.5971 -0.6979,1.1906 -1.0522,1.7578 z"
       id="path14530"
       inkscape:connector-curvature="0" />
    <path
       style="fill:#4dd0ff;fill-opacity:1;stroke:none;stroke-width:15;stroke-linecap:square;stroke-miterlimit:4.7"
       d="m -1657.3719,2694.3591 c -5.7559,-23.8419 -16.5536,-39.8409 -28.2391,-54.4588 l 28.2868,8.5549 11.6054,21.0594 z"
       id="path11"
       sodipodi:nodetypes="ccccc" />
    <path
       style="fill:#4dd0ff;fill-opacity:1;stroke:none;stroke-width:15;stroke-linecap:square;stroke-miterlimit:4.7"
       d="m -1630.8773,2729.8041 c -2.4666,-24.4286 -7.4567,-48.5417 -15.2562,-72.3037 l 21.1068,18.236 4.0014,29.1336 z"
       id="path12"
       sodipodi:nodetypes="ccccc" />
    <path
       style="opacity:1;fill:#053174;fill-opacity:1;stroke:none;stroke-width:0.99999982px;stroke-linecap:butt;stroke-linejoin:miter;stroke-opacity:1"
       d="m -1650.9878,2651.9285 c 12.0808,0 26.148,4.8342 34.9154,20.2941 0.3092,0.6799 0.6046,1.3604 0.8737,2.0415 10.2444,25.5258 -5.1003,47.4925 -15.6786,55.54 2.2426,-12.9016 7.5917,-35.2203 0.7733,-49.0325 v 0 c -0.1977,-0.426 -0.4203,-0.8509 -0.6491,-1.2477 -3.203,-8.3535 -12.37,-14.0901 -21.7893,-18.105 -0.4319,-1.361 -0.8954,-2.8072 -1.3552,-4.429 -0.4495,-1.5875 -1.0091,-3.2382 -1.5742,-4.8401 1.4552,0 2.9511,-0.2802 4.4847,-0.2802 z"
       id="path14532"
       inkscape:connector-curvature="0" />
    <path
       style="opacity:1;fill:#053174;fill-opacity:1;stroke:none;stroke-width:0.99999982px;stroke-linecap:butt;stroke-linejoin:miter;stroke-opacity:1"
       d="m -1750.9543,2627.4546 c 2.3823,0 4.851,0.28 7.3928,0.8227 10.9612,2.7223 22.4313,4.469 33.7677,4.5227 7.7535,0 15.3296,-0.7091 22.6659,-2.4104 15.4698,-3.6413 30.4305,3.3739 37.6675,15.3086 10.3714,20.6267 -0.6208,39.7354 -7.9115,48.6609 2.1214,-11.3558 4.7244,-31.4344 -4.5343,-40.3014 -4.2932,-5.2628 -13.4025,-7.2815 -20.2095,-4.9591 -8.9807,2.6939 -18.3237,3.9749 -27.7213,3.9786 -13.804,0 -27.1684,-2.7794 -39.2702,-7.424 -5.2875,-3.2811 -14.4418,0.4786 -20.0744,5.7447 -5.0164,4.9761 -8.2836,11.1755 -10.0778,17.4984 -1.3136,-0.2799 -3.4456,-0.4551 -5.705,-0.6805 -0.7258,-7.4516 0.6414,-16.0602 5.6637,-24.4113 5.1845,-8.8071 15.4837,-16.3448 28.3464,-16.3413 z"
       id="path14534"
       inkscape:connector-curvature="0" />
    <path
       style="fill:#00a3dd;fill-opacity:1;stroke:none;stroke-width:15;stroke-linecap:square;stroke-miterlimit:4.7"
       d="m -1812.2949,2766.6458 -6.3639,-73.5391 14.8492,-23.688 15.9099,-4.5962 20.5061,31.4663 c -30.3802,3.6853 -33.487,61.4744 -33.5876,114.1977 z"
       id="path6"
       sodipodi:nodetypes="ccccccc" />
    <path
       style="opacity:1;fill:#053174;fill-opacity:1;stroke:none;stroke-width:0.99999982px;stroke-linecap:butt;stroke-linejoin:miter;stroke-opacity:1"
       d="m -1790.9233,2657.33 c 4.339,0 8.4599,1.2759 12.0696,3.2805 9.1934,5.4978 14.8354,13.2596 19.1303,19.818 3.3961,5.9944 6.6599,11.8098 9.9417,17.3508 5.6074,-6.6973 11.5244,-14.8185 14.6631,-23.2859 -2.8972,19.0784 -0.5866,47.6747 17.245,61.1774 -22.7557,-10.5117 -39.2087,-27.7943 -55.4561,-45.4287 -4.9877,-6.3144 -8.9189,-12.3543 -13.7789,-14.5516 -1.5426,-0.7944 -3.2578,-1.2478 -4.6983,-1.106 -0.9781,0 -2.0583,0.2802 -3.2302,0.6805 -1.2824,0.4786 -2.6713,1.1625 -4.1456,1.9277 -2.5744,1.1345 -4.6235,4.574 -6.5956,8.4732 -2.4612,5.3869 -3.6409,11.7393 -4.4578,18.374 -2.1011,17.9208 -0.1698,36.4085 2.9281,53.8078 3.8274,21.0084 9.4992,39.61 17.4324,56.2323 8.409,17.2199 17.1793,29.872 30.2607,37.4288 -14.2714,-4.5681 -26.8261,-16.5738 -37.433,-33.4257 -10.4329,-16.2727 -18.4524,-35.4976 -23.9118,-57.2722 -4.5833,-18.0034 -7.5477,-37.9028 -5.844,-58.4129 0.5894,-7.5965 2.0444,-15.6466 5.3244,-23.5233 2.365,-6.1194 6.7551,-12.2835 13.6694,-16.6311 2.1208,-1.3043 4.5156,-2.4384 7.16,-3.3231 2.4185,-0.7937 5.0432,-1.3612 7.8561,-1.5881 0.6264,0 1.2538,0 1.8711,0 z"
       id="path14536"
       inkscape:connector-curvature="0" />
    <path
       style="opacity:1;fill:#053174;fill-opacity:1;stroke:none;stroke-width:0.99999982px;stroke-linecap:butt;stroke-linejoin:miter;stroke-opacity:1"
       d="m -1675.8052,2753.8433 c 9.233,-19.0631 11.9159,-29.4837 16.9992,-44.0046 3.7943,12.272 2.8651,30.6804 -6.0335,49.2789 -8.834,18.4398 -22.6472,31.166 -33.9037,36.7665 5.5101,-10.7809 15.1981,-26.0392 22.938,-42.0408 z"
       id="path14538"
       inkscape:connector-curvature="0" />
    <path
       style="opacity:1;fill:#053174;fill-opacity:1;stroke:none;stroke-width:0.99999982px;stroke-linecap:butt;stroke-linejoin:miter;stroke-opacity:1"
       d="m -1657.0556,2788.1054 c 13.1306,-20.6822 17.7272,-30.4848 24.9105,-46.2726 2.0018,14.1857 -2.5435,33.5331 -14.8681,52.6897 -0.2276,0.3676 -0.4667,0.7091 -0.6949,1.078 0,0 0,0 0,0 -12.0865,18.5955 -27.1437,30.6522 -40.3693,35.1094 11.0983,-13.7695 16.9919,-20.8694 30.3804,-41.5836 0,0 0,0 0,0 0,0 0.6444,-1.0209 0.6444,-1.0209 z"
       id="path14540"
       inkscape:connector-curvature="0" />
    <path
       sodipodi:nodetypes="ccccccc"
       inkscape:connector-curvature="0"
       id="path14542"
       d="m -1746.2988,2551.2462 42.6128,-57.2244 73.9385,-50.3988 -30.2594,-8.5416 -64.898,44.4879 -50.1097,67.0435 z"
       style="fill:#053174;fill-opacity:1;stroke:none;stroke-width:0.99999982px;stroke-linecap:butt;stroke-linejoin:miter;stroke-opacity:1" />
    <path
       sodipodi:nodetypes="ccccccccccc"
       inkscape:connector-curvature="0"
       id="path14544"
       d="m -1712.1983,2476.4499 -68.1407,-2.3825 -12.461,-39.6437 -35.9723,16.1602 -15.2655,-27.0146 -1.6783,2.467 12.5695,34.4239 32.6916,-10.931 6.9955,38.5949 72.4853,12.8844 z"
       style="fill:#053174;fill-opacity:1;stroke:none;stroke-width:0.99999982px;stroke-linecap:butt;stroke-linejoin:miter;stroke-opacity:1" />
    <path
       sodipodi:nodetypes="cccc"
       inkscape:connector-curvature="0"
       id="path14546"
       d="m -1771.7375,2548.572 26.1933,0.9928 c -12.102,77.7596 -136.4343,46.5738 -147.0271,-34.3023 29.5259,59.7061 116.6323,82.9265 120.8338,33.3095 z"
       style="fill:#053174;fill-opacity:1;stroke:none;stroke-width:0.99999982px;stroke-linecap:butt;stroke-linejoin:miter;stroke-opacity:1" />
    <path
       style="fill:#053174;fill-opacity:0.0486725;stroke:none;stroke-width:15;stroke-linecap:square;stroke-miterlimit:4.7"
       d="m -1892.5713,2515.2625 c -18.1347,92.9561 -48.2157,180.1201 -110.1361,251.8468 l 9.7684,86.6483 91.9044,7.5054 13.3794,-136.4647 70.2672,-141.6011 -51.1219,-27.6227 -11.6672,-14.4957 z"
       id="path14"
       sodipodi:nodetypes="ccccccccc" />
  </g>
  <inkscape:templateinfo>
    <inkscape:name>Inkscape Default 2</inkscape:name>
    <inkscape:date>2020-07-13</inkscape:date>
  </inkscape:templateinfo>
  <inkscape:templateinfo>
    <inkscape:name>Content Creation</inkscape:name>
    <inkscape:date>2020-07-14</inkscape:date>
  </inkscape:templateinfo>
</svg>
