<?xml version="1.0" encoding="UTF-8" standalone="no"?>
<!-- Created with Inkscape (http://www.inkscape.org/) -->

<svg
   width="1280"
   height="775.65991"
   viewBox="0 0 1279.9999 775.65996"
   version="1.1"
   id="svg5"
   inkscape:version="1.4.2 (f4327f4, 2025-05-13)"
   xml:space="preserve"
   sodipodi:docname="13.svg"
   xmlns:inkscape="http://www.inkscape.org/namespaces/inkscape"
   xmlns:sodipodi="http://sodipodi.sourceforge.net/DTD/sodipodi-0.dtd"
   xmlns="http://www.w3.org/2000/svg"
   xmlns:svg="http://www.w3.org/2000/svg"><sodipodi:namedview
     id="namedview7"
     pagecolor="#ffffff"
     bordercolor="#666666"
     borderopacity="1.0"
     inkscape:showpageshadow="2"
     inkscape:pageopacity="0.0"
     inkscape:pagecheckerboard="0"
     inkscape:deskcolor="#d1d1d1"
     inkscape:document-units="px"
     showgrid="false"
     showborder="false"
     inkscape:zoom="0.47022002"
     inkscape:cx="1026.1154"
     inkscape:cy="507.20937"
     inkscape:window-width="1920"
     inkscape:window-height="991"
     inkscape:window-x="-9"
     inkscape:window-y="-9"
     inkscape:window-maximized="1"
     inkscape:current-layer="layer1" /><defs
     id="defs2"><clipPath
       clipPathUnits="userSpaceOnUse"
       id="clipPath8006"><path
         inkscape:connector-curvature="0"
         id="path8008"
         d="m -1244.8456,-140.77945 h 33.9355 c 11.5456,0 20.8405,9.29479 20.8405,20.84039 v 31.873282 c 0,11.545575 -9.2949,20.840392 -20.8405,20.840392 h -33.9355 c -11.5456,0 -20.8405,-9.294817 -20.8405,-20.840392 v -31.873282 c 0,-11.5456 9.2949,-20.84039 20.8405,-20.84039 z"
         style="opacity:0.521;fill:#ff0000;fill-opacity:1;stroke:none;stroke-width:1.61448;stroke-linecap:round;stroke-linejoin:round;stroke-miterlimit:4;stroke-dasharray:none" /></clipPath><clipPath
       clipPathUnits="userSpaceOnUse"
       id="clipPath8001"><path
         style="opacity:0.521;fill:#ff0000;fill-opacity:1;stroke:none;stroke-width:1.59706;stroke-linecap:round;stroke-linejoin:round;stroke-miterlimit:4;stroke-dasharray:none"
         d="m -2936.6731,-1508.8075 h 33.5693 c 11.421,0 20.6155,9.1945 20.6155,20.6155 v 31.5293 c 0,11.421 -9.1945,20.6155 -20.6155,20.6155 h -33.5693 c -11.421,0 -20.6156,-9.1945 -20.6156,-20.6155 v -31.5293 c 0,-11.421 9.1946,-20.6155 20.6156,-20.6155 z"
         id="path8003"
         inkscape:connector-curvature="0" /></clipPath></defs><g
     inkscape:label="Layer 1"
     inkscape:groupmode="layer"
     id="layer1"
     transform="translate(1459.121,240.39374)"><path
       id="path16"
       style="fill:#000000;stroke-width:0.999999"
       d="m -1027.4917,-240.39289 c -0.2921,0 -2.0809,6.8756 -3.9741,15.27907 -4.3352,19.24267 -6.4013,24.72165 -12.1569,32.23084 -4.8523,6.33091 -5.5712,8.81948 -3.1294,10.84598 1.1619,0.96416 2.3305,1.0027 5.399,0.18368 2.1536,-0.57496 4.0596,-0.90073 4.2368,-0.72366 1.0644,1.0644 -4.4769,10.2204 -8.8994,14.70238 -5.9782,6.05865 -6.3688,8.53547 -1.4618,9.28312 l 3.0852,0.47017 -5.4468,5.24104 c -2.9959,2.88256 -7.6681,7.04787 -10.383,9.25557 -4.9636,4.03613 -6.2075,6.90968 -3.4489,7.96821 3.3469,1.28423 8.5884,0.4241 13.3214,-2.18537 2.7151,-1.49695 4.9363,-2.4664 4.9363,-2.15593 0,0.73308 -7.5649,10.46561 -13.5234,17.3982 -2.5685,2.98843 -7.5821,7.78634 -11.1416,10.66212 -5.4402,4.39564 -6.4247,5.62694 -6.1813,7.72952 0.255,2.20531 0.7514,2.53464 4.1962,2.78581 2.149,0.15664 5.492,-0.37821 7.4302,-1.18813 1.9383,-0.80975 3.6728,-1.32409 3.8546,-1.14222 0.1819,0.18178 -1.7861,2.75164 -4.3744,5.709387 -2.5883,2.957827 -4.7067,6.001336 -4.7067,6.763619 0,1.989529 3.6083,3.041607 7.4541,2.174207 1.8181,-0.410295 3.4826,-0.568342 3.6985,-0.352568 0.6996,0.699594 -4.4965,6.85906 -9.2207,10.928595 -2.5322,2.181072 -8.764,6.753199 -13.8466,10.160771 -7.9135,5.305465 -9.2066,6.530477 -8.9985,8.52472 0.6117,5.861152 8.7814,7.411605 16.7775,3.184353 l 4.6059,-2.435138 -2.5857,2.721625 c -1.4221,1.497026 -2.5857,3.177407 -2.5857,3.735246 0,1.504303 3.7969,2.221265 5.8747,1.109144 0.995,-0.53278 2.0181,-0.758727 2.2735,-0.503089 0.7486,0.748471 -12.6194,14.37818 -19.0842,19.458607 l -5.9352,4.664591 -3.3165,-2.912671 c -3.9315,-3.451902 -4.1662,-4.598345 -0.9385,-4.598345 4.4799,0 3.7736,-2.597238 -2.4755,-9.105054 -5.6459,-5.87943 -5.8529,-6.253914 -3.8748,-6.985679 2.7208,-1.006508 2.6435,-3.225127 -0.259,-7.413508 -1.9062,-2.750571 -2.8284,-6.435367 -4.8868,-19.532214 -1.3952,-8.878114 -2.6345,-16.043427 -2.7545,-15.923506 -0.1199,0.119921 -1.0723,6.346957 -2.1155,13.839199 -1.8198,13.068727 -3.7109,20.556917 -5.8398,23.122231 -1.3327,1.605782 -0.7108,6.548754 0.7859,6.249366 0.6464,-0.129267 1.1753,0.355875 1.1753,1.077964 0,1.310859 -3.6261,4.852329 -8.9415,8.732224 -3.6507,2.664724 -2.1228,4.500754 3.5315,4.245777 l 3.9997,-0.179964 -6.4936,5.957421 c -7.0827,6.497643 -7.6051,8.788793 -1.752,7.690731 l 3.2927,-0.618874 -2.1889,3.120258 c -1.2037,1.715117 -4.459,5.518262 -7.2336,8.451113 -4.4028,4.6535912 -4.9129,5.5800419 -4.0054,7.2758056 1.1249,2.1017579 4.8223,3.4380071 7.096,2.5655621 2.178,-0.835807 1.7058,0.1552355 -1.8713,3.9280286 -2.9363,3.0970183 -3.1204,3.5832354 -1.7464,4.603886 0.8449,0.6278064 2.0052,1.310611 2.5782,1.5169576 0.5728,0.2064293 0.8298,0.6017546 0.5712,0.877738 -1.2903,1.3772705 -17.177,-9.8241653 -25.3865,-17.8995535 -7.9877,-7.8570494 -8.6266,-8.7260214 -6.0401,-8.2197064 4.2665,0.83498 7.9204,-0.84383 7.9204,-3.637986 0,-1.745469 -1.4523,-3.326853 -6.0986,-6.642293 -5.2334,-3.734583 -8.005,-6.625752 -8.005,-8.352033 0,-0.241992 1.9724,0.152672 4.3816,0.877821 5.5042,1.656396 13.5387,1.702214 15.7437,0.09031 3.2977,-2.411401 1.4704,-5.402228 -7.902,-12.937641 -9.0913,-7.309466 -16.9244,-15.104736 -16.9244,-16.841769 0,-0.528644 0.61,-0.960442 1.3552,-0.960442 2.9494,0 2.2036,-1.836195 -1.7649,-4.346676 -2.2951,-1.452118 -5.0652,-4.228989 -6.1574,-6.172286 l -1.9869,-3.533282 3.9409,1.390172 c 5.9569,2.101841 16.9051,2.756113 19.0674,1.140406 2.592,-1.936763 1.3087,-4.494386 -3.8694,-7.712896 -7.9519,-4.942725 -22.3939,-20.042002 -20.7459,-21.689962 0.2173,-0.21743 1.9421,0.0314 3.8345,0.55461 3.7407,1.0329 9.2559,0.0829 9.8488,-1.69501 0.1973,-0.59233 -2.6295,-4.29846 -6.2825,-8.23815 -3.6529,-3.93961 -6.6424,-7.56255 -6.6424,-8.04901 0,-0.4863 1.4451,-0.88337 3.2119,-0.88337 5.5187,0 4.9666,-3.78098 -1.7445,-11.93295 -3.9284,-4.77161 -4.2304,-5.62553 -9.0977,-25.68969 -3.6492,-15.04346 -5.2229,-20.16044 -5.7185,-18.59733 -0.3761,1.18606 -1.7331,8.50255 -3.0136,16.25961 -2.9285,17.73985 -5.2146,25.10291 -10.0433,32.33373 -4.7193,7.06714 -4.5899,9.08545 0.5747,8.90846 l 3.7243,-0.1267 -3.2853,2.79317 c -1.8071,1.53672 -5.7182,4.46668 -8.6918,6.51021 -2.9734,2.04345 -5.4063,3.98394 -5.4063,4.31194 0,0.32776 0.6996,1.37 1.5554,2.31563 1.7968,1.98532 8.6467,2.36336 11.8411,0.65378 l 1.9907,-1.06515 -1.9687,3.18064 c -1.7221,2.78241 -4.3079,5.20183 -16.4744,15.414788 -5.7168,4.799067 -1.1481,7.518707 6.2439,3.71705 2.5293,-1.3011 4.8108,-2.154688 5.0685,-1.896982 0.2576,0.25754 -0.7167,2.021617 -2.1651,3.920668 -2.3984,3.14449 -2.4954,3.556191 -1.0726,4.596525 3.7221,2.72179 0.4476,6.383843 -15.2055,16.999734 -5.268,3.572566 -9.83,7.287466 -10.137,8.25469 -0.3485,1.098145 0.168,2.485505 1.3773,3.694886 2.0192,2.019136 3.2284,1.866217 14.3515,-1.808985 2.1672,-0.715887 3.1121,3.383587 1.1167,4.842735 -2.0676,1.511912 -0.055,2.692099 3.2963,1.933703 2.128,-0.481586 2.3059,-0.38292 1.1129,0.617137 -4.2327,3.547342 -16.103,12.032364 -20.0224,14.312845 -3.8025,2.212582 -4.4718,3.019856 -4.2311,5.096223 0.246,2.120863 0.7923,2.50676 3.8949,2.761902 1.9846,0.163175 5.9118,-0.427497 8.7266,-1.313092 4.0227,-1.265124 5.6146,-1.382398 7.4394,-0.550892 1.2769,0.581906 2.3213,1.410435 2.3213,1.841902 0,2.346148 -11.1315,9.834503 -25.9797,17.477184 -10.1008,5.1990243 -12.2216,7.1230512 -10.7965,9.7862868 2.2086,4.126601 11.417,6.1113326 18.6838,4.0271907 1.6774,-0.4810067 3.0601,-0.5867852 3.0742,-0.2350449 0.014,0.351823 -2.4186,2.8392294 -5.4064,5.5295094 -4.6188,4.158856 -5.2764,5.144688 -4.3965,6.581671 1.3804,2.254099 5.9532,2.606418 10.2969,0.79156 1.9418,-0.811326 3.682,-1.324009 3.8675,-1.138669 0.4079,0.407979 -17.3936,14.238163 -22.8524,17.754491 l -3.8914,2.506759 -9.7421,-7.848862 c -5.3579,-4.316985 -12.0693,-10.259271 -14.9136,-13.205685 l -5.1713,-5.356907 3.9593,1.977868 c 4.5472,2.272872 5.8436,2.399823 9.16,0.888903 4.0563,-1.848105 2.9223,-4.327738 -6.0674,-13.2662252 -4.6543,-4.6277875 -8.4623,-8.7911917 -8.4623,-9.251936 0,-1.1223766 1.6278,-1.0687016 2.3359,0.077742 0.9333,1.5099278 8.0907,3.0402834 11.3565,2.4276945 3.6365,-0.6823083 4.7213,-2.8363351 2.8593,-5.6782942 -0.7461,-1.1385041 -5.0995,-5.8390711 -9.6743,-10.4454381 -6.0281,-6.069567 -8.8821,-9.749897 -10.3648,-13.372831 l -2.0458,-4.998715 2.8777,0.631694 c 3.714,0.81571 7.3568,-1.083175 7.3568,-3.834408 0,-1.137842 -1.6365,-4.132969 -3.6362,-6.657014 -6.0458,-7.630854 -7.4422,-11.463028 -10.4767,-28.732542 -1.5742,-8.958006 -3.3373,-17.753168 -3.9171,-19.544868 -0.9896,-3.058561 -1.1012,-3.129604 -1.8309,-1.157113 -0.4274,1.155707 -1.6466,8.122117 -2.7086,15.48104 -2.9013,20.100391 -4.1385,23.659063 -11.1931,32.196022 -2.1161,2.560765 -3.8472,5.404627 -3.8472,6.319168 0,2.53521 3.3047,5.365673 5.5716,4.77285 4.8096,-1.257845 -0.6717,7.766158 -7.8471,12.919117 -2.4519,1.760769 -4.3062,3.844001 -4.3062,4.835209 0,2.610305 3.7242,3.938945 7.847,2.800607 1.8902,-0.52178 3.436,-0.626318 3.436,-0.231406 0,1.643577 -8.5248,9.1228352 -15.8098,13.8705435 -9.7903,6.3803689 -10.1064,8.3415299 -1.3222,8.2050682 5.4547,-0.084606 7.1405,0.592988 4.9088,1.9723261 -3.28,2.0271588 1.5069,3.1618583 6.0509,1.4341708 3.0959,-1.1771267 3.0403,-0.2336389 -0.2498,4.3008584 -4.2666,5.880505 -13.024,13.327426 -20.4981,17.429464 -5.6104,3.079154 -6.9287,4.228657 -6.9287,6.043763 0,3.6427 4.6553,5.460865 12.1589,4.748866 l 6.1759,-0.585875 -4.1523,3.621523 c -2.8979,2.526939 -3.9715,4.088144 -3.5553,5.173138 0.899,2.342344 6.9846,2.351276 12.5721,0.01654 5.256,-2.196041 3.5441,0.289298 -4.4551,6.469606 -3.845,2.97073 -12.5868,8.177445 -19.4254,11.569386 -6.8387,3.392024 -12.6838,6.570671 -12.9891,7.064662 -0.9006,1.457246 0.3278,4.074911 2.6113,5.562592 1.1693,0.761704 4.6653,1.605616 7.7681,1.876803 l 5.6415,0.493991 -6.8167,4.486363 c -5.2659,3.465383 -6.8169,4.988874 -6.8169,6.701013 0,5.63413 11.5291,5.263699 25.5868,-0.822657 6.9188,-2.995706 7.1865,-3.039787 5.8325,-0.973261 -2.0817,3.17691 -13.2325,12.860561 -19.1961,16.670991 -2.8442,1.81742 -10.1505,5.94154 -16.2357,9.16369 -13.2962,7.0401 -15.4402,9.82673 -10.8533,14.09988 2.3057,2.14824 8.8522,2.62602 12.3427,0.90172 1.1293,-0.55809 0.4111,0.41476 -1.596,2.16155 -6.2706,5.45706 -2.7261,8.9901 7.6615,7.6359 2.4475,-0.31915 5.1902,-0.95969 6.0951,-1.42333 2.0592,-1.05498 2.1207,-0.0389 0.1304,2.15965 -1.4162,1.56476 -1.3386,1.71429 1.1753,2.27163 1.4801,0.32825 3.0767,0.68876 3.548,0.80057 1.3635,0.32363 -14.1971,11.68021 -20.0187,14.61067 -2.907,1.4632 -9.5163,4.01147 -14.6878,5.66332 -10.1863,3.25391 -12.6933,4.84522 -12.6933,8.05463 0,5.55589 6.9789,9.4257 15.6959,8.70286 l 5.142,-0.42609 -2.8961,2.26618 c -3.303,2.58491 -3.5356,3.62905 -1.3424,6.05269 2.1045,2.32564 12.1437,2.28619 18.9812,-0.0761 l 5.0227,-1.73537 -4.5525,4.6645 c -5.4489,5.58253 -19.4034,16.18055 -26.8025,20.35479 -2.9293,1.65243 -7.7732,3.845 -10.7633,4.87383 -8.0832,2.78093 -9.7678,4.14712 -9.7678,7.91122 0,5.64654 7.9119,9.63114 17.3246,8.72669 l 4.6443,-0.44627 -2.7399,1.99432 c -5.728,4.16779 -7.1316,5.74496 -6.5229,7.33105 1.8893,4.92346 14.6805,4.82107 26.4205,-0.21122 3.8534,-1.65177 3.8998,-1.64863 3.412,0.2166 -0.272,1.04 -2.7883,4.36727 -5.5918,7.39539 -5.7918,6.25566 -12.3797,9.3583 -19.8774,9.3583 -5.9104,0 -7.9036,1.50356 -7.5055,5.66167 0.2169,2.26493 0.9677,3.55371 2.516,4.32112 2.1954,1.0883 2.1909,1.09947 -0.9403,2.01823 -1.7308,0.5078 -4.3495,0.97541 -5.8177,1.03934 -1.4684,0.0645 -3.055,0.35364 -3.526,0.64468 -1.2303,0.76038 -1.0536,4.54384 0.2736,5.87091 0.8776,0.87749 0.5885,1.1294 -1.2965,1.1294 -1.333,0 -2.9501,-0.63458 -3.5938,-1.41026 -1.9573,-2.35856 -4.1498,-1.60339 -7.3199,2.52131 -3.9542,5.14485 -3.8715,7.72952 0.3709,11.61537 4.4716,4.09584 3.5716,5.53852 -3.0283,4.85729 -4.7096,-0.48605 -5.1645,-0.34396 -7.3932,2.30472 -1.3064,1.55227 -2.3746,3.19221 -2.3746,3.64534 0,1.9404 2.3376,5.69781 4.3762,7.03348 2.994,1.96174 2.7754,2.94774 -0.9238,4.1687 -2.09,0.68967 -3.5737,2.02865 -4.4661,4.03083 -1.0424,2.33796 -3.3038,4.04737 -10.2692,7.76078 -11.315,6.03235 -17.8647,10.53427 -17.8647,12.28197 0,1.61115 0.418,1.65416 4.5725,0.46273 3.9314,-1.12759 54.3016,-9.5376 76.0333,-12.69516 19.0126,-2.76256 42.9516,-4.50464 56.1998,-4.08979 l 9.4025,0.29384 -15.0439,15.10639 c -8.2742,8.30878 -20.3329,20.17681 -26.797,26.37275 -6.4642,6.19594 -13.3069,13.08056 -15.2056,15.29917 l -3.4525,4.0329 -6.2218,-6.34489 c -3.7108,-3.7847 -6.5616,-5.99968 -7.0645,-5.48898 -0.6794,0.68983 0.391,9.6045 2.097,17.46056 0.1375,0.63268 -2.7474,1.57427 -7.1877,2.34697 -7.2988,1.27009 -16.3996,4.55567 -15.3964,5.55887 0.2819,0.28178 4.8954,-0.32436 10.2526,-1.34799 17.7176,-3.38508 31.2378,-4.35594 60.5137,-4.35594 28.7646,0 45.1034,1.05315 65.817,4.2347 13.7361,2.11002 69.211,12.9469 69.9233,13.65931 0.2811,0.28095 0.6873,3.28964 0.9036,6.68629 0.3617,5.68243 0.2517,6.13565 -1.3682,5.68194 -0.9687,-0.27127 -4.2996,-0.75625 -7.4026,-1.07797 -3.1027,-0.32188 -6.9107,-0.7976 -8.4621,-1.05778 -5.5638,-0.93323 -0.094,1.25057 7.0519,2.81524 3.8785,0.84937 9.8021,2.15924 13.1633,2.91077 8.2308,1.84025 27.5413,5.16578 29.9942,5.16578 1.0862,0 1.9741,-0.34264 1.9741,-0.76212 0,-0.73259 -5.302,-2.24665 -12.2231,-3.4892 -7.0061,-1.25776 -6.9067,-1.10054 -3.581,-5.73139 1.6615,-2.31381 3.5204,-4.6196 4.1301,-5.1255 0.7431,-0.61672 5.7488,0.16971 15.189,2.38734 l 14.0797,3.30741 8.363,-1.38835 c 30.5707,-5.07356 47.5437,-7.0573 88.2821,-10.32428 9.8256,-0.78792 28.2309,-2.26923 40.9007,-3.29087 69.54257,-5.60701 106.3247,-6.79968 145.2678,-4.70868 21.33045,1.14537 39.72366,3.10612 52.93646,5.64141 11.53672,2.21374 10.53004,2.16395 10.53004,0.51434 0,-1.22022 -3.86625,-2.71021 -12.53537,-4.82983 -2.16552,-0.52956 -2.55555,-1.02322 -2.08067,-2.64438 1.95074,-6.65933 4.1233,-15.78953 4.69759,-19.74146 l 0.6666,-4.5837 -2.90341,2.06776 c -1.59702,1.1371 -4.6631,4.10957 -6.81308,6.60557 l -3.90793,4.53781 -11.38206,-10.13885 c -13.74417,-12.24376 -31.14552,-30.15357 -40.05588,-41.22557 -3.60036,-4.47371 -6.54686,-8.3871 -6.54686,-8.69559 0,-0.64567 20.47695,3.63708 34.31896,7.17673 15.4578,3.95284 47.958,13.42923 62.52624,18.2321 21.88721,7.21552 47.48238,19.40932 47.48238,22.62088 0,2.56648 -7.18186,3.80886 -32.85526,5.68549 -13.99146,1.02272 -26.70927,2.22284 -28.26063,2.66655 -2.67598,0.76534 -2.14535,1.13197 10.34272,7.14546 54.60567,26.29501 58.27012,28.61858 51.46184,32.64039 -3.25506,1.92279 -14.35643,4.76012 -28.42587,7.26299 -10.36414,1.84389 -45.32199,6.64965 -48.36756,6.64965 -2.89473,0 -1.36379,1.52746 4.4111,4.40011 3.23208,1.60776 7.70173,4.25884 9.93135,5.89125 5.2551,3.84723 5.21002,6.97162 -0.1377,9.73667 -4.47561,2.31414 -9.50981,3.41228 -37.2958,8.13535 -12.1527,2.06569 -27.17142,5.07637 -33.48704,6.07841 -37.19333,5.90127 -45.9636,22.28122 -45.9636,22.28122 l -2.20927,1.81808 c -5.48171,4.50944 -26.83531,7.8176 -47.29505,7.32733 l -13.77676,-0.33049 3.73161,4.04737 c 2.0518,2.22607 3.56223,4.55195 3.35696,5.16768 -1.0348,3.10447 -7.34073,5.01236 -47.70455,14.43798 l -15.5139,3.62318 51.24315,0.57306 c 67.85172,0.75955 136.70879,1.95181 137.19683,2.37625 0.68636,0.59679 18.24757,0.2281 22.64478,-0.47563 l 4.23114,-0.67578 -3.29088,-0.65559 c -7.73432,-1.53813 -30.6263,-3.57629 -57.21532,-5.09432 -17.64036,-1.00701 -27.51803,-1.90186 -25.86776,-2.34317 2.51851,-0.67363 9.75246,-1.25421 44.53307,-3.5791 22.79241,-1.52358 57.64753,-2.8088 93.80227,-3.45612 18.23549,-0.3266 33.00619,-0.74177 32.82407,-0.92381 -0.54717,-0.54717 -35.51791,-5.74636 -55.6379,-8.27123 -10.34264,-1.29779 -20.0707,-2.71286 -21.61826,-3.14573 l -2.81343,-0.78775 2.34326,-0.64286 c 2.53099,-0.69455 19.9325,-1.87292 51.23606,-3.47084 10.85979,-0.55437 24.61091,-1.39853 30.55791,-1.87507 5.94708,-0.47654 16.52484,-1.31127 23.50614,-1.85472 21.75629,-1.69361 31.87488,-3.07196 28.7289,-3.91331 -2.35384,-0.62946 -39.24091,-1.85133 -127.30038,-4.21642 -11.55061,-0.3103 -20.64747,-0.87947 -20.21526,-1.26537 0.43229,-0.38589 8.40198,-1.85505 17.71041,-3.26515 26.12414,-3.95756 41.57565,-6.88983 50.17274,-9.52172 14.13221,-4.32641 13.86624,-3.53833 3.03556,-9.04807 l -9.5347,-4.85001 17.0071,-4.03083 c 24.9423,-5.91202 30.62423,-7.61026 39.2075,-11.71635 8.93932,-4.27655 10.15805,-6.2717 6.97468,-11.42243 -3.51401,-5.6859 -22.17965,-19.44694 -34.7505,-25.61997 -3.15938,-1.55136 -5.76282,-3.0837 -5.78473,-3.4046 -0.0215,-0.32122 2.55001,-0.87757 5.71683,-1.23593 9.19198,-1.04 28.82352,-5.00888 35.05899,-7.08864 8.35567,-2.78705 11.83751,-5.14982 11.83751,-8.03056 0,-1.99367 -1.52762,-3.38045 -9.16741,-8.32458 -5.04205,-3.26284 -13.18691,-8.01055 -18.0997,-10.55014 l -8.93228,-4.61679 25.85667,-0.63351 c 14.22121,-0.34885 27.1261,-0.84317 28.67746,-1.09823 1.55145,-0.25506 3.84268,-0.49945 5.09242,-0.54179 1.24974,-0.0422 2.09597,-0.24704 1.88053,-0.45537 -0.96665,-0.93431 -19.57349,-2.51817 -45.52295,-3.87303 -34.16124,-1.78335 -46.8707,-4.07756 -51.12401,-9.22977 -1.16852,-1.41557 -0.90221,-1.56518 2.82079,-1.5775 4.55584,-0.0149 27.5794,-1.47445 38.19554,-2.42042 3.74931,-0.33396 6.8168,-0.90387 6.8168,-1.26711 0,-0.67618 -7.36413,-1.60346 -35.02781,-4.4092 -8.66399,-0.87873 -15.63164,-1.71693 -15.4846,-1.86398 1.02512,-1.02512 42.73798,-4.10303 81.54049,-6.01614 20.88318,-1.02958 29.62591,-1.72785 28.99884,-2.31563 -0.84027,-0.78767 -26.57041,-2.44316 -51.56473,-3.31842 -49.73672,-1.74158 -100.2344,-4.86176 -104.50673,-6.45695 -2.6849,-1.00254 20.76509,-1.6339 113.90919,-3.06675 37.49231,-0.57669 71.55265,-1.31475 75.68975,-1.63986 l 7.52193,-0.59133 -8.23633,-0.71076 c -4.5297,-0.39077 -29.91637,-1.5464 -56.41466,-2.56912 -53.78947,-2.07612 -64.65488,-2.60468 -72.15465,-3.50392 -8.51926,-1.02156 30.42037,-2.87562 73.33914,-3.49276 20.94389,-0.30104 48.6576,-0.75326 61.58598,-1.0046 12.92838,-0.25126 40.39464,-0.46281 61.03699,-0.46281 20.64227,0 37.28323,-0.25672 36.97805,-0.56181 -0.77469,-0.77477 -35.06668,-2.81955 -70.27776,-4.19086 -16.2898,-0.63443 -30.25239,-1.50687 -31.02808,-1.93726 -1.00981,-0.56057 -0.60928,-0.79537 1.41036,-0.8301 1.55136,-0.0265 9.593,-0.65155 17.87011,-1.38844 8.27718,-0.73689 34.51,-2.02608 58.29518,-2.86478 65.13175,-2.29653 64.39403,-3.1005 -4.70668,-5.1346 -54.36303,-1.60016 -71.66604,-1.90443 -136.80564,-2.40016 -65.24878,-0.49663 -131.8649,-1.9007 -149.0288,-3.14209 l -9.40246,-0.67958 12.69333,-0.63897 c 6.9813,-0.35108 94.98824,-0.86235 195.57092,-1.13486 274.86317,-0.74509 443.54989,-1.6057 450.3772,-2.29744 4.97671,-0.50441 2.18322,-0.83771 -15.04395,-1.80336 -35.68829,-2.00036 -46.2792,-2.96196 -53.12379,-4.81875 -3.61995,-0.98178 -10.17814,-2.4908 -14.57386,-3.35324 -4.39563,-0.86235 -9.89603,-2.36897 -12.22316,-3.34786 -2.32712,-0.97888 -5.49461,-1.67715 -7.03894,-1.55177 -2.50014,0.20295 -3.25664,-0.44231 -6.90314,-5.8839 -4.41309,-6.58556 -6.41709,-7.91916 -6.90488,-4.59471 -0.58248,3.97005 -2.30579,2.73205 -6.00324,-4.31003 -2.03873,-3.88288 -4.14926,-7.05896 -4.68841,-7.06839 -0.53914,-0.01 -1.48941,1.8931 -2.11184,4.22006 -0.62243,2.32721 -1.56063,4.23105 -2.08621,4.23105 -1.84447,0 -7.40077,-10.11478 -9.47218,-17.24379 -1.15099,-3.96119 -2.38295,-7.20245 -2.73808,-7.20245 -0.35513,0 -1.18598,2.41099 -1.84563,5.35856 -0.65973,2.94782 -1.67996,6.22687 -2.26617,7.28697 -0.58612,1.06019 -1.1108,2.04387 -1.16613,2.18529 -0.0554,0.14151 -0.74136,0.0116 -1.52605,-0.29004 -0.7847,-0.30104 -3.06783,-4.96398 -5.07216,-10.36116 -2.00425,-5.3971 -3.91198,-9.81747 -4.24024,-9.81747 -0.32833,0 -0.88725,2.32738 -1.24329,5.17686 -0.43543,3.4849 -1.423,6.10339 -3.01539,7.99583 -2.77124,3.29336 -4.07681,2.91465 -4.07681,-1.18267 0,-1.68079 -0.8349,-3.82986 -1.95033,-5.01716 -1.686,-1.79468 -1.78525,-2.34209 -0.72721,-4.03629 1.00617,-1.61107 1.0051,-2.50758 -0.009,-5.03551 -0.67875,-1.69172 -1.88607,-6.24937 -2.683,-10.12786 -0.79694,-3.87857 -1.76904,-7.40416 -2.15965,-7.83414 -0.39053,-0.42998 -1.41201,2.32018 -2.26982,6.11158 -0.85772,3.79132 -2.17594,7.71554 -2.93086,8.71924 -0.75492,1.00395 -1.40341,3.75419 -1.4398,6.11166 -0.0364,2.35757 -0.36844,5.05438 -0.73821,5.99224 -0.62442,1.5837 -0.8464,1.54417 -3.1091,-0.55279 -1.63878,-1.5187 -3.00348,-4.46296 -4.17043,-8.99291 -0.95416,-3.70398 -1.97845,-6.73417 -2.27717,-6.73417 -0.29873,0 -1.10278,1.58676 -1.785,3.52592 -3.35283,9.53065 -5.00352,12.45903 -7.00959,12.42893 -1.86257,-0.0281 -1.88697,-0.11686 -0.35446,-1.28001 2.21663,-1.6827 2.16022,-1.87697 -1.83637,-6.30081 -3.0856,-3.41535 -3.2998,-3.95648 -1.88052,-4.75077 2.31861,-1.29754 1.96984,-3.98079 -0.96962,-7.47421 -1.70428,-2.02534 -2.1795,-3.18518 -1.41035,-3.44148 1.67748,-0.55917 1.42829,-2.86628 -0.6795,-6.27683 -1.01222,-1.6377 -2.34077,-6.12944 -2.95295,-9.98279 -0.61217,-3.8531 -1.42631,-7.35669 -1.8089,-7.78634 -0.38259,-0.42964 -1.19069,1.47437 -1.796,4.23106 -0.60531,2.75677 -2.40735,8.10384 -4.00519,11.88341 -2.16586,5.12344 -2.63512,7.1439 -1.84009,7.93885 0.79496,0.7952 0.54908,1.61752 -0.9678,3.23207 -1.79087,1.90633 -1.88846,2.43903 -0.81538,4.4441 1.0654,1.99085 0.9621,2.63768 -0.8172,5.13659 -1.79476,2.5204 -2.32588,2.74891 -4.48454,1.92816 -4.04009,-1.53606 -4.4819,-2.08621 -2.31753,-2.88679 3.88899,-1.43855 3.48283,-3.5021 -1.61604,-8.21433 -2.6543,-2.453 -4.82611,-4.91948 -4.82611,-5.4817 0,-0.56206 1.37512,-0.95954 3.05583,-0.88337 2.46135,0.11165 3.11265,-0.25332 3.34405,-1.8768 0.2071,-1.45253 -1.04041,-3.13663 -4.46618,-6.02532 -5.23657,-4.41549 -6.11117,-6.5318 -2.40379,-5.82311 2.96163,0.56619 2.93128,0.0116 -0.34711,-6.45141 -1.58585,-3.12638 -3.35514,-9.05452 -4.35048,-14.57386 l -1.67848,-9.30329 -2.13211,9.49988 c -1.17332,5.22532 -3.22926,11.66358 -4.56899,14.30738 -2.83898,5.60254 -3.06451,7.69107 -0.83001,7.69107 1.1385,0 0.40293,1.22542 -2.52694,4.21079 -4.3949,4.47809 -4.4293,4.66401 -1.08715,5.90036 2.09423,0.77477 2.03411,0.90742 -2.11375,4.73075 -4.4049,4.06027 -6.35266,4.34858 -8.8074,1.30184 -1.77929,-2.20811 -1.41473,-3.24348 0.94026,-2.66828 2.70153,0.65998 5.63397,-1.44533 4.85175,-3.48357 -0.32287,-0.84143 -0.97375,-1.52978 -1.44707,-1.52978 -1.45112,0 -9.29064,-7.68469 -8.74322,-8.57054 0.28268,-0.45719 1.29018,-0.83184 2.23863,-0.83184 0.94845,0 2.01111,-0.74053 2.36161,-1.64547 0.46745,-1.20674 -0.51152,-2.64811 -3.66916,-5.40645 -2.3679,-2.06851 -4.30094,-4.02835 -4.29722,-4.35594 0,-0.32751 0.85359,-0.8167 1.88788,-1.08723 2.53621,-0.66328 2.3942,-3.5896 -0.37282,-7.66699 -1.23949,-1.82652 -2.96561,-6.60582 -3.83623,-10.61995 -3.05319,-14.07771 -2.80284,-13.8607 -4.64979,-4.00709 -1.11419,5.9441 -2.5864,10.44742 -4.4001,13.46091 -3.10694,5.16255 -3.42751,7.91312 -1.12205,9.59904 1.4685,1.07375 1.35751,1.45005 -1.32773,4.50828 -4.13082,4.70496 -4.75168,7.18847 -2.29181,9.18032 l 1.98333,1.60694 -2.30108,1.50761 c -2.77919,1.82114 -3.27293,1.83032 -5.56251,0.0973 -1.73381,-1.31243 -1.72016,-1.40588 0.47017,-3.23579 l 2.2551,-1.88599 -5.40637,-4.80411 c -2.97354,-2.64231 -5.40644,-5.37675 -5.40644,-6.07841 0,-0.79496 1.32665,-1.38662 3.51856,-1.56832 5.21292,-0.43246 4.80345,-2.47351 -1.56642,-7.81396 -5.87438,-4.92503 -7.03513,-6.65751 -3.76469,-5.61958 1.0716,0.33983 2.97561,0.35935 4.23114,0.0438 3.62815,-0.91057 2.83477,-3.82779 -1.93378,-7.10866 -5.82799,-4.00983 -8.09334,-8.47146 -4.30086,-8.47146 2.85403,0 3.29063,-1.83702 1.0835,-4.55981 -3.29889,-4.06961 -4.86655,-8.41613 -7.16572,-19.86088 -1.19756,-5.9613 -2.21109,-10.49621 -2.25145,-10.07823 -1.0754,11.15529 -3.79852,21.75571 -7.10875,27.67848 -2.71616,4.85969 -2.95567,7.04192 -0.9568,8.70088 0.77576,0.64377 1.41043,1.5273 1.41043,1.96315 0,1.42656 -5.85925,7.50307 -8.60179,8.92136 -1.47462,0.76254 -2.68119,2.06206 -2.68119,2.88861 0,1.24651 0.88138,1.43003 5.17132,1.07432 2.84428,-0.23587 5.15602,-0.1817 5.1365,0.11935 -0.0198,0.3012 -1.97638,2.02806 -4.34866,3.83812 -8.87266,6.76958 -9.44579,7.41037 -7.60455,8.51182 2.05949,1.23188 2.09977,2.39511 0.11016,3.15864 -0.92017,0.35298 -3.42263,-0.62368 -6.25119,-2.4387 -2.64132,-1.69494 -4.18027,-3.20627 -3.49648,-3.4342 0.85136,-0.28368 0.61334,-0.86657 -0.78602,-1.92634 -1.94528,-1.47354 -1.8768,-1.52283 2.20183,-1.54624 5.05703,-0.0298 8.0854,-2.33465 6.47523,-4.92899 -0.5556,-0.89511 -3.29997,-3.24639 -6.09686,-5.22467 -3.53791,-2.50229 -5.05586,-4.19797 -4.99143,-5.57342 0.0513,-1.0874 -1.00676,-2.92384 -2.35062,-4.08046 -2.72113,-2.33911 -2.24591,-3.91909 0.70522,-2.33961 2.83319,1.51621 8.18944,1.23858 9.63204,-0.49953 1.10096,-1.32674 0.34778,-2.35558 -6.02532,-8.22724 -4.00626,-3.69091 -7.27175,-7.15778 -7.2557,-7.70371 0.0157,-0.54601 -1.02835,-2.42546 -2.32118,-4.1778 -1.29283,-1.75233 -2.35061,-3.50251 -2.35061,-3.88783 0,-0.38532 1.75283,-0.61937 3.89503,-0.52145 2.3832,0.10884 4.0539,-0.27226 4.3045,-0.98252 0.22537,-0.6384 -1.73902,-3.37764 -4.36512,-6.08768 -5.26006,-5.42845 -5.64025,-6.33588 -2.95849,-7.03721 2.84179,-0.74309 2.94137,-2.59029 0.34529,-6.410887 -2.77878,-4.089301 -4.27928,-9.263763 -5.96106,-20.567751 -0.66271,-4.454523 -1.48421,-8.098711 -1.82536,-8.098711 -0.34116,0 -1.10236,3.067658 -1.6932,6.816798 -1.60363,10.175906 -3.7235,16.349432 -6.8259,19.882879 -3.9344,4.480992 -3.33992,8.050992 1.21567,7.301612 2.7949,-0.45983 1.83768,1.3714 -2.73808,5.23368 -4.39829,3.7125 -4.85151,5.8968 -1.22121,5.8968 3.36903,0 1.64895,5.28942 -3.38086,10.39598 -4.22212,4.28655 -4.43765,4.7396 -3.37168,7.07938 1.03984,2.28214 1.46866,2.44606 4.93627,1.89152 2.25609,-0.36067 3.58018,-0.25233 3.2597,0.26631 -0.29674,0.4801 -3.92497,3.54428 -8.06191,6.80944 -7.56907,5.9738 -8.38478,7.10717 -6.48805,9.00382 0.75071,0.75079 0.22794,1.20864 -1.9117,1.67856 -2.52148,0.55387 -3.515,0.14912 -6.91042,-2.82624 -5.21317,-4.56832 -7.25571,-6.96194 -7.25571,-8.499 0,-1.02189 0.63459,-0.99212 3.38268,0.15606 1.86084,0.7775 4.92842,1.28514 6.8168,1.12767 6.06345,-0.50565 5.07943,-3.09917 -4.51945,-11.90185 -4.67534,-4.28746 -8.50073,-8.44012 -8.50073,-9.22804 0,-0.78792 -0.89263,-2.68639 -1.98333,-4.21815 -1.0907,-1.53176 -1.82486,-2.94054 -1.63257,-3.13283 0.19228,-0.19221 2.40023,0.0855 4.90691,0.62053 3.66263,0.78122 4.82032,0.7091 5.89853,-0.36903 1.9519,-1.95198 0.80397,-3.90297 -4.87019,-8.28049 -6.32363,-4.87871 -12.66207,-11.69841 -12.66207,-13.62252 0,-1.15645 0.38184,-1.259003 1.81808,-0.490269 2.44225,1.307055 8.82535,1.236343 10.17376,-0.111981 1.64531,-1.64548 -0.12886,-4.137849 -4.96018,-6.969222 -2.31968,-1.359407 -5.09027,-3.58001 -6.15566,-4.934372 -1.70403,-2.166349 -1.76499,-2.587726 -0.50689,-3.507643 1.27149,-0.929759 1.25553,-1.219968 -0.14134,-2.616839 -1.46833,-1.468328 -1.40415,-1.572039 0.98062,-1.572039 4.04208,0 3.34108,-3.535846 -1.67848,-8.462195 -4.53508,-4.4508 -5.32209,-6.581836 -2.4296,-6.581836 2.87719,0 2.86421,-2.003174 -0.048,-7.18574 -2.05345,-3.654858 -3.19287,-7.788158 -4.6645,-16.924552 -1.07086,-6.648743 -2.17777,-12.723686 -2.46078,-13.49945 -0.28301,-0.775599 -1.27687,3.032344 -2.20737,8.462195 -2.43911,14.233444 -4.27018,19.29394 -8.30795,22.94797 -2.74503,2.484264 -2.47046,4.297054 0.84292,5.547704 1.55144,0.585627 2.82078,1.352377 2.82078,1.7042 0,0.351823 -2.32712,2.766533 -5.1714,5.366086 -2.84419,2.599471 -5.17132,5.171484 -5.17132,5.716752 0,1.218809 4.2218,2.37617 5.58823,1.531596 0.54651,-0.337846 0.99344,-0.124304 0.99344,0.473811 0,0.598033 -2.61336,3.580424 -5.80673,6.629474 -3.19337,3.047975 -5.48998,5.8571 -5.10524,6.24184 0.38474,0.384821 1.97605,0.76311 3.53692,0.841182 4.65847,0.234301 5.48097,1.989694 2.20374,4.701229 -13.1387,10.870709 -14.48975,12.737089 -11.19482,15.471699 0.82406,0.68379 2.92177,1.24329 4.66087,1.24329 3.95912,0 3.40492,0.75327 -5.30175,7.20799 -6.93002,5.13741 -7.86341,5.24922 -12.53719,1.49851 l -2.74726,-2.20555 2.74726,-0.0794 c 1.51101,-0.0438 3.91083,-0.52327 5.33293,-1.06514 4.73406,-1.80328 3.40161,-4.31244 -8.24551,-15.523224 -5.95718,-5.734036 -10.82299,-10.888731 -10.81281,-11.455502 0.0116,-0.664031 1.77499,-0.42452 4.95463,0.673955 5.68301,1.963311 8.54283,2.167425 11.11038,0.79338 4.12147,-2.205965 0.7297,-6.936305 -8.42366,-11.751335 -2.3827,-1.253297 -5.57168,-3.317507 -7.08674,-4.58536 -2.36988,-1.983409 -2.57987,-2.51594 -1.50215,-3.814476 1.06986,-1.289108 0.90594,-1.880607 -1.12023,-4.06019 -1.30474,-1.403487 -3.16508,-3.800912 -4.13562,-5.327463 -1.74464,-2.744121 -1.74282,-2.766782 0.11389,-2.001686 5.39238,2.221761 13.64906,1.486357 13.62433,-1.213848 0,-0.32453 -3.78445,-4.473792 -8.40347,-9.220674 -4.61894,-4.746711 -9.02732,-9.849137 -9.79729,-11.338058 l -1.40117,-2.706821 4.37066,0.05293 c 6.24457,0.07857 6.30196,-2.035926 0.22958,-8.456571 -4.0501,-4.282581 -7.55865,-9.946733 -7.55865,-12.2030647 0,-0.3075763 0.95192,-0.4261739 2.11549,-0.2644875 3.31908,0.461654 3.26507,-3.2773131 -0.10834,-7.5365714 -2.76397,-3.4898625 -5.01948,-11.8748124 -7.22445,-26.8521014 -0.88022,-5.978923 -1.68419,-4.350646 -3.66362,7.41541 -1.82818,10.8668984 -3.60623,15.3394504 -8.32814,20.9572052 -1.86671,2.2209344 -3.15855,4.6348174 -2.87586,5.3716277 0.60415,1.5743542 3.67545,2.7235271 5.03361,1.8839981 0.52178,-0.3222976 0.94581,-0.03225 0.9439,0.644595 -0.008,2.450852 -3.57703,7.002634 -8.34467,10.638387 -5.40678,4.123293 -5.97652,6.601767 -1.50033,6.532131 1.53846,-0.02399 3.85467,-0.392762 5.1475,-0.820921 l 2.35061,-0.778493 -2.32489,2.517594 c -1.78244,1.928824 -2.04114,2.693174 -1.10369,3.272516 1.21319,0.749878 -3.43594,5.161725 -12.3205,11.692446 -3.60896,2.652732 -4.41499,4.65632 -2.37816,5.915076 1.73323,1.071265 6.22439,0.484149 8.70088,-1.138504 3.1722,-2.078436 4.08078,0.06616 1.29837,3.066831 -1.21773,1.312927 -6.12845,5.300006 -10.91197,8.860663 -4.78352,3.560492 -8.69724,7.09394 -8.69724,7.852501 0,3.10562 7.78444,4.220718 13.39847,1.919065 3.8641,-1.584196 1.19251,2.522969 -6.35399,9.767926 -7.33212,7.039107 -8.17604,7.587435 -10.10767,6.568769 -3.48838,-1.839503 -17.70776,-16.171039 -17.24396,-17.379841 0.2372,-0.617965 -0.59299,-2.510068 -1.84372,-4.205336 -1.25073,-1.695267 -2.13071,-3.224299 -1.95761,-3.397316 0.1731,-0.173183 1.84596,0.324861 3.71871,1.107324 3.50508,1.464441 8.75902,1.857946 11.38024,0.8521 0.89784,-0.344545 1.48752,-1.685591 1.48752,-3.384498 0,-3.221322 -2.5329,-5.970322 -12.70244,-13.791478 -5.91673,-4.550459 -12.60111,-11.636786 -13.49399,-14.303826 -0.18674,-0.557756 1.00883,-0.317087 2.65546,0.534351 3.2138,1.662021 8.41034,1.201607 8.60908,-0.762118 0.26639,-2.63156 -0.59588,-4.074828 -6.72309,-11.27008 -3.56413,-4.185321 -6.3238,-7.765165 -6.13367,-7.955302 0.19022,-0.190219 1.9462,0.09519 3.90239,0.635333 9.8183,2.710956 10.64459,-2.672002 1.41954,-9.2499511 -6.99139,-4.98515165 -8.76465,-7.2127851 -6.74328,-8.4732774 1.11948,-0.6981876 0.92,-1.4872668 -1.1753,-4.6535085 -1.38803,-2.097375 -2.52438,-4.140661 -2.52512,-4.539542 -6.7e-4,-0.398965 1.78872,-0.72548 3.97583,-0.72548 5.40818,0 5.63355,-2.064872 0.84482,-7.743993 -5.19539,-6.161534 -7.04225,-10.788826 -11.00932,-27.588581 -1.88325,-7.974985 -3.74914,-14.852819 -4.14843,-15.284534 -0.39938,-0.431633 -1.20673,2.953278 -1.79236,7.521933 -2.96726,23.147373 -4.48744,28.022859 -10.83671,34.754141 -4.5106,4.782031 -4.27795,7.443695 0.63723,7.294331 1.93925,-0.06037 3.51054,0.152589 3.49102,0.47009 -0.0199,0.317584 -1.96786,2.057511 -4.3284,3.867572 -2.36062,1.8098955 -5.16536,3.9649975 -6.23282,4.7893087 -1.2987,1.0032001 -1.72752,2.0556917 -1.29647,3.1788126 0.51864,1.3517976 1.37173,1.5796473 4.38712,1.1753899 6.09008,-0.8168678 4.7812,1.9386655 -5.38982,11.347243 -8.00088,7.4007708 -8.97728,8.6377758 -7.87641,9.9642658 1.6038,1.932049 7.50043,1.975799 12.01384,0.09031 1.87275,-0.782463 3.63344,-1.194495 3.91157,-0.916444 0.70431,0.704391 -8.80417,10.252159 -14.14595,14.204668 -4.41523,3.267058 -5.08737,5.533893 -1.84744,6.229186 1.16803,0.25051 0.84854,0.718036 -1.25611,1.843804 -1.55136,0.829931 -3.87849,2.641894 -5.17132,4.027269 l -2.35061,2.519579 2.73626,2.35599 c 2.13112,1.83512 3.53477,2.279158 6.34663,2.010949 1.98572,-0.189393 3.61044,-0.06285 3.61044,0.280945 0,0.496225 -8.10417,7.276798 -14.75382,12.344406 -0.74665,0.568921 -2.7868,-0.393423 -6.11158,-2.881409 -6.81308,-5.098208 -14.8639,-12.729724 -14.8639,-14.090702 0,-0.680406 1.4919,-1.118489 3.80687,-1.118489 h 3.80504 l -2.75644,-3.996011 c -1.51605,-2.197773 -3.6508,-4.801297 -4.74531,-5.786467 -2.83857,-2.555059 -2.46384,-3.908015 0.53807,-1.940982 6.38021,4.180276 21.91765,2.200507 21.91765,-2.793246 0,-2.553735 -2.25989,-4.728273 -11.56765,-11.125182 -6.57539,-4.519032 -23.69281,-20.27258097 -22.89455,-21.07092311 0.18336,-0.18327216 1.56038,0.30724553 3.05947,1.08896415 4.06954,2.12218576 12.59781,1.63108916 12.59781,-0.72531447 0,-0.54907214 -3.2319,-4.32029387 -7.18218,-8.37965647 -3.95036,-4.0591971 -6.96567,-7.5971941 -6.7011,-7.8617641 0.26449,-0.264487 3.17907,0.528727 6.47705,1.761266 8.85016,3.3075 12.55936,3.701998 15.13757,1.610495 l 2.14121,-1.737281 -2.35061,-2.537856 c -1.29283,-1.39621 -5.31233,-4.563775 -8.93229,-7.039024 -3.61995,-2.475249 -8.39214,-6.262681 -10.6053,-8.416294 l -4.02355,-3.915293 2.05304,-1.663757 2.05495,-1.663674 -3.62136,-3.210241 c -5.50024,-4.87714 -8.00956,-7.654672 -9.48326,-10.498616 -1.60306,-3.093545 -1.69866,-3.076177 3.7775,-0.653776 2.91292,1.288529 5.84735,1.836113 8.81659,1.645315 3.87468,-0.248774 4.49157,-0.576613 4.76739,-2.526857 0.24704,-1.747206 -1.05514,-3.514508 -5.91698,-8.030645 -8.96628,-8.328463 -12.84625,-14.774416 -7.72026,-12.825495 2.97999,1.133045 4.77624,-0.142251 4.08418,-2.899687 -0.30667,-1.221787 -2.47749,-4.804691 -4.8243,-7.962828 -2.34681,-3.157971 -4.8902,-7.510106 -5.65249,-9.670501 l -1.38645,-3.928029 3.27252,0.615153 c 3.61996,0.679166 6.07296,-0.672143 6.07296,-3.344063 0,-0.89808 -1.60967,-3.49035 -3.57728,-5.76091 -7.71902,-8.90764 -8.7888,-11.489 -12.84394,-30.98946 -1.24387,-5.9819 -2.57416,-12.11697 -2.95659,-13.63351 l -0.69604,-2.75661 -0.76939,2.82087 c -0.42336,1.55136 -1.60785,7.89799 -2.63346,14.1036 -2.71509,16.42801 -4.21195,20.59472 -10.31146,28.71237 -2.10184,2.79722 -3.82159,5.78498 -3.82159,6.64056 0,2.47111 2.52008,3.96127 5.64331,3.33661 4.87449,-0.97492 3.41311,2.428604 -4.86283,11.321605 -2.49783,2.684077 -4.54145,5.277924 -4.54145,5.762652 0,1.561535 2.27395,2.829554 5.64513,3.149536 l 3.28716,0.312207 -4.70123,4.719507 c -2.58566,2.59608 -7.36322,6.735334 -10.61812,9.198592 -6.86427,5.194723 -7.65253,6.585888 -5.24485,9.264755 1.57998,1.75804 2.50387,1.906576 9.04807,1.463613 l 7.28689,-0.492089 -1.94106,2.725098 c -2.62726,3.689593 -13.48663,13.322877 -20.26489,17.976717 -9.84492,6.759319 -10.93058,8.723788 -6.44761,11.66127 2.88538,1.890614 8.93965,1.302671 14.55906,-1.412254 3.74442,-1.809151 4.99755,-1.366767 2.35061,0.8301 -0.76997,0.638889 -1.16852,1.537634 -0.88518,1.996228 0.7024,1.136601 4.85622,1.05704 5.57541,-0.106606 0.31957,-0.517065 1.06763,-0.940179 1.66194,-0.940179 1.51745,0 -5.67226,7.249753 -16.47266,16.6085433 -5.04354,4.3702471 -9.57953,7.6924685 -10.07824,7.38414783 -0.4987,-0.30823798 -0.67974,-1.70692877 -0.404,-3.10909313 0.40897,-2.0792624 -0.20387,-3.2342243 -3.32206,-6.2657411 -2.10267,-2.0442789 -3.82341,-4.0282659 -3.82341,-4.4093659 0,-0.380853 1.58362,-0.823567 3.51856,-0.984261 4.93313,-0.409137 5.04801,-2.710046 0.38747,-7.766158 -2.07455,-2.250543 -4.65731,-5.826252 -5.73883,-7.946122 l -1.96679,-3.854753 h 2.87033 c 4.31384,0 4.326,-2.097209 0.0455,-8.166363 -3.54983,-5.033616 -4.11139,-6.706471 -7.0114,-20.920566 -1.74663,-8.56053 -3.38798,-14.638947 -3.68207,-13.631777 -0.29186,0.999809 -0.80694,4.779963 -1.14405,8.399836 -1.00593,10.800818 -3.11397,18.46955 -6.66619,24.25354 -3.56082,5.797801 -3.61392,8.184888 -0.18178,8.184888 1.81196,0 1.32475,0.797929 -3.39186,5.564411 -6.28435,6.35043 -6.61418,8.795245 -1.06515,7.894763 1.99921,-0.324531 3.34042,-0.155815 3.34042,0.41873 0,1.039342 -7.78468,11.918894 -9.11779,12.7427916 -1.41747,0.876084 -21.09086,-14.7921146 -30.35412,-24.1745576 -8.08283,-8.186791 -8.67921,-9.027891 -6.40171,-9.027891 3.40245,0 3.79033,-1.019327 1.6344,-4.289859 -1.00146,-1.519025 -1.82164,-3.041855 -1.82544,-3.384415 0,-0.342725 3.27177,0.653859 7.27961,2.214732 4.00775,1.560708 9.88569,3.05914 13.06235,3.329334 5.42233,0.461406 5.87323,0.342395 7.36224,-1.930147 0.98575,-1.504387 1.29109,-2.930949 0.80619,-3.769981 -0.42915,-0.7426 -4.80006,-4.950664 -9.71284,-9.351015 -4.9127,-4.400269 -11.66987,-10.796269 -15.01633,-14.213931 -5.58359,-5.702361 -5.88613,-6.214382 -3.68206,-6.214382 3.87501,0 3.85194,-0.98608 -0.11934,-5.294547 -3.95144,-4.286716 -4.84969,-6.613264 -2.15411,-5.578967 10.66617,4.093189 19.33918,4.443275 19.85715,0.800741 0.23513,-1.653585 -1.22608,-3.19767 -7.11974,-7.522016 -8.40347,-6.165751 -24.57454,-19.303791 -24.63554,-20.015041 -0.022,-0.25862 2.0767,-0.32428 4.6627,-0.14507 3.22378,0.22331 4.70121,-0.0298 4.70121,-0.8081 0,-0.62367 -2.09473,-3.4256 -4.65531,-6.2272 -2.5606,-2.80177 -5.607,-6.42999 -6.7691,-8.06183 -1.9627,-2.75644 -1.983,-2.91746 -0.2809,-2.25525 8.5992,3.34604 18.45495,3.98038 19.47701,1.25255 0.86459,-2.30761 -0.87815,-4.47545 -8.63298,-10.74127 -4.35203,-3.51633 -9.00113,-7.82777 -10.33173,-9.58242 -2.3159,-3.05443 -2.3315,-3.16409 -0.393,-2.54886 1.4845,0.47108 2.4108,0.0921 3.4709,-1.42143 1.371,-1.95736 1.2246,-2.31166 -2.8226,-6.81316 -2.3478,-2.61113 -5.2977,-6.77578 -6.5542,-9.25549 l -2.2844,-4.50837 h 3.7003 c 8.3585,0 8.8484,-3.11207 1.8732,-11.87803 -6.1595,-7.74061 -7.4029,-11.19317 -11.7275,-32.54859 -1.9634,-9.69614 -3.8085,-17.62953 -4.1007,-17.62953 z m -7.2502,125.25833 c 0.3759,-0.0864 0.7306,0 1.1552,0.16161 1.2748,0.48911 1.4522,1.35089 0.942,4.54144 -0.7961,4.97746 -3.5573,9.49228 -6.6772,10.913794 -1.3299,0.605889 -2.5046,1.053649 -2.6095,0.993523 -0.105,-0.06037 -0.9615,-0.308899 -1.9044,-0.552794 -2.0812,-0.538072 -1.7147,-1.661693 2.6555,-8.109463 3.9882,-5.88489 5.3106,-7.68916 6.4384,-7.94811 z m 27.504,34.089371 c 1.3233,0.213707 2.8477,0.934307 3.6489,2.014505 0.7223,0.973592 2.2123,3.35704 3.3111,5.296201 1.81655,3.206188 1.84914,3.525922 0.36543,3.525922 -1.91103,0 -9.77153,-7.888643 -9.77153,-9.806467 0,-0.950765 1.1228,-1.243869 2.4461,-1.030161 z m -177.2363,16.661722 c 0.4165,0.06616 0.9569,0.477285 1.8237,1.26165 1.8473,1.671862 4.6626,6.163188 4.6626,7.439312 0,1.259913 -2.0706,0.293185 -5.1383,-2.400155 -3.5999,-3.160783 -3.727,-3.450578 -2.4259,-5.507345 0.3701,-0.585213 0.6616,-0.860618 1.0779,-0.793462 z m 137.4136,38.146082 c 0.5294,0.369108 0.7071,1.251478 0.7071,2.765624 0,5.833116 -7.3097,14.3884356 -13.8429,16.2027969 -4.2001,1.1662924 -6.1789,1.2669432 -5.7462,0.2901258 4.2656,-9.6326227 10.3099,-16.7611327 16.0668,-18.9500607 1.4054,-0.534268 2.2859,-0.677677 2.8152,-0.308486 z m -157.7243,11.973478 0.2829,4.8811102 c 0.3174,5.4902253 -2.0741,11.3562577 -5.6506,13.8612805 -2.1383,1.4976875 -5.4449,2.0011071 -5.4449,0.828281 0,-0.3549657 2.4327,-4.90344006 5.4063,-10.1076747 z m 198.5386,9.433637 2.9603,2.4901361 c 1.6283,1.37015789 5.48141,5.374605 8.56139,8.8973838 4.18342,4.7846771 5.34888,6.7077111 4.60761,7.6009981 -1.54847,1.865803 -3.88577,1.4412 -10.2436,-1.860262 -5.8825,-3.0546742 -8.0811,-5.4065291 -5.0538,-5.4065291 1.2885,0 1.4906,-0.5579215 1.0192,-2.8207041 -0.3232,-1.5513625 -0.872,-4.18970419 -1.2193,-5.8617319 z m 26.87784,0.8373785 c 0.2018,-0.2017979 4.76855,1.568813 10.14614,3.93547192 8.15941,3.59100958 10.40367,4.21211698 13.56933,3.74814728 3.72193,-0.5458467 3.75683,-0.5256669 1.79046,1.0871446 -1.1022,0.9041207 -2.79275,2.1099456 -3.75542,2.681017 -1.52432,0.9046996 -1.58031,1.2442824 -0.43346,2.6261847 1.02959,1.24056 1.07019,1.835864 0.18187,2.723361 -0.88824,0.887497 -0.25365,1.899547 2.90705,4.633329 2.22416,1.923696 3.78073,3.509877 3.45794,3.525838 -0.76981,0.03639 -19.3281,-13.6612189 -22.76967,-16.8067845 -2.65471,-2.4263713 -5.79507,-7.4528749 -5.09424,-8.153709 z m -102.48484,1.2156667 c 1.4729,-0.052103 0.335,1.83007511 -3.3956,5.5606891 -2.7686,2.7686833 -4.9139,4.1079926 -6.5818,4.1079926 -1.3608,0 -2.4755,-0.399047 -2.4755,-0.8870009 0,-1.3265728 6.6166,-6.61698513 10.1077,-8.0820046 1.0719,-0.44991 1.8541,-0.6825564 2.3452,-0.6996762 z m 208.67742,4.9785354 c 0.35298,-0.00992 0.92272,0.8765801 1.2671,1.9613264 0.86691,2.731301 -2.02186,9.83227 -4.93081,12.12036 -2.66439,2.095803 -4.97118,2.471776 -4.97118,0.809756 0,-1.419202 7.8033,-14.8763903 8.63489,-14.8914424 z M -1173.823,16.516223 c 0.7901,-0.790155 5.0974,3.436435 7.7682,7.622997 1.2682,1.988122 2.17,3.750049 2.0033,3.915209 -0.1664,0.165078 -1.9065,-0.987486 -3.8674,-2.56184 -3.5744,-2.86983 -6.9219,-7.958445 -5.9041,-8.976366 z m 14.64,0.33247 c 0,-0.28384 3.4896,1.697749 7.7534,4.40184 7.8327,4.967618 13.7992,10.198649 15.7141,13.776674 0.8773,1.639525 0.7763,1.944703 -0.6336,1.909967 -2.8019,-0.06947 -8.9662,-3.69687 -13.281,-7.81578 -3.7395,-3.56992 -9.5529,-11.038591 -9.5529,-12.272701 z m 257.29103,4.146615 c 1.29539,0 1.32633,0.218835 0.21669,1.566415 -0.70969,0.861859 -2.94146,2.765871 -4.95828,4.231056 -3.95499,2.873139 -4.97018,3.121251 -7.14554,1.741003 -1.21741,-0.772456 -1.15306,-1.137511 0.47017,-2.672002 2.02253,-1.912035 8.95329,-4.866472 11.41696,-4.866472 z m -167.55083,13.163341 c 0.2878,0 0.5234,0.849784 0.5234,1.889705 0,3.146475 -3.5597,9.708872 -8.2548,15.216548 -6.3278,7.423349 -20.0918,19.909179 -23.9837,21.755877 -3.519,1.669878 -11.0128,2.148569 -11.0128,0.703481 0,-0.475631 3.0675,-3.065922 6.8167,-5.755375 3.7493,-2.689618 9.4793,-7.48331 12.7337,-10.653025 l 5.9169,-5.762735 -3.2853,-0.945803 -3.2872,-0.94754 11.6556,-7.7497 c 6.4102,-4.262976 11.8896,-7.751433 12.1775,-7.751433 z m 97.66236,6.914058 c 0.40012,-0.399956 18.61287,9.947473 24.15256,13.721755 1.25362,0.854085 1.25362,0.950435 0,0.866738 -3.01647,-0.200474 -8.14916,-1.522167 -11.51249,-2.965767 -3.56562,-1.530603 -13.55048,-10.712241 -12.64007,-11.622726 z m -310.11546,3.59572 c 0.2051,-0.205023 1.7639,0.61722 3.4635,1.827263 1.6995,1.210208 5.5732,3.527328 8.6091,5.149402 l 5.5202,2.949144 -3.054,1.065228 c -1.6799,0.585544 -3.3805,1.06498 -3.7793,1.06498 -0.9343,0 -11.2532,-11.562357 -10.7595,-12.056017 z m 236.5578,1.713462 c 2.6136,0 -2.4927,14.108731 -7.0609,19.509967 -4.1634,4.92271 -7.8303,3.867655 -6.6221,-1.904343 1.2047,-5.755788 10.4146,-17.605624 13.683,-17.605624 z m -185.7607,5.861815 c 1.3838,0.700917 -0.9251,3.714156 -6.3156,7.766158 -6.1474,4.621171 -7.3308,5.050074 -7.3308,2.657281 0,-2.019964 8.0613,-9.567866 11.0093,-10.307819 1.3047,-0.327342 2.1758,-0.349342 2.6371,-0.11562 z m -60.1904,5.421002 c 1.6546,0 8.1877,5.714022 10.9174,9.547603 l 1.9063,2.675641 -2.1798,-0.07609 c -4.7396,-0.161438 -7.3919,-1.950492 -9.7293,-6.56331 -2.7241,-5.375432 -2.7586,-5.584508 -0.9146,-5.584508 z m 399.00719,0.519795 c 0.0232,0.50284 -0.74822,2.050564 -2.31017,4.715867 -2.77836,4.740844 -9.54115,11.035697 -14.68212,13.664776 -4.38736,2.244009 -6.38525,2.265346 -6.38525,0.06782 0,-2.205055 2.55812,-4.470319 11.2829,-9.995611 3.87857,-2.456062 8.21541,-5.559779 9.63751,-6.895697 1.61545,-1.517702 2.43373,-2.060158 2.45713,-1.557318 z m 132.02543,14.889622 c 0.56528,-0.565199 10.08013,9.686381 10.08013,10.860613 0,1.285138 -0.86219,1.241139 -3.76104,-0.194768 -2.11938,-1.04968 -7.25927,-9.725582 -6.31909,-10.665845 z m -219.47553,6.216284 c 0.66404,0 17.6158,13.582982 20.29425,16.261435 1.62324,1.623232 1.94553,3.483742 0.60416,3.483742 -0.47481,0 -1.42681,0.181205 -2.11557,0.403927 -3.34257,1.081109 -15.15998,-4.39787 -20.76252,-9.626503 -3.34555,-3.122243 -3.27756,-4.039761 0.20022,-2.727 3.75121,1.41581 4.36959,0.459834 2.60775,-4.025454 -0.81472,-2.074217 -1.18714,-3.770147 -0.82829,-3.770147 z m -188.28779,2.820705 c 0.2478,0 2.1724,0.879226 4.2789,1.953965 4.7876,2.442251 11.5687,9.329513 12.8752,13.077081 0.9126,2.61841 0.8228,2.833606 -1.1829,2.833606 -2.5275,0 -8.1303,-3.590844 -11.3783,-7.292512 -2.0767,-2.366824 -5.6412,-10.57214 -4.5929,-10.57214 z m 317.31801,5.821455 c 0.43461,0.01819 1.01313,0.337515 1.95397,0.965983 3.49879,2.337051 17.34378,16.03913 18.55515,18.36402 1.08392,2.08075 1.0094,2.11565 -4.49927,2.11565 -4.8668,0 -6.13507,-0.40186 -9.6705,-3.06865 -6.22728,-4.69718 -9.9665,-13.530298 -7.42649,-17.543347 0.36232,-0.572394 0.65262,-0.852265 1.08714,-0.833656 z m -372.89701,3.147715 c 0.4065,0.475218 -0.5349,2.527932 -2.6518,6.363001 -1.6955,3.071467 -1.7817,3.705227 -0.5986,4.453367 2.3201,1.46742 4.3903,1.01478 7.5604,-1.65276 3.9028,-3.284012 2.4648,-0.318327 -2.0862,4.3026 -4.2733,4.33915 -7.0364,5.27577 -9.9423,3.37176 -2.0756,-1.36024 -2.4619,-1.36594 -3.9041,-0.0604 -0.8803,0.79653 -3.1574,2.09862 -5.0612,2.89415 v 0 c -4.0773,1.70362 -5.2333,1.75035 -7.7533,0.32139 -4.7694,-2.70467 -3.6111,-4.44733 5.9811,-9.00027 3.8308,-1.8185 9.6895,-5.367742 13.0184,-7.887403 3.2762,-2.479716 5.031,-3.582657 5.4376,-3.107191 z m 548.37572,3.724164 2.54158,2.33399 c 1.39853,1.284146 3.41072,3.739384 4.47173,5.456154 2.1522,3.4825 2.10084,3.7058 -0.7713,3.24307 -2.92078,-0.4705 -5.03329,-3.22132 -5.67821,-7.39159 z m -34.47873,3.96847 c 0.51987,-0.129349 0.49382,0.179882 0.11206,0.88146 -0.51822,0.952334 -2.35194,3.023664 -4.07499,4.601984 -5.73462,5.25286 -5.61569,5.22218 -9.92589,2.46822 -2.16793,-1.38529 -3.95756,-2.72932 -3.97584,-2.98785 -0.0182,-0.25862 2.23359,-0.50325 5.00426,-0.54179 3.71755,-0.0513 6.20065,-0.75071 9.4759,-2.67002 1.79856,-1.054147 2.8647,-1.622654 3.3845,-1.752004 z m -363.86369,12.498654 c 0.9153,-0.54577 0.7685,0.24753 0.4206,1.86762 -1.7647,8.21656 -7.1168,15.04395 -11.7917,15.04395 -1.0887,0 -3.8323,1.27587 -6.0988,2.83534 -4.1339,2.84436 -8.3628,4.10948 -10.5576,3.1588 -2.3947,-1.03753 -0.9965,-2.35293 6.0713,-5.70766 5.378,-2.55282 9.2887,-5.39586 15.1651,-11.02957 3.8981,-3.73707 5.8758,-5.62272 6.7911,-6.16848 z m 450.32216,16.72234 c 0,2.20108 -2.01731,6.11183 -4.00891,7.77352 -2.04262,1.70445 -6.80778,2.54877 -6.17766,1.09459 0.66386,-1.53243 10.18657,-9.82243 10.18657,-8.86811 z m -328.5825,10.32626 c -0.77659,-1.84364 14.93312,8.21872 17.74167,11.3637 l 1.79228,2.00541 -3.20271,-0.0438 c -5.78077,-0.0794 -15.05595,-6.13044 -15.47914,-10.09842 -0.0945,-0.88592 -0.4777,-2.33787 -0.8521,-3.22653 z m -327.70826,5.17868 c 0,-0.47092 9.4836,6.72988 12.4583,9.45927 1.422,1.30491 2.5856,2.82162 2.5856,3.37177 0,2.34821 -5.0978,0.62772 -9.2538,-3.12374 -1.7672,-1.59527 -5.7901,-8.33995 -5.7901,-9.7073 z m 457.11131,0.13026 c -0.0347,-0.5365 0.78817,0.11694 2.47177,2.04403 1.40109,1.60363 5.60783,5.5291 9.34738,8.72478 3.73954,3.19577 7.24504,6.64494 7.79006,7.66344 0.85342,1.59453 0.69157,1.8438 -1.15877,1.80154 -3.54064,-0.0811 -11.36329,-3.49193 -14.85844,-6.47895 l -3.27434,-2.79689 2.58566,-0.038 c 1.42218,-0.0207 2.58574,-0.3084 2.58574,-0.63905 0,-0.33074 -1.26934,-2.66456 -2.82078,-5.18604 -1.742,-2.83113 -2.63363,-4.55749 -2.66828,-5.09424 z m -189.39691,8.4311 c 0.2042,0.20403 -1.8239,4.75275 -4.5083,10.10759 -23.0234,45.92531 -75.9308,122.43068 -123.7727,178.98073 -9.4587,11.18035 -8.2656,10.76542 -24.2535,8.43838 -4.6543,-0.67751 -18.4053,-2.12376 -30.558,-3.2138 -12.1526,-1.09004 -39.8664,-3.6513 -61.5859,-5.69285 -21.7197,-2.04155 -43.8986,-4.04051 -49.2859,-4.44228 l -9.7934,-0.73094 12.965,-13.63351 c 14.207,-14.93834 31.8763,-35.65314 42.9059,-50.30317 20.8129,-27.64457 55.0124,-79.79914 63.9918,-97.58705 l 2.8207,-5.58814 3.6912,0.58943 c 33.5212,5.36021 88.7206,0.55519 160.6369,-13.98435 9.0069,-1.82089 16.5421,-3.14407 16.7462,-2.94004 z m 5.6856,4.11179 3.7408,6.45489 c 2.0567,3.55073 6.58123,11.48619 10.0543,17.63325 29.02375,51.36913 71.79241,114.94075 103.65282,154.07159 5.3684,6.59358 9.51278,11.9882 9.20959,11.9882 -0.97459,0 -16.10347,-10.21825 -17.34676,-11.71627 -0.66031,-0.79569 -1.47362,-1.44723 -1.807,-1.44723 -0.90115,0 0.5824,20.88831 2.73254,38.4601 1.03802,8.48312 1.74026,15.57169 1.55914,15.75281 -0.67561,0.67553 -20.19832,-20.17234 -25.67308,-27.41589 -15.93558,-21.08383 -31.41157,-46.85854 -46.85614,-78.04029 -13.83754,-27.93734 -34.38601,-74.67364 -35.07731,-79.78128 -0.4595,-3.39392 -0.679,-2.98189 -3.5297,6.58167 -5.2706,17.68238 -14.5346,42.58539 -21.1058,56.73431 -9.2495,19.91547 -24.7224,48.32869 -34.8222,63.9476 -23.0525,35.64958 -39.2256,54.92326 -57.7132,68.78107 -4.3791,3.28244 -9.3178,6.76552 -10.9762,7.7406 l -3.0153,1.77392 0.5857,-4.12445 c 1.5231,-10.72821 3.4442,-32.82152 4.0237,-46.26126 l 0.6409,-14.86952 5.1548,-6.286 c 38.2969,-46.69314 81.3709,-112.01577 108.8426,-165.06065 z m 414.72504,0.21843 c 1.44881,0 9.53644,7.64226 9.53644,9.01135 0,1.85124 -1.10311,1.66921 -4.73241,-0.7842 -2.93566,-1.98457 -6.58051,-8.22715 -4.80403,-8.22715 z m -150.11231,4.93073 c 0.73086,0.36232 2.35426,1.78715 5.50925,4.59106 3.58654,3.18767 6.52113,6.15641 6.52113,6.59822 0,1.07589 -0.87559,0.96805 -4.23114,-0.52327 -3.72846,-1.65723 -6.89594,-5.19365 -7.95348,-8.88093 -0.41468,-1.446 -0.57661,-2.14724 0.15424,-1.78508 z m 88.97252,8.09325 c 0.57702,0.28053 2.26352,1.76027 5.60287,4.70288 3.72829,3.28542 6.77825,6.35291 6.77825,6.8168 0,1.00428 -0.7636,0.9903 -3.29087,-0.0546 -2.34566,-0.97012 -5.14304,-4.09418 -8.03619,-8.97447 -1.09831,-1.85282 -1.63109,-2.77083 -1.05406,-2.49013 z m -348.14395,68.30726 1.13672,7.52193 c 0.62574,4.13702 1.9729,14.71478 2.99331,23.50606 5.51214,47.48783 6.86046,58.46771 8.60552,70.04834 3.51583,23.33279 8.30538,43.07615 11.33434,46.72563 0.90916,1.09567 4.33137,1.23709 19.51559,0.80438 10.12686,-0.28855 17.98879,-0.33627 17.47164,-0.10453 -0.51715,0.23148 -11.30647,1.31325 -23.97623,2.40379 -12.66985,1.09029 -36.84529,3.23017 -53.72439,4.75441 -27.7004,2.50138 -38.6295,3.19543 -34.6586,2.20001 1.7712,-0.44396 51.8603,-6.01052 54.08421,-6.01052 1.37529,0 1.53739,-0.56437 1.01743,-3.52592 -5.68934,-32.40477 -7.71734,-86.11294 -4.92524,-130.45902 z m 146.89846,56.18515 c 17.71719,-0.01 38.25567,0.21776 49.08378,0.67396 l 11.75307,0.49573 -10.81281,0.70149 v 0 c -18.66052,1.20955 -80.68086,0.32718 -82.1778,-1.16976 -0.45934,-0.45901 14.43665,-0.69422 32.15376,-0.69952 z m 369.0663,14.59578 c -3.83937,0.10851 -8.91293,0.78072 -12.113,1.6932 -6.03094,1.7195 -7.39895,4.15836 -7.83968,13.97144 -0.28707,6.39344 -0.31792,6.45885 -3.59564,7.81578 -6.66247,2.75818 -6.80373,4.88864 -0.32693,4.91973 3.90561,0.0182 5.9537,0.85591 5.9537,2.43324 0,0.70265 -2.85602,4.15877 -6.34671,7.67981 -6.87527,6.93548 -12.50576,15.73544 -14.87126,23.24174 -0.82159,2.60716 -1.76309,5.25386 -1.86945,5.93344 -0.70579,4.50927 -2.20538,10.83869 -3.25597,17.02735 l -2.16147,12.49121 -2.90705,-0.52145 c -1.59916,-0.28657 -5.86884,-0.77775 -9.4888,-1.0926 -11.04959,-0.96177 -34.23203,-4.19483 -44.66159,-6.22753 -15.44332,-3.0096 -27.16654,-4.36587 -27.56096,-3.18973 -1.42755,4.2571 14.6019,39.46628 22.18396,48.72748 l 2.08612,2.54704 32.43843,2.81706 c 29.2473,2.53943 37.06341,2.85412 79.45072,3.19908 25.85667,0.21032 49.76244,0.22661 53.12378,0.0347 7.53252,-0.43023 61.05362,-4.96274 66.44336,-5.62686 3.39434,-0.41823 4.40663,-1.13619 7.58073,-5.37336 4.9462,-6.6026 15.34392,-23.33908 18.80856,-30.27696 3.05037,-6.10836 5.67168,-15.10746 4.68833,-16.09065 -0.33562,-0.3357 -8.98076,1.13908 -19.21249,3.27797 -24.95776,5.21739 -43.79171,8.12162 -67.52504,10.41261 -10.87616,1.04968 -21.66548,2.14774 -23.97623,2.43869 -4.09195,0.51475 -4.26116,0.4313 -6.44951,-3.18997 -2.7681,-4.58057 -3.88477,-4.84076 -20.79552,-4.84076 -11.54358,0 -12.97957,-0.17706 -13.33057,-1.64547 -0.21643,-0.90495 -0.24712,-2.32333 -0.0678,-3.15128 0.29417,-1.35982 0.83564,-1.33699 5.60104,0.23505 6.95823,2.29561 9.88702,1.31904 15.00169,-0.51599 9.32066,-3.34381 9.3248,-9.44307 26.65188,-13.05881 1.33492,-0.27854 1.88515,-1.2901 1.89516,-3.16582 0.019,-3.45406 0.70546,-4.40879 4.61861,-6.41469 3.07634,-1.57684 3.27789,-1.57684 4.43682,0.01 0.95953,1.31226 1.49496,1.42813 2.55622,0.54725 0.73854,-0.61283 1.1433,-1.87721 0.8999,-2.8078 -0.29062,-1.11138 0.44379,-2.27114 2.13757,-3.38086 3.71572,-2.4358 31.59096,-17.42392 32.40352,-17.42392 0.37589,0 0.9401,0.66866 1.25429,1.48743 0.83829,2.18446 2.92177,1.06548 2.92177,-1.57014 0,-1.90161 1.36545,-2.98098 8.4622,-6.68273 20.84936,-10.8755 51.4176,-22.38203 64.71707,-24.36006 7.90982,-1.17647 10.83655,-0.35389 14.00635,3.93166 3.45802,4.67535 4.58453,17.35661 2.6261,29.54445 -2.3507,14.62878 -2.87984,23.39689 -1.86217,30.82976 1.90534,13.91545 7.26357,25.13458 17.20542,36.02488 l 5.49089,6.01416 h -11.69071 c -12.92822,0 -40.50563,1.71148 -43.119,2.67572 -0.91735,0.33884 12.01988,0.47332 28.7509,0.30113 23.80612,-0.22843 36.06095,-1.01056 48.45754,-1.14032 4.39556,-0.0455 9.68448,-0.4151 11.75299,-0.84301 2.54067,-0.5255 -2.07314,-0.81174 -14.2193,-0.88518 l -17.98036,-0.10834 -6.49723,-6.84062 c -13.71208,-14.43524 -19.68364,-34.80004 -16.3276,-55.68562 3.12696,-19.45944 2.97388,-33.34073 -0.44254,-39.94746 -3.54255,-6.85046 -12.81094,-7.26175 -31.9757,-1.42135 -29.03053,8.84668 -62.05459,23.29127 -96.61561,42.26135 -12.56192,6.89504 -15.94774,8.11112 -17.15398,6.15938 -1.4785,-2.39221 -10.81281,1.14454 -10.81281,4.097 0,1.40489 -2.85552,2.04014 -13.68132,3.04483 l -6.62947,0.61515 -5.45226,-12.75023 c -2.99918,-7.01256 -6.25665,-13.47712 -7.23917,-14.36627 -2.52363,-2.28379 -2.24236,-4.14662 0.62623,-4.14662 3.91488,0 5.86058,-1.50397 5.35683,-4.13917 -0.24448,-1.27877 0.23107,-3.67967 1.05778,-5.33665 1.41168,-2.83005 1.38993,-3.19816 -0.37101,-6.04748 -1.03115,-1.66839 -1.87498,-3.28509 -1.87498,-3.59192 0,-0.30692 1.79823,-1.03537 3.99609,-1.61976 4.40606,-1.17158 10.10759,-4.3437 10.10759,-5.62305 0,-0.44974 -3.27913,-1.53052 -7.28688,-2.40214 l -7.28689,-1.58477 -2.27163,-4.57262 c -1.249,-2.51512 -2.7299,-4.62448 -3.29088,-4.68833 -0.89048,-0.10165 -2.03311,-0.12761 -3.31288,-0.0921 z m 144.85092,23.71356 c -0.51715,0 -1.20094,0.42312 -1.52059,0.94027 -0.31957,0.51714 -0.15896,0.94026 0.3581,0.94026 0.51715,0 1.20285,-0.42312 1.52242,-0.94026 0.31965,-0.51715 0.15722,-0.94027 -0.35993,-0.94027 z m -969.87708,10.88816 c 0.1859,0.15821 -1.6369,8.51959 -4.0511,18.58087 -3.8701,16.12795 -4.6334,18.36186 -6.4495,18.87281 -1.133,0.31882 -11.3355,1.84281 -22.6724,3.38632 -22.9145,3.11976 -22.1692,3.04475 -22.1692,2.18545 0,-1.90773 8.8444,-11.73016 19.8607,-22.05717 22.6617,-21.24352 20.4388,-19.63088 28.2496,-20.49447 3.7914,-0.41915 7.0459,-0.63194 7.2319,-0.47381 z m 420.48768,6.22 c 0.9793,-0.3935 13.8593,3.51558 17.3284,5.2594 5.77035,2.9006 37.6583,33.22164 41.96577,39.90346 1.57642,2.44539 2.72138,4.81164 2.5453,5.25774 -0.17608,0.44619 -10.26258,-1.18771 -22.41528,-3.63062 -28.45242,-5.71948 -31.83725,-6.51013 -32.50451,-7.58992 -1.06076,-1.71644 -7.62721,-38.91589 -6.91968,-39.20006 z m -257.11848,9.47946 c 0.3311,0.33123 -1.4959,3.47563 -4.0584,6.98766 -2.5625,3.51211 -9.4611,13.36655 -15.3323,21.8992 -5.871,8.53275 -12.7506,18.1585 -15.2863,21.3905 -2.5356,3.23215 -5.0054,5.87653 -5.489,5.87653 -0.4838,0 -1.3427,-1.01767 -1.9098,-2.26237 -0.9512,-2.08745 0.3554,-4.04001 16.8417,-25.15162 17.6758,-22.63469 24.0641,-29.90984 25.2341,-28.7399 z m 544.39263,42.35332 c 0.20412,-0.20395 8.19606,1.72214 17.75813,4.28067 25.41479,6.80026 41.36278,9.77339 72.18219,13.46091 13.36911,1.59991 62.70116,1.58536 78.98054,-0.0231 56.57867,-5.59212 54.18438,-5.41538 45.94342,-3.41568 -8.09904,1.9653 -42.77031,6.83169 -59.10684,8.29505 -18.47261,1.65474 -23.00115,1.71603 -43.72141,0.59315 -33.6273,-1.82238 -62.82729,-6.43636 -86.97265,-13.74193 -9.60053,-2.90465 -25.58243,-8.92923 -25.06338,-9.44828 z m 378.06649,36.4638 c -0.40666,-0.01 -1.04596,0.067 -1.82172,0.22594 -10.91594,2.24641 -67.59369,2.94501 -89.79335,1.10741 l -5.17132,-0.42799 4.23105,0.90164 c 7.49349,1.59627 27.0649,2.79696 45.58168,2.79696 9.92283,0 18.21846,-0.15581 18.43398,-0.34702 0.21545,-0.1913 4.19914,-0.61904 8.85331,-0.94953 9.77752,-0.69438 19.27409,-2.1283 20.10874,-3.03548 0.15871,-0.17252 -0.0157,-0.26251 -0.42237,-0.27193 z m -409.98884,0.60605 c -18.32011,-0.0116 -34.49536,0.48597 -32.33745,1.17713 1.29283,0.41418 14.62075,0.75294 29.61764,0.75294 14.99698,0 28.3249,-0.33876 29.61773,-0.75294 1.53143,-0.49035 -1.41763,-0.83333 -8.4622,-0.98435 -5.98347,-0.12777 -12.3291,-0.19278 -18.43572,-0.19278 z m 309.64708,11.86323 c -8.92997,-0.1205 -30.87143,0.77734 -50.50876,2.20928 -31.65035,2.30777 -120.58548,1.98614 -191.33978,-0.6924 -28.16329,-1.06614 -77.22507,-1.03794 -70.83419,0.0405 4.29457,0.72491 21.72726,2.14684 41.06231,3.34968 5.34508,0.33239 9.36457,0.91446 8.93228,1.29275 -0.43229,0.37837 -4.42177,1.4278 -8.8662,2.33225 -8.8653,1.80444 -10.81306,2.62387 -9.87073,4.1486 1.70205,2.75388 14.61471,3.91199 60.73206,5.44673 27.33956,0.90982 23.09403,1.58097 -19.7451,3.12191 -23.14571,0.83258 -32.55785,1.50654 -35.49425,2.54166 -2.19786,0.77452 -3.99602,1.72851 -3.99602,2.12095 0,2.63139 35.0355,7.97779 70.82866,10.80743 9.22067,0.72879 16.95019,1.50943 17.17606,1.7353 0.62077,0.62085 -44.82187,2.69267 -90.20291,4.11353 -11.50793,0.36034 -19.92638,0.98095 -19.15566,1.41225 2.92987,1.63969 74.37864,4.55129 112.00849,4.56353 8.23103,0 14.78922,0.17616 14.57377,0.38565 -0.21544,0.20949 -6.10314,0.86318 -13.08444,1.45253 -26.86236,2.26766 -49.46223,5.0045 -50.58411,6.12638 -0.69951,0.69935 55.68604,0.3553 83.25576,-0.50879 30.36008,-0.95143 49.41459,-2.46648 55.71135,-4.42756 l 5.17132,-1.6105 -6.11158,-0.22958 c -19.7604,-0.74236 -64.81591,-5.50875 -66.32401,-7.01695 -0.71978,-0.71977 26.20295,-1.68211 73.84594,-2.63892 35.11655,-0.70521 64.94864,-2.36227 74.85047,-4.15769 1.13172,-0.20528 4.43467,-0.67115 7.33833,-1.0338 2.90366,-0.36291 5.44424,-0.92695 5.64695,-1.25429 0.20271,-0.32768 -17.46817,-0.46174 -39.26805,-0.29749 -41.16569,0.30997 -86.71684,-0.93067 -88.1884,-2.40214 -0.50391,-0.50392 12.41884,-1.50248 31.84528,-2.4626 65.1535,-3.22008 70.3684,-3.53526 74.5328,-4.48272 5.62388,-1.27935 11.13966,-1.60347 46.07195,-2.71046 29.48184,-0.93422 49.29508,-2.21308 57.355,-3.70225 2.46938,-0.45619 -23.56453,-0.87335 -62.52632,-1.00088 -42.07164,-0.13779 -64.67126,-0.51889 -61.1159,-1.03024 18.74173,-2.69566 26.51914,-4.40763 25.1809,-5.54225 -0.40442,-0.34289 -3.38118,-1.39729 -6.61657,-2.34317 -3.23538,-0.94614 -5.77414,-1.82875 -5.64149,-1.96141 0.30014,-0.30013 20.5116,-2.87273 29.38814,-3.7407 3.61996,-0.35398 7.21643,-1.01834 7.99211,-1.47652 0.482,-0.28467 -1.04877,-0.43709 -4.02546,-0.47745 z m -803.74956,4.76558 c -0.09,-0.0116 -0.1377,6.6e-4 -0.1377,0.038 0,0.30228 2.3847,3.36068 5.2981,6.7948 6.5644,7.7382 9.9874,14.98622 10.5245,22.28303 l 0.4078,5.54787 -3.2432,-2.47376 c -7.2673,-5.54299 -20.8052,-10.25927 -32.7323,-11.40224 l -6.1115,-0.58587 7.0518,3.80876 c 3.8785,2.09465 10.9828,6.97865 15.7876,10.85135 7.0524,5.68425 9.3553,7.04077 11.9496,7.04077 1.7675,0 6.2986,0.41442 10.069,0.92008 3.7703,0.50573 12.3558,1.54871 19.0786,2.31943 30.6901,3.51815 38.6332,4.58065 53.5941,7.16027 8.7913,1.51572 17.2535,3.11803 18.8048,3.56256 11.4716,3.28666 -8.0784,-9.3396 -22.2353,-14.36081 -4.8358,-1.71504 -13.0239,-3.85732 -18.1952,-4.75995 -5.1714,-0.90263 -10.0076,-1.82048 -10.7466,-2.03841 -0.9162,-0.27019 0.2711,-2.02906 3.7297,-5.53133 2.7897,-2.82492 4.6265,-5.13641 4.0804,-5.13641 -2.424,0 -15.6252,3.82737 -19.2623,5.58459 -2.2054,1.06564 -4.1377,1.93742 -4.2917,1.93742 -0.6332,0 3.8023,-10.28226 6.8078,-15.78208 1.7757,-3.25019 3.2284,-6.09041 3.2284,-6.31379 0,-0.22322 -1.4469,0.44767 -3.2156,1.49123 -3.38,1.99416 -9.4913,8.19779 -12.3022,12.48774 -0.9131,1.39356 -1.813,2.38311 -1.998,2.1981 -0.1851,-0.18517 0.7169,-5.80466 2.0036,-12.48765 2.8442,-14.77466 2.8352,-14.30573 0.1927,-11.04793 -3.3912,4.18093 -5.3126,7.51614 -8.1261,14.11096 l -2.6133,6.12647 -2.0568,-3.32768 c -3.1649,-5.12095 -11.3628,-12.1092 -18.7754,-16.00431 -3.226,-1.69518 -5.9374,-2.93177 -6.5653,-3.01175 z m 641.08179,58.89561 c -23.84449,0.10529 -42.98129,1.49769 -42.98129,3.77015 0,3.16575 35.97775,5.47327 62.05615,3.97955 16.51285,-0.9458 50.12163,-4.08012 49.57768,-4.62406 -0.16689,-0.1669 -10.86094,-0.99394 -23.76509,-1.83636 -14.57948,-0.95184 -30.58081,-1.35221 -44.88745,-1.28928 z m 5.25766,15.10275 c -10.29144,-0.0562 -26.02481,0.78851 -26.98062,1.74456 -1.06994,1.07019 29.24588,1.11825 35.62642,0.0562 l 3.76097,-0.62615 -4.67733,-0.78974 c -1.47189,-0.24844 -4.29896,-0.36688 -7.72944,-0.38557 z" /></g></svg>
