<?xml version="1.0" encoding="UTF-8" standalone="no"?>
<!-- Created with Inkscape (http://www.inkscape.org/) -->

<svg
   width="1280.0001"
   height="944.71246"
   viewBox="0 0 1280 944.71252"
   version="1.1"
   id="svg5"
   inkscape:version="1.4.2 (f4327f4, 2025-05-13)"
   xml:space="preserve"
   sodipodi:docname="11.svg"
   xmlns:inkscape="http://www.inkscape.org/namespaces/inkscape"
   xmlns:sodipodi="http://sodipodi.sourceforge.net/DTD/sodipodi-0.dtd"
   xmlns="http://www.w3.org/2000/svg"
   xmlns:svg="http://www.w3.org/2000/svg"><sodipodi:namedview
     id="namedview7"
     pagecolor="#ffffff"
     bordercolor="#666666"
     borderopacity="1.0"
     inkscape:showpageshadow="2"
     inkscape:pageopacity="0.0"
     inkscape:pagecheckerboard="0"
     inkscape:deskcolor="#d1d1d1"
     inkscape:document-units="px"
     showgrid="false"
     showborder="false"
     inkscape:zoom="0.47022002"
     inkscape:cx="970.82213"
     inkscape:cy="541.23599"
     inkscape:window-width="1920"
     inkscape:window-height="991"
     inkscape:window-x="-9"
     inkscape:window-y="-9"
     inkscape:window-maximized="1"
     inkscape:current-layer="layer1" /><defs
     id="defs2"><clipPath
       clipPathUnits="userSpaceOnUse"
       id="clipPath8006"><path
         inkscape:connector-curvature="0"
         id="path8008"
         d="m -1244.8456,-140.77945 h 33.9355 c 11.5456,0 20.8405,9.29479 20.8405,20.84039 v 31.873282 c 0,11.545575 -9.2949,20.840392 -20.8405,20.840392 h -33.9355 c -11.5456,0 -20.8405,-9.294817 -20.8405,-20.840392 v -31.873282 c 0,-11.5456 9.2949,-20.84039 20.8405,-20.84039 z"
         style="opacity:0.521;fill:#ff0000;fill-opacity:1;stroke:none;stroke-width:1.61448;stroke-linecap:round;stroke-linejoin:round;stroke-miterlimit:4;stroke-dasharray:none" /></clipPath><clipPath
       clipPathUnits="userSpaceOnUse"
       id="clipPath8001"><path
         style="opacity:0.521;fill:#ff0000;fill-opacity:1;stroke:none;stroke-width:1.59706;stroke-linecap:round;stroke-linejoin:round;stroke-miterlimit:4;stroke-dasharray:none"
         d="m -2936.6731,-1508.8075 h 33.5693 c 11.421,0 20.6155,9.1945 20.6155,20.6155 v 31.5293 c 0,11.421 -9.1945,20.6155 -20.6155,20.6155 h -33.5693 c -11.421,0 -20.6156,-9.1945 -20.6156,-20.6155 v -31.5293 c 0,-11.421 9.1946,-20.6155 20.6156,-20.6155 z"
         id="path8003"
         inkscape:connector-curvature="0" /></clipPath></defs><g
     inkscape:label="Layer 1"
     inkscape:groupmode="layer"
     id="layer1"
     transform="translate(1238.5405,322.68679)"><path
       style="fill:#000000;stroke-width:1"
       d="m -626.65592,621.51742 c -17.74198,-0.63541 -34.72116,-2.2714 -35.90984,-3.46009 -2.1859,-2.1859 6.51888,-4.11884 27.00839,-5.99751 21.40613,-1.96272 80.47414,-1.62878 94.04904,0.53176 5.93661,0.94485 11.59163,2.16438 12.56684,2.71015 5.05429,2.82862 -13.55214,5.2618 -45.35265,5.93113 -13.24749,0.2788 -25.97141,0.61716 -28.27538,0.75204 -2.30387,0.13479 -13.14278,-0.0759 -24.0864,-0.46748 z m -32.46426,-19.73727 c -66.99588,-2.45567 -96.54237,-5.05737 -101.82483,-8.96591 -1.69238,-1.25229 -1.5329,-1.50428 1.85475,-2.93103 7.49362,-3.15593 39.26598,-6.93814 76.40726,-9.09541 19.35366,-1.12412 29.16817,-2.62783 27.55792,-4.22231 -1.8851,-1.86656 -15.8831,-3.19926 -43.26647,-4.11914 -90.36462,-3.03584 -143.9859,-6.85331 -161.13791,-11.47182 -2.379,-0.6406 -4.3254,-1.56557 -4.3254,-2.05534 0,-1.20674 11.26883,-4.01855 21.24223,-5.30052 4.48353,-0.57613 17.44311,-1.52195 28.79897,-2.10154 45.05425,-2.29965 59.53856,-3.83256 52.45766,-5.55156 -12.23846,-2.97118 -57.02842,-5.71756 -115.06569,-7.05553 -57.67354,-1.32953 -81.68434,-3.45442 -81.68434,-7.22866 0,-1.62668 6.14719,-2.87704 31.3972,-6.38622 23.73421,-3.29849 28.43409,-4.36517 24.53861,-5.56942 -3.12095,-0.96484 -23.04883,-2.64387 -45.46351,-3.83063 -54.27917,-2.87386 -89.44247,-6.91614 -91.68167,-10.53926 -2.0801,-3.36575 24.4094,-6.36431 82.78023,-9.37066 21.96948,-1.13142 30.00206,-2.18205 26.18084,-3.42435 -4.25344,-1.38274 -35.91004,-2.80776 -85.34977,-3.84187 -61.4407,-1.28504 -74.3739,-1.7995 -95.0317,-3.77971 -24.1758,-2.31743 -37.6973,-5.32771 -35.1905,-7.83449 2.6999,-2.69988 23.6638,-5.95226 57.4393,-8.91143 10.9437,-0.95879 20.5702,-2.10914 21.3923,-2.55616 0.8222,-0.44711 -4.5972,-1.12691 -12.0431,-1.51091 -7.5927,-0.39148 -15.1478,-1.34931 -17.2034,-2.18109 -2.2745,-0.92036 -14.9909,-2.29907 -33.5116,-3.6334 -75.1741,-5.41619 -91.8374,-7.09685 -102.5161,-10.34001 -8.2289,-2.49909 -8.2286,-4.38371 0,-13.18208 7.2275,-7.72621 12.2208,-11.0395 21.3936,-14.19542 5.1033,-1.7558 7.2912,-3.36143 12.7904,-9.3867 4.6754,-5.12269 8.5778,-8.22559 13.2184,-10.51015 6.7964,-3.34577 19.5035,-6.16967 28.0513,-6.23366 l 4.8801,-0.0365 -2.4144,-4.97436 c -1.3279,-2.73591 -2.221,-5.17774 -1.9845,-5.42637 0.2363,-0.24854 2.1342,1.16515 4.2175,3.14171 l 3.7878,3.59372 -0.7186,-3.14171 c -0.3953,-1.72793 -2.082,-6.08705 -3.7484,-9.68692 -1.6664,-3.59987 -2.6758,-6.54521 -2.2431,-6.54521 1.3508,0 7.1255,6.57115 10.5837,12.04315 2.2196,3.51197 3.1189,4.37411 2.7311,2.61813 -3.1209,-14.12905 -4.698,-22.42938 -4.3316,-22.79589 0.5595,-0.55942 5.5621,7.32819 7.7697,12.25057 l 1.6766,3.73831 0.2959,-3.66539 c 0.1627,-2.01585 0.5918,-5.31464 0.9535,-7.33059 l 0.6576,-3.66529 1.4063,5.23615 c 0.7736,2.87991 1.4156,7.26689 1.4266,9.74869 0.013,2.73735 0.4322,4.25796 1.0676,3.86531 0.5759,-0.35594 1.0471,-2.2886 1.0471,-4.29484 0,-12.04316 6.5115,-31.23763 17.3076,-51.01901 4.3043,-7.88655 7.8261,-14.64523 7.8261,-15.01923 0,-0.37391 -0.8247,0.0394 -1.8327,0.91863 -2.9804,2.59977 -6.1578,3.94294 -11.9055,5.03305 -5.5255,1.04785 -9.0118,-0.0442 -7.5728,-2.37247 0.3618,-0.58555 0.2387,-0.8607 -0.2734,-0.61158 -9.4748,4.60813 -19.5979,6.71737 -24.0732,5.01586 -3.0718,-1.16784 -3.1565,-2.19782 -0.3871,-4.70402 2.6058,-2.35815 6.6742,-8.79557 5.9907,-9.47902 -0.2738,-0.27371 -1.772,-0.0134 -3.3293,0.57873 -1.5573,0.59209 -5.8791,1.07657 -9.604,1.07657 -14.1703,0 -18.814,-5.64474 -7.8182,-9.50342 8.2627,-2.89952 16.24,-7.98695 23.1954,-14.79251 5.2738,-5.16016 11.4293,-13.22233 11.4293,-14.96948 0,-0.30752 -1.8765,0.68249 -4.1699,2.20022 -5.2318,3.4622 -13.2839,4.63513 -14.2653,2.07792 -0.3916,-1.02057 0.1436,-2.66482 1.2904,-3.96379 1.9419,-2.19974 1.9359,-2.21347 -0.6583,-1.50687 -10.167,2.76905 -12.6058,3.0759 -15.1679,1.90854 -4.905,-2.2349 -3.2952,-4.76127 6.0045,-9.42301 4.7519,-2.38208 11.4889,-6.81825 14.9711,-9.85812 6.6259,-5.78424 17.2315,-16.79223 17.2315,-17.88522 0,-0.34989 -2.4741,0.5157 -5.498,1.92353 -5.5399,2.57921 -14.7421,3.52042 -15.9121,1.62753 -0.9495,-1.53675 0.4092,-3.93496 2.8827,-5.08762 1.7794,-0.82928 0.4562,-1.05918 -5.8881,-1.02296 -6.2542,0.0355 -8.5908,-0.36056 -9.9115,-1.68105 -1.5146,-1.51475 -1.5387,-1.90672 -0.1944,-3.17562 0.8433,-0.79605 3.9469,-2.2275 6.8967,-3.18101 5.3192,-1.71947 16.3264,-7.78692 19.1404,-10.55098 1.2171,-1.19541 0.7353,-1.18724 -2.8512,0.048 -4.3601,1.50216 -10.4215,0.53655 -9.1855,-1.46335 0.3024,-0.4892 3.6878,-2.72476 7.5231,-4.96773 6.5742,-3.84476 20.8884,-17.59778 23.6114,-22.68579 1.2913,-2.41291 1.6785,-2.46921 -8.7934,1.27938 -6.098,2.18273 -11.2452,2.00721 -11.2452,-0.38352 0,-0.6796 2.1505,-3.03334 4.7791,-5.23057 5.2463,-4.38525 5.5425,-5.8854 0.6642,-3.36277 -4.5497,2.35277 -11.0434,3.16467 -13.7453,1.71871 -4.1463,-2.21905 -2.3246,-5.32877 6.5185,-11.12722 9.9595,-6.53022 14.3607,-10.65416 19.7111,-18.46876 l 4.1029,-5.99251 -3.9464,0.23268 c -3.5265,0.208 -3.9199,-0.0182 -3.697,-2.12355 0.2544,-2.4034 -1.1745,-3.20146 -2.344,-1.30906 -1.4787,2.39255 -10.7776,0.1786 -11.7592,-2.79979 -0.2228,-0.67586 2.3568,-3.10443 5.7323,-5.39678 8.0472,-5.46461 25.5346,-24.48308 23.9601,-26.05759 -0.2245,-0.22451 -2.1958,0.80488 -4.3806,2.28755 -4.4787,3.03929 -6.2596,2.94495 -6.1405,-0.32549 0.073,-2.01076 -0.3182,-2.16986 -3.9215,-1.59363 -6.6804,1.06812 -9.1869,-3.12326 -3.4349,-5.744071 4.0689,-1.85388 11.9076,-9.587679 16.3533,-16.134139 2.2496,-3.312619 3.8884,-6.02297 3.6419,-6.02297 -0.2465,0 -2.5026,0.932079 -5.0134,2.07148 -10.2177,4.636379 -11.9059,1.335577 -3.5322,-6.905573 6.1655,-6.067643 12.0575,-14.354523 12.0575,-16.958235 0,-1.161785 -1.0048,-1.33404 -4.6197,-0.792008 -6.3492,0.952158 -7.1206,-0.84869 -2.2677,-5.294465 5.3819,-4.930452 7.3747,-10.13192 10.5842,-27.624789 1.5321,-8.351631 2.92,-15.3245497 3.0841,-15.4954597 0.4872,-0.5073502 1.3428,3.8194888 3.1676,16.0191417 2.5873,17.296597 4.3872,22.898008 9.0661,28.213416 4.4788,5.088104 4.0083,6.444721 -1.8534,5.344998 l -3.6477,-0.684217 2.1486,4.211554 c 1.1818,2.316364 4.9744,7.232406 8.4283,10.924601 5.4139,5.787404 6.0616,6.893948 4.6986,8.02499 -0.9763,0.810262 -3.1689,1.099147 -5.7333,0.755117 l -4.1525,-0.556923 1.5991,3.092329 c 2.5132,4.859936 4.2745,4.808923 9.5548,-0.276972 5.4874,-5.285722 21.4344,-24.138666 20.8836,-24.689441 -0.2029,-0.202901 -2.9116,0.814681 -6.0191,2.26122 -3.721,1.732157 -7.4982,2.633686 -11.0626,2.640411 -9.9271,0.01921 -11.4713,-2.364496 -4.2745,-6.597569 2.4479,-1.43991 5.6289,-3.900861 7.0689,-5.469026 l 2.618,-2.850902 -3.4665,1.763572 c -1.944,0.98905 -5.1636,1.622349 -7.3307,1.442216 -3.3324,-0.277068 -3.9094,-0.714095 -4.193,-3.17543 -0.2743,-2.380155 0.4919,-3.423773 4.6122,-6.283418 8.4525,-5.866374 15.345,-12.111748 22.6051,-20.483074 3.8452,-4.433574 6.8313,-8.220687 6.6361,-8.415903 -0.1952,-0.195216 -1.6146,0.470555 -3.1544,1.479491 -6.8789,4.507164 -16.9511,3.177255 -12.5733,-1.6602 1.8269,-2.0186409 1.7516,-2.0388157 -5.1923,-1.3903375 -5.2599,0.4911142 -7.2614,0.3094442 -7.8957,-0.7169768 -1.4019,-2.2684249 -0.092,-3.9292017 5.6626,-7.17668475 7.6172,-4.29888245 16.7127,-12.88915395 22.7506,-21.48672595 2.8109,-4.002504 4.9598,-7.428007 4.7755,-7.61227 -0.1843,-0.18436 -1.7662,0.205015 -3.5152,0.865214 -4.6571,1.757904 -7.0326,0.511865 -6.2723,-3.289755 l 0.6136,-3.068118 -3.5852,2.115288 c -4.74,2.796622 -8.2838,2.284372 -8.6959,-1.257087 -0.2604,-2.237875 0.7117,-3.412245 5.7598,-6.959181 6.4304,-4.518212 17.965,-15.973508 20.0808,-19.942868 1.1978,-2.247001 1.0901,-2.35239 -2.1437,-2.09444 -4.6522,0.370929 -4.9994,-2.193778 -0.9253,-6.834096 3.8411,-4.374683 4.2771,-6.739563 0.8256,-4.478055 -3.6388,2.38419 -11.094,4.767132 -12.8301,4.100977 -2.8057,-1.076666 -1.6355,-3.198872 4.1881,-7.595842 6.7277,-5.079362 13.4723,-13.610934 15.6583,-19.80664 0.8511,-2.412435 1.3866,-4.386214 1.19,-4.386214 -0.1965,0 -1.7072,0.70391 -3.357,1.564421 -3.481,1.815355 -7.2981,2.047174 -8.2537,0.50101 -0.3658,-0.591893 0.7865,-2.432231 2.5608,-4.089641 5.9759,-5.58229 10.1817,-16.65292 13.1554,-34.62912 1.477,-8.92767 2.9743,-16.93902 3.3274,-17.80299 0.8212,-2.00932 1.6183,1.40216 5.101,21.83249 3.1819,18.66445 4.8121,23.02242 11.3785,30.41574 2.6474,2.98079 4.8135,5.890009 4.8135,6.464897 0,1.990108 -3.2805,2.289753 -7.391,0.67509 -2.2708,-0.891922 -4.1287,-1.37218 -4.1287,-1.067155 0,0.305025 1.5265,3.448079 3.3922,6.984543 2.0115,3.812956 6.48709,9.477678 10.99598,13.917592 4.18216,4.118173 7.60382,8.24163 7.60382,9.163334 0,1.958692 -3.8583,2.225001 -9.36268,0.646461 -4.52532,-1.297821 -5.48562,-0.434337 -2.2396,2.014125 3.13421,2.364208 2.31511,5.025755 -1.68812,5.484877 -2.8429,0.326065 -2.6249,0.654339 6.4834,9.765698 5.18379,5.185521 11.31013,10.390447 13.6141,11.566547 5.05362,2.579502 7.68355,7.056884 5.61159,9.553381 -1.0782,1.299166 -2.8509,1.534252 -8.51591,1.128929 l -7.1542,-0.511866 2.24777,2.392645 2.24777,2.392548 -2.20819,1.181864 c -1.56413,0.837161 -3.33183,0.871459 -6.06121,0.117879 -2.11903,-0.585072 -4.00068,-0.916036 -4.18138,-0.735422 -0.54069,0.540686 12.01193,12.1815915 13.13557,12.1815915 2.68451,0 18.41794,-11.8931875 26.96911,-20.3865235 8.01183,-7.957644 21.36932,-24.123102 21.36932,-25.861504 0,-0.278798 -2.70977,0.786244 -6.02162,2.366801 -7.97244,3.804598 -13.64197,4.867238 -14.46914,2.711792 -0.33845,-0.882026 -0.0673,-2.627538 0.60256,-3.878957 1.06696,-1.993854 0.97973,-2.204441 -0.70487,-1.702375 -6.13057,1.827075 -7.82574,1.86656 -10.30802,0.240081 -4.73524,-3.102608 -3.50611,-6.301383 3.93477,-10.240192 8.45289,-4.4745 20.80396,-16.682319 28.34821,-28.01916 3.23739,-4.865028 5.70171,-9.029991 5.47613,-9.255561 -0.22548,-0.22548 -1.88097,0.67749 -3.67884,2.00682 -4.15987,3.075519 -16.61257,4.174281 -18.70701,1.6506 -1.08493,-1.30724 -0.47997,-2.26497 3.67384,-5.81546 2.73495,-2.33788 4.72832,-4.49506 4.42964,-4.79374 -0.29878,-0.29869 -3.02056,0.24911 -6.04843,1.21741 -4.7949,1.53319 -5.63004,1.56307 -6.47258,0.23114 -2.09982,-3.31982 -0.87924,-5.17092 6.59315,-9.99924 7.51956,-4.85888 21.27931,-17.78512 25.71442,-24.15673 l 2.29984,-3.30388 -4.05352,0.54367 c -5.52888,0.74157 -6.24537,-1.04295 -2.24719,-5.59661 1.80805,-2.05928 3.09723,-3.9342 2.86493,-4.1665 -0.2324,-0.23239 -3.5944,1.23086 -7.47134,3.25162 -7.70661,4.01701 -10.17736,4.45961 -12.08244,2.16399 -1.01384,-1.22144 -0.68806,-1.96887 1.70439,-3.91095 8.93305,-7.25123 16.12482,-15.72238 20.15835,-23.74477 2.3473,-4.66847 4.26776,-9.20551 4.26776,-10.08225 0,-1.75214 -2.15122,-2.13239 -3.71765,-0.65713 -0.54722,0.51523 -2.52686,1.25968 -4.39928,1.65425 -5.50102,1.15909 -5.48978,-1.71669 0.0279,-7.23462 6.03037,-6.03046 9.50563,-14.69125 12.30101,-30.65621 1.98886,-11.35807 5.74148,-29.17095 6.88021,-32.6588 0.26198,-0.80239 0.7458,-1.18955 1.07513,-0.86013 0.32923,0.32924 2.17456,9.93959 4.10059,21.35636 4.61659,27.36444 7.34,34.71405 16.73612,45.16483 4.92978,5.48305 5.60833,8.61852 1.84907,8.54368 -1.02603,-0.0202 -3.04362,-0.71064 -4.48362,-1.53377 -12.25807,-7.00732 -5.70383,8.35787 10.80192,25.32302 4.71458,4.84572 8.7654,9.02106 9.00193,9.27853 0.23643,0.25737 -0.42569,1.41339 -1.47142,2.56893 -2.30292,2.54473 -6.37228,2.67923 -12.07121,0.39889 -2.33951,-0.93602 -4.47488,-1.48065 -4.74522,-1.2103 -0.27044,0.27044 0.69161,2.23547 2.13786,4.36661 1.44625,2.13124 2.62956,4.29744 2.62956,4.81382 0,1.91441 -2.21146,2.20483 -5.24951,0.68921 -4.80018,-2.39466 -4.04708,0 2.96773,9.44588 6.78817,9.13845 15.9589,17.96295 23.48836,22.60144 4.36459,2.68883 4.97436,3.50265 4.97436,6.63994 0,3.220579 -0.29206,3.575465 -2.9415,3.575465 -1.61783,0 -5.69403,-1.657415 -9.05814,-3.683265 -3.36411,-2.02575 -6.2839,-3.5158 -6.48843,-3.31146 -0.20444,0.20453 1.51542,3.29158 3.82199,6.860418 2.30656,3.568648 4.19368,7.0027 4.19368,7.631292 0,2.177926 -6.74023,-0.13277 -12.82863,-4.398028 -3.31185,-2.320015 -6.02153,-3.848694 -6.02153,-3.396777 2.9e-4,1.817469 15.02616,18.307646 22.19631,24.359341 4.20742,3.551067 11.56318,8.826414 16.34617,11.723046 9.65444,5.846968 10.44972,7.72621 4.26525,10.079946 -3.49121,1.328852 -4.31973,1.223846 -10.80105,-1.369106 -3.8609,-1.544531 -7.24153,-2.586612 -7.51255,-2.315596 -0.27111,0.271208 0.51773,2.205691 1.75281,4.299075 3.92142,6.646374 0.83467,8.832754 -6.73917,4.773472 -2.21319,-1.186187 -4.2301,-1.95043 -4.48209,-1.698532 -0.53877,0.538765 10.88348,15.013376 14.07601,17.837571 2.154,1.905565 2.33106,1.860124 10.20388,-2.618027 4.40657,-2.506489 11.83026,-7.576147 16.49719,-11.265941 7.71516,-6.099634 8.27679,-6.785772 6.18754,-7.558662 -1.26391,-0.467577 -2.26843,-1.218659 -2.2324,-1.669327 0.0355,-0.450476 2.96936,-2.704107 6.5185,-5.008078 5.93084,-3.849943 15.40794,-13.86677 15.40794,-16.28545 0,-0.562015 -1.76722,-0.252186 -3.92709,0.688828 -11.23529,4.894618 -25.47443,7.805564 -28.41718,5.809596 -2.47181,-1.676628 -0.47305,-5.74129 4.29754,-8.739661 2.46614,-1.550007 6.36892,-4.787979 8.67289,-7.195707 l 4.18888,-4.377564 -7.03709,0.527429 c -7.58874,0.568643 -10.74966,-0.623981 -10.09436,-3.808537 0.24508,-1.190702 2.75262,-2.623695 7.21089,-4.120863 3.75935,-1.262371 9.1788,-4.022103 12.04325,-6.132778 5.9831,-4.40869 12.32166,-10.75167 9.76291,-9.76983 -4.39534,1.68672 -2.66933,-2.26977 4.03123,-9.24038 10.84995,-11.28727 15.26325,-18.29295 7.27362,-11.54628 -3.6849,3.11154 -12.85668,7.66588 -15.46971,7.68144 -0.93746,0.0106 -2.2911,-0.69661 -3.00818,-1.56057 -1.04553,-1.25988 -1.01911,-1.92075 0.13364,-3.33779 1.2787,-1.57201 1.20617,-1.67471 -0.65722,-0.9315 -1.15199,0.45941 -4.03277,1.07291 -6.40178,1.36334 -3.609,0.44231 -4.57239,0.14939 -5.94256,-1.80681 -0.89941,-1.28418 -1.3936,-2.96474 -1.09809,-3.73466 0.29542,-0.76991 3.9121,-3.54069 8.037,-6.15708 7.64302,-4.84793 12.21243,-8.33463 12.21243,-9.31849 0,-0.30137 -1.2959,-0.69699 -2.87982,-0.87934 -1.58401,-0.18224 -2.84907,-0.80257 -2.81141,-1.37861 0.0375,-0.57595 2.86521,-3.13614 6.28341,-5.68922 6.55319,-4.89472 24.54159,-22.9177 24.54159,-24.58886 0,-0.53924 -1.06033,-0.0144 -2.35633,1.16573 -4.64656,4.23211 -10.2106,5.91806 -10.2106,3.09377 0,-0.77472 0.95773,-2.27515 2.12835,-3.33453 2.62994,-2.38015 6.67155,-8.79807 5.97743,-9.49218 -0.2811,-0.2811 -2.10212,0.4156 -4.0466,1.54847 -3.48304,2.02902 -15.53379,6.40341 -17.64014,6.40341 -0.5942,0 -1.08032,-1.16054 -1.08032,-2.57902 0,-1.96974 1.43357,-3.5527 6.06765,-6.6996 9.23654,-6.27247 30.13031,-29.22629 28.28393,-31.07268 -0.28514,-0.28513 -2.225,0.19474 -4.31089,1.0662 -4.31522,1.80306 -8.67568,2.06456 -9.59595,0.57556 -0.34306,-0.555 2.22116,-3.85379 5.69797,-7.33059 3.4769,-3.477 6.32165,-6.76339 6.32165,-7.30321 0,-0.53992 -3.05284,0.40263 -6.78404,2.09444 -3.7312,1.69181 -7.26565,3.076 -7.85428,3.076 -0.58862,0 -1.07022,-1.33846 -1.07022,-2.97445 0,-2.21982 0.9558,-3.65444 3.76722,-5.65483 6.00606,-4.27333 14.36759,-16.14749 16.61459,-23.59404 l 0.71727,-2.37699 -3.88866,2.63878 c -7.24874,4.91921 -9.66377,2.66578 -4.23865,-3.95485 2.02258,-2.46835 4.87089,-7.06044 6.32944,-10.20484 2.79518,-6.02547 3.02584,-7.00568 7.50793,-31.89437 1.97397,-10.96149 3.07955,-15.07361 3.66021,-13.6141 0.72293,1.81689 3.64223,20.05565 5.65386,35.32294 0.83207,6.31513 6.65099,17.98437 11.99589,24.05643 4.93698,5.60862 4.25988,7.43003 -2.1566,5.80134 -2.28149,-0.57912 -4.4402,-0.76098 -4.79701,-0.40436 -0.35681,0.3568 0.9536,3.83514 2.912,7.72947 2.46355,4.89885 6.39621,9.96783 12.76254,16.45002 5.24585,5.34125 8.97273,9.9663 8.66895,10.75792 -0.95293,2.48343 -3.47565,2.59535 -8.49141,0.3766 -2.70709,-1.19743 -5.08599,-2.17726 -5.2863,-2.17726 -0.20041,0 -0.0826,1.40658 0.26073,3.12557 0.81324,4.06611 -1.65683,5.12481 -6.53243,2.7998 -1.96359,-0.93641 -3.57009,-1.45115 -3.57009,-1.14373 0,1.43492 3.87492,7.89914 8.51063,14.19783 6.24009,8.47845 12.46702,14.31975 21.07833,19.77283 8.95909,5.67336 9.36009,6.08282 8.5383,8.71785 -1.39149,4.46172 -4.33011,4.47171 -13.18957,0.0452 l -4.90855,-2.45259 2.11135,4.77318 c 2.73024,6.17208 2.13258,7.81988 -2.46028,6.78414 -1.92353,-0.43395 -4.54665,-1.35037 -5.829,-2.0367 -1.28245,-0.68623 -2.32713,-0.8778 -2.32146,-0.42559 0.0192,1.55807 7.34865,10.25806 12.70998,15.08687 5.69432,5.12874 6.13259,7.94525 1.04141,6.69345 -2.53425,-0.62322 -2.37141,-0.27188 1.94697,4.19993 5.90567,6.11567 15.30774,12.87829 23.87255,17.17093 7.99329,4.00616 8.94237,5.79692 4.91018,9.26527 -3.05803,2.63042 -5.57758,2.74541 -14.47586,0.66077 l -2.97252,-0.69622 2.04169,4.06677 c 1.12298,2.23682 1.83227,4.65608 1.57624,5.37603 -0.80335,2.25882 -9.90279,1.56499 -15.29842,-1.16668 -2.6895,-1.36162 -4.8901,-2.27227 -4.8901,-2.02374 0,0.24854 2.13892,3.1298 4.75301,6.40284 6.8291,8.550303 20.65206,20.536391 30.06768,26.072089 8.81085,5.180045 9.99694,7.397072 5.52513,10.327137 -1.42502,0.933616 -4.92498,1.76924 -7.77771,1.856761 -4.78096,0.1467 -5.06274,0.296475 -3.60073,1.913923 0.87232,0.965128 1.41714,2.614569 1.21068,3.665392 -0.29676,1.51081 -1.35681,1.908639 -5.0661,1.901338 -2.57998,0 -6.10454,-0.387166 -7.83256,-0.849074 -2.69777,-0.721204 -1.81699,0.496974 6.23288,8.620053 9.02567,9.107805 9.44915,9.392751 11.37806,7.656174 1.94457,-1.750795 1.8998,-1.819293 -1.52032,-2.327508 -2.57835,-0.383035 -3.60842,-1.117208 -3.83957,-2.736098 -0.24085,-1.687388 1.00154,-3.041123 5.23624,-5.704591 8.41466,-5.292832 15.00598,-11.025956 19.12031,-16.630729 2.04103,-2.780483 3.71103,-5.287836 3.71103,-5.571821 0,-0.284178 -2.16938,-0.271977 -4.82084,0.0269 -6.96283,0.784803 -7.62101,-1.136806 -2.34864,-6.856576 4.58527,-4.974549 4.73139,-6.077538 0.59679,-4.505627 -1.7385,0.661063 -3.9878,0.65405 -6.42868,-0.02018 -5.70641,-1.575658 -4.89087,-4.100592 2.96562,-9.181395 6.95668,-4.499088 14.07284,-11.687398 19.43446,-19.631788 3.30253,-4.89346 2.94639,-5.24307 -3.51437,-3.44913 -3.34596,0.929 -4.35364,0.83927 -5.70085,-0.50793 -1.48371,-1.48372 -1.4108,-1.87655 0.78135,-4.20992 l 2.41781,-2.57364 -4.57124,-0.32789 c -3.78788,-0.2716 -4.62735,-0.72226 -4.89875,-2.62946 -0.24844,-1.74657 0.76194,-2.98329 4.18898,-5.1273 6.61966,-4.14133 13.9248,-10.43772 17.82883,-15.36692 2.67298,-3.37478 2.9682,-4.13662 1.34105,-3.4599 -7.00222,2.9121 -8.43099,1.61957 -4.33558,-3.92219 4.63897,-6.27727 4.63167,-6.34769 -0.58363,-5.63282 -3.11347,0.42674 -5.35336,0.1931 -6.55213,-0.68345 -1.64156,-1.20031 -0.829,-2.32424 8.23241,-11.38564 11.20868,-11.20859 12.42023,-13.78665 5.99645,-12.75946 -4.47219,0.71515 -6.87473,-1.10587 -4.1418,-3.13921 4.89961,-3.64532 9.20618,-15.50161 11.8293,-32.56725 1.76712,-11.4968 3.73475,-20.73584 4.29648,-20.17411 0.198,0.1979 1.82102,9.05938 3.60678,19.69212 3.50092,20.84564 5.12471,25.44849 11.55483,32.75343 5.97272,6.78549 5.33904,9.31638 -1.60611,6.41465 -2.13066,-0.89038 -4.3035,-1.47555 -4.82852,-1.3006 -1.77021,0.59016 7.38083,13.10656 13.24605,18.11742 4.21031,3.59699 5.73044,5.58633 5.50035,7.1983 -0.26948,1.8877 -0.93986,2.18965 -4.39457,1.97964 -3.99117,-0.24258 -4.03757,-0.20473 -2.21357,1.81084 1.70776,1.88702 1.71909,2.11394 0.1368,2.72111 -0.94937,0.3643 -3.13421,0.45576 -4.85503,0.20319 -1.72092,-0.25267 -3.12893,-0.25055 -3.12893,0 0,0.25507 1.64905,2.71025 3.66462,5.45586 4.83131,6.58153 10.69864,11.79068 17.7854,15.79021 3.17803,1.79364 5.77819,3.93304 5.77819,4.75435 0,2.64301 -4.87137,4.07302 -9.5872,2.81421 l -4.21751,-1.12567 3.90105,3.99501 c 4.73149,4.84543 4.35931,7.28448 -1.11144,7.28448 -2.06265,0 -5.14066,-0.7189 -6.83996,-1.59775 -1.6993,-0.87876 -3.08974,-1.18504 -3.08974,-0.68076 0,2.52176 12.19697,16.31196 17.51872,19.807306 2.1639,1.421273 2.71198,1.255262 7.5284,-2.280336 8.84793,-6.49496 22.56983,-22.09101 27.43562,-31.18296 1.2398,-2.31656 1.22673,-2.32175 -1.26669,-0.50284 -4.53551,3.30849 -10.8317,5.91854 -14.33377,5.94208 -4.83025,0.0327 -5.63244,-2.70583 -1.76684,-6.03085 l 3.00173,-2.58209 -3.61178,0.84436 c -6.84764,1.60093 -8.84803,1.2472 -8.84803,-1.56432 0,-1.98213 1.62994,-3.65886 7.33059,-7.54089 4.0319,-2.7458 10.52984,-8.13893 14.43993,-11.98493 6.95774,-6.84361 8.52581,-9.67981 3.54886,-6.41878 -3.7778,2.47536 -9.5065,3.28379 -10.94949,1.5452 -0.96282,-1.16025 0.0471,-2.55299 5.04161,-6.9489 3.43511,-3.02374 6.24576,-5.92027 6.24576,-6.43684 0,-0.51648 -1.94428,-0.25296 -4.3206,0.58545 -6.40072,2.25824 -10.04987,1.99607 -10.93276,-0.78576 -0.55673,-1.75426 -0.13931,-2.69911 1.73494,-3.92709 6.78404,-4.44481 11.47259,-8.69422 17.43647,-15.80356 3.60132,-4.29302 6.54925,-8.14719 6.55108,-8.56491 0,-0.41771 -1.2056,-0.29993 -2.68307,0.26179 -6.42234,2.44174 -7.34308,0.0509 -2.98396,-7.7483 1.48919,-2.66443 2.41291,-4.84447 2.05274,-4.84447 -0.36017,0 -2.50235,0.94245 -4.7604,2.09444 -2.25805,1.15199 -5.252,2.09444 -6.65329,2.09444 -5.12048,0 -3.90586,-2.90489 4.91354,-11.7511 6.00001,-6.01826 9.84736,-10.99214 12.57942,-16.26239 2.16477,-4.17591 3.69095,-7.59248 3.3915,-7.59248 -0.29936,0 -2.77367,1.41378 -5.49833,3.14171 -2.72467,1.72793 -5.5407,3.14171 -6.25796,3.14171 -3.20771,0 -2.21299,-2.62101 3.22318,-8.49267 5.62956,-6.0807 8.85081,-11.14681 10.5259,-16.55454 l 0.78423,-2.53147 -2.88549,2.26968 c -1.58709,1.24844 -3.47844,2.26977 -4.2031,2.26977 -2.45941,0 -2.44817,-2.90874 0.0202,-5.2277 3.89019,-3.65473 6.47998,-11.02605 9.3694,-26.6684 2.33472,-12.63918 3.69056,-17.93019 3.74609,-14.61862 0.01,0.528 1.1321,7.82833 2.49621,16.223 2.56807,15.80414 4.06524,20.03731 9.15248,25.87745 1.6481,1.89193 2.99655,3.90961 2.99655,4.48363 0,1.7384 -2.83765,2.2616 -5.25345,0.96868 -2.0928,-1.11999 -2.21597,-1.02152 -1.53415,1.22836 1.62946,5.37767 6.43069,12.8246 10.67943,16.56444 2.46729,2.17188 4.48602,4.49362 4.48602,5.15959 0,1.83946 -4.33366,3.05005 -7.58277,2.11826 -3.71276,-1.06485 -3.68393,0.11116 0.13882,5.66732 2.80412,4.07571 8.35211,9.44885 15.50468,15.01626 2.42714,1.88913 2.73533,2.61437 1.7802,4.18897 -1.39361,2.29735 -10.46769,3.14431 -15.37144,1.43492 -1.75281,-0.61101 -3.39706,-0.90096 -3.65396,-0.64406 -0.25679,0.2568 1.33472,3.43991 3.53676,7.0736 4.63004,7.64023 16.94757,20.32369 22.66532,23.33868 4.10232,2.16313 5.2228,5.35201 2.27765,6.48219 -1.42838,0.54809 -5.62168,-0.33817 -11.81182,-2.4963 -0.94802,-0.33049 0.27919,1.48813 2.72717,4.04151 2.44788,2.55337 4.45067,5.44923 4.45067,6.4354 0,2.70199 -5.98185,2.29715 -12.1275,-0.82064 -6.64196,-3.36969 -7.23808,-3.29792 -4.94929,0.59641 3.52244,5.99309 17.85871,19.56915 25.38942,24.04307 4.08858,2.42896 7.68269,4.81901 7.98685,5.31118 0.30425,0.49237 0.0134,1.90288 -0.64531,3.13451 -1.03295,1.93006 -1.87175,2.16764 -6.07004,1.71938 -2.67932,-0.2861 -5.8073,-0.90585 -6.95092,-1.37737 -1.59324,-0.65664 -1.14786,0.43952 1.90508,4.68903 2.19147,3.05044 3.73111,6.20656 3.42128,7.01375 -0.87915,2.29119 -7.04661,1.75012 -12.70508,-1.11452 -2.80527,-1.42031 -5.29111,-2.39159 -5.52408,-2.15862 -0.80421,0.80421 9.00386,12.61526 16.17142,19.47385 3.95379,3.78346 10.22261,8.927189 13.93065,11.430507 l 6.74206,4.551645 3.46855,-4.012495 c 3.83265,-4.433766 4.4376,-6.372857 1.63579,-5.243259 -1.00788,0.40638 -3.59122,0.988953 -5.74071,1.294651 -5.9855,0.851188 -6.2668,-1.833032 -0.76674,-7.315499 5.02518,-5.00904 12.10819,-15.16143 11.20666,-16.06295 -0.32596,-0.32597 -1.54453,-0.0836 -2.70795,0.53943 -5.27976,2.82574 -7.23125,0.0807 -2.86127,-4.0246 4.17898,-3.92584 6.57595,-11.23414 9.45202,-28.81866 1.50188,-9.18284 2.90912,-16.87436 3.12721,-17.09244 0.50735,-0.50735 1.04947,2.16947 4.19186,20.69798 2.87146,16.93076 4.3496,21.28133 9.04968,26.6343 3.94745,4.49592 3.27582,6.05631 -2.22827,5.1761 l -4.1174,-0.65837 1.1906,3.41532 c 0.65482,1.87847 4.28851,6.6994 8.07504,10.71324 6.27603,6.653003 6.72199,7.416767 5.0468,8.64167 -1.30118,0.95139 -2.97301,1.079932 -5.72707,0.440197 -2.13921,-0.496975 -4.25075,-0.914691 -4.69249,-0.928429 -1.24488,-0.03843 3.94928,9.500542 7.3695,13.534269 l 3.0613,3.610535 5.13489,-3.796528 c 7.10194,-5.250944 14.43013,-13.160458 23.65975,-25.536974 0.604,-0.80988 -0.32491,-1.13066 -3.03228,-1.04717 -4.5748,0.14113 -5.8461,-2.41244 -2.84946,-5.72371 2.40254,-2.65473 1.54664,-3.33164 -2.45067,-1.93823 -5.25566,1.83217 -9.09023,0.92439 -9.45837,-2.23922 -0.26083,-2.24152 0.8754,-3.60131 6.807,-8.14517 6.34769,-4.86263 19.75255,-19.81731 18.70365,-20.86611 -0.22442,-0.22462 -1.4278,0.13757 -2.67403,0.80459 -1.24633,0.66692 -2.93612,0.95552 -3.75503,0.64127 -1.95523,-0.75021 -1.90681,-4.22289 0.0817,-5.87329 2.65223,-2.20117 1.75425,-3.02354 -2.13047,-1.95091 -3.93515,1.08647 -7.81834,0.41531 -7.81834,-1.35133 0,-0.58671 2.70978,-3.7411 6.02163,-7.00981 5.52532,-5.45327 11.47432,-14.80731 13.35183,-20.99379 0.75098,-2.4745 0.69132,-2.49774 -4.59373,-1.79672 -6.32982,0.83976 -6.74724,-0.10366 -2.17523,-4.91652 6.11404,-6.43588 9.45568,-15.45876 12.66185,-34.18864 1.63167,-9.53195 3.01672,-17.80221 3.07792,-18.37825 0.26823,-2.52628 2.05841,6.00279 4.12806,19.6681 2.43847,16.09984 5.22587,23.40497 12.15912,31.86603 2.01969,2.46489 3.40993,4.90586 3.08935,5.42455 -0.34442,0.55721 -2.3693,0.54174 -4.94929,-0.0375 -7.13335,-1.60275 -7.59632,-1.0929 -4.54818,5.00836 2.50207,5.00808 9.79634,12.76926 16.59864,17.6609 2.67778,1.92564 2.78721,2.26333 1.35806,4.18879 -1.38823,1.87011 -1.92757,1.95744 -5.04257,0.8165 l -3.48814,-1.27755 2.97858,2.62158 c 1.70161,1.49765 2.73187,3.26478 2.40302,4.12173 -0.49938,1.30138 -1.23451,1.30186 -5.5479,0 -2.73475,-0.82304 -5.181,-1.28773 -5.43617,-1.03247 -0.92804,0.92804 5.43771,9.29812 11.83353,15.55973 3.604,3.5282 8.98214,7.82881 11.9515,9.55674 3.9856,2.31944 5.3278,3.68989 5.12769,5.23615 -0.22106,1.70757 -1.04506,2.08781 -4.46009,2.05822 -2.30388,-0.0202 -5.83832,-0.43231 -7.85428,-0.91632 -3.59977,-0.86425 -3.63205,-0.84293 -1.80738,1.19397 4.20435,4.69296 -1.22269,7.31243 -7.09406,3.42396 -4.98492,-3.30137 -5.08051,-2.52147 -0.51523,4.20137 6.70853,9.87868 16.28084,19.441667 25.80213,25.776867 8.85841,5.894139 10.00905,7.466723 7.18101,9.813733 -1.50898,1.252284 -5.90442,0.667693 -12.69739,-1.689117 -1.10712,-0.384092 -0.40196,0.671247 1.61264,2.4133 2.13643,1.847538 3.27285,3.593338 2.81814,4.329048 -1.10904,1.794604 -7.66655,1.450286 -13.99079,-0.734558 -3.02383,-1.044674 -5.49795,-1.758769 -5.49795,-1.586802 0,0.171871 2.07946,3.287257 4.62111,6.923058 6.16064,8.812771 15.6632,17.725841 22.6635,21.257213 3.13681,1.582383 6.02979,3.388515 6.42886,4.013648 0.98031,1.535789 -1.06052,3.824869 -3.41003,3.824869 -2.52388,0 -3.4964,1.708812 -1.42502,2.503798 0.9806,0.376214 1.5037,1.576427 1.30301,2.989533 -0.24316,1.712367 -1.5502,2.781059 -4.75772,3.889813 -4.10424,1.41887 -4.80123,1.368721 -9.68692,-0.695361 -2.89548,-1.22327 -5.26449,-1.99616 -5.26449,-1.717458 0,1.133155 6.28736,9.463651 9.28823,12.306676 l 3.21386,3.044773 4.46816,-3.044773 c 9.11789,-6.213191 33.75853,-31.457152 28.58453,-29.284221 -1.15189,0.483716 -4.65751,1.760402 -7.79029,2.836972 -7.78174,2.674324 -8.81037,1.259489 -3.65674,-5.02979 2.93074,-3.576525 3.48785,-4.738502 1.99635,-4.163806 -6.4819,2.497746 -10.83766,3.116442 -12.4602,1.769913 -3.4449,-2.859165 -1.97569,-5.759832 5.50717,-10.872627 7.14316,-4.880591 17.50593,-14.951218 22.01819,-21.397188 2.78971,-3.985307 2.49496,-4.110487 -3.03469,-1.289463 -6.22808,3.177255 -12.74408,3.804214 -15.09599,1.452303 -1.83803,-1.838027 -1.82429,-1.956675 0.40705,-3.519652 1.27015,-0.889616 4.00875,-3.031323 6.0858,-4.759254 l 3.77664,-3.141709 -4.03094,-0.523682 c -2.21703,-0.287924 -4.2129,-1.07657 -4.43521,-1.752516 -0.22231,-0.67586 2.42156,-3.14777 5.87531,-5.49314 5.54377,-3.76473 14.7951,-13.15105 17.20341,-17.45444 0.71054,-1.26968 0.13911,-1.41186 -3.39956,-0.846 -5.42301,0.86713 -5.66943,-1.03344 -0.85023,-6.55809 2.60717,-2.98867 2.91344,-3.71208 1.30906,-3.09185 -1.15189,0.44539 -4.56855,1.07254 -7.59248,1.3937 -5.01163,0.53224 -5.49794,0.39658 -5.49794,-1.53281 0,-1.23537 1.63532,-3.31713 3.92709,-4.99962 5.96071,-4.37564 12.58095,-11.959 15.46068,-17.7098 1.42098,-2.83764 2.37208,-5.37065 2.11365,-5.62917 -0.25833,-0.25843 -2.33346,0.27591 -4.61121,1.18734 -3.61466,1.44615 -4.30214,1.46335 -5.40485,0.13469 -1.02728,-1.23778 -0.56604,-2.29417 2.46787,-5.65233 2.05227,-2.2715 4.45423,-5.52811 5.3378,-7.23683 2.33298,-4.51139 5.38717,-16.76791 7.54252,-30.26808 1.03449,-6.47979 2.25334,-11.78146 2.70862,-11.78146 0.45518,0 0.82765,1.02114 0.82765,2.2692 0,5.62312 5.60093,35.38116 7.45712,39.62029 1.13498,2.5919 3.49707,6.50352 5.24931,8.69239 4.20367,5.25181 3.44577,7.45203 -2.23634,6.49209 -3.2178,-0.54367 -4.18667,-0.36987 -4.18667,0.7505 0,3.96494 11.09657,16.87764 18.77195,21.84431 3.81546,2.46902 2.27131,5.15737 -2.96234,5.15737 -2.28447,0 -5.36248,-0.45951 -6.83996,-1.02133 -3.2862,-1.2494 -3.30791,-0.62014 -0.15544,4.5088 1.35594,2.20607 2.24095,4.86935 1.96667,5.91834 -0.57335,2.19253 12.30811,16.38777 18.14403,19.99456 2.0563,1.27092 3.53945,3.040253 3.53945,4.222501 0,2.661162 -4.99588,4.711891 -7.57826,3.110678 -2.92114,-1.81132 -3.19705,-1.319437 -0.89875,1.602462 1.648,2.095017 1.90067,3.191185 1.08647,4.712563 -1.34211,2.507738 -3.47162,2.47248 -9.25941,-0.153521 -2.53367,-1.149488 -4.78202,-1.914692 -4.99645,-1.700262 -0.66577,0.665867 7.86916,12.853415 12.98916,18.548111 2.67913,2.979926 8.07937,7.977724 12.00041,11.106271 7.69383,6.138735 8.90202,9.025184 4.59852,10.985894 -1.94716,0.887214 -3.63734,0.775964 -7.33059,-0.482468 -5.09886,-1.737345 -5.65857,-1.414931 -3.19589,1.84091 3.96379,5.240761 -1.16995,6.494101 -8.77992,2.143629 -2.50668,-1.432993 -4.7408,-2.605538 -4.96465,-2.605538 -0.22394,0 1.06274,2.388898 2.85926,5.308587 6.51495,10.588065 27.11927,30.030404 34.67658,32.720964 2.5479,0.907101 2.28774,2.4662348 -0.74282,4.4519233 -3.5061,2.2973422 -6.67654,1.559326 -19.87312,-4.6260033 -0.53915,-0.252667 0.73716,1.6364705 2.83611,4.1980076 2.74936,3.3551784 3.6481,5.3009975 3.21444,6.95927646 -0.66405,2.53924864 -4.23923,3.10059064 -7.75725,1.21769804 -1.11403,-0.5961196 -2.02555,-0.6643299 -2.02555,-0.1514077 0,1.2346066 12.50026,14.8495756 13.6338,14.8495756 1.7678,0 12.0468,-10.391888 10.31906,-10.4324299 -0.93746,-0.022096 -2.31127,-0.7710647 -3.05303,-1.6648118 -1.1444,-1.378905 -0.79384,-2.0819514 2.31655,-4.64579428 3.71237,-3.06014482 15.5313,-16.93335202 15.5313,-18.23098102 0,-0.388127 -0.91152,-0.217793 -2.02556,0.378423 -2.95005,1.578732 -6.3523,1.331926 -6.3523,-0.460852 0,-1.225672 -0.5551,-1.333848 -2.68624,-0.523586 -4.20531,1.598811 -9.56347,1.26362 -10.29553,-0.644059 -0.88222,-2.298976 -0.0221,-3.360078 4.1297,-5.094926 3.72275,-1.555387 14.08822,-10.608047 14.08822,-12.303794 0,-0.535979 -0.87598,-0.696609 -1.94659,-0.356711 -1.08522,0.344414 -2.48699,-0.03363 -3.16784,-0.853589 -0.983,-1.184554 0.0778,-2.77174 5.43972,-8.139795 3.66357,-3.667505 7.20013,-7.679712 7.85908,-8.915856 l 1.1981,-2.247577 -5.40149,2.052457 c -5.29437,2.011628 -10.2644,1.893653 -10.2644,-0.243731 0,-0.591701 3.70027,-4.706223 8.2227,-9.143352 8.70758,-8.543581 14.40323,-16.948435 13.34818,-19.697887 -0.51369,-1.338651 -1.61504,-1.520801 -5.75397,-0.951486 -7.03344,0.967338 -7.67779,-0.686522 -2.37813,-6.104438 6.71266,-6.862533 9.45452,-14.259985 13.1031,-35.351285 1.78,-10.28976 3.60573,-18.33944 4.05707,-17.8881 0.45134,0.45143 2.16573,9.75052 3.80969,20.66455 3.23038,21.44647 4.92209,26.325619 12.1106,34.929724 6.11452,7.318582 4.44788,9.365083 -4.36796,5.363444 -2.44789,-1.111156 -4.45077,-1.556348 -4.45077,-0.989434 0,3.041603 6.15651,12.329349 13.08004,19.732665 4.3256,4.625331 7.86465,8.797304 7.86465,9.271029 0,3.36517 -5.28889,4.255843 -11.0296,1.857146 -1.99741,-0.834472 -3.63167,-1.286965 -3.63167,-1.005382 0,1.915173 4.93179,9.450298 9.3474,14.281605 5.24547,5.739465 5.62639,7.09147 1.9977,7.09147 -1.05601,0 -1.91998,0.373139 -1.91998,0.829284 0,1.665676 9.07265,9.436271 15.44676,13.229917 6.51783,3.879244 7.34855,5.042663 5.58671,7.825067 -0.93516,1.476897 -5.47056,1.240659 -10.03749,-0.522818 -1.85637,-0.716977 -1.93236,-0.609474 -0.66826,0.944761 3.80488,4.678362 -2.65444,6.5255163 -9.67011,2.7653031 -2.21319,-1.1861871 -4.19993,-1.9807891 -4.41503,-1.7656861 -0.8462,0.8462881 9.55098,16.930278 14.3109,22.138375 2.77472,3.035935 7.89722,7.040168 11.38334,8.898274 5.03411,2.683163 6.33856,3.891831 6.33856,5.873196 0,1.37218 -0.54645,2.832649 -1.21443,3.245465 -2.18984,1.35335 -9.26853,0.474014 -14.58115,-1.811512 -2.86704,-1.233261 -5.48142,-1.973871 -5.80979,-1.645597 -1.00663,1.006726 5.96533,8.911724 11.89405,13.485657 6.2252,4.802774 6.83804,7.45971 1.85148,8.027393 -1.72111,0.19608 -3.46989,0.90297 -3.88616,1.570854 -0.56836,0.912097 -1.28658,0.886254 -2.88338,-0.10366 -4.15775,-2.576909 -2.03122,0.656836 4.26574,6.4868 6.69672,6.199836 16.3528,13.157767 18.26028,13.157767 1.18225,0 7.81191,-6.433096 7.81191,-7.580182 0,-0.370449 -1.26218,-0.01921 -2.80479,0.781633 -4.51936,2.344705 -6.14527,-0.08935 -2.69315,-4.030653 1.7628,-2.013069 1.75281,-2.058318 -0.26189,-1.1883 -1.15189,0.497358 -4.20531,0.930734 -6.7852,0.963014 -6.96984,0.08646 -6.81411,-2.462008 0.44481,-7.280057 6.15737,-4.087046 13.35884,-11.58701 15.97658,-16.638703 1.4768,-2.84975 1.45471,-2.987323 -0.36699,-2.282932 -1.06619,0.412336 -3.23451,1.011146 -4.81843,1.330774 -4.21434,0.850515 -3.74917,-1.997506 1.04371,-6.389865 4.00049,-3.66616 4.24585,-5.89337 0.42387,-3.847926 -3.54579,1.897592 -7.48921,1.427997 -7.48921,-0.891826 0,-1.113076 0.90586,-2.311464 2.01307,-2.662795 2.88155,-0.914595 9.37594,-8.41744 11.68222,-13.496514 2.87876,-6.33961942 2.6626,-7.3400052 -1.15919,-5.36373171 -5.37142,2.77769651 -7.17506,-0.41848463 -2.64022,-4.67884259 5.0294,-4.7247645 6.86147,-10.4812337 11.11299,-34.9172397 0.68095,-3.91383 1.45356,-6.900385 1.71698,-6.637055 0.26333,0.263427 1.57787,7.503999 2.92113,16.090235 2.71112,17.329164 3.99271,21.2228198 8.780781,26.6761856 4.502553,5.1280699 4.286105,6.4242579 -0.92593,5.5436724 l -4.198581,-0.7092911 1.070706,2.816221 c 1.547893,4.0712906 3.454516,6.5835431 10.059483,13.2546071 3.231727,3.264103 5.560485,6.445105 5.174952,7.068893 -1.029591,1.665965 -6.042184,1.380827 -8.72208,-0.496206 -2.587573,-1.812376 -3.23192,-0.424056 -0.756654,1.630227 0.863965,0.717073 1.570854,2.123166 1.570854,3.124704 0,1.377752 -0.637334,1.699205 -2.618123,1.32059 -1.43991,-0.275339 -2.618027,-0.135652 -2.618027,0.310309 0,2.174756 9.14902,12.253741 14.814126,16.319556 10.949195,7.858499 10.98013,7.890587 9.690282,10.014521 -1.556636,2.563171 -6.848026,2.934965 -11.085519,0.779135 l -3.470175,-1.765398 2.488811,2.697958 c 3.304357,3.58229 2.373046,6.133259 -1.925356,5.273617 -3.617067,-0.723414 -3.775008,-0.370834 -1.662698,3.713811 3.338462,6.455865 16.399006,16.176122 25.971122,19.328783 2.105296,0.693439 2.424251,3.84783 0.575944,5.696041 -0.691133,0.691229 -3.765208,1.256702 -6.831214,1.256702 h -5.574415 l 1.710061,2.610053 c 0.94063,1.435395 1.437509,3.320401 1.104335,4.188888 -0.774908,2.01941 -5.897502,2.049 -10.654066,0.0615 -1.997409,-0.834568 -3.63167,-1.285621 -3.63167,-1.002308 0,0.283318 1.926125,3.066298 4.280245,6.184278 5.415514,7.17274 15.140862,15.16863 24.317838,19.9934 6.300423,3.31243 7.092335,4.06505 6.8071,6.47008 -0.418965,3.53282 -4.36152,4.64772 -9.811235,2.77415 -5.113852,-1.75801 -5.667124,-1.2129 -1.984152,1.95494 4.27573,3.67788 2.647425,5.27083 -4.834669,4.72967 l -6.091373,-0.44059 1.774237,3.05487 c 3.17812,5.47219 17.497288,18.01174 25.175847,22.04662 5.322998,2.7972 7.231829,4.32876 6.799318,5.45567 -1.307428,3.40745 -7.872814,4.67452 -13.377097,2.58191 -3.179945,-1.20905 -3.192627,-1.159 -0.91642,3.61428 1.256415,2.63465 1.445002,4.03622 0.650015,4.83121 -1.701222,1.70113 -10.316088,0.0346 -14.500358,-2.8046 -11.186586,-7.59142 5.181294,11.63178 17.032594,20.00378 6.354222,4.48882 5.908261,7.65973 -0.806419,5.73399 -1.915845,-0.54943 -3.653286,-0.8289 -3.861183,-0.62119 -1.443273,1.44336 27.011088,19.4627 30.758812,19.47875 2.00644,0.0106 2.448366,2.90729 0.667596,4.37929 -1.103758,0.91238 -4.659148,1.37285 -10.410141,1.34835 -4.803639,-0.0211 -8.733897,0.05 -8.733897,0.15833 0,0.10769 1.64944,1.1688 3.665295,2.35825 6.797205,4.01048 3.453843,7.169 -5.655211,5.3425 -2.649442,-0.53127 -5.971091,-1.29196 -7.381604,-1.69056 -2.264486,-0.63983 -1.958212,0.0471 2.618123,5.87281 6.777703,8.62813 16.755621,16.81932 26.945953,22.12099 6.776549,3.52551 8.149882,4.6604 7.882709,6.51418 -0.177923,1.2348 -1.501683,2.83899 -2.941593,3.5648 -3.083971,1.55472 -12.719301,1.76146 -17.54811,0.3766 -1.868098,-0.53579 -3.396585,-0.74311 -3.396585,-0.46075 0,0.28225 1.641563,2.66327 3.648003,5.291 2.006439,2.62773 3.392357,5.19138 3.079935,5.697 -1.111636,1.79864 -7.341446,0.82842 -13.273149,-2.06696 -3.311946,-1.61659 -6.021625,-2.62591 -6.021625,-2.24287 0,0.94322 13.529274,13.78838 16.562039,15.72459 3.435397,2.1932 2.047558,4.71506 -3.44049,6.25152 -5.499576,1.53982 -11.513611,0.68412 -19.273446,-2.74225 -6.465952,-2.85513 -7.607466,-3.03516 -6.858018,-1.08214 0.296091,0.77174 -0.213565,2.02719 -1.132675,2.78999 -1.404172,1.16534 -1.955426,1.10251 -3.451153,-0.3935 -1.514077,-1.51408 -1.780097,-4.08369 -1.780097,-17.18938 0,-15.30005 -0.02402,-15.45454 -3.349798,-21.81808 -4.093964,-7.83265 -10.835352,-13.94824 -20.662919,-18.74477 -12.043631,-5.87809 -17.399871,-6.78702 -39.996601,-6.78702 -29.06499,0 -38.56582,-2.21827 -53.79507,-12.5602 -3.54453,-2.40706 -9.59152,-5.84966 -13.43771,-7.65032 -6.33789,-2.96695 -8.26863,-3.33375 -20.60711,-3.91412 -13.26229,-0.62398 -13.77646,-0.73782 -19.89752,-4.406 -3.45586,-2.07109 -7.15046,-4.5527 -8.21021,-5.51456 -1.86695,-1.69479 -1.85888,-1.82131 0.26179,-4.07869 2.35018,-2.50159 2.84744,-5.32915 1.12451,-6.39409 -0.58527,-0.36171 -3.76627,1.98934 -7.06889,5.22452 -5.29447,5.18649 -5.69508,5.85379 -3.3866,5.64205 1.77712,-0.16313 3.8339,0.93256 6.40303,3.41071 2.08166,2.00798 7.09877,5.39236 11.14912,7.52072 7.00279,3.67989 7.85657,3.86973 17.39766,3.86973 12.48229,0 19.8419,2.52445 33.89005,11.62496 5.36085,3.47277 12.25412,7.46201 15.3184,8.86484 7.96639,3.64714 23.4875,5.67769 43.45342,5.68489 12.17151,0 18.96862,0.48315 23.48798,1.65425 17.00387,4.40619 28.201792,14.66156 31.182006,28.55754 0.949756,4.42877 0.852245,8.02691 -0.483621,17.83805 -3.801235,27.91733 -1.154099,38.0113 14.232032,54.26908 l 7.133645,7.53782 v 15.58134 c 0,20.29103 1.684507,36.54699 4.799412,46.3149 1.377464,4.31982 2.510524,9.94708 2.517921,12.50506 0.01153,4.13556 0.16822,4.43914 1.410704,2.74004 0.768471,-1.05102 1.496592,-4.367 1.618122,-7.36893 0.121433,-3.00183 0.603901,-6.8267 1.072054,-8.49977 l 0.851284,-3.04179 1.11644,4.18897 c 0.614084,2.30388 1.337882,5.13143 1.608514,6.28342 0.462869,1.96984 0.537901,1.9513 1.26189,-0.31156 1.402923,-4.38506 7.878771,-17.26835 8.411964,-16.73506 0.288213,0.28821 -0.382842,6.36229 -1.491212,13.49786 -1.108369,7.13566 -1.861276,13.1373 -1.673169,13.33713 0.188106,0.19983 1.283506,-1.48228 2.434243,-3.73792 2.704682,-5.30148 10.333957,-14.95199 11.820461,-14.95199 0.775388,0 0.812856,0.42732 0.114997,1.30906 -1.194929,1.50956 -4.86032,11.34751 -5.950244,15.97034 -0.720532,3.0564 -0.596408,3.00048 4.565479,-2.05505 5.788365,-5.66905 6.328283,-5.62495 3.320209,0.27149 l -1.985977,3.89279 11.1068471,2.42964 c 6.1088573,1.33625 13.717957,3.52954 16.9091425,4.87386 24.5417794,10.33876 30.9012854,13.22089 32.6356524,14.79049 1.838892,1.66414 1.858779,1.93064 0.27409,3.68173 -3.156311,3.48775 -19.082265,7.15805 -44.5736085,10.27266 -25.5328465,3.11971 -31.3018045,4.11251 -40.3028755,6.93565 -8.980703,2.81679 -31.473291,5.64147 -65.804882,8.26391 -18.64284,1.42416 -64.14651,3.71718 -73.7631,3.71718 -2.08244,0 -3.20387,0.38082 -2.63283,0.89394 0.54722,0.49169 10.89127,1.94879 22.98688,3.23816 33.89994,3.61351 53.3931,6.1837 56.6892,7.47441 l 3.00327,1.1761 -2.61813,1.05255 c -6.21319,2.49784 -33.36127,3.75051 -83.99234,3.87521 -74.68836,0.18407 -136.17121,2.0122 -138.27026,4.11135 -1.45346,1.45336 3.31483,2.05467 34.55457,4.35758 43.60118,3.21425 62.14064,5.76819 72.11117,9.93411 3.11384,1.30109 3.5746,1.85763 2.5551,3.08599 -2.99511,3.6089 -20.72988,5.46941 -105.8306,11.10205 -8.92767,0.59093 -23.06536,1.56797 -31.41709,2.1712 -18.76446,1.35527 -74.53301,7.05006 -75.15757,7.67462 -0.91901,0.91911 4.03968,1.41752 42.69331,4.29177 44.40549,3.30205 62.45883,6.28582 60.19511,9.94871 -0.60736,0.98271 -8.46989,2.76463 -18.24808,4.13576 -3.77558,0.52954 -33.96191,2.86329 -67.0807,5.18629 -92.73402,6.50447 -92.15674,6.45154 -92.15674,8.44251 0,1.1639 4.51947,1.8704 23.56282,3.68384 25.07008,2.38726 42.41298,5.80739 42.41298,8.36383 0,2.99165 -23.16701,6.43915 -49.22008,7.32454 -9.50361,0.32289 -20.57818,0.79537 -24.60999,1.04996 -15.52447,0.97992 -121.60725,1.36699 -144.51861,0.52723 z m 153.15826,-38.18884 c 1.2959,-0.44183 2.35624,-1.14987 2.35624,-1.57335 0,-4.48738 -133.80191,-5.65118 -145.60556,-1.26641 -2.26612,0.84177 -1.88098,1.05572 3.18148,1.76655 3.16784,0.44491 10.70796,1.16198 16.75581,1.59382 13.99416,0.99885 120.16994,0.55058 123.31203,-0.52061 z m -75.13922,-25.24857 c 13.96745,-0.56682 54.50071,-2.9243 72.78289,-4.23298 11.59268,-0.82986 14.09504,-1.86137 8.30033,-3.42176 -9.19052,-2.47469 -46.82282,-6.40648 -96.79177,-10.11261 -19.29535,-1.43107 -36.69656,-2.96128 -38.66938,-3.40052 -4.28879,-0.95475 -5.37641,-3.06303 -1.9854,-3.84869 5.80527,-1.34519 26.76352,-2.68048 57.93418,-3.69153 73.30937,-2.37746 112.30462,-4.62533 114.26571,-6.58642 0.64281,-0.64281 -11.65416,-1.40638 -46.71896,-2.90086 -29.80012,-1.27025 -68.58854,-3.84697 -71.99752,-4.78289 -3.04429,-0.83572 -3.00701,-2.10664 0.0845,-2.88261 3.34268,-0.83898 35.43265,-2.54837 61.44057,-3.27303 28.63661,-0.79778 60.53742,-2.61755 63.20857,-3.60564 1.85484,-0.68614 1.64906,-0.88885 -1.46431,-1.44221 -15.37095,-2.73197 -76.46673,-5.64004 -158.08997,-7.52475 -60.34758,-1.39351 -73.30648,-2.03978 -73.30648,-3.65569 0,-1.35988 4.19599,-2.02854 20.04682,-3.19455 14.09436,-1.0368 95.19132,-1.50274 99.93732,-0.57431 2.14324,0.41935 15.26373,0.78951 97.31737,2.74628 50.04696,1.19339 88.23022,1.17917 83.77887,-0.0317 -1.72793,-0.46989 -20.57818,-1.62504 -41.88948,-2.56711 -43.76124,-1.93439 -79.69567,-4.28217 -89.01503,-5.81594 -3.45586,-0.56874 -10.52475,-1.07177 -15.70854,-1.11769 -5.18379,-0.0461 -11.5458,-0.43501 -14.13769,-0.86454 -4.65896,-0.77174 -4.62312,-0.78845 3.14171,-1.45499 4.31982,-0.37084 19.1644,-0.94006 32.98794,-1.26506 13.82354,-0.32492 26.54745,-0.78068 28.27538,-1.01278 1.72793,-0.23211 7.29774,-0.71746 12.37729,-1.07878 5.07965,-0.36113 10.26344,-1.04765 11.51966,-1.52532 2.04948,-0.77942 1.90768,-0.93169 -1.3814,-1.48276 -5.83371,-0.97752 -48.5763,-3.32001 -80.11358,-4.39072 -28.22725,-0.95831 -50.72137,-2.41897 -52.48965,-3.40869 -0.99193,-0.555 7.06418,-1.1908 20.60527,-1.62591 21.37538,-0.6869 37.56467,-2.32068 48.64932,-4.9095 5.79865,-1.35441 9.34491,-1.59949 36.64412,-2.53186 21.68559,-0.7407 30.75208,-1.77692 31.90772,-3.64675 0.44779,-0.72457 1.08973,-3.64454 1.42665,-6.48872 1.01653,-8.58345 6.3914,-17.98773 14.52159,-25.40795 6.77828,-6.18639 7.06544,-6.63283 5.29581,-8.23424 -2.38284,-2.1565 -11.05996,-4.12855 -14.43666,-3.28101 -2.41388,0.60582 -2.58585,0.38073 -2.59132,-3.39178 -0.0106,-7.13653 -2.05428,-12.17477 -6.78971,-16.73593 -8.61045,-8.29351 -21.55648,-8.38804 -30.50221,-0.2225 l -2.2153,2.0221 -0.50533,-7.64263 c -0.55106,-8.33472 -3.71477,-17.05411 -7.46672,-20.57895 -4.20752,-3.95264 -12.05824,-6.67116 -19.69808,-6.82084 l -7.16305,-0.14026 v -3.56298 c -0.0144,-13.28362 -10.19398,-112.02082 -15.23443,-147.76264 -12.59422,-89.304293 -23.08381,-124.197611 -40.56496,-134.93814 -9.32569,-5.729762 -31.23446,-9.693837 -75.63245,-13.684813 -18.65436,-1.67682 -81.5335,-6.05842 -114.14869,-7.954282 -6.33578,-0.368239 -12.37614,-0.910751 -13.42302,-1.205497 -1.23547,-0.347872 -0.0202,1.793547 3.46258,6.102325 2.9512,3.65098 6.7876,9.605548 8.52533,13.232222 5.30119,11.063808 9.9075,37.195848 12.40553,70.377855 2.61265,34.70262 2.91854,47.23967 3.13066,128.28639 0.12221,46.65431 0.34855,87.41804 0.50313,90.58588 0.15457,3.16793 0.0452,10.09743 -0.24393,15.39891 l -0.52502,9.63917 -4.25383,-3.64118 c -5.30734,-4.54291 -12.49939,-6.73563 -22.09293,-6.73563 -13.20917,0 -18.3381,4.85984 -19.1891,18.18199 l -0.47757,7.47537 -5.90288,-0.30407 c -4.51014,-0.2321 -6.7165,0.203 -9.35106,1.84447 l -3.44807,2.14833 4.63493,6.53349 c 6.74802,9.51236 11.98042,20.49115 16.83248,35.31815 l 4.279,13.0761 14.66137,3.41897 c 21.92644,5.11299 30.83529,6.34568 55.25794,7.64561 12.23068,0.65107 27.89263,1.51244 34.80435,1.91421 l 12.56684,0.73053 -6.807,1.23287 c -3.74389,0.67807 -20.9448,1.96004 -38.2241,2.84879 -17.2794,0.88895 -39.6641,2.20416 -49.74376,2.92286 -11.12808,0.79355 -40.12783,1.31271 -73.83016,1.32184 -52.8945,0.0144 -74.95409,0.84264 -70.11462,2.63292 4.11423,1.52195 24.37539,3.08848 53.88249,4.16601 68.04948,2.48507 112.27589,5.10194 113.91419,6.74014 1.50677,1.50687 -7.34097,2.71141 -30.82165,4.19619 -28.13665,1.77913 -44.99785,3.49217 -47.48657,4.82439 -3.78221,2.02459 10.85793,4.17255 38.74778,5.68489 6.04775,0.32799 14.53043,0.82035 18.85025,1.09415 4.31983,0.27381 16.80817,0.98569 27.7518,1.58191 21.46703,1.16947 34.3192,2.56845 36.90811,4.01729 1.2814,0.71698 0.86983,1.14709 -1.93131,2.01797 -1.95792,0.6088 -5.44482,1.37266 -7.74869,1.69738 -4.58613,0.64656 -54.34401,4.02681 -85.87341,5.83371 -36.78755,2.10828 -65.55356,4.99405 -67.31204,6.75254 -0.24681,0.24671 1.13104,0.70881 3.06187,1.0268 11.44569,1.8851 22.95815,2.77923 54.83042,4.25853 123.13786,5.71545 138.51995,6.6091 146.08409,8.48786 l 2.61812,0.65021 -2.61812,0.9976 c -1.43991,0.54866 -17.22704,2.14478 -35.08239,3.54694 -17.85544,1.40215 -35.61778,3.02315 -39.47195,3.60217 -3.85417,0.57902 -7.36508,1.05275 -7.80192,1.05275 -0.43683,0 -0.34662,0.44173 0.2006,0.98155 0.86454,0.85311 9.91201,1.99511 29.27019,3.6947 6.12702,0.53799 50.78421,2.59093 65.97589,3.03314 12.67636,0.36892 55.40128,-0.19127 74.87743,-0.98174 z M -709.55431,381.70613 c -3.65953,-4.60679 -8.6873,-26.53708 -8.72784,-38.0699 -0.0259,-7.48104 -0.45778,-9.29572 -4.03008,-16.95237 -3.8437,-8.23827 -4.06889,-8.49507 -5.73831,-6.54531 -2.50745,2.92853 -5.49141,2.5551 -6.79672,-0.85052 -1.78798,-4.66472 -0.79326,-57.94359 1.22605,-65.67048 0.89682,-3.43194 1.53252,-6.25949 1.41253,-6.28342 -0.11989,-0.024 -1.16053,-0.57325 -2.31252,-1.22077 -1.6821,-0.94533 -2.09444,-2.26765 -2.09444,-6.71602 0,-3.52513 -0.48035,-5.70037 -1.32107,-5.98301 -0.72658,-0.24421 -1.81017,-1.35777 -2.40792,-2.47478 -0.84369,-1.57643 -0.60035,-2.7141 1.08723,-5.08417 l 2.17409,-3.05323 -2.79355,0.20098 c -4.11356,0.296 -4.12874,-1.76434 -0.0432,-5.85023 l 3.61649,-3.61639 -4.60698,0.51926 c -3.6947,0.41637 -4.60689,0.19627 -4.60689,-1.11183 0,-4.71862 14.36711,-10.14124 28.28355,-10.6751 l 8.9098,-0.34182 7.65771,-7.4185 c 14.37902,-13.92979 42.72626,-30.22523 60.30185,-34.66438 10.3037,-2.60246 13.34463,-2.62293 16.44752,-0.11029 l 2.4476,1.98194 -4.36056,4.73053 c -6.455,7.00289 -12.21406,19.58097 -8.96543,19.58097 0.41925,0 4.37593,-3.59247 8.79269,-7.9833 8.04805,-8.00087 11.21311,-9.24192 9.86418,-3.86771 -1.67077,6.65684 -9.07659,19.16431 -18.00118,30.40152 -15.95612,20.09072 -14.95737,18.06728 -15.4164,31.23264 -0.38428,11.02201 -2.31963,21.42889 -3.98492,21.42889 -1.28216,0 -2.95303,-3.81507 -3.06572,-7.00001 -0.0942,-2.6554 -0.32164,-2.45404 -2.28831,2.02565 -1.20117,2.73581 -2.81872,4.97436 -3.59468,4.97436 -2.09636,0 -3.19052,-4.00299 -2.35028,-8.59834 0.40782,-2.23 0.38717,-3.91739 -0.0461,-3.74974 -0.433,0.16764 -6.09378,5.40119 -12.57952,11.63014 l -11.79231,11.32531 1.19272,3.98108 c 2.6429,8.82132 0.79969,22.06479 -3.07091,22.06479 -1.60188,0 -5.15324,-6.55002 -5.15756,-9.51236 -0.01,-4.80671 -1.30378,-4.21905 -5.40802,2.45105 -9.30283,15.11848 -9.70181,26.95989 -1.11452,33.0747 1.61601,1.15064 7.27275,3.82708 12.57058,5.94746 5.29783,2.12038 11.49421,5.20396 13.76955,6.85225 4.16774,3.01903 12.64283,13.31859 12.64283,15.36452 0,1.87348 -2.91873,2.37256 -13.9615,2.38745 -14.65426,0.0202 -14.72516,0.05 -17.48566,7.67261 -2.85725,7.88857 -8.45654,19.19841 -11.15364,22.52861 -1.6235,2.00462 -2.20511,2.19983 -3.12067,1.04727 z m -2.77606,-115.83849 c 1.47065,-4.758 4.33299,-11.35557 6.36066,-14.66127 2.02767,-3.30561 7.20637,-11.90097 11.50823,-19.10071 4.30186,-7.19975 10.58874,-16.4898 13.97082,-20.64448 3.86617,-4.74945 5.91998,-8.15161 5.53176,-9.16333 -0.33971,-0.8851 -1.02345,-1.60928 -1.51937,-1.60928 -1.49351,0 -15.89703,18.71316 -22.24703,28.90339 -10.32156,16.56358 -16.7268,33.48684 -17.79703,47.02121 -0.52089,6.58681 -0.47324,6.85244 0.46921,2.61812 0.57691,-2.59199 2.2521,-8.60545 3.72275,-13.36365 z m 52.62829,-47.82983 c -1.36921,-1.40283 -1.88636,-0.55836 -3.54829,5.79317 -0.814,3.11116 -1.75492,6.5991 -2.09079,7.75099 -0.33596,1.15199 1.01009,-1.20424 2.99117,-5.23615 2.18235,-4.44145 3.22596,-7.71583 2.64791,-8.30801 z m 16.95429,-12.27882 c 5.72073,-1.7139 5.02681,-2.51302 -1.81276,-2.08762 -7.23039,0.44962 -14.25807,-2.02421 -17.10388,-6.02076 -1.12585,-1.58113 -2.38467,-5.41983 -2.79729,-8.53042 -0.55971,-4.21943 -0.95533,-5.13076 -1.55789,-3.58891 -1.83495,4.69575 -1.03728,10.70969 1.8804,14.17717 5.8388,6.9391 12.3134,8.77041 21.39142,6.05054 z m -5.55482,-28.20438 c 3.18725,-1.11106 3.235,-1.22087 1.76588,-4.06207 -1.82967,-3.5381 -3.94755,-4.49986 -6.23154,-2.82977 -1.4279,1.04401 -1.51311,1.80028 -0.52291,4.64061 0.65059,1.86627 1.30205,3.39322 1.44779,3.39322 0.14574,0 1.73907,-0.51388 3.54078,-1.14199 z m 52.18079,182.05196 c -3.62687,-26.47857 -5.57941,-46.9138 -6.92949,-72.52101 -0.60736,-11.51966 -1.2788,-24.19976 -1.49218,-28.17825 -0.54741,-10.20599 0.88078,-6.53109 3.42147,8.80432 2.78404,16.80394 3.93919,29.00004 5.80249,61.26332 2.55798,44.29232 2.8657,50.79093 2.40456,50.79093 -0.24508,0 -1.68806,-9.07168 -3.20685,-20.15931 z m 41.81542,-17.3553 c -1.80623,-20.02674 -4.98868,-80.8686 -4.69316,-89.72451 l 0.10481,-3.1417 0.91412,3.66529 c 0.50283,2.01595 2.07638,11.67664 3.49669,21.46838 2.39648,16.52063 3.42156,26.61864 5.74081,56.55066 l 0.89259,11.51967 -2.91258,3.3276 -2.91258,3.32751 z m -25.74747,-98.2897 c 0,-6.88348 -9.38881,-65.30292 -14.27594,-88.82778 -8.70517,-41.90419 -20.41025,-78.508817 -30.80867,-96.345715 l -4.27362,-7.330687 4.66328,4.552702 c 4.97378,4.855805 13.46203,19.969095 18.02674,32.096407 7.32482,19.460303 15.89069,56.805253 20.29852,88.495663 2.96571,21.32283 7.66386,67.12519 6.95774,67.83131 -0.32347,0.32347 -0.58805,0.11115 -0.58805,-0.4719 z m -147.10494,-64.47959 c -1.05947,-4.69412 -4.69546,-27.91396 -7.33847,-46.86374 -6.39707,-45.865862 -14.74687,-79.216858 -21.68079,-86.597597 -1.24479,-1.325106 -2.00951,-2.663084 -1.6992,-2.973297 0.31021,-0.310117 2.98367,2.083488 5.94102,5.319347 15.607,17.076594 23.81884,52.827147 25.90743,112.788717 0.65577,18.82873 0.29695,24.64909 -1.12999,18.32657 z m 160.80166,-18.32657 c -3.85763,-17.89886 -13.37402,-54.83234 -17.06689,-66.237682 -4.89298,-15.111753 -10.36028,-28.034915 -14.39871,-34.035213 -4.44847,-6.60929 -4.7679,-7.517352 -1.65751,-4.712563 4.35739,3.929394 11.46183,13.461448 14.48085,19.429081 8.4526,16.708162 14.02231,39.064617 19.48836,78.225687 1.92286,13.77599 1.44164,17.94527 -0.8461,7.33069 z m -54.95618,-22.35079 c -4.42367,-20.58568 -16.66195,-60.04697 -22.1522,-71.427715 -3.11894,-6.465376 -2.73822,-7.395534 0.824,-2.012684 8.6433,13.060928 15.03739,33.090356 21.73113,68.073209 2.65837,13.8929 2.34009,18.13213 -0.40293,5.36719 z m -84.89108,1.92968 c -0.22913,-0.71995 -1.6847,-7.4354 -3.23471,-14.92316 -7.79134,-37.637682 -18.52351,-67.144019 -28.397,-78.07275 -2.08224,-2.304836 -3.5113,-4.465085 -3.17563,-4.800757 0.69556,-0.695553 6.11078,2.839182 10.50266,6.855616 9.46019,8.651468 18.78704,36.958649 22.6317,68.687301 0.62811,5.18379 1.52512,12.60612 1.99328,16.49392 0.79191,6.57643 0.6651,8.85706 -0.3203,5.75983 z m 39.18701,-20.35491 c -10.83314,-32.730094 -19.08716,-52.087122 -27.55033,-64.609862 -2.67913,-3.964075 -4.87108,-7.473159 -4.87108,-7.797974 0,-0.324624 1.71092,1.033722 3.8019,3.018642 8.26373,7.844281 17.81,26.344933 23.74718,46.021973 4.0981,13.581821 9.11002,32.807521 8.6679,33.249641 -0.21674,0.21693 -1.92478,-4.23029 -3.79557,-9.88242 z m 280.52814,411.36549 c 2.84802,-1.80536 -2.68586,-2.37228 -28.62499,-2.93266 -17.11598,-0.36978 -27.08736,-0.18676 -28.79896,0.52858 -2.30455,0.9633 -1.92834,1.11932 3.14171,1.30272 3.16784,0.11462 11.41485,0.5331 18.32657,0.93016 18.95689,1.08868 34.3924,1.16207 35.95567,0.1712 z M -263.8015,427.9261 c 4.60035,-8.92546 9.07226,-32.2041 7.77175,-40.45601 -0.26468,-1.67951 0.28014,-6.80988 1.21078,-11.40063 0.93054,-4.59065 1.94726,-15.77368 2.2593,-24.85093 0.63445,-18.45339 -0.59622,-24.54524 -5.40053,-26.73431 -5.69902,-2.59661 -10.92931,-14.20879 -14.18621,-31.49606 -0.62859,-3.33664 -3.1859,-9.3036 -6.29898,-14.6975 -2.88241,-4.99443 -5.24076,-9.68125 -5.24076,-10.41523 0,-0.73398 -0.47123,-1.04333 -1.04717,-0.68739 -1.42915,0.88328 -1.32002,7.80537 0.19166,12.14874 0.68133,1.95792 2.56644,5.65492 4.18888,8.21559 1.62254,2.56067 2.95812,5.85946 2.96801,7.33069 0.025,3.69815 3.48872,16.66771 5.46922,20.47779 2.34173,4.50514 10.13403,13.09052 11.88128,13.09052 2.11586,0 2.06427,30.19199 -0.0711,41.51192 -0.85397,4.52744 -2.0172,16.00752 -2.58488,25.51114 -1.12595,18.84977 -2.81574,27.62805 -6.851,35.59127 -1.44405,2.84975 -2.62552,5.75311 -2.62552,6.45202 0,1.79979 6.09684,-5.19099 8.36498,-9.59162 z m -745.0554,3.93977 c -1.7915,-14.48537 -2.4469,-16.15777 -8.2261,-20.9909 -2.9854,-2.49669 -8.0076,-6.39419 -11.16,-8.66098 -5.6993,-4.098 -5.8007,-4.1248 -17.803,-4.71199 -11.8203,-0.57825 -12.278,-0.5158 -22.0198,3.01086 -10.1112,3.66021 -27.8221,12.29544 -23.0393,11.23309 1.44,-0.31992 8.2668,-1.5967 15.1708,-2.83745 10.9449,-1.96696 13.4623,-2.09983 19.6551,-1.03795 3.9062,0.6699 9.3575,1.21798 12.1137,1.21798 4.3891,0 5.4594,0.46864 8.6203,3.77434 1.9849,2.0758 7.0343,6.10175 11.2208,8.9465 4.1866,2.84475 9.3704,7.48152 11.5197,10.30379 2.1492,2.82227 4.0697,5.15824 4.2677,5.19109 0.198,0.0327 0.055,-2.41445 -0.3199,-5.43838 z m 938.760752,-1.74214 c 1.149968,-2.25421 2.625136,-7.33328 3.278033,-11.28679 1.086178,-6.5772 0.901818,-8.6899 -2.168799,-24.84998 -1.845809,-9.71391 -4.037666,-19.5973 -4.870984,-21.96295 -1.91988,-5.45086 -6.622164,-10.29601 -25.514689,-26.29046 -17.494883,-14.81105 -21.968903,-19.31427 -24.973713,-25.13646 -1.18897,-2.30397 -2.18264,-3.47507 -2.20809,-2.60265 -0.0624,2.15035 3.34413,8.34548 7.79845,14.18102 2.63657,3.45403 3.68201,5.90105 3.70046,8.66117 0.0355,5.39447 1.64992,11.94189 5.2789,21.4139 3.41282,8.90798 3.46864,8.48508 -2.23624,16.93806 -1.72178,2.55126 -5.27381,9.262 -7.89328,14.91289 -2.61956,5.65098 -7.57134,15.87263 -11.00405,22.7149 -3.43271,6.84226 -6.10578,12.5529 -5.94025,12.69047 0.16553,0.13758 6.07292,0.57624 13.1276,0.97484 l 12.82671,0.72475 -1.04535,-2.74926 c -1.94063,-5.10434 -1.05793,-5.2519 3.10193,-0.51839 3.87646,4.4109 4.14392,4.54501 4.18024,2.09444 0.0211,-1.43991 -0.38275,-4.26747 -0.89807,-6.28342 -0.51523,-2.01595 -1.23,-5.3084 -1.58834,-7.31656 -0.57306,-3.21165 -0.46719,-3.46394 0.87934,-2.09454 0.84196,0.85628 3.60986,5.21809 6.15074,9.69278 l 4.619952,8.13614 0.695361,-9.707 c 1.146317,-16.00233 1.71717,-16.355 4.83294,-2.98511 l 2.764919,11.86485 3.335964,-7.46058 c 1.834665,-4.10338 3.537041,-7.46067 3.78279,-7.46067 0.245845,0 0.218657,3.65233 -0.06052,8.11616 l -0.507447,8.11607 3.206365,-3.62581 c 3.419354,-3.86666 3.775104,-3.57979 2.232206,1.79998 -0.856183,2.98512 -0.731868,3.39668 1.025941,3.39668 1.27169,0 2.76146,-1.49255 4.090985,-4.09847 z m -176.330752,0.47804 c 1.06937,-4.26103 -0.0826,-5.31713 -1.33817,-1.22663 -0.64146,2.08983 -0.748,3.7998 -0.237,3.7998 0.51109,0 1.2199,-1.15795 1.57517,-2.57317 z m 30.33303,-3.97205 c 1.06466,-2.56999 2.03065,-8.21213 2.2861,-13.35231 0.37785,-7.60516 -0.049,-10.7314 -2.92843,-21.46828 -2.62293,-9.77876 -3.54636,-15.8196 -4.16217,-27.22811 -0.82323,-15.25096 -3.65127,-27.79186 -8.61967,-38.22419 l -2.24441,-4.71256 -0.66548,13.09051 c -0.44481,8.74889 -1.60755,16.91107 -3.50601,24.60999 -4.33837,17.59394 -6.76685,32.09728 -7.9782,47.64923 -0.60573,7.77578 -1.31464,14.75129 -1.57537,15.50122 -0.26074,0.74983 -0.0769,1.11807 0.40801,0.81824 0.48516,-0.29984 1.49534,0.73599 2.24479,2.30195 l 1.36276,2.84696 0.97695,-3.66529 c 0.53732,-2.01595 1.31386,-6.02163 1.72572,-8.90154 l 0.74878,-5.23615 1.23883,4.24604 c 0.68143,2.33529 1.54002,5.75186 1.90816,7.59238 1.09559,5.47806 1.69661,4.81431 6.92642,-7.64954 1.26103,-3.00519 1.33212,-2.834 1.63685,3.94371 l 0.31858,7.08532 3.68037,-2.8071 3.68029,-2.80719 -0.74023,3.05256 c -0.40705,1.67874 -1.13075,4.1127 -1.60813,5.4086 -0.7043,1.91209 -0.49938,2.35633 1.08685,2.35633 1.31242,0 2.56077,-1.46259 3.79864,-4.45078 z m -26.09707,-5.53838 c -1.01057,-2.6335 -0.71246,-3.3131 0.52205,-1.19013 0.6113,1.05121 0.89086,2.13191 0.62119,2.40139 -0.26957,0.26967 -0.78403,-0.27534 -1.14324,-1.21126 z m 46.69649,-0.22145 0.29974,-10.2105 2.55212,7.85427 2.55203,7.85427 0.77385,-4.71256 c 0.42559,-2.5919 0.80872,-6.57403 0.85147,-8.84918 0.1198,-6.38603 2.18331,-3.13604 3.56,5.60688 0.64358,4.08715 1.53704,7.43118 1.9856,7.43118 0.44846,0 0.81545,-0.65789 0.81545,-1.4621 0,-1.97282 7.46778,-17.60009 8.10569,-16.96208 0.51186,0.51187 -1.51101,17.19409 -2.55155,21.0423 -0.31146,1.15199 2.1395,-0.87126 5.44664,-4.49621 3.30714,-3.62485 6.19734,-6.40648 6.42272,-6.1811 0.22529,0.22528 -0.82371,3.10347 -2.33106,6.39601 -1.50735,3.29254 -2.55846,6.16842 -2.33587,6.39092 0.2225,0.22269 3.43473,-0.21971 7.13816,-0.9829 5.47008,-1.1272 7.2963,-2.05082 9.73294,-4.92238 4.60381,-5.4257 13.90722,-21.65456 17.69577,-30.86862 2.92228,-7.10694 3.4061,-9.55098 3.43444,-17.3478 l 0.0327,-9.07553 -9.35192,-18.20812 -9.35192,-18.20811 -11.59277,1.91921 c -11.45309,1.89605 -14.84458,1.85359 -27.46724,-0.34365 l -6.44933,-1.12259 -1.12758,-6.40149 c -0.62024,-3.5208 -1.89654,-7.1322 -2.8363,-8.02528 -1.56538,-1.48756 -1.60842,-1.4277 -0.51235,0.71381 0.87434,1.70824 0.90787,4.80969 0.12461,11.51957 -3.62879,31.08449 -4.18149,38.99304 -3.63292,51.98317 0.9143,21.65398 4.80431,49.87922 6.87425,49.87922 0.46345,0 0.97752,-4.59479 1.14238,-10.21061 z m -680.94473,-1.91267 c -1.15352,-3.41186 -3.26131,-7.61717 -4.68403,-9.3451 -2.12432,-2.58018 -1.80757,-1.4134 1.77261,6.5283 2.39754,5.31848 4.50534,9.5237 4.68403,9.3451 0.17859,-0.17869 -0.61899,-3.11635 -1.77261,-6.5283 z m 49.69726,2.95994 c -1.55961,-7.15814 -8.25248,-27.42429 -10.56203,-31.98189 -2.7336,-5.39457 -22.90463,-26.93365 -29.50931,-31.51057 -3.53406,-2.44913 -5.52888,-2.88155 -17.51602,-3.79652 -22.38634,-1.70872 -28.87871,-1.5455 -34.32228,0.86242 -5.4696,2.41936 -26.21293,16.92135 -25.38633,17.74775 0.2983,0.29849 1.16226,0.0288 1.91988,-0.60054 2.46133,-2.04275 20.33848,-7.5332 24.52842,-7.5332 3.98185,0 26.36463,2.63157 31.91349,3.75214 2.17745,0.43972 3.85023,2.44308 7.6311,9.1397 7.82564,13.86043 8.76157,14.64975 23.09159,19.47404 14.0542,4.7313 14.08034,4.75292 22.69395,18.68684 2.93746,4.75186 5.52177,8.63975 5.74293,8.63975 0.22105,0 0.1197,-1.296 -0.22539,-2.87992 z m 429.95434,-22.99139 c 7.19974,-3.15727 14.95612,-7.21175 17.23636,-9.0101 4.14383,-3.26785 4.1518,-3.26929 15.64735,-2.95581 10.28189,0.28034 12.72026,0.74849 22.99629,4.41417 6.32223,2.25517 11.75311,4.1004 12.06861,4.1004 1.70093,0 -11.49584,-12.04383 -14.92432,-13.62045 l -4.04996,-1.86243 4.04996,-0.66634 c 2.2275,-0.36651 10.80096,-1.08109 19.052,-1.58806 8.25105,-0.50677 15.23473,-1.15429 15.51929,-1.43885 0.28447,-0.28456 -2.69633,-1.33711 -6.62409,-2.33923 -5.63839,-1.43847 -13.16833,-1.9194 -35.77851,-2.28495 -15.75043,-0.25458 -29.69051,-0.19858 -30.97795,0.12451 -2.99203,0.75099 -16.61699,14.08226 -27.10303,26.51892 -9.34779,11.08677 -10.84534,11.01616 12.888,0.60822 z m -23.75736,-50.4298 c 10.39045,-15.64389 11.47672,-16.90068 18.70327,-21.63707 4.21972,-2.76569 8.73216,-6.15459 10.02768,-7.531 3.60448,-3.82929 8.67856,-5.46614 19.88129,-6.4133 9.5187,-0.80498 29.54294,-5.98272 29.58463,-7.64984 0.0144,-0.5671 -27.56753,-1.91661 -45.63385,-2.23278 -6.51225,-0.11394 -8.03623,0.90412 -21.08928,14.08687 l -9.66549,9.76166 -6.17361,17.2794 c -3.39553,9.50362 -6.51879,18.10407 -6.94055,19.11205 -1.88442,4.50342 1.03526,0.68758 11.30591,-14.77599 z m -518.22231,0.30311 2.50946,-1.64435 -3.61764,-9.99387 c -1.98973,-5.49669 -5.80921,-15.63188 -8.48767,-22.52256 l -4.87002,-12.5287 -8.98167,-7.9146 c -12.5286,-11.04018 -27.55437,-22.22417 -31.11831,-23.16211 -5.071,-1.33461 -47.5724,0.34432 -51.1699,2.02124 -3.7557,1.75079 -26.9667,17.32541 -24.3926,16.36749 0.9837,-0.36603 7.2529,-2.37141 13.9315,-4.45624 l 12.143,-3.79067 18.832,1.47507 18.832,1.47507 12.79134,12.59076 c 12.76926,12.56905 12.80442,12.59383 20.43514,14.43436 l 7.64378,1.84369 4.20319,8.35961 c 3.7973,7.55232 17.42485,29.09006 18.40622,29.09006 0.22038,0 1.53002,-0.73994 2.91018,-1.64425 z m -32.48194,-3.33011 c -0.33904,-1.58401 -1.3401,-4.91066 -2.22472,-7.39265 -1.40792,-3.94976 -2.34595,-4.84466 -7.51994,-7.17399 -13.55839,-6.10415 -22.14335,-9.67126 -22.14335,-9.20071 0,0.27582 5.06598,3.83044 11.25775,7.89904 12.47768,8.19936 16.47317,11.58797 18.70874,15.86831 0.82736,1.58392 1.73677,2.87982 2.02105,2.87982 0.28408,0 0.23931,-1.2959 -0.0995,-2.87982 z m 499.83685,-17.41149 c 1.86694,-0.95966 6.98262,-3.12663 11.36825,-4.81536 8.53753,-3.28755 10.80865,-5.27487 10.86139,-9.50448 0.15564,-12.48057 -23.35405,-0.78577 -33.85402,16.84054 -2.09723,3.52071 -3.81315,6.58095 -3.81315,6.80057 0,0.21971 2.70968,-1.39514 6.02162,-3.58853 3.31185,-2.1933 7.54906,-4.77309 9.41591,-5.73274 z m -323.38093,-1.57624 c -4.97743,-8.85619 -17.88695,-18.94286 -24.2723,-18.96477 -2.18129,-0.0106 -3.01595,0.61149 -3.51705,2.60823 -1.13191,4.50976 0.32548,7.54867 4.54242,9.47201 3.47373,1.58449 24.35348,10.56722 25.20255,10.84246 0.18081,0.0586 -0.6992,-1.72236 -1.95562,-3.95793 z m 293.72904,-24.22378 c 2.43684,-3.94803 6.53301,-8.40812 10.98263,-11.95842 7.44444,-5.93978 10.18582,-10.34731 9.10771,-14.64293 -1.93535,-7.71103 -13.3649,-1.26458 -18.58615,10.48268 -1.04862,2.35921 -2.64541,7.54309 -3.54848,11.51966 -0.90316,3.97656 -1.8875,8.05477 -2.18743,9.06275 -0.97215,3.26698 0.26659,1.96032 4.23172,-4.46374 z m -367.5225,-15.43379 c -13.60104,-32.7225 -13.16593,-31.91464 -18.87821,-35.05587 -2.85388,-1.56941 -9.66588,-4.80459 -15.13769,-7.18936 -5.47181,-2.38477 -10.72228,-5.10646 -11.66771,-6.04814 -0.94553,-0.94169 -6.7728,-12.8807 -12.94968,-26.53122 -6.17687,-13.65032 -12.00088,-25.50479 -12.94228,-26.34301 -0.9414,-0.83822 -6.42416,-3.4916 -12.18399,-5.89644 -5.75974,-2.40494 -14.40554,-6.21982 -19.21264,-8.47758 -4.80719,-2.25786 -9.01577,-4.10501 -9.35249,-4.10501 -1.18331,0 10.8633,8.54886 20.89473,14.82795 5.57682,3.49074 11.05055,7.35538 12.16411,8.58807 1.7946,1.98665 16.97457,41.85739 16.97457,44.58446 0,0.59237 -1.06034,1.29965 -2.35624,1.57172 -1.29599,0.27198 -6.362,1.29446 -11.25777,2.27217 -4.89577,0.97752 -9.51611,2.093 -10.26728,2.47853 -0.7531,0.38669 3.0048,1.91124 8.37785,3.39889 5.35903,1.48372 18.22628,5.2645 28.59396,8.4015 10.36758,3.137 20.49076,6.14642 22.49585,6.68759 3.17399,0.85647 5.45721,3.51993 17.64697,20.58596 7.70075,10.78107 14.13778,19.60211 14.30456,19.60211 0.16678,0 -2.19416,-6.00856 -5.24662,-13.35232 z m 575.65482,-6.18388 c 2.60467,-2.3572 2.40523,-3.50304 -0.60986,-3.50304 -3.4427,0 -7.07514,-4.5869 -12.31254,-15.54791 -3.81372,-7.98137 -4.41397,-8.74985 -5.03276,-6.44405 -1.35374,5.04478 3.10501,16.51535 8.92286,22.95517 4.20848,4.65819 6.1029,5.1909 9.0323,2.53983 z m -502.36064,-8.8855 c -6.83304,-22.2942 -9.95899,-30.22351 -11.9148,-30.22351 -0.49938,0 -6.18254,-3.52407 -12.62928,-7.8314 l -11.72141,-7.83132 5.53329,6.38718 c 3.04324,3.51302 8.61823,9.79202 12.38872,13.95342 4.71689,5.20589 8.81566,11.3454 13.13894,19.6807 3.45586,6.66289 6.42781,11.97138 6.6043,11.79644 0.17638,-0.17495 -0.45346,-2.84408 -1.39976,-5.93151 z m 462.70019,-21.48173 c 1.84331,-0.95178 6.51543,-3.95111 10.38257,-6.66511 6.48363,-4.55049 7.77818,-5.03056 16.62611,-6.16525 14.98629,-1.9218 18.88379,-4.81603 19.57963,-14.53917 0.3594,-5.02297 0.049,-6.46336 -1.93871,-8.98157 l -2.36671,-2.99943 -1.43433,2.73754 c -1.5332,2.92632 -3.42042,3.3939 -6.67251,1.65338 -3.16265,-1.69248 -2.51417,-4.824 1.27236,-6.14411 1.81392,-0.63234 4.2202,-1.14959 5.34731,-1.14959 2.84734,0 9.3792,-5.40158 13.77761,-11.39333 l 3.69008,-5.027 12.86264,-2.76694 c 7.07447,-1.52186 17.21552,-3.49582 22.53582,-4.38659 23.65899,-3.9611 44.33757,-14.32494 56.77547,-28.45533 7.17064,-8.14603 12.87408,-21.60566 11.10685,-26.21091 -0.51244,-1.33538 -1.64118,0.15141 -4.32184,5.69345 -3.67615,7.59968 -9.0712,13.03047 -11.01443,11.08725 -0.60476,-0.60467 -0.57402,-3.10319 0.0807,-6.55501 1.41061,-7.43858 1.31185,-13.63515 -0.26669,-16.72901 -2.30032,-4.5087 -3.61428,-3.64215 -4.81517,3.17504 -1.1613,6.59286 -6.23894,17.79876 -8.38996,18.51574 -0.741,0.247 -1.17889,-1.14248 -1.17889,-3.74033 0,-8.7534 -4.66846,-24.31659 -7.29427,-24.31659 -0.45317,0 -0.90048,4.20089 -0.99405,9.3354 -0.31088,17.05622 -1.92583,22.84699 -8.27535,29.67417 -2.99443,3.21962 -7.90625,3.88011 -9.37238,1.26016 -0.52935,-0.94591 -0.34893,-5.84649 0.43395,-11.78136 1.72101,-13.04853 1.85407,-26.78849 0.24978,-25.79694 -2.05678,1.27111 -4.95389,9.13826 -7.7387,21.01434 -3.29234,14.04028 -8.8536,25.63026 -14.44732,30.1087 -5.79846,4.64244 -7.12346,3.32386 -8.86677,-8.82362 -1.39706,-9.73477 -5.04083,-19.375 -7.05265,-18.65898 -0.64445,0.22922 -0.92132,5.20627 -0.71986,12.93949 0.40494,15.54513 -0.12192,18.47049 -4.15286,23.06162 -4.91921,5.60256 -6.99444,4.97541 -14.68779,-4.43982 -4.76867,-5.83582 -6.70344,-7.56933 -6.96024,-6.23596 -0.1956,1.01557 0.15429,3.30935 0.7775,5.09723 2.00116,5.74053 1.47584,9.09551 -1.54289,9.85322 -3.20108,0.80344 -6.76781,-2.10904 -9.41533,-7.68816 -1.4597,-3.07619 -3.90336,-24.36069 -2.79682,-24.36069 1.65742,0 6.51034,3.53281 6.51034,4.73946 0,5.03066 7.07946,-4.46585 11.94247,-16.01971 3.01288,-7.15834 3.33203,-9.67962 1.46211,-11.54955 -2.10693,-2.10693 -2.85773,-1.48487 -5.54694,4.59594 -1.55385,3.5135 -3.11808,5.67826 -3.91393,5.41657 -2.14228,-0.70468 -5.88626,-8.19917 -7.17553,-14.36384 -1.10578,-5.28688 -1.30532,-5.56155 -2.67721,-3.68547 -1.46441,2.00279 -2.52512,5.41926 -4.21857,13.5872 -0.67047,3.23403 -1.41051,4.26593 -3.24652,4.52647 -2.84264,0.40341 -4.58594,-3.10193 -6.56731,-13.20541 -1.35171,-6.8927 -2.60428,-7.71862 -4.97752,-3.28159 -1.88779,3.52954 -0.74935,12.69903 2.44222,19.67022 2.9583,6.46182 3.19646,8.80105 1.07532,10.56145 -3.33875,2.77088 -8.17496,-2.31809 -13.21292,-13.90357 -2.0464,-4.70603 -4.16707,-8.55655 -4.71256,-8.55655 -1.53521,0 -1.77654,6.2644 -0.48151,12.50218 1.06773,5.14344 6.81095,17.82172 11.28381,24.90906 1.67202,2.64954 1.6773,2.97532 0.074,4.57845 -4.09502,4.09502 -21.11311,-3.92324 -27.47108,-12.94334 -1.76482,-2.5037 -3.37199,-4.06245 -3.57162,-3.46364 -0.75503,2.26506 4.73206,11.29217 10.27295,16.90059 7.58508,7.6775 15.27277,11.25835 27.01185,12.58163 8.59681,0.96917 22.61518,4.58278 24.74968,6.37988 0.53387,0.44951 -1.5868,1.95273 -4.71256,3.34067 -3.12576,1.38793 -8.50967,4.72428 -11.96438,7.41436 -3.45471,2.68999 -11.40313,7.57394 -17.6631,10.85313 -6.26008,3.27918 -13.17353,7.74629 -15.36327,9.92681 -4.68345,4.66376 -7.29437,11.5309 -7.29437,19.18506 0,4.69142 0.40446,5.81545 2.75935,7.6677 3.43904,2.70516 11.59402,2.92382 16.40467,0.43991 z m -11.09426,-6.38554 c -0.71189,-1.29523 1.33288,-7.59248 2.46537,-7.59248 1.76011,0 2.37439,3.1273 1.14449,5.82669 -1.14469,2.51235 -2.76415,3.30455 -3.60986,1.76579 z m -78.19774,-36.12966 c -8.01106,-23.42284 -7.86955,-23.1915 -17.85246,-29.19247 -4.75801,-2.86013 -10.59229,-6.53608 -12.96515,-8.16862 l -4.31415,-2.96811 -1.86195,-14.02778 c -1.02402,-7.71526 -2.82055,-18.72853 -3.99213,-24.47376 -2.08791,-10.23866 -11.59249,-37.702816 -13.76273,-39.768724 -0.76049,-0.723894 -0.86252,-0.400615 -0.33058,1.047269 2.64675,7.203392 15.24039,75.661465 15.24981,82.896075 0,1.28005 1.98213,2.96446 5.8805,5.00155 3.23288,1.68931 8.48574,5.09637 11.67299,7.57134 3.18725,2.47488 6.54944,4.74619 7.47172,5.04728 1.43799,0.4693 12.01481,17.9126 17.31504,28.55562 3.26458,6.55549 2.55039,3.27899 -2.51091,-11.51967 z m -441.88153,-21.33435 c -0.57163,-8.56933 -1.35297,-21.7468 -1.7362,-29.28336 l -0.69689,-13.70259 -8.51486,-16.62093 -8.51495,-16.62102 -16.67194,-6.07264 c -18.02741,-6.566156 -22.59808,-8.586238 -36.21343,-16.005117 -10.30773,-5.616494 -9.98935,-5.20339 6.807,8.834195 9.45818,7.904612 15.19841,11.781942 23.20505,15.674052 6.32233,3.07341 10.88627,5.95294 11.24971,7.09791 0.33624,1.05957 5.08253,9.44444 10.54723,18.63294 8.25796,13.88531 10.21935,18.03884 11.61477,24.59625 3.16496,14.87216 9.23049,39.78438 9.59729,39.41759 0.20165,-0.20166 -0.10107,-7.37796 -0.67278,-15.94728 z m 51.9554,-57.66096 c -2.98127,-5.89693 -5.90624,-16.93076 -9.08484,-34.2703 -2.91873,-15.922207 -3.82237,-18.918849 -8.97177,-29.752086 -6.31109,-13.277088 -8.43983,-15.354524 -3.63484,-3.54732 3.55155,8.72698 4.65444,14.469519 6.37699,33.201798 0.68854,7.487668 1.94505,15.027788 2.7922,16.755718 2.8974,5.90932 13.36279,22.28988 13.68866,21.42582 0.17898,-0.4745 -0.34586,-2.19061 -1.1664,-3.81363 z M -1060.7352,110.7601 c 0,-0.36987 -2.2027,-0.49736 -4.8947,-0.28331 l -4.8948,0.38937 2.4763,1.86791 c 2.2412,1.69036 2.7059,1.71736 4.8948,0.28312 1.3302,-0.87146 2.4184,-1.88722 2.4184,-2.25709 z m 668.55105,-28.232534 c 1.28543,-2.08003 8.79039,-2.34163 19.8908,-0.693343 6.23749,0.926123 11.55694,1.467867 11.82094,1.203768 0.68748,-0.687387 -13.96745,-6.18581 -27.19478,-10.203109 l -11.30062,-3.432227 -8.52379,-13.409089 c -4.68816,-7.374975 -8.67798,-13.254992 -8.86628,-13.066693 -0.1883,0.188299 3.70238,8.765793 8.64599,19.060841 4.94361,10.295145 9.61775,21.327057 10.38699,24.515264 3.11106,12.89463 2.94726,12.694899 3.75262,4.573165 0.40936,-4.128837 1.03401,-7.975706 1.38813,-8.548577 z m 262.521,10.677219 c 2.40465,-2.614376 2.41791,-2.697381 0.25142,-1.570855 -1.25815,0.654051 -3.31867,1.189358 -4.57903,1.189358 -1.91815,0 -2.07916,0.255932 -0.98789,1.570854 1.77529,2.139018 2.37804,2.004134 5.3155,-1.189357 z m -15.7878,-10.741874 c 0,-0.514364 -0.70689,-1.206362 -1.57086,-1.537902 -1.59631,-0.612548 -2.14478,0.502931 -0.87271,1.774909 1.00087,1.000866 2.44357,0.860987 2.44357,-0.237007 z M -793.05093,65.952462 c -0.38313,-3.259299 -1.91632,-11.388527 -3.40715,-18.064874 -3.23835,-14.502088 -6.17534,-19.182852 -17.86581,-28.472711 -14.45876,-11.4898817 -21.59481,-14.7022028 -39.05867,-17.5822148 -10.98618,-1.8118002 -30.73892,-4.2877382 -31.12522,-3.9015334 -0.19579,0.1957924 3.93756,1.85522425 9.18524,3.6876797 17.27257,6.0316163 26.70731,10.9914665 33.76035,17.7479375 6.03325,5.779814 6.96177,6.289278 12.77195,7.007888 7.77088,0.961285 17.12953,3.627155 20.04124,5.708914 4.09137,2.925262 12.95323,24.167392 14.56444,34.911379 1.03939,6.93132 1.97012,6.075425 1.13363,-1.042465 z m 305.6621,-27.342629 c -2.88837,-1.573448 -7.01183,-3.792781 -9.16333,-4.931797 -2.15151,-1.13892 -3.91182,-2.348356 -3.91182,-2.687582 0,-0.339322 7.11184,-2.640603 15.80404,-5.113948 17.73113,-5.045545 20.82038,-5.129607 43.88844,-1.193968 6.04775,1.031801 11.16016,1.737537 11.36076,1.568453 0.73158,-0.617063 -25.88514,-8.671548 -34.73144,-10.510152 -9.76224,-2.029016 -11.93075,-1.82352 -45.74692,4.337407 -5.56673,1.01422 -12.28439,1.248633 -23.06517,0.804978 -17.15624,-0.705929 -19.56675,-0.107503 -30.12427,7.477194 -5.58392,4.011631 -6.87415,5.538773 -3.62686,4.292638 1.00595,-0.386013 6.35931,-1.379193 11.89626,-2.207036 11.1984,-1.674418 6.36354,-2.350853 52.25072,7.309936 9.50362,2.000771 17.98629,3.655207 18.85026,3.676343 0.86396,0.02114 -0.79239,-1.249017 -3.68067,-2.822466 z M -970.09202,16.269325 c -2.20223,-0.361803 -4.50044,-1.585937 -5.40677,-2.879916 -0.86704,-1.237777 -2.56519,-2.250556 -3.77367,-2.250556 -2.16274,0 -2.1662,0.03459 -0.21635,2.189071 1.9439,2.148144 1.94323,2.216643 -0.0375,3.665295 -2.4061,1.759442 -3.6972,1.828709 -7.45539,0.399751 -1.55731,-0.592181 -3.02662,-0.881354 -3.26516,-0.642906 -0.23845,0.238448 2.29263,3.378139 5.62466,6.977145 l 6.05823,6.543578 6.15141,-6.686051 6.15152,-6.686051 z m 625.42624,-4.934103 c 0.23153,-0.694688 -0.54847,-1.243637 -1.76722,-1.243637 -2.17543,0 -2.82746,1.099723 -1.46182,2.465466 0.97032,0.97022 2.71891,0.30858 3.22904,-1.221829 z M -964.91313,-1.8696202 c 2.30397,-1.9536969 3.90893,-3.8367816 3.56682,-4.1845581 -0.34211,-0.3477765 -2.63983,0.079739 -5.10607,0.9496603 -2.46614,0.8701137 -5.90816,1.5820948 -7.64887,1.5820948 h -3.16486 l 3.55846,2.52839272 c 1.95706,1.39062558 3.79403,2.56172928 4.08196,2.60246328 0.28802,0.04131 2.40869,-1.52435618 4.71256,-3.478053 z m 637.65472,-5.4037933 c 1.12287,-2.9262225 0.69728,-3.5796965 -2.33155,-3.5796965 -4.14891,0 -4.8705,1.1731216 -2.05438,3.3401919 2.9806,2.2934994 3.58498,2.3265478 4.38593,0.2395046 z M -479.97735,-62.974909 c -0.23777,-0.23768 -2.10097,0.171102 -4.14036,0.908638 -2.82045,1.019888 -3.44309,1.660104 -2.60093,2.674805 0.87847,1.058508 1.7336,0.870978 4.14037,-0.908446 1.66827,-1.233454 2.8387,-2.437126 2.60092,-2.674997 z m -6.12595,-9.236828 c 3.04525,-3.220199 5.53348,-6.165539 5.52945,-6.545211 0,-0.37948 -3.18504,-1.491885 -7.06889,-2.471711 -3.88376,-0.979827 -8.23962,-2.107411 -9.67953,-2.50572 l -2.61812,-0.72399 2.9658,3.176198 c 3.45106,3.695942 2.4476,5.014226 -3.03372,3.985884 -1.97858,-0.371122 -3.59737,-0.316265 -3.59737,0.122106 0,1.196658 9.71007,10.817578 10.91778,10.817578 0.57632,0 3.53934,-2.634743 6.5846,-5.855134 z m 57.65231,-2.070904 c -0.36584,-0.365934 -3.08753,0.139303 -6.04814,1.122684 l -5.38285,1.787879 2.38582,2.539537 2.38582,2.539729 3.66222,-3.662317 c 2.01432,-2.014222 3.36296,-3.961674 2.99713,-4.327512 z m -166.43344,-5.528877 c -1.30925,-0.200404 -2.55289,0.153041 -2.76376,0.785475 -0.53531,1.605824 -4.83438,1.432993 -9.14383,-0.367663 -1.99751,-0.834471 -3.63177,-1.205785 -3.63177,-0.82496 0,0.380728 1.98415,2.713905 4.40908,5.184751 l 4.40897,4.492562 4.55088,-4.452884 c 4.25671,-4.16496 4.39707,-4.476422 2.17043,-4.817281 z m 9.26508,-7.672314 c 1.33308,-1.252476 2.42377,-2.666159 2.42377,-3.141709 0,-0.998369 -5.33357,-1.163515 -7.74101,-0.239697 -1.4498,0.556346 -1.43049,0.898166 0.1761,3.108853 2.22347,3.059376 2.17716,3.056974 5.14114,0.272553 z"
       id="path5" /></g></svg>
