<?xml version="1.0" encoding="UTF-8" standalone="no"?>
<!-- Created with Inkscape (http://www.inkscape.org/) -->

<svg
   width="1080"
   height="1080"
   viewBox="0 0 285.74997 285.74997"
   version="1.1"
   id="svg1"
   inkscape:version="1.4.2 (f4327f4, 2025-05-13)"
   sodipodi:docname="61.svg"
   xml:space="preserve"
   inkscape:export-filename="67.svg"
   inkscape:export-xdpi="96"
   inkscape:export-ydpi="96"
   xmlns:inkscape="http://www.inkscape.org/namespaces/inkscape"
   xmlns:sodipodi="http://sodipodi.sourceforge.net/DTD/sodipodi-0.dtd"
   xmlns="http://www.w3.org/2000/svg"
   xmlns:svg="http://www.w3.org/2000/svg"><sodipodi:namedview
     id="namedview1"
     pagecolor="#ffffff"
     bordercolor="#000000"
     borderopacity="0.25"
     inkscape:showpageshadow="2"
     inkscape:pageopacity="0.0"
     inkscape:pagecheckerboard="0"
     inkscape:deskcolor="#3c3c3c"
     inkscape:document-units="px"
     inkscape:zoom="2.862963"
     inkscape:cx="-287.98835"
     inkscape:cy="93.434669"
     inkscape:window-width="1920"
     inkscape:window-height="991"
     inkscape:window-x="-9"
     inkscape:window-y="-9"
     inkscape:window-maximized="1"
     inkscape:current-layer="layer1"
     showgrid="true"><inkscape:page
       x="0"
       y="0"
       width="285.74997"
       height="285.74997"
       id="page2"
       margin="0"
       bleed="0" /></sodipodi:namedview><defs
     id="defs1"><inkscape:path-effect
       effect="skeletal"
       id="path-effect33"
       is_visible="true"
       lpeversion="1"
       pattern="#path29"
       copytype="repeated_stretched"
       prop_scale="1"
       scale_y_rel="false"
       spacing="0"
       normal_offset="0"
       tang_offset="0"
       prop_units="false"
       vertical_pattern="false"
       hide_knot="false"
       fuse_tolerance="0" /></defs><g
     inkscape:label="Capa1"
     inkscape:groupmode="layer"
     id="layer1"
     style="display:inline;opacity:1;mix-blend-mode:multiply"><path
       id="path33"
       style="fill:none;stroke:#000000;stroke-width:1.85208;stroke-linecap:round;stroke-linejoin:round;stroke-miterlimit:4.7"
       d="m 212.31515,124.96627 c -2.40454,-1.97976 -4.87541,-3.83211 -7.40363,-5.55141 3.01035,-0.54335 6.02098,-1.22892 9.02155,-2.05905 l 16.7693,2.694 c 2.54445,2.00873 5.02765,4.15085 7.44062,6.4207 -3.12561,1.0939 -6.26382,2.04026 -9.4043,2.84141 z m -13.54696,1.42868 c -5.75088,-4.84773 -11.93186,-8.94055 -18.40647,-12.19246 7.24722,-0.33851 14.55453,-1.52575 21.76461,-3.59742 l 41.93292,3.54959 c 6.60968,5.02562 12.86634,10.89702 18.63354,17.52822 -7.95465,3.7178 -16.04506,6.50574 -24.11393,8.39952 -13.27022,-4.56248 -26.54044,-9.12496 -39.81067,-13.68745 z M 140.465,105.35413 c 0.19501,-0.096 -0.0572,0.68789 -0.35501,1.38185 m 168.19665,-1.38185 c -0.19501,24.46155 -5.29031,47.95838 -14.88425,69.5208 M 186.4303,126.09115 c -8.69242,-7.44137 -18.47351,-13.12265 -28.83219,-16.72179 10.95103,0.9253 22.17752,-0.14223 33.09035,-3.33625 l 65.38813,0.89267 c 10.76361,7.87037 20.72724,17.84113 29.37981,29.59023 -12.65714,7.22465 -25.77228,12.15266 -38.75631,14.91768 -20.08993,-8.44752 -40.17986,-16.89503 -60.26979,-25.34254 z m 11.40253,27.83884 c -1.41183,-2.77348 -2.93814,-5.45572 -4.56996,-8.04107 2.97342,0.70768 6.00675,1.28162 9.08962,1.71948 l 14.29265,9.17919 c 1.52881,2.85783 2.9482,5.81288 4.24921,8.85949 -3.30424,-0.24642 -6.56145,-0.63191 -9.76131,-1.15412 z m -12.94193,-4.18372 c -3.33342,-6.71284 -7.39252,-12.89275 -12.04083,-18.45372 6.7612,2.59751 13.94844,4.39832 21.40443,5.36677 l 36.9806,20.10692 c 4.05143,7.2306 7.45427,15.085 10.07205,23.47721 -8.79173,0.23373 -17.35324,-0.41035 -25.52725,-1.89655 -10.29634,-9.53354 -20.59267,-19.06709 -30.889,-28.60063 z m -44.78091,-43.01029 c -0.26058,0.60722 -0.55604,1.14563 -0.61733,0.96561 0.0257,0.009 0.0368,0.0223 0.0351,0.0398 m 153.89467,67.13352 c -8.39469,18.8671 -20.23364,36.25317 -35.24777,51.50862 -2.17937,2.1449 -4.40223,4.225 -6.66667,6.23951 M 173.8292,144.37093 c -0.82427,-1.68773 -1.70002,-3.34176 -2.62666,-4.95946 -4.66023,-8.17248 -10.51965,-15.45288 -17.28008,-21.65329 9.62812,5.24955 20.41433,8.63178 31.76951,10.01304 l 59.40163,27.3118 c 6.73026,11.44059 11.94767,24.44621 15.14116,38.6948 -12.13715,1.31911 -23.97782,1.1223 -35.1783,-0.51243 -2.21299,-0.33086 -4.39623,-0.71968 -6.54828,-1.16421 z m -0.9761,29.96167 c -0.14001,-3.11249 -0.41807,-6.18925 -0.83183,-9.21993 2.4219,1.87117 4.94908,3.64798 7.57588,5.32148 l 9.22191,14.26494 c 0.21153,3.23478 0.28437,6.51312 0.21618,9.82465 -2.90385,-1.59031 -5.70777,-3.28784 -8.40608,-5.08363 z m -10.14128,-9.09757 c -0.254,-7.51965 -1.35245,-14.85536 -3.25964,-21.84983 5.11816,5.14986 10.9067,9.779 17.27962,13.75096 l 25.39177,33.55341 c 0.693,8.27029 0.53182,16.84327 -0.51923,25.56165 -8.07641,-3.42596 -15.56357,-7.56847 -22.37548,-12.29107 z m -23.1841,-57.49362 c -0.0137,0.14023 -0.84455,0.53613 -1.52284,0.78604 m 113.50307,124.09561 c -18.11539,16.11595 -38.89244,28.0345 -61.36147,35.35399 M 154.67084,155.87624 c -0.30558,-11.44002 -2.64121,-22.51562 -6.87326,-32.63767 6.67819,8.73782 15.02722,16.35039 24.72504,22.32663 l 42.97672,49.24304 c 1.36431,13.25037 0.66206,27.30995 -2.24041,41.58961 -13.81269,-4.58022 -26.25835,-11.01916 -37.0149,-18.80575 z m -13.00295,27.09139 c 1.11758,-2.90341 2.08863,-5.83071 2.9155,-8.77156 1.45885,2.68529 3.05914,5.32438 4.79522,7.9083 l 2.74482,16.76112 c -1.10143,3.04864 -2.35003,6.08121 -3.74814,9.08735 -2.03009,-2.61999 -3.92408,-5.29905 -5.67631,-8.0282 z m -5.51463,-12.43023 c 0.34501,-0.87071 0.67572,-1.74466 0.99194,-2.62158 2.22121,-6.1299 3.75887,-12.38428 4.63691,-18.65761 2.56879,6.77231 6.02993,13.31948 10.29744,19.50506 l 9.835,40.9213 c -2.66121,7.85109 -6.22864,15.63889 -10.73798,23.20612 -5.31799,-5.57747 -10.01434,-11.47752 -14.03137,-17.60862 -0.57189,-0.87675 -1.12921,-1.75774 -1.67205,-2.64265 z m 1.85162,-62.00995 c -0.50873,0.18743 -0.93165,0.29274 -0.85968,0.14648 0.024,0.0487 -0.007,0.0696 -0.0778,0.0687 m 53.07913,159.23445 c -16.85172,5.48961 -34.65517,8.39226 -53.00128,8.53852 -6.11544,-0.0488 -12.17059,-0.40378 -18.15029,-1.0588 m 13.75464,-116.72596 c 1.88566,-4.61034 3.35979,-9.32614 4.39565,-14.10497 1.3382,-6.11588 2.01004,-12.31473 2.03945,-18.49106 2.48374,10.68933 7.17369,20.96628 13.74778,30.31976 l 19.52338,62.38957 c -3.99063,12.65981 -10.17334,25.24619 -18.68178,37.17002 -6.16662,-5.48047 -11.72879,-11.32501 -16.62883,-17.44209 -3.79297,-4.77789 -7.14512,-9.70579 -10.06756,-14.73475 z m -22.98285,19.3029 c 2.21743,-2.18965 4.31649,-4.45766 6.29154,-6.79506 0.2348,3.0524 0.6097,6.11999 1.12704,9.19241 l -4.4204,16.40384 c -2.26026,2.32383 -4.64485,4.57436 -7.14812,6.74262 -0.76303,-3.22155 -1.38063,-6.44079 -1.85515,-9.6474 z m -0.0442,-13.62301 c 5.41123,-5.22898 10.12304,-10.96195 14.04943,-17.06245 -0.38507,7.25277 0.0656,14.65711 1.38763,22.05573 l -7.94931,41.32339 c -5.67409,6.05258 -12.13846,11.67825 -19.307122,16.74055 -2.8572,-8.29098 -4.797559,-16.62622 -5.856765,-24.84843 z m 27.34488,-55.6681 c -0.28334,-0.004 -1.20406,-0.35383 -1.79247,-0.64932 M 118.99491,275.45677 C 95.076334,272.8367 72.364901,265.41675 51.830294,253.59857 M 111.2852,152.17674 c 8.27997,-7.89703 14.9337,-17.06095 19.63913,-26.98067 -1.99018,10.81761 -2.0189,22.13134 0.0475,33.35208 l -7.90184,64.86763 c -8.9139,9.88333 -19.79436,18.78846 -32.319304,26.20432 -5.829334,-13.32148 -9.393402,-26.8803 -10.825857,-40.08734 z m -28.778195,8.48616 c 2.906514,-1.10817 5.730831,-2.34286 8.467294,-3.69511 -1.027456,2.87872 -1.923295,5.83225 -2.685171,8.85023 l -10.62535,13.25063 c -3.00471,1.21942 -6.097594,2.31738 -9.272998,3.28492 0.588517,-3.26342 1.313984,-6.46492 2.174055,-9.59414 z m 5.55809,-12.39644 c 3.855809,-1.41524 7.574503,-3.07138 11.130353,-4.96258 2.931162,-1.55203 5.754642,-3.25288 8.462462,-5.08987 -3.3489,6.42793 -5.91412,13.37341 -7.659977,20.67913 l -23.812364,34.6949 c -7.619824,3.27442 -15.807953,5.82634 -24.478398,7.51932 0.296634,-3.98239 0.770808,-7.89874 1.419203,-11.7344 0.79943,-4.64656 1.860997,-9.15501 3.162379,-13.5113 z m 47.209785,-40.17318 c -0.36776,-0.18467 -0.60572,-0.34793 -0.47713,-0.3917 -0.0263,0.0771 -0.0955,0.0223 -0.18665,-0.11327 M 51.830294,253.59857 C 38.996234,246.21225 27.012488,237.10788 16.115789,226.38354 9.6810878,219.84542 3.8295973,212.91596 -1.4175011,205.64628 m 95.9808891,-67.828 c 7.618132,-2.70573 14.721412,-6.38252 21.100562,-10.9829 2.60284,-1.87007 5.09341,-3.87786 7.4637,-6.01067 -6.35761,8.96853 -10.87928,19.31582 -13.43136,30.45274 l -33.242762,56.27809 c -12.081531,5.50847 -25.594252,9.32586 -40.216103,10.94112 -0.04089,-4.27821 0.100367,-8.50149 0.420448,-12.6552 0.83569,-10.14171 2.797107,-19.75197 5.702687,-28.71638 z m -29.754374,-4.19309 c 3.111507,0.17859 6.202183,0.21702 9.261686,0.11763 -2.107983,2.22038 -4.133657,4.55507 -6.068049,6.99842 l -15.142697,7.70771 c -3.239534,-0.12092 -6.507707,-0.38265 -9.794177,-0.78753 1.881018,-2.72465 3.857222,-5.34032 5.919641,-7.84135 z m 10.081135,-9.15813 c 7.506705,0.51002 14.920964,0.16258 22.085486,-1.00662 -5.637944,4.57803 -10.829064,9.88192 -15.436904,15.82569 l -36.023964,21.7629 c -8.29254,-0.15599 -16.796279,-1.17917 -25.353924,-3.10523 4.24482,-7.67329 9.132295,-14.70182 14.52597,-20.99962 z M 134.6111,107.58831 c -0.24296,-0.36167 -0.64117,-1.29805 -0.79298,-1.83947 M -1.4175011,205.64628 C -15.409636,186.26065 -25.103949,164.45579 -30.098789,141.20137 M 85.020035,117.44352 c 11.404815,0.84444 22.665865,-0.37255 33.194015,-3.51734 -9.35377,5.78053 -17.76052,13.36575 -24.709141,22.4336 l -53.505847,37.51766 c -13.300044,0.009 -27.18863,-2.07921 -41.07664,-6.39938 5.9939289,-13.24549 13.668359,-24.99009 22.512214,-34.91175 z M 59.481009,101.77973 c 2.556417,1.31707 5.148877,2.51002 7.77031,3.5744 0.215972,0.088 0.432114,0.17513 0.648423,0.26141 -2.833337,1.15269 -5.63252,2.45586 -8.388577,3.90386 l -16.962327,0.95038 c -2.916632,-1.42266 -5.802279,-2.9946 -8.646597,-4.71818 0.21547,-0.13334 0.431214,-0.26583 0.647228,-0.39747 2.620922,-1.59242 5.277355,-3.05549 7.961151,-4.39107 z M 72.42124,97.619487 c 6.425421,3.417663 13.116011,6.021973 19.947549,7.734643 0.215439,0.0545 0.430994,0.1081 0.646659,0.1609 -7.040477,1.76941 -13.929713,4.48668 -20.531254,8.06581 l -41.715697,5.51183 C 23.23397,115.61028 15.854219,111.20866 8.7865346,105.85211 9.0013612,105.68529 9.2165176,105.5193 9.4319995,105.35413 16.262209,100.16008 23.387266,95.862851 30.663976,92.429968 Z m 61.39688,8.129353 c -0.0759,-0.27071 -0.0902,-0.44268 0.007,-0.39471 -0.0975,0.048 -0.0832,-0.12399 -0.007,-0.39471 m -163.916909,36.24195 c -2.497396,-11.6271 -3.819946,-23.61659 -3.917444,-35.84724 0.0975,-12.230894 1.420105,-24.2206 3.917595,-35.847906 M 84.545451,95.440098 c 9.828057,5.353842 20.359579,8.759612 31.113319,9.914032 0.21494,0.0234 0.42995,0.0459 0.64502,0.0677 -10.96376,1.1835 -21.693357,4.70705 -31.677706,10.24859 l -64.049337,12.98609 c -12.1833154,-5.30239 -24.0725394,-12.82824 -35.078555,-22.7112 0.214231,-0.19786 0.428842,-0.39493 0.64383,-0.59118 C -3.1063253,95.661121 8.498067,88.232252 20.400464,82.941669 Z M 67.734604,70.498901 c 1.952563,2.428941 3.99553,4.74856 6.119928,6.953202 -3.060268,-0.07656 -6.150621,-0.01514 -9.260717,0.186602 L 48.724581,71.561964 c -2.081009,-2.485608 -4.076683,-5.086513 -5.978048,-7.797061 3.283301,-0.429348 6.549394,-0.715386 9.787936,-0.86046 z m 13.547522,1.352671 c 4.652095,5.909915 9.882076,11.175902 15.553488,15.711972 -7.173615,-1.115611 -14.59029,-1.408509 -22.092733,-0.84301 L 34.448071,74.545055 C 29.007573,68.287318 24.067881,61.294791 19.765451,53.653463 28.308048,51.663814 36.803416,50.577994 45.094263,50.360317 Z m 52.535994,33.107848 c 0.15181,-0.54143 0.55002,-1.47781 0.79298,-1.83947 M -30.098638,69.506224 C -25.103706,46.25183 -15.409306,24.447004 -1.4170947,5.0614258 M 93.271646,74.684755 C 100.2879,83.702687 108.74925,91.228222 118.14464,96.939297 107.59199,93.873441 96.322566,92.737662 84.925472,93.665614 L 21.229114,79.024143 C 12.311441,69.167355 4.5501851,57.477857 -1.543577,44.277709 12.310698,39.854493 26.181652,37.665163 39.480169,37.576067 Z M 87.828384,45.262886 c 0.785634,3.011909 1.705076,5.95827 2.75598,8.82874 -2.663638,-1.290828 -5.409289,-2.470266 -8.231794,-3.530126 -0.08789,-0.03307 -0.175846,-0.06603 -0.263877,-0.09886 L 70.049222,38.461183 c -0.02678,-0.09426 -0.05343,-0.188591 -0.07996,-0.282995 -0.850286,-3.032839 -1.574044,-6.134383 -2.169132,-9.295197 3.183779,0.942333 6.285699,2.01597 9.300105,3.211938 z m 11.759712,6.835417 c 1.802864,7.291436 4.424144,14.215947 7.828164,20.616241 -2.35032,-1.569276 -4.78636,-3.036108 -7.30296,-4.392312 C 96.180494,66.19331 92.04495,64.354956 87.742115,62.815213 L 55.751963,35.470979 C 54.265646,30.636583 53.07425,25.612282 52.208526,20.417456 51.664147,17.088274 51.250003,13.699335 50.968235,10.260073 c 8.688214,1.62333 16.898163,4.111001 24.543857,7.326559 z M 134.6111,103.11995 c 0.0911,-0.13562 0.16039,-0.19042 0.18665,-0.11327 -0.12858,-0.0438 0.10938,-0.20703 0.47715,-0.39171 M -1.4170947,5.0614258 C 3.8299001,-2.2080491 9.6812554,-9.1373283 16.115791,-15.675279 27.012657,-26.399782 38.996603,-35.504256 51.830884,-42.890637 M 109.34138,59.64131 c 2.63795,11.115843 7.24321,21.425944 13.68211,30.341188 -2.05979,-1.827463 -4.20874,-3.56078 -6.44169,-5.191766 C 109.89059,79.885638 102.38775,76.00886 94.31974,73.216316 L 41.81597,34.312144 C 38.673701,24.871901 36.57711,14.705922 35.740025,3.9489552 35.479296,0.34499136 35.35224,-3.3104326 35.360996,-7.0078813 c 14.645153,1.4967266 28.190945,5.2086035 40.315313,10.624555 z m 7.26992,-29.206884 c -0.4944,3.076329 -0.84652,6.146734 -1.05869,9.200871 -1.99269,-2.322609 -4.10874,-4.574949 -6.34249,-6.748045 l -6.12345,-15.851315 c 0.45057,-3.21009 1.04407,-6.433914 1.78284,-9.6611267 2.51928,2.1495341 4.92055,4.3822167 7.19813,6.6890737 z m 8.05901,10.966331 c -1.26708,7.409058 -1.66369,14.817163 -1.22554,22.067025 -3.97308,-6.071047 -8.72752,-11.769166 -14.17734,-16.957903 L 91.306977,8.4344095 c 0.998024,-8.23008752 2.876252,-16.5798792 5.670369,-24.8920835 7.205354,5.008705 13.710464,10.5861681 19.429334,16.59593509 z m 10.60459,61.214213 c 0.58842,-0.29548 1.50913,-0.6458 1.79246,-0.64931 M 51.830884,-42.890637 c 20.53465,-11.818096 43.246115,-19.23796 67.164716,-21.857939 m 11.5733,116.959113 c -1.98366,11.238058 -1.87451,22.553006 0.19382,33.355729 -4.78224,-9.884348 -11.503,-18.999876 -19.84023,-26.835509 L 79.133448,1.6128749 c 1.334777,-13.2181689 4.798878,-26.8042189 10.525955,-40.1690329 12.577627,7.322256 23.520537,16.146794 32.506657,25.962538 z m 18.22365,-23.700392 c -1.71594,2.597238 -3.29544,5.248763 -4.73283,7.945602 -0.84909,-2.934123 -1.84251,-5.853614 -2.98262,-8.748129 l 0.89761,-16.965619 c 1.73108,-2.7428858 3.60458,-5.4365532 5.61484,-8.072029 1.42196,2.9954865 2.69425,6.0184829 3.81922,9.058646 z m 2.80065,13.319368 c -4.21946,6.217795 -7.6285,12.79179 -10.14114,19.585529 -0.85859,-5.823912 -2.2878,-11.627019 -4.30686,-17.324568 -0.46216,-1.310808 -0.95669,-2.615081 -1.48306,-3.911936 l -1.01509,-42.0910375 c 0.80029,-1.3286577 1.63294,-2.6487715 2.49815,-3.9593248 3.77992,-5.6986637 8.14604,-11.1956727 13.05201,-16.4174997 4.57142,7.533638 8.19997,15.2945265 10.92134,23.12537363 z m -14.52584,60.136147 c 0.0708,-8.7e-4 0.10183,0.0199 0.0778,0.0687 -0.072,-0.14625 0.35097,-0.0409 0.8597,0.1465 M 118.9956,-64.748576 c 5.97947,-0.654976 12.03439,-1.009976 18.1496,-1.058726 18.34634,0.14625 36.15001,3.048973 53.00192,8.538715 m -37.61038,111.39941 c -6.50215,9.402412 -11.11037,19.71528 -13.50262,30.427529 -0.0675,-5.73917 -0.69069,-11.493388 -1.88892,-17.177902 -1.08853,-5.214194 -2.69938,-10.35503 -4.79781,-15.367384 l -6.17925,-65.058325 c 3.14329,-5.509998 6.7975,-10.90336 10.97706,-16.116542 4.60075,-5.685628 9.77285,-11.133748 15.46995,-16.270834 8.60913,11.861297 14.89023,24.401246 18.97696,37.0307309 z M 179.09661,39.95347 c -2.6143,1.693287 -5.12831,3.489017 -7.53639,5.378218 0.39073,-3.03394 0.64559,-6.112871 0.76225,-9.226451 l 7.66303,-15.165492 c 2.6848,-1.815999 5.47586,-3.534624 8.36752,-5.1469 0.0929,3.310863 0.0445,6.589612 -0.14264,9.825904 z m -2.76201,13.320493 c -6.34379,4.020232 -12.09914,8.692247 -17.18008,13.87959 1.8531,-7.009752 2.8965,-14.35406 3.09451,-21.87563 L 178.47709,6.4307356 c 6.77658,-4.7734407 14.23245,-8.9721778 22.28163,-12.4597559 1.11515,8.7095167 1.33948,17.2803103 0.70868,25.5550883 z m -38.3297,48.906877 c 0.67831,0.24991 1.50914,0.6458 1.52281,0.78603 m 50.61941,-160.235457 c 22.469,7.319585 43.24601,19.238225 61.36135,35.354269 M 172.21943,64.87852 c -9.65524,6.050093 -17.95193,13.723515 -24.568,22.509186 4.15233,-10.156141 6.40596,-21.249725 6.62723,-32.691634 l 21.11153,-61.874328 c 10.69903,-7.866635 23.09692,-14.398634 36.87162,-19.084918 3.00631,14.255529 3.81011,28.3070776 2.54505,41.565529 z m 29.81015,-2.277658 c -3.0793,0.461413 -6.10795,1.058754 -9.07562,1.789677 1.61217,-2.59726 3.11795,-5.290754 4.50837,-8.074829 l 13.21808,-10.666 c 3.19586,-0.546775 6.45016,-0.956982 9.75258,-1.228272 -1.27742,3.056893 -2.67411,6.022885 -4.18109,8.892323 z m -8.0157,11.008453 c -7.44789,1.024946 -14.62036,2.881317 -21.3601,5.533429 4.60682,-5.593473 8.61903,-11.801823 11.90017,-18.539061 l 30.66394,-28.846936 c 8.16334,-1.548904 16.72086,-2.256637 25.51528,-2.087513 -2.55215,8.414708 -5.89475,16.295656 -9.89133,23.556853 z m -54.48617,29.357555 c 0.002,0.0175 -0.009,0.0311 -0.0351,0.0398 0.0613,-0.18002 0.35676,0.35839 0.61734,0.96562 M 251.50847,-21.914318 c 2.26426,2.014365 4.48694,4.094306 6.66614,6.239038 15.01431,15.25561333 26.85336,32.641905 35.24807,51.509246 M 185.51737,82.560187 c -11.34371,1.466343 -22.10234,4.931368 -31.68677,10.261422 6.39628,-5.949482 11.96687,-12.872597 16.45409,-20.606973 1.16315,-1.995833 2.24799,-4.047952 3.25341,-6.151348 l 44.29602,-48.078686 c 2.66583,-0.573258 5.38013,-1.061224 8.14016,-1.459554 10.71683,-1.507173 22.00985,-1.707861 33.58207,-0.53468 -3.0812,14.279236 -8.19932,27.32527 -14.8433,38.816039 z m 28.3192,10.206572 c -3.00696,-0.807398 -6.02291,-1.470388 -9.03749,-1.991318 2.51505,-1.738844 4.97186,-3.610089 7.36147,-5.608078 l 16.3908,-4.469127 c 3.14645,0.777407 6.29174,1.699862 9.42551,2.769713 -2.39586,2.287765 -4.86283,4.448465 -7.39194,6.476445 z m -11.75316,6.843953 c -7.22671,-2.017191 -14.54396,-3.150913 -21.79446,-3.436849 6.44917,-3.303326 12.59931,-7.44351 18.31397,-12.334565 l 39.70793,-13.984425 c 8.08293,1.833107 16.19408,4.55943 24.17614,8.214654 -5.71761,6.672613 -11.93009,12.589484 -18.50097,17.664622 z m -61.97342,4.361588 c 0.2978,0.69396 0.55002,1.4778 0.355,1.38183 M 293.42268,35.833966 c 9.59385,21.562462 14.68906,45.059318 14.88397,69.520894 m -117.62171,-1.07802 c -10.93976,-3.1121 -22.17707,-4.09999 -33.12282,-3.09733 10.32954,-3.683286 20.06848,-9.438944 28.70574,-16.944915 l 60.07915,-25.790857 c 13.00475,2.668128 26.15673,7.496959 38.86681,14.620145 -8.56521,11.809124 -18.45448,21.849684 -29.15673,29.799617 z"
       sodipodi:nodetypes="sssssssss"
       inkscape:path-effect="#path-effect33"
       inkscape:original-d="m 224.38582,105.35413 c 0,24.09083 -9.76474,45.90099 -25.55218,61.68844 -15.78745,15.78744 -37.59761,25.55218 -61.68844,25.55218 -24.09083,0 -45.900985,-9.76474 -61.688431,-25.55219 -15.787445,-15.78744 -25.552183,-37.5976 -25.552182,-61.68843 10e-7,-24.09083 9.76474,-45.900982 25.552185,-61.688428 15.787446,-15.787445 37.597598,-25.552183 61.688428,-25.552184 24.09083,-10e-7 45.90099,9.764737 61.68843,25.552182 15.78745,15.787446 25.55219,37.597599 25.55219,61.68843 z"
       transform="translate(5.7506161,27.184731)" /></g></svg>
