<?xml version="1.0" encoding="UTF-8" standalone="no"?>
<!-- Created with Inkscape (http://www.inkscape.org/) -->

<svg
   width="1280.0006"
   height="778.50391"
   viewBox="0 0 1280.0005 778.50395"
   version="1.1"
   id="svg5"
   inkscape:version="1.4.2 (f4327f4, 2025-05-13)"
   xml:space="preserve"
   sodipodi:docname="12.svg"
   xmlns:inkscape="http://www.inkscape.org/namespaces/inkscape"
   xmlns:sodipodi="http://sodipodi.sourceforge.net/DTD/sodipodi-0.dtd"
   xmlns="http://www.w3.org/2000/svg"
   xmlns:svg="http://www.w3.org/2000/svg"><sodipodi:namedview
     id="namedview7"
     pagecolor="#ffffff"
     bordercolor="#666666"
     borderopacity="1.0"
     inkscape:showpageshadow="2"
     inkscape:pageopacity="0.0"
     inkscape:pagecheckerboard="0"
     inkscape:deskcolor="#d1d1d1"
     inkscape:document-units="px"
     showgrid="false"
     showborder="false"
     inkscape:zoom="0.47022002"
     inkscape:cx="1081.4087"
     inkscape:cy="462.54943"
     inkscape:window-width="1920"
     inkscape:window-height="991"
     inkscape:window-x="-9"
     inkscape:window-y="-9"
     inkscape:window-maximized="1"
     inkscape:current-layer="layer1" /><defs
     id="defs2"><clipPath
       clipPathUnits="userSpaceOnUse"
       id="clipPath8006"><path
         inkscape:connector-curvature="0"
         id="path8008"
         d="m -1244.8456,-140.77945 h 33.9355 c 11.5456,0 20.8405,9.29479 20.8405,20.84039 v 31.873282 c 0,11.545575 -9.2949,20.840392 -20.8405,20.840392 h -33.9355 c -11.5456,0 -20.8405,-9.294817 -20.8405,-20.840392 v -31.873282 c 0,-11.5456 9.2949,-20.84039 20.8405,-20.84039 z"
         style="opacity:0.521;fill:#ff0000;fill-opacity:1;stroke:none;stroke-width:1.61448;stroke-linecap:round;stroke-linejoin:round;stroke-miterlimit:4;stroke-dasharray:none" /></clipPath><clipPath
       clipPathUnits="userSpaceOnUse"
       id="clipPath8001"><path
         style="opacity:0.521;fill:#ff0000;fill-opacity:1;stroke:none;stroke-width:1.59706;stroke-linecap:round;stroke-linejoin:round;stroke-miterlimit:4;stroke-dasharray:none"
         d="m -2936.6731,-1508.8075 h 33.5693 c 11.421,0 20.6155,9.1945 20.6155,20.6155 v 31.5293 c 0,11.421 -9.1945,20.6155 -20.6155,20.6155 h -33.5693 c -11.421,0 -20.6156,-9.1945 -20.6156,-20.6155 v -31.5293 c 0,-11.421 9.1946,-20.6155 20.6156,-20.6155 z"
         id="path8003"
         inkscape:connector-curvature="0" /></clipPath></defs><g
     inkscape:label="Layer 1"
     inkscape:groupmode="layer"
     id="layer1"
     transform="translate(1514.5405,196.68691)"><path
       style="fill:#000000;stroke-width:0.999999"
       d="m -1314.0459,581.48554 c -2.2491,-0.34987 -8.325,-1.51742 -13.502,-2.59452 -5.7347,-1.19322 -12.7266,-1.95843 -17.8937,-1.95843 -4.6646,0 -8.7002,-0.35433 -8.9677,-0.78738 -0.7215,-1.16737 2.1151,-3.38541 6.7404,-5.27034 6.2707,-2.55551 24.443,-2.39421 29.7609,0.26406 2.1242,1.06187 3.8621,1.5798 3.8621,1.15094 0,-0.42877 -1.5026,-3.81632 -3.3391,-7.52773 -3.242,-6.55195 -3.2944,-6.81634 -1.8012,-9.0953 0.8459,-1.29093 3.4731,-3.37643 5.8381,-4.6345 2.365,-1.25808 7.4948,-4.53405 11.3993,-7.27994 5.1558,-3.62594 7.6473,-4.85509 9.1013,-4.49024 1.437,0.36075 2.7191,-0.24574 4.5421,-2.14855 l 2.5399,-2.65109 -3.2356,-9.29527 c -1.7794,-5.11247 -3.2354,-9.94497 -3.2354,-10.7391 0,-0.79414 -0.8792,-2.37967 -1.9537,-3.52352 -1.6751,-1.78293 -1.9538,-3.15498 -1.9538,-9.61742 v -7.53775 l 6.5315,-10.88756 c 11.4097,-19.01879 24.3822,-35.77394 31.9323,-41.24314 l 3.3617,-2.4352 -1.6424,-4.05094 c -3.2688,-8.06252 -1.6443,-14.50126 3.6588,-14.50126 1.7262,0 1.9782,-0.34706 1.4854,-2.04468 -1.4899,-5.13138 -1.5655,-11.27304 -0.1874,-15.22113 1.0888,-3.1193 1.1639,-4.17775 0.3167,-4.46251 -0.6109,-0.20536 -2.4397,-1.69789 -4.0641,-3.31688 -7.0076,-6.98447 -0.9248,-17.94588 8.7525,-15.77251 3.7435,0.84077 7.3769,4.52053 7.3786,7.47272 0,1.87979 0.404,1.99471 7.0426,2.0084 5.6327,0.012 8.0414,0.48088 12.0396,2.34519 5.3122,2.47704 11.8134,7.96044 11.8134,9.96396 0,2.24165 -9.5033,10.38923 -16.2219,13.90752 -3.6741,1.92386 -9.8079,4.69448 -13.6309,6.15655 -5.2336,2.00181 -6.0594,2.5194 -3.3429,2.09525 5.5598,-0.86781 11.2141,-2.9593 18.4675,-6.83081 9.0468,-4.8289 12.705,-7.78357 14.8551,-11.9982 l 1.8248,-3.57682 2.2931,2.14 c 2.551,2.38061 5.7512,8.11334 5.7512,10.30255 0,2.5063 -7.4893,9.64223 -13.0837,12.46625 -2.9843,1.50647 -6.5761,3.88905 -7.9816,5.29464 -1.4057,1.40567 -3.7839,2.82546 -5.2848,3.15515 -1.5011,0.32968 -2.7292,0.81878 -2.7292,1.08703 0,1.12921 6.4968,9.22159 7.807,9.72438 2.4953,0.95748 4.5901,0.59699 6.0529,-1.04194 1.3565,-1.51965 3.2655,-7.32948 3.7657,-11.46008 0.1295,-1.06906 0.4713,-2.55705 0.7594,-3.30669 0.2881,-0.74973 0.7547,-2.07874 1.0369,-2.95339 0.5132,-1.59092 3.2964,-2.27827 3.2964,-0.81433 0,0.42689 1.0223,1.8792 2.2717,3.22737 1.2496,1.34826 2.2719,2.86603 2.2719,3.37309 0,1.73836 -1.8816,4.43702 -3.0937,4.43702 -0.6911,0 -1.4439,1.42817 -1.7514,3.32243 -0.5405,3.33099 -4.5389,8.49103 -6.5795,8.49103 -0.5986,0 -1.7311,1.96477 -2.5165,4.36608 -0.7854,2.40132 -1.6741,5.00706 -1.9747,5.79058 -0.3801,0.99051 0.8687,2.4637 4.0982,4.83447 4.2416,3.11348 4.9763,3.3511 8.4584,2.73477 2.0975,-0.37136 5.6537,-0.80286 7.9028,-0.95919 2.2491,-0.15625 5.1776,-0.55755 6.5078,-0.89177 2.7517,-0.69137 4.2704,1.25328 5.3445,6.8433 l 0.6111,3.18056 0.7138,-3.94929 c 1.1901,-6.58377 9.7432,-17.87486 15.9021,-20.99254 4.6616,-2.35982 10.2252,-3.0191 12.3405,-1.46223 1.6553,1.21846 1.6612,1.3166 0.1135,1.91642 -1.5274,0.59194 -1.513,0.71498 0.2272,1.93387 4.316,3.02312 0.7685,10.22965 -5.9903,12.16899 l -4.419,1.26792 3.1804,0.46907 c 2.6274,0.38761 3.2295,0.89168 3.4614,2.89888 0.2249,1.94551 -0.4091,2.90231 -3.1805,4.80016 -3.8742,2.65297 -15.0873,6.38757 -16.9884,5.65795 -0.6866,-0.26346 -2.0899,0.68487 -3.1651,2.13915 -1.4436,1.95252 -3.7806,3.19665 -9.251,4.92473 -7.9153,2.50049 -13.633,2.86757 -20.7809,1.33474 -4.1515,-0.89039 -4.912,-1.47746 -8.5337,-6.5883 -2.1868,-3.08593 -6.8657,-10.51792 -10.3974,-16.51557 -6.569,-11.15556 -9.1849,-14.27742 -14.7673,-17.62416 -5.2383,-3.14035 -4.8382,-2.24405 2.0867,4.67472 5.2084,5.20385 7.6195,8.59346 11.4736,16.13001 9.2138,18.01673 10.6702,19.78614 20.2696,24.62831 7.7149,3.89145 8.7486,4.21044 7.0629,2.17919 -1.746,-2.10363 -0.048,-1.61565 3.3219,0.955 1.6715,1.27485 3.0391,2.95604 3.0391,3.73597 0,1.13204 0.6501,1.29607 3.2235,0.81322 7.7806,-1.45958 17.6131,2.70217 15.3126,6.48135 -0.5508,0.90486 -1.8933,1.77772 -2.9831,1.93969 -1.8013,0.2674 -1.5652,0.75007 2.5917,5.29832 5.0952,5.57496 5.8754,9.00811 2.7561,12.1275 -2.359,2.35905 -9.0977,2.40406 -14.0853,0.0941 -1.9992,-0.92591 -6.1528,-3.98394 -9.2302,-6.79555 -3.0774,-2.81152 -5.8755,-5.11204 -6.2178,-5.11204 -0.3423,0 -1.6622,0.81784 -2.933,1.8175 -1.2708,0.99958 -2.6541,1.81742 -3.0738,1.81742 -0.4199,0 -6.5149,-4.32681 -13.5443,-9.61511 -13.2751,-9.98699 -21.6134,-18.58558 -27.9214,-28.79246 -1.7806,-2.88143 -3.4216,-5.05489 -3.6465,-4.83002 -0.7759,0.77591 7.2975,15.53464 11.2555,20.57592 2.1826,2.78003 3.9684,5.3275 3.9684,5.66112 0,0.77668 -6.0676,3.87219 -13.1217,6.69432 -3.2849,1.31429 -4.3921,2.02919 -2.7437,1.77181 1.5201,-0.23736 6.3035,-0.92676 10.63,-1.53197 l 7.8664,-1.10037 3.001,2.48423 c 1.6505,1.36631 5.2167,3.7767 7.9248,5.35625 7.5851,4.42409 8.7144,6.4941 8.6683,15.88956 -0.028,5.63109 -0.482,8.71394 -1.5904,10.7913 -1.087,2.03758 -1.5514,5.06045 -1.5514,10.09642 0,6.07945 -0.3349,7.6815 -2.1708,10.38692 l -2.1707,3.19862 7.4699,0.39206 c 7.9729,0.41842 12.5048,2.47405 13.6905,6.21003 0.4563,1.43767 1.4143,1.80475 4.8245,1.84924 5.0724,0.0659 13.9534,2.68557 14.482,4.27136 0.4877,1.46361 -20.4253,1.5573 -29.9912,0.1346 -4.6775,-0.69565 -9.9,-0.71704 -17.5302,-0.071 -6.5345,0.55267 -12.4985,0.59956 -14.9571,0.11731 -2.2491,-0.44118 -8.7028,-1.08523 -14.3416,-1.4316 -11.137,-0.68401 -12.0877,-1.38086 -6.0553,-4.43864 2.7494,-1.3937 5.3863,-1.81742 11.3096,-1.81742 h 7.7241 l -0.1689,-8.17855 c -0.2064,-9.99485 0.7877,-15.56313 3.9221,-21.9697 1.318,-2.69395 2.1795,-5.11478 1.9146,-5.37969 -0.4485,-0.44845 -7.5906,-2.62122 -12.256,-3.72845 -1.9362,-0.45931 -2.0494,-0.20202 -2.1352,4.84594 -0.05,2.93217 -0.3737,6.34804 -0.7198,7.5908 -0.8199,2.94551 -11.2234,11.37297 -16.4555,13.33012 -4.5936,1.71833 -7.4595,3.81444 -6.7609,4.94502 0.2564,0.41465 -0.4142,1.6343 -1.49,2.71012 -1.5509,1.55097 -2.684,1.85849 -5.4701,1.48483 -3.0596,-0.41046 -3.41,-0.27724 -2.7102,1.03029 0.4422,0.82605 2.2754,2.8407 4.0739,4.47723 4.5429,4.13351 4.4611,7.08425 -0.2314,8.3478 -6.5917,1.77489 -19.908,2.7447 -25.5778,1.86268 z m 322.14393,-6.03273 c -20.21693,-2.47251 -23.81453,-3.92071 -21.31983,-8.58207 1.4626,-2.73298 4.544,-4.31423 9.7336,-4.99491 2.6239,-0.34423 4.77077,-0.82074 4.77077,-1.05913 0,-0.2383 -1.06609,-1.70019 -2.36907,-3.24876 -2.006,-2.38395 -2.2986,-3.44103 -1.9092,-6.89583 0.3787,-3.35975 -0.014,-4.92038 -2.225,-8.83767 -3.0204,-5.35171 -3.7657,-13.47002 -1.6956,-18.46792 1.259,-3.03938 2.8581,-3.654 14.33279,-5.50907 3.62356,-0.58587 6.58558,-1.33491 6.58229,-1.66468 -0.003,-0.3296 -0.81845,-1.82614 -1.81147,-3.32551 -2.92126,-4.41101 -2.37733,-7.7129 2.04463,-12.41175 2.12416,-2.25705 4.88442,-5.27633 6.13392,-6.7093 2.00266,-2.29676 2.03855,-2.44889 0.30287,-1.28374 -1.08292,0.72679 -4.59801,3.66743 -7.8113,6.53466 -10.13479,9.04336 -21.04333,11.62976 -37.47363,8.88481 -2.9988,-0.50091 -5.4523,-0.91333 -5.4523,-0.91633 0,0 0.1454,3.50153 0.3232,7.78794 0.3862,9.30948 -2.138,21.57217 -6.2151,30.19318 l -2.6639,5.63271 h 2.0881 c 2.7738,0 12.0311,4.69277 16.0093,8.1154 2.6562,2.28529 2.9558,2.8881 1.8175,3.65665 -1.566,1.057 -5.0684,0.59708 -14.1433,-1.85737 -9.1015,-2.46165 -19.1317,-2.28102 -29.6373,0.53341 -8.7518,2.34468 -13.4693,2.86184 -13.4693,1.47661 0,-1.45581 2.4714,-2.88579 12.8677,-7.44491 5.6656,-2.48457 11.1995,-5.42906 12.2974,-6.54321 3.5461,-3.59881 8.4651,-12.74948 10.7619,-20.02009 2.7543,-8.71889 3.264,-22.12303 0.8054,-21.17941 -0.9078,0.34825 -2.4922,-0.52734 -4.3165,-2.38583 -1.7607,-1.79355 -4.5761,-3.38079 -7.2355,-4.07875 -7.4981,-1.96836 -14.1791,-5.60841 -15.7031,-8.55555 -1.2804,-2.47602 -1.26,-2.98865 0.2414,-6.04925 0.9022,-1.83924 3.0717,-4.31021 4.821,-5.49127 2.7475,-1.85489 3.9243,-2.08053 8.6441,-1.65664 3.0049,0.26996 6.2687,0.79978 7.2528,1.1773 2.9458,1.13041 -7.7901,-10.48771 -11.9916,-12.97699 l -3.8189,-2.26253 -8.4489,4.15995 c -9.5807,4.71716 -15.5766,5.84731 -26.1692,4.93261 -9.2994,-0.80295 -15.1161,-3.04323 -23.7723,-9.15597 -1.2471,-0.88064 -2.3794,-0.40772 -6.5342,2.72929 -11.7973,8.90706 -20.6392,28.06875 -20.5626,44.56275 0.029,6.24151 3.0914,19.02385 6.2007,25.88126 4.8379,10.66971 6.3644,12.04518 21.4959,19.37098 l 13.6308,6.59926 -5.1065,0.0462 c -2.8086,0.0248 -10.1692,-1.00634 -16.357,-2.29316 -11.6982,-2.43264 -17.2104,-2.44026 -24.1631,-0.0342 l -3.2097,1.11133 2.3815,1.56038 c 1.3099,0.85831 2.3816,2.22317 2.3816,3.0333 0,1.30454 -0.8565,1.37992 -7.497,0.66057 -4.1234,-0.44674 -13.5287,-0.79525 -20.9008,-0.77437 -7.372,0.0205 -13.4037,-0.27655 -13.4037,-0.66065 0,-2.42246 12.5418,-6.14431 20.8149,-6.17683 2.8697,-0.012 4.8602,-0.66921 7.0278,-2.32251 4.4585,-3.40081 12.1757,-6.76158 15.5491,-6.77168 1.6243,-0.009 2.9533,-0.15581 2.9533,-0.33533 0,-0.17951 -1.3949,-3.3487 -3.0997,-7.04266 -5.0208,-10.87849 -6.3407,-17.0744 -6.3668,-29.88873 -0.026,-12.96553 1.1222,-17.90567 6.7801,-29.15843 5.5599,-11.05809 13.2346,-19.25538 23.4049,-24.99855 0.1497,-0.0847 -0.7432,-1.6498 -1.9841,-3.47834 -3.8024,-5.60319 -5.5401,-12.03817 -5.5401,-20.51534 10e-5,-9.33163 1.6426,-13.42741 8.4944,-21.18078 2.5655,-2.90291 4.6645,-5.88128 4.6645,-6.61843 0,-2.51238 4.376,-9.98442 8.5969,-14.67898 2.424,-2.69627 6.3177,-5.71469 9.1747,-7.1124 4.5151,-2.20906 5.6806,-2.39105 12.9063,-2.01534 15.102,0.78541 24.8393,8.48651 26.2975,20.7984 0.3599,3.03946 1.3879,5.60584 3.1171,7.78161 1.419,1.78567 3.7112,5.54996 5.0938,8.36542 2.2844,4.65161 2.5138,6.03333 2.5138,15.13642 0,9.6353 -0.1213,10.25942 -3.1805,16.3571 -1.7493,3.4868 -3.3178,6.64889 -3.4854,7.02692 -0.463,1.04407 9.0431,5.20043 11.917,5.21052 2.9796,0.0103 11.9371,4.36232 15.2517,7.40992 4.8638,4.47192 4.7413,4.43162 9.2958,3.06086 2.3397,-0.70412 6.5316,-1.37239 9.3154,-1.48508 4.4522,-0.18012 5.548,-0.63285 9.1028,-3.76208 l 4.04123,-3.55714 -1.82053,-2.31447 c -1.0013,-1.27219 -1.8205,-3.48535 -1.8205,-4.91738 0,-2.00412 -0.4216,-2.60359 -1.8308,-2.60359 -2.2455,0 -5.2521,-4.63211 -6.0126,-9.26327 -0.435,-2.64954 -1.1025,-3.54867 -3.1693,-4.26913 -3.2074,-1.11809 -3.6599,-4.92953 -0.7688,-6.47673 1.5309,-0.81938 1.7459,-1.54173 1.2481,-4.19495 -0.3307,-1.76274 -1.6086,-4.21241 -2.8399,-5.44361 -1.3118,-1.3119 -2.0166,-2.817 -1.7025,-3.63569 0.2949,-0.7683 0.5361,-1.92113 0.5361,-2.56176 0,-1.81245 4.3036,-5.67797 8.68,-7.79667 l 3.9701,-1.9218 5.91935,2.82504 c 3.25561,1.5537 7.6678,4.15618 9.80485,5.78305 6.01784,4.58145 7.02879,4.76635 2.43585,0.44562 -3.47242,-3.26664 -13.61372,-10.00983 -16.50235,-10.9727 -1.4801,-0.49328 0.4584,-3.47662 3.17042,-4.87913 4.09053,-2.11519 11.35896,-2.50947 16.55669,-0.89801 2.47567,0.76761 4.55318,1.30838 4.61667,1.20177 0.0635,-0.10662 0.5053,-1.61993 0.98183,-3.36291 1.01276,-3.70423 3.81596,-5.43129 8.84724,-5.45062 5.0223,-0.0188 9.67795,4.68036 9.67795,9.7693 0,3.90565 -2.75981,8.39195 -5.16248,8.39195 -1.10581,0 -1.23365,0.51904 -0.61558,2.49903 0.9805,3.14112 1.02123,19.6098 0.059,23.85412 -0.55719,2.45771 -0.49531,2.81914 0.27234,1.59024 0.54637,-0.87465 1.76776,-1.59024 2.71418,-1.59024 4.11397,0 5.94,8.2648 3.24899,14.70534 -1.28141,3.06685 -1.25471,3.1507 1.77235,5.56605 3.65626,2.91737 7.63971,10.89321 10.75334,21.53092 1.24335,4.24783 4.00779,11.40361 6.14321,15.90189 3.48535,7.3418 3.92115,9.01538 4.25959,16.3571 0.34242,7.42805 0.2013,8.33744 -1.53794,9.90971 -1.73321,1.5668 -1.91496,2.70953 -1.91496,12.04057 0,5.67018 0.20594,10.30956 0.45765,10.30956 0.25172,0 1.9836,-0.81792 3.84865,-1.8175 3.57737,-1.91727 7.95099,-2.39601 8.8342,-0.96698 0.29402,0.47575 2.75935,-0.17224 5.59559,-1.47071 3.86855,-1.77112 5.96402,-2.20135 8.84252,-1.81536 5.65104,0.75786 8.07026,4.03605 10.58166,14.33886 1.14538,4.69867 2.17357,8.6584 2.28488,8.79924 0.11133,0.14076 3.05146,-0.21451 6.53365,-0.7896 4.77191,-0.78806 7.53131,-0.78823 11.20386,-6e-4 5.55974,1.19236 15.42429,5.3909 15.42429,6.56495 0,0.4316 -6.03168,0.80817 -13.40373,0.83692 -10.57934,0.0411 -14.74412,0.43656 -19.76483,1.87509 -12.46433,3.57135 -16.35848,4.03083 -19.07541,2.25064 -2.26757,-1.48585 -2.38906,-1.89665 -1.80865,-6.11667 l 0.62218,-4.52395 -3.49998,1.49526 c -5.14448,2.19776 -16.82694,5.86545 -18.93734,5.9452 -1.30687,0.0488 -1.00458,0.37341 1.05967,1.13588 7.50718,2.77293 2.72067,3.83711 -12.79705,2.84541 -14.72963,-0.94148 -24.92053,-1.041 -31.43821,-0.3071 -2.7489,0.30949 -6.22479,0.41277 -7.72419,0.22932 z m 29.54115,-10.10651 c -0.44368,-1.37445 -1.89981,-8.32624 -3.23584,-15.44839 -1.44794,-7.71872 -2.84654,-12.93644 -3.46249,-12.91719 -0.56834,0.0171 -2.05566,0.61668 -3.30516,1.33089 -1.2495,0.71431 -3.80531,1.31318 -5.67955,1.33098 -3.87713,0.0368 -3.86615,0 -2.09435,6.80334 0.72236,2.77327 1.79172,8.31374 2.37635,12.31214 l 1.06298,7.26976 4.66629,0.0909 c 2.56645,0.0505 5.68859,0.4179 6.9381,0.81809 3.50679,1.12314 3.59331,1.07283 2.73367,-1.59024 z m -69.08468,-72.85397 c 0.01,-0.71037 0.6485,-1.99266 1.4241,-2.84968 1.1988,-1.32465 2.7318,-1.50006 10.2232,-1.16969 4.8471,0.21383 9.4289,0.51186 10.1817,0.6622 0.8548,0.17087 2.5442,-1.73887 4.4989,-5.08543 4.2383,-7.25615 8.21366,-11.73638 14.88018,-16.76996 7.81758,-5.90275 8.09527,-6.28712 2.53125,-3.50503 -6.22112,3.11083 -12.28405,8.78205 -17.42193,16.29609 l -4.0397,5.90815 -11.8135,0.26756 -11.8134,0.26757 -0.2454,4.99798 c -0.1759,3.58324 0.013,4.61217 0.6677,3.63492 0.5021,-0.74964 0.9192,-1.94431 0.9269,-2.65468 z m -46.0296,-29.14251 c 6.252,-2.37351 10.7154,-6.04976 13.8598,-11.4155 3.2523,-5.54946 4.1043,-9.03566 4.0698,-16.65282 -0.035,-7.8243 -2.4226,-14.04528 -7.3998,-19.28327 -4.9344,-5.19274 -21.9178,-9.90655 -35.693,-9.90655 -9.58,0 -16.5412,4.93192 -21.1638,14.99403 -2.1133,4.6001 -2.5036,6.65976 -2.4968,13.17653 0.014,13.0392 5.3986,21.98091 16.6804,27.69782 2.5148,1.27442 6.1077,2.70474 7.9839,3.17868 5.5921,1.4121 18.1836,0.47986 24.1595,-1.78892 z m -20.2384,-7.66584 c -1.4648,-1.76505 -0.8852,-4.513 1.0298,-4.88178 0.8352,-0.16087 1.9419,0.49859 2.4593,1.46548 0.7307,1.36512 0.5705,2.09303 -0.7171,3.25826 -1.4554,1.31712 -1.794,1.33645 -2.772,0.15804 z m -10.6426,-1.00463 c -0.7978,-2.07899 0.8002,-4.51436 2.9622,-4.51436 1.1991,0 1.8053,0.75529 2.0059,2.49903 0.1582,1.37445 -0.1151,2.49895 -0.6071,2.49895 -0.4922,0 -1.5383,0.24694 -2.3246,0.54882 -0.8813,0.33807 -1.6625,-0.0582 -2.0364,-1.03244 z m -8.875,-1.91949 c -0.6374,-1.66109 1.7887,-4.86664 3.6831,-4.86664 1.3673,0 2.6272,3.94235 1.7259,5.40074 -0.9296,1.50399 -4.7725,1.1245 -5.409,-0.5341 z m 28.8738,-0.78892 c -0.6102,-1.59024 1.1628,-4.07772 2.9064,-4.07772 1.372,0 2.6129,3.17551 1.7725,4.53558 -0.8679,1.40405 -4.0852,1.08934 -4.6789,-0.45786 z m -20.3162,-7.14021 c -2.2491,-0.61718 -5.8531,-2.24687 -8.0088,-3.62123 -5.0948,-3.24825 -4.8379,-5.3488 0.752,-6.1485 2.2446,-0.32113 5.9989,-1.6545 8.3428,-2.96306 5.3286,-2.97486 6.4937,-2.9729 8.844,0.0154 2.235,2.84122 2.4412,7.52201 0.4971,11.28168 -1.5665,3.0292 -3.6011,3.30943 -10.4271,1.43605 z m 18.1746,-16.02082 c -2.0293,-2.02928 -2.2728,-3.81239 -0.8768,-6.42078 1.0662,-1.99222 5.3282,-2.39524 7.0561,-0.66732 1.8075,1.80749 1.2959,5.93244 -0.9292,7.49103 -2.5991,1.82041 -3.0624,1.78481 -5.2501,-0.40293 z m -22.5365,-0.18175 c -0.5998,-0.59981 -1.0905,-2.15369 -1.0905,-3.45317 0,-1.29949 0.4907,-2.85337 1.0905,-3.45318 0.5998,-0.59973 2.1537,-1.09045 3.4531,-1.09045 2.8718,0 4.5437,1.51973 4.5437,4.13017 0,3.82881 -5.4158,6.44756 -7.9968,3.86663 z m 120.37017,22.53256 c 7.02205,-3.36531 8.59874,-4.82446 6.04605,-5.59558 -5.54735,-1.6758 -7.6585,-4.17355 -9.39624,-11.11713 -1.12288,-4.48682 -4.95468,-7.44654 -9.64738,-7.45218 -3.0688,0 -4.7991,2.20614 -2.4373,3.11254 1,0.38359 1.2848,1.37504 0.9839,3.42502 -0.3614,2.46207 2.2441,14.01414 4.3147,19.13063 0.922,2.27819 2.83866,1.99386 10.13627,-1.5033 z m -122.75887,83.45103 c -1.9448,-1.94483 -1.7935,-4.56742 0.3895,-6.75046 2.183,-2.18312 4.8057,-2.3344 6.7506,-0.38949 1.6899,1.68992 1.8815,5.93356 0.3375,7.47759 -1.5439,1.54386 -5.7876,1.35228 -7.4776,-0.33764 z m 2.207,-24.01635 c -0.9997,-0.99958 -1.8175,-2.63534 -1.8175,-3.63492 0,-2.03185 3.0086,-5.45242 4.7958,-5.45242 2.1723,0 5.2002,2.82264 5.2002,4.84747 0,2.79646 -2.4737,6.05737 -4.5952,6.05737 -0.9712,0 -2.5837,-0.81792 -3.5833,-1.8175 z m 3.8419,-19.16879 c -2.5119,-0.94833 -3.3186,-2.79894 -2.5518,-5.85407 1.3142,-5.2362 9.6298,-5.02785 9.6007,0.24061 -0.024,4.34709 -3.3619,7.00536 -7.0489,5.61346 z m 339.25085,-10.75939 c 0.52614,-0.53547 4.61542,-2.01943 9.08726,-3.29762 4.47175,-1.27826 14.87792,-4.52403 23.1245,-7.21276 43.23468,-14.09603 61.59564,-16.07071 87.66591,-9.42833 11.27723,2.8733 44.65653,14.72143 46.37153,16.45978 1.08471,1.09952 -7.99074,0.34731 -19.53767,-1.61925 -4.24834,-0.72363 -11.40455,-1.70173 -15.90274,-2.17388 -4.4982,-0.47207 -12.06332,-1.2787 -16.81146,-1.79252 -23.61898,-2.55593 -42.23792,-1.62378 -68.1546,3.41228 -23.74819,4.61473 -47.72877,7.57146 -45.84273,5.6523 z m 312.55438,-23.23102 c -7.99681,-1.15129 -20.06013,-2.98599 -26.80751,-4.07721 -17.4976,-2.82975 -45.62761,-3.44993 -64.97395,-1.43237 -7.9969,0.83392 -16.0732,1.85977 -17.94751,2.27964 -5.14567,1.153 -4.09527,-0.44297 2.27185,-3.45164 22.07093,-10.42936 51.12265,-13.2704 79.28655,-7.75406 7.07449,1.38574 28.93878,8.34139 43.61896,13.87655 l 7.26984,2.74119 -4.08936,-0.0445 c -2.24902,-0.024 -10.63207,-0.98649 -18.62887,-2.1376 z m -859.20213,-19.61502 c -26.3214,-2.58845 -60.4498,-3.16251 -82.1511,-1.38189 -9.9472,0.8163 -18.2722,1.29769 -18.5,1.06983 -0.5876,-0.58775 5.0616,-2.84703 16.2841,-6.51258 26.0039,-8.49352 53.3498,-9.8547 78.8489,-3.9249 12.8839,2.996 33.6887,10.53469 33.6887,12.20707 0,0.79388 -11.1342,0.21776 -28.1706,-1.45753 z m 463.95095,-0.76402 c 0.4748,-0.46197 9.40451,-3.76421 19.84382,-7.33803 13.55755,-4.6416 26.79863,-10.14109 46.34511,-19.24871 34.99427,-16.30567 37.01654,-17.03846 59.56663,-21.58525 l 12.21015,-2.46182 -8.12088,-3.41476 c -4.46636,-1.878 -13.0279,-4.83558 -19.02546,-6.57231 -31.98492,-9.26207 -59.38163,-9.38588 -84.0573,-0.37991 -7.69252,2.80767 -17.28196,7.34035 -17.23414,8.14612 0.0169,0.29383 6.7773,2.74042 15.02199,5.43702 8.24468,2.69661 15.24614,5.31689 15.55887,5.82284 0.38307,0.61975 -5.92949,0.65081 -19.3385,0.0951 -44.29168,-1.8353 -56.67663,-0.94157 -88.94634,6.41855 -7.48382,1.70686 -13.73845,2.97195 -13.89916,2.81126 -0.40145,-0.40139 6.92004,-4.63707 14.43674,-8.35191 9.796,-4.84139 32.56183,-12.07701 42.19174,-13.40969 8.41878,-1.16524 8.76618,-1.31224 17.90207,-7.57412 14.41781,-9.88225 27.25879,-15.57716 38.41991,-17.03897 l 4.56765,-0.59819 -0.0233,-8.80275 c -0.0125,-4.84149 0.2927,-9.66765 0.67988,-10.72465 0.63037,-1.72158 0.29851,-1.98393 -3.18054,-2.51452 -2.13653,-0.32575 -9.23863,-0.84847 -15.78258,-1.16147 -18.75524,-0.89707 -38.42099,2.11947 -60.34573,9.25651 -6.7473,2.19656 -14.01482,4.26793 -16.15006,4.60327 -5.07258,0.7967 -5.40687,1.58801 -1.29456,3.06454 6.41551,2.30326 21.70253,9.95267 22.9777,11.49739 1.19674,1.44999 0.83235,1.51211 -5.4565,0.93087 -9.39299,-0.86807 -23.19456,-3.8283 -35.51696,-7.61793 -27.61297,-8.49206 -36.08597,-9.78881 -58.86751,-9.00939 -8.6366,0.29546 -16.40619,0.94713 -17.26579,1.44812 -1.4375,0.83777 -1.4242,0.91307 0.1662,0.93857 2.6231,0.0419 21.34831,7.68851 34.61997,14.13735 10.82484,5.25981 18.62892,10.36989 18.62892,12.19791 0,2.12041 -20.31589,-1.96715 -44.98203,-9.05038 -34.03836,-9.7746 -37.04746,-10.34747 -54.52366,-10.37801 -14.8755,-0.0265 -16.0928,0.1156 -32.8274,3.82248 -15.6321,3.46259 -54.4165,13.99137 -55.4885,15.06343 -0.2355,0.23556 3.182,2.3131 7.5947,4.61661 8.4875,4.43086 11.7906,6.59191 11.1122,7.27036 -0.5471,0.54711 -18.6056,-3.3819 -29.0817,-6.32742 -4.5775,-1.287 -15.5277,-4.92619 -24.3337,-8.08708 -23.7459,-8.52347 -50.0184,-14.6445 -74.1695,-17.28018 -52.6022,-5.74061 -91.2788,0.243 -148.7017,23.00539 -8.6778,3.43991 -21.0502,7.96506 -27.4939,10.05569 -11.6324,3.77405 -43.1194,11.84641 -46.2692,11.86207 -3.3466,0.0163 -0.3399,-1.78371 9.1555,-5.48194 25.014,-9.74244 61.097,-25.77927 61.097,-27.15422 0,-1.64928 -3.4465,-2.817 -16.4471,-5.57282 -24.6086,-5.21643 -50.0592,-6.9861 -77.0763,-5.35941 -9.6026,0.57825 -17.6521,0.85857 -17.8878,0.62283 -0.7417,-0.74168 13.2025,-7.50155 26.806,-12.99513 15.6463,-6.31843 26.1569,-12.39669 28.527,-16.49717 2.0862,-3.60925 1.4422,-5.05369 -1.7173,-3.85243 -3.5501,1.34972 -9.9742,1.06966 -11.2697,-0.4914 -0.6877,-0.82862 -0.9114,-2.47362 -0.5692,-4.18511 0.4884,-2.44128 0.351,-2.72724 -1.0226,-2.12999 -0.8728,0.3794 -4.2449,0.86952 -7.4936,1.08908 -5.4122,0.36579 -6.0873,0.20613 -8.0625,-1.90666 -3.2877,-3.51667 -2.0785,-6.06935 5.9836,-12.63311 12.7029,-10.34208 21.1623,-18.09297 21.1623,-19.39006 0,-1.58023 0.033,-1.58091 -3.9492,0.0821 -4.0107,1.67581 -12.3984,1.78063 -14.5841,0.18243 -3.2101,-2.34741 -1.5557,-6.08741 4.8977,-11.07204 6.2914,-4.85945 22.7228,-20.36355 22.7228,-21.44031 0,-1.42398 -2.7776,-1.55413 -6.8717,-0.32198 -5.5985,1.68505 -9.494,1.648 -12.0094,-0.1138 -3.8336,-2.68506 -2.643,-5.24407 5.6704,-12.18791 4.2297,-3.53275 12.4102,-10.73294 18.1788,-16.00046 9.5267,-8.69896 10.435,-9.80165 9.9044,-12.02388 -0.9238,-3.86885 -1.2004,-3.98325 -4.5805,-1.89425 -3.8111,2.35537 -14.3411,3.44334 -17.4133,1.79919 -2.0981,-1.12297 -2.5288,-3.69097 -1.0746,-6.40819 0.4903,-0.91616 3.6069,-3.60344 6.9259,-5.97173 7.1986,-5.13694 12.1748,-9.41103 12.1748,-10.45708 0,-0.4179 -1.4922,-0.88671 -3.3158,-1.04176 -3.5001,-0.29777 -5.5067,-2.29145 -4.6234,-4.59343 0.2909,-0.75768 4.4212,-4.50846 9.1787,-8.33488 4.7574,-3.8265 10.1756,-9.08922 12.0405,-11.69521 1.8646,-2.60582 4.3837,-5.82575 5.5976,-7.15553 l 2.2073,-2.41775 -2.2233,-1.45675 c -2.0046,-1.31352 -2.5471,-1.32157 -5.5153,-0.0813 -6.8254,2.85174 -14.2551,1.14804 -14.2551,-3.2687 0,-2.6765 -0.04,-2.63774 14.9548,-14.58477 6.5833,-5.24527 13.8382,-13.16575 12.9099,-14.09414 -0.2069,-0.20673 -2.0238,0.28339 -4.0378,1.08925 -4.9146,1.96639 -9.6533,1.50022 -10.0087,-0.98478 -0.3893,-2.72022 16.653,-17.33725 18.4627,-15.83523 0.6902,0.57278 2.0923,0.80321 3.1159,0.51203 1.0236,-0.29119 2.6789,-0.76154 3.6785,-1.04511 1.3712,-0.38906 1.8175,-0.0813 1.8175,1.25192 0,4.42991 5.9204,4.84593 8.2054,0.57645 1.0351,-1.93421 1.734,-2.27818 3.7917,-1.8667 3.5562,0.71122 5.2687,-0.1903 5.2687,-2.77379 0,-1.831531 -0.9237,-2.637732 -5.2251,-4.562021 -8.7864,-3.930293 -9.1741,-3.943813 -15.4016,-0.532647 -4.1981,2.299495 -6.5107,3.012686 -9.0798,2.800483 -5.6196,-0.464451 -5.0637,-2.722105 2.5601,-10.397099 6.0765,-6.117355 6.4492,-6.699117 4.2896,-6.699117 -1.3008,0 -2.8397,-0.571836 -3.4196,-1.270738 -0.8451,-1.018233 -0.055,-2.254487 3.978,-6.223456 4.0045,-3.941246 5.0326,-5.541326 5.0326,-7.834062 0,-2.61934 -0.2064,-2.829147 -2.2718,-2.31079 -3.2592,0.818009 -2.9378,-1.20006 0.9952,-6.248185 2.7801,-3.568435 3.5589,-5.67883 5.2257,-14.159255 1.0772,-5.481174 2.1984,-10.205603 2.4914,-10.498581 0.293,-0.293062 1.213,3.251244 2.0446,7.876246 2.208,12.282541 2.9796,14.489967 6.5053,18.608762 3.8397,4.485872 4.1134,6.611583 0.8511,6.611583 -1.9879,0 -2.2461,0.302646 -1.7455,2.04468 0.3233,1.124506 0.7693,2.703366 0.9911,3.508454 0.2219,0.805089 2.0297,2.968449 4.0173,4.807514 1.9875,1.83898 3.6138,3.89042 3.6138,4.558775 0,1.651933 -2.4229,3.549953 -3.6016,2.821446 -0.5253,-0.324637 -1.2074,0.0676 -1.5161,0.872086 -0.3867,1.007623 1.4518,3.538317 5.9132,8.139361 6.7955,7.008266 7.9672,9.909291 4.4526,11.024721 -1.9135,0.60726 -1.8039,0.82931 2.0447,4.14815 2.2364,1.92839 4.3762,3.50742 4.7552,3.50879 1.055,0 24.332,-20.261463 23.839,-20.754493 -0.2379,-0.237958 -2.4923,-0.359633 -5.01,-0.270559 -5.7822,0.204674 -8.1588,-1.016607 -8.1588,-4.192552 0,-1.882619 1.7629,-4.100398 7.7398,-9.736788 4.257,-4.01449 7.7329,-7.594649 7.7242,-7.956164 -0.01,-0.361515 -3.7982,-0.415764 -8.4214,-0.120648 -8.206,0.523577 -8.4579,0.48011 -10.6003,-1.832905 -3.1299,-3.378907 -1.9976,-5.201287 9.4112,-15.148054 5.2771,-4.601043 9.5949,-8.678082 9.5949,-9.060304 0,-0.382137 -1.4264,-0.962444 -3.1696,-1.289477 -3.8662,-0.725256 -5.4287,-3.144971 -4.0229,-6.230131 0.5469,-1.200402 3.7051,-3.768317 7.0182,-5.706297 7.3155,-4.279401 11.6257,-7.96241 13.4524,-11.494566 2.0151,-3.896922 1.2771,-4.479711 -3.1542,-2.490563 -6.641,2.981112 -10.1239,2.021663 -10.1239,-2.78876 0,-2.6029116 1.7948,-4.5205265 8.3815,-8.9546313 2.3608,-1.5892134 7.3273,-5.944341 11.0369,-9.6779187 4.8189,-4.850297 7.3956,-6.788447 9.0249,-6.788447 2.1499,0 2.2514,0.215968 1.7743,3.7731941 -0.4023,2.9997655 -0.1627,4.0243303 1.1689,4.998069 2.4765,1.8108288 5.4578,1.4932941 8.2105,-0.874568 l 2.4407,-2.0993566 3.4582,1.7108879 c 6.3463,3.1400078 11.2797,0.7821569 9.4305,-4.5068357 -0.6937,-1.9843567 -1.8907,-2.8617477 -5.4175,-3.9711937 -3.9118,-1.230693 -4.9211,-2.077709 -7.4276,-6.232698 -1.5954,-2.644582 -3.115,-5.022797 -3.3772,-5.284971 -0.2621,-0.262173 -1.9971,0.858396 -3.8554,2.49005 -9.0471,7.9435 -22.1265,9.683566 -22.1265,2.94372 0,-0.809452 3.4791,-4.767212 7.7316,-8.795222 4.2524,-4.02801 7.7282,-7.807707 7.7242,-8.399223 0,-0.591517 -1.132,-1.204938 -2.5065,-1.363063 -3.776,-0.434504 -3.7509,-3.92208 0.069,-9.474101 6.2742,-9.121228 8.2229,-14.612841 10.6062,-29.88873 1.9254,-12.341667 3.6703,-16.174758 4.8607,-10.677584 0.2978,1.374529 1.5716,7.377739 2.831,13.340648 2.6031,12.326009 5.8171,19.860419 11.2609,26.399528 4.9662,5.96539 4.9433,11.375715 -0.048,11.375715 -3.5989,0 -0.2787,6.887361 5.2259,10.840415 2.2237,1.596829 4.0416,3.389261 4.0396,3.982917 0,0.593741 -0.8122,2.40611 -1.8008,4.027582 l -1.7974,2.947998 7.9892,7.9567625 c 4.3941,4.3761768 8.2623,8.6815051 8.5958,9.5675388 0.3899,1.0358595 -0.074,2.2920508 -1.3024,3.5196632 -1.6408,1.6407241 -2.5911,1.8286265 -6.7682,1.33765 -4.3708,-0.513737 -4.8028,-0.4107158 -4.2973,1.0238803 1.1114,3.1543832 4.9616,7.4916272 10.2891,11.5910842 l 5.4246,4.173899 3.1175,-2.118352 c 3.0861,-2.097046 19.1455,-16.0219376 28.5463,-24.7521295 6.1443,-5.7062114 7.069,-7.3374375 5.2111,-9.1951565 -1.8487,-1.84882 -1.8071,-2.043824 1.3196,-6.175369 3.9881,-5.270253 1.478,-7.126346 -4.0034,-2.960234 -6.7498,5.129841 -11.2546,6.255715 -14.8776,3.718005 -2.9281,-2.050926 -2.4896,-5.051291 1.4018,-9.589358 6.2848,-7.329138 6.1546,-7.029658 3.4928,-8.04173 -1.8221,-0.692655 -2.3706,-1.527007 -2.3706,-3.605913 0,-2.361103 0.8366,-3.243971 6.5883,-6.951365 3.6235,-2.335775 8.4284,-5.933731 10.6775,-7.995439 3.5054,-3.213508 4.0459,-4.176894 3.7857,-6.748231 -0.2696,-2.664177 0.4675,-3.806737 6.5883,-10.213304 3.7905,-3.967429 6.8919,-7.576851 6.8919,-8.021023 0,-0.444086 -0.5823,-1.290674 -1.294,-1.881249 -1.016,-0.843165 -2.1026,-0.661167 -5.0601,0.8477 -5.3276,2.717912 -11.9423,3.387036 -13.9212,1.408071 -0.8437,-0.84385 -1.5343,-2.239942 -1.5343,-3.102445 0,-2.025428 5.6523,-7.397847 11.0189,-10.473081 2.3119,-1.324815 7.3889,-5.653418 11.2823,-9.619135 3.8935,-3.96572 7.4203,-6.99945 7.8372,-6.74173 0.4172,0.25781 0.7584,1.42151 0.7584,2.58614 0,1.16464 0.741,3.03262 1.6466,4.15105 2.1329,2.633976 4.8005,1.85139 8.0034,-2.34801 1.3085,-1.7155 2.8418,-3.11382 3.4073,-3.10749 0.5654,0.009 3.4369,1.233 6.3812,2.72613 6.0748,3.08062 8.3507,3.33501 11.3078,1.2638 3.3827,-2.3694 2.1632,-4.7862 -4.3932,-8.70674 -3.2487,-1.94269 -8.2283,-5.9725 -11.0657,-8.95515 -2.8375,-2.98256 -5.5644,-5.4229 -6.0598,-5.4229 -0.4954,0 -1.7933,1.44392 -2.884,3.2088 -2.3975,3.8793 -7.7473,6.78717 -12.4868,6.78717 -7.1752,0 -7.7601,-4.67224 -1.1887,-9.49601 6.1894,-4.54354 13.3619,-12.59871 13.948,-15.66487 0.5302,-2.77319 -0.7831,-4.24338 -2.9812,-3.33758 -5.8278,2.40132 -6.7091,1.09747 -3.1568,-4.6701 1.2314,-1.99915 2.2409,-4.3855 2.2434,-5.30285 0,-0.91735 1.3975,-4.4952 3.0998,-7.95069 1.7024,-3.45557 3.3748,-8.43002 3.7167,-11.05424 0.9069,-6.96549 4.1446,-21.92256 4.9225,-22.74108 0.732,-0.77035 3.0435,9.18831 5.1368,22.13142 1.5173,9.38092 2.9009,12.62464 7.3812,17.30414 2.1693,2.26587 3.305,4.43821 3.6449,6.97165 0.4711,3.51341 0.3753,3.69379 -2.1155,3.97846 -2.2465,0.2567 -2.5836,0.65843 -2.4254,2.88999 0.2852,4.02219 3.6,9.57216 9.4561,15.83224 6.9849,7.46698 7.0079,10.5648 0.084,11.26242 l -2.9916,0.30154 4.0016,5.48716 c 2.2009,3.01782 6.9268,7.92493 10.5019,10.904674 3.5752,2.979572 6.7461,6.342907 7.0465,7.474087 1.2585,4.738291 -4.5872,6.270689 -10.9373,2.867309 l -3.5294,-1.891688 2.7866,3.482014 c 1.5326,1.915048 4.6931,5.322107 7.0234,7.571118 2.3303,2.249182 4.8442,5.245012 5.5864,6.657532 1.2036,2.291024 1.1934,2.805959 -0.094,4.770806 -1.9072,2.910862 -5.0134,2.83103 -10.5316,-0.270901 -2.42,-1.36024 -4.6546,-2.218892 -4.9658,-1.90769 -0.8846,0.884579 3.575,8.957541 7.3944,13.385656 3.071,3.560392 9.3321,8.032831 23.6517,16.894281 3.5807,2.215982 4.4577,3.268527 4.6858,5.62364 0.2211,2.283066 -0.2154,3.222322 -2.0592,4.430425 -2.0414,1.337736 -2.8625,1.386765 -6.4405,0.384961 -2.2555,-0.631476 -4.3618,-0.887146 -4.6809,-0.568071 -0.3191,0.319074 0.7487,2.233609 2.3727,4.254587 3.8527,4.79408 4.865,8.293721 3.1198,10.785226 -1.7698,2.526758 -3.3425,2.398409 -10.1671,-0.830159 -3.1686,-1.499113 -5.9289,-2.725527 -6.1339,-2.725527 -3.1547,0 11.4903,15.0745526 20.528,21.1300436 8.8896,5.9563202 10.9047,7.8481798 10.9047,10.2386314 0,4.525232 -5.3207,6.198985 -11.4992,3.617379 -1.7943,-0.749727 -3.4313,-1.363148 -3.6378,-1.363148 -1.2689,0 2.9157,5.244755 10.1519,12.723633 9.6388,9.961911 10.6196,11.896896 7.6386,15.070018 -2.6748,2.847201 -6.2761,2.816997 -12.5544,-0.105674 -2.6966,-1.255336 -5.0969,-2.088404 -5.334,-1.851302 -0.465,0.465136 4.2654,7.202929 10.3638,14.761297 l 3.7946,4.70338 5.9907,-6.205231 c 5.6952,-5.899333 7.6431,-10.016759 4.7387,-10.016759 -0.6885,0 -1.7037,-0.54454 -2.256,-1.210071 -0.7621,-0.918036 -0.3201,-2.288115 1.8318,-5.679601 3.4967,-5.51018 5.2911,-10.73226 8.0192,-23.336358 1.1641,-5.3787507 2.2715,-9.6247819 2.4609,-9.4355104 0.1892,0.1892716 1.1228,4.8824696 2.0744,10.4291004 2.0384,11.880554 4.1797,17.169717 9.1221,22.531441 4.2094,4.566732 4.6392,7.269498 1.3545,8.518502 -1.2495,0.474976 -2.2718,1.132207 -2.2718,1.460437 0,1.562004 3.9998,6.780661 6.8815,8.97859 4.1787,3.187325 4.03,6.165015 -0.341,6.826695 l -3.0011,0.45444 5.7518,6.273684 5.7518,6.273512 5.2417,-5.79229 c 5.3716,-5.935785 6.4414,-9.404194 3.3422,-10.836394 -6.9431,-3.208461 -6.897,-4.140529 0.5881,-11.893731 l 6.18,-6.401262 -6.7918,0.61248 c -6.1516,0.554808 -6.9518,0.435102 -8.4899,-1.270395 -3.3096,-3.669575 -1.4658,-7.494879 8.7763,-18.2084 5.0718,-5.305422 10.8701,-11.424745 12.8851,-13.5987148 l 3.6637,-3.9526261 -4.5947,0.6060625 c -3.7892,0.4997898 -4.9784,0.2952875 -6.7828,-1.1657483 -1.9076,-1.5448048 -2.055,-2.064018 -1.1496,-4.05111236 0.5712,-1.25353884 2.9976,-3.85739134 5.3921,-5.78630094 2.3945,-1.9288241 6.9819,-6.000387 10.1941,-9.047898 5.1105,-4.848329 5.7648,-5.842175 5.2355,-7.951286 -0.5491,-2.187832 -1.0066,-2.410645 -4.9496,-2.410645 -4.4145,0 -6.5255,-1.12887 -6.5255,-3.489544 0,-0.719694 3.8205,-5.238338 8.4902,-10.041403 8.1791,-8.413085 11.5017,-12.438014 11.5017,-13.933276 0,-0.388469 -0.9313,-0.706517 -2.0696,-0.706517 -2.552,0 -6.1089,-2.385403 -6.1089,-4.097147 0,-0.697275 1.7767,-2.490306 3.9483,-3.984371 6.2643,-4.310034 9.6826,-8.720608 9.6826,-12.493632 0,-2.753507 -0.2414,-3.139494 -1.5903,-2.543443 -0.8747,0.386415 -2.8068,0.736893 -4.2937,0.77882 -4.4509,0.125183 -3.9424,-2.517688 1.6456,-8.553413 5.7359,-6.195477 7.7557,-10.873444 11.2778,-26.120152 1.3049,-5.64914 2.6799,-9.95575 3.0554,-9.57028 0.3754,0.38547 1.7118,6.09485 2.9696,12.68752 2.7728,14.533182 4.8768,19.682788 10.16091,24.868674 6.14626,6.032131 5.16818,11.175234 -1.79298,9.428067 -2.15773,-0.541632 -2.34903,-0.354072 -2.34903,2.302489 0,2.27297 1.09568,4.041101 5.11726,8.257185 4.83661,5.070714 5.08657,5.557412 4.55647,8.872316 -0.5321,3.327654 -0.23548,3.89273 5.78742,11.023356 6.60961,7.825333 7.54923,10.246845 4.59053,11.830326 -2.75308,1.473357 -4.09502,1.148892 -7.88615,-1.906492 -1.94298,-1.565854 -6.94243,-4.496739 -11.10989,-6.51284 -5.18414,-2.508104 -7.83454,-4.342635 -8.39204,-5.808976 -1.5271,-4.016715 -3.4447,-3.596073 -8.483,1.860971 -2.6047,2.821275 -5.2131,5.129498 -5.7964,5.129498 -1.7431,0 -4.0364,4.275038 -3.3884,6.316552 0.7452,2.34784 4.9928,2.511955 8.3348,0.322155 2.6238,-1.719188 2.701,-1.66434 5.9712,4.235763 1.9447,3.50854 7.2011,5.959144 9.7995,4.568529 0.9822,-0.525716 2.03951,-1.966387 2.34951,-3.201444 0.30998,-1.235057 0.74404,-2.245589 0.96458,-2.245589 2.28325,0 18.3465,11.068192 25.34161,17.461326 7.68175,7.0205871 6.51311,11.40549156 -2.78406,10.44587122 -2.73954,-0.28270937 -4.98099,-0.22717717 -4.98099,0.12321474 0,1.83162134 15.14447,17.56391904 20.65237,21.45408204 3.50615,2.476274 7.29527,5.845769 8.42028,7.48752 1.94951,2.845148 1.97411,3.094059 0.52415,5.306961 -2.00622,3.061886 -5.54234,4.333907 -10.28634,3.700122 -5.23084,-0.698816 -5.07794,0.813645 0.73066,7.227742 4.17135,4.606177 4.56743,5.418453 4.31646,8.852808 -0.23392,3.201272 -0.66276,3.916602 -2.7952,4.662223 -1.66859,0.583558 -3.73925,0.555151 -6.13391,-0.08385 -1.98827,-0.530679 -3.61502,-0.698388 -3.61502,-0.372553 0,1.621899 20.19708,18.789135 26.7911,22.772137 4.15163,2.507677 7.79609,5.204881 8.09884,5.993884 1.04207,2.715601 0.54575,4.820947 -1.4692,6.232269 -2.90295,2.033386 -6.93495,1.728429 -11.47684,-0.868065 -2.17517,-1.243527 -4.12808,-2.260904 -4.33979,-2.260904 -0.21173,0 0.22167,1.173107 0.96307,2.606761 0.74141,1.433741 5.8277,6.772533 11.30284,11.863861 10.74163,9.98887 13.40797,13.90581 11.99531,17.62125 -2.02039,5.31406 -8.02919,6.56923 -14.66075,3.0624 l -3.97802,-2.10364 -2.10267,2.49878 c -1.15645,1.37445 -3.00877,2.6291 -4.11626,2.78808 -4.40307,0.63259 27.38019,28.9084 32.49422,28.9084 1.33547,0 10.26726,-6.49864 14.84517,-10.80114 3.45817,-3.25005 3.13638,-4.64734 -1.07036,-4.64734 -7.83682,0 -7.79325,-5.04487 0.0947,-10.9608 2.8807,-2.16054 7.70401,-6.28216 10.71847,-9.15905 5.22387,-4.98566 5.46403,-5.40724 5.1222,-8.9916 -0.32026,-3.35845 -0.56638,-3.69678 -2.30029,-3.16285 -7.9417,2.44547 -8.72378,2.51726 -11.0223,1.01113 -1.25315,-0.82109 -2.27845,-2.17089 -2.27845,-2.99951 0,-0.82862 4.39597,-5.72623 9.76882,-10.883704 8.5044,-8.163318 9.563,-9.500455 8.17855,-10.331042 -2.37671,-1.425612 -1.92598,-4.054535 1.1371,-6.632033 l 2.72738,-2.294789 -2.86291,-0.284849 c -1.57979,-0.157184 -3.31127,-1.036372 -3.86329,-1.96151 -0.85504,-1.433227 -0.34338,-2.225224 3.52213,-5.452423 2.48739,-2.076682 6.81809,-5.922522 9.62381,-8.546482 2.80571,-2.624046 5.77007,-4.770806 6.58745,-4.770806 0.81738,0 2.82505,-0.816384 4.46148,-1.814081 4.03539,-2.460444 5.13897,-2.29128 5.05179,0.774371 -0.0406,1.427323 0.21537,3.063084 0.56878,3.63492 1.00675,1.62883 5.90938,1.219141 8.63511,-0.721747 1.3605,-0.968691 3.79962,-1.723723 5.42033,-1.677603 3.33748,0.09489 6.07936,-2.083442 5.27185,-4.188104 -0.297,-0.773771 -3.11315,-2.583915 -6.25827,-4.022447 -3.14504,-1.438532 -6.49726,-3.495192 -7.44937,-4.57024 -0.95212,-1.075049 -2.3448,-1.954665 -3.09484,-1.954665 -2.14285,0 -13.93069,8.405812 -14.97354,10.677498 -0.51624,1.124506 -1.67158,2.044595 -2.56745,2.044595 -2.74431,0 -6.25799,-2.025343 -6.25799,-3.607283 0,-0.823999 3.27232,-4.467219 7.27184,-8.096235 3.9995,-3.628845 7.67472,-7.350871 8.16716,-8.27096 0.81511,-1.522986 0.5096,-1.659891 -3.40974,-1.526751 -3.85193,0.13083 -4.33626,-0.07359 -4.60139,-1.943798 -0.22441,-1.582796 1.15408,-3.477565 5.67954,-7.807023 6.35814,-6.0827 7.49823,-8.731988 3.7577,-8.731988 -3.76358,0 -3.56639,-1.728173 0.72007,-6.3107341 4.33248,-4.6317618 5.15987,-6.7739013 8.36581,-21.6596109 0.89126,-4.138218 1.91167,-7.205153 2.26762,-6.815486 0.35593,0.389838 1.34855,5.002347 2.20581,10.250268 1.7558,10.74860355 2.74687,13.323706 7.28375,18.9267251 3.3441,4.1297469 4.12158,7.3483049 1.82149,7.5398859 -0.74969,0.06246 -1.86858,0.1648 -2.48653,0.227263 -3.94772,0.399079 0.71134,7.276772 7.28147,10.748775 1.71012,0.903831 2.92921,2.258166 2.92921,3.254238 0,2.171146 -3.73646,4.209409 -6.25275,3.410738 -4.37568,-1.388819 -0.57505,5.396121 8.20857,14.65374 2.92269,3.08054 5.31404,5.963508 5.31404,6.406482 0,1.400455 -2.11258,2.986674 -3.97786,2.986674 -1.34172,0 0.0858,1.928482 5.63409,7.613216 7.4521,7.634779 8.36642,9.262497 6.34061,11.288353 -1.4049,1.404904 -8.21697,1.4156 -9.6174,0.0154 -2.37634,-2.376418 -2.27249,0.565505 0.18572,5.260671 1.78028,3.40047 5.45838,7.614072 11.56438,13.248408 7.14249,6.590783 8.95378,8.765613 8.95378,10.751083 0,3.77157 -1.9769,4.86082 -7.74121,4.26597 -4.69127,-0.48422 -4.98103,-0.39703 -4.98103,1.49902 0,2.08593 5.37839,7.77725 12.51051,13.23823 6.64145,5.08543 6.99673,8.31674 1.05759,9.6211 -1.46488,0.32173 -2.66332,1.10543 -2.66332,1.74152 0,2.56526 4.43896,7.54536 9.97563,11.19158 6.14881,4.04949 8.2445,6.67439 7.52521,9.42507 -0.57389,2.19442 -3.11977,2.8982 -7.77037,2.14813 l -3.82378,-0.61684 4.77081,4.88846 c 8.25943,8.46297 5.59075,12.55643 -6.13389,9.4089 -1.84168,-0.4944 -1.41151,0.18935 2.27186,3.61156 6.17303,5.73547 12.28153,9.89748 13.13472,8.94932 0.38682,-0.42979 9.21556,-11.00461 19.61933,-23.49962 25.25663,-30.33324 33.12466,-39.47321 41.66378,-48.39866 14.47773,-15.13316 22.21049,-16.402785 55.07579,-9.04336 10.24591,2.29436 25.78525,5.44446 34.53179,7.00039 8.74645,1.55602 16.61833,3.03947 17.49298,3.29685 1.40756,0.41397 1.59024,-0.2626 1.59024,-5.88975 0,-4.33878 0.41791,-6.77518 1.31635,-7.67362 0.7238,-0.72398 4.09749,-1.87774 7.49693,-2.563807 8.03138,-1.621301 36.27108,-1.630713 46.79311,-0.0154 8.91227,1.368027 7.98722,0.220247 9.82663,12.192527 1.08138,7.0377 0.33533,9.39983 -3.25304,10.3005 l -2.28718,0.57406 2.13102,1.1056 c 1.17217,0.60811 3.74676,1.38 5.72127,1.71508 7.19489,1.22119 20.9892,3.19134 26.30823,3.75745 9.32316,0.99213 18.03051,2.30771 21.56746,3.25851 4.44976,1.19638 6.64829,0.0325 15.44394,-8.18282 4.48133,-4.18503 7.61398,-6.41581 9.01042,-6.41684 2.51392,0 6.62861,-2.13572 11.19226,-5.80478 1.7962,-1.44418 3.52112,-2.37043 3.83309,-2.05846 0.31206,0.31197 -1.00771,3.11896 -2.93268,6.23766 -3.67129,5.94811 -4.44848,10.31034 -2.29821,12.90127 0.66091,0.79627 1.98589,1.44803 2.94414,1.44803 2.72998,0 8.18497,-3.16294 11.6171,-6.736 1.72235,-1.79303 3.42143,-3.26005 3.77568,-3.26005 0.35432,0 1.68864,1.78216 2.96511,3.96024 4.21582,7.19403 10.26661,9.20585 12.82246,4.26348 0.76239,-1.47464 1.38634,-3.72005 1.38634,-4.98968 v -2.30856 l 4.31653,2.62165 c 5.82199,3.53617 9.68793,4.28231 12.53188,2.41894 3.31568,-2.17251 2.79484,-4.97676 -2.35434,-12.67537 -7.50309,-11.21811 -11.76641,-13.25971 -15.4027,-7.37603 -2.04399,3.30703 -2.51221,3.55432 -4.95605,2.6166 -2.29479,-0.88064 -9.38409,-11.395997 -9.72858,-14.43016 -0.27329,-2.408335 -0.62719,-2.703109 -3.03553,-2.528726 -6.29764,0.455809 -15.13411,5.807693 -24.66605,14.939106 -5.7845,5.54133 -6.88248,6.21867 -10.08239,6.21867 -3.69815,0 -6.59883,-2.04366 -6.59883,-4.64939 0,-1.48046 5.64289,-7.08528 14.53977,-14.441715 3.24859,-2.686253 6.28977,-5.209246 6.75798,-5.606613 0.50176,-0.426032 0.0359,-1.590839 -1.13588,-2.837875 -2.14026,-2.278189 -2.57656,-4.707145 -1.01849,-5.670103 1.35673,-0.838459 6.30106,-7.773566 6.30106,-8.837919 0,-0.540776 -2.28692,-0.633444 -5.94896,-0.24121 -4.72306,0.505779 -6.40836,0.336017 -8.17855,-0.823913 -4.71656,-3.090465 -2.00797,-8.322385 7.37706,-14.249528 3.45394,-2.181414 8.34488,-6.608845 12.23684,-11.077176 l 6.48324,-7.443368 -3.38156,-0.454354 c -2.15309,-0.289298 -3.87083,-1.194584 -4.72802,-2.492018 -1.29102,-1.954066 -1.04921,-2.326791 5.89548,-9.087258 6.34419,-6.175968 11.14528,-12.881417 11.14528,-15.5662999 0,-0.4756603 -1.94242,-0.7986711 -4.31653,-0.7177259 -6.07184,0.2068981 -6.23792,-2.0989288 -0.61839,-8.58447343 6.03453,-6.96445637 9.04029,-13.97854077 12.36939,-28.86484877 3.35008,-14.979661 3.16423,-15.065056 7.13123,3.2758 2.92797,13.537364 4.76764,18.2916559 9.45134,24.4257819 1.78456,2.3372295 3.24474,5.2130101 3.24474,6.3906521 0,1.8489056 -0.44238,2.1411128 -3.24175,2.1411128 -2.94303,0 -3.18373,0.1884158 -2.61104,2.0445945 1.41749,4.5951397 3.67291,7.8339757 10.05236,14.4352907 3.91497,4.051198 6.70519,7.71658 6.70519,8.808571 0,2.476787 -3.31918,4.699529 -7.01768,4.699529 -1.93379,0 -2.97829,0.442119 -2.97829,1.26047 0,2.762748 6.34599,10.41387 14.39782,17.358561 10.96731,9.459555 13.24079,13.588617 9.52646,17.302943 -1.2763,1.276299 -2.60701,1.418082 -8.29877,0.884836 l -6.77869,-0.635241 3.07352,4.405269 c 1.69053,2.422796 8.28739,9.538447 14.65991,15.812473 7.2641,7.151765 11.58629,12.092935 11.58629,13.245335 0,1.01096 -1.00583,2.78302 -2.23507,3.93782 -3.18792,2.99489 -8.51182,2.83822 -13.16626,-0.38727 -9.92692,-6.87923 -3.03083,3.5562 9.2755,14.03613 4.11888,3.50759 7.93828,6.37747 8.48762,6.37756 0.54924,8e-5 5.45635,-4.39586 10.90467,-9.76871 l 9.90612,-9.76879 -3.33869,-0.27792 c -6.93228,-0.57714 -6.74558,-4.72733 0.45333,-10.07297 5.67404,-4.21335 7.61878,-6.32674 8.02838,-8.725234 0.24883,-1.456587 -0.31009,-1.900502 -2.86089,-2.271858 -1.88202,-0.273896 -3.27982,-1.035346 -3.44009,-1.873463 -0.14837,-0.776595 1.77583,-3.749749 4.27607,-6.606876 4.77003,-5.450969 5.32322,-6.845264 8.11394,-20.451337 0.9497,-4.630136 1.93088,-8.622635 2.18048,-8.872316 0.24959,-0.24951 0.74322,1.476865 1.09704,3.836513 1.34552,8.972172 5.87948,22.502262 9.11463,27.199482 3.5693,5.182549 3.4839,7.406061 -0.30144,7.84373 -1.85276,0.214343 -2.34955,0.707458 -2.11348,2.097646 0.46805,2.75693 4.23499,7.284903 8.76972,10.541543 6.39853,4.59496 6.34847,8.99613 -0.10225,8.99613 -1.68812,0 -3.06933,0.23137 -3.06933,0.51407 0,1.71038 2.87151,4.88744 10.69872,11.83743 4.86142,4.31645 9.36381,8.825 10.00529,10.0189 2.26151,4.20898 -1.7001,7.43704 -7.99338,6.51327 -2.68702,-0.39429 -2.71466,-0.35467 -2.71466,3.89718 0,4.28488 0.0231,4.31713 9.44056,13.03757 5.19222,4.80803 9.66004,9.582 9.92846,10.60862 0.30632,1.17105 -0.20254,2.55713 -1.36581,3.72032 -1.53505,1.53505 -2.69575,1.78413 -6.74797,1.44811 -2.69182,-0.22333 -4.89402,-0.20989 -4.89402,0.0299 0,1.37752 7.56795,9.26455 14.22523,14.82496 8.66593,7.23809 10.23349,9.60253 8.65831,13.05956 -0.89519,1.96459 -1.62164,2.26998 -5.37105,2.2586 -2.38489,-0.009 -6.12608,-0.63661 -8.314,-1.39849 -6.90353,-2.40414 -7.58832,-3.21899 17.29507,20.57677 5.81138,5.5575 6.3661,7.42027 3.35076,11.25362 -1.81357,2.30565 -2.34348,2.46104 -7.04266,2.06641 -2.79484,-0.23488 -5.79709,-0.73202 -6.67174,-1.10491 -2.61968,-1.11672 -1.88664,1.38462 1.85592,6.33204 1.89032,2.49895 6.48863,6.71169 10.21853,9.36149 11.8417,8.41266 14.50588,10.92034 14.50588,13.65417 0,2.38882 -2.04306,6.25563 -4.03657,7.63999 -2.02063,1.40311 -10.16282,0.60538 -15.274,-1.49646 -9.55308,-3.92866 -6.50035,0.0727 14.31259,18.75979 11.79823,10.5933 14.08523,13.24285 14.08523,16.31825 0,4.72503 -6.39955,7.08014 -13.07761,4.81282 -2.39824,-0.81416 -4.58607,-1.25482 -4.86176,-0.9793 -0.27561,0.27578 0.58107,2.13649 1.90366,4.13514 2.90753,4.3938 3.14232,7.85999 0.58733,8.67089 -0.99967,0.31728 -1.81742,0.89767 -1.81742,1.28974 0,0.77077 10.60451,8.31126 22.26379,15.83104 6.27026,4.04392 7.30792,5.08038 7.54673,7.53706 0.43459,4.46987 -3.05496,6.68235 -10.62274,6.7354 l -6.01125,0.0419 6.36105,5.85621 c 3.4987,3.22095 10.94711,9.2299 16.55227,13.35306 l 10.19097,7.49693 -2.46686,1.3717 c -1.94534,1.08164 -5.82908,1.36324 -18.36969,1.33218 -13.9462,-0.0351 -18.52987,-0.46428 -37.25774,-3.49408 -22.80927,-3.68994 -38.94604,-4.92226 -54.87283,-4.19067 l -9.89064,0.45435 8.24247,2.97504 c 13.64723,4.92568 39.06044,17.06011 37.98385,18.1367 -1.15043,1.1506 -26.009,-5.10674 -51.64956,-13.00104 -30.20721,-9.30023 -46.46051,-12.02773 -65.15655,-10.93385 -17.21096,1.00685 -49.45557,8.72736 -63.52182,15.20931 -7.26086,3.34597 -8.10334,2.80682 13.319,8.52253 25.1726,6.71606 58.25208,18.11641 59.79055,20.60578 1.13991,1.84446 -22.15666,-1.18209 -40.26256,-5.23064 -10.09205,-2.25671 -22.0343,-5.55108 -55.25727,-15.2432 -44.1819,-12.8892 -70.16763,-17.66035 -100.74482,-18.49744 -20.87223,-0.57132 -33.4996,0.35467 -52.87829,3.87758 -21.56181,3.91977 -51.25399,13.55696 -75.20155,24.40842 -44.28337,20.06603 -61.41159,25.38908 -93.76817,29.14088 -13.75964,1.59537 -17.53906,1.7179 -16.31722,0.52905 z m 259.3733,-75.47005 c 0.98683,-0.98691 2.05906,-2.84917 2.38266,-4.13856 0.72774,-2.9 -0.0928,-8.33351 -1.51827,-10.0509 -2.18039,-2.6273 -10.76521,-0.60504 -12.09036,2.84797 -1.2627,3.29086 -0.57663,9.48882 1.25302,11.31847 2.39858,2.39858 7.58541,2.41056 9.97295,0.0222 z m -100.64171,-0.93181 h 14.45634 l -0.2875,-2.49895 -0.2875,-2.49903 -26.58033,-0.24087 -26.58033,-0.24087 v 3.33501 3.33527 l 12.41149,-0.59536 c 6.82644,-0.32729 18.91697,-0.5952 26.86783,-0.5952 z m 224.17005,-1.95911 c 2.27348,-0.86448 2.2917,-0.93028 0.53607,-1.93627 -1.22103,-0.69967 -11.06281,-1.15215 -29.98799,-1.37864 l -28.17057,-0.33721 3.17278,2.38283 3.17278,2.38301 24.46172,-0.10952 c 13.55662,-0.0608 25.51093,-0.50827 26.81521,-1.0042 z m -102.15024,-6.67371 c 0,-3.07318 -0.31463,-3.67967 -2.03578,-3.9243 -1.43836,-0.20425 -2.33261,0.36211 -3.04683,1.92976 -1.37812,3.0245 0.34158,6.3044 3.09954,5.91166 1.66083,-0.23633 1.98307,-0.87312 1.98307,-3.91712 z m -224.4414,0.27159 c 4.46443,-5.30577 1.57713,-13.44821 -4.76867,-13.44821 -4.29989,0 -8.42218,4.13138 -8.42218,8.44047 0,7.71838 8.26855,10.85753 13.19085,5.00774 z m 363.74944,1.81844 c 1.54275,-1.54284 1.35288,-3.83651 -0.50784,-6.1343 -1.92814,-2.38129 -4.53438,-1.72586 -5.30234,1.33363 -1.07376,4.27838 2.98171,7.62913 5.81018,4.80067 z m -180.65514,-6.17939 c 0,-3.34964 -0.19603,-3.63809 -2.49895,-3.67565 -1.37444,-0.0222 -5.15697,-0.20784 -8.40573,-0.41174 -3.24876,-0.20399 -13.36965,-0.60084 -22.49105,-0.88184 l -16.58428,-0.51074 v 4.08636 4.08628 l 21.12799,0.26149 c 11.62035,0.14392 22.86584,0.35587 24.99001,0.47121 l 3.86201,0.20955 z m -132.67421,-1.81742 v -3.635 h -16.3571 c -17.83798,0 -17.23782,-0.1986 -15.78432,5.22524 0.54155,2.02098 0.73099,2.04468 16.34461,2.04468 h 15.79681 z m 39.98395,-6.77869 v -9.5784 h -6.38954 c -4.31217,0 -6.50779,0.3693 -6.75302,1.13588 -0.19971,0.62472 -0.52161,4.69405 -0.7149,9.04311 l -0.35168,7.90722 3.69687,0.27133 c 2.0333,0.14922 5.23038,0.39018 7.10462,0.5353 l 3.40765,0.26405 z m 23.62703,0.41756 v -9.08734 h -8.16614 -8.16623 l 0.43544,8.86016 c 0.23942,4.87306 0.43819,8.96234 0.44186,9.08735 0,0.12492 3.48253,0.22718 7.73087,0.22718 h 7.7242 z m 389.84433,8.13714 c 0,-1.88955 -4.41828,-5.30722 -8.16597,-6.31621 -2.10706,-0.56739 -4.0026,-0.86011 -4.21232,-0.65039 -0.20964,0.20964 1.45821,2.07668 3.70637,4.149 3.87484,3.57152 8.67192,5.13036 8.67192,2.8176 z m -222.15686,-11.16617 c -0.35784,-5.08141 -0.7149,-9.24846 -0.79328,-9.26035 -0.0787,-0.012 -3.10741,0.12389 -6.73095,0.3017 l -6.58831,0.32335 v 5.251 c 0,2.88802 0.24498,7.04601 0.54454,9.23983 l 0.54446,3.98899 6.83705,-0.3029 6.83705,-0.30291 z m 22.23658,-0.15153 v -9.54162 h -3.97564 c -2.18655,0 -5.25357,0.25567 -6.81549,0.5679 l -2.83976,0.56799 v 8.97371 8.97371 h 6.81549 6.8154 z m 133.583,4.66624 c 0,-4.46525 -4.96213,-8.53057 -13.4968,-11.05767 l -4.22336,-1.25045 7.46775,7.22868 c 7.79642,7.54673 10.25241,8.76365 10.25241,5.07944 z m -234.22463,-4.39149 c 1.08583,-1.25568 1.59033,-3.37643 1.59033,-6.68492 0,-3.97735 -0.36203,-5.09937 -2.01969,-6.2605 -3.03528,-2.12597 -5.99808,-1.71517 -8.95489,1.24173 -3.04255,3.04246 -3.62217,8.2826 -1.28529,11.61898 2.35777,3.36616 7.79479,3.40937 10.66954,0.0847 z m 161.07204,-6.08236 c 0,-3.69122 -2.28401,-5.64974 -4.7708,-4.09099 -3.6878,2.31182 -1.85661,7.9429 2.42125,7.4456 2.0114,-0.23377 2.34955,-0.71679 2.34955,-3.35461 z m -364.78433,-0.93797 c 7.40241,-7.4023 -1.34421,-19.13277 -9.48897,-12.72603 -2.05414,1.61574 -2.39439,2.57493 -2.39439,6.74951 0,4.1745 0.34025,5.13378 2.39439,6.74943 3.31799,2.60993 6.35339,2.36273 9.48897,-0.77291 z m 224.2041,0.65714 c 2.25877,-2.25876 0.69762,-7.0881 -2.29119,-7.0881 -1.97358,0 -3.33715,3.99473 -2.13222,6.24613 1.15779,2.16328 2.79116,2.47423 4.42341,0.84197 z m -749.89265,-3.90668 c 2.1313,-1.249 5.1124,-3.77199 6.6247,-5.60661 l 2.7497,-3.33587 1.6997,2.09919 c 1.496,1.84745 2.1998,2.02414 5.8691,1.47387 2.6003,-0.38992 6.5079,-2.1329 10.3843,-4.63202 l 6.2151,-4.0067 0.2949,3.35717 c 0.3782,4.30567 1.5465,5.65214 4.9042,5.65214 6.5767,0 13.5725,-6.12095 18.742,-16.39835 2.782,-5.53071 3.8228,-6.76303 6.4161,-7.5967 1.7025,-0.54719 3.9098,-2.09345 4.9051,-3.43615 1.5994,-2.15745 1.6738,-2.76874 0.6414,-5.26127 -2.4402,-5.8912 -8.143,-7.02717 -16.4835,-3.28333 -2.6844,1.20485 -6.6185,2.46746 -8.7427,2.80605 -3.4646,0.5519 -3.8621,0.42774 -3.8621,-1.20776 0,-3.96076 -0.9126,-4.69774 -5.8173,-4.69774 -4.4302,0 -5.4424,0.49072 -16.8072,8.14912 -20.6752,13.9325 -29.8611,23.35381 -30.7881,31.57685 -0.3783,3.35743 -0.1431,4.41486 1.2004,5.39724 2.5879,1.89237 7.5904,1.44965 11.8542,-1.04913 z m 709.00008,-2.82486 0.2727,-3.71707 -6.99809,-0.59151 c -3.849,-0.32541 -15.4246,-0.59161 -25.72373,-0.59161 h -18.72547 l 0.32412,4.0743 0.32395,4.07439 23.76376,0.26534 c 13.07009,0.1458 24.37718,0.25122 25.12691,0.23411 0.93849,-0.0205 1.44803,-1.18868 1.63585,-3.74795 z m -132.66762,-1.49244 -0.27937,-3.8621 -16.36523,-0.24686 -16.36531,-0.24685 0.32694,4.10895 0.32678,4.10895 h 16.31782 16.31791 z m 40.15893,-9.76888 v -9.99605 h -7.61826 -7.61827 l 0.12125,9.99109 0.12133,9.99117 7.49702,0.009 7.49693,0.009 z m 23.62703,0 v -9.99605 h -7.7242 -7.72428 v 8.55872 c 0,4.70714 -0.24805,9.20534 -0.55147,9.99596 -0.47814,1.24584 0.55105,1.43734 7.72411,1.43734 h 8.27584 z m -438.59562,7.16571 c 2.2094,-1.00668 4.2237,-4.24492 4.2237,-6.79025 0,-4.52249 -7.924,-13.43331 -20.8147,-23.40686 -3.9547,-3.05975 -7.1527,-6.66934 -10.4847,-11.83435 -6.4853,-10.05321 -10.2664,-13.29684 -15.5,-13.29684 -3.1988,0 -4.6796,0.57381 -7.2062,2.7921 l -3.18,2.7921 -7.0748,-2.4791 c -9.1338,-3.20076 -19.9608,-3.95126 -26.3561,-1.82708 -13.6863,4.54593 -32.0588,25.9758 -32.0611,37.39652 0,5.22482 1.5693,6.91774 6.8895,7.4278 3.9735,0.38094 4.9978,0.0727 9.2398,-2.78337 l 4.7708,-3.21205 v 3.82564 c 0,2.10415 0.6147,4.7033 1.3659,5.77578 1.7796,2.5407 7.039,4.23696 10.8948,3.51359 3.4814,-0.65321 11.1645,-7.13765 14.1168,-11.91436 1.0677,-1.72748 2.2846,-3.14103 2.7042,-3.14103 0.4197,0 3.7004,2.69549 7.2903,5.99012 7.4364,6.82438 15.8729,11.27398 21.3776,11.27509 4.5798,0 5.8614,-1.23078 5.8614,-5.6334 0,-3.92148 0.781,-4.28873 3.2668,-1.53642 2.1028,2.32842 10.9251,6.88429 15.593,8.05226 3.9485,0.98803 11.8902,0.4689 15.083,-0.98589 z m 77.6284,0.50698 c 2.3872,-1.67204 2.671,-5.59472 0.683,-9.43894 -1.9028,-3.67958 -10.0075,-10.61272 -18.9998,-16.25313 -7.6746,-4.81393 -7.7688,-4.84422 -15.7288,-5.05891 -6.0936,-0.16437 -9.5286,-0.79431 -14.3691,-2.635 -6.006,-2.28392 -15.5237,-3.38378 -14.8426,-1.71516 0.5507,1.34903 10.6315,10.05381 17.0466,14.71979 3.47,2.52385 8.3796,7.22355 10.9103,10.44374 2.5306,3.22018 5.6568,6.54655 6.947,7.39185 3.2332,2.11861 7.5863,1.97144 9.441,-0.3189 1.3558,-1.67435 1.6755,-1.72389 3.2661,-0.50664 2.9219,2.23601 8.8857,4.74471 11.3298,4.76593 1.2633,0.0103 3.2057,-0.6165 4.3165,-1.39463 z m 527.49159,-1.02269 c 0.37487,-0.21785 0.68154,-4.27829 0.68154,-9.02308 v -8.62708 l -6.81549,0.18045 c -5.52353,0.14615 -6.83534,0.45667 -6.92022,1.6379 -0.55104,7.66465 -0.71353,15.3114 -0.34663,16.29695 0.34663,0.93087 1.85824,1.06161 6.58455,0.5697 3.37403,-0.35125 6.44131,-0.8169 6.81625,-1.03484 z m 20.02437,0.0325 3.44017,-0.56859 -0.25952,-8.28148 -0.25961,-8.28157 -7.4971,-0.26397 -7.49693,-0.26397 v 9.12362 9.12397 l 4.31636,-0.0103 c 2.37411,-0.009 5.8646,-0.26577 7.75663,-0.57843 z m -888.62086,-2.51615 c 2.0431,-1.20785 5.2706,-4.07267 7.1722,-6.36644 2.8944,-3.49159 3.7355,-4.02167 5.1654,-3.25646 2.7297,1.46087 4.9972,1.07197 7.1574,-1.22735 2.9762,-3.16799 3.4962,-7.89559 1.1064,-10.05835 -1.887,-1.70763 -2.0026,-1.68795 -9.6984,1.65442 -4.2838,1.86054 -8.6758,3.25646 -9.7603,3.10201 -1.311,-0.18679 -2.5566,-1.57492 -3.7175,-4.14292 -0.9602,-2.12417 -2.2973,-3.8621 -2.9714,-3.8621 -0.6741,0 -2.917,1.06769 -4.9843,2.37283 -2.0672,1.30487 -8.2952,4.50957 -13.84,7.12112 -5.5448,2.61164 -11.4103,5.87392 -13.0347,7.24974 -3.7096,3.14154 -4.003,6.58514 -0.6332,7.43087 3.2614,0.81861 10.6216,-0.30256 16.0604,-2.44641 l 4.6117,-1.81767 2.6553,3.22129 c 2.3374,2.83574 3.1547,3.22138 6.8258,3.22138 2.7794,0 5.4094,-0.73244 7.8852,-2.19596 z m 791.19727,-3.18655 c 2.24448,-2.24448 2.65639,-3.37797 2.65639,-7.31109 0,-3.78568 -0.43553,-5.09031 -2.33209,-6.98696 -1.87911,-1.87911 -2.89392,-2.22428 -5.22525,-1.77703 -4.60207,0.88261 -6.98242,4.32005 -6.98242,10.08325 0,4.19101 0.33867,5.14755 2.39447,6.76466 3.3179,2.60992 6.35335,2.36272 9.4889,-0.77283 z m 161.65594,-2.74418 c 1.36067,-2.54251 -0.57149,-6.41307 -3.20136,-6.41307 -2.04108,0 -3.13196,1.54514 -3.13196,4.43632 0,3.62645 4.67027,5.08424 6.33332,1.97675 z m 113.55274,-0.62891 c 1.03586,-1.31677 1.88347,-3.56587 1.88347,-4.99799 0,-3.22112 0.87722,-3.25158 5.50248,-0.19064 4.28548,2.83591 11.35099,4.8574 14.72382,4.21258 6.40982,-1.22513 6.64282,-7.3537 0.54309,-14.28341 -4.19615,-4.76696 -31.37475,-23.23882 -34.19261,-23.23882 -2.74041,0 -3.92499,2.10946 -3.6433,6.48769 0.23385,3.63423 0.0659,3.9848 -2.02517,4.22909 -1.62302,0.1897 -3.67377,-0.92317 -7.11677,-3.8621 -2.66024,-2.27066 -5.54988,-4.12846 -6.42154,-4.12846 -0.87174,0 -2.57621,1.0575 -3.788,2.35023 -1.96972,2.10133 -2.69207,2.29701 -6.8225,1.84882 -5.82985,-0.6325 -10.59801,0.66664 -14.17457,3.86235 -2.22069,1.9841 -2.88211,3.41879 -3.22138,6.98654 -0.79414,8.34865 4.61978,11.66279 13.18457,8.07073 1.95749,-0.821 4.5438,-1.20031 6.14893,-0.90195 1.74666,0.32473 3.42546,0.0188 4.54355,-0.82596 0.97536,-0.73758 2.45659,-1.35399 3.29163,-1.36991 0.8352,-0.0163 4.81718,3.23019 8.84887,7.21337 8.20225,8.10368 12.58989,10.83297 17.51027,10.89209 2.55593,0.0317 3.78474,-0.5228 5.22516,-2.35425 z M -797.2426,305.9056 c 2.44881,-2.67556 3.26365,-5.54081 2.528,-8.88994 -1.31651,-5.99397 -6.85364,-7.33496 -11.42236,-2.76617 -3.48567,3.4856 -3.82593,10.05235 -0.63672,12.28622 2.96363,2.07574 7.31785,1.78798 9.53108,-0.63011 z m 224.54394,-2.28794 c 0.20698,-2.85499 -0.0925,-4.00542 -1.14744,-4.41032 -3.27973,-1.25859 -5.72341,4.96889 -3.01328,7.67893 2.13949,2.13949 3.86732,0.78224 4.16072,-3.26861 z m -41.12489,-2.70996 -0.25233,-4.31653 -21.77615,-0.24301 -21.77615,-0.24292 -3.85962,2.79586 c -6.5765,4.76396 -5.12933,5.11632 21.92906,5.33965 13.11244,0.10824 24.0178,0.37375 24.2342,0.58997 1.22025,1.22026 1.72458,-0.098 1.50099,-3.92302 z m -323.23439,0.82777 c -5.13017,-6.84646 -11.52665,-11.56259 -16.23001,-11.96646 -6.66501,-0.57227 -6.78654,-0.17037 -1.22896,4.06446 2.92884,2.23172 6.65282,5.14558 8.27554,6.47519 2.83387,2.32208 8.0736,4.1395 9.58876,3.32585 0.39912,-0.21442 0.21672,-1.06888 -0.40533,-1.89904 z m 175.41025,1.67067 h 14.28281 l 1.09131,-3.01782 c 0.60016,-1.65981 1.09122,-3.29548 1.09122,-3.63492 0,-0.33936 -7.56513,-0.6171 -16.81145,-0.6171 h -16.81146 v 4.18656 c 0,3.44411 0.2549,4.08868 1.43742,3.63492 0.79063,-0.30341 7.86461,-0.55164 15.72015,-0.55164 z m -131.65729,-0.8999 c 0,-1.18628 -8.2647,-7.22723 -9.92722,-7.25606 -1.67435,-0.0291 2.07876,4.12128 5.83794,6.45602 3.07456,1.90957 4.08928,2.10809 4.08928,0.80004 z m 300.33459,-14.15395 c 1.75435,-1.49475 2.32867,-2.48936 1.61094,-2.79038 -0.61333,-0.25747 -3.46823,-2.29505 -6.3441,-4.52832 -4.79921,-3.72647 -5.32365,-3.93072 -6.38175,-2.48363 -0.63413,0.86712 -1.153,3.10458 -1.153,4.97189 0,6.50625 7.04506,9.28021 12.26791,4.83044 z m -204.42246,-5.35111 c 2.87523,-2.87535 3.03611,-8.31374 0.34705,-11.73227 -2.57028,-3.26758 -7.29801,-3.29163 -10.53611,-0.0539 -2.0098,2.00985 -2.27623,2.91479 -1.88361,6.39801 0.25151,2.23138 1.18236,4.85834 2.06862,5.83772 2.32226,2.56595 7.20783,2.34622 10.00405,-0.4499 z m 387.20023,-1.6877 c 6.66685,-3.44762 8.1142,-8.7147 4.53986,-16.52198 -2.74606,-5.99825 -2.97469,-6.3003 -25.09499,-33.15906 -9.25437,-11.23684 -19.48427,-23.75571 -22.73295,-27.81983 -19.69973,-24.64406 -40.77244,-50.16406 -44.98467,-54.47846 -7.06098,-7.23227 -11.63267,-8.98329 -29.53098,-11.31068 -8.24675,-1.07248 -18.06097,-2.53463 -21.80952,-3.24945 -3.74847,-0.71482 -7.15288,-1.29974 -7.56513,-1.29983 -0.41243,-8e-5 -0.61685,5.50291 -0.45436,12.22898 0.25901,10.7255 0.0978,12.42732 -1.31086,13.84155 -1.53796,1.54386 -1.92412,1.5075 -9.08726,-0.85617 -4.11461,-1.35776 -10.0373,-2.60326 -13.16173,-2.76771 l -5.68063,-0.29906 -6.55494,-7.21174 c -3.60523,-3.96649 -9.84083,-10.58586 -13.85704,-14.7097 l -7.30209,-7.49796 -11.81347,-2.30189 c -6.49736,-1.26603 -16.10717,-3.13094 -21.35509,-4.14429 -5.24792,-1.01336 -16.90232,-3.69405 -25.89871,-5.95709 -35.48695,-8.92682 -40.21233,-7.77528 -57.89937,14.10997 -31.15742,38.55278 -50.64075,62.38448 -74.81611,91.51355 -29.50852,35.55507 -33.39825,41.30911 -33.51641,49.58041 -0.0563,3.92268 0.29592,4.88102 2.48438,6.76449 6.33168,5.44917 9.01341,2.97427 42.9179,-39.60729 17.90355,-22.48532 22.85687,-27.79938 27.07355,-29.04496 7.7983,-2.30361 11.97194,-7.31964 16.35376,-19.65472 1.82948,-5.15029 3.35872,-7.52218 7.61638,-11.81347 2.93003,-2.95339 10.33986,-11.56713 16.46611,-19.14193 12.77515,-15.79535 15.47997,-17.78664 21.28227,-15.66743 2.7713,1.01215 7.42489,5.77569 22.97818,23.52024 18.74558,21.38665 19.59191,22.51715 21.78428,29.10032 4.14849,12.45693 9.79215,18.74635 20.45818,22.79918 2.63765,1.00223 5.50496,2.72116 6.37174,3.81991 10.88697,13.80056 43.31974,51.91499 45.75956,53.77588 9.56249,7.29371 26.36676,6.44199 38.55757,-1.95416 4.31774,-2.97375 5.80881,-3.4815 11.10208,-3.78064 5.81856,-0.32865 6.57042,-0.12253 15.53823,4.26127 12.63293,6.17519 19.25795,7.65959 33.95944,7.60859 11.7504,-0.0411 13.31301,-0.32147 24.08129,-4.32338 5.9493,-2.21102 13.28127,-1.37795 22.87781,2.59949 4.33605,1.79705 9.85658,3.67103 12.26774,4.16423 5.78947,1.1844 16.6867,0.57534 19.956,-1.11518 z m -204.12053,-1.98863 c 0.009,-0.99958 0.259,-2.73751 0.56037,-3.86202 l 0.54796,-2.04468 h -54.48145 c -29.9648,0 -67.42935,0.27056 -83.25457,0.6011 l -28.77312,0.60119 v 2.88228 c 0,1.58528 0.1808,3.06309 0.40181,3.28419 0.22093,0.2211 37.43341,0.39138 82.6942,0.37863 81.67469,-0.0231 82.29256,-0.0377 82.3048,-1.84069 z m -790.03865,-8.23349 c 5.5112,-1.52957 13.0607,-6.36524 14.509,-9.29321 l 1.028,-2.07822 1.4342,2.18885 c 0.7889,1.204 2.441,2.38147 3.6716,2.61669 3.0221,0.57774 9.5996,-2.03475 15.1338,-6.01065 2.5044,-1.79919 4.8002,-3.27118 5.1016,-3.27118 0.3016,0 1.7633,1.02225 3.2482,2.27177 3.5088,2.95253 6.0263,2.86748 10.3755,-0.35022 8.6763,-6.41906 16.3807,-16.51411 15.1637,-19.86898 -0.6691,-1.8448 -6.3433,-1.30505 -12.6021,1.19895 -3.2099,1.28409 -6.7555,2.20426 -7.8792,2.04451 -1.8785,-0.26679 -2.0796,-0.87577 -2.4974,-7.55991 -0.4459,-7.13447 -0.501,-7.27515 -2.9639,-7.55828 -2.8651,-0.32952 -9.7393,2.07574 -19.4113,6.79204 -6.7248,3.27914 -9.4645,5.42316 -12.3881,9.6946 -0.8769,1.28152 -5.5796,4.65478 -10.4503,7.49651 -4.8707,2.84172 -9.8115,6.03367 -10.9797,7.09306 -2.6506,2.40406 -4.6958,7.16887 -4.6776,10.89749 0.031,6.22508 2.6309,6.90267 14.184,3.69618 z m 432.28376,-12.0267 c 1.32548,-1.19946 1.60952,-2.40808 1.27128,-5.40904 -0.23956,-2.12537 -0.12442,-3.86441 0.25587,-3.86441 0.38029,0 3.48533,1.91308 6.90008,4.25117 11.17942,7.65471 19.39653,9.51295 23.57764,5.33186 2.64511,-2.6451 2.77681,-5.11529 0.53514,-10.0373 -1.84702,-4.05564 -5.28482,-7.38843 -16.14262,-15.64946 -10.22474,-7.77948 -14.11939,-9.69401 -18.34585,-9.01813 -2.80174,0.44803 -4.90827,-0.16967 -12.00482,-3.52043 -4.73375,-2.23506 -9.34932,-4.06557 -10.25684,-4.0678 -2.58249,-0.009 -5.37704,1.73331 -8.40774,5.23415 -3.5617,4.11417 -5.6551,3.69558 -12.8045,-2.56073 -4.6809,-4.09612 -5.6234,-4.55236 -8.9065,-4.3108 -3.4238,0.2519 -3.6911,0.47241 -3.9595,3.26561 -0.8251,8.58439 8.3829,17.52097 23.0061,22.32814 3.3836,1.11244 5.1236,2.36145 6.8154,4.89265 5.36927,8.03275 10.94336,12.83359 17.25996,14.86526 3.19755,1.0285 9.17875,0.10473 11.2069,-1.73074 z m -323.96176,-2.3777 c 2.5492,-1.29179 6.033,-3.57622 7.7419,-5.07662 1.7087,-1.50031 3.5848,-2.72784 4.1691,-2.72784 0.5843,0 1.6604,1.43126 2.3913,3.18057 2.1845,5.22833 4.503,4.57674 15.2098,-4.27435 2.8997,-2.39713 5.6414,-4.35864 6.0927,-4.35864 0.4512,0 1.0907,1.44136 1.4212,3.20281 1.5444,8.2328 12.1573,7.54956 21.8754,-1.40815 2.1552,-1.98658 4.2369,-3.61208 4.6258,-3.61208 0.3889,0 1.2502,1.22676 1.914,2.72622 1.0256,2.31695 1.7068,2.72492 4.5382,2.71757 2.0022,-0.009 5.1669,-1.06111 7.9308,-2.64647 5.3354,-3.06026 14.9385,-13.02243 14.9385,-15.49699 0,-3.91155 -0.9139,-4.56613 -6.3737,-4.56613 -5.2306,0 -5.3003,-0.0359 -9.1801,-4.66933 -5.8607,-7.00014 -12.2236,-8.80532 -20.6082,-5.84714 -5.1776,1.82683 -7.3239,0.98161 -9.3175,-3.66923 -3.5761,-8.34266 -9.8092,-6.39279 -36.7988,11.51202 -16.2288,10.76606 -25.3098,18.50891 -27.3475,23.31805 -1.8659,4.40364 -1.5623,9.59637 0.7319,12.51297 1.8146,2.30685 2.3453,2.46695 6.6907,2.0185 2.5958,-0.26791 6.8054,-1.54404 9.3545,-2.83574 z m 633.05316,2.19622 45.40223,-0.009 -4.50949,-4.58153 -4.50948,-4.58171 -47.70815,0.26269 c -26.23952,0.14443 -56.59373,0.46821 -67.45374,0.71943 l -19.7455,0.45701 -4.56297,3.61695 c -2.50964,1.98932 -4.56297,3.99772 -4.56297,4.46294 0,0.51725 12.09327,0.61437 31.12387,0.24977 17.11821,-0.32789 51.55493,-0.59836 76.5262,-0.60084 z m -414.80016,-4.84012 c 1.7623,-0.91042 2.2418,-1.82477 2.1379,-4.07584 -0.074,-1.59623 0.04,-2.90213 0.2531,-2.90213 0.2129,0 2.8173,1.22675 5.7876,2.72612 6.2681,3.16406 14.4726,3.76293 17.9724,1.31156 4.6286,-3.24192 1.5365,-12.43947 -6.3498,-18.88737 -16.0963,-13.1607 -30.3229,-23.99111 -35.7039,-27.18083 -5.9702,-3.539 -6.8637,-3.79202 -14.5396,-4.11785 -7.613,-0.3231 -8.4195,-0.1832 -11.6618,2.02372 -3.4401,2.34142 -3.5793,2.35793 -11.2861,1.33234 -4.2917,-0.57115 -11.1721,-0.86156 -15.29,-0.64542 -6.2513,0.32806 -8.5118,0.90794 -13.6981,3.5135 -4.3054,2.16327 -6.7336,4.03888 -7.9137,6.11333 -2.1776,3.82779 -2.1546,9.9276 0.045,12.1085 1.4939,1.48081 10.6516,4.4365 13.7454,4.4365 0.6975,0 5.4165,4.23063 10.4867,9.40129 9.8436,10.03875 15.0877,13.31695 21.3027,13.31695 5.3836,0 6.9176,-1.67222 7.4499,-8.12071 l 0.4579,-5.54612 6.3611,3.09183 c 3.5476,1.72433 7.9688,4.79297 9.996,6.93794 1.9992,2.11535 4.8617,4.39645 6.3611,5.06908 3.4829,1.56244 11.1437,1.61343 14.0852,0.0936 z m -353.6772,-7.35489 c 3.3492,-1.75453 8.0432,-6.80111 9.2137,-9.90552 1.3422,-3.56031 1.2034,-6.9488 -0.3088,-7.52902 -0.7001,-0.26876 -4.8916,1.90058 -9.3144,4.82069 -7.1239,4.70364 -8.0742,5.65042 -8.3305,8.30065 -0.509,5.26563 3.3175,7.15407 8.74,4.3132 z m 1091.48556,-3.03827 c 1.29273,-0.95192 2.74179,-3.02655 3.22001,-4.6102 0.47815,-1.58365 1.18013,-2.87946 1.5597,-2.87946 0.37957,0 3.22086,1.63576 6.31398,3.63492 15.8906,10.27072 18.49197,-2.19031 3.66667,-17.56426 -6.00612,-6.22825 -8.32282,-7.25495 -14.69995,-6.51489 -5.10194,0.59211 -5.32442,0.527 -7.29457,-2.13778 -2.46797,-3.33801 -5.99722,-4.91096 -10.86848,-4.84379 -5.68379,0.0779 -7.12061,0.86627 -8.10915,4.44651 -0.64081,2.3208 -3.15567,5.40331 -8.66867,10.6253 -5.81103,5.50428 -7.76399,7.9394 -7.75843,9.6733 0.0197,6.31373 7.24897,6.00184 16.19701,-0.69882 1.65715,-1.24104 3.12803,-2.11279 3.26853,-1.93738 0.1405,0.1755 1.44255,2.53831 2.89366,5.25092 4.87648,9.11635 13.69729,12.40268 20.27969,7.55563 z m -379.1492,-14.0037 c -0.30958,-5.08226 -0.88261,-9.50302 -1.27313,-9.82398 -0.3907,-0.32104 -3.07746,-0.41781 -5.97061,-0.21519 l -5.26033,0.36844 0.13844,9.45545 0.13845,9.45562 h 6.39501 6.39502 z m 21.18908,-0.30127 v -9.54179 h -6.8154 -6.81548 v 9.54179 9.54161 h 6.81548 6.8154 z m 10.56883,7.49693 c -0.30145,-1.12451 -0.55344,-5.62279 -0.56028,-9.99605 -0.0103,-6.45654 -0.26876,-7.95129 -1.37556,-7.95129 -1.12904,0 -1.36306,1.71645 -1.36306,9.99597 0,9.57378 0.0813,9.99605 1.92335,9.99605 1.55122,0 1.81741,-0.39574 1.37555,-2.04468 z m -166.41559,-15.52925 c 0.99959,-1.13135 2.83977,-3.39106 4.08927,-5.02169 l 2.27182,-2.96485 3.78755,2.08353 c 3.71867,2.0457 3.82217,2.05238 5.67958,0.37144 2.09061,-1.89195 2.44042,-5.65932 0.72717,-7.83329 -2.5003,-3.17287 -5.64589,-4.50196 -10.65493,-4.50196 -4.68011,0 -5.1765,-0.20699 -6.70576,-2.79578 -1.86921,-3.16431 -6.45169,-6.2831 -9.23947,-6.28823 -3.65835,-0.009 -11.14368,4.66684 -16.63617,10.38666 -4.69481,4.88914 -5.5789,6.32126 -5.5789,9.03712 0,2.26056 0.52646,3.50896 1.75771,4.16791 2.86532,1.53342 4.59873,1.11449 9.26778,-2.23986 2.43489,-1.74939 4.79859,-3.18056 5.25265,-3.18056 0.45405,0 1.7156,1.83846 2.80344,4.08576 3.71034,7.66456 8.91511,9.51834 13.17826,4.6938 z m 155.39249,-17.12069 v -7.88677 l -6.67781,-0.29178 c -3.67282,-0.16052 -6.7863,-0.0875 -6.91868,0.16258 -0.13245,0.24993 -0.0402,4.0494 0.20545,8.44312 l 0.44622,7.98902 6.47246,-0.26474 6.47236,-0.26466 z m 10.31641,0.66194 c -0.18627,-4.46243 -0.78985,-8.14852 -1.44118,-8.7995 -0.6165,-0.61616 -1.29042,-0.94319 -1.49766,-0.72654 -0.20724,0.21657 -0.15735,4.17638 0.1109,8.7995 0.38016,6.55169 0.78113,8.40573 1.81801,8.40573 1.08831,0 1.27211,-1.39729 1.00993,-7.67919 z m -238.5656,3.9018 2.24509,-2.86868 3.4802,2.86868 c 5.18758,4.27606 8.51846,3.47431 8.51846,-2.05016 0,-2.14539 -1.09953,-3.77781 -5.08069,-7.54245 -2.79439,-2.64253 -5.60381,-4.80452 -6.24317,-4.80452 -0.63937,0 -3.97581,-2.05794 -7.41432,-4.57298 -7.74412,-5.66437 -9.7776,-6.26923 -12.49462,-3.71681 -2.56548,2.41014 -3.47913,2.40432 -9.42548,-0.0599 -4.98283,-2.06522 -5.9208,-1.84566 -6.96782,1.63191 -0.47054,1.56269 0.80545,3.15738 6.9405,8.67338 18.0435,16.22301 22.01871,18.09357 26.44185,12.44186 z m 206.8776,-5.0827 -0.0163,-7.95137 -2.70251,4.90267 c -1.48628,2.69643 -3.74872,6.27453 -5.02776,7.95128 l -2.32542,3.04871 h 5.04436 5.04419 z m -624.52648,2.92524 c 1.8313,-0.76521 4.7243,-2.45497 6.4291,-3.75522 l 3.0993,-2.3641 2.016,2.52821 c 1.828,2.29257 2.4183,2.48295 6.3318,2.04186 4.9705,-0.56029 9.5092,-3.7643 13.6764,-9.65465 3.5721,-5.04915 3.6354,-9.5375 0.1765,-12.51271 -1.3774,-1.18466 -3.27,-2.15403 -4.2061,-2.15403 -2.8616,0 -4.5578,-2.54884 -4.5578,-6.84869 0,-3.17021 -0.5811,-4.65452 -2.8204,-7.20498 -2.383,-2.71415 -3.4046,-3.21 -6.5883,-3.19888 -4.205,0.0146 -7.9853,1.76129 -29.5371,13.64595 -16.1741,8.91912 -21.4695,13.28922 -22.4437,18.52174 -1.7349,9.31854 5.6133,8.99142 21.1782,-0.94285 l 4.7708,-3.04503 v 6.73933 c 0,4.9149 0.3866,7.12575 1.4281,8.16726 1.8138,1.81391 6.7547,1.83034 11.0472,0.0368 z m 133.3822,-16.19384 c 5.21,-2.42622 9.9297,-7.375 12.4349,-13.03843 0.9508,-2.1495 1.9504,-3.90821 2.2212,-3.90821 0.2707,0 2.5783,1.82477 5.1277,4.05487 5.5305,4.83806 8.3528,5.63768 13.0178,3.68857 2.709,-1.13186 3.9882,-1.22924 5.8757,-0.44751 1.3269,0.54968 4.1994,0.87089 6.3831,0.71379 3.3351,-0.23984 4.1026,-0.66339 4.7958,-2.64672 1.5764,-4.50966 -0.1202,-8.97833 -5.4212,-14.27947 -2.7153,-2.71518 -7.2323,-8.83707 -10.0378,-13.60402 -6.1598,-10.46632 -10.6099,-15.46841 -16.2813,-18.3009 -3.7088,-1.85224 -5.0737,-2.05341 -10.5058,-1.54857 -6.1356,0.57021 -14.2549,3.13308 -21.3085,6.72607 -1.9657,1.00121 -5.7155,2.4554 -8.3326,3.23131 -4.2488,1.25944 -4.9059,1.26321 -6.1339,0.0359 -0.7613,-0.76128 -1.3754,-2.96957 -1.3754,-4.94545 0,-3.00661 -0.2974,-3.57006 -1.8847,-3.57006 -3.774,0 -34.1884,22.99418 -41.6965,31.52389 -2.8529,3.24115 -3.6726,4.91011 -3.6726,7.47725 0,9.44766 6.2832,9.68117 23.4707,0.87234 13.851,-7.09888 13.325,-6.89737 12.4927,-4.78415 -0.3713,0.94276 -1.3111,4.26186 -2.0883,7.37586 -1.7001,6.81052 -0.8869,8.42361 4.2469,8.42361 3.8913,0 9.4854,-3.36907 14.9958,-9.03113 1.9756,-2.03013 3.8188,-3.69105 4.0958,-3.69105 0.2771,0 0.3579,1.8323 0.1798,4.07173 -0.4274,5.37473 2.2408,13.70199 5.1147,15.96264 3.0607,2.40757 8.6428,2.26621 14.286,-0.3616 z m -194.02,-1.9959 c 1.9029,-1.9023 2.2398,-3.02356 2.0753,-6.90619 -0.1082,-2.54935 -0.8618,-5.65025 -1.6746,-6.89087 -1.8488,-2.82153 -4.6398,-2.43768 -13.1078,1.80278 -7.6101,3.81093 -11.8286,7.49959 -11.8286,10.34277 0,3.8336 2.8934,3.81204 12.033,-0.0899 1.1136,-0.4754 1.7613,-0.17635 2.1857,1.00882 1.6831,4.70167 6.0373,5.0109 10.317,0.73262 z m 990.44839,-0.37632 c 1.4642,-0.78361 2.48756,-2.68951 4.03109,-7.50755 0.45888,-1.43194 0.91298,-1.37452 5.31046,0.67264 5.61081,2.61224 7.74208,2.78285 10.51322,0.84196 2.26424,-1.58613 2.54652,-4.33074 1.02285,-9.94454 -1.77943,-6.55622 -18.16356,-20.41206 -24.16686,-20.43781 -2.42716,-0.0111 -3.20863,1.13477 -3.44633,5.0512 -0.22521,3.71108 -2.70782,7.66242 -4.81402,7.66242 -0.86712,0 -3.4969,-1.02234 -5.84414,-2.27186 -4.92243,-2.62037 -8.47444,-2.85114 -13.24011,-0.86045 -5.44892,2.27614 -8.37655,5.64238 -8.37655,9.63137 0,5.452 4.55809,6.6951 12.50073,3.40954 l 2.95921,-1.22419 7.49112,7.36739 c 4.12016,4.05197 8.10479,7.58626 8.85443,7.85382 2.23481,0.79773 5.46269,0.68847 7.2049,-0.24394 z m -592.69039,-4.80563 c 1.0283,-1.12451 2.5279,-3.34777 3.3325,-4.94032 0.8046,-1.59263 1.8493,-3.13453 2.3215,-3.42631 0.4722,-0.29186 4.00346,1.5223 7.84724,4.03161 5.28619,3.45086 7.82997,4.56228 10.4421,4.56228 3.66393,0 6.31277,-1.84095 6.30433,-4.38131 -0.0165,-4.97548 -2.32851,-9.08042 -8.95488,-15.89941 -11.93655,-12.2834 -16.34919,-14.73066 -22.40809,-12.42706 -4.1593,1.58143 -8.6666,-2.31036 -10.8044,-9.32881 -0.7107,-2.33347 -4.449,-3.72066 -8.1535,-3.02578 -1.8563,0.34834 -5.4322,2.43315 -8.4753,4.94142 -2.8952,2.38643 -6.6953,5.30183 -8.4446,6.47853 -11.5252,7.7532 -16.3571,13.18552 -16.3571,18.3898 0,5.5397 7.2805,6.41093 13.8927,1.66237 3.3194,-2.38386 4.5618,-2.85036 5.3884,-2.0238 1.9781,1.97803 4.8565,1.10431 8.4351,-2.56055 4.5486,-4.65821 5.9067,-4.66847 5.9067,-0.0445 0,7.15647 1.8145,12.68727 5.3983,16.45456 3.0771,3.23473 3.8465,3.58213 7.9335,3.58213 3.5338,0 4.9358,-0.44811 6.3955,-2.04468 z m 665.33993,-0.27108 2.75214,-2.31549 1.91103,1.91102 c 1.45821,1.45822 2.8146,1.84549 5.72332,1.63414 3.53618,-0.25687 3.83241,-0.48302 4.08893,-3.12033 0.22299,-2.29282 -0.27586,-3.26048 -2.57664,-4.99798 -1.56927,-1.185 -5.60019,-4.91499 -8.95745,-8.28859 -3.35743,-3.37369 -6.54775,-6.13395 -7.08964,-6.13395 -2.2236,0 -16.42453,8.32538 -19.35088,11.34448 -3.63355,3.74898 -3.17072,5.79332 1.62327,7.16827 2.20615,0.63268 3.48339,0.40952 5.93502,-1.03688 l 3.12383,-1.84318 1.24011,2.32799 c 1.25037,2.3469 5.78476,5.6565 7.75876,5.66292 0.58638,0 2.30463,-1.03868 3.8182,-2.31242 z m -571.5302,-5.3577 c 5.27083,-4.95041 6.06849,-6.08407 5.15738,-7.33008 -0.97846,-1.33808 -1.23446,-1.30094 -2.77709,0.4037 -2.27904,2.51829 -9.11763,2.5022 -17.21815,-0.0402 -3.36085,-1.05495 -6.39444,-1.62344 -6.74132,-1.26338 -0.66424,0.68949 13.16857,14.08618 14.54473,14.08618 0.43959,0 3.60511,-2.63517 7.03445,-5.85604 z m -165.85383,-10.11157 c 5.4562,-5.45627 -4.0312,-18.82558 -20.7232,-29.20249 -12.0729,-7.50523 -16.922,-9.30613 -25.1275,-9.33206 -7.624,-0.0231 -8.5193,-0.43767 -15.9878,-7.38629 -6.1828,-5.75259 -12.623,-7.77306 -19.9366,-6.25486 -8.347,1.73296 -14.0935,8.09161 -14.1986,15.71184 -0.045,3.31516 0.409,4.18511 3.7263,7.12892 4.5076,4.00011 10.5197,6.22645 16.8226,6.22936 h 4.609 l 2.6053,4.98617 c 4.8891,9.35688 14.2102,15.17356 19.5336,12.18962 1.3182,-0.73886 2.9321,-2.45702 3.5864,-3.81812 l 1.1897,-2.47464 4.2626,3.54524 c 9.7584,8.11617 17.3587,9.49182 19.5104,3.53113 0.2842,-0.78712 1.2458,-0.37623 3.0345,1.29667 5.2003,4.86321 14.079,6.86152 17.0933,3.84729 z m 218.06246,-5.92774 c 1.33084,-1.04681 3.24319,-3.51752 4.24965,-5.49033 l 1.82994,-3.587 4.73299,4.00345 c 5.87787,4.97189 7.9539,6.0685 11.48872,6.0685 5.44489,0 7.96235,-5.28788 5.12751,-10.76982 -2.10641,-4.07336 -8.95879,-9.80627 -12.51944,-10.47428 -2.4074,-0.45162 -3.88714,-1.54849 -5.78641,-4.28907 -1.40351,-2.02526 -3.38384,-4.26503 -4.40073,-4.97728 -4.46287,-3.12589 -17.91772,0.11141 -21.69281,5.21943 -1.10852,1.49997 -4.96038,4.98301 -8.55967,7.74019 -8.45798,6.47904 -11.17952,10.69436 -9.1946,14.24123 1.85184,3.30909 7.42234,1.48328 19.14649,-6.27522 l 3.40773,-2.25509 v 2.79911 c 0,8.05637 6.60568,12.42347 12.17063,8.04618 z m 483.28203,-12.37503 c 2.39114,-2.3552 4.34769,-4.78467 4.34769,-5.39878 0,-1.93695 -1.50014,-2.15129 -4.51771,-0.64602 -2.89948,1.4464 -8.41471,1.37376 -12.17147,-0.16026 -1.4601,-0.59623 -1.60385,-0.38967 -1.03715,1.48978 0.72834,2.41552 6.66173,8.99759 8.1107,8.99759 0.50612,0 2.87672,-1.92703 5.26794,-4.28231 z m -1025.99409,0.9609 c 0.9139,-0.82708 1.6619,-2.06436 1.6619,-2.74949 0,-1.03286 0.4423,-1.01677 2.5909,0.0943 2.9126,1.50621 4.6789,0.56379 4.6789,-2.49638 0,-1.75932 -10.2632,-12.64509 -12.7507,-13.52419 -2.0961,-0.74074 -5.5644,1.44965 -10.2833,6.49461 -5.2586,5.62193 -5.5027,8.52124 -0.7558,8.97671 1.6919,0.16232 3.9874,-0.34594 5.2251,-1.15685 2.1578,-1.41389 2.2076,-1.38865 2.2076,1.11894 0,4.55501 4.0303,6.31485 7.4254,3.24235 z m 1059.44878,-8.50678 c 0.94901,-0.508 2.20006,-2.50682 2.77977,-4.44206 1.01259,-3.37977 1.18423,-3.50093 4.35359,-3.07584 4.05676,0.5442 7.51379,-2.39199 5.90541,-5.01552 -1.4097,-2.29941 -12.78379,-5.88171 -16.47552,-5.18914 -3.82052,0.71679 -15.07096,11.37837 -14.60403,13.83967 0.45316,2.389 4.78304,2.56552 7.93195,0.32327 3.03014,-2.15763 3.71997,-2.30609 3.71997,-0.80073 0,0.99436 3.4969,5.28386 4.30747,5.28386 0.1956,0 1.13221,-0.41559 2.08139,-0.92351 z M -1350.179,139.26862 c 2.1985,-1.13674 3.2266,-1.24087 4.4862,-0.45427 3.8163,2.38318 8.5517,-0.41645 11.2105,-6.62792 1.0206,-2.38438 1.192,-2.46935 1.7073,-0.84557 0.7182,2.26288 6.0425,4.86545 9.8997,4.83901 3.9468,-0.0265 9.6148,-2.77088 12.8614,-6.22645 1.468,-1.56244 3.1672,-2.84079 3.7761,-2.84079 0.6089,0 2.7908,1.40662 4.8484,3.12581 4.8425,4.04572 6.8876,4.64639 9.6518,2.83539 2.6912,-1.76343 2.8074,-3.98779 0.4496,-8.60929 -2.2765,-4.46251 -6.4415,-7.95283 -10.9335,-9.16238 -1.9478,-0.52452 -5.219,-2.56561 -7.2702,-4.53636 -3.6605,-3.51701 -8.182,-5.44755 -12.7825,-5.45756 -1.2985,0 -4.9026,1.81845 -8.1786,4.13283 -3.2214,2.27579 -10.4758,6.8255 -16.1211,10.11028 -10.628,6.18419 -14.2919,9.70753 -15.2913,14.70457 -1.1511,5.75567 5.0806,8.42874 11.6862,5.0127 z m 528.72324,-3.10073 c 4.2695,-2.28487 -0.34276,-9.04097 -9.33802,-13.67829 -6.34258,-3.26973 -8.1848,-1.87047 -5.32236,4.04272 2.12027,4.37977 4.65489,7.04669 8.69389,9.14724 3.23175,1.68086 3.67122,1.7168 5.96649,0.48833 z m -159.92594,-17.1639 c 1.78484,-1.7849 2.65629,-3.57357 2.65629,-5.45242 0,-1.53779 0.21467,-2.79604 0.47704,-2.79604 0.26237,0 3.4108,1.47738 6.99649,3.28316 7.16847,3.60994 15.31758,4.98429 18.72901,3.15849 2.57945,-1.38043 2.60584,-5.71964 0.0566,-9.2998 -1.05129,-1.47644 -4.37563,-4.73513 -7.3874,-7.24152 -3.01177,-2.506393 -7.56992,-6.984307 -10.1292,-9.950873 -2.5593,-2.966481 -5.29677,-5.393811 -6.08326,-5.393811 -0.89586,-8.6e-5 -1.74446,1.269283 -2.27182,3.398074 -1.21716,4.913102 -3.37637,4.871004 -8.19683,-0.159837 -4.37218,-4.563138 -17.75682,-16.307128 -21.04002,-18.461247 -1.4694,-0.963898 -3.7624,-1.230778 -8.1785,-0.951577 -8.9492,0.565761 -18.9118,5.023995 -26.408,11.817406 -3.2488,2.944147 -7.7864,6.433777 -10.0836,7.754827 -6.6731,3.837198 -14.6667,10.399923 -16.1416,13.252258 -2.4455,4.72905 -0.2656,7.83209 5.5312,7.87325 1.9727,0.0137 13.8552,-5.14901 16.0468,-6.97241 2.1936,-1.82521 2.6546,-1.47293 2.6546,2.02816 0,4.39013 3.3122,7.68287 7.7281,7.68287 4.3472,0 7.2722,-1.66006 12.6842,-7.19839 2.4802,-2.53831 5.0126,-4.61508 5.6276,-4.61508 0.6149,0 2.5651,0.85378 4.3337,1.89734 2.2265,1.3136 4.3644,1.80278 6.9504,1.59024 3.7206,-0.30582 3.7527,-0.28117 8.42269,6.47553 4.75566,6.88086 9.43509,10.9377 12.61627,10.9377 0.96414,0 2.9483,-1.19544 4.40925,-2.6563 z m 393.24115,-9.0692 0.28631,-4.0014 -7.55615,0.58818 c -4.15584,0.32352 -9.08957,0.59057 -10.9638,0.59357 -3.37352,0.009 -3.40774,0.0428 -3.40774,3.66914 v 3.66393 l 10.67758,-0.25618 10.6775,-0.25602 z m -659.95045,-5.81702 c 4.4865,-2.65126 10.4797,-6.536032 13.3182,-8.632993 2.8385,-2.096875 5.3636,-3.812469 5.6112,-3.812469 0.2478,0 0.2242,1.942343 -0.053,4.316366 -0.4337,3.724166 -0.2096,4.589236 1.6332,6.303546 4.8963,4.55552 10.899,2.70448 19.3731,-5.973946 2.9831,-3.055127 5.7434,-5.55476 6.134,-5.55476 0.3904,0 0.7099,1.195354 0.7099,2.656475 0,3.320466 3.9993,8.248281 6.694,8.248281 2.9085,0 5.8708,-2.407988 7.3668,-5.988317 1.2371,-2.960919 1.5352,-3.126232 5.212,-2.892552 l 3.8998,0.24797 -0.1085,-4.548849 c -0.1237,-5.185286 -4.8352,-17.470566 -7.6918,-20.055594 -2.1406,-1.937295 -12.048,-2.99737 -13.0382,-1.395236 -0.3432,0.555322 -1.6447,1.009677 -2.8924,1.009677 -1.8665,0 -2.6739,-0.885692 -4.5566,-4.998069 -1.2586,-2.748887 -2.8847,-4.997984 -3.6139,-4.997984 -2.8508,0 -8.1292,3.000964 -23.6982,13.473361 -17.7272,11.924106 -27.7606,19.91133 -30.9411,24.630797 -2.7636,4.101086 -2.7828,9.449286 -0.041,11.369986 3.7453,2.62344 7.9212,1.77087 16.6815,-3.40569 z m -39.9013,-2.12546 c -1.2374,-7.624509 -10.6053,-11.564728 -10.6053,-4.460542 0,3.003272 5.7013,7.683382 9.4334,7.743702 1.4615,0.0231 1.6313,-0.45196 1.1719,-3.28316 z m 432.68393,-2.680175 c 1.65583,-1.702845 3.38118,-3.096284 3.83412,-3.096284 0.45292,0 2.45544,0.85061 4.45005,1.890234 6.71293,3.499125 9.82501,0.276378 5.61977,-5.819586 -3.81816,-5.534994 -6.05051,-7.29551 -8.45382,-6.66703 -1.63454,0.427487 -2.91716,-0.403014 -6.33606,-4.102451 -4.09087,-4.426575 -4.45683,-4.61559 -8.01212,-4.138732 -4.62549,0.620438 -5.51221,1.349715 -11.55149,9.50191 -2.67576,3.611903 -5.66961,6.99757 -6.653,7.523971 -2.38075,1.27416 -4.60543,5.676433 -3.64986,7.222613 1.26418,2.04553 7.87073,0.52024 13.26781,-3.063346 2.69742,-1.790977 5.11516,-3.256291 5.37275,-3.256291 0.2576,0 0.46835,0.944133 0.46835,2.098158 0,2.352033 1.58259,4.720839 3.63491,5.440699 2.32327,0.81485 4.87529,-0.31129 8.00859,-3.533865 z M -1099.359,90.129813 c 1.1189,-0.62771 0.774,-4.730076 -0.6253,-7.436095 -1.6207,-3.134018 -8.811,-8.681077 -17.7764,-13.7138 -3.7485,-2.104234 -9.4735,-5.781766 -12.7222,-8.172474 -8.4726,-6.234666 -11.3959,-7.589172 -13.7081,-6.351805 -1.0329,0.552926 -3.0798,3.683521 -4.5486,6.957183 l -2.6704,5.951785 -3.6447,-0.582788 c -7.0863,-1.133148 -5.2877,4.005676 4.7887,13.681456 11.4537,10.998541 21.7278,13.177132 24.371,5.168003 l 1.0321,-3.127002 3.3239,2.025171 c 10.3478,6.304487 17.642,8.146376 22.18,5.600366 z M -438.95283,64.27688 c 2.60993,-2.85747 2.61421,-2.858411 5.76551,-1.363063 7.2671,3.448472 12.31848,0.530593 11.20527,-6.472367 -0.38299,-2.409105 -1.53411,-4.24954 -3.97812,-6.360533 -5.26127,-4.544143 -9.56044,-8.817641 -12.12237,-12.049888 -2.30565,-2.909152 -2.34193,-2.919334 -5.17981,-1.45171 -1.57184,0.812704 -5.7673,4.961019 -9.32316,9.218345 -3.55586,4.257412 -7.63991,8.609117 -9.07579,9.67056 -2.98257,2.205287 -5.01852,6.388513 -4.17673,8.582335 0.76205,1.985896 5.23227,1.106964 9.82398,-1.931648 4.06618,-2.690959 4.35085,-2.730576 4.35085,-0.606063 0,2.851138 3.4027,5.623726 6.90208,5.623726 2.42554,0 3.82625,-0.68966 5.80829,-2.859694 z m -885.54347,-2.495783 c 2.499,-1.43665 5.3226,-3.477479 6.2747,-4.535072 2.3183,-2.575188 3.0117,-2.427416 3.7189,0.792168 0.7636,3.477137 4.4459,6.37217 8.1048,6.37217 2.2893,0 3.9346,-1.086771 8.2547,-5.452338 2.9675,-2.998739 6.0473,-5.452338 6.8442,-5.452338 0.7968,0 2.6497,1.269369 4.1177,2.820505 3.3316,3.520862 5.6782,4.453186 8.5157,3.383443 1.4501,-0.546594 3.7391,-0.442461 6.6456,0.302475 5.0346,1.290332 6.8042,0.648931 8.6652,-3.140864 2.3714,-4.829076 -3.2379,-12.192269 -10.9752,-14.406883 -2.5524,-0.730646 -5.7826,-2.954758 -9.7279,-6.698518 -4.7876,-4.542602 -6.8236,-5.82395 -10.7455,-6.761579 -6.4355,-1.538644 -13.4241,-0.855059 -18.8751,1.846338 -3.8405,1.903326 -4.6452,2.789445 -5.8198,6.408963 -1.6554,5.101091 -2.7878,6.507707 -8.1263,10.09548 -6.2406,4.194007 -8.9899,7.032909 -10.1166,10.446727 -2.1915,6.640505 4.9068,8.773146 13.2449,3.979323 z m 329.97512,-21.82364 c 1.55823,-0.950208 3.09497,-2.770792 3.41498,-4.045722 0.32001,-1.275016 0.99094,-3.394309 1.49093,-4.70937 l 0.90909,-2.391136 5.73244,3.15096 c 7.50337,4.124357 10.94194,4.863902 13.8269,2.973583 3.25135,-2.130417 2.85834,-5.312695 -1.21627,-9.848452 -1.89813,-2.113047 -4.15108,-4.957853 -5.00655,-6.321942 -1.98838,-3.17047 -5.34377,-4.869464 -11.17582,-5.659151 -3.88513,-0.525973 -5.43663,-1.365544 -9.54165,-5.1636384 -7.29157,-6.746178 -9.69837,-8.04566565 -14.89817,-8.0437832 -7.2462,0 -10.9758,1.4287776 -13.2159,5.0532589 -1.0845,1.7547832 -6.3783,6.4437027 -11.7639,10.4196887 -5.3857,3.975985 -10.479,8.277378 -11.3184,9.558554 -2.0733,3.164138 -1.4964,6.086637 1.4017,7.101447 3.733,1.307189 8.2186,-0.04022 14.7765,-4.438297 3.3428,-2.241909 6.2561,-4.076098 6.4741,-4.076098 0.2181,0 0.8988,1.676748 1.5128,3.726048 1.8417,6.146875 7.3076,7.92981 11.827,3.857819 1.372,-1.236169 1.7362,-0.977931 3.9506,2.80074 2.6629,4.543971 6.2162,7.791792 8.51875,7.786487 0.80724,0 2.74264,-0.780874 4.30087,-1.730996 z m -209.59592,-4.158241 c 1.4346,-0.742026 4.1217,-3.19554 5.971,-5.452423 1.8493,-2.256798 3.7857,-4.103308 4.303,-4.103308 0.5174,0 2.2061,0.961674 3.7528,2.137177 7.53,5.722897 14.3925,6.811123 18.3015,2.902221 4.5275,-4.527543 2.1282,-11.591769 -5.8945,-17.355566 -2.494,-1.791748 -6.0146,-5.2740189 -7.8237,-7.7384848 -3.8426,-5.23465835 -6.3594,-5.75216025 -10.6039,-2.1808153 -2.9948,2.5199981 -4.8855,2.4045698 -9.0705,-0.5537818 -3.1898,-2.2548297 -4.6802,-1.6644257 -14.407,5.707666 -4.2208,3.1989629 -9.179,6.7309469 -11.0182,7.8488639 -8.4737,5.150205 -11.2234,11.994356 -5.8494,14.558677 3.8041,1.815279 8.8649,0.02225 14.3062,-5.066778 l 4.429,-4.142839 v 3.245853 c 0,9.550083 6.0627,14.093113 13.6037,10.193538 z m 63.333,-20.976111 c 0.9466,-2.466691 -1.4129,-5.3324601 -7.6466,-9.2872254 -6.3317,-4.016886 -9.5199,-4.64596566 -12.4214,-2.4505186 -1.7197,1.3012845 -1.7197,1.3469766 0,3.2699822 0.9593,1.0725672 4.3979,3.7371718 7.6413,5.9211528 6.2872,4.233795 11.3789,5.277184 12.4267,2.546609 z m -47.9415,-47.604014 c 2.4535,-1.251656 4.051,-2.992407 5.4209,-5.906778 1.1047,-2.350235 2.5638,-4.132143 3.3834,-4.132143 0.7927,0 3.846,1.686844 6.7851,3.748466 6.0584,4.249711 9.4734,4.749158 11.9088,1.74135 l 1.6253,-2.007117 2.7062,1.927113 c 7.9042,5.628261 15.5082,6.695694 15.5082,2.176965 0,-3.582811 -9.0943,-12.997444 -17.0606,-17.66155 -3.1746,-1.858488 -5.3844,-3.965546 -6.5448,-6.240313 -2.9127,-5.70912 -6.2562,-9.025308 -10.1598,-10.076313 -5.2354,-1.409782 -8.4945,-0.352274 -13.8436,4.491862 -2.9167,2.641416 -6.8783,5.078159 -10.393,6.392535 -3.8301,1.432286 -6.63,3.222322 -8.5978,5.496746 -1.6049,1.854895 -5.0749,4.911562 -7.711,6.792555 -5.0403,3.596587 -6.5661,5.574782 -6.5661,8.513111 0,4.179804 8.1639,4.003025 14.4376,-0.312486 4.5213,-3.11006 4.6457,-3.139922 4.6457,-1.110986 0,2.637908 2.3381,6.019468 4.8681,7.040439 3.1423,1.268085 5.878,1.018831 9.5874,-0.873456 z m 595.10131,118.497923 c -0.27629,-0.276291 0.0642,-2.38583 0.75726,-4.687978 2.8674,-9.527494 1.5982,-12.377519 -11.51117,-25.84934 -12.45179,-12.795765 -15.23019,-17.469881 -16.02484,-26.959042 -1.498,-17.888812 7.99142,-32.9328179 28.79571,-45.65106 15.57734,-9.522788 20.90851,-16.166373 20.89183,-26.034761 -0.0111,-6.35172 -2.8828,-13.035007 -7.37671,-17.165353 -1.68565,-1.549254 -6.37072,-5.298662 -10.41131,-8.332054 -8.08211,-6.067642 -15.0719,-13.344413 -17.62484,-18.348557 -6.32091,-12.390012 -7.68295,-29.277359 -3.38156,-41.925439 6.35352,-18.68209 20.56309,-33.01693 39.94228,-40.29439 12.56996,-4.7204 30.78974,-5.39252 40.53877,-1.49552 10.844,4.33485 17.38962,11.04834 17.38962,17.83585 0,5.95803 -3.1229,8.43807 -16.03674,12.7357 -10.38453,3.45583 -18.35464,7.60115 -20.74132,10.78771 -9.9223,13.24763 -8.91733,26.61113 2.74349,36.481826 15.36488,13.006 18.42129,15.974962 22.41961,21.776922 2.73793,3.973247 5.23919,9.107964 6.7271,13.810232 2.06342,6.521055 2.32388,8.686896 2.02174,16.811453 -0.31685,8.514481 -0.64131,9.945398 -3.72921,16.443606 -6.23193,13.114241 -16.65076,21.529722 -41.63101,33.6260722 -19.65976,9.5197928 -24.36828,14.6228508 -23.34252,25.2980388 0.34449,3.586747 1.47336,6.008944 5.60816,12.033973 8.23425,11.998292 9.34986,18.942384 4.48108,27.888116 -2.44624,4.494428 -7.592,9.25625 -11.68418,10.812007 -2.56253,0.974338 -8.00117,1.222137 -8.82124,0.401988 z m 95.71501,-159.991085 c -3.96914,-4.509231 -5.20214,-8.423866 -4.16671,-13.229498 1.67786,-7.787513 5.71596,-12.233854 20.90586,-23.018991 6.60765,-4.69149 13.70866,-10.49508 15.77996,-12.89665 6.51266,-7.55101 10.07511,-17.3548 10.10591,-27.81111 0.0146,-5.06352 1.28152,-8.56419 2.19391,-6.06379 4.13848,11.34149 4.90626,18.58404 2.9474,27.80538 -2.80057,13.18414 -9.88156,22.31102 -25.62191,33.025396 -12.55652,8.547167 -16.6481,14.158572 -16.75121,22.973901 -0.0214,1.874319 -0.41422,3.407744 -0.8714,3.407744 -0.45735,0 -2.49219,-1.88664 -4.52181,-4.192382 z"
       id="path6" /></g></svg>
