<?xml version="1.0" encoding="UTF-8" standalone="no"?>
<!-- Created with Inkscape (http://www.inkscape.org/) -->

<svg
   width="508mm"
   height="285.75mm"
   viewBox="0 0 508.00001 285.75"
   version="1.1"
   id="svg8"
   inkscape:version="1.4.2 (f4327f4, 2025-05-13)"
   sodipodi:docname="58.svg"
   xmlns:inkscape="http://www.inkscape.org/namespaces/inkscape"
   xmlns:sodipodi="http://sodipodi.sourceforge.net/DTD/sodipodi-0.dtd"
   xmlns="http://www.w3.org/2000/svg"
   xmlns:svg="http://www.w3.org/2000/svg"
   xmlns:rdf="http://www.w3.org/1999/02/22-rdf-syntax-ns#"
   xmlns:cc="http://creativecommons.org/ns#"
   xmlns:dc="http://purl.org/dc/elements/1.1/">
  <defs
     id="defs2" />
  <sodipodi:namedview
     id="base"
     pagecolor="#eeeeee"
     bordercolor="#666666"
     borderopacity="1.0"
     inkscape:pageopacity="0"
     inkscape:pageshadow="2"
     inkscape:zoom="0.5"
     inkscape:cx="937"
     inkscape:cy="377"
     inkscape:document-units="px"
     inkscape:current-layer="layer2"
     showgrid="false"
     fit-margin-top="0"
     fit-margin-left="0"
     fit-margin-right="0"
     fit-margin-bottom="0"
     inkscape:showpageshadow="false"
     borderlayer="true"
     inkscape:window-width="1920"
     inkscape:window-height="991"
     inkscape:window-x="-9"
     inkscape:window-y="-9"
     inkscape:window-maximized="1"
     inkscape:snap-smooth-nodes="true"
     inkscape:snap-global="false"
     showborder="true"
     inkscape:pagecheckerboard="0"
     inkscape:deskcolor="#d1d1d1" />
  <metadata
     id="metadata5">
    <rdf:RDF>
      <cc:Work
         rdf:about="">
        <dc:format>image/svg+xml</dc:format>
        <dc:type
           rdf:resource="http://purl.org/dc/dcmitype/StillImage" />
      </cc:Work>
    </rdf:RDF>
  </metadata>
  <g
     inkscape:groupmode="layer"
     id="layer2"
     inkscape:label="Layer 1"
     transform="translate(1330.8541,391.31876)">
    <path
       style="opacity:1;vector-effect:none;fill:#f8ece0;fill-opacity:1;fill-rule:nonzero;stroke:none;stroke-width:39.6875;stroke-linecap:square;stroke-linejoin:miter;stroke-miterlimit:4;stroke-dasharray:none;stroke-dashoffset:0;stroke-opacity:1"
       d="m -1330.8541,-391.31876 h 507.99997 v 285.75 h -507.99997 z"
       id="rect1894" />
    <path
       inkscape:connector-curvature="0"
       id="path1912"
       d="m -986.05329,-239.92087 c -12.64118,0 -22.92161,10.28039 -22.92161,22.92143 v 0 1.52801 22.92165 0 c 0,12.64106 10.28043,22.92143 22.92161,22.92143 12.64109,0 22.92153,-10.28037 22.92153,-22.92143 v -22.92165 -1.52801 c 0,-12.64104 -10.28044,-22.92143 -22.92153,-22.92143 z m 0,3.05603 c 10.98941,0 19.86531,8.87607 19.86531,19.8654 v 1.52801 22.92165 c 0,10.98937 -8.8759,19.86531 -19.86531,19.86531 -10.98931,0 -19.86521,-8.87594 -19.86521,-19.86531 v -22.92165 -1.52801 c 0,-10.98933 8.8759,-19.8654 19.86521,-19.8654 z m 0,3.05631 c -9.26542,0 -16.80901,7.54386 -16.80901,16.80909 v 0 1.52801 22.92165 0 c 0,9.26527 7.54359,16.80909 16.80901,16.80909 9.26533,0 16.8089,-7.54382 16.8089,-16.80909 v -22.92165 -1.52801 c 0,-9.26523 -7.54357,-16.80909 -16.8089,-16.80909 z m 0,3.05623 c 7.61346,0 13.75288,6.13929 13.75288,13.75286 v 1.52801 22.92165 c 0,7.61359 -6.13942,13.75287 -13.75288,13.75287 -7.61375,0 -13.75297,-6.13928 -13.75297,-13.75287 v -22.92165 -1.52801 c 0,-7.61357 6.13922,-13.75286 13.75297,-13.75286 z m 0,3.05612 c -5.88966,0 -10.69676,4.80725 -10.69676,10.69674 v 1.52801 22.92165 c 0,5.88951 4.8071,10.69675 10.69676,10.69675 5.88938,0 10.69666,-4.80724 10.69666,-10.69675 v -22.92165 -1.52801 c 0,-5.88949 -4.80728,-10.69674 -10.69666,-10.69674 z m 0,3.05622 c 4.2379,0 7.64045,3.40274 7.64045,7.64052 h -2e-4 v 1.52801 22.92165 h 2e-4 c 0,4.23782 -3.40255,7.64054 -7.64045,7.64054 -4.2378,0 -7.64034,-3.40272 -7.64034,-7.64054 v 0 -22.92165 -1.52801 0 c 0,-4.23778 3.40254,-7.64052 7.64034,-7.64052 z m 0,3.0562 c -2.51371,0 -4.58452,2.07063 -4.58452,4.58432 v 1.52801 22.92165 c 0,2.51373 2.07081,4.58422 4.58452,4.58422 2.51381,0 4.58423,-2.07049 4.58423,-4.58422 v -22.92165 -1.52801 c 0,-2.51369 -2.07042,-4.58432 -4.58423,-4.58432 z m 0,3.05612 c 0.86214,0 1.52801,0.66618 1.52801,1.5282 v 1.52801 22.92165 c 0,0.86204 -0.66587,1.5282 -1.52801,1.5282 -0.86214,0 -1.52801,-0.66616 -1.52801,-1.5282 v -22.92165 -1.52801 c 0,-0.86202 0.66587,-1.5282 1.52801,-1.5282 z"
       style="color:#000000;font-style:normal;font-variant:normal;font-weight:normal;font-stretch:normal;font-size:medium;line-height:normal;font-family:sans-serif;font-variant-ligatures:normal;font-variant-position:normal;font-variant-caps:normal;font-variant-numeric:normal;font-variant-alternates:normal;font-feature-settings:normal;text-indent:0;text-align:start;text-decoration:none;text-decoration-line:none;text-decoration-style:solid;text-decoration-color:#000000;letter-spacing:normal;word-spacing:normal;text-transform:none;writing-mode:lr-tb;direction:ltr;text-orientation:mixed;dominant-baseline:auto;baseline-shift:baseline;text-anchor:start;white-space:normal;shape-padding:0;clip-rule:nonzero;display:inline;overflow:visible;visibility:visible;opacity:1;isolation:auto;mix-blend-mode:normal;color-interpolation:sRGB;color-interpolation-filters:linearRGB;solid-color:#000000;solid-opacity:1;vector-effect:none;fill:#bb2323;fill-opacity:1;fill-rule:nonzero;stroke:none;stroke-width:26.45833397;stroke-linecap:round;stroke-linejoin:miter;stroke-miterlimit:4;stroke-dasharray:none;stroke-dashoffset:0;stroke-opacity:1;color-rendering:auto;image-rendering:auto;shape-rendering:auto;text-rendering:auto;enable-background:accumulate" />
    <path
       inkscape:connector-curvature="0"
       id="path1904"
       d="m -1253.6486,-327.25876 v 3.05632 h 0.8297 12.8647 0.8294 v -3.05632 h -0.8294 -12.8647 z m 14.5239,0 v 67.2361 1.52821 h 3.0563 v -1.52821 -67.2361 z m 6.1125,0 v 67.2361 1.52821 h 3.056 v -1.52821 -67.2361 z m 6.1122,0 v 67.2361 1.52821 h 3.0562 v -1.52821 -67.2361 z m 6.1125,0 v 67.2361 1.52821 h 3.056 v -1.52821 -67.2361 z m -32.8611,6.11253 v 3.05604 h 0.8297 12.8647 0.8294 v -3.05604 h -0.8294 -12.8647 z m 0,6.11234 v 3.05623 h 0.8297 12.8647 0.8294 v -3.05623 h -0.8294 -12.8647 z m 0,6.11235 v 3.0562 h 0.8297 12.8647 0.8294 v -3.0562 h -0.8294 -12.8647 z"
       style="color:#000000;font-style:normal;font-variant:normal;font-weight:normal;font-stretch:normal;font-size:medium;line-height:normal;font-family:sans-serif;font-variant-ligatures:normal;font-variant-position:normal;font-variant-caps:normal;font-variant-numeric:normal;font-variant-alternates:normal;font-feature-settings:normal;text-indent:0;text-align:start;text-decoration:none;text-decoration-line:none;text-decoration-style:solid;text-decoration-color:#000000;letter-spacing:normal;word-spacing:normal;text-transform:none;writing-mode:lr-tb;direction:ltr;text-orientation:mixed;dominant-baseline:auto;baseline-shift:baseline;text-anchor:start;white-space:normal;shape-padding:0;clip-rule:nonzero;display:inline;overflow:visible;visibility:visible;opacity:1;isolation:auto;mix-blend-mode:normal;color-interpolation:sRGB;color-interpolation-filters:linearRGB;solid-color:#000000;solid-opacity:1;vector-effect:none;fill:#bb2323;fill-opacity:1;fill-rule:nonzero;stroke:none;stroke-width:26.45833206;stroke-linecap:square;stroke-linejoin:miter;stroke-miterlimit:4;stroke-dasharray:none;stroke-dashoffset:0;stroke-opacity:1;color-rendering:auto;image-rendering:auto;shape-rendering:auto;text-rendering:auto;enable-background:accumulate" />
    <path
       inkscape:connector-curvature="0"
       id="path1896"
       d="m -1177.5806,-327.25876 c -12.6411,0 -22.9215,10.28037 -22.9215,22.92143 h 3.056 c 0,-10.98939 8.8763,-19.86521 19.8655,-19.86521 10.9892,0 19.8653,8.87582 19.8653,19.86521 0,10.98937 -8.8761,19.86512 -19.8653,19.86512 -2.5136,0 -4.5842,2.07061 -4.5842,4.58434 v 0 1.52821 18.3372 1.52801 h 3.056 1.5282 21.3937 1.528 v -3.05631 h -1.528 -21.3937 -1.5282 v -3.05603 h 1.5282 21.3937 1.528 v -3.05631 h -1.528 -21.3937 -1.5282 v -3.05624 h 1.5282 21.3937 1.528 v -3.056 h -1.528 -21.3937 -1.5282 v -3.05633 h 1.5282 21.3937 1.528 v -3.0562 h -1.528 -21.3937 -1.5282 c 0,-0.86204 0.6662,-1.52801 1.5282,-1.52801 12.6413,0 22.9217,-10.28038 22.9217,-22.92145 0,-12.64106 -10.2804,-22.92143 -22.9217,-22.92143 z m 0,6.11245 c -9.2651,0 -16.8091,7.54367 -16.8091,16.80898 h 3.0564 c 0,-7.61357 6.139,-13.75286 13.7527,-13.75286 7.6136,0 13.7529,6.13929 13.7529,13.75286 0,7.61358 -6.1393,13.75278 -13.7529,13.75278 -5.8896,0 -10.6969,4.80715 -10.6969,10.69668 v 1.52821 18.3372 1.52801 h 3.0561 v -1.52801 -18.3372 -1.52821 0 c 0,-4.23784 3.4029,-7.64036 7.6406,-7.64036 v 0 c 9.2653,0 16.8091,-7.54362 16.8091,-16.8089 0,-9.26529 -7.5438,-16.809 -16.8091,-16.809 z m 0,6.11232 c -5.8896,0 -10.6969,4.80713 -10.6969,10.69666 h 3.0562 c 0,-4.23784 3.403,-7.64033 7.6407,-7.64033 4.2377,0 7.6406,3.40249 7.6406,7.64033 0,4.23784 -3.4029,7.64035 -7.6406,7.64035 v 0 c -9.2651,0 -16.8091,7.54361 -16.8091,16.80892 v 0 1.52818 18.33722 1.52802 h 3.0564 v -1.52802 -18.33722 -1.52818 0 c 0,-7.6136 6.139,-13.7529 13.7527,-13.7529 5.8896,0 10.6968,-4.80705 10.6968,-10.69658 0,-5.88953 -4.8072,-10.69666 -10.6968,-10.69666 z m 0,6.11232 c -2.5136,0 -4.5842,2.07059 -4.5842,4.58434 h 3.0558 c 0,-0.86208 0.6662,-1.52809 1.5284,-1.52809 0.8619,0 1.5282,0.66601 1.5282,1.52809 0,0.86204 -0.6663,1.52801 -1.5282,1.52801 -12.6411,0 -22.9215,10.28041 -22.9215,22.92145 h -2e-4 v 1.52821 18.3372 1.52801 h 3.0562 v -1.52801 -18.3372 -1.52821 c 0,-10.98937 8.8763,-19.86523 19.8655,-19.86523 2.5136,0 4.5844,-2.07049 4.5844,-4.58423 0,-2.51375 -2.0708,-4.58434 -4.5844,-4.58434 z"
       style="color:#000000;font-style:normal;font-variant:normal;font-weight:normal;font-stretch:normal;font-size:medium;line-height:normal;font-family:sans-serif;font-variant-ligatures:normal;font-variant-position:normal;font-variant-caps:normal;font-variant-numeric:normal;font-variant-alternates:normal;font-feature-settings:normal;text-indent:0;text-align:start;text-decoration:none;text-decoration-line:none;text-decoration-style:solid;text-decoration-color:#000000;letter-spacing:normal;word-spacing:normal;text-transform:none;writing-mode:lr-tb;direction:ltr;text-orientation:mixed;dominant-baseline:auto;baseline-shift:baseline;text-anchor:start;white-space:normal;shape-padding:0;clip-rule:nonzero;display:inline;overflow:visible;visibility:visible;opacity:1;isolation:auto;mix-blend-mode:normal;color-interpolation:sRGB;color-interpolation-filters:linearRGB;solid-color:#000000;solid-opacity:1;vector-effect:none;fill:#bb2323;fill-opacity:1;fill-rule:nonzero;stroke:none;stroke-width:26.45833397;stroke-linecap:round;stroke-linejoin:miter;stroke-miterlimit:4;stroke-dasharray:none;stroke-dashoffset:0;stroke-opacity:1;color-rendering:auto;image-rendering:auto;shape-rendering:auto;text-rendering:auto;enable-background:accumulate" />
    <path
       inkscape:connector-curvature="0"
       id="path1898"
       d="m -1114.508,-327.25876 c -12.6411,0 -22.9215,10.28037 -22.9215,22.92143 h 3.0562 c 0,-10.98939 8.8759,-19.86521 19.8653,-19.86521 10.9894,0 19.8653,8.87582 19.8653,19.86521 0,3.47129 -0.886,6.73146 -2.4441,9.56779 -0.7006,-0.81924 -1.4579,-1.5887 -2.2661,-2.30212 1.0598,-2.20048 1.654,-4.66521 1.654,-7.26567 0,-9.26531 -7.5439,-16.80898 -16.8091,-16.80898 -9.2651,0 -16.8093,7.54367 -16.8093,16.80898 h 3.0565 c 0,-7.61357 6.1392,-13.75286 13.7528,-13.75286 7.6137,0 13.7529,6.13929 13.7529,13.75286 0,1.90273 -0.3834,3.7133 -1.0778,5.35903 -0.8567,-0.57069 -1.7538,-1.08528 -2.6862,-1.53846 0.457,-1.18758 0.708,-2.47582 0.708,-3.82057 0,-5.88953 -4.8073,-10.69666 -10.6969,-10.69666 -5.8895,0 -10.6966,4.80713 -10.6966,10.69666 h 3.0562 c 0,-4.23784 3.4027,-7.64033 7.6404,-7.64033 4.2377,0 7.6407,3.40249 7.6407,7.64033 0,0.9421 -0.1689,1.84288 -0.4766,2.67415 -0.9771,-0.32218 -1.9833,-0.58018 -3.0131,-0.76929 0,0 0,0.002 0.019,0.002 0.27,-0.58199 0.421,-1.22827 0.421,-1.90702 0,-2.51375 -2.0704,-4.58434 -4.584,-4.58434 -2.5138,0 -4.5846,2.07059 -4.5846,4.58434 h 3.0562 c 0,-0.86208 0.6661,-1.5281 1.5284,-1.5281 0.862,0 1.5282,0.66602 1.5282,1.5281 0,0.86205 -0.6662,1.52802 -1.5282,1.52802 0.093,0 0.1844,0 0.2759,0.002 -0.093,-0.002 -0.1845,-0.002 -0.2759,-0.002 h -1.5282 -9.1686 v 3.05629 h 9.1686 1.5282 v -8e-5 c 10.9892,0 19.8653,8.87582 19.8653,19.86521 0,10.9894 -8.8761,19.86522 -19.8653,19.86522 -10.9896,0 -19.8655,-8.87582 -19.8655,-19.86522 h -3.0562 c 0,12.64107 10.2804,22.92145 22.9217,22.92145 12.6409,0 22.9213,-10.28038 22.9213,-22.92145 0,-4.49145 -1.2981,-8.68469 -3.5386,-12.22486 2.2405,-3.54009 3.5386,-7.7332 3.5386,-12.22458 0,-12.64106 -10.2804,-22.92143 -22.9213,-22.92143 z m 0.4038,24.4534 c 0.051,0 0.1029,0.002 0.1534,0.004 -0.05,-0.002 -0.1029,-0.002 -0.1534,-0.004 z m 0.2871,0.008 c 0.049,0.002 0.097,0.004 0.1456,0.006 -0.047,-0.002 -0.097,-0.004 -0.1456,-0.006 z m 0.2971,0.0117 c 0.039,0.002 0.076,0.004 0.1145,0.006 -0.039,-0.002 -0.076,-0.004 -0.1145,-0.006 z m 0.2764,0.0136 c 0.041,0.002 0.082,0.006 0.1204,0.008 -0.041,-0.002 -0.082,-0.006 -0.1204,-0.008 z m 0.2757,0.0155 c 0.039,0.002 0.078,0.006 0.1165,0.008 -0.039,-0.002 -0.078,-0.006 -0.1165,-0.008 z m 0.2813,0.0202 c 0.031,0.002 0.06,0.006 0.091,0.008 -0.031,-0.002 -0.06,-0.006 -0.091,-0.008 z m 0.278,0.0235 c 0.019,0.002 0.035,0.004 0.05,0.006 -0.019,-0.002 -0.033,-0.004 -0.05,-0.006 z m 1.5371,0.19296 c 0.019,0.002 0.019,0.004 0.031,0.006 -0.019,-0.002 -0.019,-0.004 -0.031,-0.006 z m 0.258,0.0429 c 0.019,0.002 0.019,0.004 0.031,0.006 -0.019,-0.002 -0.019,-0.004 -0.031,-0.006 z m 10.9541,5.1407 c 0.019,0.008 0.019,0.0155 0.029,0.0241 -0.019,-0.008 -0.019,-0.0155 -0.029,-0.0241 z m -25.5452,0.6405 v 3.05602 h 9.1686 1.528 c 7.6137,0 13.7529,6.13932 13.7529,13.75288 0,7.6136 -6.1392,13.75288 -13.7529,13.75288 -7.6136,0 -13.7528,-6.13928 -13.7528,-13.75288 h -3.0565 c 0,9.26529 7.5442,16.8089 16.8093,16.8089 9.2652,0 16.8091,-7.54361 16.8091,-16.8089 0,-9.26531 -7.5439,-16.8089 -16.8091,-16.8089 h -1.528 z m 10.6966,6.11224 v 8e-5 h -1.528 -9.1686 v 3.05621 h 9.1686 1.528 c 4.2377,0 7.6407,3.40255 7.6407,7.64037 0,4.23786 -3.403,7.64035 -7.6407,7.64035 -4.2377,0 -7.6404,-3.40249 -7.6404,-7.64035 h -3.0562 c 0,5.88955 4.8071,10.69658 10.6966,10.69658 5.8896,0 10.6969,-4.80703 10.6969,-10.69658 0,-5.88953 -4.8073,-10.69666 -10.6969,-10.69666 z m -10.6966,6.11232 v 3.05633 h 9.1686 1.528 c 0.862,0 1.5282,0.66595 1.5282,1.52801 0,0.86206 -0.6662,1.52801 -1.5282,1.52801 -0.8621,0 -1.528,-0.66595 -1.528,-1.52801 h -3.0564 c 0,2.51377 2.0708,4.58431 4.5844,4.58431 2.5138,0 4.5845,-2.07054 4.5845,-4.58431 0,-2.51373 -2.0707,-4.58434 -4.5845,-4.58434 h -1.528 z"
       style="color:#000000;font-style:normal;font-variant:normal;font-weight:normal;font-stretch:normal;font-size:medium;line-height:normal;font-family:sans-serif;font-variant-ligatures:normal;font-variant-position:normal;font-variant-caps:normal;font-variant-numeric:normal;font-variant-alternates:normal;font-feature-settings:normal;text-indent:0;text-align:start;text-decoration:none;text-decoration-line:none;text-decoration-style:solid;text-decoration-color:#000000;letter-spacing:normal;word-spacing:normal;text-transform:none;writing-mode:lr-tb;direction:ltr;text-orientation:mixed;dominant-baseline:auto;baseline-shift:baseline;text-anchor:start;white-space:normal;shape-padding:0;clip-rule:nonzero;display:inline;overflow:visible;visibility:visible;opacity:1;isolation:auto;mix-blend-mode:normal;color-interpolation:sRGB;color-interpolation-filters:linearRGB;solid-color:#000000;solid-opacity:1;vector-effect:none;fill:#bb2323;fill-opacity:1;fill-rule:nonzero;stroke:none;stroke-width:26.45833397;stroke-linecap:round;stroke-linejoin:miter;stroke-miterlimit:4;stroke-dasharray:none;stroke-dashoffset:0;stroke-opacity:1;color-rendering:auto;image-rendering:auto;shape-rendering:auto;text-rendering:auto;enable-background:accumulate" />
    <path
       inkscape:connector-curvature="0"
       id="path1906"
       d="m -1199.8183,-241.46805 v 3.05632 h 1.3188 20.444 1.3185 v 3.05621 h -1.3185 -20.444 -1.3188 v 3.05603 h 1.3188 20.444 1.3185 v 3.05629 h -1.3185 -20.444 -1.3188 v 3.05624 h 1.3188 20.444 1.3185 v 3.05614 h -1.3185 -20.444 -1.3188 v 3.05619 h 1.3188 20.444 1.3185 v 45.84267 1.52822 h 3.0562 v -1.52822 -67.23609 h -3.0562 -1.3185 -20.444 z m 29.1938,0 v 67.23609 1.52822 h 3.056 v -1.52822 -67.23609 z m 6.1124,0 v 67.23609 1.52822 h 3.0562 v -1.52822 -67.23609 z m 6.1122,0 v 67.23609 1.52822 h 3.0562 v -1.52822 -67.23609 z"
       style="color:#000000;font-style:normal;font-variant:normal;font-weight:normal;font-stretch:normal;font-size:medium;line-height:normal;font-family:sans-serif;font-variant-ligatures:normal;font-variant-position:normal;font-variant-caps:normal;font-variant-numeric:normal;font-variant-alternates:normal;font-feature-settings:normal;text-indent:0;text-align:start;text-decoration:none;text-decoration-line:none;text-decoration-style:solid;text-decoration-color:#000000;letter-spacing:normal;word-spacing:normal;text-transform:none;writing-mode:lr-tb;direction:ltr;text-orientation:mixed;dominant-baseline:auto;baseline-shift:baseline;text-anchor:start;white-space:normal;shape-padding:0;clip-rule:nonzero;display:inline;overflow:visible;visibility:visible;opacity:1;isolation:auto;mix-blend-mode:normal;color-interpolation:sRGB;color-interpolation-filters:linearRGB;solid-color:#000000;solid-opacity:1;vector-effect:none;fill:#bb2323;fill-opacity:1;fill-rule:nonzero;stroke:none;stroke-width:26.45833206;stroke-linecap:square;stroke-linejoin:miter;stroke-miterlimit:4;stroke-dasharray:none;stroke-dashoffset:0;stroke-opacity:1;color-rendering:auto;image-rendering:auto;shape-rendering:auto;text-rendering:auto;enable-background:accumulate" />
    <path
       inkscape:connector-curvature="0"
       id="path1908"
       d="m -1114.5052,-241.46826 c -12.6409,0 -22.9214,10.28038 -22.9214,22.92143 0,4.49149 1.2982,8.68468 3.5387,12.22489 -2.2405,3.54012 -3.5387,7.73331 -3.5387,12.22476 v 0 c 0,12.64107 10.2805,22.92143 22.9214,22.92143 12.6413,0 22.9213,-10.28036 22.9213,-22.92143 0,-4.49145 -1.298,-8.68469 -3.5382,-12.22484 2.2402,-3.54015 3.5382,-7.73332 3.5382,-12.22481 0,-12.64105 -10.28,-22.92143 -22.9213,-22.92143 z m 0,3.05602 c 10.9894,0 19.8655,8.87608 19.8655,19.86541 0,3.47125 -0.8862,6.73142 -2.4443,9.56778 -0.7008,-0.81927 -1.4584,-1.58877 -2.2665,-2.3022 1.0599,-2.20047 1.6542,-4.66517 1.6542,-7.26558 h 2e-4 c 0,-9.26523 -7.5438,-16.80909 -16.8091,-16.80909 -9.2652,0 -16.8089,7.54386 -16.8089,16.80909 0,9.26531 7.5437,16.80911 16.8089,16.80911 4.2379,0 7.6404,3.40273 7.6404,7.64054 0,4.23782 -3.4025,7.64055 -7.6404,7.64055 -4.2377,0 -7.6403,-3.40273 -7.6403,-7.64055 0,-0.9422 0.1689,-1.84289 0.4766,-2.67424 0.9777,0.32228 1.984,0.5804 3.0145,0.76948 0,0 -0.019,-0.002 -0.019,-0.002 -0.2701,0.58209 -0.4213,1.22841 -0.4213,1.90721 h 2e-4 c 0,2.51374 2.0704,4.58423 4.5844,4.58423 2.5137,0 4.5841,-2.07049 4.5841,-4.58423 0,-2.51371 -2.0704,-4.58434 -4.5841,-4.58434 -10.9894,0 -19.8653,-8.87592 -19.8653,-19.86529 0,-10.98935 8.8759,-19.86541 19.8653,-19.86541 z m 0,6.11255 c 7.6136,0 13.7529,6.13928 13.7529,13.75286 0,1.90282 -0.3837,3.71333 -1.0777,5.35912 -0.8567,-0.57065 -1.754,-1.08525 -2.6864,-1.53843 0.4572,-1.18758 0.7078,-2.47586 0.7078,-3.82069 0,-5.88949 -4.8069,-10.69674 -10.6966,-10.69674 -5.8894,0 -10.6965,4.80725 -10.6965,10.69674 0,5.88953 4.8071,10.6968 10.6965,10.6968 7.6136,0 13.7529,6.13928 13.7529,13.75285 0,7.6136 -6.1393,13.75288 -13.7529,13.75288 -7.6135,0 -13.7527,-6.13928 -13.7527,-13.75288 v 0 c 0,-1.90278 0.384,-3.71323 1.0778,-5.35902 0.8571,0.57067 1.754,1.08529 2.6866,1.53847 -0.457,1.18758 -0.7082,2.47574 -0.7082,3.82055 0,5.88952 4.8071,10.69676 10.6965,10.69676 5.8897,0 10.6966,-4.80724 10.6966,-10.69676 0,-5.88949 -4.8069,-10.69675 -10.6966,-10.69675 -7.6135,0 -13.7527,-6.13927 -13.7527,-13.7529 0,-7.61358 6.1392,-13.75286 13.7527,-13.75286 z m 0,6.11234 c 4.2379,0 7.6404,3.40274 7.6404,7.64052 0,0.94218 -0.1689,1.84291 -0.4768,2.67426 -0.9731,-0.32088 -1.9749,-0.57814 -3.0005,-0.76701 0.2699,-0.58207 0.4213,-1.22841 0.4213,-1.90725 0,-2.5137 -2.0706,-4.58432 -4.5844,-4.58432 -2.5136,0 -4.5841,2.07062 -4.5841,4.58432 0,2.51375 2.0705,4.58425 4.5841,4.58425 10.9894,0 19.8655,8.87603 19.8655,19.8654 0,10.98938 -8.8761,19.86531 -19.8655,19.86531 -10.9892,0 -19.8651,-8.87593 -19.8651,-19.86531 0,-3.47131 0.8858,-6.73173 2.4439,-9.56817 0.701,0.81947 1.4583,1.58914 2.2667,2.30271 -1.0598,2.20045 -1.6544,4.66509 -1.6544,7.26546 0,9.26527 7.5437,16.8091 16.8089,16.8091 9.2653,0 16.8091,-7.54383 16.8091,-16.8091 0,-9.26528 -7.5438,-16.80911 -16.8091,-16.80911 -4.2377,0 -7.6403,-3.4027 -7.6403,-7.64054 0,-4.23778 3.4026,-7.64052 7.6403,-7.64052 z m 0,6.11231 c 0.8621,0 1.5282,0.66619 1.5282,1.52821 0,0.86208 -0.6661,1.52822 -1.5282,1.52822 0.095,0 0.1902,0 0.2848,0.002 -0.093,-0.002 -0.1903,-0.002 -0.2848,-0.002 -0.862,0 -1.5278,-0.66614 -1.5278,-1.52822 0,-0.86202 0.6658,-1.52821 1.5278,-1.52821 z m 0.3745,3.05977 c 0.062,0.002 0.1223,0.002 0.1824,0.004 -0.062,-0.002 -0.1203,-0.002 -0.1824,-0.004 z m 0.317,0.008 c 0.048,0.002 0.097,0.004 0.1475,0.006 -0.049,-0.002 -0.097,-0.004 -0.1475,-0.006 z m 0.2803,0.01 c 0.047,0.002 0.095,0.004 0.1417,0.006 -0.047,-0.002 -0.093,-0.004 -0.1417,-0.006 z m 0.2889,0.0136 c 0.041,0.002 0.083,0.006 0.1242,0.008 -0.041,-0.002 -0.083,-0.006 -0.1242,-0.008 z m 0.284,0.0155 c 0.035,0.002 0.068,0.006 0.1009,0.008 -0.035,-0.002 -0.068,-0.006 -0.1009,-0.008 z m 0.2762,0.02 c 0.033,0.002 0.064,0.006 0.097,0.008 -0.033,-0.002 -0.064,-0.006 -0.097,-0.008 z m 0.278,0.0237 c 0.019,0.002 0.035,0.004 0.051,0.006 -0.019,-0.002 -0.035,-0.004 -0.051,-0.006 z m 1.5409,0.19355 c 0,0.002 0.019,0.002 0.025,0.004 0,-0.002 -0.019,-0.004 -0.025,-0.004 z m 3.8731,0.97538 c 0,0.002 0.019,0.006 0.021,0.008 0,-0.002 -0.019,-0.006 -0.021,-0.008 z m 1.7774,0.70318 c 0,0.004 0.019,0.006 0.019,0.01 0,-0.004 -0.019,-0.006 -0.019,-0.01 z m 4.9582,3.0101 c 0,0.004 0.019,0.01 0.019,0.0136 0,-0.004 -0.019,-0.01 -0.019,-0.0136 z m 0.6037,0.49736 c 0,0.006 0.019,0.0117 0.019,0.0155 0,-0.006 -0.019,-0.0117 -0.019,-0.0155 z m -29.7235,10.42678 c 0,0.006 0.019,0.0117 0.019,0.0175 0,-0.006 -0.019,-0.0117 -0.019,-0.0175 z m 0.5997,0.49502 c 0.019,0.01 0.021,0.0155 0.033,0.0256 -0.019,-0.01 -0.021,-0.0155 -0.033,-0.0256 z m 6.0128,3.45777 c 0,0.004 0.019,0.008 0.025,0.01 0,-0.004 -0.019,-0.008 -0.025,-0.01 z m 4.3323,1.2018 c 0.019,0.002 0.021,0.004 0.033,0.006 -0.019,-0.002 -0.021,-0.004 -0.033,-0.006 z m 0.2582,0.0433 c 0.019,0.002 0.021,0.004 0.033,0.006 -0.019,-0.002 -0.021,-0.004 -0.033,-0.006 z m 1.5171,0.19316 c 0.019,0.002 0.037,0.004 0.054,0.006 -0.019,-0.002 -0.037,-0.004 -0.054,-0.006 z m 0.2368,0.021 c 0.031,0.002 0.064,0.006 0.095,0.008 -0.031,-0.002 -0.064,-0.006 -0.095,-0.008 z m 0.2565,0.0198 c 0.039,0.004 0.08,0.006 0.1204,0.01 -0.041,-0.002 -0.08,-0.006 -0.1204,-0.01 z m 0.2718,0.0175 c 0.041,0.002 0.082,0.006 0.1223,0.008 -0.041,-0.002 -0.082,-0.006 -0.1223,-0.008 z m 0.2826,0.0136 c 0.039,0.002 0.078,0.004 0.1165,0.006 -0.039,-0.002 -0.078,-0.004 -0.1165,-0.006 z m 0.2677,0.0117 c 0.049,0.002 0.095,0.004 0.1456,0.006 -0.048,-0.002 -0.097,-0.004 -0.1456,-0.006 z m 0.2782,0.01 c 0.05,0.002 0.1029,0.002 0.1534,0.004 -0.052,0 -0.1029,-0.002 -0.1534,-0.004 z m 0.2815,0.006 c 0.093,0.002 0.1844,0.002 0.2761,0.002 0.8621,0 1.5282,0.66615 1.5282,1.52819 0,0.86206 -0.6661,1.5282 -1.5282,1.5282 -0.8622,0 -1.5282,-0.66614 -1.5282,-1.5282 0,-0.86204 0.666,-1.52819 1.5282,-1.52819 -0.093,0 -0.1844,0 -0.2761,-0.002 z"
       style="color:#000000;font-style:normal;font-variant:normal;font-weight:normal;font-stretch:normal;font-size:medium;line-height:normal;font-family:sans-serif;font-variant-ligatures:normal;font-variant-position:normal;font-variant-caps:normal;font-variant-numeric:normal;font-variant-alternates:normal;font-feature-settings:normal;text-indent:0;text-align:start;text-decoration:none;text-decoration-line:none;text-decoration-style:solid;text-decoration-color:#000000;letter-spacing:normal;word-spacing:normal;text-transform:none;writing-mode:lr-tb;direction:ltr;text-orientation:mixed;dominant-baseline:auto;baseline-shift:baseline;text-anchor:start;white-space:normal;shape-padding:0;clip-rule:nonzero;display:inline;overflow:visible;visibility:visible;opacity:1;isolation:auto;mix-blend-mode:normal;color-interpolation:sRGB;color-interpolation-filters:linearRGB;solid-color:#000000;solid-opacity:1;vector-effect:none;fill:#bb2323;fill-opacity:1;fill-rule:nonzero;stroke:none;stroke-width:26.45833397;stroke-linecap:round;stroke-linejoin:miter;stroke-miterlimit:4;stroke-dasharray:none;stroke-dashoffset:0;stroke-opacity:1;color-rendering:auto;image-rendering:auto;shape-rendering:auto;text-rendering:auto;enable-background:accumulate" />
    <path
       inkscape:connector-curvature="0"
       id="path1910"
       d="m -1050.2775,-241.46826 c -12.6411,0 -22.9215,10.28038 -22.9215,22.92143 0,12.64106 10.2804,22.92147 22.9215,22.92147 0.5135,0 1.0231,-0.0175 1.528,-0.0509 v 24.5003 h 3.0564 v -45.84307 -1.52801 h -2e-4 c 0,-2.51372 -2.0704,-4.58435 -4.5842,-4.58435 -2.5138,0 -4.5842,2.07063 -4.5842,4.58435 0,2.51373 2.0704,4.58422 4.5842,4.58422 0.5347,0 1.0491,-0.0938 1.528,-0.26563 v 3.1707 c -0.4933,0.0992 -1.004,0.15123 -1.528,0.15123 -4.2379,0 -7.6404,-3.40273 -7.6404,-7.64054 0,-4.23778 3.4025,-7.64053 7.6404,-7.64053 4.2377,0 7.6403,3.40275 7.6403,7.64053 v 1.52801 45.84307 h 3.0562 v -45.84307 -1.52801 c 0,-5.8895 -4.8069,-10.69676 -10.6965,-10.69676 -5.8897,0 -10.6966,4.80726 -10.6966,10.69676 0,5.88953 4.8069,10.69677 10.6966,10.69677 0.5185,0 1.0287,-0.0375 1.528,-0.10949 v 3.08192 c -0.5014,0.0551 -1.0114,0.0837 -1.528,0.0837 -7.6136,0 -13.7529,-6.1393 -13.7529,-13.75289 0,-7.6136 6.1393,-13.75288 13.7529,-13.75288 7.6137,0 13.7529,6.13928 13.7529,13.75288 v 1.52801 45.84307 h 3.056 v -45.84307 -1.52801 c 0,-9.26527 -7.5436,-16.80912 -16.8089,-16.80912 -9.2653,0 -16.8089,7.54385 -16.8089,16.80912 0,9.26528 7.5436,16.80909 16.8089,16.80909 0.5149,0 1.0246,-0.0233 1.528,-0.0691 v 3.06765 c -0.5043,0.0382 -1.0137,0.0577 -1.528,0.0577 -10.9894,0 -19.8651,-8.87594 -19.8651,-19.86533 0,-10.98936 8.8757,-19.86541 19.8651,-19.86541 10.9894,0 19.8651,8.87605 19.8651,19.86541 v 1.52801 45.84307 h 3.0564 v -45.84307 -1.52801 c 0,-12.64105 -10.2804,-22.92143 -22.9213,-22.92143 z m 0,21.39322 c 0.8622,0 1.528,0.66619 1.528,1.52821 v 0.002 c 0,0.86087 -0.6668,1.52576 -1.528,1.52576 -0.8621,0 -1.5282,-0.66617 -1.5282,-1.52823 0,-0.86202 0.6661,-1.5282 1.5282,-1.5282 z"
       style="color:#000000;font-style:normal;font-variant:normal;font-weight:normal;font-stretch:normal;font-size:medium;line-height:normal;font-family:sans-serif;font-variant-ligatures:normal;font-variant-position:normal;font-variant-caps:normal;font-variant-numeric:normal;font-variant-alternates:normal;font-feature-settings:normal;text-indent:0;text-align:start;text-decoration:none;text-decoration-line:none;text-decoration-style:solid;text-decoration-color:#000000;letter-spacing:normal;word-spacing:normal;text-transform:none;writing-mode:lr-tb;direction:ltr;text-orientation:mixed;dominant-baseline:auto;baseline-shift:baseline;text-anchor:start;white-space:normal;shape-padding:0;clip-rule:nonzero;display:inline;overflow:visible;visibility:visible;opacity:1;isolation:auto;mix-blend-mode:normal;color-interpolation:sRGB;color-interpolation-filters:linearRGB;solid-color:#000000;solid-opacity:1;vector-effect:none;fill:#bb2323;fill-opacity:1;fill-rule:nonzero;stroke:none;stroke-width:26.45833015;stroke-linecap:square;stroke-linejoin:miter;stroke-miterlimit:4;stroke-dasharray:none;stroke-dashoffset:0;stroke-opacity:1;color-rendering:auto;image-rendering:auto;shape-rendering:auto;text-rendering:auto;enable-background:accumulate" />
    <path
       inkscape:connector-curvature="0"
       id="path1900"
       d="m -1074.3503,-326.73907 v 1.52832 21.39331 1.52801 3.05633 h 1.5282 23.6967 1.528 v 3.0562 h -1.528 -23.6967 -1.5282 v 3.05614 h 1.5282 23.6967 1.528 v 3.05619 h -1.528 -23.6967 -1.5282 v 3.05624 h 1.5282 23.6967 1.528 v 3.05612 h -1.528 -23.6967 -1.5282 v 3.05621 h 1.5282 23.6967 1.528 v 21.39303 1.52821 h 3.0562 v -1.52821 -67.2361 h -3.0562 v 24.44964 h -1.528 -3.8314 v -1.52801 -21.39331 -1.52832 h -3.0562 v 1.52832 21.39331 1.52801 h -3.0565 v -1.52801 -21.39331 -1.52832 h -3.0558 v 1.52832 21.39331 1.52801 h -3.0566 v -1.52801 -21.39331 -1.52832 h -3.056 v 1.52832 21.39331 1.52801 h -3.0562 v -1.52801 -21.39331 -1.52832 z m 32.8653,0 v 67.2361 1.52821 h 3.056 v -1.52821 -67.2361 z m 6.1124,0 v 67.2361 1.52821 h 3.0563 v -1.52821 -67.2361 z m 6.1123,0 v 67.2361 1.52821 h 3.0562 v -1.52821 -67.2361 z"
       style="color:#000000;font-style:normal;font-variant:normal;font-weight:normal;font-stretch:normal;font-size:medium;line-height:normal;font-family:sans-serif;font-variant-ligatures:normal;font-variant-position:normal;font-variant-caps:normal;font-variant-numeric:normal;font-variant-alternates:normal;font-feature-settings:normal;text-indent:0;text-align:start;text-decoration:none;text-decoration-line:none;text-decoration-style:solid;text-decoration-color:#000000;letter-spacing:normal;word-spacing:normal;text-transform:none;writing-mode:lr-tb;direction:ltr;text-orientation:mixed;dominant-baseline:auto;baseline-shift:baseline;text-anchor:start;white-space:normal;shape-padding:0;clip-rule:nonzero;display:inline;overflow:visible;visibility:visible;opacity:1;isolation:auto;mix-blend-mode:normal;color-interpolation:sRGB;color-interpolation-filters:linearRGB;solid-color:#000000;solid-opacity:1;vector-effect:none;fill:#bb2323;fill-opacity:1;fill-rule:nonzero;stroke:none;stroke-width:26.45833206;stroke-linecap:square;stroke-linejoin:miter;stroke-miterlimit:4;stroke-dasharray:none;stroke-dashoffset:0;stroke-opacity:1;color-rendering:auto;image-rendering:auto;shape-rendering:auto;text-rendering:auto;enable-background:accumulate" />
    <path
       inkscape:connector-curvature="0"
       id="path1902"
       d="m -1008.9748,-326.73926 v 1.5282 21.39342 1.52801 3.05632 h 21.39331 1.52821 v -10e-5 c 10.98941,0 19.86531,8.87586 19.86531,19.86523 0,10.98941 -8.8759,19.86521 -19.86531,19.86521 -10.98942,0 -19.86532,-8.8758 -19.86532,-19.86521 h -3.0562 c 0,12.64105 10.28043,22.92143 22.92152,22.92143 12.64089,0 22.92133,-10.28038 22.92133,-22.92143 0,-12.64104 -10.28044,-22.92145 -22.92133,-22.92145 h -1.52821 v -1.52801 -1.52818 h 1.5284 21.39313 1.52801 v -3.05634 h -1.52801 -21.39313 -1.5284 v -3.05602 h 1.5284 21.39313 1.52801 v -3.05631 h -1.52801 -21.39313 -1.5284 v -3.05622 h 1.5284 21.39313 1.52801 v -3.05604 h -1.52801 -21.39313 -1.5284 v -3.0563 h 1.5284 21.39313 1.52801 v -3.05621 h -1.52801 -21.39313 -1.5284 -3.05622 v 1.5282 21.39342 1.52801 h -3.05621 v -1.52801 -21.39342 -1.5282 h -3.05602 v 1.5282 21.39342 1.52801 h -3.05622 v -1.52801 -21.39342 -1.5282 h -3.05624 v 1.5282 21.39342 1.52801 h -3.0562 v -1.52801 -21.39342 -1.5282 z m 0,30.56218 v 3.05602 h 21.39331 1.52821 c 7.61346,0 13.75268,6.13931 13.75268,13.75288 0,7.61358 -6.13922,13.75286 -13.75268,13.75286 -7.61385,0 -13.75288,-6.13928 -13.75288,-13.75286 h -3.05624 c 0,9.26531 7.54379,16.80888 16.80912,16.80888 9.26532,0 16.80909,-7.54357 16.80909,-16.80888 0,-9.26531 -7.54377,-16.8089 -16.80909,-16.8089 h -1.52821 z m 22.92152,6.11222 v 1e-4 h -1.52821 -21.39331 v 3.05622 h 21.39331 1.52821 c 4.2377,0 7.64044,3.40252 7.64044,7.64036 0,4.23784 -3.40274,7.64033 -7.64044,7.64033 -4.2379,0 -7.64064,-3.40249 -7.64064,-7.64033 h -3.05622 c 0,5.88955 4.80748,10.69657 10.69686,10.69657 5.88937,0 10.69666,-4.80702 10.69666,-10.69657 0,-5.88953 -4.80729,-10.69668 -10.69666,-10.69668 z m -22.92152,6.11234 v 3.05633 h 21.39331 1.52821 c 0.86214,0 1.5282,0.66597 1.5282,1.52801 0,0.86206 -0.66606,1.52801 -1.5282,1.52801 -0.86195,0 -1.5284,-0.66595 -1.5284,-1.52801 h -3.05603 c 0,2.51376 2.07061,4.58433 4.58443,4.58433 2.51361,0 4.58422,-2.07057 4.58422,-4.58433 0,-2.51373 -2.07061,-4.58434 -4.58422,-4.58434 h -1.52821 z"
       style="color:#000000;font-style:normal;font-variant:normal;font-weight:normal;font-stretch:normal;font-size:medium;line-height:normal;font-family:sans-serif;font-variant-ligatures:normal;font-variant-position:normal;font-variant-caps:normal;font-variant-numeric:normal;font-variant-alternates:normal;font-feature-settings:normal;text-indent:0;text-align:start;text-decoration:none;text-decoration-line:none;text-decoration-style:solid;text-decoration-color:#000000;letter-spacing:normal;word-spacing:normal;text-transform:none;writing-mode:lr-tb;direction:ltr;text-orientation:mixed;dominant-baseline:auto;baseline-shift:baseline;text-anchor:start;white-space:normal;shape-padding:0;clip-rule:nonzero;display:inline;overflow:visible;visibility:visible;opacity:1;isolation:auto;mix-blend-mode:normal;color-interpolation:sRGB;color-interpolation-filters:linearRGB;solid-color:#000000;solid-opacity:1;vector-effect:none;fill:#bb2323;fill-opacity:1;fill-rule:nonzero;stroke:none;stroke-width:26.45833015;stroke-linecap:square;stroke-linejoin:miter;stroke-miterlimit:4;stroke-dasharray:none;stroke-dashoffset:0;stroke-opacity:1;color-rendering:auto;image-rendering:auto;shape-rendering:auto;text-rendering:auto;enable-background:accumulate" />
    <path
       style="color:#000000;font-style:normal;font-variant:normal;font-weight:normal;font-stretch:normal;font-size:medium;line-height:normal;font-family:sans-serif;font-variant-ligatures:normal;font-variant-position:normal;font-variant-caps:normal;font-variant-numeric:normal;font-variant-alternates:normal;font-feature-settings:normal;text-indent:0;text-align:start;text-decoration:none;text-decoration-line:none;text-decoration-style:solid;text-decoration-color:#000000;letter-spacing:normal;word-spacing:normal;text-transform:none;writing-mode:lr-tb;direction:ltr;text-orientation:mixed;dominant-baseline:auto;baseline-shift:baseline;text-anchor:start;white-space:normal;shape-padding:0;clip-rule:nonzero;display:inline;overflow:visible;visibility:visible;opacity:1;isolation:auto;mix-blend-mode:normal;color-interpolation:sRGB;color-interpolation-filters:linearRGB;solid-color:#000000;solid-opacity:1;vector-effect:none;fill:#bb2323;fill-opacity:1;fill-rule:nonzero;stroke:none;stroke-width:26.45833015;stroke-linecap:square;stroke-linejoin:miter;stroke-miterlimit:4;stroke-dasharray:none;stroke-dashoffset:0;stroke-opacity:1;color-rendering:auto;image-rendering:auto;shape-rendering:auto;text-rendering:auto;enable-background:accumulate"
       d="m -922.98178,-256.44679 c 12.64109,0 22.92133,-10.28038 22.92133,-22.92143 0,-12.64106 -10.28024,-22.92145 -22.92133,-22.92145 -0.51348,0 -1.02307,0.0175 -1.52801,0.0507 v -24.50028 h -3.05641 v 45.84307 1.52801 h 1.9e-4 c 0,2.5137 2.07042,4.58433 4.58423,4.58433 2.51381,0 4.58423,-2.07063 4.58423,-4.58433 0,-2.51373 -2.07042,-4.58424 -4.58423,-4.58424 -0.53483,0 -1.04909,0.0938 -1.52801,0.26565 v -3.17072 c 0.49309,-0.0992 1.00405,-0.15123 1.52801,-0.15123 4.2379,0 7.64045,3.4027 7.64045,7.64052 0,4.2378 -3.40255,7.64054 -7.64045,7.64054 -4.2377,0 -7.64025,-3.40274 -7.64025,-7.64054 v -1.52801 -45.84305 h -3.05622 v 45.84305 1.52801 c 0,5.88951 4.8069,10.69676 10.69647,10.69676 5.88957,0 10.69666,-4.80725 10.69666,-10.69676 0,-5.88951 -4.80709,-10.69677 -10.69666,-10.69677 -0.51852,0 -1.0287,0.0375 -1.52801,0.10949 v -3.08194 c 0.50144,-0.0549 1.01143,-0.0837 1.52801,-0.0837 7.61346,0 13.75288,6.1393 13.75288,13.75289 0,7.6136 -6.13942,13.75288 -13.75288,13.75288 -7.61365,0 -13.75288,-6.13928 -13.75288,-13.75288 v -1.52801 -45.84307 h -3.05602 v 45.84307 1.52801 c 0,9.26525 7.54357,16.8091 16.8089,16.8091 9.26533,0 16.8089,-7.54385 16.8089,-16.8091 0,-9.26529 -7.54357,-16.80909 -16.8089,-16.80909 -0.51484,0 -1.02463,0.0233 -1.52801,0.0691 v -3.06763 c 0.50435,-0.0383 1.01376,-0.0577 1.52801,-0.0577 10.98941,0 19.86512,8.87592 19.86512,19.86531 0,10.98935 -8.87571,19.86541 -19.86512,19.86541 -10.98941,0 -19.86511,-8.87606 -19.86511,-19.86541 v -1.52801 -45.84307 h -3.05642 v 45.84307 1.52801 c 0,12.64107 10.28045,22.92143 22.92134,22.92143 z m 0,-21.3932 c -0.86214,0 -1.52801,-0.66619 -1.52801,-1.52823 v -0.002 c 0,-0.86086 0.66684,-1.52574 1.52801,-1.52574 0.86214,0 1.52801,0.66614 1.52801,1.5282 0,0.86204 -0.66587,1.52821 -1.52801,1.52821 z"
       id="path1936"
       inkscape:connector-curvature="0" />
  </g>
</svg>
