<?xml version="1.0" encoding="UTF-8" standalone="no"?>
<!-- Created with Inkscape (http://www.inkscape.org/) -->

<svg
   width="1279.9999"
   height="689.00269"
   viewBox="0 0 1279.9998 689.00274"
   version="1.1"
   id="svg5"
   inkscape:version="1.4.2 (f4327f4, 2025-05-13)"
   xml:space="preserve"
   sodipodi:docname="6.svg"
   xmlns:inkscape="http://www.inkscape.org/namespaces/inkscape"
   xmlns:sodipodi="http://sodipodi.sourceforge.net/DTD/sodipodi-0.dtd"
   xmlns="http://www.w3.org/2000/svg"
   xmlns:svg="http://www.w3.org/2000/svg"><sodipodi:namedview
     id="namedview7"
     pagecolor="#ffffff"
     bordercolor="#666666"
     borderopacity="1.0"
     inkscape:showpageshadow="2"
     inkscape:pageopacity="0.0"
     inkscape:pagecheckerboard="0"
     inkscape:deskcolor="#d1d1d1"
     inkscape:document-units="px"
     showgrid="false"
     showborder="false"
     inkscape:zoom="0.69002809"
     inkscape:cx="464.47385"
     inkscape:cy="487.66131"
     inkscape:window-width="1920"
     inkscape:window-height="991"
     inkscape:window-x="-9"
     inkscape:window-y="-9"
     inkscape:window-maximized="1"
     inkscape:current-layer="layer1" /><defs
     id="defs2"><clipPath
       clipPathUnits="userSpaceOnUse"
       id="clipPath8006"><path
         inkscape:connector-curvature="0"
         id="path8008"
         d="m -1244.8456,-140.77945 h 33.9355 c 11.5456,0 20.8405,9.29479 20.8405,20.84039 v 31.873282 c 0,11.545575 -9.2949,20.840392 -20.8405,20.840392 h -33.9355 c -11.5456,0 -20.8405,-9.294817 -20.8405,-20.840392 v -31.873282 c 0,-11.5456 9.2949,-20.84039 20.8405,-20.84039 z"
         style="opacity:0.521;fill:#ff0000;fill-opacity:1;stroke:none;stroke-width:1.61448;stroke-linecap:round;stroke-linejoin:round;stroke-miterlimit:4;stroke-dasharray:none" /></clipPath><clipPath
       clipPathUnits="userSpaceOnUse"
       id="clipPath8001"><path
         style="opacity:0.521;fill:#ff0000;fill-opacity:1;stroke:none;stroke-width:1.59706;stroke-linecap:round;stroke-linejoin:round;stroke-miterlimit:4;stroke-dasharray:none"
         d="m -2936.6731,-1508.8075 h 33.5693 c 11.421,0 20.6155,9.1945 20.6155,20.6155 v 31.5293 c 0,11.421 -9.1945,20.6155 -20.6155,20.6155 h -33.5693 c -11.421,0 -20.6156,-9.1945 -20.6156,-20.6155 v -31.5293 c 0,-11.421 9.1946,-20.6155 20.6156,-20.6155 z"
         id="path8003"
         inkscape:connector-curvature="0" /></clipPath></defs><g
     inkscape:label="Layer 1"
     inkscape:groupmode="layer"
     id="layer1"
     transform="translate(1126.7111,-144.99641)"><path
       style="fill:#000000;stroke-width:0.999999"
       d="m -326.37681,833.08207 c -11.60274,-0.89216 -12.98904,-1.16753 -12.98904,-2.58027 0,-1.89761 11.20723,-6.66904 47.78113,-20.3427 13.26738,-4.96014 27.3552,-10.01065 31.30628,-11.22337 3.95108,-1.21262 7.05797,-2.3306 6.90433,-2.48424 -0.39673,-0.39673 -25.33597,4.4017 -56.76639,10.92202 -14.79823,3.06996 -35.67348,7.40162 -46.38944,9.62599 -57.92705,12.02396 -88.66164,13.4304 -129.89044,5.94351 -19.34402,-3.5127 -20.1781,-4.65787 -7.88407,-10.8247 13.55147,-6.79763 46.10239,-20.11715 64.47919,-26.38427 7.52799,-2.56728 8.46236,-3.7106 1.75835,-2.15145 -3.00817,0.69955 -16.53339,3.18343 -30.05591,5.5196 -13.52252,2.33608 -31.47523,5.45939 -39.89492,6.94051 -31.72137,5.58019 -43.13383,5.80703 -77.00647,1.53085 -28.72536,-3.62644 -38.13602,-5.25935 -38.69417,-6.71394 -0.88502,-2.30621 2.76629,-5.12872 12.71608,-9.82974 29.09221,-13.74528 83.9288,-32.54869 111.57459,-38.25876 4.46934,-0.92306 7.94762,-1.85688 7.72941,-2.07509 -1.18535,-1.18535 -54.31499,6.82648 -75.46041,11.37942 -16.49348,3.5512 -36.72856,8.97422 -56.83263,15.23114 -28.07749,8.73838 -37.3627,10.69796 -50.56449,10.67124 -14.35994,-0.0288 -20.70945,-1.80474 -25.97809,-7.26477 -6.65679,-6.89867 -11.66035,-18.7726 -13.78648,-32.71662 -0.56242,-3.6887 -0.46278,-3.89699 2.33089,-4.87089 1.60517,-0.55955 6.32882,-1.01732 10.497,-1.01732 4.50609,0 10.33696,-0.72423 14.38231,-1.78627 5.29043,-1.389 8.59633,-1.67012 14.86317,-1.26412 l 8.05943,0.52216 5.26334,-4.76651 c 2.8948,-2.62166 5.66137,-4.76652 6.1479,-4.76652 1.74044,0 5.5903,-6.93067 5.5903,-10.064 0,-2.36401 -0.70892,-3.74224 -2.87178,-5.58334 -9.79653,-8.33906 -11.72234,-10.47566 -12.85276,-14.25937 -2.11053,-7.06437 -4.50868,-10.61734 -11.15035,-16.52012 -4.63922,-4.12309 -6.52551,-6.43959 -6.52551,-8.01368 0,-3.34913 -2.48694,-8.60496 -4.36515,-9.22538 -0.91601,-0.30264 -2.98108,-1.13181 -4.58912,-1.84259 -4.24278,-1.87552 -6.24931,-1.62724 -12.66887,1.5676 -4.06538,2.02323 -6.56095,2.71675 -8.52999,2.37059 -23.31738,-4.09916 -33.8643,-6.99525 -33.8643,-9.29867 0,-0.63331 1.24408,-2.34341 2.76463,-3.80013 l 2.76472,-2.64884 -2.06888,-1.03142 c -3.39441,-1.69229 -2.43619,-3.61977 2.79172,-5.61554 2.67333,-1.02056 4.84918,-2.06433 4.83517,-2.31947 -0.0139,-0.25514 -1.33026,-1.2989 -2.92513,-2.31947 -3.26795,-2.09124 -5.17929,-4.68394 -4.18554,-5.6777 0.36509,-0.36499 2.8768,-0.96406 5.58167,-1.33109 2.70479,-0.36704 7.11837,-1.61399 9.80784,-2.77103 l 4.89001,-2.10358 -3.37558,-1.16048 c -4.4455,-1.52825 -7.1102,-4.03402 -6.77276,-6.36871 0.20114,-1.39131 1.91449,-2.50132 6.5231,-4.22617 3.43773,-1.28666 8.23904,-3.79299 10.66957,-5.56952 l 4.41933,-3.23028 -4.81828,-0.50175 c -5.47962,-0.57059 -9.82055,-3.77322 -9.36909,-6.91239 0.21116,-1.46842 1.2064,-2.01442 4.53559,-2.48815 4.41312,-0.62802 9.3818,-2.75831 12.2032,-5.23208 2.14088,-1.8771 2.04819,-2.56468 -0.37028,-2.7469 -3.50203,-0.26377 -4.12634,-1.85539 -1.72884,-4.40746 l 2.1906,-2.33172 h -4.16187 c -2.90584,0 -4.77459,-0.57087 -6.19234,-1.89176 -3.07405,-2.8639 -2.48601,-4.23833 2.37653,-5.5544 7.13293,-1.93063 9.13835,-3.34885 11.72196,-8.28998 l 2.44463,-4.67522 h -2.71638 c -6.09297,0 -7.61612,-3.11375 -3.09724,-6.33151 1.40486,-1.00034 3.93587,-3.74251 5.62444,-6.09371 l 3.06997,-4.27497 h -2.74171 c -3.1325,0 -4.43279,-2.08753 -2.36781,-3.80134 3.63229,-3.01448 5.79738,-8.94556 7.714,-21.13178 1.07336,-6.82435 2.18188,-12.78067 2.46338,-13.23612 1.0805,-1.74841 2.13345,0.3662 2.72816,5.47925 1.29324,11.1189 4.15603,22.00511 6.98393,26.55804 3.16858,5.10126 3.22267,7.38474 0.18509,7.81839 l -2.06488,0.29476 1.86068,3.64732 c 1.02344,2.00597 3.52253,4.74694 5.55356,6.09103 2.03111,1.34418 3.69287,2.75479 3.69287,3.13472 0,1.55441 -3.14168,3.13128 -6.07302,3.04815 -3.09205,-0.0881 -3.11005,-0.0649 -1.66501,2.14106 1.29732,1.9799 9.1183,8.27773 13.8761,11.17364 1.41766,0.86284 1.54968,1.38909 0.69844,2.78337 -0.76487,1.25288 -2.08818,1.69748 -4.87767,1.63875 -3.51511,-0.0742 -3.71375,0.0455 -2.4296,1.46479 2.31994,2.56339 1.73534,3.97873 -1.45022,3.51113 l -2.84878,-0.41806 3.08072,3.04491 c 1.69442,1.67475 5.58576,4.44271 8.64746,6.15124 5.7534,3.21042 7.11039,5.59094 3.48097,6.10642 -1.77913,0.25264 -1.93908,0.57022 -1.0883,2.15999 2.20128,4.11307 -0.78045,5.45113 -7.03161,3.15532 -1.51703,-0.55714 -1.43233,-0.31462 0.46389,1.32905 1.64367,1.42472 1.96645,2.15321 1.10778,2.50049 -1.61769,0.65409 3.47624,4.49105 9.70847,7.31292 2.63205,1.19175 5.09913,2.67417 5.4824,3.2943 0.95405,1.54366 -2.923,4.53809 -5.87559,4.53809 -2.34007,0 -2.34527,0.0167 -0.59527,1.95059 0.97084,1.0728 2.92875,2.55216 4.35086,3.28762 2.34211,1.21113 2.82818,1.16428 5.16259,-0.49795 3.10271,-2.20934 10.348,-9.94849 10.348,-11.0534 0,-0.43327 -1.25251,-0.60399 -2.78336,-0.37928 -2.07705,0.30478 -2.78337,0.0418 -2.78337,-1.03791 0,-0.79549 -1.14814,-1.9966 -2.55142,-2.66916 -3.71162,-1.77894 -3.16803,-3.42818 2.40307,-7.29103 5.19506,-3.60214 12.2096,-10.03719 12.2096,-11.20091 0,-0.37464 -1.40402,-0.45332 -3.11996,-0.17489 -3.21043,0.52105 -7.08571,-0.88298 -7.08571,-2.56701 0,-0.52308 3.23566,-4.13422 7.19036,-8.02472 5.70312,-5.61053 6.83678,-7.15168 5.48063,-7.45098 -1.67196,-0.36907 -1.70536,-1.31171 -0.17776,-5.01145 0.50954,-1.23405 0.24345,-1.45153 -1.28647,-1.05146 -2.73206,0.71439 -2.52517,-2.00236 0.4496,-5.9025 3.90015,-5.11333 5.84201,-10.58672 7.37351,-20.78312 0.79707,-5.30696 1.836,-10.0358 2.30871,-10.50851 0.97019,-0.97019 2.76472,2.99935 2.81631,6.22964 0.0863,5.40873 2.905,17.14934 5.21157,21.70821 2.44408,4.83082 2.49278,5.16417 0.92176,6.31296 -1.53753,1.12429 -1.55219,1.41859 -0.20115,4.03133 0.80171,1.55025 3.33643,4.38909 5.6327,6.3086 2.29637,1.9195 4.17515,4.01315 4.17515,4.65258 0,1.69572 -3.10401,3.08341 -6.89737,3.08341 -1.81958,0 -3.30831,0.35488 -3.30831,0.78853 0,3.00539 9.72276,12.82529 15.7353,15.89265 1.99233,1.01649 3.92324,2.33487 4.29102,2.92987 0.81506,1.31885 -2.06739,3.58367 -4.56082,3.58367 -0.99441,0 -2.34211,0.73054 -2.995,1.62335 -1.01361,1.38612 -1.6048,1.46573 -4.04544,0.54452 -1.57204,-0.59341 -2.85833,-0.78611 -2.85833,-0.42817 0,1.34956 8.57296,7.74323 13.979,10.42538 5.81324,2.88431 6.69492,4.78562 2.45261,5.28923 -2.20118,0.26126 -2.38776,0.57653 -1.8707,3.16172 l 0.5743,2.8715 -4.81411,-0.57012 c -2.6545,-0.31434 -4.59043,-0.20811 -4.31543,0.23686 0.27435,0.44386 3.36389,2.69458 6.86564,5.00153 7.40496,4.8784 9.58536,8.28515 5.91642,9.24393 -1.49541,0.39087 -1.49059,0.43281 0.0612,0.53199 2.0866,0.13332 5.27374,-1.50348 5.27374,-2.7084 0,-0.49238 -0.61151,-0.89513 -1.35903,-0.89513 -1.64738,0 -3.39691,-2.97904 -2.51932,-4.28991 0.34709,-0.51845 3.13612,-2.78726 6.19782,-5.04188 l 5.56673,-4.09916 -3.86275,-0.52661 c -2.12455,-0.28966 -4.5252,-1.07633 -5.33479,-1.74824 -1.55794,-1.29296 -2.01052,-3.77777 -0.68805,-3.77777 1.78182,0 12.06673,-7.40542 13.94142,-10.03821 l 2.02379,-2.84209 -3.14447,0.51028 c -3.51956,0.57105 -7.1102,-0.9173 -7.1102,-2.94731 0,-0.73443 1.17959,-1.9452 2.62119,-2.69068 2.85091,-1.47425 9.44007,-8.33442 9.44007,-9.82834 0,-0.5088 -1.05685,-0.9251 -2.34852,-0.9251 -3.52541,0 -3.71542,-2.27345 -0.52225,-6.24689 1.99456,-2.48193 3.43013,-5.93145 4.74963,-11.41227 3.13825,-13.03608 3.26136,-13.42678 4.18656,-13.28315 0.49117,0.0761 1.98509,4.79351 3.31972,10.4829 1.75918,7.49876 3.2146,11.44149 5.29081,14.33257 2.99156,4.16559 2.6891,6.12684 -0.94468,6.12684 -0.91851,0 -1.66844,0.31313 -1.66649,0.69584 0.009,1.83814 4.05518,7.00601 6.57988,8.40438 5.75294,3.1863 6.16719,3.71458 4.14081,5.28051 -0.99051,0.76542 -3.18241,1.39168 -4.87089,1.39168 -1.68848,0 -3.06996,0.37427 -3.06996,0.83167 0,1.28536 6.13417,6.36908 10.16856,8.4272 1.99234,1.01648 3.89542,2.28978 4.22914,2.82975 1.00424,1.62493 -1.57288,3.8687 -3.92668,3.41872 -1.77504,-0.33929 -2.06739,-0.1002 -1.61611,1.32164 0.69974,2.20461 -1.53985,3.15893 -4.14342,1.76558 -1.06046,-0.56753 -1.91514,-0.7041 -1.89936,-0.30339 0.0371,0.95358 6.7979,5.90742 11.81771,8.6598 4.19796,2.30175 4.65712,3.93326 1.24769,4.43353 -1.6228,0.23807 -1.84426,0.5743 -1.02716,1.55887 0.8043,0.96907 0.60065,1.49151 -0.89281,2.2908 -1.06399,0.56948 -2.44788,0.73555 -3.07516,0.36908 -0.62737,-0.36648 -0.30561,0.28492 0.71496,1.44753 1.02057,1.16261 3.42122,2.91289 5.33478,3.88948 2.25082,1.14879 3.47921,2.42422 3.47921,3.61244 0,1.01017 -0.4175,1.83674 -0.92779,1.83674 -0.51028,0 -0.82341,0.51196 -0.69584,1.13766 0.12757,0.62579 -0.70744,1.28109 -1.85558,1.45625 -2.92021,0.44553 -2.6004,1.15065 2.08475,4.59645 4.12559,3.03415 5.66517,3.74345 4.68561,2.15841 -0.29124,-0.47122 0.83222,-1.79091 2.49668,-2.93255 3.97065,-2.72362 8.129,-6.56921 8.129,-7.5176 0,-0.41481 -1.01388,-0.7542 -2.25313,-0.7542 -2.23681,0 -5.16918,-2.13623 -5.16918,-3.7658 0,-0.46742 1.62521,-1.8758 3.61151,-3.12971 1.98631,-1.25391 4.51973,-3.55538 5.62992,-5.11443 l 2.0184,-2.83468 h -2.41169 c -3.42846,0 -3.96509,-2.41921 -1.19573,-5.39017 3.30014,-3.54044 3.93141,-5.08651 6.22852,-15.25313 2.73521,-12.10607 3.61596,-11.95938 6.09854,1.01528 0.71709,3.74762 2.36011,9.12128 3.65122,11.94138 2.8986,6.33142 3.01327,8.61443 0.43254,8.61443 -1.89752,0 -1.89548,0.0343 0.22944,3.81553 1.1795,2.09857 3.708,4.70797 5.61897,5.79868 1.91096,1.09071 3.47772,2.45438 3.48162,3.03035 0.0102,1.45718 -5.15266,3.45063 -7.40868,2.86065 -1.02409,-0.26776 -1.86207,-0.15708 -1.86207,0.24605 0,1.12086 6.9523,7.15269 10.15029,8.80648 3.77276,1.95095 3.79883,4.93027 0.0557,6.34329 -2.86687,1.08208 -3.73964,2.49937 -1.53911,2.49937 0.68434,0 2.38043,2.08752 3.76905,4.63894 1.38871,2.55142 2.89164,4.63895 3.33995,4.63895 1.51461,0 2.01961,-1.92795 0.86841,-3.31509 -0.93169,-1.12262 -0.75884,-1.78812 0.93177,-3.58775 1.14165,-1.21522 3.05809,-5.58836 4.25874,-9.71822 1.20065,-4.12977 2.45252,-7.94484 2.78198,-8.47795 1.20556,-1.95049 3.13444,1.18711 5.97922,9.7262 1.5778,4.73617 3.46734,9.40193 4.19899,10.36831 1.72689,2.28134 1.7332,4.49171 0.0167,5.91605 -1.99326,1.65425 -0.40201,3.99172 4.09916,6.02144 4.40133,1.98473 4.70491,3.36287 1.28888,5.85119 l -2.47859,1.80557 4.79806,1.59367 c 2.63901,0.87648 4.79806,1.74164 4.79806,1.92256 0,0.18092 -0.37195,1.30735 -0.82656,2.50308 -0.73324,1.9286 -0.56707,2.16277 1.47147,2.07352 1.26402,-0.0557 2.64791,-0.66653 3.07543,-1.35819 0.61067,-0.98819 1.0651,-1.01871 2.12084,-0.14251 2.08993,1.73441 3.74103,-3.02589 2.51783,-7.25893 -1.93695,-6.70271 -0.39542,-15.80432 2.86056,-16.88965 0.65613,-0.21877 0.13917,-1.69739 -1.3722,-3.92445 -2.03576,-2.99992 -2.42506,-4.60193 -2.42506,-9.98069 0,-5.61591 0.28966,-6.69688 2.34508,-8.75221 l 2.34499,-2.34498 -2.41513,-2.87021 c -2.17279,-2.58213 -2.38006,-3.48292 -2.06628,-8.97821 0.19187,-3.35943 0.68564,-6.83873 1.09721,-7.73173 0.68934,-1.49578 -0.0955,-1.62363 -9.96798,-1.62363 -10.02207,0 -10.80976,-0.1336 -12.16044,-2.06201 -2.91474,-4.16141 -1.92609,-6.40379 8.55422,-19.40174 5.49919,-6.82036 18.7366,-23.25567 29.41628,-36.52305 10.67978,-13.26738 24.87467,-30.80259 31.54417,-38.96713 6.66951,-8.16454 15.81166,-19.35655 20.31598,-24.87105 7.36136,-9.01236 8.43805,-9.97596 10.64545,-9.52654 1.35067,0.27491 6.21331,0.94496 10.80586,1.48883 4.59256,0.54396 12.52515,1.62428 17.62799,2.40074 17.20909,2.61869 74.19156,9.50965 74.67327,9.03036 0.26275,-0.26136 0.61549,-5.13847 0.78389,-10.83797 0.16848,-5.6995 0.59898,-10.66799 0.95673,-11.04106 1.11855,-1.16651 33.58429,1.58587 34.40687,2.91697 0.40164,0.64982 0.93539,6.16293 1.18617,12.25136 0.25069,6.08852 0.65567,11.26976 0.89987,11.51386 0.24419,0.24419 5.72585,0.94987 12.18149,1.56815 l 11.73746,1.1242 15.55206,17.17049 c 8.55356,9.44378 25.98959,28.45909 38.74669,42.25615 39.467021,42.68441 42.910138,46.53306 43.614051,48.75103 1.138768,3.58795 -1.485297,4.61399 -11.800271,4.61399 h -9.11831 l 0.57913,2.30732 c 0.85431,3.40377 -1.37461,17.44539 -3.25951,20.53437 -1.59607,2.61563 -1.58104,2.73809 0.70364,5.75471 4.3286,5.71508 3.54601,15.81573 -1.41701,18.29005 -1.96571,0.98003 -1.96896,1.01751 -0.18398,2.13225 3.01021,1.87988 5.46152,6.82416 5.46523,11.02334 0,3.02468 -0.62672,4.62855 -2.7778,7.07847 -2.47358,2.81723 -2.62073,3.30089 -1.33054,4.37174 3.94152,3.2711 5.14134,9.54889 2.71443,14.20231 -0.76227,1.46164 -1.38603,2.78615 -1.38603,2.94332 0,0.87982 6.77082,2.32281 8.42915,1.79648 4.36033,-1.38399 8.01981,-13.69611 10.578279,-35.58989 0.798269,-6.83112 1.674195,-12.78057 1.946315,-13.22099 0.902739,-1.46071 -1.220228,-0.82842 -2.516256,0.74937 -2.103298,2.56042 -9.373168,6.79995 -11.660638,6.79995 -2.5761,0 -2.5568,0.28623 -0.28232,-4.17505 2.33329,-4.57659 2.35723,-10.86672 0.0603,-15.92466 -1.60795,-3.54146 -1.64079,-4.19239 -0.39384,-7.81142 0.74807,-2.1714 1.60702,-6.5911 1.90864,-9.82148 l 0.54851,-5.87346 h 5.75925 c 4.46248,0 6.467617,-0.47744 8.90529,-2.12018 5.792185,-3.9033 5.038542,-6.93532 -4.470087,-17.98306 -13.046933,-15.15877 -45.957373,-52.5339 -55.204363,-62.69365 -4.98863,-5.48092 -9.07025,-10.36582 -9.07025,-10.85532 0,-0.48941 1.85901,-2.4438 4.13117,-4.34307 4.37666,-3.65846 4.78061,-5.50968 0.87843,-4.02605 -6.30683,2.39787 -15.12491,-0.573 -12.83299,-4.32349 0.5448,-0.89152 4.28805,-3.66718 8.31837,-6.16822 14.16204,-8.7882 28.77722,-22.36946 33.77689,-31.38738 l 2.26306,-4.0819 -5.35482,4.87238 c -8.23125,7.48976 -13.13684,7.70668 -10.97203,0.48523 l 1.04988,-3.50203 -2.22975,2.54604 c -5.43675,6.20802 -12.50557,8.76565 -17.23359,6.2353 -2.40696,-1.28815 -2.26881,-2.33738 0.83307,-6.32836 4.19852,-5.40177 4.19416,-5.59698 -0.0919,-4.10862 -5.82586,2.02314 -12.54166,1.14693 -15.23828,-1.98816 -2.81658,-3.27435 -2.70413,-4.98556 0.40925,-6.22908 18.91669,-7.55563 39.22765,-22.56781 51.8094,-38.293 6.40109,-8.00032 7.80539,-11.04662 2.93014,-6.35609 -3.16654,3.04658 -10.50535,7.0151 -14.86494,8.03836 -3.05298,0.71653 -4.15909,-1.03885 -2.54966,-4.04618 0.94718,-1.76976 0.55362,-1.68449 -3.94662,0.85533 -5.07594,2.86464 -11.9913,3.84726 -13.20903,1.87682 -0.32101,-0.51928 0.66384,-2.51922 2.18847,-4.4442 l 2.77205,-3.50008 -6.73862,0.0371 c -7.18935,0.0399 -9.80914,-1.10927 -9.80914,-4.30244 0,-1.26856 1.42471,-2.42848 4.87089,-3.96564 11.74144,-5.23719 33.56378,-22.38347 43.71128,-34.3448 5.13587,-6.05382 6.14716,-7.91431 4.30179,-7.91431 -0.51028,0 -0.92779,-1.06501 -0.92779,-2.3667 v -2.3667 l -3.06523,2.33794 c -4.43576,3.38337 -9.279,5.17882 -13.96971,5.17882 -4.73024,0 -6.08212,-1.72643 -3.31379,-4.23174 2.68697,-2.43164 2.18281,-3.08573 -1.68625,-2.18726 -6.86165,1.59348 -11.09942,1.06371 -14.28897,-1.78618 -1.86662,-1.66788 -2.74941,-3.16867 -2.39982,-4.07986 0.30422,-0.7927 4.74916,-3.63563 9.87752,-6.31759 17.07307,-8.92839 29.71447,-20.89974 41.36092,-39.16846 l 1.63689,-2.56765 -4.74322,3.19187 c -7.43874,5.00598 -17.93194,8.41903 -19.88345,6.46743 -0.31832,-0.31833 0.27723,-2.25666 1.3234,-4.30745 1.78349,-3.49591 1.79546,-3.68295 0.19224,-2.99629 -5.5928,2.39527 -20.26588,0.84382 -20.26588,-2.14291 0,-0.66189 2.34443,-2.15619 5.20972,-3.32075 12.58601,-5.11536 26.89539,-17.67029 35.94579,-31.5386 5.978855,-9.16164 6.160052,-10.45136 1.05888,-7.53522 -2.72612,1.5584 -7.98195,1.81002 -8.83904,0.42325 -0.32918,-0.53264 -0.0854,-1.58651 0.54136,-2.34192 1.59552,-1.92256 0.65103,-2.47794 -2.3036,-1.35457 -1.37962,0.52457 -4.72653,0.95377 -7.43734,0.95377 -8.79266,0 -8.82717,-4.10816 -0.0724,-8.57648 7.53105,-3.84365 20.227466,-17.96339 25.424011,-28.27428 l 1.972757,-3.91434 -3.21386,1.89622 c -3.184914,1.87914 -7.607038,2.08697 -7.309398,0.34356 0.0854,-0.49813 -1.88647,-0.90571 -4.38121,-0.90571 -3.37056,0 -5.03631,-0.50054 -6.48385,-1.94808 l -1.94808,-1.94798 4.61436,-2.96104 c 8.78505,-5.63734 16.078953,-15.38738 18.290709,-24.44983 l 0.621247,-2.54549 -3.414541,1.42667 c -3.801893,1.58846 -6.989405,1.05702 -6.989405,-1.1654 0,-0.80152 1.64042,-3.23696 3.645283,-5.41198 7.089049,-7.69072 8.797294,-13.25485 12.145498,-39.56045 2.189767,-17.20399 2.504752,-18.63111 4.003502,-18.13391 0.677749,0.2248 1.67438,6.21433 2.67166,16.05539 2.456043,24.23625 5.07315,33.43249 12.234937,42.99197 3.641664,4.86087 1.035505,6.8943 -5.396855,4.21086 -3.084155,-1.28657 3.833995,7.7783 8.383593,10.98511 2.234579,1.57511 4.06288,3.14984 4.06288,3.49943 0,1.80994 -3.114309,2.92245 -6.965839,2.48824 -2.292195,-0.25829 -4.167627,-0.29429 -4.167627,-0.0798 0,0.21441 1.643021,2.56376 3.651035,5.22086 3.359708,4.44559 8.651352,8.99732 15.186604,13.0628 5.506334,3.42539 3.593882,7.0768 -3.706424,7.0768 -4.057035,0 -4.827842,0.65428 -2.965213,2.517 0.5679,0.5678 0.751973,1.48632 0.409155,2.04113 -0.965179,1.56175 -3.736484,1.19602 -6.31685,-0.83371 -2.076948,-1.63374 -2.474599,-1.68245 -3.513444,-0.43068 -0.97826,1.17867 -0.445988,2.47321 3.227499,7.84956 6.208299,9.08621 14.064629,16.03108 22.824626,20.17681 7.971561,3.77248 9.078321,5.56812 5.056263,8.20351 -1.704162,1.11659 -3.699187,1.41348 -7.42231,1.10481 -2.800438,-0.23232 -5.091798,-0.26284 -5.091798,-0.0677 0,0.19484 0.643329,1.59839 1.42963,3.11886 0.786301,1.52046 1.179126,3.16979 0.873049,3.66504 -0.96991,1.56935 -6.286697,0.93521 -12.044462,-1.43659 -3.061703,-1.26123 -5.678995,-2.29516 -5.816308,-2.29748 -0.137313,0 0.01206,1.03949 0.33252,2.3152 0.372971,1.48604 0.191403,2.31947 -0.505367,2.31947 -1.780334,0 9.756813,14.20909 17.695067,21.7933 7.698328,7.35495 16.13935,13.29642 25.210991,17.74554 5.792186,2.84079 6.439597,4.55461 2.505958,6.63406 -2.422735,1.28072 -10.991886,1.10574 -14.372563,-0.29355 -1.354571,-0.56067 -0.916191,0.38596 1.623631,3.50639 1.913564,2.35092 3.479208,4.51722 3.479208,4.81411 0,0.2968 -1.356891,0.53051 -3.015314,0.51928 -3.543411,-0.0241 -10.502198,-2.99564 -13.412579,-5.72779 l -2.047166,-1.92183 0.191589,2.67528 c 0.232225,3.24263 -1.224496,3.22221 -8.124833,-0.11374 -2.532956,-1.2245 -4.695724,-2.13605 -4.806224,-2.02555 -0.1105,0.1105 2.14913,3.71978 5.021471,8.02064 11.121219,16.6526 28.112002,30.7588 42.092851,34.94674 6.4855225,1.9427 7.8420425,3.16126 6.4386691,5.78356 -1.3546644,2.5311 -6.8099701,4.14657 -12.2408741,3.62469 -2.491948,-0.23947 -4.530857,-0.33559 -4.530857,-0.21367 0,0.12181 0.609093,1.39548 1.353365,2.83012 3.342731,6.44303 -6.20533,6.28753 -15.162945,-0.24679 -2.187077,-1.59543 -2.204705,-1.58782 -1.549964,0.66968 0.364157,1.25595 0.865998,3.01411 1.115017,3.9071 0.640174,2.29572 -3.22518,2.14245 -9.038334,-0.35831 -2.533976,-1.09006 -4.865324,-1.72392 -5.18068,-1.40848 -1.164746,1.16466 4.855862,8.24916 17.648399,20.76717 14.539101,14.22699 18.529706,17.2719 30.7626015,23.47296 9.6918675,4.91292 10.9949469,7.10779 5.85620301,9.86453 -2.25693911,1.21076 -5.22706941,1.65601 -11.18718451,1.67716 -4.462943,0.0158 -8.116111,0.2621 -8.118152,0.54731 0,0.2852 0.609186,1.32896 1.358375,2.31947 0.749282,0.9905 1.37554,2.58834 1.391683,3.55065 0.02598,1.55181 -0.460461,1.68263 -4.302249,1.15602 -5.327735,-0.73026 -13.521873,-4.38232 -18.167126,-8.09709 -1.913564,-1.5303 -3.479208,-2.48119 -3.479208,-2.11323 0,0.36806 2.521452,3.74113 5.603102,7.49589 5.375145,6.54907 6.119881,8.62268 3.096588,8.62268 -1.697946,0 7.549603,11.52815 14.307617,17.83609 5.790516,5.40484 17.3100346,13.00797 23.0022046,15.18178 3.628582,1.38584 4.373782,1.43084 5.0849321,0.30729 1.2284853,-1.94075 1.0620403,-2.43925 -0.9939401,-2.97691 -2.5298946,-0.6616 -2.3297705,-2.25146 0.8952234,-7.1128 1.508492,-2.27392 2.612653,-4.26449 2.45363,-4.42351 -0.159023,-0.15902 -2.1257494,0.54415 -4.3703489,1.56258 -4.0639934,1.84389 -10.1118776,2.54428 -10.1118776,1.17106 0,-0.39672 0.6821104,-1.69507 1.5157286,-2.88524 1.47806039,-2.11026 1.4608963,-2.14579 -0.6958416,-1.43483 -3.4140773,1.12541 -9.1177515,0.65011 -11.5829795,-0.96517 -3.849674,-2.52238 -2.795057,-4.4108 4.4231404,-7.9197 7.7475933,-3.76627 13.2473399,-8.46784 21.4887956,-18.37031 5.434337,-6.5295 12.684728,-16.95924 12.684728,-18.2471 0,-0.29281 -1.299461,0.13972 -2.887742,0.961 -1.588282,0.82137 -5.198587,1.73181 -8.022869,2.02332 -5.0773239,0.52402 -5.1287234,0.50453 -4.5679679,-1.72986 0.5652089,-2.25184 0.5447979,-2.25861 -5.7022828,-1.90568 -5.0802933,0.28706 -6.5199432,0.0529 -7.5892198,-1.23563 -1.4749059,-1.77727 -1.0908941,-2.19236 10.0994452,-10.91905 6.8040323,-5.30603 14.6239933,-14.55497 18.5773013,-21.97227 1.582158,-2.96855 2.876702,-5.59521 2.876702,-5.83709 0,-0.24187 -1.94947,0.54721 -4.332217,1.75343 -2.382748,1.20631 -5.071943,2.19329 -5.975888,2.19329 -2.127698,0 -3.180089,-1.72754 -1.857804,-3.04973 1.816239,-1.81633 1.121325,-2.35204 -2.446765,-1.88592 -1.913565,0.25004 -4.6562939,8.4e-4 -6.0948304,-0.55361 -4.1445255,-1.59747 -2.9983352,-4.50052 3.2055104,-8.11954 6.501295,-3.79234 16.278983,-14.22236 19.533016,-20.83629 1.349191,-2.74217 2.341368,-5.09773 2.204705,-5.23439 -0.136663,-0.13676 -1.45867,0.38262 -2.937936,1.15398 -2.722504,1.41979 -9.200789,1.88332 -11.891469,0.85087 -2.688918,-1.03188 -1.517492,-3.92352 3.519288,-8.68707 4.942053,-4.67401 9.511969,-12.05114 11.694129,-18.87753 0.622546,-1.9478 0.903573,-3.76979 0.624402,-4.04896 -0.279172,-0.27918 -1.935646,0.3751 -3.681188,1.45384 -3.630345,2.24367 -6.449617,2.50698 -7.916544,0.73945 -0.770714,-0.92863 0.208382,-3.10021 4.078467,-9.04594 8.179108,-12.56588 10.027078,-18.82001 13.414806,-45.3994 1.073173,-8.41968 2.363171,-15.72259 2.866682,-16.2286 1.565643,-1.57335 2.46096,1.19248 3.116628,9.62822 1.034484,13.30978 4.19342,33.49707 6.150869,39.3079 2.02527,6.0117 5.35529,11.84174 8.988232,15.73586 1.990014,2.13308 2.163047,2.74199 1.131995,3.98439 -0.870266,1.04859 -2.019703,1.29018 -4.033654,0.84781 l -2.816674,-0.61865 1.611383,2.4592 c 1.953088,2.98089 1.187013,4.60925 -1.814291,3.85589 -2.848961,-0.71495 -2.805912,-0.38262 0.75689,5.84451 3.612161,6.31342 9.46725,12.32781 14.501525,14.89612 4.468138,2.27948 5.317807,3.42641 3.849118,5.19608 -1.633744,1.96849 -6.828897,2.63872 -10.657974,1.37507 -4.255953,-1.40467 -4.906983,-0.76097 -2.42357,2.3963 3.702898,4.70741 1.888421,6.49582 -3.470302,3.42029 -1.539201,-0.88335 -3.044075,-1.3607 -3.344122,-1.06065 -1.567221,1.56722 12.683894,20.76002 19.804024,26.67115 2.354171,1.95438 6.693347,5.14412 9.642509,7.0883 5.676026,3.74168 6.067089,4.82042 2.450754,6.75959 -2.625828,1.40802 -11.416163,0.88901 -13.443753,-0.79372 -1.800188,-1.49402 -1.686905,-0.026 0.154941,2.00913 1.678648,1.85493 1.036062,3.62162 -1.305399,3.58878 -0.862843,-0.0121 -4.052117,-1.04293 -7.087193,-2.29053 -3.035168,-1.24769 -5.642255,-2.14467 -5.793577,-1.99335 -0.696491,0.69649 7.216991,12.35221 12.05411,17.75435 6.042596,6.74846 11.096076,10.52549 20.596541,15.39406 3.572265,1.83062 6.494893,3.9058 6.494893,4.61157 0,2.37533 -4.33231,3.77137 -10.396152,3.35006 l -5.757301,-0.40006 2.237084,3.29207 c 1.230341,1.81068 2.022023,3.63981 1.759366,4.06492 -1.060741,1.71632 -7.097027,0.69891 -14.509039,-2.44546 -3.587667,-1.52195 -2.736977,2.28765 1.910781,8.55709 8.680206,11.70906 19.482637,20.97155 31.103652,26.66984 4.16271,2.04114 7.56844,4.29242 7.56844,5.00273 0,0.71032 -1.17773,2.17159 -2.61729,3.24726 -2.11258,1.57854 -3.94598,1.95569 -9.507703,1.95569 -3.789646,0 -6.891337,0.14873 -6.89245,0.33039 0,0.18175 1.266803,1.93258 2.817788,3.89086 2.643177,3.33726 2.712205,3.61819 1.100543,4.48076 -2.369202,1.26792 -9.065054,-0.32445 -13.430393,-3.19401 l -3.479208,-2.28709 v 2.44862 c 0,2.26019 -0.228607,2.40288 -2.970687,1.85447 -1.633836,-0.32677 -3.928536,-1.49393 -5.099127,-2.59373 -1.170684,-1.09971 -2.356677,-1.77143 -2.63557,-1.49244 -1.01797,1.01797 18.782992,20.00192 25.390704,24.34314 3.739545,2.45678 10.628373,6.13695 15.308513,8.17808 10.3082,4.49588 10.50452,4.65704 9.18882,7.54469 -1.74758,3.83548 -13.9661,5.37607 -22.355718,2.81872 -2.037981,-0.62116 -2.114338,-0.52161 -1.080874,1.4094 0.611598,1.14266 0.859782,3.08258 0.551477,4.31078 -0.450348,1.79444 -1.161684,2.23301 -3.621623,2.23301 -3.467333,0 -12.546767,-2.48861 -14.299546,-3.91945 -2.616086,-2.13558 -0.956735,1.22088 3.15708,6.38588 13.447464,16.88362 25.480884,26.09156 40.394074,30.90947 8.07621,2.60922 9.6387,3.78055 8.32263,6.23957 -1.6548,3.09213 -7.08348,5.1213 -12.75542,4.76772 -2.76352,-0.17229 -5.02407,-0.18101 -5.02333,-0.0195 6.5e-4,0.16162 1.08078,1.70927 2.40028,3.43913 2.77994,3.64473 2.41457,4.79017 -1.77922,5.57694 -3.22945,0.60585 -9.39358,-1.34882 -13.752056,-4.36079 -3.150307,-2.17697 -3.874075,-2.15192 -2.672774,0.0928 2.436652,4.55303 -0.508428,6.03192 -7.298636,3.66485 -1.633001,-0.56929 -3.173038,-0.8312 -3.422242,-0.58191 -0.699738,0.69965 13.378437,14.69868 19.108828,19.00131 6.61245,4.96496 18.18077,10.68831 26.63135,13.17571 3.67905,1.08292 6.95062,2.39212 7.27034,2.90927 1.65229,2.67351 -6.91147,9.20895 -12.06692,9.20895 -2.82484,0 -3.05892,1.40115 -0.50091,2.99871 5.88144,3.67302 -4.42147,7.37722 -13.91683,5.00356 -3.17564,-0.79391 -3.21145,-0.77183 -1.62363,1.00081 2.63835,2.94536 1.95448,3.35739 -4.5625,2.74885 -4.30253,-0.40182 -7.339365,-1.30261 -9.973729,-2.95872 -3.526989,-2.21723 -3.427066,-2.04308 1.452732,2.5311 8.803047,8.25148 25.471887,16.98206 34.643817,18.14495 7.12922,0.90395 8.65432,2.95241 4.85531,6.52143 -4.46016,4.19008 -16.3431,6.23465 -22.54072,3.87825 -3.92047,-1.49049 -3.65818,-0.49785 1.06417,4.02726 5.30231,5.08085 5.02982,6.6476 -1.30225,7.48762 -7.66659,1.01704 -16.630703,-1.80028 -23.130791,-7.26978 l -2.809623,-2.36419 0.755777,3.35108 c 0.415649,1.84305 2.034455,5.40789 3.597222,7.92183 2.244229,3.61031 2.562739,4.67782 1.515636,5.07964 -2.201086,0.84466 -11.026584,-2.19913 -15.25257,-5.26047 -3.495815,-2.53239 -3.894857,-2.64503 -3.35609,-0.94755 0.808382,2.54697 -1.476762,3.41121 -5.076582,1.92016 -2.63891,-1.09312 -7.508781,-5.90714 -11.784403,-11.64923 l -2.035939,-2.73428 -0.05196,5.13809 c -0.06866,6.83112 2.280505,25.02618 4.125506,31.95518 0.812558,3.05168 2.568027,7.97861 3.900981,10.94884 2.59818,5.78949 3.925846,5.70265 3.989399,-0.26099 0.05103,-4.78451 3.183893,-11.13347 5.493809,-11.13347 4.039685,0 6.082954,7.11772 4.394564,15.30852 l -0.765054,3.71116 3.089536,-2.89916 c 4.612874,-4.3286 11.097468,-8.73244 12.019412,-8.16269 1.464422,0.90506 0.830742,4.49523 -1.51879,8.60515 -1.269587,2.22076 -2.308339,4.19778 -2.308339,4.39336 0,0.19558 1.356891,-0.47178 3.015314,-1.48288 7.012135,-4.27535 12.750235,-0.65558 8.524523,5.37746 -1.15287,1.64599 -1.20028,2.15627 -0.231947,2.49585 30.405589,10.66085 53.637329,22.75105 53.637329,27.91382 0,1.15918 -0.52188,2.30685 -1.15973,2.55021 -0.63786,0.24336 -30.59384,0.22342 -66.568855,-0.0445 -120.157096,-0.89448 -162.620041,2.90713 -247.719515,22.17749 -46.81372,10.60083 -68.31829,14.44465 -92.31499,16.50082 -13.1425,1.12615 -56.69402,1.05963 -71.90364,-0.10985 z m 346.535716,-92.0398 c 3.797718,-5.79609 5.27049,-13.1593 7.308007,-36.53577 0.416392,-4.77848 -0.422607,-5.0288 -2.469402,-0.73676 -3.422984,7.17821 -12.442483,14.33267 -14.309751,11.35094 -0.380394,-0.60742 -0.574858,-3.81813 -0.432257,-7.13497 l 0.25941,-6.03063 -1.7597374,2.78337 c -0.9678693,1.53085 -3.4974855,4.34901 -5.6215652,6.26257 -3.37548128,3.04102 -4.4456857,3.47921 -8.4980817,3.47921 -4.7995447,0 -5.8414507,-1.1011 -3.4766103,-3.67414 0.6378549,-0.69398 -0.3139637,-0.38271 -2.1151734,0.69167 -5.127239,3.05836 -10.909404,4.05945 -14.054237,2.43322 -1.440021,-0.74474 -2.618313,-1.67605 -2.618313,-2.06971 0,-0.39357 1.67002,-2.34638 3.711155,-4.33946 4.395492,-4.29204 4.760856,-5.69328 0.9739,-3.735 -6.65939,3.44377 -20.069649,0.45666 -19.359149,-4.31217 0.161436,-1.08292 0.919625,-2.30213 1.68505,-2.70924 4.558227,-2.42422 14.644869,-8.32264 16.123022,-9.42819 1.636062,-1.22366 1.486132,-1.45319 -2.459661,-3.76562 -2.311029,-1.35438 -5.861492,-4.3478 -7.889824,-6.65215 -2.028424,-2.30435 -3.870735,-4.18971 -4.094053,-4.18971 -0.223412,0 -0.224989,2.50503 0,5.56674 0.394681,5.45632 0.355714,5.56673 -1.967933,5.56673 -5.456048,0 -11.816597,-4.73339 -18.486378,-13.75698 -2.009498,-2.7187 -3.844015,-4.75259 -4.076797,-4.51981 -0.825546,0.82554 1.567221,34.61292 2.894516,40.87234 0.741674,3.49767 2.691979,9.27409 4.33398,12.83643 l 2.985439,6.47717 3.500083,-3.79048 c 2.066093,-2.23764 4.340567,-3.79048 5.551703,-3.79048 2.570902,0 5.445007,2.52451 5.445007,4.78275 0,2.19051 0.405629,2.15339 3.787234,-0.34672 3.855704,-2.85063 5.861769,-1.48659 6.237338,4.24102 0.268781,4.09739 1.244072,5.41736 2.500577,3.3842 0.839277,-1.35791 4.706023,-1.13218 5.933116,0.34625 0.581538,0.70076 0.812929,1.91106 0.514181,2.68957 -0.695285,1.81188 0.396444,2.44806 6.848751,3.9907 8.3649445,1.99984 8.3712534,1.99725 8.6905056,-3.54731 0.2579253,-4.48011 0.4635233,-4.87089 2.5629238,-4.87089 2.66154779,0 6.5314477,5.0287 6.5314477,8.48732 0,2.74783 0.4715023,2.73113 3.8802912,-0.13722 1.5160997,-1.27571 3.5499057,-2.31948 4.5195377,-2.31948 2.246919,0 4.954114,4.07105 4.319878,6.4961 -0.662906,2.53528 0.838906,2.33543 2.595396,-0.34541 z M -253.08149,712.62465 c 0,-4.10741 -0.4445,-4.43613 -2.9422,-2.17566 -2.81853,2.55077 -2.11508,5.88682 1.24129,5.88682 1.36589,0 1.70091,-0.73101 1.70091,-3.71116 z m -170.20703,0.50602 c 2.78309,-2.78309 2.90518,-5.95205 0.35441,-9.19495 -2.50837,-3.18881 -5.73531,-3.1529 -8.28793,0.0919 -2.24442,2.85332 -1.99002,6.80727 0.62384,9.69557 2.09411,2.31391 4.60666,2.11017 7.30968,-0.59285 z m 149.72841,-1.09507 c 1.05759,-1.34455 1.92285,-3.451 1.92285,-4.68107 0,-2.75033 -3.86434,-6.79113 -6.49453,-6.79113 -2.82641,0 -6.49452,4.06937 -6.49452,7.20521 0,6.14196 7.35922,8.97969 11.0662,4.26699 z m -102.91729,-4.04989 c 0,-2.89693 -0.35618,-3.72211 -1.62363,-3.76107 -0.893,-0.0278 -6.83409,-0.009 -13.20262,0.0492 -12.56607,0.10781 -14.86299,0.9187 -14.86299,5.24702 v 2.17566 h 14.84462 14.84462 z m 84.42878,0.53979 c 0,-1.74434 0.25347,-3.83187 0.56317,-4.63895 0.5011,-1.30586 -1.33945,-1.46757 -16.7002,-1.46757 h -17.26337 v 4.15315 4.15306 l 16.00436,0.27732 c 8.8024,0.15243 16.31749,0.37111 16.7002,0.48579 0.38271,0.11467 0.69584,-1.21856 0.69584,-2.9628 z m 38.96713,-17.64915 c 0,-2.26612 -0.3494,-4.33629 -0.77656,-4.60025 -1.57288,-0.97214 -4.79017,2.32383 -4.79017,4.90735 0,3.13964 0.60093,3.81321 3.40192,3.81321 1.94298,0 2.16481,-0.42232 2.16481,-4.12031 z m -123.57934,-3.53394 -0.28047,-4.87089 -11.59736,-0.26823 c -6.37854,-0.14742 -12.52468,-0.038 -13.65807,0.24299 -2.60644,0.64639 -4.29037,3.72461 -3.58191,6.54759 0.65761,2.61998 2.08724,2.86408 17.98435,3.07089 l 11.41394,0.14854 z m 102.57903,2.02016 c 3.37928,-2.6582 3.37464,-7.50943 -0.0102,-10.64656 -3.03127,-2.80925 -5.58724,-2.88783 -8.38675,-0.25783 -2.94211,2.76398 -2.88328,7.53671 0.12999,10.54998 2.78207,2.78216 5.05682,2.87967 8.26715,0.35441 z m 76.46817,-7.5869 -0.26442,-9.50983 h -6.03063 -6.03063 l -0.30394,8.18913 c -0.16719,4.50404 -0.0761,8.78347 0.20281,9.50983 0.36722,0.95683 2.18522,1.32071 6.59899,1.32071 h 6.09224 z m 22.4664,0.23195 v -9.27789 h -6.49452 -6.49452 v 9.27789 9.27789 h 6.49452 6.49452 z m -248.6474,6.49452 c 3.60631,-3.60631 1.26977,-9.27789 -3.82231,-9.27789 -2.77427,0 -4.52779,2.13225 -4.52779,5.50569 0,2.22966 3.08128,5.62778 5.10284,5.62778 0.76542,0 2.22669,-0.83501 3.24726,-1.85558 z m 120.9009,1.24185 11.88572,-0.60613 -0.3174,-3.79706 -0.31739,-3.79707 -17.367,-0.25245 -17.36701,-0.25246 v 4.65945 4.65945 h 5.79868 c 3.18928,0 11.14729,-0.27657 17.6844,-0.60993 z m 49.81224,-21.76639 c 0,-4.7179 -0.0148,-4.74221 -2.08752,-3.374 -2.39129,1.57873 -3.30701,6.14827 -1.46591,7.31543 2.74579,1.74063 3.55343,0.84475 3.55343,-3.94143 z m -128.22004,1.36199 4.91765,-0.59054 -0.27871,-3.80838 -0.27871,-3.8083 -12.70245,0.039 c -14.16464,0.0436 -16.52289,0.91888 -16.52289,6.13575 v 2.63955 l 9.97373,-0.009 c 5.48555,0 12.18669,-0.27389 14.89138,-0.59871 z m 89.71681,-4.95996 v -4.17505 h -16.7002 -16.7002 l -0.28381,4.43344 -0.28391,4.43353 16.98411,-0.25848 16.98401,-0.25839 z m 17.09293,1.30921 c 3.63062,-3.05493 3.77665,-6.62859 0.4086,-9.99674 -3.04872,-3.04862 -5.33906,-3.09538 -8.26577,-0.16867 -2.81714,2.81713 -2.95705,6.81395 -0.35441,10.12273 2.4219,3.07896 4.58977,3.09018 8.21158,0.0427 z m -149.30284,-0.38142 c 4.92535,-4.92535 -1.50181,-12.40444 -6.65336,-7.7424 -2.11258,1.91181 -2.18912,5.66054 -0.16125,7.90124 2.00068,2.21073 4.50339,2.15238 6.81461,-0.15884 z m 226.1822,-8.58204 0.26554,-9.04595 h -5.60032 c -3.08026,0 -5.91354,0.10438 -6.29626,0.23195 -0.80374,0.26795 -1.12531,9.95462 -0.47577,14.33211 0.40248,2.71267 0.76951,2.99815 4.28518,3.33271 7.95718,0.75726 7.5252,1.24612 7.82163,-8.85082 z m 22.00131,0.23194 v -8.81399 l -6.84588,-0.275 c -6.74177,-0.27082 -6.83724,-0.24261 -6.27528,1.85558 0.31387,1.1718 0.57643,5.38526 0.58339,9.36334 l 0.013,7.23276 6.26257,-0.27435 6.26258,-0.27434 z m 174.73343544,5.90677 c 0.25337913,-0.15169 -5.92922004,-3.25728 -9.58702744,-4.81569 -0.510284,-0.21738 0.7122635,1.31635 2.7167512,3.40833 3.0230143,3.15494 3.8931875,3.61503 5.1028385,2.69791 0.8020735,-0.60807 1.5973741,-1.18877 1.76743774,-1.29055 z M -516.11611,663.46242 c 0.325,-0.52587 -0.0473,-0.68146 -0.87305,-0.36462 -1.6073,0.61679 -1.90141,1.28183 -0.56688,1.28183 0.48022,0 1.1281,-0.41277 1.43993,-0.91721 z m 263.03462,-18.56635 c 0,-2.55142 -0.38716,-4.63895 -0.86043,-4.63895 -1.11149,0 -4.7063,4.56018 -4.7063,5.97014 0,1.60981 2.00031,3.30775 3.89671,3.30775 1.38556,0 1.67002,-0.79038 1.67002,-4.63894 z m -123.39591,2.38265 c 0,-0.73072 1.14814,-2.13586 2.55142,-3.12256 2.39379,-1.68311 3.86665,-1.76494 23.83192,-1.32377 20.82237,0.46018 21.32755,0.51733 23.46889,2.65867 2.13679,2.13679 2.58092,2.18837 18.84636,2.18837 h 16.65798 v -4.63894 -4.63894 l -55.43538,0.0204 c -51.0899,0.0195 -55.5971,0.14631 -57.49944,1.62363 -1.97359,1.53261 -2.57888,3.39274 -2.25796,6.93782 0.13333,1.47249 1.52844,1.62363 14.99159,1.62363 12.26295,0 14.84462,-0.23102 14.84462,-1.3285 z m -47.31723,-5.16602 c 1.02057,-1.02057 1.85558,-2.89934 1.85558,-4.17505 0,-2.76991 -2.99036,-6.03063 -5.53055,-6.03063 -2.1766,0 -5.60292,3.43459 -5.60292,5.61656 0,2.33116 3.5962,6.4447 5.63409,6.4447 0.98355,0 2.62323,-0.83501 3.6438,-1.85558 z m 149.0823,-0.16171 c 1.52158,-1.42954 2.14728,-3.05558 2.14728,-5.58037 0,-3.02422 -0.45601,-3.84114 -3.01532,-5.40159 -3.81581,-2.32652 -4.02345,-2.31326 -6.76859,0.43189 -6.32603,6.32603 1.14564,16.64805 7.63663,10.55007 z m 148.73791,-13.36211 c -0.76543,-0.17572 -12.87307,-0.97789 -26.90588,-1.78265 -14.0328,-0.80467 -31.35926,-1.85938 -38.50323,-2.34388 -7.14398,-0.48439 -25.30544,-1.13366 -40.35882,-1.44271 l -27.36977,-0.56205 -2.31947,-2.5542 c -1.27571,-1.40477 -8.97348,-10.23815 -17.10629,-19.6297 -8.13281,-9.39163 -16.69166,-19.18055 -19.01967,-21.75312 -2.32801,-2.57266 -8.1933,-9.25274 -13.03386,-14.84462 -16.19297,-18.70654 -47.19977,-52.38147 -48.23091,-52.38147 -0.77777,0 -27.09125,31.53953 -37.1547,44.53386 -3.75429,4.8477 -12.52812,15.70283 -19.49729,24.12251 -15.46272,18.68103 -26.53977,32.82146 -27.84239,35.54238 -2.0313,4.24306 13.88928,-13.59553 29.23667,-32.75901 8.78634,-10.97111 20.534,-25.58378 26.10584,-32.47261 5.57184,-6.88883 12.89497,-16.07394 16.27379,-20.41136 3.37873,-4.33741 7.14861,-8.81733 8.37747,-9.95526 l 2.23439,-2.06906 6.99284,7.1719 c 8.32134,8.53445 19.04314,20.57214 32.35784,36.32942 5.35798,6.34079 15.3781,17.82394 22.26693,25.518 6.88883,7.69406 16.7477,18.78856 21.90853,24.6546 5.16082,5.86594 10.20131,11.3938 11.2011,12.28411 1.6176,1.44039 5.74375,1.728 37.46996,2.61172 19.60872,0.5461 45.04609,1.31932 56.52748,1.71808 21.68651,0.75327 48.81115,1.03105 46.38944,0.47512 z m -201.97898,-1.93759 36.92655,-0.6142 -0.27889,-3.13101 -0.27898,-3.13091 -53.09365,0.0501 c -34.74059,0.0325 -53.9833,0.38688 -55.66733,1.02492 -2.75358,1.0433 -6.74873,4.38919 -6.74873,5.65219 0,0.92417 29.23973,0.97928 79.14103,0.14928 z M -8.1452399,612.3908 c 0,-0.52828 -0.6845226,-2.00523 -1.5212026,-3.28214 -1.4287015,-2.18049 -1.4145995,-2.40251 0.2319472,-3.64909 1.3635712,-1.03226 1.4439178,-1.33871 0.3614665,-1.37879 -0.7654257,-0.0288 -3.7923372,-1.03875 -6.7264692,-2.24534 -2.934132,-1.20668 -5.334785,-1.98324 -5.334785,-1.72578 0,0.25746 2.548079,3.34208 5.662295,6.85478 5.415132,6.10801 7.3267481,7.52381 7.3267481,5.42636 z M -365.34394,584.99895 c 0,-12.48006 -0.32073,-18.87623 -0.92778,-18.50104 -0.56828,0.35126 -0.92779,7.74119 -0.92779,19.07441 0,11.71547 0.34031,18.50104 0.92779,18.50104 0.58849,0 0.92778,-6.97669 0.92778,-19.07441 z m 13.01002,2.14226 c 0.0111,-7.78182 0.26998,-18.21945 0.57448,-23.19472 0.48635,-7.94632 0.37103,-9.04594 -0.94866,-9.04594 -1.34455,0 -1.50237,2.43656 -1.50237,23.19472 0,14.84462 0.334,23.19472 0.92779,23.19472 0.57708,0 0.93577,-5.3487 0.94876,-14.14878 z m 18.5348,-0.23194 c 0,-8.96866 -0.34912,-14.38073 -0.92778,-14.38073 -0.57857,0 -0.92779,5.41207 -0.92779,14.38073 0,8.96856 0.34922,14.38072 0.92779,14.38072 0.57866,0 0.92778,-5.41216 0.92778,-14.38072 z m 320.485169,-41.43793 c 4.1123307,-2.8986 4.6887659,-4.4827 1.634763,-4.49282 -3.358781,-0.0111 -8.635023,-2.04837 -13.118006,-5.06526 -2.577954,-1.73478 -4.687189,-2.93376 -4.687189,-2.66433 0,1.14712 10.774505,15.1571 11.656646,15.1571 0.192702,0 2.22391,-1.32061 4.513786,-2.93469 z M -771.72787,830.18078 c -0.24837,-0.22155 -16.31665,-0.67552 -35.70744,-1.00869 -19.39078,-0.33317 -40.05728,-0.81061 -45.92554,-1.06102 -5.86827,-0.25041 -22.98597,-0.8826 -38.03935,-1.40495 -55.68319,-1.93212 -121.8558,-5.71035 -127.7851,-7.29604 -4.92,-1.31569 -3.6801,-3.52559 3.172,-5.65338 28.38981,-8.81604 79.82948,-18.55884 97.98575,-18.55884 4.18117,0 5.77539,-1.11409 3.07627,-2.14978 -0.70623,-0.2711 -2.58501,-3.09622 -4.17505,-6.27816 -5.23236,-10.47084 -3.82277,-19.0052 5.09959,-30.8745 9.38338,-12.48265 14.10722,-26.72579 14.69506,-44.30794 0.16747,-5.00811 0.8454,-7.40274 3.67739,-12.98905 8.10831,-15.99461 22.96101,-31.21378 36.16001,-37.05226 11.55477,-5.11128 30.82745,-5.9411 52.56026,-2.26307 16.11541,2.72733 21.70654,2.33293 33.8269,-2.38645 6.85524,-2.66925 8.0956,-2.86093 16.2363,-2.50939 7.22701,0.3122 10.82869,1.06259 20.00378,4.16818 6.67145,2.25805 17.01945,4.79444 25.62729,6.28132 l 14.43751,2.49389 4.73413,-3.40109 c 5.99027,-4.30364 8.08856,-3.87055 9.65689,1.99336 0.62338,2.33079 1.91217,4.61157 2.90667,5.14375 0.98262,0.52587 4.90995,3.48849 8.72743,6.5835 5.13448,4.16289 7.40487,6.72981 8.72372,9.86332 0.98058,2.32977 2.48842,5.89165 3.35062,7.91543 1.7961,4.21532 6.07896,8.78997 11.33637,12.10885 2.47043,1.55952 3.45648,2.74941 3.0836,3.72108 -0.30144,0.78566 -3.31619,3.53163 -6.69938,6.10226 l -6.15133,4.67383 -5.56673,-0.67302 c -7.9853,-0.96527 -9.43088,-0.83965 -17.02762,1.47982 -5.28849,1.61463 -8.19877,1.97239 -12.94692,1.59125 -3.36871,-0.27045 -8.51404,-0.0473 -11.43407,0.49563 -4.53058,0.84261 -5.65914,0.758 -7.69638,-0.5769 l -2.38729,-1.56416 0.009,3.03665 c 0.009,4.70166 2.5298,20.09285 4.22125,25.76757 3.93809,13.21255 15.382,29.31247 22.46529,31.6055 6.00094,1.9426 11.70684,5.24386 14.78432,8.55375 2.57934,2.77399 3.74687,3.28159 8.81408,3.83158 9.83419,1.06742 44.30164,6.82092 55.95356,9.34014 29.41795,6.36037 64.2349,17.68774 66.7185,21.70627 1.94789,3.15189 -2.80545,3.29894 -117.30758,3.62923 -62.00635,0.17897 -112.94196,0.14409 -113.19024,-0.0779 z m -85.11219,-39.27534 12.75709,-0.62885 v -3.05614 c 0,-3.94709 -9.72118,-22.25218 -16.4278,-30.93378 -0.17331,-0.22434 -0.96323,0.51743 -1.75537,1.6484 -1.88277,2.68799 -19.39654,15.0917 -27.97432,19.8121 -3.69956,2.03585 -6.72647,3.83288 -6.72647,3.99339 0,0.1606 1.87961,1.39344 4.177,2.73985 2.29739,1.34632 5.11555,3.73101 6.26257,5.29916 l 2.08558,2.85128 7.42231,-0.54823 c 4.08227,-0.30153 13.163,-0.8313 20.17941,-1.17718 z m 143.57532,-0.72228 c 0,-0.20662 -1.88824,-1.48233 -4.19611,-2.83486 -12.44239,-7.29168 -36.6266,-36.12541 -36.6266,-43.66814 0,-2.69245 -2.4566,-1.29761 -4.04154,2.29488 -0.88845,2.01358 -3.60483,6.71051 -6.03647,10.43763 -6.56532,10.06289 -11.26113,18.77325 -11.26113,20.88833 0,1.35243 1.11177,2.29692 4.00415,3.40155 2.20229,0.84104 5.4155,2.98534 7.14045,4.76494 3.04732,3.14409 3.34801,3.23881 10.60843,3.33966 4.10973,0.0575 11.43861,0.40712 16.28631,0.77777 10.37388,0.79307 24.12251,1.13404 24.12251,0.59824 z m -83.77405,-2.79107 c 0.10494,-0.0844 -0.45934,-2.01534 -1.25399,-4.29176 -1.16549,-3.33874 -1.36135,-7.18768 -1.01306,-19.91119 0.23742,-8.67482 0.72331,-16.45424 1.07967,-17.28767 0.58692,-1.37248 0.18361,-1.40709 -4.28063,-0.36741 -2.71072,0.63127 -7.25865,1.82617 -10.10659,2.65534 l -5.17808,1.50747 0.94903,4.63282 c 0.68323,3.3354 0.61754,7.34474 -0.23445,14.31615 -1.40931,11.53112 -0.90311,13.10743 4.50228,14.02074 2.03446,0.34366 5.48435,1.83165 7.66641,3.30664 3.37725,2.28283 6.16395,2.78532 7.86941,1.41887 z m -281.77471,7.21838 c -21.5825,-1.99576 -45.2001,-6.20217 -47.4488,-8.45095 -3.9218,-3.92176 18.5268,-18.35092 41.3125,-26.55415 1.7015,-0.61262 1.7026,-0.6822 0.039,-2.52052 -1.3192,-1.45765 -1.481,-2.24989 -0.7068,-3.45991 0.7777,-1.2154 2.4427,-1.58021 7.3833,-1.61769 3.5086,-0.0269 7.4919,-0.37613 8.8517,-0.77666 l 2.4726,-0.72822 -2.2406,-4.4609 c -2.8999,-5.77363 -2.9437,-7.76587 -0.1531,-6.9638 1.1481,0.33002 2.9225,0.83288 3.9431,1.11743 1.0206,0.28456 3.6958,1.77802 5.9449,3.3188 4.0631,2.78346 4.085,2.78717 3.4273,0.56873 -0.3641,-1.22793 -0.899,-4.77301 -1.1886,-7.87795 -0.8739,-9.36556 2.6588,-12.56959 7.5066,-6.80839 2.3371,2.77752 2.9691,4.4121 3.5596,9.20645 0.2328,1.89046 0.6478,1.37572 2.2438,-2.78337 2.4995,-6.51326 4.5699,-6.77174 7.4326,-0.92779 1.1249,2.29628 2.0698,4.95681 2.1,5.91225 0.122,3.87008 2.7813,-0.66254 4.193,-7.14695 1.4874,-6.83131 5.9971,-38.88066 5.5485,-39.43139 -0.1377,-0.16905 -0.9389,1.14396 -1.7806,2.91771 -2.4957,5.25907 -7.5923,10.5201 -12.6172,13.02411 -7.188,3.58191 -8.8565,1.81216 -5.9596,-6.32112 1.3699,-3.84615 0.9846,-5.83625 -0.5865,-3.02895 -4.1649,7.44226 -20.5734,13.17831 -27.4805,9.6066 -4.0379,-2.08808 -4.6757,-4.79267 -1.8536,-7.86004 2.5685,-2.79162 5.3353,-6.75745 5.3353,-7.64739 0,-0.32732 -1.9495,0.39181 -4.3324,1.59812 -5.1516,2.6081 -13.7241,2.97894 -17.9806,0.77776 -3.5915,-1.85715 -3.4537,-3.08517 0.7419,-6.61244 l 3.4792,-2.92513 -4.4179,0.49562 c -5.2104,0.58442 -11.4157,-1.45969 -14.5459,-4.79166 -3.4114,-3.63127 -2.267,-5.29934 4.583,-6.68017 13.0421,-2.62907 27.0714,-10.53244 40.1269,-22.60502 7.2116,-6.66867 9.6097,-10.19862 4.4158,-6.50036 -2.744,1.95401 -9.2867,3.63507 -9.2867,2.38618 0,-0.35544 0.4344,-1.45802 0.9654,-2.45011 0.9419,-1.76001 0.8912,-1.75853 -2.0875,0.0575 -2.1239,1.29492 -4.6852,1.86235 -8.4168,1.86477 -6.1002,0 -7.3981,-1.32813 -4.9438,-5.07389 2.0972,-3.20069 1.9057,-3.5565 -1.5636,-2.90565 -6.3948,1.19963 -17.5652,-4.4108 -16.1459,-8.10953 0.2833,-0.73824 2.7368,-2.05765 5.4521,-2.9319 6.5291,-2.10209 15.5952,-7.03923 23.029,-12.54092 6.0075,-4.44597 21.9506,-20.08858 21.2196,-20.81959 -0.2113,-0.21135 -2.3517,0.2635 -4.7563,1.05509 -5.2979,1.74415 -7.7185,1.1755 -6.2976,-1.47936 1.4738,-2.75387 1.2549,-2.82837 -2.6986,-0.91833 -3.971,1.91867 -12.5265,2.41494 -13.5338,0.78519 -0.3354,-0.54248 0.057,-1.72346 0.873,-2.62453 2.2226,-2.45604 1.858,-2.88366 -2.4606,-2.88524 -4.8588,0 -10.4376,-2.62991 -10.4376,-4.91709 0,-1.16159 1.601,-2.32198 5.249,-3.80468 13.43,-5.45837 26.9413,-16.34504 37.7458,-30.41375 0.9956,-1.29631 0.9352,-1.9645 -0.3554,-3.93438 l -1.5548,-2.37282 -2.7671,1.97034 c -3.4892,2.48462 -9.8594,3.26517 -12.2165,1.49699 -1.6293,-1.22236 -1.6431,-1.47287 -0.2319,-4.20186 1.9998,-3.86721 1.9474,-3.98105 -1.3119,-2.84488 -5.7941,2.01979 -15.0277,-1.40662 -13.627,-5.05682 0.2671,-0.69603 2.5095,-2.01748 4.9834,-2.93655 8,-2.97226 14.1285,-7.01204 22.1357,-14.59161 8.9232,-8.4465 14.7971,-15.93783 14.0412,-17.90753 -0.4324,-1.12708 -1.1877,-1.04219 -4.7515,0.53431 -2.6636,1.1782 -5.6942,1.76874 -8.1602,1.59005 -3.8372,-0.27806 -4.1705,-0.66782 -3.0434,-3.55807 0.4484,-1.14981 -0.1091,-1.35708 -2.9466,-1.09544 -4.9723,0.45842 -10.9219,-1.66965 -10.9219,-3.90646 0,-1.29937 2.1733,-2.86724 8.1344,-5.86835 8.5878,-4.3235 21.6147,-15.51375 25.1718,-21.62277 l 1.7612,-3.02487 -2.2251,0.72089 c -1.2239,0.39654 -3.9967,0.92074 -6.1618,1.16493 -5.0822,0.57319 -5.8674,-1.16669 -2.6581,-5.88979 1.3037,-1.91857 2.2561,-3.6026 2.1165,-3.74233 -0.1397,-0.13972 -1.4856,0.0789 -2.9907,0.48524 -5.0783,1.37164 -13.7056,-1.77579 -12.0796,-4.40691 0.3403,-0.55045 3.4166,-2.83458 6.8364,-5.07565 7.7593,-5.08521 14.8925,-12.21592 20.2112,-20.20427 4.1491,-6.23187 5.0484,-8.25992 2.9385,-6.62738 -3.2417,2.50827 -7.7304,1.7524 -5.5065,-0.92724 0.9348,-1.12633 0.4363,-1.26309 -3.3069,-0.90728 -3.5322,0.33586 -4.9143,0.0186 -6.959,-1.59515 -3.3327,-2.63093 -3.2234,-3.32918 0.8216,-5.24859 3.5126,-1.66687 14.2549,-11.07418 14.2549,-12.48331 0,-0.44441 -1.0129,-0.34643 -2.251,0.21766 -2.8647,1.30521 -7.0269,0.30459 -7.0269,-1.68932 0,-0.83399 2.0354,-3.66838 4.5231,-6.29876 2.4876,-2.63028 5.2436,-6.17591 6.1243,-7.87915 1.4851,-2.87151 1.4881,-3.05317 0.042,-2.49835 -2.1468,0.82378 -5.8089,-0.21525 -6.426,-1.82329 -0.2803,-0.73045 0.9868,-3.28845 2.8159,-5.68456 5.5363,-7.25299 7.1187,-12.77853 9.5643,-33.39789 2.6098,-22.00474 3.7612,-22.29078 6.1203,-1.52009 1.6107,14.18023 4.2231,26.60573 6.5638,31.21944 0.8351,1.64581 2.9568,5.01665 4.7152,7.49078 4.6492,6.54221 3.23293,8.62361 -3.8533,5.66276 -3.4246,-1.43093 -3.4348,-1.42833 -2.7917,0.69584 2.029,6.70114 8.48077,15.10079 13.94953,18.16128 1.44503,0.80866 1.51833,1.18247 0.47735,2.43666 -1.37935,1.66204 -8.87008,2.08455 -9.81628,0.5537 -0.3154,-0.51028 -0.9899,-0.92779 -1.4988,-0.92779 -3.1224,0 9.79221,14.98203 16.77975,19.46594 2.78792,1.78896 4.37471,3.40981 4.08283,4.17041 -0.75587,1.96969 -5.62722,3.55825 -8.90269,2.90314 -2.34387,-0.46881 -2.7392,-0.35451 -1.85001,0.5346 0.6219,0.62189 1.1307,1.46479 1.1307,1.87302 0,1.16548 -5.07055,0.8672 -6.30897,-0.37112 -1.66741,-1.66752 -1.44651,0.55779 0.41435,4.17468 2.90602,5.6481 11.78608,14.66491 19.49248,19.79252 4.25419,2.83068 7.96757,5.52312 8.25193,5.98321 0.28437,0.46009 -0.58367,1.93732 -1.92896,3.28261 -2.21649,2.21649 -2.9025,2.39231 -7.31283,1.87395 -4.60536,-0.54127 -4.86292,-0.46046 -4.79426,1.50488 0.12572,3.60241 -5.51413,3.20179 -13.61242,-0.96676 -3.085,-1.5881 4.43223,9.97902 11.99733,18.46086 2.90509,3.2571 7.09461,7.30708 9.31008,9.00011 4.09693,3.13073 13.20225,7.59145 15.49593,7.59145 0.69426,0 2.21073,0.76793 3.36982,1.70648 l 2.10747,1.70648 -1.9529,1.9529 c -2.50299,2.50299 -7.96822,3.5231 -12.45668,2.32504 -4.00267,-1.06835 -3.98699,-1.08607 -2.16193,2.44315 0.7451,1.44086 1.09303,2.88143 0.77322,3.20124 -1.56212,1.56212 -8.92895,-0.39858 -13.72404,-3.65261 -1.90633,-1.29371 -3.62747,-2.1906 -3.8249,-1.99326 -0.92417,0.92417 9.45379,13.95877 15.92679,20.00378 5.42617,5.06748 9.39655,7.79361 15.88913,10.90977 4.76048,2.28487 8.65543,4.52362 8.65543,4.97518 0,0.45155 -1.14814,1.73079 -2.55142,2.84274 -2.20415,1.74666 -3.37205,1.95921 -8.58204,1.56193 -3.31685,-0.253 -6.74234,-0.75243 -7.61223,-1.10982 -1.48335,-0.60946 -1.48725,-0.40943 -0.0631,3.21702 1.30883,3.33215 1.33518,3.98782 0.18992,4.74174 -1.87488,1.23424 -7.1308,0.15142 -11.78858,-2.42867 -4.6074,-2.55235 -4.46517,-2.2087 2.7842,6.72378 6.74317,8.3089 13.42278,14.25668 21.70998,19.33159 4.75612,2.91261 6.68732,3.65391 7.5985,2.91697 0.9494,-0.76775 0.55788,-1.20965 -1.75631,-1.98259 -1.63792,-0.54712 -3.58674,-1.9209 -4.33073,-3.05289 -1.27784,-1.94437 -1.06538,-2.35937 3.84383,-7.50619 2.85815,-2.99638 5.19654,-5.61906 5.19654,-5.82799 0,-0.20904 -1.91495,-0.38003 -4.25539,-0.38003 -3.54193,0 -4.64219,-0.4497 -6.56253,-2.68223 -2.6815,-3.11737 -2.47701,-3.46715 4.83016,-8.26196 2.49167,-1.63495 6.076,-5.02138 7.96516,-7.52539 3.40285,-4.51008 3.41742,-4.56695 1.5572,-6.07331 -1.87487,-1.51814 -1.87423,-1.52482 0.40322,-4.26124 5.23282,-6.28735 5.64838,-8.97701 1.17486,-7.60406 -2.73049,0.83798 -3.52968,0.72924 -5.10284,-0.69455 -1.88017,-1.70147 -2.52674,-4.18386 -1.08987,-4.18386 1.81373,0 9.23521,-6.75569 11.13513,-10.13609 l 2.0647,-3.67358 -3.26015,0.52902 c -4.83842,0.78519 -5.264,-1.57603 -1.11233,-6.17137 3.64593,-4.0356 5.41931,-9.20534 7.17181,-20.90679 2.00857,-13.41138 3.49396,-12.40194 6.47049,4.39734 1.17217,6.61551 2.86353,12.53072 4.61148,16.12785 3.50528,7.21356 3.50259,8.0919 -0.0232,7.57447 -1.65889,-0.24355 -2.78337,0.009 -2.78337,0.61605 0,2.53286 7.60731,11.35177 10.90152,12.63778 2.40065,0.93716 2.79793,4.10092 0.61995,4.93667 -0.80718,0.3097 -3.10346,0.56317 -5.10284,0.56317 -2.50884,0 -3.63526,0.40517 -3.63526,1.30754 0,2.49018 7.90457,13.04378 12.06125,16.10316 9.8456,7.24668 9.8379,7.23861 8.46301,8.89527 -0.83343,1.00424 -2.69847,1.5277 -5.44296,1.5277 -3.5501,0 -4.00722,0.20216 -3.05373,1.35104 2.3872,2.87643 -2.42524,4.51991 -6.63629,2.26613 -1.55265,-0.83093 -1.41135,-0.39682 0.7568,2.32531 3.33447,4.18637 9.06849,8.34268 16.42697,11.90725 l 5.6866,2.7546 -2.17233,1.75909 c -1.1948,0.9675 -3.24262,1.75909 -4.5508,1.75909 h -2.37839 l 2.19061,2.33172 c 1.48882,1.58484 1.8874,2.63492 1.24425,3.27806 -1.12596,1.12596 -8.3475,1.39595 -11.53009,0.43105 -1.95541,-0.59286 -1.76364,-0.17313 1.46024,3.19716 2.04114,2.13382 6.21619,5.51032 9.27789,7.5034 9.88736,6.43635 9.94228,6.48552 8.78755,7.87683 -0.57736,0.69575 -2.50994,1.74684 -4.29464,2.3358 l -3.24494,1.07095 2.00848,2.1379 2.00857,2.138 7.26755,-5.71286 c 7.56872,-5.94944 8.50792,-7.10213 5.79126,-7.10797 -2.34712,-0.009 -7.65426,-3.45444 -7.65426,-4.97509 0,-0.71207 2.35111,-2.48424 5.22457,-3.93809 5.89294,-2.98154 14.259,-10.37027 14.259,-12.59315 0,-1.3054 -0.40795,-1.3273 -3.68573,-0.19799 -2.58167,0.88947 -4.38817,1.00275 -6.03063,0.37835 -2.90797,-1.10565 -2.93386,-2.00486 -0.15114,-5.23997 l 2.19376,-2.5504 -2.8343,-1.44447 c -1.55897,-0.79437 -2.98414,-1.92359 -3.16729,-2.50921 -0.18305,-0.58571 2.15692,-2.5773 5.19998,-4.42583 5.83635,-3.54545 10.24863,-7.95681 12.70022,-12.69762 1.62261,-3.13778 1.97647,-3.01105 -3.80959,-1.36459 -1.04738,0.298 -2.7174,-0.0557 -3.71116,-0.78528 -1.75983,-1.29251 -1.73617,-1.40115 0.90877,-4.16967 1.49365,-1.56342 2.53741,-2.97115 2.31947,-3.12832 -0.21793,-0.15717 -1.54439,-0.77879 -2.94767,-1.38148 -1.40328,-0.60269 -2.55142,-1.46544 -2.55142,-1.91727 0,-0.45184 1.65675,-1.96961 3.68174,-3.37289 4.22747,-2.92968 7.88064,-7.41387 9.8187,-12.05225 1.68996,-4.0447 1.68421,-4.11901 -0.27945,-3.60929 -0.893,0.23176 -2.42682,-0.16793 -3.40851,-0.88817 -1.72133,-1.263 -1.64664,-1.51666 2.10172,-7.12987 4.5045,-6.74558 4.48131,-6.67006 6.49851,-21.05997 2.16008,-15.4089 2.88357,-14.9195 6.5796,4.45106 1.03188,5.4079 3.1529,12.8329 4.71335,16.49999 2.851,6.69975 2.91966,8.45958 0.3302,8.45958 -1.01472,0 -1.23062,0.57393 -0.78537,2.08752 1.18144,4.01677 6.49582,12.06701 9.48469,14.36755 1.65842,1.27655 3.01531,2.88969 3.01531,3.58479 0,1.55748 -3.72117,2.5723 -7.43418,2.02741 -1.52427,-0.22379 -2.77149,-0.0995 -2.77149,0.2762 0,0.37557 1.77439,3.32056 3.9431,6.54425 3.54016,5.26251 6.36324,7.95384 13.70901,13.06967 2.24775,1.56536 2.25796,1.62799 0.49442,3.01531 -0.99051,0.77916 -2.77966,1.41674 -3.97577,1.41674 -1.86262,0 -2.03696,0.25755 -1.21438,1.79453 0.52828,0.98707 0.96045,2.23958 0.96045,2.78336 0,1.43381 -3.74456,1.20186 -6.86453,-0.4252 -1.47917,-0.77137 -2.91501,-1.1769 -3.19075,-0.90126 -0.98235,0.98244 11.84378,12.50706 16.24484,14.59663 2.46402,1.16984 4.48001,2.7019 4.48001,3.4047 0,2.33989 -4.71409,4.94308 -9.17926,5.06898 -2.34434,0.0659 -4.26208,0.32899 -4.26162,0.58413 0,0.92093 6.148,4.58949 12.28114,7.3299 3.44442,1.53893 6.26258,3.23929 6.26258,3.77833 0,1.42379 -5.58446,4.59914 -7.07959,4.0254 -2.93905,-1.12782 -0.86896,0.72599 4.82896,4.32461 6.02858,3.80737 6.08249,3.87797 4.63894,6.0811 -1.35819,2.07286 -1.33481,2.29627 0.3341,3.18946 0.98698,0.52819 2.39713,0.96044 3.13361,0.96044 0.73647,0 1.86532,0.63406 2.50855,1.40904 0.95479,1.15046 0.88084,1.728 -0.40303,3.14659 -1.49346,1.65026 -1.43325,1.83656 1.19852,3.7106 1.52398,1.08514 2.96605,1.6523 3.20449,1.2604 1.28062,-2.10496 4.54375,-27.69663 5.73021,-44.94088 1.53836,-22.35721 1.80195,-52.45765 0.52754,-60.23706 -1.3208,-8.06286 -6.67285,-21.23059 -12.20247,-30.02195 -10.84093,-17.23581 -21.50512,-27.23413 -34.2535,-32.11485 -13.14955,-5.03428 -21.01729,-8.93684 -24.28617,-12.04651 -1.95114,-1.85604 -3.54749,-2.86408 -3.54749,-2.24014 0,0.62394 -0.63535,1.66167 -1.41191,2.3062 -1.24788,1.0356 -1.19703,1.32229 0.43671,2.46662 2.61599,1.83229 4.41331,8.13485 2.85518,10.01224 -1.50154,1.80937 -4.10259,1.82301 -5.59114,0.0297 -1.6766,-2.02016 -3.00789,-1.70518 -2.29442,0.54285 0.73026,2.30073 -2.66247,6.41557 -5.2896,6.41557 -0.93159,0 -2.52887,0.83501 -3.54944,1.85558 -2.60941,2.6095 -4.35476,2.32532 -7.97899,-1.29891 -2.79292,-2.79292 -3.1568,-3.72331 -3.1748,-8.11815 l -0.0204,-4.96367 -1.83359,4.04071 c -1.77569,3.91332 -1.95067,4.02957 -5.54632,3.68666 -3.1029,-0.29587 -3.71282,-0.0761 -3.71282,1.33629 0,2.20137 -4.06734,6.24486 -6.28169,6.24486 -2.7496,0 -7.63515,-6.17908 -7.63515,-9.65671 0,-3.32779 -3.92788,-7.04349 -7.44578,-7.04349 -6.34635,0 -7.5766,-5.74942 -2.296,-10.7296 3.70039,-3.48997 3.93522,-4.11502 1.54607,-4.11502 -0.93568,0 -3.44071,-1.60582 -5.56673,-3.56865 -3.15866,-2.91604 -3.86554,-3.24689 -3.86554,-1.80947 0,2.97115 -2.67398,7.1295 -5.5364,8.6097 -4.19759,2.17065 -7.25197,1.75083 -10.43744,-1.43464 -2.59437,-2.59438 -3.07283,-2.74644 -5.48991,-1.74526 -2.18485,0.90496 -3.05177,0.83204 -4.95801,-0.41695 -2.7226,-1.78386 -3.93568,-5.59791 -2.37764,-7.4752 0.88919,-1.07141 0.56242,-1.5983 -1.72448,-2.78086 -2.70646,-1.39957 -4.7321,-3.96184 -4.7321,-5.98554 0,-0.52614 1.24778,-2.37764 2.77279,-4.11465 2.71276,-3.08963 2.74078,-3.22249 1.28953,-6.13157 -0.87342,-1.75073 -1.268,-4.05072 -0.95961,-5.59289 0.47809,-2.39027 0.2467,-2.67139 -2.64503,-3.21386 -3.99255,-0.74901 -8.44891,-5.14153 -9.80367,-9.6632 -1.42369,-4.75195 0.59722,-9.4423 5.54113,-12.86027 2.56162,-1.77096 3.54991,-3.0258 3.13342,-3.97854 -0.33447,-0.76543 -0.77517,-3.79679 -0.97909,-6.73631 -0.3547,-5.11193 -0.22481,-5.49084 2.98395,-8.6995 2.94397,-2.94406 3.75838,-3.28929 6.65113,-2.81983 l 3.29634,0.53487 -0.60742,-3.59527 c -1.18516,-7.01511 3.2814,-10.52772 12.49834,-9.829 4.23934,0.32139 5.58964,0.12627 5.58964,-0.80764 0,-1.87951 3.65429,-2.42422 6.96983,-1.03884 2.1663,0.90515 3.44052,2.39248 4.72467,5.51459 1.66928,4.05852 3.15013,5.5607 3.15013,3.19549 0,-1.79871 2.86575,-4.39021 4.26217,-3.85432 1.7511,0.672 1.66194,-1.02966 -0.13194,-2.51848 -2.51737,-2.08919 -1.24175,-4.97258 3.1248,-7.06326 0.16319,-0.0779 -0.64946,-1.95689 -1.80576,-4.17504 -1.68477,-3.23168 -2.17687,-3.66431 -2.47682,-2.17743 -0.57291,2.83987 -3.96881,6.03062 -6.41845,6.03062 -3.0064,0 -9.54305,-3.45471 -9.54305,-5.04373 0,-0.71217 -1.56564,-2.52906 -3.47921,-4.03765 -2.60124,-2.0506 -4.18154,-2.63826 -6.26257,-2.32903 -3.82453,0.56855 -7.75316,-1.10787 -8.75174,-3.73435 -1.57288,-4.13701 -1.75612,-7.91737 -0.46612,-9.61875 1.80937,-2.38637 1.62456,-3.26879 -0.41741,-1.99354 -2.29164,1.43111 -7.08228,-0.46037 -9.14698,-3.61151 -2.20109,-3.35925 -1.9195,-9.99563 0.53506,-12.60828 l 2.00949,-2.13902 -2.8664,-2.72427 c -2.64912,-2.51783 -2.83922,-3.11217 -2.50735,-7.84065 0.19753,-2.81389 1.34112,-7.1449 2.54149,-9.62441 1.83702,-3.79485 2.97774,-4.87238 7.2092,-6.8096 3.78232,-1.73154 4.88574,-2.66897 4.45691,-3.7865 -2.49454,-6.50055 -0.84763,-14.45188 3.59639,-17.36375 3.31425,-2.17149 9.57385,-3.4651 11.51395,-2.37931 2.62685,1.47008 4.7141,-1.23665 4.15687,-5.39064 -0.55361,-4.12755 1.45653,-8.634 4.84027,-10.85114 1.85131,-1.21299 2.84108,-1.30262 5.22197,-0.47262 1.61574,0.56326 3.02626,1.0241 3.13444,1.0241 0.10827,0 0,-1.01111 -0.23269,-2.24692 -0.34022,-1.77978 0.15782,-2.55059 2.39602,-3.708 3.60585,-1.86467 6.77601,-0.7761 9.07525,3.11625 0.92232,1.56129 2.31753,2.89777 3.10049,2.97004 0.78296,0.0724 2.42542,0.17656 3.64983,0.23195 1.5302,0.0687 2.69049,1.0368 3.71115,3.09482 1.6022,3.23066 2.97514,3.76182 4.61547,1.78535 0.79577,-0.95887 0.49164,-1.8798 -1.30206,-3.9431 -2.61719,-3.01049 -3.69751,-6.14048 -2.86677,-8.30538 0.30441,-0.79326 -0.12145,-2.47228 -0.94625,-3.7312 -2.75804,-4.20929 0.29652,-12.28383 5.24052,-13.853 1.26801,-0.40248 1.4904,-1.34464 1.15371,-4.88685 -0.51947,-5.46468 1.67799,-8.6585 7.06863,-10.27359 2.26715,-0.67924 3.94663,-1.83415 4.30383,-2.95928 0.74993,-2.36298 5.02908,-4.58281 8.35836,-4.33611 2.15145,0.15949 2.91214,-0.42725 4.53104,-3.49461 1.07002,-2.0274 2.98924,-4.23563 4.26495,-4.90717 3.59602,-1.89296 9.31778,-0.80949 12.08621,2.28858 2.11379,2.36549 2.57016,2.50939 4.63895,1.46266 3.28122,-1.66037 4.40486,-1.48187 6.99822,1.11149 1.71038,1.71038 2.15145,2.89118 1.72086,4.60693 -0.555,2.2113 -0.40461,2.30352 3.62376,2.22271 3.75402,-0.0752 4.09498,-0.25691 3.19335,-1.70073 -1.36366,-2.18355 -0.33159,-4.48503 2.49306,-5.55894 l 2.32931,-0.88558 -2.30555,-2.30555 c -1.26811,-1.26801 -2.30556,-2.78634 -2.30556,-3.3739 0,-1.72235 5.59819,-8.29388 7.06548,-8.29388 0.73852,0 1.60072,-0.73063 1.91589,-1.62363 2.09801,-5.94462 9.21776,-7.80911 13.28556,-3.47921 3.03777,3.23353 4.7372,3.04287 4.03802,-0.45304 -0.78371,-3.91842 1.51758,-6.93466 7.42212,-9.72796 6.19912,-2.93264 8.10461,-2.93673 11.56535,-0.025 3.42624,2.88301 3.95647,2.88181 6.67841,-0.0158 1.2065,-1.28424 3.75606,-2.80313 5.66564,-3.37529 2.96206,-0.88743 4.02438,-0.76682 7.23388,0.82109 3.14798,1.55748 3.93382,1.65406 4.81531,0.59193 1.38074,-1.66362 5.81139,-1.61779 9.12239,0.0945 3.49368,1.80659 8.0083,7.63561 8.82448,11.39334 0.8004,3.68573 3.726,4.17607 4.58142,0.76793 0.37873,-1.50905 1.6189,-2.59558 3.7748,-3.30711 6.0952,-2.01154 14.90781,4.05862 15.80915,10.88946 0.4844,3.67052 0.49934,3.68509 1.42119,1.3915 2.14338,-5.33237 16.67135,-0.21738 16.67135,5.86956 0,1.4892 0.82601,2.35501 2.955,3.09715 4.90467,1.70982 6.32288,3.59295 6.32288,8.39574 0,2.37486 -0.56706,5.09329 -1.26003,6.04102 -1.07113,1.46489 -1.04255,2.10219 0.19057,4.25076 1.37248,2.39147 1.31969,2.72519 -0.98076,6.20153 -2.38693,3.60687 -2.39871,3.70197 -0.64389,5.20443 0.98318,0.84178 2.20025,1.53057 2.70469,1.53057 0.50444,0 1.75222,0.83501 2.77279,1.85558 2.74672,2.74672 3.59101,2.27596 3.05706,-1.70463 -0.96601,-7.20205 4.40997,-12.36455 9.4422,-9.06728 2.80304,1.83665 4.20094,1.90271 4.20094,0.19845 0,-0.71263 1.52148,-2.63148 3.38114,-4.2643 2.76639,-2.42895 3.90497,-2.86826 6.26257,-2.41661 3.09047,0.59221 7.05649,4.37796 7.05649,6.73575 0,1.02056 0.47233,1.23423 1.62363,0.73471 0.89299,-0.38753 2.96465,-0.89355 4.60378,-1.12448 5.65506,-0.79678 12.32836,5.33405 12.32836,11.32617 0,2.11387 0.37019,2.36623 3.47921,2.37161 5.81362,0.0102 11.2525,4.81616 11.33257,10.01372 0.0186,1.17347 -0.60677,3.37066 -1.38862,4.88249 -1.37016,2.64958 -1.33945,2.78012 0.84837,3.61198 1.24843,0.47465 2.54613,1.73338 2.88375,2.79709 0.74418,2.34453 -2.04605,7.49607 -4.80511,8.87152 -1.89798,0.94634 -1.90094,0.99635 -0.1811,3.12025 2.44361,3.01763 2.38256,9.04863 -0.0995,9.83641 -1.01602,0.3225 -2.26854,0.32594 -2.78337,0.009 -1.17272,-0.72479 -2.98664,0.32046 -2.34832,1.35327 0.74241,1.2014 8.16296,-0.81255 10.26357,-2.78559 1.62075,-1.52222 2.39536,-1.63922 5.38609,-0.81339 1.92126,0.53042 3.72053,1.55711 3.99849,2.28134 0.37139,0.96796 0.95637,1.07558 2.20721,0.40618 4.62206,-2.47367 11.70109,0.49721 15.11572,6.34376 1.46526,2.50893 1.60331,3.49377 0.7516,5.36299 -0.87722,1.92544 -0.78583,2.3692 0.57477,2.78995 6.26406,1.93704 7.79658,3.25849 10.38836,8.95753 4.10286,9.02144 4.27905,11.51237 1.02901,14.54838 l -2.71768,2.53861 2.32263,2.32263 c 3.16691,3.16691 4.33796,8.64198 2.57684,12.04761 -1.79704,3.47504 -5.25658,5.62751 -8.44288,5.25296 -2.47692,-0.29123 -2.58139,-0.14696 -2.29962,3.17443 0.56744,6.68694 -7.89511,11.56758 -13.73415,7.921 -2.42209,-1.51258 -3.12108,-0.5667 -1.77106,2.39647 2.1586,4.73757 -2.77093,9.86537 -8.1791,8.50801 -2.68883,-0.67487 -8.63531,-5.8626 -8.63531,-7.53355 0,-0.98262 -0.5421,-1.0664 -2.37987,-0.36778 -1.30892,0.49767 -3.39645,0.90488 -4.63894,0.90488 -1.2425,0 -2.25907,0.4175 -2.25907,0.92779 0,0.51028 0.60259,0.92778 1.33907,0.92778 1.91004,0 4.22766,3.67349 4.22766,6.70096 0,1.9516 0.44682,2.57693 1.84101,2.57693 1.0125,0 3.2044,1.22311 4.87089,2.71796 l 3.02988,2.71796 -1.74239,3.26192 c -1.05981,1.98407 -1.47769,3.91777 -1.06677,4.9363 0.61244,1.51777 0.7516,1.47722 1.48818,-0.43374 1.01268,-2.62732 2.95417,-3.42735 5.28719,-2.17873 1.55413,0.83176 1.73932,0.68471 1.39641,-1.10899 -0.2325,-1.21642 0.43949,-3.12906 1.63207,-4.64516 1.77254,-2.25341 2.56534,-2.54232 6.30823,-2.29878 3.31897,0.2159 4.50756,0.73555 5.28969,2.31252 1.00804,2.0326 1.01073,2.03278 3.73324,0.23807 3.60177,-2.37422 6.53312,-2.27735 9.03137,0.29865 1.12374,1.15872 3.6515,2.93311 5.61721,3.9431 5.57814,2.86594 7.35449,5.67195 6.86304,10.84122 -0.56874,5.98331 1.21753,6.13481 7.65481,0.64898 12.40045,-10.56742 34.23402,-22.27611 53.34786,-28.60873 43.07937,-14.27274 90.08634,-13.22387 131.74833,2.93988 59.40734,23.04841 104.0633,74.38732 117.7261,135.34416 1.30188,5.8087 2.64791,13.5897 2.99119,17.2912 l 0.62403,6.73 -3.14891,-0.59008 c -1.7319,-0.32454 -3.46965,-0.87657 -3.86183,-1.22672 -0.39208,-0.35015 -1.35986,-4.34326 -2.15061,-8.87346 -2.31678,-13.27304 -6.43385,-27.97553 -11.02557,-39.37369 -24.33683,-60.41186 -80.27461,-103.69692 -145.78893,-112.81263 -13.83918,-1.92553 -43.77261,-1.46293 -56.49677,0.87314 -18.62443,3.41937 -31.95527,7.6191 -47.51494,14.96895 -17.12439,8.08902 -37.87847,22.44757 -36.90039,25.52932 0.88761,2.79663 -1.54208,6.35303 -5.72279,8.37691 -4.69628,2.27345 -5.03539,3.20959 -1.42452,3.93178 2.93904,0.58776 4.97183,4.01102 4.17987,7.03923 -0.42465,1.62391 -0.0928,1.949 1.98936,1.949 1.5251,0 3.55613,1.05694 5.21112,2.71193 3.31601,3.31601 3.63201,7.92935 0.79066,11.54169 l -1.92136,2.4425 2.39017,0.90877 c 1.31458,0.4998 3.09529,2.38729 3.95702,4.19444 1.30744,2.74162 1.38342,3.79299 0.45898,6.34951 -0.60938,1.68514 -1.10797,4.22988 -1.10797,5.65506 0,3.7182 -3.55093,9.51076 -6.60613,10.77626 -1.96979,0.8159 -3.36287,0.82212 -5.64875,0.0251 -2.04559,-0.71309 -3.13806,-0.74594 -3.35313,-0.10075 -0.4664,1.3991 -2.10162,1.17068 -4.01509,-0.56095 -1.55748,-1.40949 -1.72319,-1.39836 -2.31976,0.15624 -0.37195,0.96917 0.0102,2.81223 0.9084,4.37648 2.0365,3.54842 1.95782,5.60727 -0.29216,7.64349 -2.70395,2.44705 -12.32669,1.71623 -14.56211,-1.10592 -0.90533,-1.14285 -1.35067,-0.5294 -2.55142,3.51391 -1.77866,5.98943 -1.80946,5.48954 0.33837,5.48954 3.96129,0 3.50472,8.82299 -0.62477,12.07118 -1.57493,1.23878 -3.49563,1.84342 -5.28608,1.6638 -2.34638,-0.23528 -3.02728,0.17916 -4.10946,2.50132 -2.06962,4.44105 -3.91527,6.03109 -6.99311,6.0245 -5.13457,-0.0111 -11.665,-6.06059 -11.67947,-10.8195 -0.009,-2.61571 -0.92074,-4.94678 -1.93713,-4.94678 -0.44256,0 -1.47203,1.29046 -2.28765,2.8677 -1.29668,2.50754 -1.3144,3.06105 -0.1413,4.407 0.73787,0.8466 1.61676,3.07608 1.95299,4.95439 0.49479,2.76323 0.24123,3.76005 -1.32813,5.22215 -2.65802,2.47627 -3.72609,10.88649 -3.78983,29.84112 -0.0566,16.93614 1.40486,28.34748 5.17326,40.38368 1.27812,4.08227 2.33014,7.69462 2.33775,8.02742 0.0204,0.88603 -5.62565,2.70663 -6.57478,2.11999 -1.55414,-0.96054 -6.40165,-18.57823 -7.76995,-28.23929 -2.01219,-14.20695 -1.60461,-36.42239 0.95636,-52.13496 l 0.55844,-3.42595 -2.81899,1.06399 c -3.70114,1.39706 -9.14253,-1.02215 -10.52233,-4.67819 l -0.9521,-2.52285 h -11.71361 -11.71362 l -6.70336,-3.4792 c -7.7219,-4.00787 -11.73672,-4.37444 -17.47695,-1.59571 -7.98752,3.86675 -23.24825,21.78207 -31.89051,37.43814 -12.89877,23.36664 -16.45925,46.33943 -15.6107,100.72038 0.25932,16.61391 0.62849,30.77596 0.82045,31.47115 0.27694,1.00285 -1.28017,1.23443 -7.53708,1.12059 -7.94596,-0.14446 -9.40249,0.16913 -23.05166,4.96339 -8.1612,2.86659 -11.89221,2.95788 -24.45048,0.59796 -22.67006,-4.26013 -32.54729,-4.77413 -43.70191,-2.27429 -8.36838,1.87534 -18.5889,6.51836 -26.01715,11.81901 -15.36632,10.96516 -32.1528,34.46244 -32.1528,45.00657 0,4.926 -2.81315,21.36855 -4.70241,27.48537 -1.21271,3.92613 -4.10908,9.38366 -8.02054,15.11266 -9.16711,13.42668 -10.87805,17.64905 -10.9095,26.92332 -0.0232,6.94821 -0.20625,7.72894 -1.88174,8.04653 -1.02057,0.19344 -11.66695,1.46655 -23.65862,2.8291 -11.99167,1.36265 -32.24066,3.7209 -44.99771,5.24062 -19.2499,2.29321 -27.5342,2.8137 -48.7089,3.06022 -14.0328,0.16347 -27.393,0.12339 -29.6893,-0.0891 z m 89.44168,-65.26836 c 0.70419,-5.30872 4.00489,-9.94952 6.41789,-9.02358 0.83464,0.32027 2.67481,2.68047 4.08923,5.24488 1.4145,2.56431 2.83151,4.66845 3.1491,4.67587 0.31749,0.009 0.83297,-1.58624 1.14563,-3.54128 0.31267,-1.95503 1.40978,-4.31607 2.43804,-5.24664 1.7731,-1.60461 1.96116,-1.60925 3.64046,-0.0891 0.9739,0.8814 2.33079,2.92921 3.01532,4.5508 1.21781,2.88506 1.25539,2.79422 1.75407,-4.23535 0.57913,-8.16325 2.70033,-12.10755 6.77258,-12.59353 3.85088,-0.45963 2.90426,-1.76391 -2.41123,-3.32213 -2.67899,-0.78538 -7.06279,-2.87847 -9.74178,-4.65147 -2.67899,-1.77301 -4.87089,-2.98368 -4.87089,-2.69059 0,0.29318 0.86488,1.93249 1.92201,3.64296 1.05712,1.71047 1.78775,4.05602 1.62363,5.21232 -0.24373,1.71715 -0.97112,2.15729 -3.96871,2.40177 -7.0589,0.57569 -9.52431,-0.52337 -16.91666,-7.54144 l -7.03059,-6.6747 0.60909,11.13347 c 0.94532,17.27932 1.51202,21.34137 3.41361,24.46811 2.60449,4.28286 4.22775,3.71876 4.9492,-1.72003 z m 27.95428,-113.14812 c -1.26541,-2.44704 -1.26115,-2.8715 0.0427,-4.17505 0.79808,-0.79808 1.86337,-1.45106 2.36734,-1.45106 2.41921,0 -0.52847,-1.68356 -3.88836,-2.22085 -2.09458,-0.33493 -5.84748,-1.64228 -8.3398,-2.90527 -5.02676,-2.54725 -5.5209,-2.6764 -5.5209,-1.44318 0,1.36032 9.46669,11.3476 12.52515,13.21394 3.85709,2.35371 4.44745,2.14004 2.81407,-1.01853 z m 218.95621,-123.22334 c 14.17467,-16.01484 35.28288,-46.41106 33.48093,-48.21301 -0.22786,-0.22787 -1.36264,0.0932 -2.52173,0.71356 -1.85047,0.99032 -2.36104,0.83306 -4.18674,-1.28944 l -2.07927,-2.41735 -0.59777,2.72129 c -1.03931,4.7321 -9.08825,7.29493 -12.68575,4.03923 -1.20761,-1.09285 -1.69665,-2.85685 -1.69665,-6.11933 0,-3.14223 -0.60158,-5.42868 -1.91254,-7.26978 -3.32455,-4.66891 -3.30989,-8.20917 0.052,-12.44527 1.61974,-2.04113 3.64046,-4.08579 4.4905,-4.54375 0.84995,-0.45796 1.69201,-0.95247 1.87107,-1.09887 0.17907,-0.14632 -0.8299,-1.78108 -2.24218,-3.63267 -1.47556,-1.93453 -2.56775,-4.54078 -2.56775,-6.12711 0,-3.76711 3.0411,-7.54144 6.87334,-8.53056 1.74767,-0.45109 3.32426,-0.96406 3.50351,-1.13997 0.17925,-0.17582 -0.7195,-1.44708 -1.99706,-2.82484 l -2.32282,-2.50512 -2.27391,3.60408 c -4.15761,6.58962 -5.97608,10.87861 -12.61988,29.76338 -10.27303,29.20104 -10.49329,30.14803 -11.02111,47.36863 -0.48217,15.73418 0.26999,28.99284 1.64478,28.99284 0.44163,0 4.40579,-4.07067 8.80945,-9.04594 z m -45.21672,-27.83367 -0.34708,-20.1794 -3.99413,-12.06126 c -5.53445,-16.71254 -9.26666,-24.14487 -14.89111,-29.65445 -5.09411,-4.99002 -6.10429,-4.43659 -2.32522,1.27404 2.26408,3.42122 2.31019,3.74326 0.98893,6.90544 -1.40059,3.3522 -4.86866,5.21046 -7.12356,3.81683 -0.79549,-0.49173 -0.90719,0.36564 -0.42168,3.23891 0.36304,2.14913 0.94569,10.23889 1.29482,17.9774 0.74511,16.51798 0.54554,16.04852 14.0586,33.08949 4.65342,5.86827 9.14345,11.81771 9.9779,13.22099 0.83446,1.40328 1.87998,2.55142 2.32337,2.55142 0.44339,0 0.65001,-9.08073 0.45916,-20.17941 z m 129.74338,6.90906 c 0.21739,-0.21738 -0.34346,-1.68208 -1.2462,-3.25505 -1.63699,-2.8523 -1.63402,-2.86752 1.13079,-5.76974 l 2.77214,-2.91 -3.24726,0.54349 c -1.786,0.29894 -6.11821,0.97641 -9.62711,1.50562 -6.97809,1.05239 -12.63982,3.06161 -12.63982,4.48549 0,0.75763 5.42942,3.68694 11.13346,6.00678 1.44188,0.58646 11.02686,0.0909 11.724,-0.60659 z m -171.30368,-14.18821 c 0,-0.30385 -0.78351,-1.66074 -1.74108,-3.01531 -0.95767,-1.35448 -3.84977,-6.67396 -6.42698,-11.82105 -5.40261,-10.78972 -7.99532,-14.16075 -13.97371,-18.16871 -2.36512,-1.58559 -6.70086,-5.21268 -9.63499,-8.06016 -5.68614,-5.5184 -7.20966,-5.76027 -2.50076,-0.397 3.24967,3.70123 3.23343,5.75312 -0.0585,7.41517 -1.97489,0.997 -2.49816,0.93289 -3.59583,-0.44061 -1.20529,-1.50822 -1.24797,-1.50191 -0.69194,0.10215 0.42391,1.22319 0.064,1.84778 -1.2669,2.1957 -2.34944,0.61438 -2.43294,2.12538 -0.11746,2.12538 0.95813,0 2.24117,0.60149 2.85119,1.33657 0.61012,0.73509 1.65119,1.12857 2.31344,0.87445 3.26777,-1.25391 6.1981,5.80016 3.87946,9.33884 -1.40031,2.13716 -1.35114,2.41123 0.9148,5.10414 2.54084,3.01976 12.53127,8.2306 22.58461,11.77985 6.47522,2.28598 7.46508,2.50225 7.46508,1.63059 z m 145.32606,-4.01436 c 5.26557,-2.391 10.90811,-7.69229 16.18648,-15.20747 4.88648,-6.95712 6.46233,-11.51136 4.4289,-12.79987 -2.15136,-1.36311 -2.63928,-0.91712 -1.6999,1.55377 1.28851,3.38912 1.17393,3.93002 -1.37248,6.47633 -1.77411,1.77412 -3.2442,2.27735 -6.65336,2.27735 -2.62007,0 -5.00365,-0.5679 -5.93979,-1.41515 -2.00393,-1.81346 -2.13039,-1.65611 -8.78004,10.92499 l -5.2716,9.97373 2.63176,-0.0204 c 1.44745,-0.0111 4.35894,-0.80467 6.47003,-1.76327 z m 28.63435,-2.71359 c 5.29545,-1.18145 6.82416,-1.8129 5.33478,-2.20369 -2.60764,-0.68415 -2.70088,-2.25721 -0.18129,-3.05697 1.84009,-0.58395 1.81866,-0.68619 -0.61781,-2.94424 -2.40715,-2.23087 -2.66062,-2.2742 -5.46867,-0.93512 -1.61945,0.7722 -4.47203,3.53033 -6.33902,6.12897 -3.94793,5.4953 -3.91805,5.50764 7.27201,3.01105 z m -170.34899,-22.17675 c -1.0433,-11.87987 -2.78058,-18.78773 -4.72486,-18.78773 -2.57053,0 -5.38108,-3.39218 -5.38108,-6.49452 0,-1.53085 -0.4175,-2.78336 -0.92779,-2.78336 -0.51028,0 -0.92779,1.01908 -0.92779,2.26473 0,1.24555 -0.41342,2.52015 -0.9186,2.83244 -0.55491,0.34292 -0.0659,2.29276 1.23452,4.92564 1.18423,2.39685 2.69355,5.81918 3.35395,7.60517 2.14505,5.80045 7.74055,17.62808 8.33971,17.62808 0.32083,0 0.29931,-3.23566 -0.0482,-7.19045 z m -79.7967,3.56475 c 1.03495,-0.65548 0.92324,-1.00749 -0.57393,-1.80873 -2.11712,-1.13301 -3.13667,-0.56038 -2.40353,1.35003 0.57569,1.50033 1.18469,1.59413 2.97746,0.4587 z m 215.97448,-5.42896 c -1.99595,-1.99595 -3.40851,-0.6103 -3.37492,3.31072 l 0.0297,3.42447 2.35816,-2.68224 c 2.08001,-2.36595 2.19645,-2.84385 0.98744,-4.05295 z m -61.55053,-16.92352 c 2.53899,-5.35798 5.33265,-11.76306 6.20812,-14.23358 1.57065,-4.43223 1.56425,-4.52139 -0.4793,-6.72646 -2.48434,-2.68066 -3.24986,-2.80387 -3.24986,-0.52291 0,0.94152 -0.83946,2.47145 -1.86532,3.39989 -1.80909,1.63726 -1.93026,1.62706 -4.02187,-0.3379 l -2.15655,-2.02602 -1.08236,9.99155 c -0.59527,5.49538 -1.08171,12.86082 -1.08097,16.36777 0,5.85351 0.12887,6.27176 1.55655,5.10284 0.85543,-0.70039 3.63258,-5.6572 6.17156,-11.01518 z m -151.07009,9.20061 c 0,-0.74418 -1.10694,-1.44169 -2.55142,-1.60795 -2.89702,-0.33336 -3.70243,2.1803 -0.92779,2.89553 2.37088,0.61114 3.47921,0.20096 3.47921,-1.28758 z m 266.73929,-2.21946 c 2.01413,-1.13172 2.07518,-1.29426 0.46389,-1.23498 -1.02057,0.038 -2.58621,-0.24076 -3.47921,-0.61865 -1.24991,-0.52902 -1.62363,-0.23723 -1.62363,1.26783 0,2.25712 1.35903,2.42876 4.63895,0.5858 z m -213.4805,-5.56887 c -2.80971,-5.62574 -3.89263,-6.46826 -6.51196,-5.06647 -2.04541,1.0947 -1.99855,1.19184 2.76954,5.74033 2.66758,2.54464 5.08113,4.39577 5.36355,4.11344 0.28232,-0.28232 -0.4472,-2.43665 -1.62113,-4.7873 z m -25.25432,1.05008 c -0.73249,-0.58887 -1.75083,-1.86811 -2.26297,-2.84266 -0.89958,-1.71214 -0.96731,-1.70425 -2.00356,0.23195 -0.86368,1.6138 -0.81729,2.00393 0.23826,2.00393 0.72089,0 1.82672,0.62162 2.45725,1.38148 0.63062,0.75977 1.5417,1.13719 2.02471,0.83872 0.49581,-0.30645 0.29829,-1.00897 -0.45369,-1.61342 z m 90.47955,-15.68251 c -0.15012,-8.29258 -0.44915,-15.59669 -0.66458,-16.23148 -0.30366,-0.89495 -0.91953,-0.9136 -2.74236,-0.0835 -4.93407,2.24812 -9.44405,-2.20471 -10.39893,-10.2671 -0.54424,-4.59543 -0.63322,-4.71994 -2.29712,-3.21405 -1.54467,1.3979 -1.5816,1.73163 -0.34281,3.1004 0.76347,0.84373 1.63411,2.96781 1.93462,4.72031 1.00099,5.8369 3.44544,10.12255 5.78031,10.13414 1.17133,0.009 3.18046,1.06139 4.46461,2.34564 3.27797,3.27797 2.80508,7.74119 -1.02752,9.69734 -1.53085,0.78138 -2.95306,1.52074 -3.16051,1.64311 -1.28518,0.75819 6.36221,13.22888 8.11388,13.23129 0.33734,4.7e-4 0.49052,-6.78399 0.34041,-15.07657 z m -75.80184,-13.69203 c 0.55658,-0.90061 -3.10475,-6.94385 -3.79113,-6.25747 -0.18565,0.18565 0.0881,1.8797 0.60873,3.76459 0.93883,3.40016 2.07268,4.28834 3.1824,2.49288 z m 150.06159,-2.77706 c 1.45319,0 1.6202,-0.4895 1.10453,-3.23845 -0.53793,-2.86714 -0.2236,-3.62236 2.7419,-6.58785 3.01911,-3.01912 3.76116,-3.31675 7.5239,-3.01745 2.296,0.18259 4.17449,0.14715 4.17449,-0.0789 0,-0.22592 -0.87574,-1.34288 -1.94603,-2.48221 -2.84358,-3.02682 -1.73024,-7.34317 2.24042,-8.68559 1.85548,-0.62737 3.49795,-2.11174 4.41971,-3.9945 0.87444,-1.7859 2.56867,-3.37084 4.19444,-3.9239 1.86569,-0.6346 2.62657,-1.44076 2.40817,-2.55141 -0.47123,-2.39574 -1.22821,-2.05636 -5.78876,2.59521 -6.21479,6.33865 -13.0962,10.68367 -19.62282,12.39024 -6.42791,1.68069 -7.86951,3.90089 -3.06922,4.7269 1.94882,0.3354 2.86881,1.0768 3.06829,2.47293 0.3752,2.62481 -5.467,7.2465 -8.24257,6.52069 -1.45895,-0.3816 -1.79787,-0.15865 -1.38686,0.91229 1.09683,2.85852 4.70816,6.58461 5.58696,5.76445 0.48477,-0.45239 1.65184,-0.82258 2.59345,-0.82258 z m -108.24002,-7.19268 c -1.07048,-1.07039 -1.61964,0.60603 -0.88966,2.71582 l 0.74641,2.15739 0.34105,-2.16713 c 0.1876,-1.19202 0.0985,-2.40975 -0.1978,-2.70608 z m -33.01147,2.18912 c 0,-0.71078 -0.62626,-1.53271 -1.39168,-1.82645 -1.39503,-0.53533 -1.96515,1.30846 -0.77322,2.50039 1.04024,1.04024 2.1649,0.69018 2.1649,-0.67394 z m 120.94804,-10.30495 c 0.32528,-0.84772 0,-1.39169 -0.82852,-1.39169 -0.74947,0 -1.36255,0.62626 -1.36255,1.39169 0,0.76542 0.37279,1.39168 0.82852,1.39168 0.45563,0 1.06881,-0.62626 1.36255,-1.39168 z m 9.31945,-18.72213 c 1.53716,-4.51128 2.07611,-18.30398 0.56957,-14.57538 -0.43532,1.07716 -1.38788,2.18736 -2.11694,2.46718 -1.91709,0.73564 -9.03536,-2.68948 -9.03536,-4.34762 0,-0.77239 -0.93939,-1.89909 -2.08753,-2.50373 -1.14813,-0.60464 -2.3858,-1.55869 -2.75024,-2.12019 -0.38726,-0.59647 -1.11353,0.27175 -1.7473,2.08892 -0.59657,1.71038 -2.05404,4.93296 -3.23882,7.16132 -1.93296,3.63527 -1.74462,5.98925 0.37436,4.67959 1.09358,-0.6759 10.57299,2.20071 12.33634,3.74362 0.8223,0.7195 2.23746,2.95445 3.14474,4.96655 0.90738,2.0121 1.96989,3.46056 2.36113,3.21868 0.39135,-0.24178 1.37684,-2.3923 2.19005,-4.77894 z m 18.725,2.54381 c 4.76986,-2.73586 15.04911,-13.53319 13.93994,-14.64246 -0.3302,-0.3302 -1.09442,-0.10623 -1.69823,0.49758 -0.6038,0.6038 -2.41113,1.09785 -4.01612,1.09785 -2.5568,0 -3.6257,0.9237 -8.62843,7.45636 -7.45413,9.73352 -7.42899,10.08274 0.40284,5.59067 z m -2.80535,-19.23464 c 3.97455,-6.21331 3.87519,-8.25073 -0.39273,-8.04903 -1.67661,0.0789 -3.18028,0.28798 -3.34134,0.46389 -0.67608,0.73834 -0.95405,13.58858 -0.28493,13.17507 0.40304,-0.24911 2.21157,-2.76454 4.019,-5.58993 z m -42.69573,-2.09291 c -0.29179,-0.47206 -0.0529,-1.9067 0.53107,-3.18816 0.58386,-1.28137 0.77665,-3.07218 0.42845,-3.97956 -0.56113,-1.46229 -0.76533,-1.38992 -1.79703,0.63665 -0.67785,1.33147 -1.8207,2.1726 -2.73615,2.01386 -2.32939,-0.40396 -1.90744,1.26587 0.8724,3.45248 2.63372,2.07166 3.54573,2.43118 2.70126,1.06473 z m -17.37451,-4.86773 c -0.3752,-2.54966 -2.6159,-3.40666 -2.6159,-1.00053 0,1.92562 0.74974,3.01531 2.07472,3.01531 0.46074,0 0.70428,-0.90663 0.54118,-2.01478 z m -105.60046,-11.38342 c 0,-3.23019 -1.26551,-3.58581 -3.66635,-1.03021 l -2.08047,2.21454 2.17752,0.41388 c 1.19768,0.22759 2.49074,0.47067 2.87345,0.54016 0.38272,0.0696 0.69585,-0.89272 0.69585,-2.13837 z m 23.04228,-5.43777 c 1.0818,-1.30354 0.44052,-5.28654 -0.85134,-5.28654 -0.433,0 -2.26306,-1.29575 -4.06677,-2.87948 l -3.27955,-2.87949 v 3.80728 c 0,3.18881 -0.30153,3.80727 -1.85558,3.80727 -1.02057,0 -1.85558,-0.44209 -1.85558,-0.98253 0,-0.54034 -0.40897,-0.7298 -0.90886,-0.42084 -0.57161,0.3533 -0.4856,1.24481 0.23195,2.40325 1.91597,3.09325 10.63793,4.77793 12.58573,2.43108 z m 13.63441,-6.91017 c -0.34986,-1.40328 -1.31467,-3.98624 -2.14412,-5.73995 l -1.50802,-3.18853 -1.21541,2.97848 c -1.09739,2.68947 -1.01722,3.24643 0.82629,5.73995 2.66656,3.60669 4.9171,3.72368 4.04126,0.21005 z m 62.1909,-1.27218 c 1.79508,-3.47123 0.16236,-3.45453 -2.31437,0.0241 -2.29044,3.21655 -2.39992,3.92631 -0.49285,3.19447 0.78436,-0.30097 2.04754,-1.74916 2.80722,-3.21813 z m -50.62258,-2.89814 c 0,-1.62205 -0.19409,-1.69534 -1.54263,-0.58218 -1.2026,0.99273 -1.62855,1.01769 -1.93286,0.11356 -0.21469,-0.63786 -0.7838,-1.15974 -1.26467,-1.15974 -0.48078,0 -0.21126,1.28211 0.59907,2.84906 1.20112,2.32272 1.71966,2.64447 2.80712,1.74192 0.7337,-0.60881 1.33397,-1.94205 1.33397,-2.96262 z m 162.36305,1.50942 c 0,-0.76542 -0.41751,-1.13366 -0.92779,-0.81831 -0.51028,0.31536 -0.92779,1.19973 -0.92779,1.96515 0,0.76543 0.41751,1.13358 0.92779,0.81822 0.51028,-0.31535 0.92779,-1.19963 0.92779,-1.96506 z m 8.3501,1.50117 c 0,-0.51029 -0.18408,-0.92779 -0.40916,-0.92779 -0.22499,0 -0.66717,0.4175 -0.98253,0.92779 -0.31535,0.51028 -0.13128,0.92779 0.40916,0.92779 0.54044,0 0.98253,-0.41751 0.98253,-0.92779 z m -110.4977,-48.38345 c 0.5602,-1.60702 1.00359,-4.21643 0.98522,-5.79868 l -0.0334,-2.87689 -2.08901,2.55142 c -2.0815,2.54233 -4.33881,3.38699 -4.33881,1.62363 0,-0.51028 -0.44561,-0.92778 -0.99032,-0.92778 -0.96184,0 -0.70929,1.44948 1.09127,6.26257 1.1691,3.12516 4.1564,2.66155 5.37505,-0.83427 z m 14.42786,1.8451 c 1.29974,-0.59221 2.36317,-1.70064 2.36317,-2.46328 0,-1.15269 -0.29996,-1.11511 -1.77839,0.22285 -1.36812,1.23814 -2.19626,1.38584 -3.58924,0.64036 -2.18597,-1.16994 -3.36658,-0.29559 -1.93305,1.43167 1.26309,1.52204 1.91765,1.54431 4.93751,0.1684 z m 506.22913,222.58637 c 2.30481,-8.87328 2.29043,-9.01282 -1.42369,-13.77999 -6.98189,-8.9616 -7.94827,-25.17239 -2.1881,-36.70601 3.06987,-6.14688 11.78134,-13.86293 27.15295,-24.05061 15.12036,-10.02114 22.37483,-16.41555 25.44025,-22.42428 2.94322,-5.76927 4.75371,-13.73248 4.75371,-20.90865 0,-7.77821 1.51823,-8.02268 3.99515,-0.64314 2.59595,7.73432 2.95566,15.26537 1.1538,24.15795 -3.30432,16.30756 -10.27127,26.45283 -26.231,38.19743 -12.40714,9.13019 -14.58067,14.89454 -11.38546,30.19517 3.07098,14.70629 2.16073,22.40202 -3.42113,28.92317 l -3.22304,3.76543 h -8.18533 -8.18523 z m -88.67286,-145.41875 c -0.31127,-0.5036 -2.84089,-1.57696 -5.62147,-2.38534 -5.85964,-1.70342 -6.58025,-3.17879 -1.5765,-3.22741 l 3.47921,-0.0334 -5.30278,-4.99902 c -4.4057,-4.15324 -7.03459,-5.66944 -15.54046,-8.96234 -5.63066,-2.17984 -10.23769,-4.29891 -10.23769,-4.709 0,-1.30382 10.60444,-0.80263 15.83597,0.74845 6.58015,1.95086 11.17698,4.33658 15.25535,7.91738 l 3.30914,2.90546 2.05144,-1.92089 c 3.57245,-3.34524 10.92313,-5.90139 18.51959,-6.44006 4.91543,-0.34857 7.19036,-0.18732 7.19036,0.50954 0,0.56066 -2.97671,2.75795 -6.61504,4.88286 -10.60286,6.19234 -16.32333,12.22343 -12.63657,13.32258 4.6241,1.3787 4.8463,1.5341 3.45323,2.41513 -1.82292,1.15287 -10.84808,1.1345 -11.56378,-0.0232 z m 97.97339,-39.33759 c -3.58711,-3.81832 -8.94092,-7.13971 -15.10839,-9.3729 -6.44628,-2.33413 -7.6898,-3.80903 -3.99367,-4.73673 4.41108,-1.10713 12.77871,0.2428 18.29525,2.95139 l 5.3231,2.61367 1.89417,-2.03324 c 3.30878,-3.55149 7.57864,-5.13235 15.06135,-5.57611 3.9547,-0.23454 7.19037,-0.15874 7.19037,0.1684 0,0.32713 -2.1919,1.57167 -4.87089,2.76573 -3.20672,1.42926 -6.21795,3.78028 -8.814,6.88123 -2.1687,2.59066 -3.9431,4.94845 -3.9431,5.23959 0,0.29124 0.91851,0.5294 2.04114,0.5294 4.07967,0 0.20383,1.67605 -5.29731,2.2908 -5.16602,0.57727 -5.73754,0.45081 -7.77802,-1.72123 z m -181.89031,-30.66352 c -2.98034,-3.17248 -13.19882,-8.32514 -21.18847,-10.68441 -9.41845,-2.78114 -7.97973,-4.10259 3.86331,-3.54842 7.67541,0.35914 10.29577,0.88409 14.39548,2.88366 4.69823,2.29164 5.08846,2.34396 6.23307,0.83668 0.67154,-0.88437 1.23433,-1.90104 1.25048,-2.25917 0.12729,-2.80823 19.13202,-11.34314 23.96766,-10.76374 2.13549,0.25579 1.84908,0.63285 -3.13992,4.13302 -3.0193,2.11824 -6.36324,4.83202 -7.43103,6.03063 -1.94298,2.18095 -7.11679,11.10099 -6.65419,11.47239 0.13499,0.10845 1.24119,0.71606 2.45827,1.35039 3.23529,1.68598 0.89392,2.77771 -5.99417,2.79506 -4.78424,0.0121 -5.95826,-0.3277 -7.76049,-2.24609 z m 111.27908,-6.60103 c 0,-0.28121 1.52019,-1.14637 3.37827,-1.92275 l 3.37817,-1.41144 -4.53791,-4.65713 c -4.76382,-4.8888 -11.06462,-9.32047 -18.88783,-13.28482 -4.60118,-2.33163 -6.03805,-4.19073 -3.239,-4.19073 3.45211,0 15.90406,3.08749 20.30939,5.03566 2.67472,1.18294 6.07655,3.65559 7.64192,5.55468 l 2.82131,3.42279 3.52077,-2.07731 c 2.64606,-1.56129 5.4323,-2.17771 11.21483,-2.48119 8.30232,-0.43578 18.00616,0.43383 18.00616,1.61361 0,0.4009 -3.39562,1.41005 -7.54589,2.24247 -4.15019,0.83241 -9.47338,2.62165 -11.82931,3.97603 -2.35584,1.35448 -5.21946,2.92467 -6.3637,3.48951 -2.80323,1.38371 -2.62843,2.07983 0.6886,2.74319 1.53085,0.30617 2.78337,0.98467 2.78337,1.50766 0,0.59434 -4.00156,0.95098 -10.66957,0.95098 -5.86827,0 -10.66958,-0.22999 -10.66958,-0.51121 z m 84.3901,-46.40206 c -4.62744,-4.73784 -12.12008,-9.53488 -18.74904,-12.00373 -5.90055,-2.19765 -5.67213,-3.57857 0.4639,-2.80433 8.31206,1.04877 15.85229,3.24216 19.56001,5.68976 l 3.55557,2.34721 3.11106,-3.20329 c 1.71103,-1.76187 5.11388,-3.88585 7.56194,-4.71994 4.69025,-1.59811 14.22449,-3.03303 14.22449,-2.14087 0,0.28845 -2.48351,2.03316 -5.51895,3.87714 -5.11602,3.10781 -8.95511,7.09647 -11.93044,12.39507 -1.08514,1.93259 -1.01175,2.21306 0.69584,2.6596 3.72155,0.97325 1.83368,2.13837 -3.46455,2.13837 -5.15739,0 -5.5401,-0.17044 -9.50983,-4.23499 z"
       id="path2" /></g></svg>
