<?xml version="1.0" encoding="UTF-8" standalone="no"?>
<!-- Created with Inkscape (http://www.inkscape.org/) -->

<svg
   width="1065.2312"
   height="1280"
   viewBox="0 0 1065.2311 1280.0001"
   version="1.1"
   id="svg5"
   inkscape:version="1.4.2 (f4327f4, 2025-05-13)"
   xml:space="preserve"
   sodipodi:docname="19.svg"
   xmlns:inkscape="http://www.inkscape.org/namespaces/inkscape"
   xmlns:sodipodi="http://sodipodi.sourceforge.net/DTD/sodipodi-0.dtd"
   xmlns="http://www.w3.org/2000/svg"
   xmlns:svg="http://www.w3.org/2000/svg"><sodipodi:namedview
     id="namedview7"
     pagecolor="#ffffff"
     bordercolor="#666666"
     borderopacity="1.0"
     inkscape:showpageshadow="2"
     inkscape:pageopacity="0.0"
     inkscape:pagecheckerboard="0"
     inkscape:deskcolor="#d1d1d1"
     inkscape:document-units="px"
     showgrid="false"
     showborder="false"
     inkscape:zoom="0.2595974"
     inkscape:cx="803.16675"
     inkscape:cy="491.14513"
     inkscape:window-width="1920"
     inkscape:window-height="991"
     inkscape:window-x="-9"
     inkscape:window-y="-9"
     inkscape:window-maximized="1"
     inkscape:current-layer="layer1" /><defs
     id="defs2"><clipPath
       clipPathUnits="userSpaceOnUse"
       id="clipPath8006"><path
         inkscape:connector-curvature="0"
         id="path8008"
         d="m -1244.8456,-140.77945 h 33.9355 c 11.5456,0 20.8405,9.29479 20.8405,20.84039 v 31.873282 c 0,11.545575 -9.2949,20.840392 -20.8405,20.840392 h -33.9355 c -11.5456,0 -20.8405,-9.294817 -20.8405,-20.840392 v -31.873282 c 0,-11.5456 9.2949,-20.84039 20.8405,-20.84039 z"
         style="opacity:0.521;fill:#ff0000;fill-opacity:1;stroke:none;stroke-width:1.61448;stroke-linecap:round;stroke-linejoin:round;stroke-miterlimit:4;stroke-dasharray:none" /></clipPath><clipPath
       clipPathUnits="userSpaceOnUse"
       id="clipPath8001"><path
         style="opacity:0.521;fill:#ff0000;fill-opacity:1;stroke:none;stroke-width:1.59706;stroke-linecap:round;stroke-linejoin:round;stroke-miterlimit:4;stroke-dasharray:none"
         d="m -2936.6731,-1508.8075 h 33.5693 c 11.421,0 20.6155,9.1945 20.6155,20.6155 v 31.5293 c 0,11.421 -9.1945,20.6155 -20.6155,20.6155 h -33.5693 c -11.421,0 -20.6156,-9.1945 -20.6156,-20.6155 v -31.5293 c 0,-11.421 9.1946,-20.6155 20.6156,-20.6155 z"
         id="path8003"
         inkscape:connector-curvature="0" /></clipPath></defs><g
     inkscape:label="Layer 1"
     inkscape:groupmode="layer"
     id="layer1"
     transform="translate(2489.0342,85.106096)"><path
       id="path101"
       style="fill:#000000;stroke-width:1"
       d="m -1965.3878,-85.106096 c -3.4324,0 5.1834,7.496862 17.1115,14.890843 11.6003,7.190817 16.4314,11.270624 15.3744,12.980921 -0.3329,0.538544 -2.7719,1.223453 -5.4188,1.5218 -2.6467,0.298348 -5.5028,1.234064 -6.3492,2.080526 -1.3585,1.358479 -0.5239,1.807353 7.1274,3.827855 4.7674,1.259031 11.7103,3.156262 15.4292,4.215874 3.719,1.059508 7.3392,1.9636 8.0438,2.009372 2.5668,0.16561 15.8823,-2.440457 15.8823,-3.108514 0,-0.377927 -2.1003,-1.489552 -4.669,-2.470624 -5.908,-2.256226 -6.4992,-3.269963 -3.6694,-6.282252 3.7339,-3.974428 10.3773,-6.542421 20.1266,-7.779606 9.0867,-1.153131 17.3391,-3.655276 17.3391,-5.25624 0,-0.838868 -18.42,-2.442018 -27.1058,-2.358797 -5.7146,0.05409 -11.2099,2.711966 -18.0115,8.708145 l -5.0693,4.467825 -2.2106,-3.061909 c -4.9968,-6.914212 -9.3631,-10.80802 -16.0732,-14.334095 -7.2927,-3.832225 -24.5301,-10.051124 -27.8575,-10.051124 z m 267.6422,36.338151 c -0.7564,0.07074 -2.1234,0.582235 -4.5593,1.576623 -3.0038,1.226158 -10.7623,4.02977 -17.2436,6.231383 -6.4814,2.201508 -13.8335,5.412904 -16.3374,7.135579 -2.6337,1.812034 -8.3348,8.166896 -13.5254,15.077674 -4.9348,6.570093 -9.3793,11.9467957 -9.8765,11.9467957 -0.4972,0 -2.2148,-1.2315672 -3.8176,-2.7347471 -1.603,-1.5031796 -4.6044,-3.8630166 -6.6703,-5.2439656 -5.0738,-3.391257 -39.8084,-15.096815 -40.3447,-13.596548 -0.6454,1.80496 4.8864,5.829321 13.9318,10.136426 7.9755,3.797688 23.3666,14.2320446 23.3936,15.859952 0.01,0.4291085 -1.7952,0.7801972 -4.0066,0.7801972 -2.5941,0 -5.0786,0.83054591 -6.9994,2.34059153 l -2.9766,2.34059157 5.2013,0.6359127 c 2.8605,0.3507766 7.9688,1.9471641 11.3516,3.5475045 3.3827,1.6003405 8.0524,3.4890415 10.3782,4.1955885 4.7398,1.439828 28.9187,0.859673 32.0856,-0.770003 2.5961,-1.3359054 1.408,-2.6308246 -3.1553,-3.4357801 -6.5467,-1.1548998 -11.1421,-3.8716504 -11.4835,-6.79010799 -0.5008,-4.28047381 12.0116,-18.87286591 23.1458,-26.99607091 11.1193,-8.112282 22.4104,-18.781322 22.4104,-21.172991 0,-0.766569 -0.1458,-1.135447 -0.9021,-1.064605 z m -705.4568,38.61768 c -0.192,0.09466 -0.3848,0.3262264 -0.5831,0.680644 -0.5074,0.9067972 -2.545,11.4295765 -4.5288,23.38355 -1.9836,11.953973 -4.5774,24.848655 -5.7641,28.655914 -2.0078,6.441724 -8.682,17.070506 -12.8793,20.512632 -4.3358,3.555514 -0.5722,5.814133 8.6248,5.176972 2.8824,-0.19973 5.2402,-0.219703 5.2399,-0.04473 -4e-4,0.17518 -1.4388,3.217949 -3.1959,6.761709 -4.4471,8.969146 -10.3021,16.410563 -17.0709,21.697179 -6.8824,5.375145 -7.9752,7.789385 -4.7178,10.427075 2.9156,2.36098 11.767,2.52732 16.0368,0.30064 1.6586,-0.86498 3.2244,-1.36327 3.4804,-1.10726 0.256,0.25601 -1.0699,3.42382 -2.9462,7.04008 -2.5908,4.99326 -7.0465,10.16857 -18.5215,21.5143 -14.122,13.96283 -14.9799,15.03388 -13.1334,16.38414 1.6573,1.21181 3.4918,1.67056 6.7781,1.69449 0.2861,0 2.3014,-0.31322 4.478,-0.70093 l 3.9578,-0.70499 -1.6924,3.27517 c -1.982,3.83274 -1.8676,4.03258 2.751,4.7746 2.6435,0.42474 4.9853,-0.21326 9.4904,-2.58839 3.2898,-1.73443 5.9815,-2.8938 5.9815,-2.57631 0,1.40238 -11.0398,14.13166 -19.4298,22.40216 -9.9422,9.80042 -19.8196,16.43907 -24.4584,16.43907 -3.9929,0 -3.6699,-1.7594 1.2415,-6.76379 l 4.163,-4.24229 -4.1834,-12.44051 c -2.3006,-6.84274 -4.9378,-16.8896 -5.8616,-22.32498 -0.9236,-5.43537 -2.038,-10.81873 -2.4767,-11.96302 -0.973,-2.53762 -0.7393,-3.13733 -5.6748,14.56368 -2.0738,7.43788 -5.3826,18.60781 -7.3529,24.82203 l -3.584,11.2986 v 308.75492 308.75492 l 38.7498,0.45106 c 36.4067,0.42411 43.431,0.88568 43.431,2.85261 0,1.46333 -8.3382,4.17728 -16.1972,5.27038 -4.2526,0.5916 -14.56,1.69199 -22.9041,2.44629 -11.2237,1.01456 -15.6101,1.81026 -16.8576,3.05774 -1.2741,1.27412 -1.3925,1.98025 -0.4856,2.88715 2.059,2.05899 14.8209,3.93313 27.8373,4.08792 6.8657,0.0811 16.6962,0.49132 21.8455,0.91221 h 0.01 c 14.4825,1.18423 52.7568,1.25882 52.0416,0.10194 -0.3381,-0.54697 -3.525,-1.58785 -7.0827,-2.31219 l -6.4692,-1.31656 6.2416,-0.72329 c 6.6081,-0.76647 28.6722,-1.55342 69.6976,-2.48488 37.3025,-0.84698 51.8642,-1.97098 51.2147,-3.95383 -0.683,-2.0852 -7.4265,-3.68742 -24.95,-5.92866 -23.4818,-3.00324 -29.7029,-4.78563 -25.6165,-7.34072 1.7584,-1.09946 9.8831,-2.72258 17.5564,-3.50683 5.5918,-0.57152 50.5767,-2.58246 58.7241,-2.62511 7.1953,-0.0374 2.6718,-1.99949 -8.3181,-3.60836 -5.6952,-0.83387 -26.74,-2.48134 -46.7651,-3.65923 -35.3485,-2.07927 -73.4631,-5.0615 -74.2406,-5.80882 -0.9252,-0.88932 6.3567,-1.65454 44.1279,-4.63854 25.2148,-1.992 46.9502,-6.54491 48.0593,-10.06735 0.7608,-2.41601 -4.7855,-4.52878 -20.1022,-7.65769 -18.2339,-3.72497 -19.1698,-3.97598 -19.1698,-5.13629 0,-1.55634 9.8662,-3.06857 27.2704,-4.18144 33.3221,-2.13077 55.4153,-4.31449 56.7044,-5.60359 0.7866,-0.78654 -2.3818,-1.34839 -24.1597,-4.29306 -37.6877,-5.09604 -49.6278,-6.88945 -51.8546,-7.78782 -1.3326,-0.53761 12.3855,-0.92958 33.9142,-0.96911 50.9034,-0.0926 84.9478,-2.38616 79.6269,-5.36391 -0.9245,-0.51732 -10.0327,-1.88392 -20.2405,-3.03746 -33.5653,-3.79291 -48.2955,-7.26125 -30.8442,-7.27165 16.8868,-0.0104 42.8766,-2.67608 44.8045,-4.60399 3.6391,-3.63905 -22.4506,-6.96519 -65.8089,-8.39118 -19.8407,-0.65245 -40.0501,-2.48561 -40.0501,-3.63281 0,-1.23978 19.5873,-2.76835 73.8587,-5.76409 6.0075,-0.33164 15.3698,-1.02206 20.8052,-1.53398 5.4354,-0.51201 16.6702,-1.48976 24.9663,-2.17196 13.6954,-1.12619 20.7541,-2.38574 19.635,-3.50475 -0.5966,-0.5967 -15.6822,-2.31427 -32.1181,-3.65725 -15.5832,-1.27328 -30.3631,-3.86104 -32.9796,-5.77429 -1.5394,-1.12557 -1.4578,-1.41237 0.8331,-2.91347 2.6215,-1.71768 13.3831,-3.1934 31.6263,-4.33581 12.4161,-0.7776 21.8911,-2.4622 20.6571,-3.67348 -2.6912,-2.64102 -31.3137,-5.49613 -72.6702,-7.24928 -40.8977,-1.7336 -66.8819,-3.68722 -65.6361,-4.93314 0.3044,-0.30428 28.773,-0.92958 63.263,-1.38969 60.7802,-0.81088 84.2625,-1.86342 94.8407,-4.25249 3.7437,-0.84552 4.6613,-1.38604 3.4784,-2.04807 -0.8838,-0.49454 -14.69,-2.53418 -30.6817,-4.53284 -29.9858,-3.74775 -42.0625,-5.88352 -40.109,-7.09085 1.4566,-0.90024 20.8427,-2.52336 39.341,-3.29555 25.6218,-1.06949 76.4631,-4.0151 76.0713,-4.40687 -1.1302,-1.13014 -55.9672,-4.96777 -103.1181,-7.21682 -22.3116,-1.06419 -15.2545,-1.95507 31.2078,-3.93958 41.0169,-1.75191 67.5256,-3.17363 82.7009,-4.43537 l 8.8423,-0.73546 -5.7215,-0.72944 c -15.9134,-2.02882 -90.811,-4.72248 -158.6401,-5.70521 -25.7465,-0.37294 -47.9821,-0.80288 -49.4124,-0.95486 -1.4304,-0.15209 -12.1971,-0.39405 -23.9261,-0.53844 l -21.3254,-0.26215 40.5703,-1.83669 c 22.3136,-1.00947 42.9382,-2.10653 45.8305,-2.44014 2.8924,-0.33361 35.4266,-0.68543 72.2983,-0.78217 83.2032,-0.21721 127.8933,-1.61439 127.8933,-3.99649 0,-2.17758 -14.1812,-6.68088 -42.4129,-13.46651 -10.7548,-2.58495 -18.5322,-5.05495 -21.3254,-6.77398 -2.4183,-1.48831 -7.9937,-5.02031 -12.3878,-7.84868 -9.4196,-6.06338 -16.3328,-8.99287 -30.5739,-12.95658 -10.0909,-2.80861 -10.5816,-3.08251 -13.3243,-7.41791 -4.6718,-7.38441 -9.3306,-10.85171 -14.584,-10.85171 -2.9473,0 -5.431,0.72943 -7.1823,2.10695 -2.1239,1.67066 -2.9008,1.8318 -3.7648,0.7802 -0.5989,-0.72892 -2.265,-2.79519 -3.7019,-4.59172 -5.1051,-6.38295 -14.6116,-7.97799 -22.7416,-3.81569 -1.6265,0.83273 -3.1612,1.30855 -3.4113,1.05857 -0.2497,-0.25008 -0.3248,-6.72166 -0.1646,-14.3808 0.1946,-9.30515 0.6022,-13.23547 1.2272,-11.84527 1.7853,3.97194 5.1585,6.75225 10.7176,8.83215 7.1423,2.67223 7.8217,2.64559 18.1823,-0.71924 14.617,-4.74724 19.7232,-8.63397 16.1017,-12.25565 -0.6891,-0.68896 -3.3486,-2.55801 -5.9104,-4.15294 -7.5103,-4.67515 -13.5014,-9.91381 -13.491,-11.79845 0.01,-1.38667 1.118,-1.79071 5.3456,-1.94644 2.9358,-0.10808 5.8336,-0.69323 6.4407,-1.30032 0.082,-0.0822 0.2999,-0.0718 0.4064,-0.14824 l 4.2057,-3.24271 1.9058,-7.25542 c -1.4735,-0.77791 -3.3877,-2.41278 -6.3554,-5.69918 -6.2259,-6.89434 -8.6556,-10.27593 -12.091,-16.83312 -1.6762,-3.19881 -1.6822,-3.40218 -0.064,-2.63114 3.3947,1.61907 13.827,1.30002 15.9148,-0.48757 3.8073,-3.25987 2.4705,-5.74246 -7.1497,-13.27354 -15.7539,-12.33274 -20.3115,-19.5273 -13.5153,-21.33351 1.6992,-0.45147 2.8607,-0.34235 2.8607,0.2661 0,0.56362 0.7364,0.28753 1.6355,-0.61157 0.8991,-0.8991 2.3344,-1.63352 3.1899,-1.63352 0.8555,0 3.0903,-1.1703 4.9657,-2.60066 0.091,-0.0697 0.08,-0.0406 0.1686,-0.10767 l -1.6904,-3.05983 c -2.4678,-1.15271 -7.0246,-4.95019 -11.2702,-10.29288 -5.5228,-6.94989 -12.603,-18.02515 -12.603,-19.71621 0,-0.37043 1.0532,-0.42297 2.3406,-0.11588 3.8426,0.91668 11.6444,-0.8809 12.0076,-2.7672 0.1775,-0.92116 -2.1579,-4.57456 -5.1911,-8.11697 -5.6369,-6.58309 -15.3451,-19.81368 -15.3784,-20.95755 -0.01,-0.34942 2.4109,-0.9224 5.3801,-1.27401 2.9692,-0.35171 6.0825,-1.32394 6.9182,-2.15969 1.3323,-1.33237 0.9045,-2.1987 -3.4683,-7.04622 -5.6064,-6.21526 -11.4283,-14.75093 -12.4628,-18.27159 -0.6494,-2.20983 -0.3932,-2.3406 4.5837,-2.3406 5.9846,0 6.5755,-1.09477 2.7794,-5.14441 -4.7971,-5.11768 -7.9938,-13.21539 -11.0914,-28.08918 -1.6832,-8.08211 -3.0618,-16.05531 -3.0618,-17.71692 0,-3.1909 -1.65,-5.02853 -3.1594,-3.519 -0.4942,0.49423 -2.1048,7.91047 -3.58,16.48161 -3.7568,21.82732 -4.8755,25.48613 -9.7708,31.96978 -2.3618,3.12817 -4.2951,6.02447 -4.2951,6.43662 0,0.41257 2.1177,0.43254 4.7036,0.0447 l 4.6993,-0.70498 -1.0362,2.72861 c -2.3721,6.23929 -4.7328,9.79085 -10.2807,15.47391 -7.0034,7.17407 -6.7244,9.40075 1.2415,9.92317 2.659,0.17445 4.8336,0.53126 4.8336,0.79237 0,0.26121 -1.8725,3.21795 -4.1611,6.57071 -2.2886,3.35277 -4.161,6.85804 -4.161,7.7898 0,0.93187 -0.2038,1.69449 -0.4552,1.69449 -1.1444,0 -15.6176,-15.86058 -20.8133,-22.8086 -5.4761,-7.32282 -7.3978,-11.03864 -4.4354,-8.58009 4.3881,3.64186 17.5067,3.4001 23.3795,-0.43077 2.336,-1.52388 2.2756,-1.61313 -7.294,-11.12395 -14.0946,-14.00807 -30.0619,-35.96428 -24.5702,-33.78617 0.7812,0.30989 3.4578,1.38521 5.947,2.39135 3.573,1.4443 5.5438,1.63217 9.3623,0.894 7.7434,-1.49693 7.1673,-3.64362 -4.2056,-15.68924 -5.6125,-5.94417 -11.131,-12.98363 -13.1293,-16.74584 l -3.448,-6.49145 8.883,0.68262 c 12.3236,0.94726 12.6996,-0.4547 2.623,-9.77275 -6.6648,-6.16314 -15.5349,-17.68239 -15.5349,-20.17538 0,-0.48341 1.5214,-0.8836 3.3809,-0.894 5.0477,-0.0208 8.062,-1.07844 8.062,-2.82816 0,-0.85791 -1.6412,-3.79686 -3.649,-6.53213 -7.1643,-9.75964 -9.6699,-17.78464 -14.1269,-45.23926 -2.2488,-13.85204 -2.5707,-15.08381 -3.9436,-15.08381 -0.8873,0 -6.154,22.28316 -9.5879,40.57025 -2.5278,13.46131 -4.3111,17.66252 -9.6915,22.83086 -2.0527,1.97171 -3.7324,3.96122 -3.7324,4.42112 0,0.4599 2.8087,0.83512 6.2416,0.83512 4.305,0 6.2438,0.40352 6.2334,1.30033 -0.023,3.07543 -7.0689,13.24286 -13.3548,19.27326 l -6.8064,6.53015 2.1313,2.13129 c 1.1718,1.17185 4.0702,2.3901 6.4428,2.70832 2.3725,0.31822 4.3137,0.86935 4.3134,1.22314 -6e-4,0.79996 -4.211,11.95117 -4.6995,12.44654 -0.5711,0.57922 -16.4575,-11.79617 -23.4385,-18.25942 -3.5154,-3.25457 -8.2178,-8.60911 -10.4513,-11.89801 -4.2187,-6.21224 -11.7804,-20.56527 -11.1604,-21.18516 0.1951,-0.19515 3.1529,1.9507 6.5707,4.76856 7.0537,5.81559 12.4663,7.0017 16.057,3.51901 1.4576,-1.41372 1.2302,-2.44389 -1.7209,-7.78783 -0.1666,-0.30168 1.5446,-0.37169 3.8014,-0.15645 2.2568,0.21523 5.7706,-0.15989 7.8101,-0.83294 5.1309,-1.69334 4.8837,-4.45722 -0.7131,-7.97674 -7.2055,-4.53118 -24.7363,-23.03756 -31.728,-33.49158 -3.5749,-5.34518 -6.5017,-10.14828 -6.5017,-10.67486 0,-0.52648 1.927,0.25715 4.2809,1.74317 4.4595,2.81505 11.5416,5.64634 14.1248,5.64634 1.0007,0 1.2909,-0.65797 0.8716,-1.979 -0.5738,-1.80777 -0.2853,-1.89962 3.3118,-1.0646 5.4203,1.2584 6.8778,1.18589 9.1166,-0.45106 1.7957,-1.31302 1.0751,-2.26746 -10.0146,-13.26335 -10.3293,-10.24191 -25.8521,-29.63397 -25.8521,-32.29694 0,-0.48435 1.7497,0.0551 3.8867,1.20077 4.5931,2.46168 9.3784,2.6533 14.3524,0.57506 3.2129,-1.34246 5.114,-4.73403 2.6535,-4.73403 -0.5246,0 -4.7406,-3.56217 -9.3685,-7.915774 -6.88,-6.472204 -9.1606,-9.459839 -12.5075,-16.384141 -2.2514,-4.657673 -4.3688,-9.466184 -4.7056,-10.68506 -0.5712,-2.067003 -0.3064,-2.181848 3.9274,-1.704679 4.2107,0.474672 11.1239,-1.720075 11.1239,-3.531172 0,-0.350465 -1.8439,-2.63998 -4.1001,-5.08751 -4.9853,-5.408535 -9.7694,-14.626409 -11.8899,-22.912207 -0.8667,-3.387096 -2.8022,-14.818441 -4.3012,-25.403012 -2.1884,-15.4528969 -3.4465,-22.1187975 -4.6081,-23.290134 v 0 c -0.1936,-0.195257 -0.385,-0.237075 -0.577,-0.142203 z m 893.5655,7.4180107 c -1.4681,-0.9015959 -3.3727,8.7934463 -7.2961,32.2967303 -2.4976,14.962725 -5.2293,28.848987 -6.0688,30.858463 -0.8396,2.009475 -4.1697,6.529418 -7.4017,10.044986 -3.3587,3.653403 -5.7351,7.145878 -5.5447,8.1515 0.4041,2.134516 5.9134,2.888498 10.1954,1.395825 1.6211,-0.565591 3.1753,-0.798818 3.454,-0.520131 1.0516,1.051601 -4.9064,13.62994 -9.8317,20.754491 -2.8178,4.07627 -7.4514,9.61401 -10.2949,12.30631 -2.8436,2.69231 -5.1689,5.31418 -5.1689,5.82714 0,3.17894 12.9569,4.22066 19.3384,1.55426 3.6063,-1.50683 3.6569,-1.49351 2.9541,0.78019 -2.8622,9.26001 -10.3447,19.08456 -22.3676,29.36714 -10.5774,9.04634 -11.4782,11.28592 -5.2136,12.97281 4.4498,1.19828 10.8339,-0.34152 17.5849,-4.24032 l 3.452,-1.99314 -0.709,2.34673 c -0.9375,3.10518 -6.0831,12.28342 -11.2316,20.03317 -7.5339,11.34043 -14.0417,18.85144 -22.9894,26.53274 -4.8604,4.17239 -8.6388,7.90506 -8.3973,8.29568 0.2414,0.39062 3.7367,1.30126 7.7674,2.02165 6.9333,1.23895 8.6556,2.25716 6.2883,3.72018 -1.7679,1.0927 -1.153,2.53336 1.3491,3.16136 3.1115,0.78093 11.5289,-2.09269 17.1156,-5.84326 2.4316,-1.63248 4.4211,-2.54178 4.4211,-2.01967 0,1.79622 -7.6188,14.07424 -12.8428,20.69759 -5.2425,6.64708 -19.7727,20.07115 -26.7847,24.74484 -2.1196,1.41278 -4.4612,2.21326 -5.4106,1.84896 -3.5182,-1.35005 -12.4016,-14.10471 -10.8821,-15.62422 0.3258,-0.32592 2.0314,0.1525 3.7913,1.06252 1.7597,0.90992 5.2529,1.93583 7.7612,2.27963 4.2021,0.57589 4.8991,0.31999 8.8606,-3.25893 2.3647,-2.1365 4.2873,-4.41457 4.2728,-5.06317 -0.015,-0.64861 -2.3364,-2.74661 -5.1587,-4.6608 -10.8389,-7.35153 -29.1155,-28.62314 -26.6831,-31.05548 0.3679,-0.36794 3.0429,-0.11922 5.9449,0.55061 7.2708,1.67836 12.9189,1.53699 14.4947,-0.3617 1.1093,-1.33674 -0.2725,-3.21306 -9.0109,-12.22309 -9.9843,-10.29465 -13.9631,-15.50876 -15.3601,-20.13481 -0.6139,-2.03288 -0.2043,-2.24842 5.1199,-2.69002 8.6169,-0.71455 8.9768,-1.81931 2.6962,-8.29162 -7.0254,-7.24012 -8.2362,-11.57438 -13.0398,-46.70011 -3.5275,-25.79477 -6.9993,-21.655252 -10.933,13.03585 -2.8659,25.27454 -3.2743,26.54574 -11.2783,35.10274 -2.5835,2.76189 -4.4055,5.3146 -4.0493,5.67068 0.3562,0.35618 3.1814,0.68262 6.2802,0.72735 l 5.6341,0.0811 -1.3369,4.44754 c -2.1854,7.26156 -6.5958,13.84236 -15.2403,22.7415 -4.484,4.61627 -8.1535,8.99546 -8.1535,9.73218 0,1.02091 1.9173,1.21825 8.0621,0.83096 4.4341,-0.27952 9.2323,-0.86945 10.6627,-1.3125 2.4676,-0.76428 2.5153,-0.70374 0.9407,1.17841 -0.9127,1.09113 -3.9555,5.93314 -6.7617,10.76225 -3.5375,6.08762 -8.0788,11.73978 -14.8095,18.42815 -5.3391,5.30545 -9.4187,10.11198 -9.0658,10.68298 1.8004,2.91295 15.6881,2.02956 22.644,-1.44055 2.8497,-1.42152 3.0383,-1.40103 2.4158,0.24997 -2.6998,7.16096 -12.7693,20.68677 -23.5623,31.65281 -6.6408,6.74704 -12.4922,12.26678 -13.0033,12.26574 -1.4501,0 -6.8875,-9.17782 -6.1482,-10.37413 0.363,-0.58723 1.5873,-1.06668 2.7206,-1.06668 2.9476,0 9.9255,-3.76451 10.6952,-5.77024 0.4531,-1.1807 -1.7556,-4.28526 -7.2514,-10.18729 -8.2445,-8.85389 -11.8783,-14.55453 -11.8513,-18.59064 0.017,-2.49518 2.0189,-6.60224 2.0481,-4.20163 0.02,1.58412 3.5669,1.69959 6.3554,0.20722 1.9075,-1.02091 1.7234,-1.40955 -2.7958,-5.92866 -7.8112,-7.81123 -9.844,-14.18378 -12.3673,-38.74979 -1.8838,-18.33911 -2.1916,-19.765 -4.2504,-19.765 -0.8198,0 -1.4894,0.25528 -1.4894,0.56684 0,4.59442 -5.9176,40.0522 -7.4464,44.6175 -2.312,6.90433 -3.1229,8.24273 -8.5314,14.08828 -2.0831,2.25144 -3.7872,4.58184 -3.7872,5.17895 0,0.64371 2.7797,1.08499 6.8308,1.08499 6.6011,0 6.8077,0.0791 6.1237,2.34059 -1.7543,5.79968 -6.828,13.21186 -15.2666,22.29856 -5.022,5.40781 -9.1308,10.69037 -9.1308,11.73957 0,3.785 9.5845,5.32053 16.9043,2.70833 2.1455,-0.76574 3.901,-1.19433 3.901,-0.95288 0,3.36702 -11.2315,18.79765 -22.0121,30.24273 -4.5488,4.82932 -8.0947,9.32585 -7.8792,9.99224 0.806,2.49299 9.135,4.21317 14.7527,3.04766 2.8904,-0.59971 5.3871,-0.97191 5.5466,-0.8269 0.4885,0.44398 -9.1083,12.84007 -14.5515,18.79578 -15.5127,13.63306 -22.1246,26.48312 -18.0156,31.46192 3.727,4.51568 25.6005,-3.41466 25.5129,-4.25863 -0.032,-0.31021 -2.0961,3.72165 -4.6588,7.57644 -5.7796,8.69379 -19.8445,19.0777 -25.4397,24.44421 -11.7099,11.23109 -28.255,33.31493 -22.1687,40.41785 4.1689,4.86521 27.5451,-3.89027 37.3764,-12.07683 l 9.5554,-7.95634 c 3.3406,12.45059 2.8246,32.26739 -17.8206,54.9368 -0.3183,0.34942 -0.3258,0.65006 -0.7782,0.93259 -1.2306,0.76845 -2.0704,0.86748 -2.0704,0.24384 0,-0.57693 -0.4534,-1.04837 -1.0077,-1.04837 -0.5541,0 -0.7365,0.70904 -0.4043,1.57464 0.4184,1.0904 -0.3906,1.92043 -2.6332,2.70219 -1.7806,0.62072 -3.2366,1.55009 -3.2366,2.06627 0,0.51618 -0.5007,0.93874 -1.1113,0.93874 -0.095,0 -0.1057,-0.15303 -0.1809,-0.19308 l -1.5238,0.91231 c -0.2696,0.51473 -0.8156,1.07355 -1.7859,1.51567 -2.7381,1.24758 -3.8478,3.29399 -3.3809,6.24157 0.3147,1.9868 2.8572,5.31658 3.5393,4.63448 0.2542,-0.25424 2.8096,0.23551 5.6768,1.08697 13.1725,3.9118 33.8998,-1.60429 41.0071,-10.91257 l 3.6002,-4.71572 -0.126,15.05334 -0.1239,15.05333 -9.6834,-0.0343 c -8.2481,-0.0291 -10.0227,0.27359 -11.9792,2.04391 -2.8145,2.54646 -5.2034,7.00991 -5.2034,9.72001 0,3.76076 -7.5448,4.05036 -11.6521,0.447 -1.2487,-1.0955 -3.1211,-1.38636 -6.3615,-0.9895 -9.8883,1.21097 -15.5223,5.63178 -20.4619,16.055 -2.2561,4.76066 -3.0515,5.52889 -6.2416,6.02822 -21.6167,3.38335 -33.104,6.4877 -60.8696,16.44916 -6.7435,2.41934 -48.4848,11.15547 -67.5561,14.13904 -14.4891,2.26674 -16.86,4.4619 -6.0668,5.61992 20.1832,2.16552 77.8476,4.40874 138.1192,5.37192 55.84,0.89233 133.724,2.47936 151.3583,3.08427 8.8682,0.30428 31.5719,1.02851 50.4527,1.60908 31.6096,0.97213 58.2074,1.96131 100.613,3.74453 9.8959,0.41611 16.1099,1.07782 15.74,1.67628 -0.3789,0.61313 -12.3223,0.73911 -31.4354,0.32914 -16.9533,-0.36368 -59.8472,-1.10351 -95.3202,-1.64372 -35.473,-0.54021 -85.3276,-1.3409 -110.788,-1.77978 -25.4604,-0.43879 -75.6837,-0.79851 -111.6068,-0.79851 -56.3614,0 -65.1876,0.2041 -66.1928,1.52783 l -0.9875,4.11029 c 0.2156,0.4935 7.0257,1.17591 16.2705,1.54822 21.2576,0.85604 68.2313,3.76971 68.7243,4.26259 0.6596,0.65973 -8.5458,1.46271 -23.993,2.0928 -8.4252,0.34359 -19.426,1.06023 -24.4462,1.59285 -5.0202,0.53272 -19.6594,1.26974 -32.5327,1.63758 -12.8732,0.36773 -24.0373,1.00125 -24.8077,1.40799 -0.7705,0.40675 3.6767,1.05899 9.8824,1.44867 6.2058,0.38979 16.9018,1.15116 23.7676,1.69043 6.8657,0.53938 33.0803,1.48269 58.2547,2.09676 25.1743,0.61417 53.9558,1.79851 63.9599,2.63321 10.004,0.83471 20.4991,1.51775 23.3206,1.51775 9.7753,0 3.6518,1.40237 -14.2061,3.25279 -9.8679,1.02248 -24.8944,1.87882 -33.394,1.90379 -9.6342,0.0281 -17.6649,0.59513 -21.3254,1.50557 -3.2294,0.80329 -11.4893,1.76377 -18.355,2.13535 -14.0725,0.76147 -30.1754,2.37867 -33.2722,3.34028 -1.9488,0.60523 -1.9264,0.69084 0.38,1.54407 3.0524,1.1291 23.727,2.53116 59.4189,4.02904 35.0943,1.4728 65.5925,3.77594 66.8654,5.04891 1.4632,1.46324 -6.5046,2.13088 -38.7783,3.25083 -30.6805,1.06471 -54.6692,2.9766 -53.348,4.25249 2.4864,2.40092 41.3949,5.16709 115.2436,8.19404 53.1811,2.17977 57.6303,3.39709 18.7248,5.12007 -30.8143,1.36462 -92.0633,5.60078 -92.0633,6.36756 0,0.31031 9.7134,2.11548 21.5854,4.01271 11.872,1.89723 23.2239,4.16375 25.2264,5.03674 l 3.6409,1.5889 -3.1207,0.92843 c -4.3607,1.29856 -28.6022,3.76201 -44.6744,4.53898 -13.3226,0.64413 -18.7451,1.73256 -14.5312,2.91971 5.3815,1.51597 26.6401,3.1754 76.89,6.0018 10.2986,0.57921 25.4041,1.43483 33.5689,1.89972 13.5498,0.77157 17.0225,1.35671 15.7278,2.65143 -1.1323,1.13243 -20.2714,2.67493 -45.6558,3.68159 -26.6968,1.05868 -48.3675,2.69022 -50.1195,3.77293 -3.7051,2.28993 4.0109,4.65445 26.7786,8.20226 9.388,1.46293 17.7791,2.93053 18.6456,3.263 1.6098,0.61771 2.2036,2.46656 0.7944,2.46656 -4.7845,0.0146 -30.1395,4.55053 -32.9613,5.89621 -4.0105,1.91242 -4.411,2.62532 -2.4077,4.28703 3.149,2.61189 33.7232,6.59589 65.3903,8.52121 23.2853,1.4158 27.914,2.44888 22.3413,4.98796 -2.8092,1.27994 -10.3603,1.77021 -59.9045,3.89287 -40.8847,1.75159 -51.153,2.4881 -50.4569,3.6145 0.6568,1.06273 15.8639,2.5218 65.5407,6.28828 42.7804,3.24365 60.2427,5.17198 63.5372,7.01564 1.6323,0.91345 1.3628,1.19942 -2.0053,2.12931 -2.1398,0.59087 -12.8809,1.86426 -23.8691,2.83025 -42.3379,3.72185 -55.3432,5.18321 -55.1238,6.19487 0.3127,1.44118 4.222,2.10591 26.8233,4.56738 17.6409,1.92126 76.4178,7.38753 79.436,7.38753 0.6515,0 1.1844,-0.71248 1.1844,-1.58484 0,-2.81246 5.3493,-3.89766 18.8609,-3.82172 21.6,0.12098 43.2001,3.05702 40.7227,5.53451 -0.5185,0.51836 -7.1173,2.26382 -14.6633,3.87862 -7.546,1.61469 -14.034,3.25124 -14.4195,3.63686 -1.0863,1.08624 2.6568,3.38158 8.4502,5.18103 13.5238,4.20079 33.5543,5.77034 70.8434,5.54876 25.4141,-0.15094 28.4174,-0.35265 31.0597,-2.08458 1.6088,-1.05451 2.524,-2.28296 2.0337,-2.72871 -1.5129,-1.37575 -14.8245,-4.09593 -28.4589,-5.81486 -13.6036,-1.71498 -28.0573,-4.24521 -28.8673,-5.05506 -1.73,-1.73016 17.6283,-2.65194 56.1742,-2.67171 l 35.1089,-0.0187 V 504.49505 219.67221 l -4.1285,-11.91216 c -2.2701,-6.55136 -5.9767,-18.959 -8.2368,-27.5731 -2.2601,-8.614 -4.7626,-17.26722 -5.563,-19.22864 l -1.4567,-3.5657 -1.8327,9.34405 c -1.0081,5.14015 -3.0249,14.24266 -4.4821,20.22625 -1.8319,7.52214 -2.2886,10.99828 -1.479,11.26813 1.3077,0.43587 1.6068,4.01198 0.392,4.69138 -1.9919,1.11401 -8.553,-3.21234 -15.1833,-10.01253 -8.0381,-8.2443 -24.7145,-27.98932 -24.1312,-28.5727 0.2036,-0.20358 1.7014,0.31104 3.328,1.14388 7.9013,4.04516 16.571,2.99169 15.352,-1.8652 -0.5979,-2.38189 -0.3632,-2.51546 4.931,-2.81807 3.1481,-0.17996 5.561,-0.81463 5.561,-1.46084 0,-0.6278 -4.5338,-4.95051 -10.0735,-9.60818 -5.5397,-4.65778 -12.1332,-11.16743 -14.6531,-14.46413 -4.9413,-6.46492 -10.6154,-15.74458 -9.9882,-16.33337 0.2126,-0.19963 3.4289,0.279 7.1478,1.06263 7.3033,1.53875 12.8167,0.65307 13.9257,-2.23699 0.3621,-0.94372 -2.1091,-4.61606 -6.4407,-9.57156 -11.1206,-12.722622 -14.6091,-17.293225 -16.3049,-21.351811 -0.8704,-2.083126 -1.5827,-3.918462 -1.5827,-4.079807 0,-0.161449 3.2371,-0.294602 7.1944,-0.294602 3.9574,0 7.5323,-0.33767 7.9443,-0.749718 0.4121,-0.411944 -1.7947,-3.922831 -4.9047,-7.801972 -12.0726,-15.057389 -13.125,-18.679064 -18.6577,-64.2666093 -0.9075,-7.4773057 -1.6304,-11.8324704 -2.5113,-12.3734071 z M -1984.9375,32.74019 c -18.5361,0.398317 -40.0576,2.698859 -67.9726,6.974963 -16.3257,2.500896 -20.5314,3.588075 -23.6477,6.111545 -2.0682,1.674823 -2.2099,2.183616 -1.0037,3.636863 3.4209,4.121938 28.3987,7.885921 52.4256,7.901525 10.6324,0.0104 14.1711,0.32373 13.6189,1.217107 -0.5619,0.909086 -11.4228,0.97327 -44.0121,0.260066 -65.0413,-1.423496 -91.0914,-1.06242 -110.3979,1.531891 -24.8266,3.336123 -38.4478,7.411249 -39.284,11.753827 -0.8286,4.302423 6.7827,7.149519 26.998,10.095751 16.8136,2.450443 13.8016,3.019987 -19.9296,3.768977 -39.3462,0.873612 -61.5811,2.317289 -73.3385,4.762427 -11.5005,2.391773 -19.765,5.833587 -19.765,8.230664 0,2.252374 6.3477,5.022594 15.5328,6.780014 8.0881,1.5475 34.6103,4.33967 47.9232,5.04486 9.5672,0.50671 162.5519,-0.23707 165.922,-0.80662 1.4303,-0.24175 8.4521,-0.74951 15.6039,-1.12962 14.4121,-0.76594 43.9829,-4.17156 50.4528,-5.81091 6.7437,-1.70873 9.8825,-3.199326 9.8825,-4.689294 0,-3.169785 -5.5264,-4.406034 -38.9977,-8.72843 -23.3373,-3.013746 -39.7081,-5.925338 -38.7437,-6.889765 1.0749,-1.074904 14.3619,-2.677949 46.5335,-5.617732 81.3702,-7.435487 114.9817,-13.498451 119.488,-21.550918 3.2172,-5.748909 -11.5536,-13.052803 -37.228,-18.409845 -15.9734,-3.332898 -31.5245,-4.835766 -50.0607,-4.437346 z m 275.2207,38.853404 c -0.4683,-0.09882 -4.3601,1.592954 -9.0536,3.949774 -5.0062,2.513899 -12.6132,5.614611 -16.9043,6.889661 -13.0616,3.881117 -16.9742,6.726756 -27.5669,20.051481 l -3.1208,3.92533 -7.3691,-7.103019 c -5.6573,-5.453266 -8.7979,-7.600784 -13.5234,-9.246584 -9.7406,-3.39261 -25.6105,-6.790108 -26.6873,-5.713332 -1.0322,1.032253 9.2708,8.571974 20.1328,14.734387 6.7365,3.821928 15.484,10.935038 15.484,12.590818 0,0.53439 -1.1202,0.69095 -2.4889,0.34745 -2.651,-0.66535 -7.6817,1.439 -9.9374,4.157 -1.193,1.43733 -0.8029,1.62946 3.3199,1.62946 3.5816,0 7.0748,1.23709 14.9538,5.30295 l 10.2766,5.30493 7.8711,-0.57506 c 9.6139,-0.70311 14.1683,-2.19724 12.5705,-4.12246 -0.6103,-0.73536 -3.3535,-2.43837 -6.0952,-3.78312 -2.7418,-1.34475 -5.153,-2.5836 -5.3618,-2.75306 -0.2089,-0.16956 1.3266,-3.364 3.4154,-7.09896 4.3189,-7.72312 7.5809,-10.524755 17.4121,-14.949722 8.3369,-3.752228 15.3748,-9.987876 19.6004,-17.373534 1.7171,-3.001159 3.1208,-5.756607 3.1208,-6.12174 0,-0.02289 -0.018,-0.03641 -0.049,-0.04265 z m -233.0189,86.366166 c -38.8143,-0.0759 -79.1718,4.02165 -79.1718,9.44569 0,2.33248 8.5705,4.63177 27.567,7.39762 9.161,1.33382 8.6237,1.37731 -24.9663,1.99314 -29.8384,0.54697 -35.7574,0.92906 -45.2514,2.92574 -10.6343,2.23667 -16.86,4.73715 -17.0627,6.84909 -0.3047,3.17541 11.2557,5.67745 35.7874,7.74507 6.0075,0.50619 27.541,0.77854 47.8521,0.60554 48.3153,-0.41153 65.268,-2.50506 62.4788,-7.71667 -1.0036,-1.87539 -4.8951,-3.63322 -9.9455,-4.49425 -2.3165,-0.39488 9.9771,-2.07772 32.7682,-4.48613 29.1696,-3.08251 41.6106,-6.05371 41.6106,-9.93534 0,-1.06201 -0.8192,-2.35932 -1.8205,-2.88309 -3.7478,-1.96059 -17.2293,-4.35371 -33.0974,-5.87385 -11.044,-1.05795 -23.8103,-1.54718 -36.7485,-1.57256 z m -485.3273,39.74126 c 0.6351,0.63498 -9.8947,14.64815 -14.8299,19.7366 -4.531,4.67172 -6.9453,5.92991 -7.9868,4.16105 -1.076,-1.82722 1.6533,-5.56728 8.2449,-11.30069 3.8716,-3.36764 8.6528,-7.6606 10.6261,-9.5391 1.9732,-1.87851 3.7493,-3.25426 3.9457,-3.05786 z m 948.5003,14.55151 c 0.8654,-0.86529 13.6164,5.96196 17.6459,9.44767 2.736,2.36712 4.1406,4.52286 4.4007,6.75765 0.2101,1.80517 0.2742,3.2735 0.1423,3.26102 -0.1318,-0.0125 -2.1171,-0.87705 -4.4129,-1.92001 -3.8709,-1.75846 -18.8138,-16.50835 -17.776,-17.54633 z m -299.6445,11.40222 c -0.4357,0.0135 -1.0526,0.16582 -1.9119,0.44097 -1.5734,0.50369 -8.8921,2.8343 -16.2662,5.17895 -16.198,5.15024 -18.9693,6.92097 -20.5331,13.13124 -0.6406,2.54406 -1.52,4.84554 -1.9545,5.11403 -0.4345,0.2686 -2.013,-0.4728 -3.5068,-1.64777 -4.0077,-3.15242 -13.9156,-6.91057 -21.8699,-8.29568 -6.039,-1.05171 -7.6195,-0.97733 -11.6095,0.54655 -2.5405,0.97025 -4.6203,2.15137 -4.6203,2.625 0,0.47353 4.3301,1.85063 9.6225,3.05983 10.7687,2.46064 20.5452,6.73664 20.5452,8.98652 0,0.81608 -0.4682,1.48518 -1.0403,1.48518 -0.5721,0 -2.0788,1.04058 -3.3504,2.31219 l -2.3122,2.31209 6.7333,1.17841 c 14.9562,2.62011 23.0044,1.34413 30.1372,-4.77668 l 2.6006,-2.23084 -2.6311,0.56486 c -4.2279,0.90701 -7.2514,-0.33663 -7.2514,-2.98264 0,-3.95373 3.8923,-7.58227 13.3853,-12.48524 9.6372,-4.97745 16.7824,-10.67018 16.7824,-13.36696 0,-0.6512 -0.1421,-1.01103 -0.5709,-1.11745 -0.1073,-0.0271 -0.2327,-0.0375 -0.378,-0.0323 z m -663.0152,36.01505 c 0,1.5659 -13.3645,15.49815 -16.9469,17.66626 -1.8352,1.11079 -4.5029,2.37399 -5.9288,2.80788 -2.369,0.7208 -2.464,0.63487 -1.0991,-1.00978 2.5443,-3.06566 23.9748,-20.46468 23.9748,-19.46436 z m 75.9392,4.06763 c 0,-0.34609 2.7594,1.21149 6.1298,3.4621 6.1407,4.10061 13.9509,6.41842 18.0299,5.35174 2.1255,-0.55581 2.1237,-0.52845 -0.128,2.51733 -2.6831,3.62896 -2.2601,5.18259 2.3629,8.68578 1.8875,1.43036 6.7849,5.11591 10.8842,8.18999 4.0993,3.07408 7.4505,5.88279 7.4505,6.24158 0,0.35878 -1.5593,0.76293 -3.4642,0.89806 -5.1556,0.36565 -13.1399,-4.11872 -21.8963,-12.29622 -6.7708,-6.32314 -19.3688,-21.31478 -19.3688,-23.05036 z m 890.4651,1.84481 c 0,-0.31344 3.5498,2.36046 7.8872,5.94094 7.2998,6.02582 11.0498,8.81612 14.9904,11.15432 2.1996,1.30543 1.1801,1.64486 -3.8441,1.28004 -3.4942,-0.25372 -5.4366,-1.2764 -9.6732,-5.08553 -4.4067,-3.96195 -9.3603,-10.99443 -9.3603,-13.28977 z m -68.6574,10.84963 c 0,0.51929 -2.7708,5.08834 -6.1583,10.15275 -7.219,10.79242 -21.5832,25.03351 -29.0846,28.83474 -2.9589,1.49933 -6.9767,2.6509 -9.1918,2.63322 l -3.9375,-0.0302 3.1858,-2.83024 c 1.7519,-1.55665 7.5623,-6.34114 12.9119,-10.63222 16.1166,-12.92787 17.9009,-14.68622 17.3512,-17.08715 -0.4022,-1.7569 0.9412,-3.0721 7.2148,-7.07056 4.24,-2.70229 7.7085,-4.48936 7.7085,-3.97006 z m -97.2504,15.83155 c 0.215,0.21502 -1.4652,4.59057 -3.7343,9.72396 -5.0074,11.32846 -12.8651,23.06658 -17.5647,26.23824 -3.5255,2.37939 -6.2821,3.03174 -6.2821,1.48726 0,-0.46916 1.5487,-2.69272 3.4397,-4.94125 1.891,-2.24852 4.5197,-5.64186 5.8434,-7.5419 l 2.4077,-3.45607 -3.2448,-4.51661 c -1.7843,-2.48456 -3.2447,-4.94978 -3.2447,-5.47761 0,-0.52783 2.7077,-1.71134 6.016,-2.63114 3.3085,-0.9199 8.2556,-3.38272 10.9938,-5.47355 2.7383,-2.09082 5.155,-3.62646 5.37,-3.41133 z m -799.4562,23.47696 c 0,3.25748 -13.3445,17.13885 -18.2798,19.01528 -6.0002,2.2813 -5.3365,0.65672 2.3589,-5.77429 4.4658,-3.73226 9.8744,-8.46067 12.0199,-10.50822 2.1456,-2.04755 3.901,-3.27734 3.901,-2.73277 z m 71.1259,5.77024 c 0.1994,-0.19942 3.8218,3.0668 8.0499,7.25947 9.3303,9.25241 21.2396,17.71433 33.4408,23.7595 5.0107,2.48259 8.9532,4.99379 8.761,5.57925 -0.1922,0.58556 -2.4299,1.20223 -4.9738,1.37137 -10.437,0.69386 -28.4309,-12.45163 -39.8104,-29.08471 -3.207,-4.68753 -5.6668,-8.68546 -5.4675,-8.88488 z m 822.4599,10.08566 c 0,2.04838 -10.6927,16.73356 -15.6974,21.55903 -7.6332,7.35955 -11.7896,10.38422 -19.1514,13.93183 -4.4442,2.14169 -7.8141,3.00646 -11.7029,3.00698 -3.0038,5.2e-4 -5.4614,-0.18694 -5.4614,-0.41652 0,-0.48497 5.3831,-3.75556 13.5234,-8.21641 8.0639,-4.41904 24.2894,-16.73242 31.982,-24.27142 3.5797,-3.50818 6.5077,-6.02447 6.5077,-5.59349 z m 75.2403,6.60525 c 0.2666,-0.26662 3.991,2.00313 8.2773,5.04288 4.2863,3.03976 8.6648,6.05673 9.7301,6.70481 2.5384,1.54386 1.7167,2.03996 -2.6697,1.61116 -2.7595,-0.26984 -4.9552,-1.76678 -9.6955,-6.61129 -3.3704,-3.44441 -5.9088,-6.48083 -5.6422,-6.74756 z m -178.6347,10.44122 c 0.28,-0.0843 -0.1741,0.67846 -1.1033,2.20859 -5.6059,9.23212 -11.701,15.67832 -19.2935,20.40496 -3.5043,2.18154 -6.1557,2.70469 -9.8825,1.95455 l -3.1208,-0.6278 5.571,-3.06388 c 6.2882,-3.45877 18.3928,-12.34668 24.5295,-18.01164 2.0066,-1.85229 3.0196,-2.78103 3.2996,-2.86478 z m -722.8365,0.7518 c 0.3425,-0.2585 1.4323,0.59971 3.0274,2.75712 1.1633,1.57339 4.5758,5.5524 7.5825,8.84223 3.0068,3.28983 5.0682,5.96664 4.5816,5.94895 -2.9573,-0.10569 -9.4713,-6.5599 -13.7326,-13.60664 -1.3957,-2.30803 -1.8013,-3.68315 -1.4589,-3.94166 z m 102.4904,21.11411 c 1.121,-1.12088 13.1065,8.07921 13.2084,10.13851 0.074,1.49621 -2.9843,1.68075 -4.9575,0.29866 -2.751,-1.92688 -8.9362,-9.75174 -8.2509,-10.43717 z m 709.5182,22.99346 -2.4666,4.16105 c -7.6206,12.85827 -20.4207,26.19392 -29.491,30.72635 -6.3548,3.1755 -10.6768,3.71925 -15.1956,1.90784 -2.4341,-0.97566 -2.001,-1.3332 6.7617,-5.55688 6.2456,-3.01041 12.4793,-7.16939 18.7248,-12.49532 5.1493,-4.39116 10.5326,-8.94491 11.963,-10.1202 1.4304,-1.17519 4.199,-3.5965 6.1521,-5.38014 z m 84.9419,1.73307 c 0.5657,0.11787 1.8543,1.1211 3.8624,3.03747 4.3275,4.12984 8.6914,7.28496 16.5568,11.96916 v 0 c 1.7513,1.04297 1.6958,1.17695 -0.703,1.6356 -1.4357,0.27474 -3.296,0.29596 -4.1325,0.0489 -3.4355,-1.01478 -9.6836,-6.09314 -12.3593,-10.04509 -2.4811,-3.66454 -3.66,-5.84254 -3.5495,-6.46711 0.027,-0.15614 0.1365,-0.21606 0.3251,-0.17674 z m -867.4004,1.46293 c 0.061,-0.48841 1.3107,0.39717 3.7404,2.73266 5.4299,5.21931 16.0259,11.81656 22.3514,13.91758 4.8794,1.62062 5.1563,1.88048 3.3768,3.18174 -2.8889,2.11236 -6.7116,1.70603 -11.9447,-1.26985 -5.6991,-3.24104 -9.4538,-6.71042 -14.1309,-13.05613 -2.3268,-3.15678 -3.4543,-5.01771 -3.393,-5.506 z m 687.5426,4.60597 c 3.7988,0 -14.515,19.33901 -19.6695,20.77072 -4.9261,1.36805 -9.8633,1.38761 -9.0271,0.0343 0.3537,-0.57215 1.1264,-1.04027 1.7169,-1.04027 2.1855,0 23.2269,-15.453 25.1227,-18.45041 0.4575,-0.7234 1.2932,-1.31458 1.857,-1.31458 z m -612.2293,15.60394 c 0.3395,0 3.8052,2.45762 7.7004,5.46138 3.8952,3.00376 8.543,6.25843 10.3275,7.23305 1.7845,0.97463 3.2427,2.26195 3.2427,2.86073 0,1.32841 -3.7927,1.31042 -7.1477,-0.0322 -4.4048,-1.76325 -10.5645,-7.34197 -12.6763,-11.48149 -1.1343,-2.22335 -1.786,-4.04121 -1.4466,-4.04121 z m 733.3142,15.83967 c -1.0932,3.72913 -9.5936,16.18202 -12.1926,17.86318 -3.1916,2.06451 -8.4632,3.32468 -7.9502,1.89973 0.8908,-2.47447 20.8014,-22.00957 20.1428,-19.76291 z m -890.4832,3.40311 0.3737,3.12079 c 0.5259,4.39938 -2.6768,9.70732 -7.2695,12.05041 -2.1502,1.09696 -4.1775,1.99314 -4.5065,1.99314 -1.0831,0 1.3117,-3.59255 4.161,-6.24158 1.5387,-1.43036 3.7986,-4.47313 5.0205,-6.7617 z m 36.2506,3.81569 c 0.102,-0.0104 0.2397,0.0759 0.4166,0.26006 0.7073,0.73797 2.023,3.04205 4.0026,6.97299 2.052,4.07471 5.8272,9.64875 8.3891,12.38766 2.8915,3.09114 4.2264,5.24771 3.519,5.68493 -0.6269,0.3874 -1.797,0.15927 -2.5986,-0.50598 -0.8017,-0.66535 -2.5354,-1.05649 -3.8543,-0.86956 -2.1784,0.30875 -2.4687,1.05348 -3.1614,8.14131 -0.4194,4.29108 -1.1464,12.24909 -1.6153,17.68447 l -0.8512,9.88249 -0.699,-6.7617 c -0.886,-8.57281 -1.5888,-19.02912 -2.3426,-34.84881 -0.3272,-6.86574 -0.8431,-13.77048 -1.1459,-15.34388 -0.337,-1.75097 -0.3643,-2.65319 -0.059,-2.68398 z m 30.5517,1.90982 c 1.2702,0.0104 6.6081,3.5216 10.7318,7.0665 2.0025,1.72153 3.4069,3.33852 3.1208,3.59422 -0.7602,0.6797 -6.4979,-1.11548 -8.3587,-2.61491 -2.2636,-1.824 -6.5152,-8.04581 -5.4939,-8.04581 z m 835.5567,19.96004 c 0.99,1.27942 1.6217,13.26835 1.6476,34.04229 0.012,10.25419 -0.3286,14.07081 -1.284,14.38892 -0.7151,0.23812 -1.3003,0.98971 -1.3003,1.66806 0,0.67836 -1.4591,4.73465 -3.2448,9.01492 -3.7447,8.97539 -4.6013,10.22152 -3.6714,5.34352 0.3647,-1.91325 1.3675,-11.04156 2.2289,-20.28513 2.2811,-24.47499 2.4616,-26.23959 3.8076,-37.09182 0.4945,-3.98722 0.957,-6.27383 1.3713,-6.96695 0.1555,-0.25986 0.3036,-0.29658 0.4451,-0.11381 z m -134.515,1.10736 c 0.2266,0.22657 -1.1165,2.12838 -2.9826,4.22607 -2.2653,2.54625 -4.4991,3.94301 -6.7211,4.20173 -4.3125,0.50213 -4.9165,-0.21732 -2.0582,-2.44837 2.9713,-2.31926 11.2259,-6.51558 11.7619,-5.97943 z m 27.6482,5.45327 -0.7192,15.60394 c -0.6556,14.23069 -0.915,15.7629 -2.9481,17.40204 -4.0579,3.27152 -4.8315,2.40145 -4.8315,-5.43902 v -7.28184 h -3.513 c -4.5192,0 -6.5922,-2.2297 -4.2504,-4.57143 0.9188,-0.91887 2.1092,-1.67014 2.6453,-1.67014 1.5248,0 7.1873,-5.29983 10.5571,-9.8825 z m -792.4629,0.34131 c 0.7589,0.66712 1.09,8.14682 0.6867,17.34316 -0.1254,2.86072 -0.6158,5.6093 -1.091,6.10748 -2.4198,2.537 -2.3704,-19.4733 0.053,-23.30438 0.125,-0.19755 0.2431,-0.24155 0.3515,-0.14626 z m 130.679,2.89328 2.9887,4.62428 c 1.6437,2.54355 4.9205,6.41884 7.2818,8.61265 2.3613,2.19381 4.2934,4.30034 4.283,4.68118 -0.01,0.38084 -1.9531,1.62281 -4.3236,2.75909 -4.255,2.03975 -8.0678,7.75454 -8.125,12.17638 -0.013,0.96755 -0.4925,2.04797 -1.0646,2.40155 -0.6782,0.41913 -1.0403,-5.60514 -1.0403,-17.30654 z m 690.8687,0.40425 c 0.3591,0 1.2645,0.73962 2.0114,1.63966 3.1306,3.7721 9.3998,5.87988 16.1951,5.44713 3.6011,-0.22896 6.4366,-0.30459 6.3006,-0.16863 -1.1544,1.15438 -8.2862,5.56707 -8.9967,5.56707 -0.4991,0 -1.0629,0.35109 -1.2535,0.7802 -0.1908,0.42911 -3.2352,3.23782 -6.7659,6.24158 -3.5308,3.00376 -6.6632,5.46138 -6.9608,5.46138 -0.2976,0 -0.6847,-5.61836 -0.8615,-12.48524 -0.1766,-6.86677 -0.028,-12.48419 0.3313,-12.48315 z m -723.0844,2.0826 c 0.3285,0 0.4864,6.83578 0.3515,15.1894 -0.1349,8.35352 -0.4773,15.41888 -0.7599,15.70152 -0.5085,0.50838 -5.8656,-7.35965 -5.8656,-8.61473 0,-0.35795 -1.1798,-2.05358 -2.6231,-3.76887 l -2.6251,-3.11871 3.4053,-3.80351 c 1.8724,-2.09207 4.33,-5.55459 5.4614,-7.69431 1.1313,-2.13971 2.3267,-3.89079 2.6555,-3.89079 z m 837.0175,0.52014 0.642,2.60065 c 0.354,1.43036 0.9084,4.94125 1.2313,7.80197 0.6511,5.77055 -0.7815,17.56151 -1.8326,15.08382 -1.0423,-2.45648 -1.6464,-19.51211 -0.8026,-22.65214 z m -959.0127,2.05202 c 0.2453,0.23562 0.4467,1.07813 0.7376,2.65964 0.9963,5.41727 0.2399,24.88756 -0.8676,22.33517 -1.4292,-3.2942 -2.1079,-21.81691 -0.8797,-24.01135 0.474,-0.84708 0.7644,-1.21898 1.0097,-0.98346 z m 155.9704,5.76617 c -0.7444,0.0104 -0.6165,0.41819 0.321,1.02404 1.9986,1.29159 2.3587,1.29159 1.5604,0 -0.3536,-0.57214 -1.1999,-1.03444 -1.8814,-1.02404 z m 603.6735,6.07701 3.3809,3.5576 c 3.0929,3.25508 5.1819,4.47053 13.5234,7.86501 1.5734,0.64028 2.8607,1.633 2.8607,2.2065 0,0.5736 -1.2873,1.32779 -2.8607,1.67618 -1.5734,0.34838 -4.4966,1.13544 -6.4976,1.74733 -2.0012,0.61188 -4.8661,2.42579 -6.3656,4.03102 -1.4995,1.60522 -3.0214,2.6226 -3.3828,2.26132 -0.3613,-0.36139 -0.6583,-5.76264 -0.6583,-12.00162 z m -668.0215,1.81641 c 0.6447,-0.39842 1.3171,1.49454 1.7148,4.81933 0.7917,6.61784 -0.6208,17.63308 -1.983,15.46174 -1.1322,-1.80465 -1.6722,-14.6673 -0.6157,-14.6673 0.4228,0 0.5552,-1.11547 0.2946,-2.47873 -0.2606,-1.36337 0.01,-2.77428 0.5893,-3.13504 z m 786.2376,1.61324 c 0.1405,0.0572 0.3142,0.36294 0.5242,0.87975 0.5812,1.43036 1.2978,5.87748 1.5929,9.88249 0.2951,4.00502 0.1,8.42072 -0.4348,9.81135 -0.9543,2.48425 -0.9843,2.46833 -1.6599,-0.91023 -0.3783,-1.8912 -0.6582,-7.4772 -0.6218,-12.412 0.04,-5.34914 0.1778,-7.42166 0.5994,-7.25136 z m -652.6187,6.47522 c 0.1094,-0.10944 0.2525,0.0364 0.4186,0.45105 0.3004,0.75097 0.2641,1.64955 -0.081,1.99523 -0.3457,0.34568 -0.5913,-0.2687 -0.5466,-1.36535 0.025,-0.60595 0.1,-0.9716 0.2093,-1.08093 z m -22.138,3.94571 v 12.91383 c 0,7.1026 -0.1198,12.91392 -0.2682,12.91392 -0.4389,0 -3.3099,-4.53003 -4.1164,-6.49561 -0.4144,-1.00978 -2.8369,-2.37408 -5.4614,-3.07605 -2.5942,-0.69386 -4.7177,-1.60066 -4.7177,-2.01343 0,-0.85687 5.1582,-6.10572 10.7601,-10.95127 z m -27.374,3.49456 c 0.1204,-0.0468 0.2433,-0.0125 0.3698,0.1138 0.5043,0.50432 1.1154,2.55073 1.3572,4.5471 0.5791,4.78125 -1.6992,19.62081 -2.7571,17.96076 -1.8356,-2.87997 -0.7764,-21.9198 1.0301,-22.62166 z m -150.1433,25.94155 c 0.1164,-0.10298 0.4069,-0.0749 0.8595,0.0635 1.3284,0.40539 3.1541,1.38345 4.0573,2.17394 0.9033,0.7906 2.1177,1.4365 2.6983,1.4365 1.3074,0 8.41,8.36351 12.1478,14.30362 3.9287,6.24334 1.4377,5.48665 -4.8884,-1.48529 -2.9476,-3.24864 -7.8494,-8.43976 -10.8942,-11.53631 -3.112,-3.16458 -4.3296,-4.64592 -3.9803,-4.9555 z m -19.9621,4.71375 c 0.3731,0 3.1035,1.2582 6.0669,2.7957 6.0633,3.14566 12.2181,8.83974 13.6636,12.64159 0.5302,1.39458 0.7166,2.78416 0.4145,3.08625 -0.3021,0.3021 -0.5506,0.0583 -0.5506,-0.54041 0,-0.59867 -2.6499,-3.09021 -5.8901,-5.53659 -6.4263,-4.852 -14.7884,-12.44654 -13.7043,-12.44654 z m 809.6741,8.13922 -3.1208,3.2915 c -1.7165,1.81047 -5.8651,5.12849 -9.2202,7.37328 -3.355,2.24468 -5.8072,4.08178 -5.4512,4.08178 0.3562,0 7.7816,-2.04703 16.5019,-4.54917 13.7351,-3.94114 24.6962,-6.32178 24.6962,-5.36381 0,0.1602 -3.6279,2.7696 -8.0621,5.79864 -4.4341,3.02893 -8.2564,5.66215 -8.4947,5.85148 -0.2385,0.18922 -0.132,0.64434 0.2356,1.01186 0.3676,0.36763 1.3042,0.14002 2.0826,-0.50598 1.8055,-1.4984 8.026,-3.73361 20.4802,-7.36101 5.4353,-1.58307 11.4482,-3.6896 13.3608,-4.6792 5.9262,-3.06639 5.1439,-0.65131 -1.8469,5.70521 -7.328,6.6632 -14.6494,10.90414 -25.0374,14.50064 -6.4977,2.24968 -21.8455,4.13838 -21.8455,2.68804 0,-0.38583 2.2236,-3.08666 4.9413,-6.00179 3.3789,-3.62438 4.2834,-5.11206 2.8607,-4.70355 -1.1443,0.32851 -4.1871,1.13794 -6.7617,1.80017 -2.5747,0.66213 -5.4026,1.57361 -6.2863,2.02363 -2.1599,1.09997 -17.698,3.9325 -25.4417,4.63853 -3.4329,0.31301 -7.9971,0.86872 -10.1426,1.23531 -5.1652,0.88235 -5.2042,-1.21419 -0.1179,-6.30056 7.7033,-7.70325 29.4943,-18.10786 41.4684,-19.79953 z m -71.5059,3.30367 c 2.6664,0 2.6992,0.0645 0.7395,1.41611 -1.1286,0.77853 -7.6695,3.87456 -14.5352,6.88155 -6.8657,3.00698 -12.8534,5.80654 -13.306,6.22129 -0.4526,0.41465 4.9308,-0.29242 11.963,-1.57257 7.0323,-1.28014 15.3606,-2.63186 18.5074,-3.00292 5.3918,-0.63581 5.6016,-0.57735 3.6409,1.01384 -4.2074,3.41476 -9.5734,5.50309 -18.2046,7.08273 -18.347,3.35776 -38.3434,2.89235 -37.1122,-0.86352 1.4357,-4.37972 37.425,-17.17651 48.3072,-17.17651 z m -628.8756,3.59827 c 0.7939,-0.74379 14.9049,2.68065 21.6871,5.26227 13.5041,5.14015 24.0757,11.87377 30.5902,19.48454 2.0067,2.34444 3.5217,4.39012 3.3667,4.54512 -0.6703,0.67035 -10.4297,-2.08802 -20.85,-5.89215 -13.037,-4.75941 -14.2995,-4.95467 -11.455,-1.77168 1.1504,1.28733 3.1381,3.86198 4.4149,5.72145 1.277,1.85947 1.9371,3.34133 1.469,3.29347 -0.468,-0.0479 -8.5752,-2.66297 -18.0156,-5.81288 -9.4404,-3.14981 -19.973,-6.57498 -23.4059,-7.61098 -3.4329,-1.036 -8.5822,-2.98087 -11.4429,-4.32354 -5.1688,-2.4259 -5.1795,-2.44472 -1.9445,-2.76325 1.7905,-0.17622 6.8228,0.59378 11.1829,1.71071 4.3601,1.11693 7.9259,1.89016 7.9259,1.71685 0,-0.1732 -1.9895,-1.52014 -4.4211,-2.99273 -4.4028,-2.6664 -10.1425,-7.37505 -10.1425,-8.32013 0,-0.55196 7.3954,1.58047 24.1861,6.97299 11.168,3.58662 13.7212,3.6275 8.3221,0.13419 -3.7818,-2.44691 -11.831,-9.01357 -11.4674,-9.35425 z m 569.8285,0.27421 c 0.2861,0.31583 -0.069,0.78322 -0.7883,1.04027 -0.7201,0.25704 -3.2614,2.09977 -5.6483,4.09405 -2.387,1.99429 -6.2004,4.5756 -8.4746,5.7357 -4.684,2.38969 -22.5383,7.15535 -22.5383,6.01605 0,-1.48737 7.0473,-6.06962 13.5904,-8.8362 9.9862,-4.22232 23.2674,-8.70305 23.8591,-8.04987 z m 221.771,0.57912 c 0.4377,0.56975 -7.289,5.4931 -14.0497,8.78325 -7.1963,3.50225 -23.5948,8.00857 -23.5948,6.48344 0,-1.77251 7.7756,-5.45826 21.0064,-9.95771 7.6134,-2.58922 14.7787,-4.96029 15.9229,-5.26841 0.4224,-0.1137 0.6527,-0.12192 0.7152,-0.0406 z m 51.6759,3.38085 c 0.2405,0.24041 -0.6818,1.39791 -2.0501,2.57018 -6.157,5.27486 -11.9475,8.65551 -18.8284,10.99589 -8.0144,2.7259 -9.1632,2.94644 -9.1164,1.74733 0.037,-0.96516 11.1651,-8.98995 14.013,-10.10605 7.4275,-2.91055 15.6112,-5.57799 15.9819,-5.20735 z m -739.7874,2.92574 c 1.3937,0.1396 4.3387,1.17851 9.1774,3.15127 10.1377,4.13307 17.3338,8.46171 21.7724,13.09472 1.667,1.73995 2.5923,3.12194 2.0562,3.06992 -2.1177,-0.20378 -8.4289,-2.17539 -11.5344,-3.60232 -1.8028,-0.82836 -3.5636,-1.50547 -3.9131,-1.50547 -1.2573,0 -15.7258,-9.92869 -17.4326,-11.96302 -1.3632,-1.62458 -1.5197,-2.3847 -0.1259,-2.2451 z m -104.1808,5.88602 c -0.2524,0 -0.7495,0.46811 -1.1032,1.04026 -0.3536,0.57214 -0.1467,1.04026 0.4592,1.04026 0.6059,0 1.1012,-0.46812 1.1012,-1.04026 0,-0.57215 -0.2049,-1.04026 -0.4572,-1.04026 z m 91.9495,0.19099 c 1.5995,-0.53314 8.3729,1.90264 8.3729,3.01104 0,0.52772 0.3511,0.8629 0.7802,0.74566 1.7001,-0.46469 8.5822,2.53325 8.5822,3.7385 0,0.70602 0.9843,2.33861 2.1861,3.62864 1.2018,1.29003 2.0101,2.52077 1.7961,2.73475 -0.7002,0.7001 -12.7081,-5.85606 -17.8063,-9.72199 -2.7409,-2.07844 -4.5016,-3.93978 -3.9112,-4.1366 z m -176.8142,14.56971 c 3.1885,-0.18048 5.8538,0.13909 6.0486,0.7233 0.1915,0.57433 0.967,0.8062 1.7229,0.51607 2.1325,-0.81827 17.0712,4.56509 23.4486,8.45016 5.1978,3.16646 9.7307,7.28361 13.4544,12.21903 1.7963,2.38127 1.0849,2.32998 -10.9615,-0.8087 -11.5487,-3.00906 -19.1796,-6.31647 -25.3705,-10.99589 -2.5747,-1.94602 -6.7878,-4.94364 -9.3624,-6.66007 l -4.6812,-3.12079 z m -33.2681,2.14149 c -0.023,-0.28712 0.4646,-0.25206 1.5604,0.18693 1.1443,0.45845 4.6552,1.4907 7.802,2.29389 3.1468,0.80318 6.5362,1.91887 7.5297,2.48082 0.9934,0.56195 2.3098,1.02195 2.9258,1.02195 0.6158,0 4.0646,1.42152 7.6637,3.1573 5.1904,2.50329 7.2432,4.23574 9.9293,8.38109 1.8625,2.87435 3.2183,5.38606 3.013,5.58122 -0.9007,0.85603 -20.9341,-8.92078 -28.981,-14.14311 -6.7039,-4.35079 -11.3747,-8.09875 -11.4429,-8.96009 z m 469.7133,27.82911 c -16.5455,0 -33.6461,9.26687 -40.5907,21.99386 -2.5353,4.64634 -3.0443,6.78564 -3.0557,12.85495 -0.018,9.96457 2.5576,17.60967 9.3502,27.75796 4.3686,6.52692 5.6774,9.35227 5.443,11.74352 -0.266,2.71374 -0.74,3.16074 -3.4295,3.2346 -6.2587,0.17216 -6.7629,0.46198 -8.9581,5.13224 -2.4727,5.2605 -5.8427,8.08305 -11.5201,9.64677 -9.9325,2.73569 -27.9124,18.19337 -33.2153,28.55647 -10.4211,20.36575 -19.5111,68.0127 -21.1852,111.05826 -0.3226,8.29609 -0.8312,18.98916 -1.1317,23.76147 -0.6155,9.77671 0.4807,14.39152 4.1814,17.60926 2.4219,2.10581 2.4516,2.31355 1.0139,7.09085 -0.8148,2.70718 -1.4832,6.98297 -1.4832,9.50051 0,6.55865 -1.5,4.71624 -3.1107,-3.81963 -0.8482,-4.4955 -1.8936,-7.33063 -2.7022,-7.33063 -0.725,0 -4.7442,0.44783 -8.9336,0.99355 -13.6829,1.7826 -70.798,4.14212 -103.1709,4.26258 -11.3593,0.0427 -20.4687,0.25955 -20.2446,0.48362 0.7701,0.77011 31.5472,7.69972 45.5786,10.2624 18.2101,3.32572 51.5056,7.51091 71.258,8.95604 8.5822,0.62791 16.955,1.32343 18.6048,1.54615 1.65,0.22272 18.5022,0.72787 37.4495,1.1215 79.8209,1.65839 162.9107,-5.60212 257.585,-22.50785 33.9506,-6.06245 36.4092,-6.54887 36.4092,-7.1904 0,-0.35785 -1.682,-3.43152 -3.7385,-6.83079 -2.0565,-3.39916 -4.9203,-8.52121 -6.3655,-11.38193 -1.4452,-2.86072 -2.7482,-5.33811 -2.8952,-5.50611 -0.1469,-0.16811 -9.4642,-0.49933 -20.7057,-0.73547 -18.3205,-0.38479 -22.7818,-0.11058 -43.0389,2.64331 -12.4298,1.6898 -24.1533,3.07606 -26.0512,3.07606 -3.0946,0 -3.3779,0.24384 -2.743,2.34267 1.9757,6.5315 9.2258,22.6975 11.0651,24.67171 2.6961,2.89401 1.9122,3.77959 -0.9693,1.09508 -4.1047,-3.82421 -7.3323,-8.85596 -14.3605,-22.38593 -8.8401,-17.01819 -10.5253,-19.26827 -18.4524,-24.65143 -5.2696,-3.5785 -7.5251,-4.45721 -12.3349,-4.80507 -5.9756,-0.43223 -23.0486,1.91866 -49.0751,6.75765 -9.8726,1.83554 -14.7178,2.33684 -15.4536,1.60096 -0.736,-0.73598 -0.018,-4.77033 2.2918,-12.87117 1.9555,-6.85773 3.5776,-15.29832 3.8705,-20.14906 l 0.5039,-8.34842 -9.2202,-6.13391 c -10.526,-7.00389 -22.4333,-16.3184 -21.7439,-17.00789 0.2557,-0.25569 3.8795,1.79144 8.0538,4.54907 29.9577,19.79017 59.4018,34.02524 78.3266,37.86599 3.7312,0.75731 7.2877,2.24073 8.8423,3.68763 6.3141,5.87655 36.6452,14.51281 62.3081,17.74137 13.8235,1.73921 13.9492,1.73713 15.6039,-0.36368 l 1.6681,-2.11912 7.802,2.64945 c 6.3589,2.15938 9.9185,2.67067 19.2448,2.76117 6.2936,0.0614 12.6922,-0.23843 14.2182,-0.6665 2.6752,-0.75055 3.0102,-0.34016 9.3238,11.44289 17.3503,32.3811 19.6201,38.58076 28.9933,79.1636 7.4632,32.31358 8.7747,36.80897 11.7375,40.24319 2.9866,3.46179 7.5869,4.46169 24.4543,5.31304 10.0026,0.50494 13.5151,1.01228 12.6924,1.83471 -0.7437,0.74348 -8.2283,1.1445 -21.6302,1.16218 -23.4084,0.0302 -25.1755,0.47384 -25.1755,6.30452 0,2.01087 0.7159,5.03717 1.5888,6.72517 l 1.5868,3.068 h -3.9436 c -4.2865,0 -10.4407,-2.8076 -12.1723,-5.5529 -0.7823,-1.2402 -0.6999,-2.3418 0.2967,-3.93756 1.3593,-2.17664 1.294,-2.20307 -3.6491,-1.4831 -6.8498,0.99772 -9.7138,2.99806 -9.7138,6.78396 0,5.5199 9.1923,10.2619 23.3124,12.0261 6.8543,0.8564 7.7934,1.7137 4.0614,3.71 -1.4981,0.8014 -4.5088,3.8737 -6.6905,6.8267 -4.4599,6.0364 -6.0717,6.7632 -20.1632,9.1043 -12.7917,2.1252 -17.9379,2.5345 -47.332,3.7608 -37.6374,1.5702 -38.9565,2.2672 -12.469,6.587 19.18,3.128 35.7312,4.822 47.2386,4.8355 6.7129,0.01 9.499,0.5223 13.8627,2.554 5.6063,2.61 6.8849,4.9407 3.6409,6.6378 -1.0012,0.5238 -6.7357,2.7018 -12.7432,4.8396 -12.5171,4.4543 -13.5234,5.0813 -13.5234,8.4257 0,2.7249 2.3973,4.2521 11.1707,7.1194 6.2383,2.0388 11.1475,7.1175 9.6264,9.9597 -1.3541,2.5301 -12.0786,5.0997 -30.6695,7.3468 -20.8269,2.5172 -49.8048,6.9001 -54.8739,8.2998 -9.6456,2.6632 -4.6016,4.7563 16.3558,6.7881 17.7907,1.7247 45.3895,5.3495 47.8094,6.2782 4.3088,1.6534 1.1732,3.1053 -16.4756,7.6293 -12.3366,3.1624 -15.1915,4.4248 -15.1915,6.7169 0,2.6162 11.8535,7.1777 29.9076,11.512 4.1481,0.9959 7.5419,2.1262 7.5419,2.5113 0,0.3851 -1.2873,1.2421 -2.8607,1.9037 -17.9542,7.5489 -20.3346,9.1364 -17.205,11.4754 2.9138,2.1777 11.2055,1.4656 21.5651,-1.853 10.6802,-3.4211 14.1065,-6.2083 14.1065,-11.4753 0,-2.9938 -1.994,-5.0445 -8.2387,-8.4786 -3.9815,-2.1894 -5.0424,-4.6268 -2.9339,-6.7353 0.8771,-0.8771 9.1195,-3.6372 18.3163,-6.1339 22.2143,-6.0305 26.7267,-8.026 23.154,-10.234 -0.5001,-0.309 -10.9157,-1.5378 -23.1459,-2.7307 -22.6284,-2.2071 -30.0376,-3.4679 -30.0376,-5.1098 0,-1.252 3.6639,-1.9157 17.6419,-3.194 15.7937,-1.4442 19.6479,-2.4504 30.7304,-8.0234 9.1463,-4.5994 9.6745,-4.7275 22.8858,-5.5894 47.9663,-3.1295 60.6754,-4.5686 58.6102,-6.6337 -0.2814,-0.2814 -14.2872,-1.6929 -31.1224,-3.137 -42.7357,-3.6658 -59.2496,-6.0498 -59.1996,-8.5476 0.074,-3.7192 3.5113,-4.9079 29.2168,-10.1081 26.3853,-5.3376 36.0931,-8.037 39.597,-11.0061 2.3892,-2.0244 2.3948,-2.0805 0.3941,-3.6266 -3.2131,-2.4832 -8.3285,-3.5713 -24.4929,-5.2034 -15.8366,-1.5992 -24.9663,-3.2935 -24.9663,-4.6365 0,-0.8678 0.3691,-0.9352 23.4059,-4.1591 28.4447,-3.9807 58.7749,-10.9536 58.7749,-13.5132 0,-1.0367 -3.7739,-1.7128 -17.6845,-3.1675 -13.4926,-1.4111 -32.2486,-4.3903 -32.2481,-5.122 2e-4,-0.3297 2.9259,-0.7199 6.5016,-0.8676 7.7756,-0.321 27.4501,-2.8133 34.2617,-4.3399 20.4303,-4.5785 26.505,-13.56416 14.3503,-21.22986 -2.9528,-1.86228 -20.6885,-6.33395 -21.5814,-5.4411 -1.2024,1.20255 3.311,4.72925 8.0783,6.31273 2.7262,0.90545 5.8247,2.6068 6.8857,3.77907 1.8811,2.07866 1.8772,2.16812 -0.1381,3.6429 -1.1367,0.83169 -4.4691,2.21181 -7.4059,3.06597 -5.305,1.54291 -22.4788,4.59579 -23.0422,4.09599 -0.162,-0.1437 2.3131,-1.5371 5.5,-3.0963 3.1869,-1.55925 6.5111,-3.93084 7.3875,-5.26841 1.5334,-2.34039 1.1785,-3.0667 -9.4477,-19.28346 -14.2568,-21.75772 -27.0981,-38.54798 -39.8104,-52.05788 -16.9645,-18.029 -25.9237,-30.84317 -37.1773,-53.17324 -6.9174,-13.72596 -6.9646,-13.87982 -7.1964,-23.18039 -0.2042,-8.2005 -0.6416,-10.15796 -3.517,-15.77059 -3.2028,-6.25157 -7.795,-10.75611 -10.9654,-10.75611 -1.7649,0 -7.6007,-11.54391 -19.7203,-39.00986 -4.2918,-9.72646 -10.4774,-23.30189 -13.747,-30.16763 -12.3764,-25.9894 -14.3315,-30.96581 -12.5481,-31.96374 0.8921,-0.49932 2.5804,-2.87352 3.7506,-5.27642 1.6867,-3.46345 1.9832,-5.44817 1.4304,-9.57167 -1.4181,-10.57687 -9.0357,-22.36565 -14.452,-22.36565 -0.9504,0 -2.6753,-0.50754 -3.8338,-1.12764 -3.032,-1.62261 -7.6805,0.57911 -9.2568,4.3845 -0.7521,1.81598 -2.637,3.64737 -4.5958,4.46584 -6.7398,2.8161 -9.1441,8.61931 -10.549,25.46408 -0.6896,8.26978 -0.7538,8.42374 -3.4926,8.42374 -3.0397,0 -4.8904,1.6871 -11.3636,10.35186 l -4.2363,5.67058 3.8564,3.17166 c 9.6727,7.95114 10.3823,9.37963 1.8305,3.6896 -7.5422,-5.01833 -7.3695,-5.06109 -16.5811,4.05952 -7.1393,7.0688 -17.3609,15.30477 -24.0622,19.38707 -1.6596,1.01061 -1.6659,1.51192 -0.071,7.86896 0.9365,3.73403 1.676,8.86627 1.6417,11.4043 -0.062,4.59505 -0.072,4.58309 -1.9993,-2.57018 -2.4274,-9.00753 -3.9883,-11.08961 -14.1024,-18.8222 -4.4902,-3.43287 -15.2714,-13.02929 -23.9606,-21.32539 -19.8194,-18.9229 -31.9584,-26.38179 -53.5004,-32.87595 -4.2911,-1.29367 -7.2395,-2.38345 -6.5525,-2.42194 2.9564,-0.16738 13.1045,2.33893 23.92,5.90838 6.4052,2.11392 11.9412,3.55094 12.3002,3.19195 0.3591,-0.359 -0.9703,-3.15564 -2.9521,-6.21318 -1.9817,-3.05765 -3.8973,-6.84618 -4.2566,-8.41958 l -0.6521,-2.86072 h 7.7065 c 9.9936,0 12.5012,-1.75472 12.8813,-9.01086 0.1449,-2.76814 0.538,-7.97018 0.8736,-11.56076 0.5914,-6.32656 0.7376,-6.59162 4.6793,-8.60245 2.2369,-1.14127 4.0655,-2.4985 4.0655,-3.0152 0,-0.5167 -1.6684,-3.12454 -3.708,-5.79656 -4.9928,-6.54086 -8.2299,-12.92068 -7.0949,-13.98259 0.5063,-0.47373 4.4313,-1.63227 8.7224,-2.57433 14.4551,-3.17343 23.768,-9.376 19.1494,-12.75331 -3.4251,-2.50444 -9.9005,-3.60972 -19.373,-3.30981 l -9.2769,0.29263 -2.8933,-5.29276 c -4.8857,-8.93409 -7.1772,-11.49345 -12.7839,-14.28738 -4.0251,-2.00584 -7.005,-2.69002 -11.7171,-2.69002 z m 319.6126,11.54442 c 23.7391,-0.25621 68.0822,1.067 76.1729,2.76117 3.163,0.66234 2.6169,0.8475 -4.1611,1.41414 -20.5459,1.71747 -92.6078,-1.06305 -86.7766,-3.3483 1.228,-0.48133 6.8518,-0.7415 14.7648,-0.82701 z m -647.6002,5.28464 c 33.9397,0.10299 56.116,1.01218 62.1597,2.62094 l 2.5926,0.69084 -3.1127,0.93457 c -6.6474,1.99689 -217.9835,1.52961 -212.2075,-0.46926 1.1443,-0.39592 12.6132,-1.02133 25.4864,-1.38979 12.8733,-0.36846 24.5763,-0.87621 26.0066,-1.12754 1.4304,-0.25143 29.0494,-0.74192 61.3755,-1.09113 13.7653,-0.14866 26.3861,-0.20306 37.6994,-0.16863 z m 702.8906,18.52157 c 14.6919,0.0177 31.309,0.3643 40.6475,1.02809 7.7239,0.54895 15.0968,1.01436 16.3841,1.03413 1.2873,0.0208 2.3406,0.50473 2.3406,1.07688 0,1.62707 -74.2879,0.80714 -89.4626,-0.98742 -0.925,-0.10944 -0.5171,-0.60065 1.0017,-1.20691 1.63,-0.65058 14.3966,-0.96225 29.0887,-0.94477 z m 115.264,3.58402 c 9.3326,-0.0416 20.589,0.39447 27.3292,1.33486 4.5001,0.62791 4.5604,0.68138 1.5604,1.39385 -5.7774,1.37211 -43.1124,0.3668 -44.6703,-1.20285 -0.9589,-0.9661 6.448,-1.48446 15.7807,-1.52586 z m -928.2498,11.75986 c 16.5822,-0.0385 32.9719,0.22615 33.9061,0.8269 1.164,0.74858 0.2387,1.17904 -3.6409,1.69657 -6.3959,0.85343 -55.2532,0.788 -62.4158,-0.0832 -4.1864,-0.50921 -4.7515,-0.79248 -2.9034,-1.45273 1.6989,-0.60689 18.4718,-0.94872 35.054,-0.98742 z m 124.3947,12.77162 c 17.9862,0.0104 49.2809,1.60231 53.8093,2.73891 2.3816,0.59773 2.4574,0.76688 0.7781,1.70665 -3.9136,2.19017 -118.6455,1.51702 -120.8717,-0.70915 -0.3435,-0.34339 -0.4202,-0.82929 -0.1706,-1.07885 0.7677,-0.76772 48.272,-2.66796 66.4549,-2.65756 z m 678.4363,1.36337 c 7.3697,-0.3048 18.7001,-0.30314 33.6379,0.0198 29.063,0.62926 47.8608,1.7673 56.3184,3.40936 l 4.0169,0.7802 -3.6409,0.82076 c -4.1567,0.93801 -44.6798,1.91929 -52.5333,1.27193 -2.8607,-0.23582 -14.5486,-1.13128 -25.9741,-1.99116 -11.4255,-0.85989 -21.1906,-1.98025 -21.6993,-2.48894 -0.9045,-0.90596 2.5046,-1.51764 9.8744,-1.82243 z m 64.0147,20.74638 c 11.71,0.0354 24.6073,0.5557 28.3981,1.52991 l 2.6006,0.66837 -2.6006,0.73963 c -5.3936,1.53667 -47.9035,0.20462 -49.6645,-1.55634 -0.9657,-0.96578 9.5566,-1.41663 21.2664,-1.38157 z m 74.9498,4.02488 c 7.1998,-0.0843 11.703,0.26214 11.703,0.90211 0,1.18798 -14.1215,1.18798 -19.765,0 -2.4634,-0.51846 0.1438,-0.80953 8.062,-0.90211 z m -965.3924,1.74525 c 7.6817,-0.0104 14.1887,0.40497 12.2516,1.23739 -1.1443,0.49173 -9.3364,0.88807 -18.2046,0.87767 -9.8044,-0.0104 -15.0331,-0.34495 -13.3427,-0.85531 2.7591,-0.83283 11.6141,-1.25434 19.2957,-1.25975 z m 456.4803,9.67933 c 0.5305,0 1.6545,0.30594 3.0843,0.92042 1.3719,0.58952 1.5491,0.91336 0.5201,0.95081 -0.8582,0.0312 -2.2625,-0.39614 -3.1207,-0.95081 -0.9508,-0.61448 -1.014,-0.92042 -0.4837,-0.92042 z m -374.9436,1.49132 c 17.011,0.0281 34.1818,0.33632 36.8217,0.90004 l 4.161,0.88994 -3.1208,0.95288 c -3.8996,1.19152 -51.6382,1.93094 -65.1891,1.00979 -10.7444,-0.73037 -13.3383,-1.63384 -8.5314,-2.97245 1.997,-0.55613 18.8475,-0.80839 35.8586,-0.7802 z m 731.3637,11.18491 c 7.2291,-0.0541 14.7677,-0.0104 22.1991,0.14824 44.3447,0.94237 63.061,1.9664 67.546,3.69584 2.0128,0.77625 1.9485,0.91616 -0.9692,2.13535 -6.3579,2.65693 -103.0059,1.89224 -125.3232,-0.99148 -4.8483,-0.62644 -9.5295,-1.18038 -10.4027,-1.22927 -0.8732,-0.0489 -0.1844,-0.5244 1.532,-1.0565 4.8332,-1.49839 23.7309,-2.54105 45.418,-2.70218 z m 147.1262,7.89539 c 9.1018,-0.0156 17.2509,0.19796 18.1091,0.4754 0.8582,0.27733 2.9647,0.85759 4.6812,1.28815 3.0543,0.76626 3.021,0.80007 -1.5604,1.57059 -4.7033,0.79112 -14.0271,0.90701 -20.8053,0.26007 -2.0025,-0.1912 -7.0824,-0.62947 -11.2905,-0.97327 -13.1075,-1.07116 -6.8034,-2.59078 10.8659,-2.62094 z m -342.3217,0.1138 c 0.7233,0 4.7494,7.1388 8.9458,15.86401 4.1964,8.7252 14.0115,28.73726 21.811,44.47124 l 14.1797,28.60723 -11.0346,5.49383 c -6.0693,3.02093 -11.9727,5.43361 -13.117,5.36183 -1.1443,-0.0718 -4.6117,-1.45137 -7.7064,-3.06586 -3.0949,-1.61439 -10.8189,-4.41904 -17.1644,-6.23346 -24.5419,-7.01751 -37.1737,-11.24213 -38.9571,-13.02566 -0.2283,-0.22833 1.9059,-4.29337 4.7421,-9.0353 2.8363,-4.74194 8.827,-15.41046 13.3122,-23.70656 4.4851,-8.29609 9.8941,-16.95628 12.0199,-19.24486 5.6366,-6.06827 6.2664,-7.71417 4.5328,-11.83705 -0.8059,-1.9171 -1.4668,-3.67597 -1.4668,-3.9091 0,-1.12889 8.755,-9.74029 9.9028,-9.74029 z m -411.3814,11.44289 c 0.6059,0 0.8109,0.46812 0.4572,1.04026 -0.3536,0.57215 -0.8488,1.04027 -1.1012,1.04027 -0.2523,0 -0.4592,-0.46812 -0.4592,-1.04027 0,-0.57214 0.4973,-1.04026 1.1032,-1.04026 z m -194.265,0.67253 c 15.5404,0.14418 18.5986,0.51608 17.0465,2.06825 -1.1424,1.14252 -38.5772,1.63457 -40.1862,0.52835 -2.646,-1.81921 5.7179,-2.75815 23.1397,-2.5966 z m 855.4862,1.3227 c 11.3221,0.20919 23.011,0.88859 27.8901,1.90576 l 3.1208,0.65016 -3.1208,0.7233 c -3.1667,0.73245 -34.8501,0.95922 -40.5703,0.29054 -1.7164,-0.20066 -6.1635,-0.67086 -9.8825,-1.0464 -6.4768,-0.65412 -6.6083,-0.72236 -3.1208,-1.6071 3.406,-0.86404 14.3614,-1.12556 25.6835,-0.91626 z m -770.53,0.20514 c 11.137,0.15135 21.9091,0.7338 23.4242,1.62749 1.9928,1.17549 1.9554,1.27578 -0.8879,2.35682 -7.1119,2.70406 -52.6856,1.89203 -52.6856,-0.93863 0,-0.44784 2.0421,-1.38615 4.5369,-2.08469 2.974,-0.83263 14.4752,-1.11235 25.6124,-0.96099 z m 113.669,15.58563 c -12.3236,0.0218 -18.9868,0.70103 -18.9868,1.98711 0,1.45366 3.9192,2.28858 14.4925,3.08823 12.2846,0.92895 41.0929,0.39884 45.3226,-0.83502 l 3.1208,-0.91023 -4.161,-1.28202 c -2.3933,-0.73682 -13.2748,-1.52201 -25.6145,-1.84896 -5.3285,-0.14117 -10.0657,-0.20629 -14.1736,-0.19911 z m 3.1574,1.1135 c 0.1186,0 0.3133,0.0843 0.5811,0.24987 0.6606,0.4083 1.2008,1.18247 1.2008,1.72091 0,0.53833 -1.0533,0.92604 -2.3406,0.85946 -1.7812,-0.0915 -1.9011,-0.23551 -0.506,-0.5994 1.0082,-0.26308 1.5213,-0.98377 1.1398,-1.60107 -0.2062,-0.33361 -0.2577,-0.53864 -0.1686,-0.60543 0.023,-0.0166 0.054,-0.025 0.094,-0.0239 z m -122.1801,1.40997 c 8.509,0.0583 17.3208,0.56081 19.4155,1.45678 l 3.1208,1.33487 -2.6006,1.06877 c -2.7781,1.14304 -23.7495,2.01436 -28.0871,1.16623 -8.084,-1.58057 -10.6478,-2.61948 -9.4396,-3.82587 0.8768,-0.87549 9.0819,-1.25945 17.591,-1.20078 z m 846.3676,0.85541 c 17.2922,-0.199 36.6299,0.33621 46.3486,1.74119 3.719,0.53771 7.4417,0.98825 8.2713,0.99969 1.0377,0.0146 1.1721,0.35577 0.4328,1.09509 -0.591,0.59097 -8.993,1.54385 -18.672,2.11704 -32.1928,1.9067 -73.7095,-0.0291 -70.4533,-3.28536 1.5345,-1.53449 16.7804,-2.46875 34.0726,-2.66765 z m -931.5656,13.01951 c 2.8065,0 5.7235,0.0988 8.4074,0.26621 5.368,0.33527 9.8004,0.95808 10.5388,1.69646 0.7555,0.75554 -0.6075,1.45127 -4.4739,2.28171 -11.19,2.40322 -35.4671,2.23032 -37.9676,-0.27026 -0.9106,-0.91054 7.8049,-2.94478 15.7543,-3.67743 2.2386,-0.20639 4.9346,-0.29877 7.741,-0.29669 z m 844.8114,19.62279 c -0.3996,-0.44336 -8.1811,2.9298 -17.2923,7.4952 -29.9745,15.0189 -55.787,24.20827 -98.2277,34.97073 -29.1985,7.40438 -36.4092,9.56033 -36.4092,10.88406 0,0.81848 15.1458,31.08722 15.9655,31.90684 0.6972,0.69718 29.4731,-9.00639 42.088,-14.19189 30.6297,-12.59051 51.7639,-25.88902 71.7193,-45.13149 4.1481,-3.99992 7.5419,-6.93408 7.5419,-6.51996 0,0.41413 -1.9557,3.65206 -4.346,7.19654 -8.6441,12.81791 -26.579,29.22661 -42.1347,38.54663 -13.6721,8.19145 -38.1438,18.43221 -59.9187,25.07398 -4.9881,1.52138 -9.0698,3.17551 -9.0698,3.67546 0,1.43878 12.1559,16.36021 20.8418,25.58599 4.359,4.63 9.4886,10.36445 11.4002,12.74322 1.9116,2.37877 4.3114,4.32562 5.3335,4.32562 2.8137,0 43.8044,-7.93127 56.682,-10.96749 22.5914,-5.32635 37.2812,-9.8465 39.1318,-12.04021 2.6223,-3.10841 8.8506,-23.18881 10.6688,-34.39983 3.5435,-21.84854 0.9468,-41.12669 -9.082,-67.42402 -2.291,-6.00751 -4.4929,-11.28591 -4.8924,-11.72938 z m -101.706,0.47748 c -7.4849,0.0239 -14.5009,0.28618 -18.353,0.83305 -9.3356,1.32519 -11.4089,2.65527 -5.6036,3.59411 1.8595,0.30074 4.5512,0.75668 5.9816,1.01384 5.5087,0.99043 43.1989,-0.19079 46.2917,-1.45065 l 3.1207,-1.27183 -2.6006,-1.07074 c -2.0694,-0.85333 -11.2987,-1.42256 -21.2949,-1.59493 -2.4991,-0.0437 -5.047,-0.0614 -7.5419,-0.053 z m -644.2357,1.13982 c 4.2168,0.12244 6.8673,0.42755 8.7854,0.94071 6.2159,1.66307 7.0466,3.32666 2.4685,4.94728 -9.9811,3.53357 -57.0031,1.07813 -57.0031,-2.9765 0,-1.6096 5.5405,-2.16344 27.567,-2.75503 8.1813,-0.21981 13.9653,-0.279 18.1822,-0.15646 z m 628.2802,0.75378 c 0.606,0 1.1012,0.46811 1.1012,1.04026 0,0.57214 -0.2049,1.04026 -0.4571,1.04026 -0.2524,0 -0.7496,-0.46812 -1.1032,-1.04026 -0.3536,-0.57215 -0.1467,-1.04026 0.4591,-1.04026 z m 189.6062,19.14531 c -6.7351,-0.0354 -13.4782,0.12379 -19.8218,0.51805 -19.5558,1.21575 -23.3446,1.8035 -22.7701,3.52722 0.8312,2.4933 16.1208,5.79863 36.8379,7.96446 20.6864,2.1627 56.1172,-0.1807 59.8985,-3.96195 3.7759,-3.77594 -20.6872,-7.30649 -47.4275,-7.94823 -2.2283,-0.053 -4.472,-0.0874 -6.717,-0.0999 z m -859.3201,16.39225 c -2.1708,0.0291 -4.4739,0.0863 -6.9161,0.17476 -24.9075,0.89775 -55.6541,5.87759 -55.6541,9.01492 0,0.86706 2.42,1.70905 10.5163,3.65923 1.4927,0.35952 6.8761,1.02237 11.9631,1.47301 13.151,1.16499 17.6178,1.17144 35.7753,0.0447 17.3641,-1.07751 32.4336,-3.87509 35.0682,-6.50976 1.49,-1.49007 1.3281,-1.82722 -1.7981,-3.7283 -5.0238,-3.05515 -13.7598,-4.32927 -28.9546,-4.1285 z m 80.6488,1.76762 c -9.8531,-0.0135 -19.8974,0.19598 -23.8488,0.63799 -10.5995,1.18579 -8.5739,4.39303 3.901,6.17656 5.6265,0.80443 38.3475,-0.29429 44.7313,-1.50152 10.2027,-1.92948 9.7493,-2.93291 -2.0806,-4.61002 -3.1877,-0.4519 -12.8498,-0.68939 -22.7029,-0.70301 z m 12.4182,2.70634 c 0.1094,0.0198 0.2116,0.0884 0.3006,0.20722 0.3562,0.47707 1.0712,1.21867 1.5889,1.64778 0.5178,0.42911 -0.058,0.7802 -1.28,0.7802 -1.5994,0 -2.0442,-0.46146 -1.5889,-1.64778 0.2609,-0.6796 0.6508,-1.04744 0.9794,-0.98742 z m -7.4607,0.9041 c 0.166,-0.0167 0.3665,0.0385 0.5811,0.1707 0.5721,0.35369 1.0403,0.84886 1.0403,1.10123 0,0.25226 -0.4682,0.45917 -1.0403,0.45917 -0.5721,0 -1.0403,-0.49527 -1.0403,-1.10123 0,-0.37865 0.1824,-0.60231 0.4592,-0.62987 z m 779.8111,3.966 c -2.1978,-0.0146 -4.3243,0.0208 -6.3147,0.11786 -21.3964,1.04026 -21.0825,6.13131 0.5202,8.43383 2.2885,0.24415 10.4806,0.28888 18.2046,0.10194 13.3503,-0.32393 21.8455,-1.68117 21.8455,-3.4906 0,-2.40987 -18.8709,-5.05703 -34.2556,-5.16272 z m -466.9601,5.25624 c 0.1771,-0.0333 0.2004,0.0895 0.043,0.38594 -2.1501,4.0384 -15.332,15.51926 -21.5754,18.79183 -7.8851,4.13327 -13.1433,5.74797 -7.7856,2.39135 11.219,-7.02885 18.8094,-12.52653 24.3181,-17.61737 2.5539,-2.36015 4.4688,-3.85324 5.0003,-3.95175 z m -352.1697,13.31412 c -1.265,0 -14.8619,28.77575 -18.9055,40.00944 -6.4257,17.85112 -8.1086,26.49987 -8.119,41.65119 -0.01,17.21542 1.6914,24.16177 10.039,41.09039 3.5266,7.1518 6.5548,13.29976 6.7291,13.66156 0.3949,0.81983 -12.2745,5.33482 -22.6622,8.07632 -10.3325,2.7268 -26.1846,5.9362 -39.0099,7.8974 -19.6169,2.9998 -34.8488,6.0228 -34.8488,6.9182 0,1.9737 37.3219,-0.05 60.8716,-3.3017 23.1751,-3.1993 27.5508,-3.5519 27.5508,-2.2227 0,0.6326 -2.0989,3.5148 -4.665,6.4042 -7.8879,8.8813 -7.504,12.7122 1.9769,19.7162 5.9846,4.421 8.7056,7.9977 7.2067,9.4741 -0.4822,0.4748 -4.8567,3.0463 -9.7199,5.7133 -4.8633,2.6671 -9.2148,5.1993 -9.6713,5.6279 -1.5301,1.4365 1.5256,6.0115 5.5102,8.2511 2.1702,1.2197 8.324,3.8062 13.6758,5.7478 17.7985,6.4576 18.5175,7.2264 10.5103,11.2215 -20.4573,10.2068 -22.4313,13.8392 -10.047,18.4727 16.2288,6.072 68.969,7.1501 98.2093,2.0074 19.6211,-3.4508 11.5098,-6.139 -26.1225,-8.6533 -21.9376,-1.4658 -33.1725,-3.0658 -33.1725,-4.7238 0,-1.9578 18.9095,-4.2496 81.6607,-9.9008 70.9894,-6.3934 90.9971,-8.7379 93.461,-10.9533 1.4362,-1.2913 -7.6868,-1.957 -35.7265,-2.6067 -14.5896,-0.3381 -28.1651,-0.7945 -30.1676,-1.0138 -2.0025,-0.2192 -12.5351,-0.6673 -23.4059,-0.9956 -33.9643,-1.0256 -67.3649,-3.2621 -70.0593,-4.6913 -2.5072,-1.3299 38.8439,-3.4292 92.9451,-4.7198 14.8758,-0.3548 37.3454,-1.0992 49.9326,-1.6518 46.5131,-2.0424 57.1447,-2.2331 60.0752,-1.0769 3.2603,1.2861 3.7152,3.0235 1.0403,3.9721 -1.0013,0.3551 -2.5227,1.2445 -3.3809,1.9749 -0.8582,0.7303 -5.6564,2.8088 -10.6627,4.6202 -9.2368,3.3423 -11.1231,5.3242 -7.741,8.1311 2.1534,1.7872 11.636,3.9402 25.6997,5.8353 20.4393,2.754 31.6655,5.213 30.7284,6.7292 -0.5863,0.9486 -0.2306,0.8612 -21.1953,5.1972 -15.3177,3.1679 -17.8694,4.2208 -17.8694,7.3732 0,4.6765 25.1134,9.0461 68.6574,11.9449 14.574,0.9702 20.9869,1.8165 20.092,2.6514 -2.3685,2.2098 -27.6432,5.3831 -53.5268,6.721 -36.7559,1.9 -57.2513,5.3852 -54.0854,9.1999 2.5328,3.0518 12.5869,4.8583 44.3493,7.9665 21.6926,2.1229 39.7986,4.6064 40.7856,5.5934 2.2486,2.2488 -4.3782,3.9556 -24.751,6.3778 -21.2959,2.5319 -28.3424,5.1825 -24.8769,9.3583 2.2413,2.7004 17.9248,5.9863 37.4495,7.8446 16.8845,1.6069 31.2079,4.9865 31.2079,7.3652 0,0.5027 -0.3511,0.9203 -0.7802,0.9203 -0.4291,0 -7.2729,0.96 -15.2098,2.1252 -13.7414,2.0174 -22.4997,4.8454 -22.4997,7.2676 0,3.223 11.3798,6.3665 27.5669,7.6152 v 0 c 19.1218,1.475 47.7366,-0.1892 57.2104,-3.328 9.1962,-3.0469 6.4883,-7.162 -5.9307,-9.015 -2.6919,-0.4015 -5.668,-1.2983 -6.6155,-1.9911 -3.3969,-2.484 0.7846,-4.4077 13.8059,-6.3512 13.5865,-2.0278 15.8516,-2.6595 18.3041,-5.112 2.3146,-2.3147 1.2318,-4.3667 -3.8176,-7.2371 -5.0132,-2.8498 -8.8163,-3.8342 -28.3553,-7.3326 -7.9384,-1.4213 -15.838,-2.9908 -17.5544,-3.4886 -2.7113,-0.7866 -2.8477,-0.989 -1.0403,-1.534 1.1443,-0.345 10.0385,-1.1433 19.765,-1.7757 33.7064,-2.1916 53.2867,-4.964 55.7129,-7.8873 2.6308,-3.1699 -0.4433,-4.1304 -24.5985,-7.6903 -16.8878,-2.4889 -29.3413,-5.0992 -30.0863,-6.3046 -0.7043,-1.1396 3.2511,-1.821 15.096,-2.6026 14.1621,-0.9347 38.9082,-3.4134 46.8118,-4.6893 20.9723,-3.3855 23.9261,-4.3085 23.9261,-7.4709 0,-4.4167 -12.3322,-6.5268 -44.2112,-7.5662 -19.0726,-0.6219 -32.0885,-1.986 -36.8684,-3.8644 -2.5956,-1.02 -2.607,-1.0671 -0.4612,-1.8937 2.7686,-1.0667 34.4302,-2.8281 64.3764,-3.5819 37.6772,-0.9483 69.0323,-3.2359 87.9022,-6.4102 14.3171,-2.4085 18.1519,-4.1444 13.7835,-6.2416 -1.0012,-0.4807 -29.4394,-0.9043 -63.196,-0.9407 -51.2609,-0.056 -63.5394,-0.3545 -74.5047,-1.8123 -18.2591,-2.4276 -22.2485,-4.2001 -17.0831,-7.5846 3.6108,-2.3659 21.6976,-5.1986 49.2845,-7.7187 34.0839,-3.1134 54.2664,-6.5875 54.2664,-9.3401 0,-2.8769 -15.914,-4.8659 -50.2741,-6.2842 -14.402,-0.5944 -33.4327,-1.5385 -42.2911,-2.0988 -8.8585,-0.5604 -17.9868,-1.0485 -20.2852,-1.0849 -3.1786,-0.05 -3.6812,-0.2656 -2.0987,-0.9021 2.3187,-0.9327 9.6634,-1.9502 41.6105,-5.7581 102.3264,-12.1969 138.1602,-17.1787 140.5187,-19.5374 0.2675,-0.2674 -27.2611,-0.76 -61.1743,-1.0952 -56.144,-0.5548 -117.1652,-2.3136 -118.2608,-3.4092 -0.2408,-0.2414 -0.2176,-0.6603 0.053,-0.9305 0.2702,-0.2703 20.8278,-1.4402 45.6842,-2.5987 127.2747,-5.9319 139.5648,-7.3363 157.1814,-17.96691 3.2341,-1.95164 11.0568,-5.11664 17.3837,-7.03395 6.327,-1.91731 11.6902,-3.98816 11.9183,-4.60191 0.2941,-0.79102 -4.0916,-21.30064 -4.9432,-23.11745 -0.04,-0.0853 -2.6478,0.261 -5.7946,0.76802 -9.7733,1.57486 -37.9055,4.04746 -58.1451,5.11196 -24.6784,1.30137 -28.4806,1.30095 -27.6766,0 0.3537,-0.57215 2.3722,-1.03954 4.484,-1.04027 9.9578,0 67.7588,-8.30171 81.2056,-11.65822 l 4.5471,-1.13576 -0.5771,-4.86812 c -1.0726,-9.05663 -6.0988,-29.61972 -9.4131,-38.51209 l -3.2956,-8.84224 -4.1468,0.14626 c -2.2806,0.0801 -14.6794,2.0436 -27.5527,4.36224 -94.8948,17.09173 -170.7052,23.8189 -256.4248,22.75367 -67.4336,-0.83793 -110.5331,-5.21213 -162.281,-16.46746 -42.7577,-9.30006 -91.8211,-25.91555 -121.2455,-41.06188 -4.8942,-2.51921 -9.2491,-4.58163 -9.6773,-4.58163 z m -79.4034,0.4754 c -19.0687,0.0811 -40.0142,1.41683 -41.4052,2.80787 -0.995,0.99491 6.3858,3.20339 13.5112,4.0433 10.4624,1.23323 57.5509,0.45875 64.2362,-1.0566 3.2899,-0.74566 5.9815,-1.69469 5.9815,-2.10892 0,-1.8421 -13.6968,-3.2942 -34.3286,-3.63895 -2.5851,-0.0437 -5.2709,-0.0582 -7.9951,-0.0468 z m 889.0306,3.72216 c -7.4264,-0.0395 -17.9868,1.6123 -21.1587,3.3098 -1.8644,0.99782 -1.8767,1.13056 -0.1829,2.07845 0.9952,0.55696 3.9961,1.38178 6.6682,1.83263 7.3829,1.24624 32.4183,1.20067 36.9843,-0.0666 3.5554,-0.98721 3.8542,-1.30438 2.5051,-2.6535 -1.9313,-1.93135 -15.834,-4.45253 -24.816,-4.50038 z m 19.7467,5.29275 c 0.3617,0.0156 0.6725,0.11162 0.8452,0.28452 0.3457,0.34567 -0.2687,0.59128 -1.3653,0.54655 -1.2118,-0.0499 -1.4596,-0.29783 -0.6298,-0.62988 0.3755,-0.15021 0.7882,-0.21637 1.1499,-0.20119 z m -16.6442,1.04027 c 0.3617,0.0156 0.6725,0.11162 0.8452,0.28451 0.3457,0.34568 -0.2687,0.59128 -1.3653,0.54655 -1.2118,-0.0499 -1.4596,-0.29782 -0.6298,-0.62988 0.3755,-0.15021 0.7882,-0.21637 1.1499,-0.20118 z m -441.9329,1.63352 16.3374,0.70301 c 18.4783,0.79487 27.6119,1.6924 26.6832,2.62302 -0.3479,0.3486 -9.6143,0.868 -20.5919,1.15407 l -19.96,0.52013 -5.1344,3.4052 c -2.824,1.87206 -7.4957,4.10436 -10.3823,4.96164 -2.8866,0.85728 -7.8247,1.79299 -10.9714,2.07844 l -5.7215,0.51805 5.3354,-1.52585 c 6.368,-1.82254 11.0802,-4.37597 18.7207,-10.14454 z m -445.8746,10.15484 c -2.5634,0.0281 -5.1673,0.19474 -7.7429,0.50786 -15.6412,1.9018 -18.6075,4.33228 -7.7127,6.31887 5.9967,1.09342 31.7969,0.44616 36.2894,-0.91023 l 3.1208,-0.94071 -3.8116,-1.66203 c -3.4175,-1.48872 -7.8122,-2.50267 -12.6416,-2.98868 -2.4148,-0.243 -4.9378,-0.35327 -7.5014,-0.32508 z m 7.9179,1.62333 c 1.7021,-0.0104 2.6879,0.55592 2.6879,1.54417 0,0.85821 -0.039,1.51493 -0.087,1.45876 -0.048,-0.0562 -1.2577,-0.75034 -2.6881,-1.54407 l -2.6006,-1.44461 z m -19.9133,1.02403 c 0.6059,0 1.1012,0.49527 1.1012,1.10123 0,0.60585 0.4681,0.81286 1.0403,0.45917 0.5721,-0.35359 1.0402,-0.21814 1.0402,0.30064 0,0.51888 -1.5214,0.94892 -3.3808,0.94892 -1.8595,0 -2.5545,-0.19536 -1.5463,-0.44096 1.0082,-0.24561 1.5662,-0.87923 1.2394,-1.408 -0.3269,-0.52887 -0.1,-0.961 0.506,-0.961 z m 109.2885,0.0614 c 0,-0.40747 6.2026,2.36431 13.7835,6.15825 18.708,9.36258 37.7893,16.64109 61.532,23.47301 6.8085,1.95924 12.6222,3.80445 12.9179,4.1001 2.0765,2.07647 -21.194,-3.71416 -39.4365,-9.81343 -17.7056,-5.91982 -48.7969,-21.15936 -48.7969,-23.91793 z m 719.2585,35.47453 c -3.6581,-0.0957 -9.6769,1.07625 -21.4514,3.42964 -9.8966,1.97806 -28.2939,5.02749 -40.881,6.77596 -12.5872,1.74837 -24.3955,3.42631 -26.2423,3.7283 l -3.3585,0.54853 4.5673,5.60764 c 2.5121,3.08417 8.6237,11.69599 13.5804,19.1372 l 9.0108,13.52955 5.3821,0.54448 c 2.9603,0.29907 9.8294,0.80787 15.2648,1.1317 17.1423,1.02154 27.0945,2.7413 29.7144,5.13432 3.7964,3.46761 4.0173,6.15701 0.8209,9.95563 -3.3466,3.97734 -2.6094,6.05984 2.8546,8.07612 4.4119,1.6282 16.5523,0.8417 20.785,-1.34697 3.7258,-1.92667 3.834,-4.2191 0.4389,-9.22214 -3.3698,-4.9657 -3.2733,-7.39637 0.5201,-13.10284 1.7115,-2.57465 3.1167,-5.99535 3.1167,-7.60089 0,-2.47863 -0.732,-3.24499 -4.8742,-5.07731 -4.3288,-1.91482 -7.8749,-2.24739 -31.468,-2.95019 -15.8721,-0.4729 -28.8957,-1.35307 -32.3111,-2.18414 -5.4067,-1.31562 -5.5212,-1.4081 -2.0805,-1.68023 2.0025,-0.15833 13.9395,-1.24904 26.5267,-2.42391 26.2894,-2.45367 37.5241,-2.69564 70.6302,-1.52181 17.7555,0.62957 23.6316,0.54313 23.0849,-0.34131 -0.4032,-0.65245 -2.795,-1.18652 -5.3151,-1.18652 -4.2951,0 -31.4965,-4.06868 -53.3582,-7.98079 l -9.6915,-1.73308 5.5304,-1.72091 c 11.5605,-3.59348 12.7472,-6.03383 6.4895,-13.34459 -2.3303,-2.72237 -3.6278,-4.08574 -7.2859,-4.18144 z m -299.2382,44.87767 c 0.1517,0.0811 0.2459,0.26443 0.2459,0.53022 0,3.36265 -61.0788,12.56721 -97.2645,14.6572 -17.6612,1.02008 -25.2052,1.35099 -61.8957,2.71238 -24.1234,0.89504 -60.8863,1.13784 -73.8586,0.48757 -6.5797,-0.32987 -10.5587,-0.73006 -8.8423,-0.88786 1.7165,-0.15792 3.823,-0.42464 4.6812,-0.59327 0.8582,-0.16862 10.6887,-0.62155 21.8455,-1.00572 11.1568,-0.38417 22.1576,-0.91543 24.4462,-1.18247 2.2886,-0.26703 17.7365,-0.96172 34.3287,-1.54417 16.5922,-0.58244 32.9763,-1.29429 36.4092,-1.58067 3.4328,-0.28639 19.2014,-1.45336 35.0398,-2.59255 15.8383,-1.13919 34.329,-2.75305 41.0904,-3.5861 6.7613,-0.83293 19.055,-2.25601 27.319,-3.16344 8.2641,-0.90752 15.4029,-1.88287 15.864,-2.1679 0.2306,-0.14252 0.4397,-0.16416 0.5912,-0.0832 z m -489.7829,8.18999 c -4.2645,-0.0281 -10.1063,0.0229 -17.3553,0.14834 -14.4983,0.25101 -34.6292,0.80506 -59.039,1.6356 l -18.7247,0.63591 8.8422,1.30637 c 4.8632,0.71871 11.885,1.48456 15.6039,1.70062 20.6489,1.19942 70.2233,-0.94747 79.5802,-3.44587 l 3.1207,-0.83304 -4.1346,-0.82483 c -0.9418,-0.18766 -3.6289,-0.29491 -7.8934,-0.3231 z m 594.5427,10.73176 c 1.0421,0.0655 1.2437,0.21367 0.5527,0.447 -7.0902,2.39396 -16.0972,4.43423 -25.7384,5.82714 -15.4579,2.23324 -57.108,1.58578 -51.2411,-0.79653 0.8583,-0.34849 8.5822,-1.1498 17.1644,-1.77978 8.5821,-0.62999 21.4554,-1.57725 28.6072,-2.10487 11.2252,-0.82816 19.7185,-1.34808 25.0597,-1.54417 2.6707,-0.0978 4.5534,-0.11453 5.5955,-0.0489 z m -379.6634,7.27581 c -2.0563,0.87757 -42.137,3.6379 -68.1372,4.69335 -27.037,1.09759 -39.9915,1.06794 -75.9392,-0.17882 -28.702,-0.99542 -34.3894,-2.67254 -9.8825,-2.91357 10.2986,-0.1009 19.4269,-0.31707 20.2851,-0.48153 2.5725,-0.49298 134.8008,-1.60034 133.6738,-1.11943 z m -229.8981,2.74692 -17.1643,0.47134 c -34.9526,0.95944 -68.0475,2.80361 -74.6389,4.15908 -2.0861,0.429 -2.3406,1.1054 -2.3406,6.2192 v 5.7356 l 4.9413,-0.5506 c 2.7176,-0.3035 12.3853,-1.2773 21.4818,-2.1638 20.5613,-2.0037 46.6959,-6.832 58.6529,-10.83533 z m 325.1654,31.24842 c 11.9464,0.061 22.5125,0.3359 29.6028,0.8737 9.9946,0.7581 18.0247,1.5271 17.8429,1.7088 -0.1816,0.1817 -6.6206,1.3211 -14.3076,2.5335 -11.875,1.8729 -19.4502,2.2518 -50.3857,2.5194 -45.1555,0.3907 -75.4777,-1.2604 -70.8354,-3.8583 3.9966,-2.2366 52.2441,-3.9619 88.083,-3.7771 z m 446.9555,9.8155 c -11.0912,0.047 -21.2003,0.4695 -24.4319,1.3003 -5.5777,1.4341 -6.7437,2.5633 -3.8136,3.6877 2.0299,0.7789 18.509,2.6303 26.9594,3.0293 16.5806,0.7831 42.6508,-1.6373 42.6508,-3.9598 0,-0.5722 -2.8087,-1.6704 -6.2416,-2.4402 -4.4273,-0.9928 -17.4676,-1.5467 -30.3261,-1.6153 -1.6074,-0.01 -3.2126,-0.01 -4.797,0 z m -796.7723,5.2297 c -18.3319,0 -33.0439,1.3158 -48.9858,4.2099 -9.5726,1.7377 -11.2799,3.3993 -4.8194,4.6933 6.0203,1.2058 59.9399,0.021 72.7738,-1.599 26.7015,-3.3703 26.971,-5.8363 0.7497,-6.8775 -7.0947,-0.2817 -13.6077,-0.427 -19.7183,-0.4267 z m -41.8625,6.6297 c 0.2523,0 0.4572,0.4682 0.4572,1.0403 0,0.5721 -0.4953,1.0403 -1.1012,1.0403 -0.6059,0 -0.8128,-0.4682 -0.4592,-1.0403 0.3537,-0.5721 0.8508,-1.0403 1.1032,-1.0403 z m 439.4725,12.855 c 6.0947,-0.2011 12.5988,-0.2298 18.7004,0 9.4404,0.3586 18.8027,1.0555 20.8052,1.5481 3.4647,0.8521 3.5151,0.9267 1.0403,1.5462 -1.4304,0.3582 -7.1447,1.1291 -12.7006,1.7128 -9.5082,0.9989 -36.7287,1.2466 -42.4333,0.386 -1.4304,-0.2159 -4.6451,-0.6575 -7.1458,-0.9813 -11.1341,-1.4419 3.4497,-3.6105 21.7338,-4.2139 z m -448.4224,9.791 c -6.8385,0.06 -12.2538,0.306 -14.8034,0.7843 l -3.8766,0.7273 v 6.201 6.201 l 5.4614,-0.573 c 3.0038,-0.3149 8.5041,-0.8076 12.2231,-1.0951 31.3619,-2.4239 51.1189,-4.7233 60.1584,-6.9994 4.7692,-1.201 4.7975,-1.231 1.8104,-2.0298 -7.1391,-1.9093 -40.458,-3.3984 -60.9733,-3.2163 z m 322.3881,33.6725 c -16.1354,-0.077 -33.4987,0.7695 -43.2928,2.5824 -7.025,1.3003 -3.3767,2.9583 9.9109,4.5064 10.1539,1.1834 50.551,1.2184 58.6224,0.051 3.7928,-0.5488 8.2399,-1.5247 9.8825,-2.1678 2.8276,-1.1073 2.8691,-1.2126 0.8066,-2.0074 -4.8864,-1.8834 -19.7942,-2.8869 -35.9296,-2.9644 z m -251.8188,12.6883 c -4.2151,-0.031 -8.5031,0 -12.7026,0.096 -16.7981,0.3708 -32.1955,1.7009 -35.9764,3.7649 -1.387,0.7571 -1.387,0.9088 0,1.3613 5.1085,1.6669 13.4248,2.922 23.926,3.6105 20.0149,1.3121 26.961,1.3478 42.1307,0.2153 16.0084,-1.1953 25.8078,-2.8333 24.9784,-4.1753 -0.295,-0.4773 -5.0997,-1.7315 -10.6769,-2.7855 -7.0384,-1.3301 -19.0342,-1.9944 -31.6792,-2.0867 z m -18.1254,2.879 c 0.1416,0.051 0.399,0.2739 0.7843,0.6563 0.711,0.7058 1.0314,1.5448 0.7111,1.8651 -0.3203,0.3202 -0.9036,-0.2581 -1.2943,-1.284 -0.2822,-0.7413 -0.3925,-1.1416 -0.3047,-1.2292 0.022,-0.022 0.056,-0.025 0.104,-0.01 z m 22.9589,1.2821 c 0.1661,-0.017 0.3665,0.038 0.5811,0.1707 0.5722,0.3536 1.0403,0.8489 1.0403,1.1012 0,0.2524 -0.4681,0.4592 -1.0403,0.4592 -0.5721,0 -1.0402,-0.4954 -1.0402,-1.1013 0,-0.3787 0.1823,-0.6023 0.4591,-0.6298 z m 539.3682,13.7855 c -1.6375,-0.01 -3.3486,0 -5.1322,0 -21.4866,0.091 -32.0757,1.2986 -30.7122,3.5048 0.6493,1.0505 6.2458,2.0879 17.1888,3.1858 11.3372,1.1375 35.9726,-0.1525 42.3907,-2.2187 8.9307,-2.8749 0.828,-4.396 -23.7351,-4.4759 z m 3.1045,4.7177 c 0.3617,0.016 0.6724,0.1116 0.8452,0.2845 0.3457,0.3457 -0.2687,0.5913 -1.3653,0.5466 -1.2118,-0.05 -1.4596,-0.2977 -0.6298,-0.6299 0.3754,-0.1502 0.7882,-0.2164 1.1499,-0.2012 z m -16.5588,0.01 c 0.4713,0 0.9427,0.073 1.3003,0.2174 0.7152,0.2886 0.1301,0.5242 -1.3003,0.5242 -1.4304,0 -2.0155,-0.2356 -1.3003,-0.5242 0.3575,-0.1442 0.8289,-0.2174 1.3003,-0.2174 z m -411.5378,2.1842 c -15.8999,0.022 -31.5149,0.7262 -41.4967,2.2593 -5.7214,0.8787 -10.7537,1.6138 -11.1828,1.6315 -0.4291,0.018 -0.7802,0.441 -0.7802,0.9387 0,1.2339 11.0132,3.3181 22.3656,4.2342 27.7662,2.2404 91.8477,-0.7702 88.2152,-4.1449 -2.6639,-2.4747 -20.6632,-4.1606 -41.3242,-4.7177 -5.1652,-0.1392 -10.497,-0.2083 -15.7969,-0.2011 z" /></g></svg>
