<?xml version="1.0" encoding="UTF-8" standalone="no"?>
<!-- Created with Inkscape (http://www.inkscape.org/) -->

<svg
   width="1080"
   height="1080"
   viewBox="0 0 285.74997 285.74997"
   version="1.1"
   id="svg1"
   inkscape:version="1.4.2 (f4327f4, 2025-05-13)"
   sodipodi:docname="71.svg"
   xml:space="preserve"
   xmlns:inkscape="http://www.inkscape.org/namespaces/inkscape"
   xmlns:sodipodi="http://sodipodi.sourceforge.net/DTD/sodipodi-0.dtd"
   xmlns="http://www.w3.org/2000/svg"
   xmlns:svg="http://www.w3.org/2000/svg"><sodipodi:namedview
     id="namedview1"
     pagecolor="#ffffff"
     bordercolor="#000000"
     borderopacity="0.25"
     inkscape:showpageshadow="2"
     inkscape:pageopacity="0.0"
     inkscape:pagecheckerboard="0"
     inkscape:deskcolor="#3c3c3c"
     inkscape:document-units="px"
     inkscape:zoom="0.41041912"
     inkscape:cx="140.10068"
     inkscape:cy="533.60087"
     inkscape:window-width="1920"
     inkscape:window-height="991"
     inkscape:window-x="-9"
     inkscape:window-y="-9"
     inkscape:window-maximized="1"
     inkscape:current-layer="layer1" /><defs
     id="defs1"><inkscape:path-effect
       effect="rough_hatches"
       id="path-effect2"
       is_visible="true"
       lpeversion="1.2"
       direction="142.18593,136.03417 , 0.067763613,2.6211248"
       dist_rdm="75;1"
       growth="0"
       do_bend="true"
       bender="142.18593,141.03417 , 5,0"
       bottom_edge_variation="5.676525;1"
       top_edge_variation="5.676525;1"
       bottom_tgt_variation="0;1"
       top_tgt_variation="0;1"
       scale_bf="1"
       scale_bb="1"
       scale_tf="1"
       scale_tb="1"
       top_smth_variation="0;1"
       bottom_smth_variation="0;1"
       fat_output="true"
       stroke_width_top="1"
       stroke_width_bottom="1"
       front_thickness="1"
       back_thickness="0.25" /><inkscape:path-effect
       effect="fillet_chamfer"
       id="path-effect1"
       is_visible="true"
       lpeversion="1"
       nodesatellites_param="C,0,0,1,0,45.584779,0,1 @ F,0,0,1,0,37.379523,0,1 @ F,0,0,1,0,82.964302,0,1 @ F,0,0,1,0,0,0,1"
       radius="0"
       unit="px"
       method="auto"
       mode="F"
       chamfer_steps="1"
       flexible="false"
       use_knot_distance="true"
       apply_no_radius="true"
       apply_with_radius="true"
       only_selected="false"
       hide_knots="false" /></defs><g
     inkscape:label="Capa1"
     inkscape:groupmode="layer"
     id="layer1"
     style="display:inline;opacity:1;mix-blend-mode:multiply"><g
       id="g12"
       transform="matrix(1.2073903,0,0,1.2073903,-20.129126,8.7045487)"
       style="stroke-width:0.828232"><path
         id="path10"
         style="font-weight:bold;font-size:87.6007px;line-height:0px;font-family:Dubai;-inkscape-font-specification:'Dubai, Bold';text-align:center;letter-spacing:0px;word-spacing:0.0219002px;text-anchor:middle;fill:#ff00ff;stroke-width:1.09568;stroke-linecap:round;stroke-linejoin:round;stroke-miterlimit:4.7"
         d="m 199.65343,77.181844 c 0,0 -24.55699,0.543621 -24.67395,0.838709 v 5.16e-4 5.17e-4 5.17e-4 c 2e-5,0.21207 2.41095,0.297205 5.86321,0.30179 -1.33341,0.06985 -2.37841,0.144795 -2.99723,0.218591 -1.0979,0.0657 -1.75623,0.124774 -1.78646,0.1726 -1e-4,1.91e-4 -4.3e-4,0.0014 -5.1e-4,0.0015 v 5.17e-4 5.17e-4 5.16e-4 c 1.3e-4,0.80284 29.4241,-0.03984 28.54502,-0.245463 0.95849,0.22421 -33.11676,1.19984 -33.11684,1.85415 -1.3e-4,1.021293 34.0618,0.131533 40.62077,-0.225826 0.0793,-0.01453 0.92342,-0.03635 1.16066,-0.05219 0.003,-3.34e-4 0.0119,-7.01e-4 0.015,-0.001 0.0178,-0.0019 0.034,-0.0033 0.0491,-0.0052 8.8e-4,-2.35e-4 0.002,-2.86e-4 0.002,-5.17e-4 0.002,-2.05e-4 0.003,-3.12e-4 0.005,-5.16e-4 0.0307,-0.0163 1.30621,-0.04572 1.26763,-0.06098 -2.44719,-0.96795 -41.96125,0.16342 -41.96126,0.31316 2e-5,-0.33267 35.30001,-1.343361 33.11632,-1.854151 -1.16789,-0.273191 -4.064,-0.40793 -7.58662,-0.449585 4.93219,-0.196679 8.55365,-0.387911 7.69566,-0.501778 -1.30099,-0.172656 -3.73775,-0.261531 -6.67815,-0.289904 0.29814,-0.01056 0.46096,-0.01654 0.46096,-0.01654 z m 13.67875,2.860807 c -0.0126,0.0016 -0.0268,0.0031 -0.0413,0.0047 0.0206,-0.0016 0.0359,-0.0032 0.0413,-0.0047 z m -0.0413,0.0047 c -0.003,2.29e-4 -0.004,2.85e-4 -0.008,5.17e-4 -4.7e-4,3.3e-5 -0.001,4.83e-4 -0.002,5.17e-4 0.003,-3.61e-4 0.006,-6.75e-4 0.009,-10e-4 z m -0.009,10e-4 c -0.003,1.81e-4 -0.0107,3.33e-4 -0.0134,5.16e-4 -0.13826,0.0147 -0.3505,0.03151 -0.65888,0.04961 0.31399,-0.0189 0.53442,-0.03536 0.67231,-0.05013 z m -0.67231,0.05013 c -0.0724,0.0042 -0.42075,-0.0018 -0.50178,0.0026 -0.0727,0.01333 -0.16217,0.02701 -0.26716,0.04082 0.28704,-0.01534 0.54443,-0.0299 0.76894,-0.04341 z m 3.81631,1.137398 c -1.1202,-0.567134 -24.34343,-0.03481 -35.00561,0.3545 -1.58134,0.106953 -6.43993,0.222846 -6.43992,0.307992 3e-5,0.306616 3.63985,0.417949 8.73176,0.41031 -5.59788,0.233106 -9.6821,0.457592 -9.68209,0.614433 1e-5,0.335944 5.03757,0.412426 11.62926,0.349333 -6.99653,0.305488 -12.42559,0.624227 -12.42559,0.877982 -3e-5,1.1961 44.64933,-0.0826 44.48565,-0.203605 0.46393,0.34303 -45.48815,1.658539 -45.48818,2.113049 -9e-5,0.93664 45.94945,-0.378348 45.7693,-0.536918 0.35068,0.30869 -47.38821,1.675037 -47.38832,2.261877 -2e-4,1.06882 52.27829,-0.42709 52.13738,-0.58291 0.28442,0.3145 -49.182,1.730579 -49.182,2.410189 0,0.905475 32.15821,0.184646 46.25815,-0.29714 -13.6779,0.508714 -44.20199,1.441 -44.20195,1.701188 3e-5,0.277938 5.46683,0.305268 12.67106,0.202572 -9.38028,0.377125 -17.01494,0.769312 -17.01498,1.052649 -5e-5,0.351869 4.41495,0.475826 10.68462,0.460953 -6.08833,0.238112 -10.35078,0.452283 -10.35079,0.581877 -4e-5,0.316466 6.29416,0.34555 14.59756,0.233061 V 92.01918 c -5.29473,0.148022 -13.77229,0.20109 -13.77229,0.219108 1e-5,-0.247719 18.51056,-0.876783 33.29926,-1.415417 6.90113,-0.204607 12.97162,-0.440886 15.5515,-0.622701 1.59676,-0.08218 2.50633,-0.148826 2.47582,-0.195337 -0.1593,-0.242848 -4.36622,-0.296624 -10.20299,-0.239779 7.98143,-0.309692 14.05048,-0.607252 13.91594,-0.792716 -0.72989,-1.00614 -52.75182,0.482191 -52.75181,0.606681 -3e-5,-0.35815 49.7499,-1.782299 49.182,-2.410189 -0.99295,-1.09787 -52.13736,0.36591 -52.13738,0.58291 3e-5,-0.26533 48.09283,-1.641767 47.38832,-2.261877 -0.65208,-0.573952 -13.36739,-0.489861 -25.22947,-0.230993 12.27758,-0.450091 25.4222,-0.994798 24.94835,-1.345138 -1.51076,-1.11698 -44.48617,0.113145 -44.48617,0.203605 -2e-5,-0.39187 43.43852,-1.635429 42.92192,-1.938899 -0.57938,-0.34033 -9.01669,-0.296368 -18.18958,-0.116272 7.45899,-0.19845 14.15752,-0.477601 15.78405,-0.68678 1.02876,-0.05754 1.58446,-0.105482 1.51722,-0.139526 z m -35.00561,0.3545 c 0.0793,-0.0054 0.15962,-0.01062 0.24132,-0.01602 -0.15187,0.0061 -0.3016,0.01207 -0.44958,0.01809 0.0625,-0.0023 0.14482,2.49e-4 0.20826,-0.0021 z m 43.53842,9.813354 c -0.23147,-0.409552 -15.14737,0.122559 -29.65814,0.471289 h 1.90893 c 3.09376,0 5.81269,0.494986 8.15712,1.48518 11.52575,-0.422088 21.83397,-0.83246 21.72943,-1.036629 -0.15956,-0.311579 -6.24013,-0.348675 -14.27975,-0.246497 5.53087,-0.199832 9.67605,-0.40766 10.72544,-0.563789 0.92418,-0.04716 1.43109,-0.08456 1.41697,-0.109554 z m -18.66553,2.383316 c 0.54802,0.274411 1.07333,0.578608 1.57665,0.912089 9.78107,-0.227678 17.81236,-0.482925 17.79478,-0.523999 0.0607,0.141787 -7.73257,0.453338 -17.39015,0.801502 0.75619,0.538043 1.45919,1.146133 2.10943,1.824178 0.18979,0.181728 0.37566,0.368913 0.55707,0.561722 6.03055,-0.197355 11.03863,-0.406151 13.13408,-0.56689 1.42354,-0.07329 2.2283,-0.133021 2.21434,-0.174666 -0.0313,-0.09326 -0.69731,-0.157792 -1.85209,-0.197921 2.86432,-0.13304 4.86474,-0.255541 5.56555,-0.3545 0.93106,-0.04649 1.44316,-0.08308 1.43454,-0.107487 -0.0553,-0.156666 -2.91729,-0.198722 -7.3582,-0.163298 1.31711,-0.07058 2.05686,-0.129299 2.04121,-0.171566 -0.0455,-0.122771 -1.23339,-0.194865 -3.22409,-0.226342 1.40737,-0.07706 2.42365,-0.148893 2.93471,-0.211874 0.99509,-0.05115 1.54419,-0.09232 1.53324,-0.120406 -0.0877,-0.224932 -5.04122,-0.242515 -11.9171,-0.14366 6.70936,-0.293973 11.46526,-0.575821 11.37708,-0.781865 -0.21166,-0.494515 -9.6904,-0.511578 -20.53105,-0.355017 z m -20.08197,0.04806 c -7.4624,0.313788 -12.97801,0.611968 -12.97802,0.820105 -1e-5,0.365153 5.52018,0.454391 12.97802,0.40411 v -0.847493 c -6.86349,0.18515 -11.8184,0.361053 -11.8184,0.41031 -1e-5,-0.09862 4.95116,-0.308465 11.8184,-0.565856 z m 0,1.834514 c -5.93687,0.208692 -10.61245,0.418825 -12.27212,0.576192 -1.15995,0.06039 -1.81177,0.108897 -1.81178,0.142627 -10e-6,0.120617 1.27893,0.186508 3.4432,0.209289 -0.82593,0.05337 -1.43502,0.10339 -1.78542,0.149345 -0.96646,0.04937 -1.50326,0.0892 -1.50326,0.116272 -2e-5,0.145345 2.0048,0.205225 5.23223,0.204122 -2.58179,0.120976 -4.41299,0.232553 -5.1511,0.324011 -0.97787,0.04931 -1.52135,0.08841 -1.52136,0.114722 -2e-5,0.142059 2.19227,0.194442 5.73454,0.182418 -0.36784,0.02529 -0.57235,0.0473 -0.59066,0.06459 l -5.2e-4,5.17e-4 -5.2e-4,5.17e-4 v 5.16e-4 5.17e-4 c 3e-5,0.20253 3.47889,0.251806 8.58552,0.206706 -7.9627,0.290878 -13.90868,0.554025 -13.90871,0.692981 -5e-5,0.297955 6.64653,0.307635 15.54996,0.184485 z m 24.77006,1.736328 c 0.27066,0.2865 0.52988,0.590118 0.77721,0.911572 10.98574,-0.272871 19.86861,-0.541298 19.86184,-0.564307 0.0498,0.168777 -8.90111,0.525909 -19.58589,0.936894 0.0563,0.07902 0.11191,0.159329 0.16692,0.240295 11.14004,-0.449942 20.66914,-0.903185 20.57859,-1.210262 -0.14386,-0.487734 -10.02954,-0.49949 -21.79867,-0.314192 z m 1.59577,2.109431 c 0.19705,0.324363 0.38492,0.662538 0.56327,1.014928 8.71583,-0.32695 15.37913,-0.61941 15.3417,-0.774632 -0.083,-0.343987 -7.11271,-0.361068 -15.90497,-0.240296 z m -26.36583,0.221692 c -5.62974,0.266116 -9.45476,0.508176 -9.45472,0.687816 6e-5,0.32128 3.86375,0.44297 9.45472,0.4439 v -0.77101 c -4.95844,0.14315 -8.2946,0.2622 -8.29459,0.29403 -2e-5,-0.0882 3.30585,-0.24934 8.29459,-0.453198 z m 27.15493,1.257806 c 0.13584,0.2908 0.2657,0.59053 0.38964,0.89917 9.74597,-0.23911 17.33893,-0.47148 17.33434,-0.49455 0.0306,0.15342 -7.5898,0.46826 -17.20464,0.82683 0.0296,0.0778 0.059,0.15671 0.0879,0.23564 10.12928,-0.40406 18.33261,-0.8137 18.27641,-1.09554 -0.0908,-0.45541 -8.46462,-0.50214 -18.8836,-0.37155 z m -27.15493,0.26872 c -8.15745,0.32485 -14.26423,0.62907 -14.26425,0.82372 -3e-5,0.34136 6.04235,0.40113 14.26425,0.32194 v -0.83922 c -7.62397,0.21521 -13.10411,0.41771 -13.10411,0.48421 0,-0.0837 5.5345,-0.29912 13.10411,-0.56896 z m 27.81845,1.3534 c 0.17284,0.48504 0.33215,0.99074 0.47801,1.51619 9.68125,-0.26375 17.15273,-0.51185 17.14417,-0.56793 0.0184,0.12059 -7.52613,0.41335 -17.08888,0.76998 0.0209,0.0779 0.0412,0.15633 0.0615,0.23513 10.08855,-0.40463 18.22524,-0.79111 18.18751,-1.03818 -0.0454,-0.29725 -4.27076,-0.39661 -10.46344,-0.37259 2.25904,-0.10583 3.90175,-0.20539 4.64778,-0.2899 1.03723,-0.0536 1.6122,-0.097 1.60714,-0.12661 -0.0455,-0.26616 -6.35801,-0.2611 -14.57379,-0.12609 z m -27.81845,0.63665 c -6.40331,0.25686 -10.8686,0.4744 -10.86859,0.59945 2e-5,0.17732 1.93411,0.26537 5.05757,0.28836 -3.40661,0.13662 -5.94307,0.26526 -7.09569,0.36897 -1.18304,0.0601 -1.84639,0.10849 -1.8464,0.14159 -3e-5,0.25078 6.26512,0.24329 14.75311,0.11265 z m 28.5936,2.05879 c 0.0644,0.28314 0.12503,0.57193 0.18241,0.86558 7.40759,-0.19127 12.8805,-0.37676 12.8757,-0.41909 0.0122,0.1079 -5.38167,0.33682 -12.83745,0.61753 0.0138,0.0732 0.0274,0.14682 0.0408,0.22066 8.03732,-0.33658 13.98139,-0.65398 13.95677,-0.87126 -0.0445,-0.39268 -6.17134,-0.47678 -14.21825,-0.41342 z m -28.5936,0.1385 c -6.31039,0.28951 -10.68826,0.55576 -10.68824,0.75189 4e-5,0.34418 4.41872,0.462 10.68824,0.45268 v -0.79633 c -5.64758,0.15256 -9.52811,0.28326 -9.5281,0.31058 -3e-5,-0.0998 3.84772,-0.28365 9.5281,-0.51212 z m 28.92639,1.55701 c 0.047,0.28016 0.0913,0.56456 0.13229,0.85369 8.57106,-0.31417 15.04506,-0.5802 15.03423,-0.7028 -0.0247,-0.27902 -6.53162,-0.28127 -15.16652,-0.15089 z m -28.92639,0.43718 c -8.42125,0.3337 -14.7536,0.6345 -14.75362,0.81494 -5e-5,0.33492 6.30871,0.38026 14.75362,0.27492 v -0.85215 c -1.13038,0.034 -2.21703,0.0678 -3.2489,0.10077 1.03236,-0.0371 2.11909,-0.0757 3.2489,-0.11575 z m 29.15687,1.16634 c 0.0342,0.28279 0.0658,0.56999 0.0946,0.86093 7.84739,-0.19999 13.61243,-0.38663 13.61054,-0.41858 0.007,0.12131 -5.7453,0.36853 -13.5878,0.65835 0.0304,0.32749 0.0575,0.66022 0.0811,0.99788 5.37457,-0.18305 9.70644,-0.3647 11.75742,-0.50798 1.55941,-0.0786 2.45041,-0.1423 2.44843,-0.18604 -0.0109,-0.23859 -4.90002,-0.27086 -11.7905,-0.18397 7.15525,-0.30682 12.26453,-0.60069 12.25197,-0.81132 -0.0237,-0.39699 -6.40298,-0.47895 -14.86576,-0.40927 z m -29.15687,0.0749 c -7.85261,0.33209 -13.62138,0.65326 -13.62139,0.88263 -3e-5,0.38345 5.76988,0.47908 13.62139,0.42892 v -0.8413 c -7.253,0.18654 -12.46074,0.35314 -12.46074,0.37879 0,-0.12048 5.2068,-0.35294 12.46074,-0.6289 z m 0,1.93425 c -6.13048,0.21712 -10.83993,0.4357 -12.23957,0.59789 -1.02093,0.0527 -1.58801,0.0944 -1.58801,0.12299 -2e-5,0.2406 5.87527,0.2408 13.82758,0.11421 z m 29.38425,0.52916 c 0.0165,0.27225 0.0307,0.54762 0.0429,0.82631 7.74984,-0.28041 13.41225,-0.5226 13.409,-0.64027 -0.007,-0.26204 -5.69918,-0.28442 -13.45189,-0.18604 z m -29.38425,0.32298 c -8.22125,0.32626 -14.34226,0.63539 -14.34228,0.83561 -3e-5,0.35653 6.13391,0.42292 14.34228,0.3359 v -0.85732 c -7.61919,0.21658 -13.18163,0.41762 -13.18163,0.48835 0,-0.0903 5.55154,-0.31102 13.18163,-0.5824 z m 29.43231,0.61805 c 0.0227,0.5459 0.0371,1.10387 0.0434,1.67432 6.54642,-0.20098 11.80126,-0.41686 13.64982,-0.59377 1.20152,-0.0656 1.87607,-0.11975 1.87585,-0.15864 -9.1e-4,-0.20912 -5.03482,-0.23828 -12.04578,-0.16278 6.42075,-0.2223 11.2873,-0.44547 12.66745,-0.6134 1.00152,-0.0518 1.55747,-0.0935 1.55701,-0.12196 -0.004,-0.2439 -7.76121,-0.20053 -17.74775,-0.0238 z m -29.43231,0.64699 c -8.60826,0.31346 -15.11482,0.5987 -15.11484,0.74827 -4e-5,0.24481 4.9693,0.28817 12.0742,0.21188 -3.06851,0.11988 -5.26101,0.2356 -6.14175,0.33538 -0.52492,0.0403 -1.60817,0.0921 -1.60817,0.12144 3e-5,0.21971 4.44108,0.27043 10.79056,0.21755 z m 29.47881,1.53944 c 1.2e-4,0.0494 5.2e-4,0.0993 5.2e-4,0.14883 0,0.2443 -0.002,0.48621 -0.006,0.72657 8.44247,-0.2216 14.76578,-0.43067 14.76654,-0.46767 -0.002,0.11748 -6.3347,0.37652 -14.77067,0.68161 -0.008,0.34701 -0.0203,0.69016 -0.0367,1.02888 6.3811,-0.22245 11.42805,-0.44625 13.15785,-0.60617 1.15674,-0.0586 1.80488,-0.10562 1.80609,-0.13746 0.009,-0.24777 -5.25653,-0.26383 -12.55634,-0.15399 7.8227,-0.323 13.55658,-0.63268 13.56093,-0.84646 0.008,-0.40631 -6.90214,-0.47011 -15.92203,-0.37414 z m -29.47881,0.26407 c -7.52627,0.30928 -12.97853,0.59978 -12.97854,0.7953 0,0.34897 5.44657,0.43114 12.97854,0.37465 v -0.8232 c -6.92429,0.19506 -11.81737,0.36959 -11.81737,0.41547 0,-0.0911 4.89782,-0.29556 11.81737,-0.54777 z m 0,1.7973 c -4.84373,0.17675 -8.65268,0.34755 -10.38593,0.47853 -1.39183,0.0698 -2.18075,0.12592 -2.18075,0.16381 0,0.21114 3.62992,0.26148 9.03821,0.21136 -5.95296,0.2404 -10.01644,0.45308 -10.01644,0.58497 -2e-5,0.30748 5.69637,0.35407 13.54491,0.26252 z m 29.42714,0.16692 c -0.0183,0.35565 -0.0414,0.7067 -0.0693,1.05316 9.57476,-0.3563 17.11026,-0.68059 17.1204,-0.85266 0.0203,-0.34506 -7.4379,-0.3504 -17.05115,-0.2005 z m -0.11214,1.54099 c -0.0274,0.28966 -0.0582,0.5763 -0.0925,0.85938 0.65821,-0.0193 1.30065,-0.0388 1.92495,-0.0579 -0.62423,0.0219 -1.26734,0.0443 -1.9265,0.0672 -0.009,0.073 -0.0175,0.14605 -0.0269,0.21859 8.00976,-0.31391 13.93333,-0.59982 13.94902,-0.77308 0.0309,-0.3413 -5.90483,-0.39812 -13.8281,-0.31419 z m -29.315,0.34985 c -6.70139,0.28228 -11.40759,0.53946 -11.40757,0.71158 2e-5,0.32257 4.74578,0.41279 11.40757,0.37362 v -0.8046 c -6.04532,0.1803 -10.24642,0.34125 -10.24641,0.39739 -1e-5,-0.075 4.1689,-0.24842 10.24641,-0.47129 z m 29.15067,1.05833 c -0.0422,0.30322 -0.0881,0.60219 -0.13849,0.89762 9.83687,-0.27154 17.43832,-0.53913 17.44751,-0.61443 -0.0118,0.0968 -7.73486,0.37806 -17.46405,0.70952 -0.0638,0.36681 -0.13388,0.72788 -0.21032,1.08262 7.23687,-0.19573 12.57905,-0.37011 12.58372,-0.40101 -0.0177,0.11725 -5.30616,0.34895 -12.63437,0.62993 -0.0168,0.0747 -0.0338,0.1491 -0.0512,0.22325 7.93974,-0.33801 13.81285,-0.65876 13.84722,-0.88626 0.0588,-0.3894 -5.4447,-0.49307 -12.86846,-0.43873 9.9516,-0.36839 17.93182,-0.733 17.95859,-0.95239 0.0478,-0.39231 -8.10622,-0.40545 -18.47019,-0.25012 z m -29.15067,0.49196 c -8.36154,0.32062 -14.62648,0.61071 -14.6265,0.7767 -4e-5,0.31446 6.18869,0.35037 14.6265,0.24649 z m 0,1.40198 c -4.0567,0.15434 -7.10905,0.3082 -8.29252,0.43098 -1.09037,0.0566 -1.69861,0.102 -1.6986,0.13333 3e-5,0.22266 4.10367,0.26456 9.99112,0.20774 z m 28.56052,1.13637 c -0.0727,0.28401 -0.14968,0.56397 -0.23099,0.83974 0.81066,-0.0244 1.59524,-0.0484 2.34921,-0.0724 -0.75492,0.0269 -1.5409,0.0547 -2.35283,0.0832 -0.0216,0.0732 -0.0434,0.14597 -0.0656,0.21859 7.74265,-0.30785 13.43429,-0.58686 13.4674,-0.75861 0.0628,-0.32609 -5.52052,-0.38715 -13.16716,-0.31057 z m -28.56052,0.34881 c -8.49677,0.33736 -14.91018,0.64128 -14.9102,0.82373 -5e-5,0.34874 6.42915,0.39423 14.9102,0.29248 V 123.086 c -2.06729,0.0602 -3.99398,0.11974 -5.71232,0.17674 1.71746,-0.0631 3.64383,-0.13197 5.71232,-0.20567 z m 28.10112,1.21957 c -0.0985,0.29701 -0.20203,0.589 -0.31109,0.87591 8.3072,-0.21335 14.48151,-0.408 14.488,-0.43511 -0.0322,0.13458 -6.29159,0.40187 -14.59962,0.72192 -0.0311,0.0784 -0.0626,0.15643 -0.0946,0.23409 8.9077,-0.37415 15.79493,-0.73448 15.85588,-0.98909 0.0984,-0.41119 -6.53643,-0.49125 -15.3386,-0.40772 z m -28.10112,0.29455 c -8.74546,0.34003 -15.42538,0.65539 -15.42542,0.84543 -6e-5,0.34997 6.64508,0.39113 15.42542,0.2899 v -0.86351 c -4.08904,0.11515 -7.64752,0.22962 -10.18749,0.32556 2.5444,-0.10142 6.1073,-0.22894 10.18749,-0.37207 z m 27.28153,1.79938 c -0.096,0.21009 -0.19537,0.41706 -0.29765,0.62115 -0.0416,0.0829 -0.0833,0.16565 -0.12558,0.24753 7.31539,-0.18423 12.68533,-0.35423 12.69277,-0.37879 -0.0386,0.12763 -5.43694,0.36872 -12.83901,0.65681 -0.041,0.0767 -0.0819,0.15315 -0.12351,0.22892 8.03274,-0.34521 14.0512,-0.67739 14.1242,-0.9188 0.12202,-0.40352 -5.65483,-0.50633 -13.43122,-0.45682 z m -27.28153,0.13952 c -7.69364,0.32592 -13.33923,0.62364 -13.33924,0.82476 -1e-5,0.36476 5.69096,0.44758 13.33924,0.39119 v -0.8506 c -7.05574,0.1907 -12.17755,0.37321 -12.17755,0.42633 0,-0.0939 5.084,-0.30442 12.17755,-0.57257 z m 26.31002,1.72703 c -0.18575,0.31792 -0.37759,0.62687 -0.57516,0.92656 10.38976,-0.26455 18.6603,-0.53416 18.67948,-0.58653 -0.0497,0.13568 -8.57026,0.46025 -18.85467,0.84749 -0.0573,0.0839 -0.11485,0.16718 -0.17311,0.2496 10.84289,-0.43154 20.08894,-0.85545 20.18946,-1.13016 0.1609,-0.43973 -8.49071,-0.46175 -19.266,-0.30696 z m -26.31002,0.29197 c -8.76347,0.34976 -15.50342,0.66884 -15.50345,0.86351 -6e-5,0.34598 6.64207,0.38646 15.50345,0.28164 v -0.85525 c -8.27377,0.2363 -14.34175,0.46299 -14.34176,0.54054 1e-5,-0.0787 6.15146,-0.30716 14.34176,-0.60306 z m 24.84499,1.87224 c -0.25238,0.3216 -0.51314,0.63068 -0.78187,0.92707 8.30781,-0.19787 14.86457,-0.41591 14.88695,-0.4656 -0.0554,0.1229 -6.60441,0.38837 -15.1045,0.70073 -0.0767,0.0814 -0.154,0.16194 -0.23203,0.24133 9.13364,-0.36441 16.38682,-0.7266 16.49873,-0.97514 0.19657,-0.43653 -6.64258,-0.51053 -15.26728,-0.42839 z m -24.84499,0.0522 c -5.93091,0.28049 -10.01544,0.54067 -10.01541,0.73846 6e-5,0.34964 4.14161,0.47927 10.01541,0.4842 v -0.79685 c -5.25066,0.13888 -8.85322,0.2579 -8.85321,0.27957 -3e-5,-0.10263 3.55743,-0.28065 8.85321,-0.49971 z m 23.44456,1.52084 c -0.41439,0.40918 -0.84663,0.79079 -1.29656,1.14515 9.72901,-0.35837 17.70596,-0.70372 17.80614,-0.89917 0.18978,-0.37022 -7.18467,-0.38811 -16.50958,-0.24598 z m -23.44456,0.45527 c -8.29013,0.31462 -14.60219,0.59215 -14.60221,0.74052 -4e-5,0.31465 6.3153,0.3404 14.60221,0.22634 z m 21.95731,0.83767 c -0.52425,0.39947 -1.07238,0.76267 -1.64383,1.08934 -0.0493,0.0285 -0.0988,0.0567 -0.14831,0.0848 10.87679,-0.39678 20.39689,-0.78287 20.51348,-0.98547 0.2227,-0.387 -8.36126,-0.36972 -18.72134,-0.18862 z m -21.95731,0.39739 c -8.02196,0.30497 -14.08698,0.58277 -14.087,0.74104 -2e-5,0.31934 6.05102,0.35811 14.087,0.25632 z m 19.53989,1.11466 c -2.54272,1.30932 -5.32244,1.96422 -8.34006,1.96422 h -10.74405 v -0.45578 h -0.45578 v -0.15865 c -6.05574,0.20102 -11.04782,0.40908 -13.22193,0.56844 -1.48322,0.075 -2.33474,0.13642 -2.33474,0.17932 -5e-5,0.20516 3.29901,0.26435 8.24083,0.22996 -4.06377,0.1681 -6.69415,0.31113 -6.69416,0.39894 -2e-5,0.27388 5.07151,0.31644 12.02407,0.23048 -6.44512,0.27968 -11.07012,0.55002 -11.07012,0.74827 -2e-5,0.47081 8.60718,0.50069 18.70221,0.34417 -9.58107,0.34353 -17.6196,0.68317 -17.61959,0.86868 3e-5,0.60899 18.54855,0.29446 31.67351,-0.0811 -14.2828,0.5106 -35.46339,1.24756 -35.46346,1.64382 -2.1e-4,1.07733 50.62296,-0.36677 50.71059,-0.44958 -0.43675,0.4128 -46.40495,1.72422 -46.40491,2.21847 3e-5,0.35434 5.8445,0.41317 13.31236,0.32143 -7.44167,0.31172 -13.26019,0.63193 -13.26017,0.87333 9e-5,1.14967 42.01869,-0.0479 42.26719,-0.21239 -0.51083,0.33804 -42.37057,1.53181 -42.37054,2.05155 8e-5,1.00014 40.92138,-0.16652 41.32874,-0.37465 -0.58885,0.30086 -39.39409,1.40736 -39.39398,1.99988 2e-4,1.07295 29.22039,0.23991 29.52171,0.13332 -0.61126,0.21622 -9.9635,0.57799 -18.80505,0.91932 -5.95862,0.15942 -11.52295,0.38705 -13.73352,0.57568 -1.36398,0.0745 -2.16834,0.13817 -2.16835,0.18603 -10e-5,0.78942 32.56825,-0.13928 33.15715,-0.24029 -2.77032,0.47518 -11.00398,0.87023 -11.00398,0.87023 0,0 7.15697,-0.0439 12.16721,-0.9033 3.3588,-0.57612 -1.32108,-0.73014 -8.12766,-0.67645 5.0096,-0.24655 8.97031,-0.51468 9.67744,-0.76481 3.63711,-1.28653 -29.52177,-0.3414 -29.52171,-0.13281 -8e-5,-0.27222 38.14116,-1.36026 39.39398,-2.00039 1.55296,-0.79349 -18.75511,-0.44593 -31.46681,-0.0625 12.30017,-0.45852 31.81415,-1.15428 32.5086,-1.61386 1.77516,-1.17475 -42.26772,0.0807 -42.2677,0.21239 -3e-5,-0.19924 14.44642,-0.69657 26.92652,-1.15186 6.71235,-0.19075 12.68979,-0.42552 15.29674,-0.61392 1.55348,-0.0803 2.48329,-0.14778 2.54351,-0.19689 0.61332,-0.5001 -15.11185,-0.24931 -28.10164,0.10336 13.10926,-0.48109 29.22304,-1.11482 29.68759,-1.55391 1.3104,-1.23862 -50.71056,0.24503 -50.71059,0.44958 4e-5,-0.27628 47.73159,-1.63786 48.20842,-2.17144 0.44296,-0.49569 -9.89322,-0.45076 -20.70468,-0.23306 12.52531,-0.423 25.36433,-0.88546 25.52712,-1.08727 0.71622,-0.88789 -50.32355,0.56958 -50.32353,0.71623 -1e-5,-0.15517 10.84557,-0.548 22.46477,-0.95446 11.34953,-0.27575 22.97361,-0.69479 25.94829,-0.97049 1.18274,-0.0615 1.8616,-0.1118 1.88722,-0.14727 0.15488,-0.21441 -3.43928,-0.26563 -8.78809,-0.21756 3.11753,-0.13165 5.45863,-0.25713 6.53862,-0.36122 1.1433,-0.059 1.7974,-0.10714 1.82056,-0.14108 0.15375,-0.22537 -3.9902,-0.26552 -10.00663,-0.19637 5.2717,-0.20781 8.87834,-0.38805 8.94778,-0.49557 0.23674,-0.36665 -7.79356,-0.35032 -17.3793,-0.18811 z m -19.53989,0.1633 c -7.29712,0.30027 -12.66951,0.58238 -12.66951,0.77153 0,0.35947 5.43811,0.44292 12.66951,0.37982 v -0.85783 c -6.64401,0.19351 -11.5068,0.37774 -11.50679,0.44442 -1e-5,-0.0817 4.80865,-0.27549 11.50679,-0.51935 z" /><path
         style="font-weight:bold;font-size:87.6007px;line-height:0px;font-family:Dubai;-inkscape-font-specification:'Dubai, Bold';text-align:center;letter-spacing:0px;word-spacing:0.0219002px;text-anchor:middle;fill:#ff00ff;stroke-width:1.09568;stroke-linecap:round;stroke-linejoin:round;stroke-miterlimit:4.7"
         d="m 150.59807,77.052642 c 0,0 -5.53894,0.15864 -5.53894,0.15864 z"
         id="path9" /><path
         style="font-weight:bold;font-size:87.6007px;line-height:0px;font-family:Dubai;-inkscape-font-specification:'Dubai, Bold';text-align:center;letter-spacing:0px;word-spacing:0.0219002px;text-anchor:middle;fill:#ff00ff;stroke-width:1.09568;stroke-linecap:round;stroke-linejoin:round;stroke-miterlimit:4.7"
         d="m 145.05913,125.50539 c 0,0 17.33491,-0.3346 17.33478,-0.98512 -1.7e-4,-0.81398 -16.53393,-0.97721 -16.53377,-0.16323 3e-5,0.36835 12.87634,-0.70571 12.87633,-1.07406 1e-5,-0.78448 -12.30972,-1.26943 -12.30973,-0.48495 -3e-5,-0.17972 12.87601,-0.54745 12.87598,-0.72717 0,-0.50164 -13.67435,-0.55927 -13.67435,-0.0576 1e-5,0.13873 12.87615,-0.91379 12.87615,-1.05252 2e-5,-0.61109 -12.87616,-0.94586 -12.87618,-0.33476 1e-5,0.16043 12.87628,-0.97106 12.87628,-1.1315 2e-5,-0.77676 -9.34883,-1.00332 -9.34885,-0.22654 4e-5,0.1979 12.87628,-0.46832 12.87622,-0.66622 -1e-4,-0.59639 -13.85487,-0.66466 -13.85476,-0.0683 -4e-5,-0.18766 12.87625,-0.55549 12.87621,-0.74316 -4e-5,-0.43668 -14.06059,-0.64106 -14.06054,-0.20436 -5e-5,-0.38883 12.87625,-0.75668 12.87621,-1.14551 -4e-5,-0.66451 -10.53389,-0.85725 -10.53387,-0.19274 -8e-5,-0.31292 12.87656,-0.68081 12.87648,-0.99375 -1.4e-4,-0.71385 -18.23131,-0.85235 -18.23117,-0.13848 2e-5,-0.21138 12.8767,-0.5793 12.87671,-0.79067 8e-5,-0.5423 -9.76187,-0.79263 -9.76195,-0.25032 -4e-5,-0.31396 12.87662,-0.6819 12.87659,-0.99585 -4e-5,-0.57194 -12.28477,-0.88827 -12.28474,-0.31634 -7e-5,-0.4856 12.87693,-0.85358 12.87685,-1.33919 -7e-5,-0.78702 -15.19352,-1.19781 -15.19345,-0.41079 0,0.13292 12.87696,-0.7349 12.87695,-0.8678 3e-5,-0.57896 -10.99831,-0.83544 -10.99834,-0.25649 -5e-5,-0.37027 12.87702,-0.73831 12.87698,-1.10858 -5e-5,-0.60268 -11.66776,-1.13207 -11.66773,-0.52939 -7e-5,-0.32295 12.87686,-0.69105 12.87679,-1.01399 -1e-4,-0.63431 -15.47598,-0.55762 -15.4759,0.0768 1e-5,0.14873 12.87723,-0.57722 12.87721,-0.72594 2e-5,-0.68169 -11.56509,-0.60629 -11.56511,0.0755 4e-5,0.27206 12.87734,-0.49535 12.8773,-0.76741 -4e-5,-0.73796 -14.70409,-0.74846 -14.70404,-0.0103 0,0.24148 12.87742,-0.52795 12.87742,-0.76943 2e-5,-0.51402 -15.01232,-0.90448 -15.01236,-0.39047 4e-5,-0.31709 12.87724,-0.68528 12.87729,-1.00237 9e-5,-0.51505 -9.09586,-0.70169 -9.09595,-0.18665 -6e-5,-0.45332 12.87766,-0.82152 12.87761,-1.27484 -4e-5,-0.79636 -12.15774,-1.25275 -12.15771,-0.45639 -3e-5,-0.17502 12.87751,-0.54327 12.87747,-0.7183 -3e-5,-0.44504 -14.52351,-0.62849 -14.52346,-0.18345 0,-0.0377 12.87741,-1.002878 12.87741,-0.965108 1e-5,-0.56846 -13.44346,-0.53209 -13.44347,0.0363 1e-5,0.156688 12.87777,-0.69991 12.87777,-0.8566 3e-5,-0.64055 -13.90643,-0.72717 -13.90645,-0.0866 1e-5,-0.40903 12.87822,-0.77735 12.87823,-1.18638 9e-5,-0.7877 -9.02102,-1.38723 -9.0211,-0.59953 -7e-5,-0.32515 12.87791,-0.69351 12.87784,-1.01866 -7e-5,-0.60611 -13.08379,-1.03815 -13.08371,-0.43203 -9e-5,-0.49896 12.8781,-0.86737 12.87801,-1.36633 -10e-5,-0.7533 -12.57005,-1.28896 -12.56997,-0.53565 -8e-5,-0.39138 12.87819,-0.75983 12.87811,-1.15121 -8e-5,-0.62303 -11.85021,-1.21489 -11.85011,-0.59186 -1e-4,-0.30944 12.87793,-0.67794 12.87785,-0.98737 -9e-5,-0.43249 -15.7827,-0.6689 -15.7826,-0.23642 -5e-5,-0.47146 12.87823,-0.83998 12.87819,-1.31144 -2e-5,-0.5629 -10.38547,-1.20272 -10.38546,-0.63982 -1.3e-4,-0.5288 12.87837,-0.89737 12.87823,-1.42617 -1.4e-4,-0.83168 -14.98631,-1.04353 -14.98616,-0.21187 4e-5,0.33858 12.87889,-0.64912 12.87884,-0.9877 -3e-5,-0.76653 -16.21939,-1.03003 -16.21936,-0.26351 2e-5,-0.32241 12.87899,-0.69106 12.87903,-1.01348 1.1e-4,-0.68063 -7.12347,-1.21047 -7.12357,-0.52984 -9e-5,-0.34516 12.87875,-0.71385 12.87865,-1.05901 -1.3e-4,-0.72715 -16.19337,-0.81754 -16.19322,-0.0904 1e-5,0.32682 12.87922,-0.75995 12.87921,-1.08677 0,-0.67285 -15.55072,-1.21842 -15.55072,-0.54558 4e-5,-0.44603 12.8792,-0.8148 12.87924,-1.26083 1.2e-4,-0.65118 -8.87203,-1.23388 -8.87215,-0.5827 -6e-5,-0.45399 12.87925,-0.8228 12.87918,-1.27678 -5e-5,-0.79953 -10.97907,-1.16777 -10.97901,-0.36824 0,-0.0244 9.82298,-0.46649 9.82298,-0.46649 0,0 -10.9813,0.15366 -10.98124,0.49965 1.1e-4,0.48719 10.97909,0.85543 10.979,0.36824 0,-0.11731 -12.87928,1.15946 -12.87928,1.27679 4e-5,0.63538 8.87215,1.21809 8.8721,0.58271 -1.1e-4,0.44602 -12.87922,0.8148 -12.87934,1.26083 -1e-4,0.61357 15.55058,1.15915 15.55069,0.54557 -3e-5,0.35903 -12.87925,0.72776 -12.87929,1.08678 0,0.55917 16.19323,0.64956 16.19323,0.0904 4e-5,0.34516 -12.87879,0.71386 -12.87874,1.05901 1.2e-4,0.60557 7.12365,1.13541 7.12353,0.52985 -8e-5,0.3224 -12.87902,0.69107 -12.87911,1.01347 -8e-5,0.51956 16.21928,0.78307 16.21936,0.26352 0,0.0171 -12.87891,1.00477 -12.87891,0.9877 10e-6,0.45431 14.98616,0.66618 14.98614,0.21185 6e-5,0.52879 -12.87839,0.89739 -12.87833,1.42619 1.3e-4,0.72293 10.38552,1.36275 10.3854,0.63982 1e-5,-0.24366 -12.87828,1.06776 -12.87829,1.31142 1e-5,0.85323 15.78261,1.08964 15.78259,0.23643 -4e-5,-0.33649 -12.87798,0.6509 -12.87793,0.98739 1.4e-4,0.66253 11.85021,1.25439 11.85008,0.59185 2e-5,0.39137 -12.87821,0.75984 -12.87819,1.15121 7e-5,0.53214 12.56999,1.06778 12.56992,0.53564 2e-5,0.49896 -12.87812,0.86738 -12.8781,1.36633 8e-5,0.67918 13.08376,1.11121 13.08369,0.43204 1e-5,0.32513 -12.87795,0.69352 -12.87794,1.01865 7e-5,0.49747 9.02113,1.097 9.02106,0.59953 -7e-5,0.40903 -12.87823,0.77737 -12.87831,1.18639 -7e-5,0.6445 13.90638,0.73111 13.90645,0.0866 -3e-5,0.24414 -12.87781,0.61246 -12.87783,0.856598 -4e-5,0.71652 13.44343,0.68016 13.44347,-0.0363 3e-5,-0.35901 -12.87746,0.6061 -12.87748,0.9651 -2e-5,0.83985 14.52344,1.02331 14.52345,0.18346 0,-0.23364 -12.87753,0.48466 -12.87753,0.7183 5e-5,0.48844 12.15771,0.94483 12.15767,0.45638 1e-5,-0.0579 -12.8777,1.21692 -12.8777,1.27486 3e-5,0.76964 9.09597,0.95627 9.09593,0.18662 1e-4,-0.38161 -12.87725,0.62077 -12.87735,1.00238 -1.4e-4,0.77058 15.01218,1.16105 15.01232,0.39047 -2e-5,0.20063 -12.87744,0.56879 -12.87747,0.76942 -3e-5,0.54656 14.70402,0.55704 14.70404,0.0103 0,-0.049 -12.87735,0.71836 -12.87735,0.76741 3e-5,0.60277 11.56515,0.52737 11.56511,-0.0753 -1e-5,0.1789 -12.87724,0.54704 -12.87726,0.72594 -1e-5,0.65009 15.47589,0.57341 15.4759,-0.0768 2e-5,0.32294 -12.87688,0.69105 -12.87686,1.01398 1.1e-4,0.68161 11.66778,1.211 11.66768,0.52939 0,-0.1388 -12.87705,0.96978 -12.87705,1.1086 5e-5,0.70521 10.99838,0.96169 10.99833,0.25647 -3e-5,0.24989 -12.87698,0.61793 -12.87701,0.86782 -3e-5,0.49705 15.19339,0.90783 15.19342,0.41078 0,0.4856 -12.87697,0.8536 -12.87696,1.3392 7e-5,0.71199 12.28478,1.02833 12.28472,0.31632 0,-0.21077 -12.87666,0.78509 -12.87666,0.99586 4e-5,0.74152 9.76198,0.99185 9.76193,0.25033 -5e-5,0.21136 -12.87672,0.57929 -12.87676,0.79065 -8e-5,0.5699 18.23107,0.7084 18.23115,0.1385 4e-5,0.31292 -12.87658,0.68083 -12.87655,0.99374 1.3e-4,0.61915 10.53397,0.81189 10.53386,0.19273 0,-0.27974 -12.87628,0.86577 -12.87629,1.14551 5e-5,0.84686 14.06056,1.05124 14.06052,0.20438 -1e-5,-0.25016 -12.87628,0.49299 -12.87626,0.74315 8e-5,0.68709 13.85484,0.75536 13.85475,0.0683 2e-5,0.14919 -12.87629,0.51702 -12.87627,0.66621 9e-5,0.50665 9.34892,0.7332 9.34883,0.22655 -4e-5,0.38184 -12.87632,0.74965 -12.87636,1.13149 -2e-5,0.67222 12.87613,1.00699 12.87615,0.33477 -3e-5,0.34237 -12.87618,0.71015 -12.87622,1.05253 -2e-5,0.78157 13.67433,0.83921 13.67436,0.0576 1e-5,-0.256 -12.87604,0.47117 -12.87605,0.72717 0,0.49865 12.3097,0.9836 12.3097,0.48496 -4e-5,0.35317 -12.87636,0.72087 -12.87639,1.07405 -2e-5,0.46904 16.53373,0.63227 16.53374,0.16324 5e-5,0.32977 -16.17317,0.95194 -16.17317,0.95194 z"
         id="path8" /><path
         style="font-weight:bold;font-size:87.6007px;line-height:0px;font-family:Dubai;-inkscape-font-specification:'Dubai, Bold';text-align:center;letter-spacing:0px;word-spacing:0.0219002px;text-anchor:middle;fill:#ff00ff;stroke-width:1.09568;stroke-linecap:round;stroke-linejoin:round;stroke-miterlimit:4.7"
         d="m 100.60687,149.78678 c 0,0 14.65526,-0.2577 14.65525,-0.60808 -10e-6,-0.61494 -12.27935,-0.6965 -12.27933,-0.0816 5e-5,0.31071 10.03545,-0.7594 10.0354,-1.07012 7e-5,-0.68978 -13.775602,-1.28373 -13.775672,-0.59396 -1e-5,0.10704 16.715982,-1.15176 16.715982,-1.25877 -5e-5,-0.62686 -11.71237,-0.99627 -11.71232,-0.36941 5e-5,0.21137 7.97284,-0.84936 7.9728,-1.06073 1.1e-4,-0.77555 -11.63521,-1.10978 -11.63533,-0.33423 0,0.13263 16.63818,-0.68315 16.63818,-0.81577 -1e-4,-0.65551 -12.4606,-0.55672 -12.4605,0.0988 1e-4,0.33444 8.79893,-0.49207 8.79885,-0.82651 6e-5,-0.78647 -14.291592,-1.0115 -14.291642,-0.22503 -3e-5,0.18383 18.468712,-0.7315 18.468732,-0.91533 -1.1e-4,-0.62409 -12.82182,-0.72762 -12.82171,-0.10358 6e-5,0.19664 7.32974,-0.58806 7.32968,-0.78471 9e-5,-0.56406 -11.09406,-1.04968 -11.09415,-0.48561 -1e-5,-0.44933 16.74051,-0.9269 16.74049,-1.37623 -1.4e-4,-0.73053 -15.63232,-0.94691 -15.63218,-0.21637 4e-5,0.27939 11.86834,-0.78069 11.86831,-1.06008 3e-5,-0.66365 -11.55898,-1.24836 -11.559,-0.58473 -6e-5,-0.47797 12.66752,-0.83942 12.66747,-1.3174 -3e-5,-0.68438 -16.740132,-1.16268 -16.740112,-0.47829 -2e-5,0.22727 17.049342,-1.2626 17.049372,-1.48988 -4e-5,-0.70516 -11.81754,-1.3772 -11.8175,-0.67204 5e-5,0.20464 7.74585,-0.98639 7.7458,-1.19104 1.7e-4,-0.78899 -10.5549,-1.25085 -10.55507,-0.46187 0,-0.23677 15.78585,-0.68735 15.78584,-0.92412 -6e-5,-0.50137 -12.41026,-0.90638 -12.4102,-0.40501 3e-5,0.0992 9.60179,-1.09178 9.60178,-1.19105 3e-5,-0.66398 -9.47347,-1.14303 -9.4735,-0.47904 -8e-5,-0.31958 12.84842,-0.68638 12.84835,-1.00597 -10e-5,-0.55664 -18.722342,-0.76575 -18.722262,-0.20911 -3e-5,0.17713 18.850932,-1.30778 18.850952,-1.48491 -1.3e-4,-0.81391 -13.72501,-1.05733 -13.72487,-0.24342 7e-5,0.36833 7.85211,-0.56217 7.85204,-0.9305 1.5e-4,-0.78442 -8.5218,-1.37748 -8.52195,-0.59308 -3e-5,-0.17971 13.64723,-0.56942 13.64721,-0.74913 -6e-5,-0.50159 -17.587912,-0.44747 -17.587852,0.0542 -10e-6,0.13872 16.918212,-1.02915 16.918222,-1.16787 -5e-5,-0.61104 -15.63045,-0.86713 -15.63041,-0.25609 0,-0.38181 11.69038,-0.71569 11.69038,-1.09751 1.3e-4,-0.77672 -10.29981,-0.97608 -10.29994,-0.19938 1e-5,0.19789 11.58748,-0.43146 11.58747,-0.62935 4e-5,-0.59633 -11.9479,-0.71906 -11.94795,-0.12269 0,0.0707 13.33843,-0.68558 13.33842,-0.7563 1e-5,-0.43665 -14.67719,-0.62339 -14.67719,-0.18674 2e-5,-0.38879 14.3168,-0.79777 14.31681,-1.18656 2e-5,-0.66446 -10.78974,-0.84987 -10.78975,-0.18541 5e-5,0.2492 9.4512,-0.64659 9.45115,-0.89581 8e-5,-0.7138 -8.73046,-1.12372 -8.73053,-0.40991 -6e-5,-0.21135 12.25733,-0.56155 12.25729,-0.7729 -6e-5,-0.54228 -11.87137,-0.73231 -11.8713,-0.19005 -8e-5,-0.31392 12.59204,-0.67371 12.59196,-0.98764 -1e-4,-0.5719 -17.14843,-0.74922 -17.14834,-0.17733 -1e-5,0.24237 17.53442,-1.22981 17.53443,-1.47218 -1.5e-4,-0.78697 -13.72544,-1.23967 -13.7253,-0.4527 3e-5,0.13289 9.16947,-0.62891 9.16944,-0.7618 6e-5,-0.57891 -9.78721,-0.86998 -9.78727,-0.29107 -7e-5,-0.37024 13.59624,-0.75882 13.59617,-1.12907 -8e-5,-0.60262 -14.03388,-1.06435 -14.0338,-0.46172 -4e-5,-0.32291 13.41595,-0.70638 13.41591,-1.0293 -6e-5,-0.63426 -14.36839,-0.58923 -14.36833,0.045 -1e-5,-0.1789 13.93085,-0.57709 13.93083,-0.756 -4e-5,-0.68163 -15.937962,-0.48124 -15.937912,0.20039 -1e-5,0.27205 14.985942,-0.55559 14.985962,-0.82763 -2e-5,-0.7379 -14.23978,-0.76167 -14.23976,-0.0237 0,0.24146 12.23292,-0.50949 12.23292,-0.75096 6e-5,-0.51396 -9.89136,-1.0508 -9.89143,-0.53684 0,-0.0605 10.63757,-0.99871 10.63758,-0.93826 4e-5,-0.51499 -13.750702,-0.56854 -13.750732,-0.0535 -2e-5,0.26322 16.091992,-1.10344 16.092002,-1.36666 -6e-5,-0.7963 -15.50042,-1.15706 -15.50036,-0.36076 0,-0.17501 12.3876,-0.52922 12.3876,-0.70424 6e-5,-0.445 -13.519102,-0.65716 -13.519142,-0.21216 2e-5,-0.29839 14.110822,-0.7019 14.110842,-1.00029 5e-5,-0.56842 -12.97925,-0.54533 -12.97929,0.0231 0,-0.0874 27.28705,-0.8678 27.04982,-1.261828 -0.52286,-0.8684 -28.798632,-0.0584 -28.798672,0.339288 1e-5,-0.0836 29.594392,-0.929888 29.159592,-1.651948 -0.72113,-1.19757 -27.48785,-0.42846 -27.48785,-0.0714 0,-0.12296 25.15863,-0.84261 24.84657,-1.36093 -0.59795,-0.99316 -26.003512,-0.26433 -26.003532,-0.0625 3e-5,-0.279 27.032652,-1.05228 26.607102,-1.75895 -0.71196,-1.18235 -22.75053,-0.54821 -22.75048,-0.24438 -3e-5,-0.17635 20.95913,-0.77596 20.60023,-1.37204 -0.64509,-1.07142 -20.67751,-0.49538 -20.67749,-0.33925 -5e-5,-0.32449 23.79015,-1.00519 23.61586,-1.29455 -0.45999,-0.76366 -27.266152,0.004 -27.266152,0.0922 3e-5,-0.39365 26.548692,-1.15332 26.223502,-1.69321 -0.61068,-1.01387 -24.62981,-0.32654 -24.6298,-0.23215 -1e-5,-0.38776 20.19599,-0.96572 19.79954,-1.62414 -0.68301,-1.13439 -19.20883,-0.6003 -19.20881,-0.091 1e-5,0.029 20.44006,-0.55596 20.05639,-1.19306 -0.6702,-1.11293 -19.20845,-0.5788 -19.2084,-0.17794 -1e-5,-0.0796 19.3214,-0.63264 18.98681,-1.18823 -0.62095,-1.03107 -21.1967,-0.43933 -21.1967,-0.12694 0,-0.16854 21.5104,-0.78427 21.20149,-1.29717 -0.59529,-0.98839 -21.638312,-0.38328 -21.638342,0.0655 2e-5,-0.0322 19.081892,-0.57846 18.675932,-1.25264 -0.69258,-1.15018 -14.17984,-0.7604 -14.17979,-0.58479 -7e-5,-0.30495 12.97599,-0.67645 12.62851,-1.25356 -0.63393,-1.05283 -18.049052,-0.55122 -18.049072,-0.3199 2e-5,-0.24964 21.901262,-0.87674 21.511432,-1.52386 -0.67667,-1.12328 -17.78711,-0.62955 -17.78705,-0.17326 0,-0.0244 11.94901,-0.36648 11.55937,-1.01366 -0.6764,-1.12348 -9.06843,-0.87918 -9.0683,-0.4368 -1e-5,-0.0381 14.34952,-0.44911 6.29253,-0.83918 -14.319822,-0.69328 -10.73823,-0.15243 -10.73823,-0.15243 0,0 11.96064,0.30085 9.58004,0.18561 3.88196,0.18793 -6.29265,0.47933 -6.29258,0.83917 1.7e-4,0.84335 9.15399,0.5792 9.06826,0.4368 0.19923,0.33095 -11.55945,0.66768 -11.55944,1.01365 4e-5,0.82929 17.8729,0.31583 17.78704,0.17327 0.19933,0.33092 -21.511452,0.9526 -21.511552,1.52386 -2e-4,1.05514 18.176592,0.53174 18.049052,0.31991 0.15711,0.26094 -12.6287,0.62702 -12.62861,1.25355 1.8e-4,1.11058 14.24869,0.69927 14.17976,0.5848 0.21558,0.35804 -18.675972,0.89886 -18.676022,1.25263 -1e-4,0.83688 21.804912,0.21111 21.638352,-0.0654 0.1185,0.19678 -21.201552,0.80709 -21.201602,1.29717 -9e-5,0.97351 21.337282,0.36044 21.196702,0.12694 0.14422,0.2395 -18.98691,0.78711 -18.9869,1.18823 4e-5,0.88431 19.29998,0.33003 19.2084,0.17794 0.19331,0.32106 -20.05648,0.90062 -20.05648,1.19306 -1e-5,0.7753 19.28767,0.22198 19.2088,0.091 0.20614,0.3424 -19.799642,0.91494 -19.799672,1.62415 -6e-5,1.19311 24.779352,0.48048 24.629792,0.23215 0.13485,0.2239 -26.223512,0.97816 -26.223612,1.6932 -1.9e-4,1.19899 27.566482,0.40653 27.266142,-0.0922 -0.016,-0.0266 -23.616,0.64868 -23.61594,1.29454 8e-5,1.12956 20.79311,0.53137 20.67747,0.33926 0.16865,0.28017 -20.60038,0.87436 -20.60034,1.37205 8e-5,0.9797 22.80048,0.32743 22.75046,0.24438 0.2353,0.39077 -26.607132,1.15863 -26.607222,1.75895 -1.7e-4,1.08359 26.166052,0.33243 26.003522,0.0624 0.12188,0.20245 -24.846632,0.91663 -24.846672,1.36092 -8e-5,0.92619 27.528492,0.13882 27.487852,0.0714 0.24458,0.40623 -29.159642,1.2472 -29.159712,1.651948 -1.8e-4,0.88729 29.036372,0.0556 28.798692,-0.3393 0.047,0.0782 -27.049872,0.85316 -27.049912,1.26183 -6e-5,0.71647 12.979242,0.69338 12.979302,-0.0231 5e-5,-0.35897 -14.110872,0.64132 -14.110932,1.00031 -1.3e-4,0.83978 13.519022,1.05194 13.519132,0.21215 5e-5,-0.23363 -12.387622,0.47061 -12.387652,0.70423 -5e-5,0.48841 15.500292,0.84918 15.500342,0.36077 0,-0.0579 -16.092112,1.30871 -16.092112,1.36665 -9e-5,0.76959 13.750642,0.82312 13.750742,0.0535 4e-5,-0.38159 -10.6376,0.55668 -10.63766,0.93826 6e-5,0.77052 9.89146,1.30736 9.8914,0.53684 -3e-5,0.20062 -12.232952,0.55032 -12.232982,0.75094 -4e-5,0.5465 14.239712,0.57026 14.239752,0.0237 -10e-6,0.19962 -14.986002,0.628 -14.986022,0.82763 -7e-5,0.6027 15.937872,0.40231 15.937942,-0.2004 0,-0.17237 -13.93089,0.58363 -13.93089,0.75601 10e-6,0.65003 14.36834,0.60501 14.36833,-0.045 10e-6,0.32291 -13.41599,0.7064 -13.41598,1.0293 5e-5,0.68156 14.03381,1.14328 14.03377,0.46173 2e-5,0.37023 -13.59628,0.75883 -13.59625,1.12905 5e-5,0.70517 9.78731,0.99624 9.78724,0.29108 3e-5,-0.18812 -9.16945,0.57367 -9.16949,0.76179 7e-5,0.49701 13.72533,0.94971 13.72526,0.45271 -1e-5,-0.0786 -17.534552,1.39357 -17.534532,1.47218 -7e-5,0.71194 17.148252,0.88927 17.148322,0.17733 3e-5,0.31392 -12.59206,0.67373 -12.59203,0.98765 1.3e-4,0.74146 11.87141,0.9315 11.87128,0.19003 0,0.21135 -12.25735,0.56157 -12.25734,0.7729 8e-5,0.56985 8.73059,0.97978 8.73051,0.40993 1e-5,-0.0717 -9.45121,0.8241 -9.45123,0.8958 7e-5,0.6191 10.78982,0.80451 10.78975,0.18541 -4e-5,0.38878 -14.316872,0.79777 -14.316902,1.18656 -9e-5,0.84679 14.677092,1.03354 14.677182,0.18675 1e-5,-0.25014 -13.33846,0.50614 -13.33849,0.75629 -10e-6,0.68703 11.94793,0.80977 11.94795,0.1227 -4e-5,0.14918 -11.58749,0.48016 -11.58751,0.62935 -1e-5,0.5066 10.29992,0.70597 10.29992,0.19936 -8e-5,0.38182 -11.690372,0.71571 -11.690462,1.09752 -6e-5,0.67216 15.630332,0.92825 15.630392,0.25609 0,-0.18207 -16.918302,0.9858 -16.918302,1.16788 -1.4e-4,0.7815 17.587712,0.72738 17.587852,-0.0542 -2e-5,-0.25598 -13.64728,0.49316 -13.64727,0.74915 4e-5,0.49862 8.52195,1.09168 8.52191,0.59308 -2e-5,0.0476 -7.85212,0.97809 -7.8521,0.9305 5e-5,0.46899 13.72491,0.71241 13.72485,0.24342 -1e-5,-0.14358 -18.851072,1.34133 -18.851062,1.48491 -1.4e-4,0.72613 18.722092,0.93525 18.722232,0.20911 4e-5,0.31957 -12.84844,0.68639 -12.84841,1.00597 1e-4,0.61867 9.47357,1.09771 9.47346,0.47904 2e-5,-0.22139 -9.60183,0.96965 -9.60186,1.19104 1.3e-4,0.78116 12.41029,1.18618 12.41017,0.40501 -1e-5,-0.15734 -15.785912,0.76678 -15.785902,0.92412 -2e-5,0.49345 10.555012,0.95532 10.555042,0.46187 3e-5,-0.1159 -7.74586,1.07509 -7.74589,1.19104 7e-5,0.57712 11.81751,1.24917 11.81744,0.67204 -1e-5,0.50165 -17.049452,0.98823 -17.049472,1.48988 -1.2e-4,0.59774 16.739942,1.07604 16.740072,0.4783 0,-0.11692 -12.66756,1.20049 -12.66756,1.31739 2e-5,0.61835 11.55898,1.20307 11.55895,0.58472 10e-6,-0.0411 -11.86837,1.01901 -11.86837,1.06008 10e-6,0.55133 15.63217,0.76771 15.63216,0.21638 -3e-5,-0.18876 -16.740632,1.18746 -16.740602,1.37622 -3e-5,0.71767 11.094092,1.20329 11.094132,0.48563 2e-5,-0.12373 -7.32972,0.66093 -7.32974,0.7847 1.3e-4,0.65756 12.82183,0.76109 12.8217,0.10357 -3e-5,-0.13657 -18.468832,0.77877 -18.468812,0.91535 -8e-5,0.49508 14.291552,0.7201 14.291632,0.22503 -1e-5,0.0141 -8.79891,0.84057 -8.7989,0.8265 1.1e-4,0.62597 12.46061,0.52718 12.4605,-0.0988 -3e-5,-0.18773 -16.638262,0.62804 -16.638252,0.81579 -3e-5,0.50585 11.635262,0.84008 11.635312,0.33422 2e-5,-0.10896 -7.97285,0.95177 -7.97288,1.06074 1.1e-4,0.65443 11.7124,1.02382 11.7123,0.36939 0,-0.21328 -16.716072,1.04549 -16.716072,1.25878 -9e-5,0.59138 13.775532,1.18534 13.775622,0.59396 0,-0.009 -10.03547,1.06057 -10.03548,1.07013 6e-5,0.66609 12.27939,0.74767 12.27934,0.0815 0,0.0302 -13.49186,0.5749 -13.49186,0.5749 z"
         id="path7" /><path
         style="font-weight:bold;font-size:87.6007px;line-height:0px;font-family:Dubai;-inkscape-font-specification:'Dubai, Bold';text-align:center;letter-spacing:0px;word-spacing:0.0219002px;text-anchor:middle;fill:#ff00ff;stroke-width:1.09568;stroke-linecap:round;stroke-linejoin:round;stroke-miterlimit:4.7"
         d="m 146.48171,149.90896 c 0,0 12.5892,-0.19879 12.5892,-0.49209 0,-0.77369 -12.17964,-0.42643 -12.14458,-0.36882 -0.25223,-0.41458 12.06722,-0.76584 12.06722,-1.11624 0,-0.82986 -16.68954,-0.35594 -16.45035,0.0374 -0.0486,-0.08 15.10934,-0.51211 15.1094,-1.21488 1e-4,-1.18137 -16.13169,-0.72516 -16.01312,-0.5302 -0.16981,-0.27922 20.24277,-0.86134 20.24267,-1.35945 -1.6e-4,-0.97749 -21.91499,-0.35481 -21.74979,-0.0832 -0.12274,-0.20184 18.08775,-0.72119 18.08778,-1.34929 7e-5,-1.10688 -16.92906,-0.62766 -16.66336,-0.19086 -0.0228,-0.0373 16.8179,-0.51768 16.81792,-0.82095 3e-5,-0.78292 -17.82646,-0.27637 -17.51065,0.24284 0.0279,0.0458 16.89201,-0.43516 16.89207,-1.05742 9e-5,-1.10107 -16.32388,-0.6391 -16.04161,-0.17513 -0.006,-0.0103 18.36202,-0.53423 18.362,-0.91236 -6e-5,-0.85795 -23.2336,-0.19686 -23.00029,0.1868 -0.0545,-0.0896 22.66514,-0.73775 22.66512,-1.22224 -3e-5,-0.96418 -24.28264,-0.27346 -24.1846,-0.11218 -0.18986,-0.31224 25.75719,-1.0525 25.75711,-1.63357 -1.4e-4,-1.06033 -22.88275,-0.41037 -22.64305,-0.0163 -0.0487,-0.08 18.51859,-0.60972 18.51868,-1.24991 1.2e-4,-1.11947 -23.77106,-0.44423 -23.64677,-0.23985 -0.164,-0.2697 22.95104,-0.92929 22.95114,-1.61093 2e-4,-1.1608 -23.29048,-0.49951 -23.16609,-0.29495 -0.16403,-0.26973 27.21249,-1.05102 27.21242,-1.78003 -1e-4,-1.20829 -29.67019,-0.36471 -29.54937,-0.166 -0.16756,-0.27557 25.40051,-1.00534 25.40062,-1.69504 2e-4,-1.16889 -25.00636,-0.45859 -24.76176,-0.0563 -0.0439,-0.0723 25.68923,-0.80682 25.68928,-1.20688 1e-4,-0.8804 -27.01449,-0.11051 -26.94131,0.0103 -0.21473,-0.3531 25.80795,-1.096 25.80805,-1.65377 1.9e-4,-1.03749 -22.46966,-0.39864 -22.29587,-0.11294 -0.11472,-0.18848 23.97043,-0.87613 23.97047,-1.32358 7e-5,-0.92777 -27.92227,-0.13207 -27.8113,0.0504 -0.1771,-0.29118 13.05009,-0.66885 12.75994,-1.31107 -0.5014,-1.10981 -16.35101,-0.67226 -16.0499,-0.17705 0.009,0.0149 20.28196,-0.56396 19.92179,-1.27521 -0.59446,-1.17392 -19.1639,-0.66725 -18.9379,-0.29565 -0.0687,-0.11294 15.43917,-0.55585 15.30622,-0.79655 -0.39044,-0.70685 -13.95066,-0.335 -13.7801,-0.0547 -0.12177,-0.20018 11.08257,-0.52016 10.82862,-0.99402 -0.5022,-0.93709 -11.30492,-0.65037 -11.14303,-0.38426 -0.1324,-0.21762 12.55533,-0.58001 12.25487,-1.1137 -0.55527,-0.98627 -18.20306,-0.52503 -17.87353,0.0169 0.0329,0.054 19.63203,-0.51839 19.43872,-0.85365 -0.46068,-0.7989 -20.14756,-0.26919 -19.92005,0.10499 -0.0699,-0.115 20.10344,-0.6912 19.95346,-0.94528 -0.4187,-0.70938 -20.2444,-0.17974 -20.15354,-0.0303 -0.20778,-0.34173 14.73025,-0.76847 14.48641,-1.19146 -0.50318,-0.87288 -13.68256,-0.54451 -13.41851,-0.11038 -0.0381,-0.0626 13.07677,-0.43729 12.75628,-0.99026 -0.53364,-0.9207 -9.78844,-0.87144 -9.50369,-0.38783 -0.12239,-0.20787 9.39195,-0.47971 9.26956,-0.68758 -0.31355,-0.5333 -15.43537,-0.63045 -15.12183,-0.0972 -0.1173,-0.2004 16.51969,-0.67577 16.2686,-1.09275 -0.55435,-0.92054 -18.23782,-0.35365 -18.11904,-0.1496 -0.13925,-0.23922 21.59544,-0.8603 21.1643,-1.57595 -0.74319,-1.23362 -21.94324,-0.53704 -21.76217,-0.22304 -0.0664,-0.11513 15.89058,-0.57112 15.66399,-0.94743 -0.52425,-0.87071 -14.56983,-0.42659 -14.41638,-0.15879 -0.10601,-0.18499 12.86075,-0.55558 12.53376,-1.09873 -0.62619,-1.04008 -14.74952,-0.5886 -14.66744,-0.44362 -0.17291,-0.30542 14.41035,-0.72227 14.21178,-1.05208 -0.49,-0.81386 -15.77896,-0.35535 -15.54247,0.0786 -0.0163,-0.0298 17.16073,-0.52074 16.96678,-0.84282 -0.48423,-0.80413 -16.90443,-0.31733 -16.62124,0.21994 0.0374,0.071 15.2783,-0.36397 14.99888,-0.82803 -0.5699,-0.94652 -15.96385,-0.48754 -15.70592,0.0181 0.0206,0.0403 14.70321,-0.37949 14.44155,-0.81411 -0.55033,-0.91406 -11.56153,-0.58728 -11.51431,-0.49045 -0.18153,-0.37234 11.47451,-0.7056 11.3226,-0.95789 -0.43893,-0.72899 -16.05794,-0.27606 -15.92445,0.009 -0.0879,-0.18756 15.2649,-0.6265 14.84078,-1.33092 -0.71401,-1.1859 -12.12736,-0.84358 -11.95824,-0.46205 -0.0383,-0.0864 14.95413,-0.51507 14.79866,-0.77321 -0.44206,-0.73395 -17.50515,-0.24164 -17.4442,-0.1 -0.14284,-0.33209 12.80119,-0.70225 12.64694,-0.95847 -0.43945,-0.72988 -12.37845,0.25399 -12.37845,0.25399 0,0 11.5395,0.31233 11.21855,-0.22081 -0.0359,-0.0596 -12.92627,0.30907 -12.64699,0.95847 0.48692,1.13221 17.76,0.62431 17.44418,0.1 -0.0345,-0.0572 -14.9777,0.36932 -14.79872,0.7732 0.38968,0.87927 12.00937,0.54701 11.95822,0.46206 0.23398,0.38866 -15.0774,0.82645 -14.84088,1.3309 0.4627,0.98687 16.24351,0.52136 15.92446,-0.009 -0.0382,-0.0634 -11.65858,0.26881 -11.32269,0.95788 0.5726,1.17466 11.72142,0.83453 11.51427,0.49045 0.0717,0.11897 -14.58247,0.53786 -14.44159,0.81411 0.38557,0.75605 15.89882,0.30227 15.70592,-0.0181 0.0891,0.14802 -15.12806,0.58302 -14.99894,0.82801 0.38257,0.7259 16.89862,0.24075 16.62125,-0.21992 0.003,0.006 -17.15532,0.49692 -16.96685,0.8428 0.45297,0.83126 15.81228,0.36959 15.54248,-0.0786 0.008,0.0141 -14.56359,0.43072 -14.21185,1.05209 0.6359,1.12334 14.79855,0.66149 14.66741,0.44363 0.13695,0.22752 -12.8208,0.59787 -12.53384,1.09872 0.57554,1.00451 14.64684,0.54159 14.41637,0.15878 0.0366,0.0607 -15.91252,0.51653 -15.66406,0.94743 0.52161,0.9046 21.80629,0.29631 21.76215,0.22304 0.241,0.40008 -21.48739,1.02101 -21.16441,1.57597 0.62446,1.073 18.31616,0.47701 18.11902,0.1496 0.0611,0.10139 -16.57072,0.57666 -16.26867,1.09273 0.42689,0.72936 15.54871,0.82651 15.12181,0.0972 0.12221,0.20786 -9.39181,0.47969 -9.2696,0.68757 0.47731,0.81076 9.68342,0.69803 9.50365,0.38783 0.13751,0.23728 -12.98623,0.61223 -12.75633,0.99027 0.50498,0.83043 13.64155,0.49732 13.41849,0.11025 0.0618,0.1073 -14.88601,0.53434 -14.48649,1.19146 0.64769,1.06533 20.50745,0.63 20.15353,0.0303 -0.0419,-0.0711 -20.20929,0.52458 -19.95352,0.94529 0.53589,0.88146 20.19081,0.36462 19.92004,-0.10499 0.0149,0.0258 -19.6014,0.58613 -19.43876,0.85363 0.44485,0.73172 18.02245,0.24761 17.87352,-0.0169 0.12268,0.21793 -12.57914,0.58074 -12.25495,1.11372 0.60435,0.99355 11.31904,0.71276 11.143,0.38425 0.0847,0.15787 -11.14223,0.47852 -10.8287,0.99401 0.59041,0.9707 14.09302,0.62119 13.78011,0.0547 -0.042,-0.076 -15.56616,0.3692 -15.30629,0.79655 0.54804,0.90123 18.97802,0.3749 18.93789,0.29566 0.20001,0.39504 -20.10449,0.97485 -19.92188,1.27522 0.4684,0.7704 16.11867,0.32932 16.04989,0.17704 0.14706,0.32556 -13.12883,0.70465 -12.76004,1.31106 0.65554,1.07796 27.81124,0.30527 27.8113,-0.0504 -3e-5,0.12668 -24.27698,0.81988 -23.97057,1.32359 0.59334,0.97538 22.29581,0.35807 22.29587,0.11294 -6e-5,0.2371 -26.21452,0.98549 -25.80817,1.65378 0.69284,1.13947 26.94124,0.39338 26.94131,-0.0103 -1e-5,0.0795 -25.92494,0.81948 -25.68937,1.20688 0.52261,0.85944 24.76174,0.16898 24.76176,0.0564 -9e-5,0.36906 -25.75988,1.10433 -25.40075,1.69503 0.6465,1.06339 29.54936,0.23847 29.54936,0.16599 10e-6,0.40841 -27.56815,1.19521 -27.21255,1.78003 0.64216,1.05614 23.16604,0.41602 23.16608,0.29495 -9e-5,0.36109 -23.3068,1.02619 -22.95127,1.61095 0.64203,1.05601 23.64672,0.40224 23.64675,0.23983 -7e-5,0.31968 -18.75902,0.85494 -18.51877,1.24991 0.52715,0.8667 22.64307,0.23734 22.64306,0.0163 1e-5,0.26057 -26.13858,1.00633 -25.75723,1.63356 0.6677,1.09823 24.18458,0.43034 24.18459,0.11218 0,0.16405 -22.91121,0.81765 -22.66521,1.22224 0.53268,0.8761 23.00029,0.23708 23.00029,-0.18681 0,0.0578 -18.55988,0.58716 -18.36205,0.91237 0.4847,0.79684 16.04156,0.35469 16.04158,0.17513 -5e-5,0.30186 -17.05577,0.78835 -16.89214,1.05742 0.45043,0.7406 17.51062,0.25573 17.51067,-0.24284 0,-0.0171 -17.03223,0.46869 -16.81798,0.82097 0.50104,0.82379 16.66334,0.36451 16.66336,0.19083 -5e-5,0.30774 -18.4021,0.83258 -18.08789,1.3493 0.60066,0.98783 21.74982,0.38713 21.7498,0.0832 1e-5,0.17777 -20.60404,0.76538 -20.24278,1.35945 0.64846,1.06635 16.01306,0.62819 16.01308,0.5302 -7e-5,0.38247 -15.34952,0.82016 -15.10948,1.21489 0.52649,0.86583 16.45031,0.41408 16.45035,-0.0374 0,0.0302 -12.51101,0.38686 -12.06731,1.11626 0.72957,1.19931 12.14453,0.8784 12.14456,0.3688 0,-0.0269 -11.42579,0.45893 -11.42579,0.45893 z"
         id="path6" /><path
         style="font-weight:bold;font-size:87.6007px;line-height:0px;font-family:Dubai;-inkscape-font-specification:'Dubai, Bold';text-align:center;letter-spacing:0px;word-spacing:0.0219002px;text-anchor:middle;fill:#ff00ff;stroke-width:1.09568;stroke-linecap:round;stroke-linejoin:round;stroke-miterlimit:4.7"
         d="m 81.984249,77.052642 c 0,0 -37.90909,0.44231 -37.909093,0.68307 3e-6,-0.24179 9.791694,-0.68307 9.791694,-0.68307 0,0 -10.949858,0.15276 -10.949909,0.71624 -9.4e-5,1.04601 39.067308,-0.71624 39.067308,-0.71624 z"
         id="path5" /><path
         style="font-weight:bold;font-size:87.6007px;line-height:0px;font-family:Dubai;-inkscape-font-specification:'Dubai, Bold';text-align:center;letter-spacing:0px;word-spacing:0.0219002px;text-anchor:middle;fill:#ff00ff;stroke-width:1.09568;stroke-linecap:round;stroke-linejoin:round;stroke-miterlimit:4.7"
         d="m 88.400345,89.824912 c 0,0 -5.503229,0.15748 -5.503229,0.15748 z"
         id="path4" /><path
         style="font-weight:bold;font-size:87.6007px;line-height:0px;font-family:Dubai;-inkscape-font-specification:'Dubai, Bold';text-align:center;letter-spacing:0px;word-spacing:0.0219002px;text-anchor:middle;fill:#ff00ff;stroke-width:1.09568;stroke-linecap:round;stroke-linejoin:round;stroke-miterlimit:4.7"
         d="m 82.722144,119.07154 c 0,0 -29.334247,0.1962 -9.952282,0.1962 2.533062,0 10.984268,-0.24139 11.028732,-0.59174 0.10575,-0.8332 -37.741667,0.24754 -37.74162,0.69294 -4e-6,-0.0361 33.753023,-1.00025 33.816706,-1.50104 0.12481,-0.98145 -36.57168,0.062 -36.5717,0.3618 1.2e-5,-0.18398 40.235284,-1.33342 40.312682,-1.9431 0.138194,-1.0886 -38.304624,10e-4 -38.304592,0.52375 2e-6,0.0368 35.618015,-0.98073 35.689987,-1.54691 0.132826,-1.04489 -32.369163,-0.12514 -32.369095,0.12936 -6.2e-5,-0.23134 34.507919,-1.21733 34.584353,-1.81921 0.137336,-1.08144 -38.342956,0.0103 -38.342945,0.39477 -3e-6,-0.10114 41.76531,-1.29466 41.822296,-1.74414 0.118207,-0.93233 -41.642221,0.2603 -41.6422,0.73564 -1e-6,-0.006 37.943416,-1.0908 38.02541,-1.73634 0.143381,-1.12879 -36.120747,-0.0924 -36.12073,0.0137 -6.1e-5,-0.37543 36.478387,-1.41802 36.527689,-1.80619 0.110569,-0.87057 -35.987544,0.15933 -35.987525,0.25849 -7.5e-5,-0.38334 38.038865,-1.47063 38.119537,-2.1064 0.142011,-1.11916 -39.329253,0.009 -39.329243,0.0916 -4.8e-5,-0.39918 29.419676,-1.24021 20.785568,-1.58545 -15.658717,-0.62613 -19.936928,-0.50379 -19.936898,-0.33255 -5.2e-5,-0.29831 12.434973,-0.65384 12.434921,-0.95216 -2.5e-5,-0.52684 -17.01439,-0.52259 -17.014366,0.004 -2.8e-5,0.2504 17.863443,-1.1531 17.863471,-1.4035 -7.2e-5,-0.71538 -11.947108,-1.30013 -11.947036,-0.58475 2.2e-5,0.0837 7.368303,-0.75343 7.368282,-0.83706 1.22e-4,-0.66214 -7.934414,-0.8682 -7.934536,-0.20605 -8.5e-5,-0.3833 13.850522,-0.77936 13.850438,-1.16265 -1.19e-4,-0.641478 -18.839929,-1.244378 -18.83981,-0.6029 -1.3e-5,0.14585 18.273609,-1.490928 18.273622,-1.636778 -1.07e-4,-0.71265 -14.827971,-1.23294 -14.827864,-0.52029 0,0.006 9.838991,-0.77103 9.83899,-0.77768 7.1e-5,-0.43924 -8.630462,-0.78736 -8.630533,-0.34812 -1.09e-4,-0.54335 12.076483,-0.88881 12.076372,-1.43218 -3.5e-5,-0.65946 -16.215976,-1.33367 -16.215941,-0.6742 -5e-6,0.0896 17.423861,-1.37134 17.423867,-1.46095 -7.7e-5,-0.59536 -17.192534,-1.01854 -17.192457,-0.42318 2.3e-5,-0.5346 13.054023,-0.90812 13.054046,-1.44273 8.7e-5,-0.66852 -14.004861,-1.34495 -14.004948,-0.67642 5.3e-5,-0.52384 43.837476,-1.77836 43.83753,-2.30219 9e-5,-0.7783 -40.239491,-0.42543 -40.23958,0.35286 3.8e-5,0.31784 39.28909,-1.64896 39.289052,-1.96681 1.37e-4,-0.7833 -37.104869,-0.59717 -37.105006,0.18613 -1e-4,-0.38367 40.702405,-1.54872 40.702301,-1.93239 -3.5e-5,-0.75572 -42.321508,-0.25822 -42.32147,0.4975 -6.2e-5,-0.38766 44.505289,-1.66167 44.505219,-2.04934 -1.5e-4,-0.83483 -42.630118,-0.29288 -42.629963,0.54195 8.3e-5,0.30112 41.011283,-1.44876 41.011203,-1.74987 -7e-5,-0.80328 -42.321796,-0.12783 -42.321728,0.67545 7.1e-5,0.37131 44.196988,-1.53118 44.196918,-1.90248 -1.8e-4,-0.85967 -44.300092,-0.21646 -44.299918,0.64321 5.7e-5,0.3051 42.989638,-1.4068 42.989578,-1.71192 -8e-5,-0.68578 -44.83922,-0.0864 -44.839137,0.5994 -2.1e-5,-0.28795 44.736197,-1.56898 44.736177,-1.85692 -6e-5,-0.48718 -44.813108,-0.0684 -44.813052,0.4188 -2.8e-5,-0.42757 42.989429,-1.81959 42.989429,-1.81959 0,0 -44.147734,1.10352 -44.147739,1.85276 -6e-6,0.7995 44.813071,0.38069 44.813082,-0.41881 -1.1e-5,-0.17266 -44.736319,1.68426 -44.736312,1.85693 -1e-6,0.60078 44.839182,10e-4 44.839182,-0.59939 1.2e-5,0.24047 -42.989715,1.47143 -42.989704,1.7119 4.9e-5,0.42682 44.300004,-0.21639 44.299964,-0.64321 4e-5,0.31853 -44.197096,1.58395 -44.197055,1.90249 5.9e-5,0.48311 42.321837,-0.19236 42.321779,-0.67545 4e-6,0.28786 -41.011335,1.46201 -41.011332,1.74987 9.2e-5,0.45145 42.630098,-0.0905 42.630008,-0.54194 4e-5,0.38763 -44.505418,1.66169 -44.505374,2.04934 4.6e-5,0.53044 42.321555,0.033 42.321511,-0.4975 10e-7,-0.0748 -40.702444,1.8576 -40.702445,1.93239 9.3e-5,0.50273 37.105113,0.3166 37.105019,-0.18613 10e-7,-0.004 -39.289194,1.96314 -39.289195,1.9668 2.5e-5,0.50762 40.239631,0.15476 40.239607,-0.35287 -9.9e-5,0.52381 -43.8376,1.77839 -43.837699,2.3022 -1.08e-4,0.61719 14.004792,1.2936 14.004901,0.67642 -1.09e-4,0.53461 -13.054043,0.90813 -13.054151,1.44274 -8e-5,0.69017 17.192346,1.11335 17.192426,0.42318 -1.4e-5,-0.23177 -17.423987,1.22918 -17.423974,1.46093 -8.1e-5,0.62592 16.215813,1.30014 16.215894,0.67422 2e-6,-0.11821 -12.076474,1.31399 -12.076477,1.43217 1.1e-4,0.846 8.630617,1.19411 8.630507,0.34811 7.5e-5,-0.31464 -9.838972,0.46304 -9.839046,0.7777 3e-5,0.57247 14.827856,1.09276 14.827826,0.52029 -1.4e-5,-0.17541 -18.273754,1.46135 -18.27374,1.636758 -1.05e-4,0.64348 18.839661,1.24638 18.839766,0.60291 4.3e-5,0.38328 -13.850566,0.77936 -13.850523,1.16266 9.4e-5,0.62267 7.934614,0.82872 7.934521,0.20604 6.1e-5,-0.23756 -7.368281,0.5995 -7.368342,0.83707 1.05e-4,0.56933 11.947098,1.15408 11.946994,0.58475 -3e-6,-0.0707 -17.863574,1.33272 -17.863573,1.40348 -1.39e-4,0.75776 17.014226,0.75351 17.014366,-0.004 8e-6,-0.33324 -12.434983,0.61893 -12.434991,0.95217 1.13e-4,1.11328 23.008956,0.45537 19.936875,0.33253 3.951255,0.15799 -20.785718,0.86518 -20.785683,1.58545 5.8e-5,1.1967 39.307018,0.0834 39.32925,-0.0916 -0.03981,0.3135 -38.119777,1.402 -38.11969,2.10639 1.46e-4,1.17978 35.933713,0.16511 35.987543,-0.25848 -0.0084,0.066 -36.527883,1.10974 -36.52782,1.80618 1.06e-4,1.17231 36.099684,0.15191 36.120731,-0.0137 -0.04109,0.32333 -38.025527,1.40884 -38.025537,1.73634 -2.3e-5,0.81057 41.597303,-0.3813 41.642254,-0.73564 -0.01615,0.12732 -41.822405,1.32197 -41.822421,1.74413 -3.6e-5,0.90291 38.31703,-0.1906 38.342972,-0.39476 -0.03554,0.27973 -34.584593,1.26692 -34.584485,1.81921 2.01e-4,1.02944 32.338156,0.11397 32.369105,-0.12937 -0.03105,0.24407 -35.690096,1.26288 -35.690099,1.54691 -1.1e-5,0.76656 38.279942,-0.32939 38.304631,-0.52375 -0.03653,0.2876 -40.312754,1.43824 -40.312824,1.94311 -1.36e-4,0.98367 36.532681,-0.0549 36.571726,-0.36181 -0.02274,0.17872 -33.816827,1.1441 -33.816815,1.50104 2.8e-5,0.83787 37.683878,-0.23784 37.74167,-0.69294 -0.0036,0.0284 -19.728334,0.59175 -11.028773,0.59175 25.548532,0 11.113508,-0.22938 11.113508,-0.22938 z"
         id="path3" /><path
         style="font-weight:bold;font-size:87.6007px;line-height:0px;font-family:Dubai;-inkscape-font-specification:'Dubai, Bold';text-align:center;letter-spacing:0px;word-spacing:0.0219002px;text-anchor:middle;fill:#ff00ff;stroke-width:1.09568;stroke-linecap:round;stroke-linejoin:round;stroke-miterlimit:4.7"
         d="m 88.908951,149.53514 c 0,0 -35.419734,0.36935 -27.427458,0.36935 -8.856556,0 26.421732,-1.00582 26.421777,-1.72428 4.2e-5,-0.66418 -45.299563,-0.44193 -45.299605,0.22225 3.7e-5,-0.33888 43.390707,-1.57615 43.390744,-1.91503 1.01e-4,-0.554 -42.77162,0.15913 -42.771721,0.71314 2.9e-5,-0.4088 43.391127,-1.64615 43.391156,-2.05495 8.9e-5,-0.62493 -38.877376,-0.50312 -38.877466,0.1218 -1.15e-4,-0.54667 43.39076,-1.78416 43.39064,-2.33083 -1.2e-4,-0.82484 -45.660711,-0.32249 -45.660597,0.50235 1.2e-5,0.17005 43.391033,-1.51913 43.391021,-1.68919 10e-7,-0.56697 -45.196015,0.10332 -45.196016,0.67027 1.3e-5,-0.31735 43.391195,-1.55508 43.391208,-1.87243 6.8e-5,-0.58671 -43.803653,0.0517 -43.803721,0.63847 3e-5,-0.4444 43.391609,-1.68221 43.39164,-2.12663 9.7e-5,-0.6872 -44.371036,-0.38695 -44.371133,0.30026 4.3e-5,-0.33021 43.391497,-1.56819 43.39154,-1.8984 1.39e-4,-0.68825 -38.570685,0.059 -38.570825,0.74729 5e-6,0.0309 48.547823,-1.35422 39.610709,-1.37703 -24.401209,-0.0623 -39.868517,0.37906 -39.868476,0.63664 -4.9e-5,-0.31645 13.281764,-0.69542 13.281716,-1.01187 -5.6e-5,-0.67747 -15.215306,-0.66941 -15.21525,0.008 5e-6,0.13072 13.281981,-0.54242 13.281976,-0.67314 2.3e-5,-0.61349 -11.555006,-0.57397 -11.555029,0.0395 -2e-5,-0.13329 13.281962,-0.5123 13.281943,-0.64558 -3.9e-5,-0.55934 -14.699635,-0.49115 -14.699597,0.0682 1.8e-5,0.31492 13.282376,-0.88819 13.282358,-1.20312 1.6e-5,-0.77705 -15.498802,-1.19627 -15.498817,-0.41922 3.4e-5,-0.40026 13.282514,-0.77932 13.282549,-1.17959 1.13e-4,-0.71803 -12.071094,-1.23119 -12.071208,-0.51315 2e-6,-0.22494 13.28224,-0.60405 13.282242,-0.82899 4.1e-5,-0.49741 -10.499246,-0.68111 -10.499286,-0.18371 -6.3e-5,-0.37864 13.282312,-0.75778 13.282251,-1.13643 -6.6e-5,-0.7142 -12.045902,-0.96805 -12.045837,-0.25386 -5e-5,-0.20526 13.282363,-0.58442 13.282313,-0.7897 -10e-5,-0.59502 -13.128011,-0.68202 -13.127912,-0.087 -6.1e-5,-0.24469 13.2824,-0.62389 13.282339,-0.86859 -8.3e-5,-0.46597 -16.760361,-0.76263 -16.760277,-0.29664 -2e-6,-0.0662 13.282325,-1.11822 13.282327,-1.05195 2.4e-5,-0.61974 -11.530932,-0.55329 -11.530957,0.0665 5.1e-5,0.35155 13.282951,-0.71624 13.282901,-1.0678 -5.5e-5,-0.77352 -12.330062,-1.22826 -12.330007,-0.45473 -4.7e-5,-0.22504 13.282688,-0.60432 13.282642,-0.82936 -6.4e-5,-0.48284 -12.510056,-0.80041 -12.509993,-0.31757 -1.22e-4,-0.48723 13.28274,-0.86656 13.282617,-1.3538 -1.08e-4,-0.6051 -14.004252,-1.23489 -14.004144,-0.62977 -8.4e-5,-0.41337 13.282699,-0.79274 13.282613,-1.2061 -9.7e-5,-0.72546 -12.253232,-0.75862 -12.253136,-0.0331 6e-5,0.22253 13.283076,-0.49666 13.283015,-0.71919 -1.41e-4,-0.71364 -15.420597,-0.59325 -15.420457,0.12039 1.1e-5,0.0724 12.253144,-0.43806 12.253144,-0.43806 0,0 -13.414441,0.22275 -13.414425,0.47124 3.7e-5,0.56972 15.420501,0.44933 15.420465,-0.12039 2.1e-5,0.16989 -13.283088,0.5493 -13.283068,0.71919 1.11e-4,0.55786 12.253246,0.59104 12.253134,0.0331 2.6e-5,0.41335 -13.282725,0.79274 -13.2827,1.2061 9.1e-5,0.67808 14.00419,1.30786 14.004099,0.62978 5.1e-5,0.48723 -13.282768,0.86657 -13.282716,1.3538 1.43e-4,0.8002 12.510113,1.11777 12.50997,0.31756 1.3e-5,0.22503 -13.282716,0.60433 -13.282703,0.82936 6.6e-5,0.50942 12.330041,0.96417 12.329975,0.45475 0,0.0308 -13.282979,1.0986 -13.282979,1.06778 4.8e-5,0.6631 11.531009,0.59665 11.530962,-0.0665 4.3e-5,-0.38699 -13.282361,0.66495 -13.282404,1.05193 -3.1e-5,0.81679 16.760225,1.11343 16.760256,0.29666 2.6e-5,0.24468 -13.282427,0.6239 -13.282401,0.86858 1.23e-4,0.68764 13.128027,0.77464 13.127904,0.087 2e-5,0.20526 -13.282389,0.58444 -13.28237,0.78971 9.7e-5,0.56838 12.045914,0.82224 12.045818,0.25386 8e-6,0.37863 -13.282341,0.75778 -13.282333,1.13643 7.2e-5,0.78507 10.499345,0.96877 10.499273,0.18369 4.5e-5,-0.28738 -13.282257,0.54161 -13.282301,0.82899 -4.7e-5,0.56437 12.071123,1.07752 12.071169,0.51316 -9.1e-5,0.40024 -13.282542,0.77934 -13.282634,1.17959 -8e-5,0.50521 15.498708,0.92443 15.498788,0.41922 -3.9e-5,0.41203 -13.282408,0.79108 -13.282446,1.20311 -1.3e-5,0.72282 14.699587,0.65463 14.699601,-0.0682 10e-7,-0.19966 -13.281989,0.44593 -13.28199,0.64558 4.6e-5,0.66864 11.555079,0.62912 11.555033,-0.0395 2.1e-5,-0.1898 -13.282004,0.48334 -13.282025,0.67314 -2.3e-5,0.60459 15.215226,0.59654 15.21525,-0.008 3e-6,0.31644 -13.281793,0.69542 -13.28179,1.01186 8.4e-5,1.02439 56.708811,-0.59366 39.868523,-0.63664 -1.374682,-0.004 -39.610837,1.08747 -39.61081,1.37703 5.9e-5,0.59371 38.570939,-0.15359 38.570879,-0.74728 -9e-5,0.33018 -43.391586,1.5682 -43.391677,1.8984 -1.2e-4,0.59463 44.371035,0.29438 44.371154,-0.30026 -9.4e-5,0.44438 -43.391698,1.68225 -43.391793,2.12663 -9.9e-5,0.695 43.803669,0.0565 43.803767,-0.63848 -6e-5,0.31733 -43.391284,1.55511 -43.391344,1.87243 -8.3e-5,0.71464 45.195982,0.0444 45.196065,-0.67026 -1.7e-5,0.22575 -43.391127,1.46343 -43.391143,1.68918 -3e-6,0.45667 45.660628,-0.0457 45.660628,-0.50233 4e-5,0.54662 -43.390839,1.78418 -43.390803,2.33081 9e-5,0.65643 38.877564,0.53462 38.877473,-0.1218 -8.8e-5,0.40878 -43.391216,1.64617 -43.391304,2.05496 -1.04e-4,0.72721 42.771669,0.0141 42.771772,-0.71315 -8.6e-5,0.33886 -43.390797,1.57618 -43.390882,1.91503 -1.13e-4,0.61693 45.299508,0.39469 45.299621,-0.22224 -5.5e-5,0.39817 -46.511082,1.72426 -26.421902,1.72426 36.938235,0 28.590908,-0.4025 28.590908,-0.4025 z"
         id="text1" /></g></g></svg>
