<?xml version="1.0" encoding="UTF-8" standalone="no"?>
<!-- Created with Inkscape (http://www.inkscape.org/) -->

<svg
   width="1080"
   height="1080"
   viewBox="0 0 285.74997 285.74997"
   version="1.1"
   id="svg1"
   inkscape:version="1.4.2 (f4327f4, 2025-05-13)"
   sodipodi:docname="61.svg"
   xml:space="preserve"
   inkscape:export-filename="69.svg"
   inkscape:export-xdpi="96"
   inkscape:export-ydpi="96"
   xmlns:inkscape="http://www.inkscape.org/namespaces/inkscape"
   xmlns:sodipodi="http://sodipodi.sourceforge.net/DTD/sodipodi-0.dtd"
   xmlns="http://www.w3.org/2000/svg"
   xmlns:svg="http://www.w3.org/2000/svg"><sodipodi:namedview
     id="namedview1"
     pagecolor="#ffffff"
     bordercolor="#000000"
     borderopacity="0.25"
     inkscape:showpageshadow="2"
     inkscape:pageopacity="0.0"
     inkscape:pagecheckerboard="0"
     inkscape:deskcolor="#3c3c3c"
     inkscape:document-units="px"
     inkscape:zoom="2.862963"
     inkscape:cx="-287.98835"
     inkscape:cy="93.434669"
     inkscape:window-width="1920"
     inkscape:window-height="991"
     inkscape:window-x="-9"
     inkscape:window-y="-9"
     inkscape:window-maximized="1"
     inkscape:current-layer="layer1"
     showgrid="true"><inkscape:page
       x="0"
       y="0"
       width="285.74997"
       height="285.74997"
       id="page2"
       margin="0"
       bleed="0" /></sodipodi:namedview><defs
     id="defs1"><inkscape:path-effect
       effect="skeletal"
       id="path-effect37"
       is_visible="true"
       lpeversion="1"
       pattern="#path36"
       copytype="repeated_stretched"
       prop_scale="1"
       scale_y_rel="false"
       spacing="0"
       normal_offset="0"
       tang_offset="0"
       prop_units="false"
       vertical_pattern="false"
       hide_knot="false"
       fuse_tolerance="0" /></defs><g
     inkscape:label="Capa1"
     inkscape:groupmode="layer"
     id="layer1"
     style="display:inline;opacity:1;mix-blend-mode:multiply"><path
       id="path37"
       style="fill:none;stroke:#000000;stroke-width:1.32292;stroke-linecap:round;stroke-linejoin:round;stroke-miterlimit:4.7"
       d="m 235.74313,169.06082 c 0.5634,-1.38055 1.09489,-2.77447 1.59363,-4.17989 2.83979,-0.30783 5.68926,-0.71523 8.54272,-1.2234 4.13754,0.71658 8.28853,1.37497 12.45173,1.97473 3.84808,1.67158 7.67568,3.40115 11.48156,5.18813 1.98718,2.28732 3.91713,4.6591 5.785,7.11215 -0.70122,2.00302 -1.44922,3.98869 -2.24316,5.95515 -3.03605,0.64535 -6.0666,1.18794 -9.086,1.62897 -4.06618,-1.11051 -8.11258,-2.2771 -12.13797,-3.49934 -3.55287,-2.2326 -7.13474,-4.41145 -10.74437,-6.53595 -1.82125,-2.22018 -3.70391,-4.36143 -5.64314,-6.42055 z m -17.09462,-5.00476 c 0.90992,-2.08962 1.73049,-4.22011 2.45613,-6.37923 5.18811,-0.28852 10.41668,-0.92239 15.64829,-1.9095 7.79777,1.01727 15.63306,1.82666 23.49774,2.42521 7.40935,2.64507 14.75984,5.5007 22.0432,8.563 3.8907,4.3421 7.58652,8.98982 11.05546,13.92212 -1.39469,4.27931 -2.97688,8.49144 -4.74099,12.62414 -5.87848,1.47581 -11.7441,2.58525 -17.55941,3.3362 -7.54673,-2.40303 -15.01411,-5.00014 -22.39401,-7.78839 -6.37088,-4.61865 -12.85696,-9.05471 -19.44994,-13.30431 -3.307,-4.10593 -6.83649,-7.94269 -10.55647,-11.48924 z m -24.78104,-8.61339 c 1.10773,-2.30507 2.05702,-4.70088 2.82098,-7.12844 8.46232,0.25485 17.0672,-0.45498 25.63426,-2.16746 13.22541,0.89753 26.5167,1.18839 39.83475,0.85834 12.89945,3.19059 25.68635,7.0094 38.32082,11.43777 7.0313,7.45848 13.53373,15.82478 19.35308,24.99751 -2.49087,8.55261 -5.61318,16.88764 -9.34003,24.94612 -10.43206,3.13268 -20.8545,5.19936 -31.08697,6.23803 -12.50915,-4.85129 -24.75074,-10.24279 -36.68565,-16.16027 -9.93655,-8.8215 -20.25713,-17.14954 -30.92187,-24.96544 -5.3659,-6.78465 -11.39376,-12.83717 -17.92937,-18.05616 z m -24.94886,-10.40046 c 0.8322,-1.51755 1.54554,-3.16439 2.06285,-4.77127 11.66146,1.49009 23.66734,1.07495 35.50001,-1.35441 18.80392,0.0606 37.65513,-1.13234 56.44135,-3.61965 18.72711,2.56225 37.34237,6.45061 55.73133,11.61146 10.75784,10.77143 20.50418,23.45106 28.79637,37.74786 -3.62564,14.13528 -8.72768,27.77718 -15.22895,40.75646 -15.63962,5.35149 -31.31633,8.50699 -46.51249,9.57548 -17.35734,-8.04574 -34.08855,-17.15423 -50.08133,-27.28466 -12.74314,-13.93464 -26.37733,-26.92999 -40.78814,-38.93242 -7.39434,-9.41056 -16.18223,-17.41719 -25.921,-23.72885 z m 24.95719,71.65019 c 1.3189,-0.69119 2.62122,-1.41305 3.90505,-2.16488 2.36811,1.59459 4.80794,3.1186 7.31635,4.56718 2.7038,3.21124 5.45593,6.38615 8.25584,9.52356 1.86919,3.75484 3.68461,7.54131 5.44579,11.35811 0.0466,3.02993 -0.006,6.08793 -0.15881,9.16831 -1.82849,1.08241 -3.68126,2.12079 -5.55638,3.11445 -2.73823,-1.46118 -5.40542,-2.99815 -7.99842,-4.60604 -2.39354,-3.46908 -4.73574,-6.96853 -7.02606,-10.49715 -1.2779,-3.99668 -2.61261,-7.97076 -4.00366,-11.92095 0.0379,-2.87063 -0.0223,-5.72005 -0.1797,-8.54259 z m -9.84487,-14.84267 c 2.03954,-1.00699 4.03262,-2.10135 5.96665,-3.27837 4.14565,3.12485 8.54472,6.00946 13.17632,8.62181 5.31332,5.79397 10.79202,11.45099 16.43245,16.96322 3.97649,6.78748 7.76849,13.70012 11.37292,20.72934 0.17844,5.83084 0.007,11.771 -0.52355,17.78296 -3.83216,2.38319 -7.76156,4.591 -11.77561,6.61873 -5.44765,-2.65558 -10.6465,-5.58576 -15.57568,-8.75851 -4.22189,-6.70102 -8.25857,-13.49965 -12.10637,-20.38808 -1.89647,-7.63819 -3.99747,-15.21083 -6.29989,-22.70931 0.11913,-5.27044 -0.10587,-10.47687 -0.66724,-15.58179 z M 170.63452,179.2904 c 2.33297,-1.03925 4.58333,-2.24125 6.69035,-3.58331 6.27979,5.65882 13.2872,10.66599 20.92155,14.86715 9.55502,9.18363 19.56239,17.93782 30.00451,26.22484 7.86257,10.72307 15.21854,21.86186 22.05289,33.37495 0.56867,10.2504 0.13152,20.85723 -1.3488,31.63974 -7.4476,4.96574 -15.22257,9.34459 -23.2642,13.11386 -9.99458,-4.31992 -19.28391,-9.45711 -27.76729,-15.25719 -6.44101,-11.77156 -12.33406,-23.78295 -17.66155,-35.99647 -1.92797,-13.15028 -4.45923,-26.17211 -7.57879,-39.02409 0.28036,-8.65148 -0.41498,-17.16489 -2.04867,-25.35948 z m -12.37847,-24.03667 c 1.63159,-0.61264 3.2004,-1.3736 4.53219,-2.21775 6.91145,7.60452 14.95753,14.25346 23.94407,19.64911 1.28385,0.77492 2.58813,1.52164 3.91186,2.23997 14.41801,12.11808 29.68612,23.2548 45.69204,33.36935 12.72961,13.95101 24.56751,28.84105 35.39924,44.61652 0.15455,1.70742 0.2823,3.42753 0.38263,5.15993 0.72193,13.66591 -0.17765,27.92692 -2.77383,42.41971 -11.96126,8.54272 -24.68778,15.71976 -38.00531,21.46599 -15.39352,-5.97823 -29.37219,-13.67747 -41.64702,-22.65464 -8.09882,-17.33562 -15.05031,-35.07501 -20.80394,-53.10988 -0.81941,-18.86429 -2.89836,-37.59133 -6.19384,-56.06227 0.44266,-11.98428 -1.07244,-23.78255 -4.43809,-34.87604 z m -27.10186,71.06165 c 1.44971,0.31899 2.906,0.60306 4.36701,0.85139 0.78344,2.74221 1.66857,5.4764 2.65657,8.19689 0.007,4.19718 0.0757,8.3979 0.20633,12.60092 -0.97932,4.0784 -2.02142,8.14595 -3.1257,12.20139 -1.91423,2.35028 -3.92397,4.65721 -6.02603,6.91595 -2.10118,-0.3486 -4.19179,-0.74698 -6.26999,-1.1943 -1.15801,-2.88074 -2.21116,-5.77369 -3.16063,-8.67318 0.40241,-4.19441 0.86426,-8.37894 1.38512,-12.55237 1.5965,-3.87939 3.13447,-7.77817 4.61332,-11.69509 1.87571,-2.17129 3.66144,-4.3901 5.354,-6.6516 z m 2.02859,-17.68963 c 2.19553,0.54035 4.40804,0.9808 6.6253,1.31576 1.15014,5.05251 2.65307,10.08321 4.51665,15.05469 0.35279,7.85329 0.92527,15.70927 1.7204,23.5598 -1.30061,7.76234 -2.82856,15.49966 -4.57998,23.20368 -3.61886,4.58245 -7.5822,9.01886 -11.86897,13.27723 -4.48721,-0.64449 -8.93113,-1.48703 -13.31949,-2.52203 -2.46779,-5.5398 -4.56177,-11.12898 -6.28983,-16.73012 1.08772,-7.84357 2.38135,-15.64261 3.87792,-23.389 3.4717,-7.0623 6.74403,-14.20596 9.8131,-21.42269 3.48333,-3.95278 6.65865,-8.07922 9.5049,-12.34732 z m 4.29387,-25.87731 c 2.42461,0.70502 4.8718,1.22149 7.28262,1.52251 0.89605,6.6539 2.41793,13.28551 4.58483,19.80363 0.55283,1.67518 1.15069,3.34159 1.79275,4.99793 1.45535,13.18836 3.54884,26.32364 6.26285,39.36813 -0.82515,13.26431 -2.29444,26.53577 -4.42286,39.77298 -1.17138,1.57654 -2.38221,3.14033 -3.63274,4.69012 -5.31227,6.53426 -11.27932,12.79405 -17.84738,18.69757 -8.96315,-1.00215 -17.77687,-2.66583 -26.38216,-4.96417 -4.88411,-9.74177 -8.68104,-19.65156 -11.428751,-29.54902 2.661455,-13.15099 5.896814,-26.13379 9.691851,-38.90928 6.99913,-11.30141 13.45688,-22.89032 19.35458,-34.72684 5.79159,-6.42997 10.74019,-13.38256 14.74441,-20.70356 z m 6.03401,-26.35301 c 1.60033,0.58487 3.19234,0.99007 4.60676,1.13844 0.13435,4.3686 0.54134,8.7352 1.22668,13.07269 1.14658,7.35061 3.1803,14.59328 6.03033,21.61936 3.32775,18.51526 7.90364,36.84268 13.67713,54.87402 0.79895,18.86794 0.3381,37.87249 -1.42559,56.89481 -5.26403,7.64995 -11.34987,15.07035 -18.28187,22.1433 -4.42784,4.459 -9.15262,8.76604 -14.15711,12.89492 -14.8058,-1.18496 -29.25584,-3.90714 -43.180865,-8.08936 -7.951817,-14.48521 -13.664837,-29.3663 -17.248039,-44.12561 4.980433,-18.47551 11.091675,-36.52559 18.292894,-54.03795 11.51345,-14.97174 21.99083,-30.63957 31.37853,-46.88904 8.0852,-8.8673 14.54259,-18.84671 19.08115,-29.49558 z m -66.642317,36.94951 c 0.902869,1.16988 1.833735,2.31627 2.791883,3.43725 -1.161803,2.60045 -2.239024,5.26161 -3.226809,7.98032 -2.687188,3.22619 -5.328676,6.49609 -7.92328,9.80913 -3.367491,2.50557 -6.776783,4.9608 -10.226577,7.36521 -2.979134,0.57283 -6.003963,1.04849 -9.068802,1.42579 -1.391099,-1.62347 -2.740862,-3.27813 -4.048576,-4.96208 0.961378,-2.95595 2.012545,-5.8519 3.148647,-8.68467 3.00455,-2.95343 6.048836,-5.86014 9.13167,-8.7196 3.717055,-1.9426 7.401342,-3.93859 11.051559,-5.9875 2.830817,-0.45877 5.622807,-1.01378 8.370285,-1.66385 z M 89.79561,181.10868 c 1.324354,1.80604 2.72665,3.54128 4.202181,5.19311 -1.361874,2.64157 -2.628003,5.35412 -3.792294,8.13369 -0.867422,2.06096 -1.675691,4.15907 -2.424203,6.29145 -4.761049,6.26265 -9.349642,12.6673 -13.762827,19.20584 -5.966425,5.12971 -12.093023,10.09907 -18.375918,14.89979 -2.351467,0.49647 -4.734819,0.93537 -7.148599,1.31447 -3.454081,0.53411 -6.962316,0.94787 -10.517027,1.2397 -3.041825,-3.40164 -5.917699,-6.92487 -8.622915,-10.5571 1.663125,-5.844 3.650131,-11.47799 5.928983,-16.88108 5.878618,-5.30279 11.887832,-10.43664 18.019815,-15.39789 7.2022,-3.16642 14.303042,-6.52532 21.293936,-10.0736 5.204801,-0.78831 10.283592,-1.91369 15.198868,-3.36838 z m 19.93816,-17.02842 c 1.37669,2.05324 2.88924,3.95439 4.51496,5.64274 -0.37802,0.59122 -0.75049,1.18677 -1.11732,1.78657 -4.07189,6.6233 -7.38448,13.80111 -9.90857,21.39467 -7.316875,11.05373 -14.128145,22.47148 -20.419588,34.21411 -9.145658,9.63977 -18.775805,18.87739 -28.871759,27.67297 -8.961087,2.17581 -18.386737,3.58696 -28.203369,4.12154 -1.10129,0.0542 -2.206391,0.098 -3.315115,0.1313 C 16.136119,252.43845 10.419231,245.43588 5.2850351,238.09719 7.791352,227.46304 11.255533,217.42352 15.5232,208.07932 c 10.504268,-8.34356 21.342468,-16.1856 32.476881,-23.50853 12.634401,-4.13106 25.038215,-8.83104 37.170034,-14.08493 8.563121,-1.1921 16.811255,-3.33975 24.563655,-6.4056 z m 21.58899,-16.255 c 0.71841,1.25797 1.51246,2.3525 2.33516,3.1578 0.0785,0.10821 0.1612,0.21636 0.24782,0.32437 -7.3238,9.22839 -12.87076,19.87754 -16.53193,31.42981 -9.32363,16.33578 -17.597869,33.32097 -24.781879,50.84327 -11.531177,14.9615 -24.098157,29.22626 -37.647324,42.67982 -14.601162,4.08858 -30.438903,6.32139 -47.2221919,6.25578 -0.9494126,-0.91348 -1.8917976,-1.837 -2.8270393,-2.7705 -9.5442996,-9.80767 -17.9932488,-20.35567 -25.2974588,-31.51185 3.199534,-16.25852 8.404039,-31.32561 15.1704263,-44.9123 15.7133867,-10.91524 32.0205627,-20.77694 48.8132607,-29.53459 18.454722,-4.03537 36.565908,-9.26086 54.214711,-15.63343 11.891705,-1.5614 23.240125,-5.03986 33.526445,-10.32818 z M 56.501014,133.12598 c -0.02626,0.72376 -0.04332,1.44747 -0.05108,2.1709 -0.01345,0.74508 -0.01702,1.491 -0.0108,2.23751 -2.563217,1.25147 -5.097887,2.60773 -7.599156,4.06563 -4.129285,0.75881 -8.250371,1.57983 -12.362073,2.4625 -4.188256,-0.23169 -8.377607,-0.52744 -12.566753,-0.8877 -2.657446,-1.46437 -5.290081,-3.03395 -7.89222,-4.70992 -0.01758,-1.05523 -0.02254,-2.11131 -0.01478,-3.16802 0.01345,-1.08876 0.04038,-2.17631 0.08069,-3.26242 2.637126,-1.66009 5.304162,-3.21321 7.995434,-4.66054 4.201033,-0.33825 8.402086,-0.61369 12.601928,-0.82678 4.097455,0.89713 8.20468,1.73095 12.320422,2.50087 2.467429,1.46141 4.968508,2.8218 7.498387,4.07797 z m 17.767768,-1.08597 c -0.06448,1.08779 -0.102148,2.1739 -0.112351,3.25687 -0.0297,1.11549 -0.03022,2.23622 -0.0022,3.36056 -4.776479,2.0153 -9.46056,4.40034 -14.020212,7.13424 -7.662438,1.75773 -15.286853,3.72967 -22.865416,5.91218 -7.865748,0.10589 -15.749264,-0.009 -23.641956,-0.34732 -5.1592957,-2.72814 -10.2418852,-5.82785 -15.2102628,-9.30687 -0.089176,-2.24556 -0.1289438,-4.49699 -0.1187423,-6.75279 0.029701,-2.32401 0.1124098,-4.64147 0.2473965,-6.95078 5.0354793,-3.43989 10.1826075,-6.49856 15.4039616,-9.18387 7.912306,-0.28865 15.814915,-0.35959 23.699709,-0.21577 7.550278,2.20608 15.148076,4.19599 22.785121,5.96585 4.497493,2.72978 9.119806,5.1127 13.834936,7.1277 z m 26.210578,-0.22993 c -0.11572,1.17566 -0.17838,2.34028 -0.18477,3.4868 -0.0613,1.18099 -0.0629,2.38667 -0.008,3.6091 -8.036953,2.59156 -15.844064,6.24263 -23.266961,10.85252 -12.705255,3.77949 -25.263343,8.15067 -37.636542,13.09593 -13.206112,1.49862 -26.521516,2.38748 -39.90480454,2.65159 C -9.704882,160.98409 -18.714154,155.39589 -27.36836,148.70407 c -0.32025,-4.44262 -0.478535,-8.9141 -0.472145,-13.40719 0.06134,-4.62876 0.297358,-9.22911 0.704549,-13.79333 8.771716,-6.602 17.889098,-12.09561 27.17179359,-16.51882 13.40754141,0.36846 26.74627641,1.34452 39.97708241,2.91395 12.32263,4.97629 24.836226,9.3633 37.500909,13.14233 7.323306,4.57732 15.029892,8.20081 22.965531,10.76907 z m 26.96957,1.45667 c -0.11909,0.71886 -0.17984,1.40232 -0.17302,2.03013 -0.10355,0.6467 -0.13522,1.36352 -0.10352,2.12768 -11.45803,2.51777 -22.52231,7.18486 -32.74974,13.71231 -17.649941,6.51805 -34.922025,14.19042 -51.707983,22.9666 -18.46167,4.01629 -37.2662366,6.84221 -56.294851,8.43472 -13.796445,-6.2279 -27.333701,-14.62209 -40.092976,-25.28976 -0.756362,-7.24058 -1.141847,-14.5647 -1.148671,-21.95155 0.103553,-7.60976 0.608789,-15.14188 1.505625,-22.57425 12.933237,-10.50446 26.621123,-18.72732 40.546014,-24.777562 19.0461542,1.768532 37.867574,4.735917 56.351978,8.861324 16.711981,8.807358 33.9251,16.481888 51.524896,22.969968 10.097608,6.44548 21.025908,11.03929 32.342248,13.49039 z M 79.6648,73.902285 c -0.988432,1.093135 -1.950952,2.213212 -2.886714,3.358377 -2.77002,-0.675182 -5.585111,-1.255017 -8.439601,-1.738311 -3.653438,-2.06623 -7.340118,-4.080993 -11.05881,-6.043842 -3.062016,-2.86626 -6.084325,-5.78097 -9.065675,-8.743544 -1.099286,-2.824027 -2.113575,-5.710427 -3.038015,-8.656011 1.342652,-1.657613 2.726092,-3.284296 4.149473,-4.878192 3.081742,0.411778 6.122594,0.922088 9.116884,1.529737 3.444872,2.429025 6.85016,4.907426 10.214632,7.434755 2.574395,3.31499 5.197034,6.585768 7.866663,9.811745 0.959487,2.699672 2.008158,5.342497 3.141163,7.925286 z m 14.353954,10.542004 c -1.529392,1.598162 -2.990539,3.284956 -4.377862,5.048147 C 84.678449,87.998106 79.551021,86.834275 74.296031,86.008823 67.29358,82.434615 60.183959,79.044672 52.975284,75.841946 46.882257,70.863947 40.915756,65.708981 35.084055,60.380926 32.880115,54.985215 30.968729,49.361583 29.3819,43.531071 c 2.775449,-3.583858 5.717287,-7.052764 8.819933,-10.39448 3.483974,0.326455 6.922518,0.769135 10.308517,1.326542 2.509734,0.419105 4.986371,0.902283 7.428305,1.447074 6.265585,4.851748 12.378509,9.86707 18.335121,15.038141 4.376433,6.538435 8.933302,12.939715 13.667497,19.195247 0.705168,2.043396 1.466006,4.055075 2.281977,6.032438 1.160736,2.827006 2.428087,5.584526 3.795504,8.268256 z m 20.299466,16.639631 c -1.71103,1.59368 -3.32383,3.41436 -4.81151,5.40308 -7.84474,-3.11459 -16.18732,-5.30687 -24.847387,-6.538881 C 72.496423,94.667846 60.068888,89.926866 47.41584,85.739406 36.345885,78.378286 25.581546,70.484764 15.162702,62.07752 11.034056,52.722207 7.7129606,42.680764 5.3536403,32.054588 10.619858,24.795421 16.45729,17.890108 22.839049,11.397621 c 0.917716,0.03938 1.832879,0.08592 2.745385,0.139597 10.053036,0.642616 19.692568,2.196805 28.841122,4.543773 10.046614,8.891603 19.638163,18.211232 28.757042,27.921166 6.232921,11.733787 13.000376,23.134846 20.287372,34.161771 2.42663,7.366961 5.6087,14.336663 9.5191,20.777919 0.43487,0.720236 0.87797,1.434293 1.32915,2.142073 z m 19.74507,18.4517 c -0.0834,0.0791 -0.16417,0.15859 -0.24214,0.23831 -0.94791,0.68455 -1.89246,1.6931 -2.77513,2.8973 -10.43698,-5.33157 -21.93596,-8.8435 -33.979271,-10.42683 C 79.360719,105.86181 61.205992,100.59666 42.71485,96.489788 26.009803,87.663334 9.8065327,77.704308 -5.7805011,66.666329 -12.334788,53.027372 -17.314723,37.927965 -20.277655,21.659138 -12.903923,10.783966 -4.4399355,0.52731465 5.0585971,-8.9886184 c 1.1056612,-1.0759766 2.2207463,-2.1380176 3.345065,-3.1860506 16.8086769,0.173422 32.6493519,2.6357744 47.2330549,6.943968 13.448143,13.6003184 25.936558,27.984459 37.414722,43.044155 7.107481,17.49839 15.335631,34.44696 24.641431,50.726861 3.61617,11.405291 9.10871,21.909995 16.37042,30.995305 z m 1.4029,-76.035978 c -1.46638,0.207516 -2.93003,0.451066 -4.38904,0.729937 -1.6936,-2.295296 -3.48099,-4.548038 -5.35898,-6.753369 -1.4701,-3.932292 -2.99779,-7.84701 -4.58251,-11.742967 -0.50055,-4.16523 -0.94047,-8.341733 -1.3193,-12.528205 0.97196,-2.869087 2.04714,-5.7309884 3.22668,-8.5800201 2.088,-0.404699 4.18643,-0.7600247 6.29337,-1.0652634 2.09297,2.2959492 4.09286,4.6396623 5.99651,7.0262845 1.08484,4.071106 2.10909,8.153823 3.07219,12.246965 -0.14739,4.191596 -0.23111,8.380955 -0.25165,12.566774 -0.99762,2.687797 -1.89298,5.389647 -2.68727,8.099864 z m 4.25914,17.283492 c -2.22418,0.259149 -4.45061,0.624516 -6.66667,1.091391 -2.85657,-4.32901 -6.04411,-8.516344 -9.54173,-12.529969 -3.06101,-7.244097 -6.31997,-14.417191 -9.77321,-21.511455 -1.45601,-7.734104 -2.70344,-15.521775 -3.73919,-23.3544192 1.78042,-5.5472163 3.92533,-11.0797321 6.4425,-16.5600418 4.41086,-0.95279 8.87027,-1.711355 13.36562,-2.270986 4.26143,4.331306 8.19653,8.8386556 11.7844,13.49001526 1.70576,7.73241164 3.19374,15.49648374 4.46029,23.28438774 -0.82327,7.826859 -1.41791,15.659759 -1.78702,23.490108 -1.87067,4.909483 -3.38308,9.878974 -4.54499,14.870969 z m 4.9471,25.749774 c -2.41551,0.173303 -4.88734,0.563139 -7.35478,1.146817 C 133.27514,80.261382 128.28376,73.213476 122.44418,66.690384 116.54004,54.813611 110.09066,43.178097 103.11364,31.821565 99.392485,19.058384 96.246707,6.083772 93.691296,-7.0608639 c 2.860768,-9.8163291 6.767654,-19.6352571 11.758014,-29.2760311 8.65443,-2.152365 17.49731,-3.664055 26.4679,-4.51238 6.41401,5.915366 12.23995,12.170983 17.42689,18.688785 1.32364,1.6755 2.60184,3.366691 3.83493,5.072058 2.02768,13.278823 3.41408,26.5882136 4.17342,39.889051 -2.75299,13.000223 -4.86877,26.094878 -6.32868,39.244084 -0.5988,1.533449 -1.15892,3.075758 -1.67967,4.62586 -2.21159,6.533949 -3.76221,13.186681 -4.67167,19.862345 z m 3.40185,26.813942 c -1.41243,-0.0352 -3.0427,0.18649 -4.71656,0.60002 C 138.73405,103.16666 132.18447,93.064159 123.99798,84.082462 114.57313,67.788659 104.08777,52.062747 92.592394,37.012993 85.502638,19.504357 79.533822,1.4465406 74.72897,-17.041609 c 3.778651,-14.662652 9.682885,-29.423411 17.819911,-43.763488 14.012789,-3.961757 28.510239,-6.449207 43.318079,-7.397229 4.75795,4.037645 9.25537,8.23665 13.47714,12.573821 7.06387,7.350938 13.23307,15.062221 18.53434,23.006914 1.58997,19.069263 1.91305,38.1144932 1.01006,57.023408 -5.81639,17.963882 -10.40317,36.233937 -13.70674,54.695706 -2.74087,6.764763 -4.7088,13.734075 -5.83766,20.80734 -0.72098,4.458697 -1.14213,8.949597 -1.26982,13.441987 z m 49.61749,-57.260453 c -1.26169,-0.786557 -2.54354,-1.544201 -3.84368,-2.272088 0.17839,-2.84906 0.25932,-5.725491 0.24159,-8.62362 1.4077,-3.956298 2.76056,-7.935936 4.05816,-11.937686 2.30057,-3.509275 4.65435,-6.988463 7.06078,-10.43631 2.59059,-1.570173 5.25459,-3.069231 7.98883,-4.492324 1.85516,1.032572 3.68618,2.108931 5.49121,3.228233 0.12207,3.103048 0.1435,6.182907 0.0655,9.233902 -1.78606,3.816332 -3.62485,7.60298 -5.51592,11.358714 -2.80544,3.11786 -5.5619,6.274345 -8.26879,9.468203 -2.49484,1.417308 -4.92179,2.909916 -7.27766,4.472976 z m -7.84262,15.982705 c -1.89049,-1.239607 -3.84574,-2.400415 -5.8535,-3.476847 0.59299,-5.158091 0.84805,-10.418903 0.7573,-15.745015 2.32629,-7.514158 4.45651,-15.100656 6.38771,-22.751378 3.87089,-6.852901 7.93554,-13.61311 12.19008,-20.272352 4.93439,-3.0978476 10.13555,-5.9519787 15.58244,-8.5303921 3.97819,2.1050283 7.86531,4.3869973 11.64912,6.8403282 0.46395,6.0515589 0.56896,12.0279779 0.3229,17.8918329 -3.65728,7.021792 -7.49684,13.929397 -11.51574,20.714696 -5.64694,5.476001 -11.12809,11.101026 -16.43956,16.866802 -4.59758,2.560106 -8.96484,5.391548 -13.08075,8.462325 z m -12.72871,22.921731 c -2.0281,-1.443081 -4.21506,-2.757823 -6.50192,-3.917339 1.66796,-8.29341 2.39243,-16.907016 2.13544,-25.660467 3.14051,-12.88679 5.70804,-25.93884 7.68836,-39.117028 5.37612,-12.15651 11.33255,-24.1039377 17.85061,-35.8024045 8.51751,-5.6653195 17.832,-10.6624315 27.84207,-14.8371115 7.9846,3.912258 15.68349,8.425838 23.03768,13.513852 1.34765,10.84260656 1.6505,21.497941 0.94653,31.78565 -6.93802,11.482003 -14.38255,22.59707 -22.31938,33.306081 -10.44345,8.228008 -20.44135,16.936586 -29.97503,26.085855 -7.55654,4.131064 -14.49179,9.063443 -20.70436,14.642912 z m -14.55615,22.757027 c -1.211,-0.98377 -2.68892,-1.90949 -4.26449,-2.69999 3.38701,-11.24801 4.91159,-23.19923 4.46477,-35.336014 3.29493,-18.528744 5.40439,-37.305483 6.28752,-56.217934 5.83684,-17.9602448 12.90302,-35.613676 21.14492,-52.845835 12.3624,-8.777355 26.40912,-16.261781 41.84913,-22.010627 13.24097,5.97061 25.85096,13.356819 37.6607,22.081455 2.36776,14.360635 3.08382,28.47450288 2.22141,41.993825 -0.13247,1.926758 -0.29862,3.838136 -0.4976,5.73358 -10.99642,15.697555 -22.9667,30.529185 -35.80256,44.444366 -15.9953,10.035708 -31.23449,21.122656 -45.59873,33.217821 -1.17876,0.640803 -2.34175,1.304632 -3.48822,1.991335 -9.01645,5.370958 -17.07666,12.023618 -23.97685,19.648018 z m 74.69129,-12.07713 c -0.4594,-1.41773 -0.95216,-2.8258 -1.47755,-4.22232 1.97242,-2.065813 3.88828,-4.214384 5.74272,-6.442545 3.62628,-2.118429 7.22561,-4.289815 10.79681,-6.513604 4.02076,-1.200839 8.06297,-2.344481 12.12533,-3.430453 2.99325,0.468302 5.99694,1.037799 9.00538,1.709666 0.7536,1.983336 1.4605,3.984024 2.12,6.000154 -1.90605,2.450559 -3.87387,4.819064 -5.89861,7.102349 -3.82461,1.770663 -7.67021,3.485363 -11.5356,5.143553 -4.15486,0.58122 -8.29731,1.22268 -12.42604,1.92391 -2.82295,-0.52342 -5.64232,-0.9466 -8.45244,-1.27071 z m -16.29477,7.18578 c -0.65192,-2.17892 -1.40063,-4.33573 -2.24142,-6.45784 3.77847,-3.56668 7.36599,-7.425553 10.73052,-11.555739 6.62128,-4.246206 13.13859,-8.674071 19.54408,-13.279942 7.37469,-2.746198 14.83874,-5.295871 22.38357,-7.645907 5.77106,0.811564 11.58943,1.980565 17.4176,3.514756 1.68683,4.168576 3.18886,8.410045 4.50139,12.711809 -3.54499,4.920109 -7.31531,9.552658 -11.27891,13.876753 -7.31896,3.02286 -14.70255,5.84422 -22.14296,8.46044 -7.84642,0.56654 -15.66308,1.34967 -23.44139,2.34628 -5.17199,-1.00548 -10.34199,-1.65976 -15.47248,-1.97061 z m -24.49657,9.36924 c -0.63812,-2.45373 -1.46587,-4.89432 -2.46058,-7.26104 6.62565,-5.27191 12.74025,-11.38207 18.18944,-18.229792 10.70291,-7.829303 21.07048,-16.157401 31.06497,-24.96669 11.93551,-5.842459 24.18459,-11.143919 36.70584,-15.889392 10.17194,1.163916 20.52339,3.353801 30.87359,6.607006 3.59088,8.130516 6.56797,16.518936 8.90859,25.104545 -5.95948,9.133447 -12.59562,17.451003 -19.75405,24.851993 -12.69348,4.33891 -25.53272,8.08342 -38.47997,11.21592 -13.28143,-0.37642 -26.53654,-0.11517 -39.72395,0.76876 -8.4627,-1.71718 -16.96425,-2.43849 -25.32388,-2.20131 z m -25.77835,8.094 c -0.33396,-1.63497 -0.87054,-3.34748 -1.54464,-4.96327 9.85498,-6.41474 18.74829,-14.53195 26.23683,-24.06265 14.44684,-12.048142 28.13575,-25.063003 40.95847,-38.994065 16.00884,-10.019354 32.77315,-18.987203 50.17407,-26.860525 15.13501,1.278682 30.72542,4.642251 46.25245,10.197919 6.29746,13.100005 11.17493,26.824968 14.56727,41.000632 -8.50958,14.213649 -18.4562,26.788999 -29.39678,37.437089 -18.46706,4.99882 -37.14784,8.75651 -55.93408,11.22253 -18.72708,-2.54052 -37.52321,-3.75206 -56.26953,-3.67764 -11.68298,-2.39606 -23.53726,-2.79366 -35.04406,-1.30002 z"
       sodipodi:nodetypes="sssssssss"
       inkscape:path-effect="#path-effect37"
       inkscape:original-d="m 262.46116,135.29688 c 0,31.23641 -12.66106,59.51568 -33.13122,79.98584 -20.47016,20.47016 -48.74943,33.13122 -79.98584,33.13122 -31.23641,0 -59.515677,-12.66106 -79.985838,-33.13122 -20.470161,-20.47016 -33.131219,-48.74943 -33.131219,-79.98584 0,-31.23641 12.661058,-59.515674 33.131219,-79.985835 20.470161,-20.470162 48.749428,-33.13122 79.985838,-33.131221 31.23641,-1e-6 59.51568,12.661057 79.98584,33.131219 20.47016,20.470161 33.13122,48.749427 33.13122,79.985837 z" /></g></svg>
