<?xml version="1.0" encoding="UTF-8" standalone="no"?>
<!-- Created with Inkscape (http://www.inkscape.org/) -->

<svg
   width="1080"
   height="1080"
   viewBox="0 0 285.74997 285.74997"
   version="1.1"
   id="svg1"
   inkscape:version="1.4.2 (f4327f4, 2025-05-13)"
   sodipodi:docname="27.svg"
   xml:space="preserve"
   xmlns:inkscape="http://www.inkscape.org/namespaces/inkscape"
   xmlns:sodipodi="http://sodipodi.sourceforge.net/DTD/sodipodi-0.dtd"
   xmlns="http://www.w3.org/2000/svg"
   xmlns:svg="http://www.w3.org/2000/svg"><sodipodi:namedview
     id="namedview1"
     pagecolor="#ffffff"
     bordercolor="#000000"
     borderopacity="0.25"
     inkscape:showpageshadow="2"
     inkscape:pageopacity="0.0"
     inkscape:pagecheckerboard="0"
     inkscape:deskcolor="#3c3c3c"
     inkscape:document-units="px"
     inkscape:zoom="0.58042029"
     inkscape:cx="241.20452"
     inkscape:cy="595.25831"
     inkscape:window-width="1920"
     inkscape:window-height="991"
     inkscape:window-x="-9"
     inkscape:window-y="-9"
     inkscape:window-maximized="1"
     inkscape:current-layer="layer1"
     showguides="true" /><defs
     id="defs1"><inkscape:path-effect
       effect="fillet_chamfer"
       id="path-effect44"
       is_visible="true"
       lpeversion="1"
       nodesatellites_param="F,0,0,1,0,0,0,1 @ F,0,0,1,0,23.973396,0,1 @ F,0,0,1,0,0,0,1"
       radius="0"
       unit="px"
       method="auto"
       mode="F"
       chamfer_steps="1"
       flexible="false"
       use_knot_distance="true"
       apply_no_radius="true"
       apply_with_radius="true"
       only_selected="false"
       hide_knots="false" /><inkscape:path-effect
       effect="fillet_chamfer"
       id="path-effect13"
       is_visible="true"
       lpeversion="1"
       nodesatellites_param="F,0,0,1,0,0,0,1 @ F,0,0,1,0,61.00658,0,1 @ F,0,1,1,0,61.00658,0,1 @ F,0,0,1,0,0,0,1"
       radius="0"
       unit="px"
       method="auto"
       mode="F"
       chamfer_steps="1"
       flexible="false"
       use_knot_distance="true"
       apply_no_radius="true"
       apply_with_radius="true"
       only_selected="false"
       hide_knots="false" /><inkscape:path-effect
       effect="fillet_chamfer"
       id="path-effect12"
       is_visible="true"
       lpeversion="1"
       nodesatellites_param="F,0,0,1,0,0,0,1 @ F,0,0,1,0,11.839417,0,1 @ F,0,1,1,0,11.839417,0,1 @ F,0,0,1,0,0,0,1"
       radius="0"
       unit="px"
       method="auto"
       mode="F"
       chamfer_steps="1"
       flexible="false"
       use_knot_distance="true"
       apply_no_radius="true"
       apply_with_radius="true"
       only_selected="false"
       hide_knots="false" /><inkscape:path-effect
       effect="fillet_chamfer"
       id="path-effect11"
       is_visible="true"
       lpeversion="1"
       nodesatellites_param="F,0,0,1,0,0,0,1 @ F,0,0,1,0,12.484083,0,1 @ F,0,1,1,0,12.484083,0,1 @ F,0,0,1,0,0,0,1"
       radius="0"
       unit="px"
       method="auto"
       mode="F"
       chamfer_steps="1"
       flexible="false"
       use_knot_distance="true"
       apply_no_radius="true"
       apply_with_radius="true"
       only_selected="false"
       hide_knots="false" /><inkscape:path-effect
       effect="fillet_chamfer"
       id="path-effect10"
       is_visible="true"
       lpeversion="1"
       nodesatellites_param="F,0,0,1,0,0,0,1 @ F,0,0,1,0,11.836638,0,1 @ F,0,1,1,0,11.836638,0,1 @ F,0,0,1,0,0,0,1"
       radius="0"
       unit="px"
       method="auto"
       mode="F"
       chamfer_steps="1"
       flexible="false"
       use_knot_distance="true"
       apply_no_radius="true"
       apply_with_radius="true"
       only_selected="false"
       hide_knots="false" /><inkscape:path-effect
       effect="fillet_chamfer"
       id="path-effect9"
       is_visible="true"
       lpeversion="1"
       nodesatellites_param="F,0,0,1,0,0,0,1 @ F,0,0,1,0,12.45879,0,1 @ F,0,1,1,0,12.45879,0,1 @ F,0,0,1,0,0,0,1"
       radius="0"
       unit="px"
       method="auto"
       mode="F"
       chamfer_steps="1"
       flexible="false"
       use_knot_distance="true"
       apply_no_radius="true"
       apply_with_radius="true"
       only_selected="false"
       hide_knots="false" /><inkscape:path-effect
       effect="fillet_chamfer"
       id="path-effect8"
       is_visible="true"
       lpeversion="1"
       nodesatellites_param="F,0,0,1,0,0,0,1 @ F,0,0,1,0,8.0758933,0,1 @ F,0,0,1,0,16.1919,0,1 @ F,0,0,1,0,0,0,1"
       radius="0"
       unit="px"
       method="auto"
       mode="F"
       chamfer_steps="1"
       flexible="false"
       use_knot_distance="true"
       apply_no_radius="true"
       apply_with_radius="true"
       only_selected="false"
       hide_knots="false" /><inkscape:path-effect
       effect="fillet_chamfer"
       id="path-effect1"
       is_visible="true"
       lpeversion="1"
       nodesatellites_param="C,0,0,1,0,45.584779,0,1 @ F,0,0,1,0,37.379523,0,1 @ F,0,0,1,0,82.964302,0,1 @ F,0,0,1,0,0,0,1"
       radius="0"
       unit="px"
       method="auto"
       mode="F"
       chamfer_steps="1"
       flexible="false"
       use_knot_distance="true"
       apply_no_radius="true"
       apply_with_radius="true"
       only_selected="false"
       hide_knots="false" /></defs><g
     inkscape:label="Capa1"
     inkscape:groupmode="layer"
     id="layer1"
     style="display:inline;opacity:1;mix-blend-mode:multiply"><g
       id="g7"
       transform="matrix(1.0772279,0,0,1.0772279,-16.547277,-31.912184)"
       style="stroke-width:0.928309"><path
         style="baseline-shift:baseline;display:inline;overflow:visible;mix-blend-mode:normal;vector-effect:none;stroke-width:0.928307;stroke-linecap:round;stroke-linejoin:round;stroke-miterlimit:4.7;enable-background:accumulate;stop-color:#000000"
         d="m 193.52417,108.12155 c -6.9488,-0.13606 -12.71056,5.4025 -12.84662,12.3513 l -0.37268,19.03415 c -0.009,0.42594 0.32975,0.77815 0.75571,0.78587 0.42519,0.008 0.77621,-0.33054 0.78392,-0.75573 l 0.37269,-19.03415 c 0.11976,-6.11687 5.15997,-10.96158 11.27684,-10.84181 l 1.23716,0.0242 c 6.11686,0.11976 10.96162,5.15802 10.84185,11.27489 l -0.71528,36.53201 c -0.009,0.42594 0.32973,0.77816 0.75569,0.78588 0.4252,0.008 0.77622,-0.33053 0.78393,-0.75573 l 0.71528,-36.53202 c 0.13606,-6.9488 -5.40253,-12.7086 -12.35132,-12.84466 z"
         id="path3"
         sodipodi:nodetypes="sscccsssscccsss" /><path
         style="baseline-shift:baseline;display:inline;overflow:visible;mix-blend-mode:normal;vector-effect:none;stroke-width:0.928307;stroke-linecap:round;stroke-linejoin:round;stroke-miterlimit:4.7;enable-background:accumulate;stop-color:#000000"
         d="m 90.164444,154.27795 c -0.438127,-0.009 -0.800716,0.33859 -0.809716,0.77672 l -0.465896,23.7949 c -0.667494,34.09119 17.449048,62.28646 51.540218,62.95395 l 2.5719,0.0504 c 34.09119,0.6675 62.28645,-26.44488 62.95394,-60.53607 l 0.4659,-23.7949 c 0.008,-0.43738 -0.33937,-0.79879 -0.77674,-0.80778 -0.43813,-0.009 -0.80072,0.33859 -0.80972,0.77672 l -0.4659,23.79491 c -0.6507,33.234 -28.1024,59.63137 -61.33642,58.98066 l -2.57189,-0.0503 c -33.23401,-0.6508 -50.635536,-28.10251 -49.98483,-61.33652 l 0.465893,-23.79492 c 0.0081,-0.43738 -0.339375,-0.79878 -0.776739,-0.80777 z"
         id="path2"
         sodipodi:nodetypes="ccsssscccsscscc" /><path
         style="baseline-shift:baseline;display:inline;overflow:visible;mix-blend-mode:normal;vector-effect:none;stroke-width:0.928307;stroke-linecap:round;stroke-linejoin:round;stroke-miterlimit:4.7;enable-background:accumulate;stop-color:#000000"
         d="m 106.22294,155.03687 a 0.79318557,0.79318557 0 0 0 -0.8078,0.77871 0.79318557,0.79318557 0 0 0 0.77674,0.80774 c 9.46467,0.18532 17.95222,4.95487 24.04965,12.57984 a 0.79318557,0.79318557 0 0 0 1.1142,0.12333 0.79318557,0.79318557 0 0 0 0.12528,-1.11417 c -6.34522,-7.93482 -15.27844,-12.98005 -25.25807,-13.17545 z"
         id="path1" /><path
         style="baseline-shift:baseline;display:inline;overflow:visible;mix-blend-mode:normal;vector-effect:none;stroke-width:0.9283;stroke-linecap:round;stroke-linejoin:round;stroke-miterlimit:4.7;enable-background:accumulate;stop-color:#000000"
         d="m 169.4323,98.67813 c -7.36207,-0.143022 -13.49266,5.67767 -13.6076,12.98269 l -0.41018,26.07691 c -0.008,0.42443 0.33196,0.77512 0.75976,0.78389 0.42774,0.008 0.78115,-0.32936 0.79,-0.75378 l 0.41018,-26.07691 c 0.10181,-6.47237 5.50283,-11.6008 12.02554,-11.47515 6.50931,0.13956 11.64195,5.47186 11.51447,11.9305 l -3e-5,0.002 -0.52799,26.75641 c -0.008,0.42521 0.33313,0.77623 0.76171,0.78394 0.42779,0.008 0.78121,-0.32937 0.79006,-0.75379 l 0.52798,-26.75446 1e-5,-0.002 c 0.14385,-7.28967 -5.68455,-13.357473 -13.0319,-13.500208 l -0.002,-2.5e-5 z"
         id="path4"
         sodipodi:nodetypes="cscccscscccccsscc" /><path
         id="path10"
         style="baseline-shift:baseline;display:inline;overflow:visible;mix-blend-mode:normal;vector-effect:none;stroke-width:0.928307;stroke-linecap:round;stroke-linejoin:round;stroke-miterlimit:4.7;enable-background:accumulate;stop-color:#000000"
         d="M 167.77726,151.0078 C 160.83,150.87178 155.29207,145.11265 155.4281,138.16539 l 0.0266,-1.35677 1.53967,0.0302 -0.0266,1.35677 c -0.11973,6.11532 4.72431,11.15286 10.83965,11.2726 l 1.2431,0.0243 c 6.11534,0.11974 11.15337,-4.7243 11.2731,-10.83964 l 0.0266,-1.35677 1.53759,0.0301 -0.0266,1.35677 c -0.13603,6.94726 -5.89357,12.48523 -12.84085,12.3492 z" /><path
         id="path11"
         style="baseline-shift:baseline;display:inline;overflow:visible;mix-blend-mode:normal;vector-effect:none;stroke-width:0.928307;stroke-linecap:round;stroke-linejoin:round;stroke-miterlimit:4.7;enable-background:accumulate;stop-color:#000000"
         d="m 192.67275,151.49525 c -6.94727,-0.13603 -12.48519,-5.89515 -12.34917,-12.84241 l 0.0266,-1.35677 1.53966,0.0302 -0.0266,1.35677 c -0.11974,6.11532 4.72431,11.15285 10.83965,11.27259 l 1.2431,0.0243 c 6.11533,0.11974 11.15337,-4.72431 11.2731,-10.83963 l 0.0266,-1.35677 1.5376,0.0301 -0.0266,1.35677 c -0.13603,6.94725 -5.89358,12.48522 -12.84085,12.34919 z" /><path
         id="path9"
         style="baseline-shift:baseline;display:inline;overflow:visible;mix-blend-mode:normal;vector-effect:none;fill:none;stroke-width:0.928307;stroke-linecap:round;stroke-linejoin:round;stroke-miterlimit:4.7;enable-background:accumulate;stop-color:#000000"
         d="m 132.5938,111.06895 1.12603,-57.510433 c 0.11974,-6.115334 5.15757,-10.959677 11.27291,-10.839941 l 1.24302,0.02434 c 6.11533,0.119738 10.95967,5.15757 10.83994,11.272903 l -1.63592,83.551961 c -0.008,0.42443 0.32936,0.77512 0.75378,0.78389 0.42443,0.008 0.77512,-0.32937 0.7839,-0.75379 l 1.63591,-83.551954 c 0.13602,-6.947264 -5.4002,-12.70661 -12.34747,-12.842635 l -1.24301,-0.02434 v 0 c -6.94727,-0.136026 -12.70665,5.402157 -12.84268,12.349422 l -1.02137,52.165217" /><path
         id="path19"
         style="baseline-shift:baseline;display:inline;overflow:visible;mix-blend-mode:normal;vector-effect:none;fill:none;stroke-width:0.928307;stroke-linecap:round;stroke-linejoin:round;stroke-miterlimit:4.7;enable-background:accumulate;stop-color:#000000"
         d="m 132.59378,111.06945 2e-5,-5e-4" /><path
         id="path18"
         style="baseline-shift:baseline;display:inline;overflow:visible;mix-blend-mode:normal;vector-effect:none;fill:none;stroke-width:0.928307;stroke-linecap:round;stroke-linejoin:round;stroke-miterlimit:4.7;enable-background:accumulate;stop-color:#000000"
         d="m 132.58546,111.49468 0.008,-0.42523" /><path
         id="path17"
         style="baseline-shift:baseline;display:inline;overflow:visible;mix-blend-mode:normal;vector-effect:none;fill:none;stroke-width:0.928307;stroke-linecap:round;stroke-linejoin:round;stroke-miterlimit:4.7;enable-background:accumulate;stop-color:#000000"
         d="m 132.58545,111.49531 1e-5,-6.3e-4" /><path
         id="path16"
         style="baseline-shift:baseline;display:inline;overflow:visible;mix-blend-mode:normal;vector-effect:none;fill:none;stroke-width:0.928307;stroke-linecap:round;stroke-linejoin:round;stroke-miterlimit:4.7;enable-background:accumulate;stop-color:#000000"
         d="m 131.04989,111.25763 -0.32344,16.51955 c -0.009,0.42517 0.32856,0.77704 0.75374,0.78584 0.42594,0.009 0.77816,-0.32974 0.78587,-0.7557 l 0.31939,-16.31201" /><path
         id="path15"
         style="baseline-shift:baseline;display:inline;overflow:visible;mix-blend-mode:normal;vector-effect:none;fill:none;stroke-width:0.928307;stroke-linecap:round;stroke-linejoin:round;stroke-miterlimit:4.7;enable-background:accumulate;stop-color:#000000"
         d="m 131.15884,105.69359 -0.10895,5.56404" /><path
         id="path25"
         style="baseline-shift:baseline;display:inline;overflow:visible;mix-blend-mode:normal;vector-effect:none;fill:none;stroke-width:0.928307;stroke-linecap:round;stroke-linejoin:round;stroke-miterlimit:4.7;enable-background:accumulate;stop-color:#000000"
         d="M 131.1589,105.69374 116.69722,51.513604 C 114.81668,44.46831 107.5596,40.270696 100.51428,42.15122 v 0 c -7.045288,1.880519 -11.220025,9.129543 -9.362874,16.181035 L 110.06585,130.1493 c 0.10879,0.41113 0.53078,0.65578 0.94178,0.54656 0.41185,-0.10896 0.6565,-0.53221 0.54604,-0.94368 L 92.639224,57.935129 c -1.6452,-6.246849 2.03085,-12.630151 8.272206,-14.296082 6.24135,-1.665934 12.63203,2.030331 14.29796,8.271686 l 15.84073,59.346657" /><path
         id="path30"
         style="baseline-shift:baseline;display:inline;overflow:visible;mix-blend-mode:normal;vector-effect:none;fill:none;stroke-width:0.928307;stroke-linecap:round;stroke-linejoin:round;stroke-miterlimit:4.7;enable-background:accumulate;stop-color:#000000"
         d="m 132.59365,111.069 -1.43475,-5.37526" /><path
         id="path29"
         style="baseline-shift:baseline;display:inline;overflow:visible;mix-blend-mode:normal;vector-effect:none;fill:none;stroke-width:0.928307;stroke-linecap:round;stroke-linejoin:round;stroke-miterlimit:4.7;enable-background:accumulate;stop-color:#000000"
         d="m 132.59379,111.0695 v 0 l -1.4e-4,-5e-4" /><path
         id="path28"
         style="baseline-shift:baseline;display:inline;overflow:visible;mix-blend-mode:normal;vector-effect:none;fill:none;stroke-width:0.928307;stroke-linecap:round;stroke-linejoin:round;stroke-miterlimit:4.7;enable-background:accumulate;stop-color:#000000"
         d="m 132.58547,111.49442 c 0.0413,-0.13352 0.0469,-0.2799 0.008,-0.42492" /><path
         id="path27"
         style="baseline-shift:baseline;display:inline;overflow:visible;mix-blend-mode:normal;vector-effect:none;fill:none;stroke-width:0.928307;stroke-linecap:round;stroke-linejoin:round;stroke-miterlimit:4.7;enable-background:accumulate;stop-color:#000000"
         d="m 132.58525,111.49511 2.2e-4,-6.9e-4" /><path
         id="path26"
         style="baseline-shift:baseline;display:inline;overflow:visible;mix-blend-mode:normal;vector-effect:none;fill:none;stroke-width:0.928307;stroke-linecap:round;stroke-linejoin:round;stroke-miterlimit:4.7;enable-background:accumulate;stop-color:#000000"
         d="m 131.05012,111.25739 0.0559,0.20923 c 0.10957,0.41012 0.53101,0.65369 0.94127,0.54468 0.26581,-0.0703 0.46203,-0.27162 0.53801,-0.51619" /><path
         id="path31"
         style="baseline-shift:baseline;display:inline;overflow:visible;mix-blend-mode:normal;vector-effect:none;fill:none;stroke-width:0.928307;stroke-linecap:round;stroke-linejoin:round;stroke-miterlimit:4.7;enable-background:accumulate;stop-color:#000000"
         d="m 132.5938,111.06895 1.12603,-57.510433 c 0.11974,-6.115334 5.15757,-10.959677 11.27291,-10.839941 l 1.24302,0.02434 c 6.11533,0.119738 10.95967,5.15757 10.83994,11.272903 l -1.63592,83.551961 c -0.008,0.42443 0.32936,0.77512 0.75378,0.78389 0.42443,0.008 0.77512,-0.32937 0.7839,-0.75379 l 1.63591,-83.551954 c 0.13602,-6.947264 -5.4002,-12.70661 -12.34747,-12.842635 l -1.24301,-0.02434 v 0 c -6.94727,-0.136026 -12.70665,5.402157 -12.84268,12.349422 l -1.02137,52.165217" /><path
         id="path43"
         style="baseline-shift:baseline;display:inline;overflow:visible;mix-blend-mode:normal;vector-effect:none;fill:none;stroke-width:0.928307;stroke-linecap:round;stroke-linejoin:round;stroke-miterlimit:4.7;enable-background:accumulate;stop-color:#000000"
         d="m 132.59378,111.06945 2e-5,-5e-4" /><path
         id="path42"
         style="baseline-shift:baseline;display:inline;overflow:visible;mix-blend-mode:normal;vector-effect:none;fill:none;stroke-width:0.928307;stroke-linecap:round;stroke-linejoin:round;stroke-miterlimit:4.7;enable-background:accumulate;stop-color:#000000"
         d="m 132.58546,111.49468 0.008,-0.42523" /><path
         id="path41"
         style="baseline-shift:baseline;display:inline;overflow:visible;mix-blend-mode:normal;vector-effect:none;fill:none;stroke-width:0.928307;stroke-linecap:round;stroke-linejoin:round;stroke-miterlimit:4.7;enable-background:accumulate;stop-color:#000000"
         d="m 132.58545,111.49531 1e-5,-6.3e-4" /><path
         id="path40"
         style="baseline-shift:baseline;display:inline;overflow:visible;mix-blend-mode:normal;vector-effect:none;fill:none;stroke-width:0.928307;stroke-linecap:round;stroke-linejoin:round;stroke-miterlimit:4.7;enable-background:accumulate;stop-color:#000000"
         d="m 131.04989,111.25763 -0.32344,16.51955 c -0.009,0.42517 0.32856,0.77704 0.75374,0.78584 0.42594,0.009 0.77816,-0.32974 0.78587,-0.7557 l 0.31939,-16.31201" /><path
         id="path39"
         style="baseline-shift:baseline;display:inline;overflow:visible;mix-blend-mode:normal;vector-effect:none;fill:none;stroke-width:0.928307;stroke-linecap:round;stroke-linejoin:round;stroke-miterlimit:4.7;enable-background:accumulate;stop-color:#000000"
         d="m 131.15884,105.69359 -0.10895,5.56404" /><path
         style="baseline-shift:baseline;display:inline;overflow:visible;opacity:1;mix-blend-mode:normal;vector-effect:none;stroke-width:0.928309;stroke-linecap:round;stroke-linejoin:round;stroke-miterlimit:4.7;enable-background:accumulate;stop-color:#000000;stop-opacity:1"
         d="m 114.52904,129.63672 c -13.73032,0 -24.942191,11.02171 -25.177739,24.75 l -0.01172,0.64258 c -0.0072,0.43855 0.342696,0.79979 0.78125,0.80664 0.437801,0.007 0.798729,-0.34151 0.806641,-0.7793 l 0.01172,-0.64258 c 0.220996,-12.8801 10.707848,-23.18945 23.589848,-23.18945 h 0.37305 c 0.43776,-4.3e-4 0.79254,-0.3552 0.79297,-0.79297 6.4e-4,-0.43853 -0.35444,-0.79449 -0.79297,-0.79492 z"
         id="path44"
         sodipodi:nodetypes="scccccscccs" /><path
         style="baseline-shift:baseline;display:inline;overflow:visible;mix-blend-mode:normal;vector-effect:none;stroke-width:0.928303;stroke-linecap:round;stroke-linejoin:round;stroke-miterlimit:4.7;enable-background:accumulate;stop-color:#000000"
         d="m 155.98407,139.53783 c 0.0963,-4.91599 -3.79098,-8.99492 -8.66312,-9.09031 l -32.0101,-0.80288 c -0.42594,-0.009 -0.77822,0.33285 -0.78601,0.76265 -0.008,0.42902 0.3304,0.78314 0.7556,0.79085 l 32.01009,0.80288 c 4.0402,0.0791 7.23546,3.43018 7.15587,7.5067 l -0.0128,0.65565 c -0.1678,8.59522 -7.19385,15.41183 -15.71235,15.24503 l -32.89801,-0.64413 c -0.42518,-0.009 -0.77712,0.33165 -0.78599,0.76066 -0.009,0.42977 0.32961,0.78508 0.75557,0.7928 l 32.89801,0.64413 c 9.35044,0.18308 17.09626,-7.33376 17.28044,-16.76837 z"
         id="path47"
         sodipodi:nodetypes="ccccccssccccssc" /><path
         id="path48"
         style="baseline-shift:baseline;display:inline;overflow:visible;mix-blend-mode:normal;vector-effect:none;fill:none;stroke-width:0.928307;stroke-linecap:round;stroke-linejoin:round;stroke-miterlimit:4.7;enable-background:accumulate;stop-color:#000000"
         d="m 157.09131,131.78279 0.40013,-20.43591 c 0.12671,-6.47192 5.45979,-11.600788 11.93148,-11.475142 6.45837,0.139552 11.55086,5.471852 11.4244,11.930492 l -3e-5,0.002 -0.52387,26.75641 c -0.008,0.42521 0.33053,0.77623 0.75575,0.78394 0.42444,0.008 0.77511,-0.32937 0.78389,-0.75379 l 0.52384,-26.75446 1e-5,-0.002 c 0.14274,-7.28967 -5.64007,-13.357452 -12.92998,-13.500187 l -0.002,-2.5e-5 4e-5,-1.7e-5 v 0 c -7.3045,-0.143022 -13.35819,5.678159 -13.5012,12.982669 l -0.38582,19.7052" /><path
         id="path49"
         style="baseline-shift:baseline;display:inline;overflow:visible;mix-blend-mode:normal;vector-effect:none;fill:none;stroke-width:0.928307;stroke-linecap:round;stroke-linejoin:round;stroke-miterlimit:4.7;enable-background:accumulate;stop-color:#000000"
         d="m 155.56795,131.02197 -0.0212,1.08004 c -0.008,0.42443 0.32936,0.77512 0.75378,0.78389 0.42443,0.008 0.77511,-0.32936 0.78389,-0.75378 l 0.007,-0.34933" /><path
         style="baseline-shift:baseline;display:inline;overflow:visible;mix-blend-mode:normal;vector-effect:none;stroke-width:0.9283;stroke-linecap:round;stroke-linejoin:round;stroke-miterlimit:4.7;enable-background:accumulate;stop-color:#000000"
         d="m 143.64565,97.388798 c -7.36207,-0.143022 -13.45969,5.678262 -13.6076,12.982692 l -0.41018,20.25608 c -0.008,0.42443 0.33196,0.77512 0.75976,0.78389 0.42774,0.008 0.78115,-0.32936 0.79,-0.75378 l 0.41018,-20.25608 c 0.13105,-6.47184 5.50283,-11.600802 12.02554,-11.475152 6.50931,0.13956 11.64195,5.471862 11.51447,11.930502 l -3e-5,0.002 -0.52799,26.75641 c -0.008,0.42521 0.33313,0.77623 0.76171,0.78394 0.42779,0.008 0.78121,-0.32937 0.79006,-0.75379 l 0.52798,-26.75446 1e-5,-0.002 c 0.14385,-7.28967 -5.68455,-13.357475 -13.0319,-13.50021 l -0.002,-2.5e-5 z"
         id="path6"
         sodipodi:nodetypes="cscccscscccccsscc" /><path
         style="baseline-shift:baseline;display:inline;overflow:visible;mix-blend-mode:normal;vector-effect:none;stroke-width:0.9283;stroke-linecap:round;stroke-linejoin:round;stroke-miterlimit:4.7;enable-background:accumulate;stop-color:#000000"
         d="m 118.61935,95.895366 c -7.36207,-0.143022 -13.47677,5.677944 -13.6076,12.982694 l -0.41018,22.90191 c -0.008,0.42443 0.33196,0.77512 0.75976,0.78389 0.42774,0.008 0.78115,-0.32936 0.79,-0.75378 l 0.41018,-22.90191 c 0.11592,-6.47213 5.50283,-11.600804 12.02554,-11.475154 6.50931,0.13956 11.64195,5.471864 11.51447,11.930504 l -3e-5,0.002 -0.52799,20.93558 c -0.008,0.42521 0.33313,0.77623 0.76171,0.78394 0.42779,0.008 0.78121,-0.32937 0.79006,-0.75379 l 0.52798,-20.93363 10e-6,-0.002 c 0.14385,-7.28967 -5.68455,-13.357477 -13.0319,-13.500212 l -0.002,-2.5e-5 z"
         id="path7"
         sodipodi:nodetypes="cscccscscccccsscc" /></g></g></svg>
