<?xml version="1.0" encoding="UTF-8" standalone="no"?>
<!-- Created with Inkscape (http://www.inkscape.org/) -->

<svg
   width="1280.0002"
   height="853.33679"
   viewBox="0 0 1280.0001 853.33686"
   version="1.1"
   id="svg5"
   inkscape:version="1.4.2 (f4327f4, 2025-05-13)"
   xml:space="preserve"
   sodipodi:docname="7.svg"
   xmlns:inkscape="http://www.inkscape.org/namespaces/inkscape"
   xmlns:sodipodi="http://sodipodi.sourceforge.net/DTD/sodipodi-0.dtd"
   xmlns="http://www.w3.org/2000/svg"
   xmlns:svg="http://www.w3.org/2000/svg"><sodipodi:namedview
     id="namedview7"
     pagecolor="#ffffff"
     bordercolor="#666666"
     borderopacity="1.0"
     inkscape:showpageshadow="2"
     inkscape:pageopacity="0.0"
     inkscape:pagecheckerboard="0"
     inkscape:deskcolor="#d1d1d1"
     inkscape:document-units="px"
     showgrid="false"
     showborder="false"
     inkscape:zoom="0.2595974"
     inkscape:cx="926.43455"
     inkscape:cy="159.86293"
     inkscape:window-width="1728"
     inkscape:window-height="1033"
     inkscape:window-x="0"
     inkscape:window-y="0"
     inkscape:window-maximized="0"
     inkscape:current-layer="layer1" /><defs
     id="defs2"><clipPath
       clipPathUnits="userSpaceOnUse"
       id="clipPath8006"><path
         inkscape:connector-curvature="0"
         id="path8008"
         d="m -1244.8456,-140.77945 h 33.9355 c 11.5456,0 20.8405,9.29479 20.8405,20.84039 v 31.873282 c 0,11.545575 -9.2949,20.840392 -20.8405,20.840392 h -33.9355 c -11.5456,0 -20.8405,-9.294817 -20.8405,-20.840392 v -31.873282 c 0,-11.5456 9.2949,-20.84039 20.8405,-20.84039 z"
         style="opacity:0.521;fill:#ff0000;fill-opacity:1;stroke:none;stroke-width:1.61448;stroke-linecap:round;stroke-linejoin:round;stroke-miterlimit:4;stroke-dasharray:none" /></clipPath><clipPath
       clipPathUnits="userSpaceOnUse"
       id="clipPath8001"><path
         style="opacity:0.521;fill:#ff0000;fill-opacity:1;stroke:none;stroke-width:1.59706;stroke-linecap:round;stroke-linejoin:round;stroke-miterlimit:4;stroke-dasharray:none"
         d="m -2936.6731,-1508.8075 h 33.5693 c 11.421,0 20.6155,9.1945 20.6155,20.6155 v 31.5293 c 0,11.421 -9.1945,20.6155 -20.6155,20.6155 h -33.5693 c -11.421,0 -20.6156,-9.1945 -20.6156,-20.6155 v -31.5293 c 0,-11.421 9.1946,-20.6155 20.6156,-20.6155 z"
         id="path8003"
         inkscape:connector-curvature="0" /></clipPath></defs><g
     inkscape:label="Layer 1"
     inkscape:groupmode="layer"
     id="layer1"
     transform="translate(2613.0342,-243.894)"><path
       style="fill:#000000;stroke-width:0.999996"
       d="m -2613.0342,1045.6659 v -51.56271 l 11.875,-1.96495 c 10.4233,-1.72476 14.5238,-1.95823 33.5417,-1.90968 17.8246,0.046 23.7355,0.3739 33.3335,1.85175 15.6036,2.40263 26.6666,5.21108 26.6666,6.7695 0,1.58959 -11.6219,6.50379 -27.7522,11.73469 -15.4341,5.0053 -20.9978,7.329 -20.9978,8.7703 0,1.5613 8.0574,4.3542 16.4968,5.7183 3.9892,0.6448 14.6529,1.8459 23.697,2.669 l 16.4437,1.4967 9.3897,-2.7878 c 23.8052,-7.0678 40.2471,-11.2459 60.9091,-15.4776 22.7304,-4.6555 32.8015,-5.6869 34.5309,-3.5364 0.4608,0.5729 3.1582,8.5215 5.9945,17.6636 2.8361,9.142 5.6776,17.5796 6.3142,18.75 1.1261,2.0704 1.1585,2.0209 1.191,-1.8217 0.019,-2.1724 -0.9366,-12.2975 -2.1221,-22.5001 -1.602,-13.7878 -2.5113,-18.9577 -3.5416,-20.13741 -1.7516,-2.00555 -12.4597,-7.04886 -22.2197,-10.46505 -8.3397,-2.91909 -9.7983,-3.85297 -7.9098,-5.06445 2.6775,-1.71742 34.1238,-11.52318 58.4234,-18.21768 16.3048,-4.492 58.0561,-15.08236 59.4603,-15.08236 0.7736,0 2.7991,6.88658 6.5565,22.29173 2.9904,12.26047 5.6805,23.51047 5.978,25.00009 1.0644,5.32963 1.8371,2.56663 1.5151,-5.41669 -0.6354,-15.73856 -2.9626,-45.59819 -3.7066,-47.55501 -0.4142,-1.08908 -2.0963,-3.61958 -3.7382,-5.62327 -1.6419,-2.00378 -2.8552,-4.03338 -2.6963,-4.5104 0.1591,-0.47685 5.7256,-3.23507 12.3702,-6.12922 12.5418,-5.46277 20.4752,-9.93903 28.3688,-16.00678 6.2636,-4.81462 7.2958,-6.10136 5.742,-7.1572 -2.3327,-1.58512 -46.875,-0.24585 -69.9466,2.10318 -60.8541,6.19581 -75.6744,8.25804 -111.58,15.52578 -13.0628,2.64406 -13.5879,2.82659 -11.9486,4.15401 0.9906,0.8022 7.4631,2.52767 15.3299,4.0867 18.463,3.65894 34.7538,7.54914 35.2976,8.42908 1.1575,1.87298 -7.7333,3.85315 -31.6651,7.05257 -20.2561,2.708 -32.2145,4.72177 -50.8507,8.56315 l -15,3.0918 -32.5001,-0.0663 c -31.1969,-0.0646 -45.4895,-0.90576 -47.374,-2.79024 -1.2916,-1.29161 2.1656,-2.33187 18.2073,-5.47886 10.9928,-2.15651 41.4615,-6.7335 46.9243,-7.04895 0.1416,-0.009 0.057,-0.33942 -0.1881,-0.73596 -0.5005,-0.80981 -1.4174,-0.98482 -20.0695,-3.83104 -7.3333,-1.11898 -18.9583,-2.49893 -25.8333,-3.06669 -14.2821,-1.17929 -46.866,-1.45149 -56.4584,-0.47154 l -6.4584,0.65974 V 910.6127 885.59369 l 2.2916,-0.52301 c 1.2605,-0.28768 5.8542,-1.39534 10.2084,-2.46143 20.142,-4.93162 33.0102,-6.66258 77.0835,-10.36883 37.9943,-3.19501 65.4168,-6.18962 65.4168,-7.14375 0,-0.15388 -1.8365,-2.70605 -4.081,-5.67139 -6.5702,-8.68067 -10.9191,-22.54696 -10.9191,-34.81592 v -7.30541 l -3.1249,-0.50452 c -11.3761,-1.83717 -16.0039,-3.62587 -23.25,-8.98649 -9.6186,-7.11599 -15.929,-19.58021 -19.02,-37.56866 -2.2432,-13.05347 -1.4604,-36.54962 1.7041,-51.1592 1.1533,-5.32481 1.8418,-6.63914 5.6753,-10.83338 4.2176,-4.61449 4.3245,-4.8507 3.2125,-7.0952 -2.1346,-4.30886 -2.9471,-12.84512 -1.9572,-20.56388 0.9737,-7.59292 5.6008,-22.7539 9.0003,-29.49041 1.122,-2.22354 1.8592,-4.5142 1.6381,-5.09045 -0.2211,-0.57625 -1.9736,-1.29903 -3.8943,-1.60617 -10.4494,-1.6709 -16.1559,-10.68268 -17.2091,-27.17746 -1.1772,-18.43717 7.1854,-32.26472 24.8891,-41.15384 11.334,-5.69093 22.1383,-8.2477 32.7528,-7.75078 4.5834,0.21464 9.7956,0.92425 11.5828,1.57717 2.8155,1.02842 4.2624,1.02647 10.8333,-0.015 8.6488,-1.37102 29.56,-1.7489 38.834,-0.70174 l 6.25,0.70572 2.9167,-4.8599 c 1.6041,-2.67297 3.0321,-5.11804 3.1732,-5.43367 0.141,-0.31545 -1.78,-2.57109 -4.2689,-5.01236 -4.4105,-4.32619 -8.071,-11.44394 -8.071,-15.69407 0,-1.49386 -0.4636,-1.57425 -6.4583,-1.12057 -14.5152,1.09855 -28.6133,-2.6751 -29.7761,-7.9701 -0.2989,-1.36014 -0.1213,-3.26151 0.3944,-4.22519 1.7024,-3.18086 14.4452,-12.50296 23.1279,-16.91953 l 8.5378,-4.34282 v -3.65549 c 0,-2.01059 -0.4268,-6.89065 -0.9533,-10.84443 -0.7114,-5.34365 -0.7176,-8.54882 -0.024,-12.48722 2.1585,-12.25331 14.3684,-21.85831 37.2311,-29.28771 7.3292,-2.38175 9.7409,-2.75619 20.0153,-3.10746 15.9285,-0.54467 20.259,0.39761 25.3177,5.50884 3.7884,3.82759 10.7585,16.1787 13.8811,24.59797 l 1.5052,4.05796 5.4737,-0.72456 c 3.0106,-0.39858 10.3488,-0.72464 16.3071,-0.72464 8.5176,0 11.6816,0.3273 14.8013,1.53091 4.5783,1.76642 5.6155,3.25966 5.6155,8.08436 0,3.14185 -0.4655,3.92584 -4.8564,8.17986 -2.671,2.58772 -8.297,6.76746 -12.5023,9.28823 -16.2955,9.76826 -15.1414,8.85764 -15.1414,11.94767 0,2.90671 2.4293,8.14909 7.7639,16.75345 1.6881,2.72303 3.0695,5.8456 3.0695,6.93911 0,1.94196 -3.509,6.22393 -5.6986,6.95388 -0.8305,0.27681 -1.2169,4.008 -1.5807,15.26906 -0.4703,14.55581 -0.5319,14.9582 -2.6428,17.29272 -2.4196,2.67572 -8.1292,3.99757 -17.3051,4.00614 -5.0772,0.009 -5.1544,0.0398 -5.9668,2.71312 -2.0867,6.86624 -2.2008,6.54743 4.2657,11.923 3.3062,2.74858 7.3241,5.51459 8.9282,6.14655 10.5418,4.15374 18.1134,8.94537 25.0627,15.86095 8.1433,8.10373 12.3037,14.78523 19.3579,31.08818 2.5153,5.81297 6.2498,12.92135 8.299,15.79622 2.0493,2.87478 5.2563,8.27387 7.1268,11.9979 2.3238,4.62643 4.4825,7.62741 6.8158,9.47545 1.8781,1.48749 3.5238,2.5657 3.657,2.39581 0.1334,-0.16979 1.2427,-3.05386 2.4656,-6.40885 1.2227,-3.35499 2.7391,-7.08441 3.3694,-8.28758 l 1.1462,-2.18755 1.6703,3.28752 c 0.9188,1.80824 3.0687,7.53897 4.7775,12.7351 1.7089,5.19595 3.372,9.13347 3.6957,8.75001 0.5088,-0.60304 2.3313,-5.18304 5.9148,-14.86411 1.1777,-3.18191 1.3248,-2.92377 6.1867,10.86213 2.0774,5.8907 4.1387,11.07189 4.5806,11.5138 0.5158,0.51576 1.2595,0.42502 2.0768,-0.25337 1.3922,-1.15532 6.0718,-15.12968 8.3848,-25.03926 0.8024,-3.43749 1.7568,-6.57705 2.1208,-6.97678 0.8622,-0.94662 3.6492,8.18835 4.9251,16.14342 1.4983,9.34138 4.2506,20.83343 4.9896,20.83343 0.3579,0 1.3074,-1.71937 2.1098,-3.82078 0.8026,-2.10132 1.7547,-3.50763 2.1158,-3.12497 0.3612,0.38266 1.2666,3.11303 2.0121,6.06767 1.3622,5.39882 1.8262,6.46907 2.5088,5.78653 0.2032,-0.20323 2.1163,-6.35951 4.2515,-13.68066 2.1352,-7.32107 4.0265,-13.46249 4.203,-13.64741 0.7793,-0.8167 3.2705,7.19991 6.3127,20.31511 1.8102,7.80331 3.6195,14.51841 4.0204,14.92247 0.78,0.78602 1.8245,-1.40595 5.0162,-10.52633 1.0826,-3.09375 2.2286,-5.62495 2.5466,-5.62495 0.318,0 1.6085,3.75719 2.868,8.3493 1.2594,4.59221 2.5872,8.53308 2.9506,8.75771 0.8065,0.49842 1.496,-1.59742 5.729,-17.41256 1.8237,-6.8138 3.4856,-12.55841 3.6929,-12.76588 0.5049,-0.50479 3.8732,8.57261 3.8732,10.43807 0,2.45622 5.7139,24.91315 7.1894,28.25611 l 1.3804,3.12727 2.9469,-9.37499 c 1.6209,-5.15633 3.2296,-9.37507 3.5749,-9.37507 0.3455,0 1.2496,2.90626 2.0091,6.45837 4.1922,19.60303 6.516,27.70834 7.9439,27.70834 0.8445,0 5.1373,-13.08495 7.825,-23.85254 1.1582,-4.6396 2.4507,-9.32714 2.8722,-10.41667 0.755,-1.95133 0.7849,-1.93736 2.0131,0.93583 0.6856,1.60422 2.2288,7.41666 3.4289,12.91675 3.8551,17.66539 4.7902,21.16276 5.9067,22.08922 1.3862,1.15046 1.6641,0.68599 3.8259,-6.39285 2.8872,-9.45431 2.7906,-9.57105 7.073,8.55227 1.2348,5.22576 2.5766,9.50136 2.9818,9.50136 1.0808,0 1.778,-2.20143 6.1401,-19.38697 2.1737,-8.56315 4.2651,-15.3758 4.6478,-15.13932 0.9115,0.56333 1.9991,4.70558 5.364,20.42875 2.82,13.17657 4.9552,19.93094 6.3008,19.93094 0.4086,0 0.7408,-0.4688 0.7381,-1.04168 -0.011,-2.29774 5.287,-19.00335 5.8282,-18.37881 0.3193,0.36877 1.4414,4.98291 2.4932,10.25377 2.2992,11.52079 5.4911,22.95589 7.0154,25.13203 1.0583,1.51092 1.153,1.47626 1.9935,-0.73119 1.2569,-3.30086 3.1237,-9.57397 5.2153,-17.52584 0.9947,-3.78125 2.083,-6.875 2.4186,-6.875 0.7776,0 2.9166,7.36033 5.0857,17.50002 2.0686,9.66912 4.2023,16.66669 5.0823,16.66669 0.361,0 1.8561,-3.93751 3.3225,-8.75001 1.4664,-4.8125 2.9359,-8.75001 3.2656,-8.75001 0.5979,0 1.7996,4.22573 4.9331,17.34606 2.1243,8.89504 4.8519,15.2258 5.8111,13.48733 0.3792,-0.6875 2.4714,-6.41583 4.6492,-12.72971 2.1778,-6.31378 4.0971,-11.34215 4.2652,-11.17403 0.1681,0.16803 1.4391,4.77137 2.8243,10.22963 3.168,12.48315 5.7325,20.34084 6.6384,20.34084 0.3854,0 1.1555,-1.4063 1.7112,-3.12505 2.7862,-8.61701 6.0142,-16.87505 6.5965,-16.87505 0.8874,0 2.1998,3.50568 3.744,10.00005 0.7083,2.97914 1.9069,7.57028 2.6633,10.20239 1.6867,5.86931 2.5895,5.43332 5.7217,-2.76326 1.2131,-3.17484 2.5209,-5.77247 2.9062,-5.77247 1.0648,0 3.9641,8.35736 5.0372,14.51983 0.5249,3.01415 1.2118,5.48018 1.5265,5.48018 0.3147,0 1.8918,-2.90626 3.5048,-6.45828 2.8782,-6.33837 2.9535,-6.42 4.0585,-4.38986 0.6192,1.13763 1.7936,4.66427 2.6097,7.83682 0.8161,3.17272 1.975,6.21323 2.5754,6.75684 0.6005,0.54362 4.298,2.00573 8.2168,3.24905 3.9189,1.2434 8.2314,3.15264 9.5834,4.24288 2.1698,1.7497 2.3116,2.12157 1.2083,3.16998 -0.6875,0.65318 -14.3481,4.45654 -30.3568,8.45189 -41.3906,10.32992 -54.5189,14.86579 -55.3381,19.11946 -0.4596,2.38653 2.6554,5.01439 17.1475,14.46623 7.4687,4.87104 13.2641,9.17158 12.8791,9.55663 -0.3851,0.38505 -8.3611,-1.90941 -17.7244,-5.09894 -26.1265,-8.89973 -32.035,-11.57305 -40.6773,-18.40454 -3.8083,-3.01018 -9.2636,-9.34934 -9.2636,-10.76431 0,-0.28388 2.8125,-0.37408 6.25,-0.20048 6.7892,0.34277 7.9028,-0.47535 3.9583,-2.90839 -2.7347,-1.68682 -12.7083,-11.21631 -12.7083,-12.1425 0,-0.35701 1.6653,-0.64911 3.7009,-0.64911 2.0353,0 3.8949,-0.31404 4.132,-0.69785 0.2372,-0.3839 -1.0849,-2.16517 -2.9381,-3.95839 -3.2506,-3.14539 -5.7149,-7.04753 -6.9274,-10.96877 -0.4811,-1.55594 -0.2646,-1.87502 1.2722,-1.87502 1.7255,0 1.76,-0.1017 0.5047,-1.48872 -2.0384,-2.25246 -4.5368,-8.45145 -5.1827,-12.85945 -0.8297,-5.66121 -2.368,-6.54026 -3.6823,-2.10415 -0.5762,1.94453 -2.3223,6.30724 -3.8801,9.69468 -1.558,3.38745 -2.8326,6.25002 -2.8326,6.36119 0,0.11116 0.7713,0.40379 1.7139,0.65026 1.6978,0.44404 1.6944,0.48711 -0.3621,4.54543 -1.142,2.25334 -3.4,5.83145 -5.0181,7.95125 -3.2847,4.30311 -2.8836,5.15802 2.0302,4.3277 2.0114,-0.33977 3.3028,-0.2333 3.3028,0.27229 0,1.0003 -7.2075,10.00208 -9.5704,11.95289 -2.1005,1.73396 -1.4807,2.38104 2.8349,2.95986 1.8712,0.25098 3.4022,0.88603 3.4022,1.41116 0,2.69234 -10.4565,13.94703 -15.2761,16.44242 -2.9643,1.53463 -3.3381,1.55762 -5.2249,0.32138 -1.1178,-0.73234 -3.1795,-2.91175 -4.5816,-4.8431 l -2.5493,-3.51169 4.2326,-0.25178 c 2.3279,-0.13858 4.2325,-0.4994 4.2325,-0.80185 0,-0.30245 -1.4771,-2.06409 -3.2825,-3.91478 -3.179,-3.25895 -9.2174,-12.4614 -9.2174,-14.0474 0,-0.4459 1.4509,-0.54857 3.3838,-0.23949 1.8611,0.29768 3.7317,0.32624 4.1568,0.0637 0.4251,-0.26275 -1.0596,-2.86851 -3.2993,-5.79069 -3.774,-4.92384 -5.4374,-8.35391 -6.0712,-12.51755 -0.209,-1.37403 0.1489,-1.61961 2.0381,-1.3987 1.2605,0.14734 2.2918,0.0958 2.2918,-0.1147 0,-0.21057 -1.1119,-2.76866 -2.4709,-5.68465 -1.359,-2.91617 -3.5774,-9.61447 -4.9298,-14.88533 -1.3524,-5.27086 -2.7443,-9.58334 -3.093,-9.58334 -0.3487,0 -1.2824,2.62504 -2.0748,5.83331 -1.7703,7.16701 -4.9529,15.71044 -7.2733,19.52458 -1.9834,3.26001 -1.734,4.22546 1.0917,4.22546 1.0916,0 2.1837,0.32155 2.4265,0.71447 0.6326,1.02347 -4.9141,9.98599 -8.4078,13.58542 -1.6281,1.67736 -2.7074,3.45863 -2.3985,3.95838 0.3088,0.49966 2.0172,0.9085 3.7964,0.9085 1.7792,0 3.4469,0.34287 3.7059,0.76188 0.784,1.26861 -4.7604,7.78959 -9.3479,10.99459 -2.3714,1.65676 -4.0719,3.25179 -3.7792,3.54451 0.2927,0.29281 2.7295,0.53238 5.4148,0.53238 h 4.8826 l -1.2495,2.41633 c -1.508,2.91608 -7.2144,7.96329 -11.5016,10.1733 -1.8037,0.92981 -3.119,2.22044 -3.1107,3.05227 0.034,3.34367 2.6868,13.92394 6.394,25.49797 l 3.9686,12.38977 -2.2719,4.06901 c -2.7593,4.94224 -2.7845,5.85215 -0.3091,11.15149 1.7904,3.83324 2.5067,4.44761 8.9501,7.67808 6.2686,3.14274 8.0976,3.63895 17.4206,4.72618 8.0721,0.94122 11.7003,1.79215 16.1194,3.78019 6.0845,2.73735 11.3807,3.39292 11.3807,1.40878 0,-3.02521 -4.5009,-16.11423 -8.2219,-23.91011 -2.2795,-4.7758 -3.8427,-8.99639 -3.4737,-9.37914 2.2373,-2.32109 13.4279,8.88584 17.9777,18.00392 l 3.0066,6.0254 -0.4662,-5.41669 c -0.5792,-6.7297 0.8241,-28.13248 2.0563,-31.36021 0.8816,-2.30905 0.9527,-2.33479 2.1078,-0.76169 1.8608,2.53421 2.8218,6.68344 4.1587,17.9552 0.6795,5.72922 1.3401,10.76245 1.4679,11.18509 0.1277,0.42245 1.6401,-2.20258 3.3608,-5.8334 3.7404,-7.89316 10.3354,-18.68497 11.4185,-18.68497 1.2031,0 1.0424,0.80556 -3.3924,17.00257 -2.2917,8.36956 -4.1667,15.54276 -4.1667,15.94045 0,0.3977 1.9083,-1.41798 4.2407,-4.03488 6.869,-7.70691 20.5331,-17.17803 23.4028,-16.22142 0.5037,0.16785 -1.652,3.17989 -4.7901,6.69335 -4.8434,5.42271 -18.1094,24.73451 -17.4692,25.43059 0.1151,0.12496 3.4043,-1.77889 7.3096,-4.23059 9.1696,-5.7569 23.9729,-10.78969 23.9729,-8.15033 0,0.64611 -5.9209,5.96517 -17.0833,15.34697 -1.8737,1.57477 -2.1868,2.19214 -1.25,2.46426 0.6875,0.19969 7.8125,1.96495 15.8333,3.92283 24.4096,5.95845 26.0879,6.99421 30.6962,18.94391 3.5652,9.24517 3.9651,13.53695 2.1559,23.14254 -1.4929,7.9262 -1.4894,8.1742 0.2477,18.1845 0.9687,5.5819 4.013,23.0863 6.7649,38.8988 2.7521,15.8126 5.2537,30.3438 5.5594,32.2918 l 0.5559,3.5417 h -329.6531 -329.6571 z m 451.6675,8.7006 c 3.8958,-0.6892 12.7083,-2.8007 19.5833,-4.6924 6.8751,-1.8916 20.3751,-5.2906 30,-7.5532 19.5378,-4.5929 25.8923,-6.3832 28.3105,-7.9761 0.9041,-0.5955 1.4216,-1.0827 1.1501,-1.0827 -0.2715,0 -4.1987,-1.0894 -8.7271,-2.4208 -4.5284,-1.3315 -11.9834,-3.4248 -16.5667,-4.6519 -7.9815,-2.1367 -10.4106,-3.2114 -9.4442,-4.1778 1.2406,-1.2406 27.9077,-6.5604 47.8465,-9.545 12.413,-1.8582 24.6006,-3.9772 27.0835,-4.7093 10.5672,-3.1154 38.7357,-16.17068 48.0561,-22.27239 7.5226,-4.92499 6.9885,-6.22924 -3.6428,-8.89575 -5.998,-1.50429 -59.7121,-10.99663 -59.9088,-10.58691 -0.5408,1.12561 -2.6878,11.94006 -2.4477,12.32865 0.1776,0.28733 2.5425,1.33167 5.2555,2.32082 2.7128,0.98924 5.4191,2.38476 6.0136,3.10118 1.9755,2.38024 1.7511,2.44224 -32.7807,9.05193 -17.4781,3.34561 -21.146,3.79159 -31.25,3.79999 -7.1538,0.009 -15.1987,0.60464 -21.4478,1.59627 -44.0549,6.99101 -53.7589,8.48161 -62.9168,9.66481 -5.7291,0.7402 -10.9791,1.5451 -11.6666,1.7889 -1.9424,0.6886 6.5756,2.6379 17.3613,3.9733 19.4661,2.4099 30.3654,5.4431 30.8166,8.5762 0.3392,2.3543 -2.2387,3.1043 -29.4279,8.5615 -11.4584,2.2998 -31.7084,6.6186 -45.0001,9.5972 -13.2916,2.9787 -27.6355,6.1889 -31.875,7.134 -4.2396,0.9451 -7.7084,2.0664 -7.7084,2.4917 0,0.4254 0.1363,0.7734 0.303,0.7734 0.1665,0 2.1843,0.3568 4.484,0.7929 7.9711,1.5116 25.7414,2.6989 48.5465,3.2433 46.2489,1.1041 52.5862,1.0797 60.0001,-0.2318 z m -78.7267,-57.30142 c -1.6889,-6.59253 -9.45,-28.33207 -10.4879,-29.37818 -1.1184,-1.12702 -1.0215,0.44139 0.943,15.25588 1.5049,11.34905 2.0558,13.57497 4.2574,17.20252 1.391,2.2916 3.3319,5.0453 4.3131,6.119 l 1.7842,1.9523 0.2583,-2.9873 c 0.142,-1.643 -0.3386,-5.31685 -1.0681,-8.16422 z m 53.2856,-27.54482 c 1.1273,-6.52443 2.0759,-14.6477 2.0912,-17.90558 0.015,-3.24162 -0.2181,-3.62843 -2.8512,-4.72858 -1.9202,-0.80228 -3.4456,-2.33125 -4.6174,-4.6281 -0.9623,-1.88652 -2.5968,-3.75198 -3.6321,-4.1457 -2.2661,-0.86145 -17.786,-3.38381 -20.8214,-3.38381 h -2.1562 l 2.9491,8.12503 c 2.6918,7.41605 3.5462,12.52206 3.6286,21.68463 0.021,2.42517 1.795,3.21022 12.6042,5.58029 12.1076,2.65476 12.2444,2.6483 12.8052,-0.59818 z m 99.1912,-3.94388 c 3.2084,-0.5016 7.2238,-0.67971 8.9232,-0.39592 1.6994,0.28387 3.8754,0.26681 4.8355,-0.038 1.4339,-0.45509 1.5626,-0.7747 0.7209,-1.78897 -1.8216,-2.1948 -5.2852,-3.49109 -12.8767,-4.81886 -4.0899,-0.71545 -7.9988,-1.30116 -8.6863,-1.30142 -1.1149,-6.2e-4 -5.8333,7.6771 -5.8333,9.49189 0,0.72438 2.169,0.53142 12.9167,-1.14878 z m -21.714,-6.03326 c 1.4001,-1.99883 1.7713,-7.75661 0.5487,-8.51221 -1.0776,-0.66592 -6.187,7.62829 -5.616,9.11658 0.7113,1.85335 3.5861,1.51039 5.0673,-0.60437 z m -15.636,-7.78138 c 2.5434,-0.51664 4.4332,-2.63114 4.4332,-4.96018 0,-3.34676 -1.5002,-3.17272 -6.7649,0.78478 -2.7868,2.09487 -5.5922,3.80884 -6.2343,3.80884 -0.6421,0 -1.1675,0.32898 -1.1675,0.73101 0,0.6821 5.6153,0.47189 9.7335,-0.36445 z m -12.3213,-26.64224 c 2.4726,-1.1509 6.2752,-3.39903 8.4502,-4.99565 l 3.9546,-2.90299 -4.0908,-13.12112 c -8.9428,-28.68379 -20.6251,-75.29474 -24.099,-96.15258 -3.4963,-20.99111 -6.4392,-29.50676 -12.4516,-36.02943 -4.5597,-4.94666 -9.193,-6.72183 -16.0525,-6.15027 -8.376,0.69794 -30.1921,8.29731 -60.9259,21.22273 l -9.0526,3.80725 0.5444,5.09036 c 0.2994,2.79979 0.7496,6.26125 1.0004,7.69223 l 0.4559,2.60178 14.719,-4.84778 c 15.9394,-5.24982 32.5158,-9.93912 35.1337,-9.93912 3.2144,0 2.8191,7.19805 -0.869,15.81983 l -1.6097,3.76356 3.532,-3.81247 c 1.9425,-2.09681 6.1158,-7.45973 9.2739,-11.9176 6.4591,-9.11746 7.7912,-9.67567 11.1847,-4.68665 1.8001,2.64653 1.9343,3.48003 1.4487,8.99719 -0.5558,6.31475 -3.5605,17.8443 -6.3422,24.33619 l -1.6068,3.75003 4.9665,-5.19993 c 3.3976,-3.55733 6.1341,-7.58868 8.663,-12.76181 2.0331,-4.15896 3.9286,-7.18621 4.2123,-6.72714 0.2838,0.45907 1.6322,8.26433 2.9965,17.34509 1.3645,9.08076 3.0213,19.51043 3.682,23.17715 4.3761,24.28579 4.9725,29.93665 5.0131,47.50008 0.022,9.625 -0.2479,18.80083 -0.6003,20.39073 -1.13,5.0984 0.8066,1.59953 2.7327,-4.93764 2.0659,-7.01101 5.8247,-26.52215 5.8247,-30.2345 0,-1.55833 0.3698,-2.31755 1.0227,-2.09991 1.1448,0.38151 2.1087,4.80339 6.0416,27.7147 2.8799,16.77689 2.8249,18.22971 -0.8049,21.24218 -0.7428,0.6164 -1.7182,1.80781 -2.1676,2.64768 -1.1365,2.12343 0.3215,1.9776 5.8203,-0.58217 z m -51.9842,-0.59933 c -4.3882,-12.95062 -21.2614,-80.964 -21.2614,-85.70159 0,-0.87463 -0.1308,-1.59025 -0.2905,-1.59025 -0.1598,0 -5.316,2.3867 -11.4583,5.30367 -6.1424,2.91696 -14.5429,6.71272 -18.6679,8.43474 -12.1099,5.05578 -47.9168,22.84879 -47.9168,23.81071 0,0.48542 0.2813,0.7096 0.625,0.49807 1.6617,-1.0225 32.0711,3.25682 43.9584,6.18608 7.976,1.96539 16.6297,5.85559 17.7554,7.98185 0.447,0.84421 1.6468,7.72248 2.6662,15.28498 1.0195,7.56258 2.1883,14.10912 2.5973,14.54794 0.5917,0.63497 27.2618,5.92405 31.3301,6.21332 0.5585,0.0398 0.8566,-0.39663 0.6625,-0.96952 z m 52.8749,-142.46054 c 0.7038,-4.53596 0.6186,-6.92204 -0.428,-11.98932 -1.8299,-8.85923 -2.19,-9.57185 -7.0365,-13.92934 -5.5765,-5.01378 -12.007,-8.87462 -20.8905,-12.54285 -7.5524,-3.11851 -32.2577,-10.63979 -48.2813,-14.69882 -14.0643,-3.56272 -16.6686,-4.66357 -20.9173,-8.84242 l -3.834,-3.77099 -2.1716,4.43877 c -1.1945,2.44144 -4.0159,6.49719 -6.2699,9.01284 l -4.0983,4.57398 2.5182,3.75003 c 3.7014,5.51194 6.4484,8.27184 10.1895,10.2368 3.1946,1.67798 4.5993,1.7566 33.7501,1.88704 32.6693,0.14609 32.4288,0.11771 40.4167,4.7681 5.3069,3.0895 8.3338,5.94677 15.8603,14.97129 l 6.0715,7.27977 0.5578,7.30355 c 0.7841,10.26677 1.2418,11.48825 2.5918,6.91612 0.6011,-2.03579 1.4883,-6.24975 1.9715,-9.36455 z m -218.378,9.23782 c 16.6056,-4.22015 27.0787,-12.67187 30.5791,-24.67694 0.6988,-2.39669 1.1525,-5.56367 1.0081,-7.03762 l -0.2624,-2.68014 -2.4023,3.64541 c -5.985,9.08191 -21.567,21.32947 -37.0236,29.10094 -3.7533,1.88704 -6.8242,3.64956 -6.8242,3.91664 0,0.71969 7.8819,-0.47817 14.9253,-2.26829 z m -85.3107,-7.03533 c 0.9911,-10.5763 -0.706,-55.36733 -2.0978,-55.36733 -1.6067,0 -4.1886,12.35536 -4.1794,20.00002 0.014,11.7883 3.6554,41.66677 5.078,41.66677 0.3349,0 0.8746,-2.83472 1.1992,-6.29946 z m 151.6356,-6.22499 c 10.5417,-3.27531 22.2571,-6.90294 26.0343,-8.06127 l 6.8677,-2.10619 -3.1177,-2.28377 c -3.689,-2.70233 -11.2639,-10.72124 -14.7843,-15.65082 -2.4382,-3.41442 -2.619,-3.50135 -7.3184,-3.52054 -7.2363,-0.0292 -9.5957,-1.41851 -15.7796,-9.28877 -3.0169,-3.83943 -6.9761,-8.41775 -8.7983,-10.17382 l -3.3131,-3.19289 0.2711,13.60956 c 0.2791,14.01008 -0.2883,19.68774 -3.096,30.98134 -1.2152,4.88847 -1.4244,7.20168 -0.8289,9.16664 0.4383,1.44566 1.035,3.69891 1.326,5.00732 0.3912,1.75792 0.9002,2.26006 1.9499,1.92365 0.7813,-0.25036 10.0456,-3.13513 20.5873,-6.41044 z m -116.9898,-1.67515 c 9.1684,-3.77232 9.2973,-3.97528 9.6094,-15.12667 0.4665,-16.67218 1.0382,-23.31706 4.1048,-47.70119 1.6553,-13.16313 2.7939,-24.14862 2.5302,-24.41234 -0.7208,-0.72075 -19.7709,4.99291 -21.4597,6.43636 -1.284,1.0974 -1.5812,3.99933 -2.3887,23.3366 -0.9073,21.72336 -0.3661,60.00013 0.8483,60.00013 0.3297,0 3.3697,-1.13985 6.7557,-2.53289 z m 63.7661,-25.17474 c 7.4463,-7.83913 15.4064,-20.81415 19.5288,-31.83201 l 1.7272,-4.61644 -4.9398,-6.04706 c -2.717,-3.3258 -6.868,-9.00134 -9.2246,-12.61226 -2.3566,-3.61092 -4.2847,-6.29185 -4.2847,-5.95765 0,0.86339 4.6852,16.83781 6.1861,21.09192 1.2105,3.43087 1.1652,3.80504 -1.2611,10.41155 -3.5074,9.54982 -9.6139,22.12397 -15.1666,31.22958 -7.1802,11.77478 -7.2033,11.84677 -2.5443,7.94595 2.2758,-1.90535 6.7663,-6.23136 9.979,-9.61358 z m -112.2107,-30.39723 3.7326,-1.62377 -7.4825,-0.97677 c -14.1547,-1.84787 -30.8018,-2.90264 -35.7761,-2.26679 -3.2977,0.42158 -4.5474,0.86499 -3.7287,1.32318 3.3716,1.88686 30.1687,5.90919 36.1888,5.43208 1.8333,-0.1453 5.013,-0.99491 7.0659,-1.88793 z m 198.8061,0.58111 c 3.1424,-1.94222 7.3485,-8.14882 8.5511,-12.61854 1.006,-3.73889 0.1776,-5.56633 -5.3818,-11.87197 l -3.9667,-4.49917 -3.8739,3.46491 c -2.1307,1.90579 -6.5441,5.15253 -9.8075,7.21503 -3.2635,2.0625 -5.9432,3.95963 -5.9549,4.21591 -0.011,0.25611 1.9474,1.3811 4.3537,2.49999 3.3882,1.57531 5.3148,3.30096 8.5417,7.65058 2.2916,3.08897 4.3099,5.62027 4.4849,5.62504 0.175,0.009 1.5491,-0.75214 3.0534,-1.68178 z m -182.1826,-19.4005 c 1.7644,-4.64076 4.0492,-30.24601 2.6202,-29.3628 -0.3839,0.23728 -1.1382,3.53009 -1.6765,7.31744 -0.8637,6.0789 -3.4456,18.41498 -4.7115,22.51115 -0.718,2.32365 2.8762,1.87935 3.7678,-0.46579 z m 161.745,-10.909 c 8.5437,-5.02607 13.1416,-9.09729 11.9709,-10.59955 -0.4931,-0.63285 -5.3081,-10.33823 -10.6998,-21.56745 -12.9607,-26.99227 -17.9604,-33.81368 -28.0571,-38.27995 -7.9707,-3.52584 -13.7844,-3.27654 -20.3255,0.8718 l -4.055,2.57162 5.7828,3.023 c 10.2178,5.34152 19.3774,16.27616 25.6852,30.66272 3.2944,7.51376 8.7209,23.0858 10.9279,31.35923 0.8253,3.09374 1.7339,5.62504 2.0192,5.62504 0.2854,0 3.3235,-1.64994 6.7514,-3.66646 z m -125.2927,-10.1709 c 4.9638,-1.19389 9.6813,-2.51963 10.4834,-2.94607 1.2783,-0.67954 1.4583,-2.16048 1.4583,-11.99595 0,-6.1714 -0.2812,-11.21383 -0.6249,-11.20534 -1.5244,0.0371 -18.8874,5.9007 -19.8571,6.70555 -1.0831,0.89886 -1.6029,4.34105 -2.3516,15.5708 -0.316,4.73944 -0.1582,6.04166 0.732,6.04166 0.6242,0 5.1961,-0.97677 10.1599,-2.17065 z m -43.5306,-16.95031 c -1.8538,-1.81108 -10.4199,-4.39941 -15.961,-4.82276 -5.7554,-0.43979 -17.6828,0.89922 -20.1603,2.26334 -0.6685,0.36798 2.4468,0.90726 7.2124,1.24836 4.6141,0.33022 13.0187,1.05407 18.6769,1.60838 5.6581,0.55441 10.4501,0.88533 10.6486,0.73526 0.1988,-0.14999 0.011,-0.61463 -0.4166,-1.03258 z m 44.9098,-22.56474 c 19.4865,-9.15973 24.8204,-50.60992 7.4643,-58.00528 -1.5033,-0.64054 -5.531,-1.14223 -9.1667,-1.14188 -5.3973,6.2e-4 -7.3239,0.39805 -11.4851,2.36982 -8.4145,3.98721 -14.1962,12.10694 -16.3865,23.01354 -1.1837,5.89398 0.022,15.04151 2.8405,21.53508 l 1.8793,4.33097 0.5097,-8.38044 c 0.9101,-14.96156 5.3628,-25.40061 13.2806,-31.13628 7.416,-5.37221 15.614,-3.65355 19.5414,4.09661 1.9654,3.87861 3.825,12.5034 2.6959,12.5034 -0.25,0 -1.7662,-1.82576 -3.3694,-4.05726 -3.553,-4.94559 -6.4789,-6.19324 -10.9327,-4.66207 -4.512,1.55125 -7.8225,5.0886 -9.245,9.87863 -1.5019,5.05711 -1.5263,7.96479 -0.082,9.86554 0.9673,1.27383 1.2121,0.91646 2.105,-3.07332 1.988,-8.88319 7.0346,-13.22734 11.5407,-9.93416 5.2504,3.83713 7.4221,13.20124 4.5612,19.66855 -2.1248,4.80356 -7.087,10.3071 -11.1727,12.39153 -1.75,0.89276 -3.1819,1.80303 -3.1819,2.02288 0,1.03036 5.3907,0.22471 8.6043,-1.28586 z m -99.4962,-29.6763 c 0.1057,-3.20968 6.5698,-14.80432 10.563,-18.94665 2.1518,-2.23229 7.0436,-6.09959 10.8707,-8.59427 3.827,-2.4946 6.9582,-4.8668 6.9582,-5.27148 0,-0.67256 -5.7038,0.71571 -10.6198,2.5848 -10.1185,3.84704 -19.4123,18.65437 -19.3041,30.7561 0.03,3.31943 0.2385,4.12376 0.7572,2.9167 0.394,-0.91664 0.7425,-2.46701 0.7748,-3.4452 z m 148.1882,0.94759 c 3.5496,-0.71305 11.1415,-1.78171 16.8707,-2.37485 l 10.4166,-1.0783 -3.75,-1.17204 c -2.1204,-0.66282 -7.1902,-1.17124 -11.6667,-1.17 -7.2103,0 -8.4087,0.24099 -13.4313,2.67898 -3.033,1.47219 -6.033,3.31413 -6.6666,4.09308 -1.0122,1.24429 -0.9746,1.34961 0.3106,0.8679 0.8045,-0.30147 4.3669,-1.13162 7.9167,-1.84477 z m 10.0739,-20.05846 c 0.1577,-0.13177 -1.7173,-1.56311 -4.1666,-3.18095 -5.4285,-3.58536 -17.9503,-8.4924 -23.62,-9.25622 l -4.1667,-0.5613 2.5,1.58583 c 1.375,0.87216 4.75,2.78599 7.5,4.25288 2.75,1.46688 6.5,3.94786 8.3334,5.51317 3.1928,2.7263 3.5439,2.82605 8.3333,2.3661 2.75,-0.26398 5.129,-0.58783 5.2866,-0.71951 z m -92.1107,-5.019 c 2.34,-2.10371 5.6734,-4.635 7.4077,-5.62495 1.7344,-0.99004 3.1563,-2.10831 3.1598,-2.48496 0,-0.37674 -1.9623,-0.48321 -4.3686,-0.23666 -2.4062,0.24656 -7.5625,0.67371 -11.4583,0.94927 -13.2385,0.93619 -22.6868,3.46792 -30.0001,8.0389 l -3.7499,2.34373 11.6666,-0.47101 c 6.4167,-0.25921 13.9167,-0.11594 16.6667,0.3181 2.75,0.43422 5.3199,0.8351 5.7109,0.89099 0.3909,0.0557 2.6253,-1.61961 4.9652,-3.72341 z m 102.0485,-5.80802 c 1.1164,-3.11603 1.0484,-3.58129 -1.3338,-9.11702 -1.3806,-3.20827 -2.7834,-5.83331 -3.1172,-5.83331 -0.6325,0 -6.1628,9.52038 -6.1802,10.639 -0.017,1.07255 7.7627,8.159 8.6368,7.86769 0.4499,-0.1499 1.3473,-1.75032 1.9944,-3.55636 z m 22.981,-9.48907 c 1.0366,-1.03646 2.063,-10.62723 2.1519,-20.10772 0.053,-5.65105 0.2824,-6.52258 2.1864,-8.31119 2.5483,-2.39414 2.4639,-2.87178 -2.3042,-13.02774 l -3.5728,-7.61007 -5.1196,2.33107 c -4.9146,2.23769 -5.1417,2.47638 -5.6717,5.96429 -1.8544,12.20298 -3.2049,15.60679 -5.7973,14.61197 -2.2013,-0.84465 -4.9506,-7.92473 -5.1049,-13.14597 -0.1762,-5.96261 -0.8591,-7.17046 -2.9726,-5.25769 -1.3205,1.19495 -1.5727,2.55527 -1.5169,8.17925 0.036,3.71023 0.5056,8.43332 1.0417,10.49582 0.8361,3.21703 1.3892,3.8833 3.8913,4.68763 2.5396,0.81635 3.231,1.67807 5.3487,6.66664 5.7028,13.43427 6.2818,14.52195 8.1522,15.31415 2.3056,0.97642 8.0061,0.49135 9.2878,-0.79044 z m -43.2374,-57.59077 c 18.7875,-2.83543 37.7231,-8.23143 51.2821,-14.61357 7.4016,-3.48393 18.3333,-10.16613 18.3333,-11.20658 0,-0.85491 -11.1782,0.15591 -19.0703,1.72458 -5.9895,1.19044 -8.8899,2.26449 -12.3892,4.58788 -7.6033,5.04835 -43.312,19.55376 -48.1364,19.55376 -0.6806,0 -1.2375,0.39204 -1.2375,0.87109 0,0.5208 1.089,0.68759 2.7083,0.41477 1.4895,-0.25098 5.3189,-0.8504 8.5097,-1.33193 z m 29.2771,-34.77091 c -6.0742,-14.19129 -10.3515,-19.86904 -16.8333,-22.34436 -5.4075,-2.06515 -14.4907,-1.15833 -26.1495,2.61063 -5.1293,1.65817 -9.1579,3.18298 -8.9525,3.38841 0.2054,0.20526 3.7072,-0.009 7.7818,-0.47534 10.91,-1.24995 19.964,-1.09191 22.8463,0.39858 2.9906,1.54648 7.1553,10.11581 9.9249,20.42114 1.0447,3.88737 2.0658,7.34424 2.2691,7.68198 0.2033,0.33773 2.9622,-0.69139 6.1308,-2.28722 l 5.7613,-2.90122 z m 496.1729,591.80297 c -18.5623,-13.9727 -34.8272,-26.4166 -36.1444,-27.6532 -3.2583,-3.0594 -4.8868,-7.0376 -3.9208,-9.5785 0.8017,-2.1081 0.8818,-2.1483 13.6907,-6.8639 17.6136,-6.4844 28.8741,-12.7791 28.8741,-16.1409 0,-0.7902 -1.0313,-2.4197 -2.2917,-3.6212 -3.6818,-3.5096 -39.4195,-20.42077 -82.4448,-39.01307 -11.8325,-5.11309 -25.369,-10.99636 -30.0809,-13.0739 -11.0781,-4.88421 -14.6611,-8.87523 -11.6412,-12.96645 1.2492,-1.6923 15.1453,-6.98863 45.329,-17.27654 29.0575,-9.90401 37.3727,-13.11511 39.2048,-15.13958 1.4546,-1.60732 1.4283,-1.713 -0.8932,-3.56396 -4.2421,-3.38267 -40.0613,-14.50241 -73.6565,-22.86613 -19.3183,-4.8094 -25.1924,-6.748 -25.1924,-8.31393 0,-2.282 2.6302,-2.88725 29.1071,-6.69822 9.3226,-1.34183 17.2482,-2.74557 17.6125,-3.11939 0.3643,-0.37391 1.9174,-3.114 3.4515,-6.08925 1.5341,-2.97524 3.3672,-5.52069 4.0737,-5.65679 0.7653,-0.14742 2.4403,1.44858 4.1448,3.94937 1.5733,2.30817 3.2355,4.09041 3.6939,3.96033 1.8332,-0.5201 6.4053,-11.6225 9.1194,-22.14476 1.5796,-6.12409 3.0697,-11.33233 3.3113,-11.57394 0.6506,-0.65053 1.7301,2.57932 4.9509,14.8129 2.6629,10.11457 4.0238,13.43472 5.0754,12.38313 0.2207,-0.22083 2.698,-9.3833 5.5049,-20.36119 2.8069,-10.97779 5.4027,-20.27363 5.7684,-20.65726 1.0603,-1.11244 1.4916,0.17687 4.5912,13.72169 1.612,7.04506 3.1469,13.37175 3.4107,14.05925 0.866,2.25679 2.7792,-2.79731 6.556,-17.31864 5.2042,-20.00983 6.3753,-23.76994 7.1545,-22.97304 0.381,0.38956 2.0084,6.09198 3.6165,12.67204 1.6081,6.58007 3.1249,12.16479 3.3706,12.41046 0.792,0.79203 2.922,-1.54922 5.9617,-6.55318 3.0522,-5.02439 3.1249,-6.57104 0.3094,-6.57104 -2.0757,0 -2.0395,-0.50506 0.4381,-6.10755 1.1308,-2.55659 2.8236,-7.65535 3.762,-11.33065 0.9383,-3.67522 2.1058,-7.7239 2.5943,-8.99702 l 0.8883,-2.3148 1.2142,2.30003 c 0.6678,1.2649 2.5462,6.12666 4.1742,10.80385 1.628,4.6771 3.6766,9.90843 4.5523,11.62514 2.016,3.95149 2.0021,4.85433 -0.074,4.85433 -0.9166,0 -1.6583,0.4688 -1.6482,1.04168 0.036,2.03155 3.4535,8.57367 6.7828,12.98335 l 3.3762,4.47184 2.8026,-5.70676 c 1.5415,-3.13867 2.8141,-5.77061 2.828,-5.84879 0.014,-0.0787 -1.0954,-0.38823 -2.465,-0.68918 -1.3698,-0.30086 -2.6596,-0.82059 -2.8664,-1.15506 -0.2067,-0.33446 1.4627,-3.21189 3.7098,-6.39417 2.247,-3.18245 4.0993,-6.023 4.1162,-6.31228 0.017,-0.28936 -1.6582,-0.95139 -3.7226,-1.47121 l -3.7533,-0.94503 2.0617,-3.1155 c 3.9399,-5.95358 5.9529,-12.06273 13.0376,-39.56731 0.9071,-3.5216 2.0085,-4.04514 2.6299,-1.24995 0.2291,1.03125 1.5945,7.31249 3.0341,13.95835 3.0003,13.8508 5.3844,21.70266 7.8126,25.72967 l 1.6961,2.81314 -1.9094,1.44018 c -1.6337,1.23226 -1.7931,1.78861 -1.1048,3.85368 0.4424,1.32742 1.1151,2.41341 1.4949,2.41341 0.3796,0 3.0018,-9.56256 5.8269,-21.25005 2.825,-11.6875 5.3966,-22.2813 5.7144,-23.54169 0.3178,-1.26047 0.9312,-2.29172 1.3631,-2.29172 0.902,0 1.7197,2.81278 4.5891,15.78587 1.1306,5.11167 2.4013,9.9117 2.824,10.66685 0.8994,1.60706 0.8613,1.72362 6.47,-19.78599 2.0915,-8.02086 4.104,-15.12942 4.4721,-15.79675 0.6346,-1.14984 3.1784,6.0949 5.8396,16.63008 2.2008,8.71251 3.4866,12.49632 4.1146,12.10827 0.3678,-0.22737 1.1013,-2.13148 1.63,-4.23148 0.8881,-3.5269 0.8235,-3.92991 -0.8473,-5.28271 l -1.8086,-1.46467 2.1408,-5.35638 c 1.1775,-2.94597 3.8793,-12.29389 6.004,-20.77311 2.1247,-8.47914 4.1557,-15.71495 4.5133,-16.07957 0.3577,-0.36444 1.6723,3.19801 2.9214,7.91677 5.5658,21.02622 7.4113,27.3637 8.3374,28.63028 0.8413,1.15055 1.3311,0.48976 3.237,-4.3682 2.661,-6.78249 2.6772,-6.93257 0.7457,-6.93257 -3.2626,0 -3.3582,-1.59361 -0.4909,-8.18066 1.5328,-3.52151 3.7776,-10.71523 4.9884,-15.98609 1.2107,-5.27086 2.474,-9.88198 2.8073,-10.24705 0.6851,-0.75046 1.9866,2.63884 5.8548,15.24703 1.4765,4.81259 3.7821,10.97011 5.1238,13.68367 2.4299,4.91491 2.3819,5.55969 -0.4897,6.56609 -0.4591,0.16086 -0.3214,1.40737 0.3286,2.97657 0.615,1.48492 1.3879,2.39776 1.7175,2.02854 0.3296,-0.36931 1.8053,-5.17146 3.2794,-10.67145 1.474,-5.5 3.2621,-12.1563 3.9736,-14.79168 0.7114,-2.63548 1.5963,-4.79172 1.9665,-4.79172 0.3703,0 1.6588,3.28124 2.8634,7.29171 2.9184,9.71608 3.9874,12.70954 4.5364,12.70265 0.423,-0.009 6.7076,-11.273 6.7076,-12.02621 0,-0.18465 -1.125,-0.58279 -2.5,-0.8848 -1.375,-0.302 -2.5,-0.67839 -2.5,-0.8366 0,-0.15803 1.1783,-3.22207 2.6186,-6.80876 1.4402,-3.58677 3.8469,-11.47268 5.3482,-17.52434 3.7103,-14.95581 3.7243,-14.99614 4.6447,-13.35141 0.4105,0.73349 2.2517,7.07584 4.0916,14.0941 1.8399,7.01817 4.479,15.1884 5.865,18.15612 2.314,4.95515 2.4058,5.47895 1.1251,6.41558 -1.7347,1.26834 -1.1474,5.22275 1.3945,9.39081 1.4673,2.40572 1.8714,2.65148 2.5036,1.52189 1.4841,-2.65183 7.3837,-22.65131 10.0417,-34.04042 1.489,-6.3802 2.9756,-11.60039 3.3035,-11.60039 0.7901,0 2.5903,5.72268 5.6361,17.91673 1.3738,5.5 3.125,11.49736 3.8917,13.32745 l 1.3939,3.32739 1.5205,-4.91393 1.5203,-4.91384 -2.0194,-1.5884 c -1.8337,-1.44247 -1.911,-1.75607 -0.8404,-3.41353 1.8589,-2.87796 4.9526,-11.77257 7.9638,-22.89637 1.5242,-5.63079 3.0385,-9.94336 3.3651,-9.58334 0.3266,0.36002 1.2325,2.62327 2.0132,5.02952 1.3341,4.11226 1.5853,4.375 4.1813,4.375 7.9024,0 24.5695,-7.73379 37.2699,-17.29379 10.3605,-7.79862 23.5936,-22.23363 29.4019,-32.0722 l 1.6042,-2.71745 -3.5409,3.02963 c -4.7002,4.02117 -12.6727,7.84531 -19.0891,9.15637 -6.7967,1.38871 -7.9034,0.48897 -4.8771,-3.96475 2.5584,-3.76497 2.8508,-5.76928 0.7104,-4.87051 -7.3854,3.10135 -10.0789,3.83643 -12.5734,3.43175 -3.4847,-0.56555 -5.3621,-2.07417 -4.8791,-3.92098 0.3263,-1.24765 -0.5742,-1.46308 -7.3552,-1.75969 -6.8075,-0.29759 -8.2079,-0.63515 -11.7671,-2.8356 -6.0709,-3.75339 -5.7613,-4.8056 2.1689,-7.37272 9.1544,-2.96348 14.6864,-5.49203 23.2181,-10.6122 15.0509,-9.03265 26.643,-19.38839 33.3924,-29.83115 1.8812,-2.9106 3.4204,-5.64768 3.4204,-6.08243 0,-0.43475 -1.3818,0.42272 -3.0705,1.90552 -3.6826,3.23339 -8.9916,5.76663 -12.1378,5.79175 -1.8938,0.015 -2.2918,-0.34349 -2.2918,-2.06506 0,-1.14587 -0.094,-2.08178 -0.2082,-2.07984 -0.1146,0 -2.0532,0.93946 -4.308,2.08337 -4.5841,2.3256 -6.9682,2.58949 -9.128,1.0102 -1.3873,-1.01435 -1.3787,-1.17646 0.1655,-3.13955 l 1.6283,-2.07002 -5.1165,0.0141 c -3.8119,0.0106 -6.1787,-0.51655 -9.2831,-2.06878 -2.2916,-1.14577 -4.1666,-2.54244 -4.1666,-3.10365 0,-0.56112 3.1875,-2.55986 7.0833,-4.44169 10.649,-5.14351 19.7955,-11.59861 26.7182,-18.85627 5.7223,-5.99913 13.2818,-16.14854 13.2818,-17.83183 0,-0.39062 -1.5937,0.35976 -3.5416,1.66746 -3.8609,2.59196 -10.4106,5.06595 -13.4115,5.06595 -1.0423,0 -2.6229,-0.53221 -3.5126,-1.18283 -1.583,-1.15753 -1.573,-1.23173 0.4657,-3.46677 1.8021,-1.97556 1.8583,-2.19312 0.4167,-1.61156 -0.9167,0.36975 -3.9167,0.82015 -6.6667,1.00091 -5.6105,0.36869 -9.0391,-0.91345 -9.3875,-3.51063 -0.1804,-1.34591 1.5886,-2.51909 9.7077,-6.43786 8.045,-3.88295 11.1512,-5.93395 16.3738,-10.81127 6.5756,-6.1408 10.8598,-11.40476 14.8293,-18.21989 2.7203,-4.67065 2.8333,-5.78715 0.3493,-3.45359 -2.4907,2.33992 -11.0747,6.22747 -12.9142,5.8487 -1.1409,-0.23498 -1.4245,-1.05946 -1.3028,-3.78797 l 0.1554,-3.48764 -3.3306,2.20408 c -2.1891,1.44867 -4.8324,2.32869 -7.7121,2.56747 -3.7173,0.30829 -4.7301,0.0637 -6.6821,-1.61572 l -2.3008,-1.97911 7.1944,-4.88696 c 8.4763,-5.7577 14.0255,-11.73507 22.5157,-24.2528 l 6.2173,-9.16672 -3.3601,-0.25841 c -4.3811,-0.33702 -4.8603,-1.87262 -1.7997,-5.76698 2.2721,-2.89114 5.1971,-7.89722 5.1971,-8.89487 0,-0.23082 -1.9688,0.49683 -4.375,1.61714 -5.9959,2.79147 -15.625,2.82207 -15.625,0.0504 0,-0.54556 1.5375,-2.47417 3.4167,-4.28587 5.9615,-5.74744 20.75,-25.66644 20.75,-27.94852 0,-0.35534 -1.2162,-0.29724 -2.7028,0.12911 -3.9747,1.13994 -8.9639,0.98137 -8.9639,-0.28494 0,-0.58306 1.0636,-2.36433 2.3633,-3.95829 7.7589,-9.51507 11.593,-21.34229 13.8736,-42.79548 0.6275,-5.90176 1.5433,-11.13309 2.0353,-11.62506 2.1074,-2.10742 3.8878,3.32872 5.0016,15.27224 0.4489,4.81249 1.2422,10.81251 1.7629,13.33328 1.4218,6.88251 6.8685,17.54813 11.6115,22.73789 2.3019,2.51865 4.1852,4.93516 4.1852,5.37026 0,1.05805 -3.7716,2.72524 -6.1648,2.72524 -1.0559,0 -3.1199,-0.4183 -4.5867,-0.92964 -1.4668,-0.51133 -2.8854,-0.71128 -3.1524,-0.44421 -0.6912,0.69122 5.9398,11.70403 10.6264,17.64798 2.1786,2.76326 6.0972,6.70077 8.7081,8.75001 9.215,7.23298 8.5612,6.45209 6.6528,7.9471 -1.0411,0.81555 -2.8399,1.19857 -4.7917,1.02028 -2.4772,-0.22622 -3.125,0 -3.125,1.10571 0,0.76524 -0.5932,1.61891 -1.3182,1.89704 -2.7546,1.05707 -4.7775,0.41017 -7.6263,-2.43862 -1.6195,-1.61934 -3.1066,-2.78227 -3.3048,-2.58418 -0.6876,0.68759 1.6026,7.63174 3.7472,11.36196 5.6528,9.83273 13.9431,18.56276 23.2011,24.43215 8.85,5.61072 10.8901,9.43141 6.0962,11.41715 -1.6617,0.6882 -4.3959,0.8779 -7.9167,0.54909 -2.9582,-0.27618 -5.3785,-0.29422 -5.3785,-0.0398 0,0.25425 0.75,1.41568 1.6666,2.58099 3.2306,4.10705 1.5909,5.60648 -5.1526,4.71186 -2.6797,-0.35542 -5.8283,-1.65746 -9.0604,-3.7464 -2.7245,-1.76094 -4.9501,-2.92864 -4.9458,-2.59488 0.029,2.26466 5.9356,10.0662 11.8503,15.65251 7.8889,7.45071 18.7588,13.73769 26.4753,15.313 2.5208,0.51461 5.1161,1.26861 5.7674,1.67577 1.9646,1.22784 -0.9597,4.66631 -5.4156,6.36808 -3.3493,1.27905 -4.5221,1.34935 -8.5191,0.51107 -2.5493,-0.53477 -4.7875,-0.8198 -4.974,-0.63338 -0.1863,0.18634 0.5031,1.47768 1.5322,2.86957 1.5534,2.10114 1.69,2.74876 0.8047,3.81547 -1.696,2.04349 -6.6302,1.52039 -11.6241,-1.23226 -2.4816,-1.36784 -4.6854,-2.31357 -4.8973,-2.10168 -0.5758,0.57589 5.9942,8.17942 10.9197,12.63774 8.0412,7.27817 19.4698,13.76042 30.53,17.31634 6.6171,2.12741 7.2057,3.61056 2.4854,6.26355 -2.795,1.57088 -4.1733,1.83813 -7.2825,1.41196 l -3.8349,-0.52566 2.7478,2.83499 c 2.292,2.36468 2.6005,3.10993 1.8605,4.4928 -1.7205,3.21473 -6.3727,3.54777 -14.401,1.03125 -2.9054,-0.9108 -5.5715,-1.66074 -5.9245,-1.66666 -0.3531,-0.009 0.1419,1.52551 1.0997,3.40336 2.3847,4.67418 1.7629,5.75257 -3.317,5.75257 -4.9687,0 -11.925,-2.45259 -16.6365,-5.86568 -1.8815,-1.36297 -3.421,-2.1596 -3.421,-1.77031 0,1.89403 8.8584,12.95168 15.1297,18.88599 7.8278,7.40711 16.4981,13.46956 30.4086,21.26234 10.6577,5.97057 13.4325,8.06402 13.7903,10.40438 0.2344,1.5325 -0.1979,1.66135 -5.3702,1.60051 -3.0937,-0.0371 -5.6249,0.0959 -5.6249,0.29378 0,0.19801 1.0206,2.17588 2.2682,4.39526 1.2475,2.2193 1.9654,4.33707 1.5951,4.70611 -0.3703,0.36913 -3.1722,0.66283 -6.2266,0.65292 -4.5779,-0.015 -6.4924,-0.49108 -10.8988,-2.71029 -2.9399,-1.48068 -5.4913,-2.54606 -5.6699,-2.36751 -0.1785,0.17855 0.4442,1.58565 1.3839,3.12691 0.9396,1.54135 1.7099,3.50365 1.7116,4.36085 0,1.3842 -0.5326,1.51774 -4.7886,1.19406 -4.8269,-0.36718 -9.9337,-2.31188 -15.0817,-5.74337 l -2.7902,-1.85971 2.2159,4.3727 c 2.828,5.58092 13.8279,17.05599 22.9477,23.93938 3.8959,2.94049 12.4413,8.02705 18.99,11.30369 8.4979,4.2519 11.8379,6.33111 11.6667,7.26278 -0.387,2.10513 -5.9342,4.27242 -12.3016,4.80622 l -5.9139,0.49586 1.8563,1.97592 c 1.021,1.08679 3.7074,3.16379 5.9699,4.61564 4.0751,2.61496 4.0972,2.65281 2.3698,4.0516 -4.2147,3.41282 -15.6705,2.63423 -24.9192,-1.69373 -2.9728,-1.39118 -5.5179,-2.52944 -5.6559,-2.52944 -0.1379,0 0.153,1.06972 0.6466,2.37716 0.4934,1.30734 0.6445,3.03582 0.3355,3.84112 -0.7804,2.0334 -5.1839,1.15125 -12.4192,-2.48814 -3.0938,-1.55612 -5.6251,-2.64786 -5.6251,-2.42597 0,1.83769 7.9337,12.18529 13.2017,17.21817 10.859,10.37458 20.9134,16.30163 36.9622,21.78872 4.1916,1.43319 7.7775,3.07977 7.9688,3.6592 0.1966,0.59597 -1.0416,1.6817 -2.8508,2.49999 -2.5553,1.15568 -5.5108,1.43938 -14.6987,1.41135 -11.2333,-0.0345 -11.4558,-3.5e-4 -9.5833,1.46786 3.8715,3.03591 10.393,6.40973 15.8468,8.19808 5.097,1.67126 5.5184,1.98123 4.7204,3.47225 -0.4819,0.90037 -2.5943,2.39714 -4.6943,3.32607 -5.0198,2.22045 -12.838,1.73812 -23.3387,-1.43964 -4.2438,-1.28436 -7.9527,-2.09859 -8.2419,-1.80931 -0.2892,0.28918 0.8392,2.03676 2.5076,3.88357 1.6686,1.8468 3.0336,4.10669 3.0336,5.02209 0,2.46443 -6.3395,2.28049 -11.4984,-0.33376 -5.0922,-2.58047 -13.4907,-8.9038 -16.738,-12.60227 -1.4004,-1.59485 -2.7451,-2.89981 -2.9883,-2.89981 -0.7256,0 -0.4284,25.11107 0.3447,29.11659 0.7931,4.10943 1.5519,4.82656 11.6381,10.9976 6.7735,4.14428 9.7755,7.29312 8.9655,9.40417 -0.2924,0.76196 -1.4795,1.31487 -2.8225,1.31442 -2.476,-7e-4 -11.3419,-3.89427 -15.3239,-6.7296 l -2.4106,-1.71654 v 12.76508 c 0,16.54297 1.4817,67.84791 2.1571,74.84858 l 0.5226,5.4166 3.3461,-3.74994 c 4.0615,-4.55179 9.8765,-13.09186 15.0925,-22.16528 4.2994,-7.4791 4.8014,-9.22022 2.2675,-7.86415 -2.065,1.10519 -5.5461,1.10439 -7.613,0 -1.4921,-0.79857 -1.2164,-1.32264 3.6164,-6.87499 5.3824,-6.18405 8.359,-10.5419 9.2755,-13.58002 0.4768,-1.58026 0.186,-1.73608 -3.2383,-1.73608 -2.0691,0 -3.9962,-0.23418 -4.2824,-0.52045 -0.2862,-0.28617 0.4632,-1.68921 1.6653,-3.11789 3.7717,-4.48254 7.8574,-14.19889 10.4711,-24.90253 1.3856,-5.67422 2.6862,-10.48371 2.8902,-10.68773 0.8558,-0.85571 3.1107,5.28589 5.8165,15.84265 2.6566,10.36431 3.8765,13.48008 7.843,20.0337 1.3634,2.25255 1.3502,2.39767 -0.3472,3.79434 l -1.7648,1.45211 1.9891,3.91399 c 1.094,2.15271 2.3278,3.91399 2.7419,3.91399 1.1146,0 3.1401,-7.00482 9.6384,-33.33338 2.0928,-8.47922 4.2175,-16.70251 4.7214,-18.2741 l 0.9165,-2.85727 1.4864,2.89742 c 0.8176,1.59352 2.1046,5.31685 2.8601,8.27396 0.7555,2.9572 1.9885,7.43913 2.7401,9.95999 l 1.3665,4.58327 0.5865,-4.16665 c 0.9565,-6.79275 0.8053,-27.20788 -0.5677,-76.66681 -0.7126,-25.66671 -1.5577,-56.97925 -1.8781,-69.58347 -0.581,-22.85905 -0.5884,-22.92865 -2.9106,-27.66889 -3.0442,-6.21403 -12.3273,-16.07444 -21.0859,-22.39733 -3.8473,-2.77742 -7.368,-5.74665 -7.8237,-6.59819 -1.3295,-2.48425 -0.1453,-4.16904 2.9306,-4.16904 2.6449,0 20.3372,7.03586 24.4954,9.74128 l 2.0105,1.30806 -0.5625,-20.31635 c -0.5176,-18.70168 -1.5954,-45.23453 -2.5856,-63.64978 -0.2219,-4.12499 -1.1701,-24.37501 -2.1072,-45.00009 -2.1273,-46.81311 -2.647,-53.29068 -4.6058,-57.40621 -0.848,-1.78172 -6.3728,-8.29333 -12.2772,-14.47031 -5.9044,-6.17706 -11.6779,-12.65524 -12.8298,-14.39583 -2.5818,-3.90135 -2.4559,-7.7659 0.2656,-8.15343 2.4942,-0.35507 5.9172,1.5326 15.7894,8.70748 4.6428,3.37417 8.7678,6.13532 9.1668,6.13602 1.6513,0 -0.9642,-56.16183 -3.4926,-75.0013 -1.1186,-8.33463 -4.0598,-12.65684 -19.692,-28.93857 -8.6002,-8.95748 -9.9459,-10.75166 -11.1371,-14.84925 -1.4152,-4.86847 -1.0933,-8.71233 0.7298,-8.71233 0.5872,0 3.1113,1.79568 5.609,3.99048 3.5663,3.13364 19.1504,15.88227 23.708,19.3945 0.5538,0.4267 0.6181,-4.01773 0.1918,-13.24644 -0.3531,-7.63864 -0.728,-22.70102 -0.8334,-33.47188 l -0.1917,-19.58339 27.4438,-0.21994 c 19.5311,-0.15644 27.6096,0.0486 28.0191,0.71112 0.4209,0.68113 1.0362,0.68422 2.2932,0.0115 1.1332,-0.60649 9.5355,-0.91946 24.6894,-0.91946 h 22.9714 v 426.6675 426.66741 l -229.3754,-0.055 -229.3754,-0.055 z m 81.4102,-53.4434 c 2.2119,-2.177 5.2588,-6.302 6.7711,-9.1666 l 2.7495,-5.2084 h -3.2155 c -5.038,0 -5.5216,-1.2514 -2.1764,-5.63359 5.5729,-7.30108 8.1506,-14.22038 11.5501,-31.00478 1.1572,-5.71366 2.4181,-10.70232 2.8018,-11.08604 0.7986,-0.79858 2.7098,5.75 4.6866,16.05772 2.4608,12.83185 5.9632,21.49652 10.7184,26.51658 2.5436,2.68521 2.5731,2.80171 1.0031,3.95841 -0.8898,0.6555 -2.2022,1.1975 -2.9166,1.2045 -3.2283,0.032 -3.6736,1.3257 -1.6781,4.8763 1.5712,2.7955 2.1319,3.2308 3.1129,2.4168 3.0545,-2.5351 20.1828,-27.17393 20.1828,-29.03285 0,-0.30449 -1.531,-0.75905 -3.4022,-1.00994 -4.4736,-0.60004 -4.7792,-1.04248 -2.8956,-4.19194 6.3711,-10.65262 9.0174,-17.60588 11.2889,-29.66206 2.8731,-15.24898 3.715,-14.77311 7.9745,4.50748 2.4566,11.11938 5.7041,19.09823 9.5618,23.49198 1.4076,1.60317 2.4181,3.34818 2.2457,3.87809 -0.1725,0.52982 -1.8469,1.34007 -3.7207,1.80055 l -3.4071,0.83713 1.1341,2.49619 c 0.6238,1.37288 1.7427,3.24612 2.4864,4.16276 1.3268,1.63553 1.4064,1.60431 4.2542,-1.66666 6.3268,-7.2673 7.2298,-8.69491 6.2476,-9.87836 -0.7233,-0.87162 -0.027,-2.32347 3.0998,-6.45643 4.5644,-6.03468 12.8956,-19.09673 12.4587,-19.5336 -0.1583,-0.15839 -1.9529,0.0858 -3.9881,0.54344 -3.7943,0.85252 -7.1018,0.44668 -8.9656,-1.10023 -0.8078,-0.67035 0.3579,-2.3562 4.9953,-7.22467 4.8057,-5.045 11.4657,-14.89188 11.4657,-16.95208 0,-0.20278 -2.0625,-0.19756 -4.5834,0.0115 -2.5208,0.20897 -4.5833,0.0867 -4.5833,-0.27247 0,-0.35879 1.4512,-2.57446 3.2248,-4.92375 6.1782,-8.1827 8.0517,-13.29393 11.3992,-31.0987 2.1368,-11.36479 2.9624,-13.74769 4.1159,-11.88117 0.287,0.4642 1.65,6.71475 3.029,13.8899 3.3055,17.19952 6.0901,24.61167 11.4608,30.50697 2.6534,2.91281 1.644,4.11607 -3.5759,4.26252 -2.0957,0.0593 -3.8125,0.44916 -3.8153,0.86747 -0.019,2.77184 9.6363,13.91828 15.8282,18.27339 1.9895,1.39932 2.0142,1.51711 0.5482,2.61389 -0.8444,0.63161 -3.0944,1.40534 -5,1.71919 -5.8404,0.9621 -6.2226,1.52782 -3.0133,4.45902 1.5602,1.42497 3.0478,2.59082 3.3057,2.59082 1.2447,0 12.3045,-14.7051 18.5246,-24.62989 l 2.1182,-3.37993 -4.7,0.32049 c -3.2713,0.22304 -5.2008,-0.0548 -6.3475,-0.91389 -1.5809,-1.18451 -1.4058,-1.45822 4.3288,-6.76764 5.9238,-5.48452 8.5038,-8.82473 10.1399,-13.1282 l 0.848,-2.23035 -3.9179,1.18894 c -4.075,1.23659 -8.5013,1.59122 -8.5013,0.68113 0,-0.28928 2.6159,-3.14708 5.8131,-6.35066 5.5907,-5.6017 9.1612,-10.6145 10.3869,-14.58271 0.5373,-1.739 0.4196,-1.81487 -1.6145,-1.04159 -2.4179,0.91929 -7.0855,1.13065 -7.0855,0.32075 0,-0.28228 1.2654,-2.25104 2.812,-4.375 5.0811,-6.97758 7.3949,-12.94903 12.2786,-31.68812 1.7556,-6.73669 1.8634,-6.9148 2.9408,-4.85866 0.6151,1.17389 2.0506,5.82216 3.19,10.32947 4.1004,16.22053 6.65,22.1727 11.9853,27.98072 1.1579,1.26038 1.9413,2.32029 1.741,2.3554 -0.2003,0.0354 -1.1143,0.20322 -2.031,0.37381 -0.9166,0.17051 -3.0729,-0.009 -4.7917,-0.39194 -1.7187,-0.38594 -3.1249,-0.42476 -3.1249,-0.0858 0,1.57204 7.2981,11.77699 11.4787,16.05056 5.326,5.44455 4.9847,6.12276 -2.7588,5.48054 -2.5043,-0.20764 -4.5517,-0.15918 -4.5497,0.10763 0.016,2.10362 7.878,11.49921 14.4951,17.32147 2.3879,2.10097 3.7417,3.89011 3.3829,4.47052 -0.6188,1.00144 -6.9612,0.70138 -9.7566,-0.46164 -5.3336,-2.21903 6.6464,10.87495 12.9872,14.19482 5.0786,2.659 6.7748,2.40068 7.4829,-1.13976 1.6499,-8.24937 3.6349,-54.67107 4.42,-103.36486 l 0.5692,-35.29807 -3.2813,2.07134 c -1.8047,1.13923 -5.5584,3.22092 -8.3416,4.6259 -3.9078,1.97247 -5.6742,3.51072 -7.7545,6.75269 -2.4838,3.87066 -8.4744,9.22933 -10.3176,9.22933 -0.4471,0 -0.5638,-1.59529 -0.2724,-3.72182 l 0.5102,-3.72182 -2.2719,0.90417 c -3.8789,1.54383 -13.8238,4.01021 -16.2302,4.02524 -1.4397,0.009 -2.2917,-0.42935 -2.2917,-1.17902 0,-1.74457 3.1762,-3.73341 16.6667,-10.43639 12.0387,-5.98171 28.9149,-16.51653 32.0834,-20.02796 1.5012,-1.66374 1.6944,-3.24471 1.9453,-15.92808 0.1531,-7.74458 -0.048,-14.08109 -0.4454,-14.08109 -0.3981,0 -1.4336,1.21873 -2.3011,2.70834 -5.4858,9.41965 -17.5775,22.29174 -20.9403,22.29174 -1.4053,0 -1.5254,-3.72129 -0.2926,-9.06838 0.4631,-2.00838 0.6858,-3.80769 0.4952,-3.99836 -0.1907,-0.19067 -3.11,2.45118 -6.4873,5.87081 -4.5147,4.57124 -7.0853,6.49437 -9.7089,7.26332 -4.3987,1.28904 -5.6464,0.43006 -4.3453,-2.99214 1.5807,-4.15736 0.7006,-4.51252 -5.8723,-2.36972 -3.3085,1.07856 -7.1036,1.96106 -8.4332,1.96106 -2.925,0 -8.1975,-2.0908 -8.1975,-3.25072 0,-0.45978 1.5975,-1.93489 3.5499,-3.27823 1.9525,-1.34334 6.1491,-4.85698 9.3259,-7.80799 l 5.7759,-5.36557 -9.1176,0.0601 c -7.9562,0.0513 -9.6235,-0.1896 -13.09,-1.89659 -2.1848,-1.07591 -4.3458,-2.65396 -4.8022,-3.50674 -1.1061,-2.06666 0.87,-3.09048 9.6809,-5.0159 17.8664,-3.90426 40.268,-20.85492 53.2487,-40.29169 2.4635,-3.68883 4.3121,-6.87384 4.108,-7.07795 -0.204,-0.20411 -1.5842,0.76762 -3.0669,2.15951 -8.4614,7.94259 -23.0407,14.43413 -24.409,10.86831 -0.27,-0.7035 0.1085,-2.43791 0.8409,-3.85421 0.7324,-1.41647 1.173,-2.57524 0.9791,-2.57524 -0.1939,0 -2.5542,1.09235 -5.2452,2.42747 -6.7145,3.33137 -14.4375,4.88979 -17.444,3.52001 l -2.2651,-1.03214 3.58,-3.64771 3.58,-3.64779 -7.823,0.46039 c -4.4421,0.26133 -9.1735,0.084 -10.948,-0.40954 -2.4889,-0.69263 -3.125,-0.6424 -3.125,0.24664 0,1.9868 5.1273,15.78994 6.3959,17.21818 0.6768,0.76187 4.0141,2.63689 7.4164,4.16665 3.4022,1.52967 6.1863,3.02335 6.1868,3.31935 0,1.77428 -14.182,9.1447 -23.9637,12.45113 -3.9537,1.33636 -7.4859,2.89804 -7.8492,3.47031 -2.5403,4.00048 0.9007,9.97441 9.5171,16.52245 l 4.7867,3.63754 -3.745,3.80221 c -2.1896,2.22301 -3.745,4.57673 -3.745,5.66714 0,1.02577 1.5287,3.52363 3.3973,5.55076 3.4899,3.78602 6.8185,5.31755 15.5611,7.15985 2.4062,0.50709 4.375,1.18972 4.375,1.51694 0,0.3273 -1.4764,4.98954 -3.2808,10.36051 l -3.2808,9.76552 1.675,3.78673 c 2.0913,4.72769 1.5551,5.49637 -5.4622,7.83169 -2.8725,0.95582 -5.969,2.43322 -6.881,3.283 -2.4987,2.32781 -4.0904,0.8504 -6.2252,-5.77812 -1.0302,-3.19864 -2.0838,-5.81572 -2.3411,-5.81572 -0.2574,0 -1.7122,3.84378 -3.233,8.54175 -1.5208,4.69788 -4.1208,11.47507 -5.7778,15.06043 -2.3063,4.99008 -2.7629,6.67319 -1.9476,7.17709 1.7482,1.08033 -2.7041,9.05317 -5.4386,9.73952 -3.726,0.93512 -9.0461,-2.31772 -12.4223,-7.59566 -4.5535,-7.11828 -4.5553,-7.08972 0.4486,-7.08972 5.1042,0 5.1023,-0.2286 -0.059,-7.06522 -1.8938,-2.50848 -4.3261,-6.72615 -5.4051,-9.37277 l -1.9618,-4.81206 2.8715,-0.25805 2.8713,-0.25815 -1.5786,-3.09436 c -2.8383,-5.56341 -9.2378,-29.88227 -9.2378,-35.10431 0,-0.93601 -0.375,-1.70186 -0.8333,-1.70186 -0.4583,0 -0.8334,0.1935 -0.8334,0.42989 0,2.90396 -6.6719,24.86398 -9.1807,30.21761 -1.8151,3.8734 -3.0949,7.37484 -2.844,7.78093 0.2511,0.4061 1.5592,0.73835 2.9073,0.73835 1.3478,0 2.4508,0.35728 2.4508,0.79416 0,2.75707 -7.6112,14.52796 -11.2392,17.38178 -2.7506,2.16367 -1.3892,3.30537 4.3516,3.64912 l 4.3121,0.25824 -1.4107,2.90308 c -0.7758,1.59662 -3.7644,5.39811 -6.6412,8.44773 -5.6789,6.01983 -5.6211,6.56592 0.6954,6.56592 1.796,0 3.2653,0.15644 3.2653,0.34764 0,1.69443 -12.4623,27.15243 -13.2918,27.15243 -1.5777,0 -9.8747,-6.68734 -12.4103,-10.00288 l -2.8658,-3.74711 2.4089,-0.22003 c 1.3249,-0.12107 3.6032,-0.41477 5.063,-0.65257 l 2.654,-0.43263 -3.9206,-5.18074 c -4.2369,-5.5986 -7.1382,-11.60507 -8.0988,-16.76662 l -0.6053,-3.25249 2.7134,0.54273 c 3.1155,0.62311 3.1204,0.75126 -0.2819,-7.37112 -1.152,-2.75 -3.3751,-9.87501 -4.9403,-15.83337 -1.5652,-5.95827 -3.1823,-10.79208 -3.5935,-10.74158 -0.4113,0.0504 -2.1225,4.70752 -3.8027,10.34902 -1.6802,5.64158 -4.4372,12.9806 -6.1266,16.30897 -3.2463,6.39585 -3.2345,7.83364 0.065,7.83364 1.1188,0 2.0342,0.24196 2.0342,0.5376 0,0.29573 -1.328,3.29847 -2.951,6.67283 -1.7902,3.72199 -4.9041,8.22329 -7.9167,11.44367 -2.7311,2.91962 -4.9657,5.54183 -4.9657,5.82712 0,0.79372 5.9188,0.61702 9.0076,-0.26884 5.7804,-1.65782 3.6734,3.7296 -6.2051,15.86599 -2.9614,3.63834 -5.1564,6.98413 -4.8776,7.43506 0.2787,0.45103 1.8089,0.82007 3.4004,0.82007 4.0765,0 4.4527,1.83009 1.5274,7.42949 -2.7596,5.28191 -9.3695,12.57052 -11.4002,12.57052 -1.1807,0 -10.5631,-10.40022 -11.3137,-12.54108 -0.1562,-0.44589 2.0301,-0.79786 5,-0.80503 7.104,-0.0177 8.3535,-0.90469 4.5677,-3.24444 -3.4498,-2.13218 -10.8952,-10.06797 -12.6753,-13.51024 l -1.2407,-2.39926 h 4.188 c 2.3035,0 4.1882,-0.32536 4.1882,-0.72305 0,-0.39752 -1.6382,-3.16583 -3.6403,-6.15151 -3.0936,-4.61334 -7.1931,-14.13972 -7.1931,-16.71524 0,-0.4214 1.1411,-0.59862 2.5357,-0.39398 1.6256,0.2386 2.3925,0.0486 2.1364,-0.53035 -5.1208,-11.57385 -6.6392,-15.54002 -8.5431,-22.31499 -1.2487,-4.44346 -2.5467,-7.90828 -2.8842,-7.69957 -0.3375,0.20853 -1.6235,3.46906 -2.8575,7.24554 -1.2341,3.77656 -4.0349,10.31081 -6.2241,14.52071 -4.1436,7.96832 -4.1342,8.59569 0.1277,8.59569 1.3285,0 1.5429,0.36966 1.0876,1.87501 -1.2501,4.13287 -5.1271,10.18568 -9.769,15.25145 -2.692,2.93784 -4.6953,5.6637 -4.452,6.0575 0.2458,0.39761 2.7398,0.40185 5.6083,0.009 2.8411,-0.38858 5.3386,-0.53353 5.5499,-0.32208 1.6426,1.64252 -3.9337,10.31462 -12.2288,19.01811 -3.3931,3.56007 -5.9729,6.66903 -5.7332,6.90887 0.2399,0.23983 3.1348,-0.17776 6.4332,-0.92796 3.2985,-0.75029 6.229,-1.13224 6.5123,-0.84889 1.6468,1.64676 -8.6639,17.49055 -15.9112,24.44983 -5.9535,5.71675 -8.0481,6.33483 -11.709,3.4551 -1.9287,-1.51703 -4.6791,-5.61691 -4.6791,-6.97467 0,-0.2554 2.2185,-0.36771 4.9301,-0.24965 2.7116,0.11797 5.1962,-0.0513 5.5213,-0.37621 0.3252,-0.32491 -0.6377,-1.62483 -2.1398,-2.88875 -1.5021,-1.26392 -3.7958,-3.43555 -5.0972,-4.82594 -2.4826,-2.65236 -7.3811,-11.2232 -7.3811,-12.91463 0,-0.66433 1.4295,-0.91097 4.375,-0.75462 4.8953,0.25982 4.926,0.10276 0.9325,-4.77075 -3.0781,-3.7564 -8.6408,-13.93783 -8.6408,-15.81515 0,-0.76108 0.8837,-1.18946 2.4539,-1.18946 h 2.4538 l -1.991,-4.375 c -2.3692,-5.20569 -5.841,-16.96269 -7.2216,-24.45523 -0.5449,-2.95721 -1.3487,-5.2576 -1.7861,-5.11177 -0.4375,0.14583 -2.5592,5.36956 -4.7149,11.60817 -2.1556,6.23861 -5.1062,13.19249 -6.5567,15.453 -1.4506,2.26059 -2.6374,4.34149 -2.6374,4.62439 0,0.28282 1.3124,0.76055 2.9166,1.06141 3.3134,0.62161 3.4567,1.06653 1.5379,4.77809 -2.1278,4.11616 -6.0123,8.61489 -9.5638,11.07596 -5.254,3.64108 -4.1717,5.04288 4.2759,5.53794 3.2026,0.18766 3.7087,0.45704 3.4668,1.84512 -0.5085,2.91803 -5.2614,9.07687 -12.3479,16.0006 -3.8237,3.73579 -6.9522,7.01711 -6.9522,7.29161 0,0.27451 3.1875,0.49913 7.0833,0.49913 3.8958,0 7.0834,0.29158 7.0834,0.64788 0,2.44331 -11.179,14.15539 -20.2851,21.25253 -5.5737,4.34397 -6.3407,5.23522 -5.2145,6.05882 1.5783,1.15418 15.047,5.67749 50.9163,17.10003 25.3204,8.06322 54.4606,18.09121 57.8639,19.91264 0.8638,0.46225 2.408,2.19568 3.4319,3.85211 1.7351,2.8077 1.8239,3.627 1.3096,12.094 -0.3386,5.5744 -0.2455,9.0822 0.241,9.0822 0.4359,0 2.6022,-1.7813 4.8141,-3.9584 z m 389.3227,-413.12578 c 0.5124,-16.04163 1.3089,-45.10419 1.77,-64.5834 0.4611,-19.47921 1.0286,-36.82297 1.2612,-38.54172 0.2325,-1.71875 0.1333,-3.12505 -0.2206,-3.12505 -0.3538,0 -3.0542,4.96876 -6.0008,11.04173 -6.3903,13.17021 -6.4607,13.68774 -5.1011,37.45352 2.2614,39.52884 5.0701,82.99059 5.559,86.01996 1.1414,7.07167 1.8318,-0.0699 2.7323,-28.26504 z m -4.321,-126.51823 c 6.7076,-9.43291 7.7151,-11.30598 8.0923,-15.04487 0.4045,-4.00932 1.5646,-45.98111 2.6287,-95.10399 0.258,-11.91663 0.6385,-22.60418 0.8452,-23.75004 0.3716,-2.0587 0.351,-2.05374 -1.7462,0.41671 -4.4535,5.24601 -14.7957,21.512 -17.9294,28.19942 -5.5449,11.83226 -6.0686,15.5149 -5.4708,38.46734 0.5663,21.74114 1.8761,56.83625 2.6903,72.08346 0.4919,9.21297 0.5641,9.50463 1.8701,7.54489 0.7472,-1.12118 4.806,-6.88693 9.0198,-12.81292 z m -12.6314,-135.14885 c 2.2379,-3.20836 8.0216,-10.83683 12.8527,-16.95216 4.8312,-6.11534 9.5302,-12.10217 10.4422,-13.3041 1.3216,-1.74157 1.85,-4.47547 2.6023,-13.46452 0.5191,-6.20368 0.8146,-11.4252 0.6565,-11.60348 -0.1582,-0.17829 -1.9756,1.55346 -4.0389,3.84819 -4.2263,4.70072 -7.7167,6.51055 -10.9774,5.69217 -2.2011,-0.55237 -2.2116,-0.59243 -1.6771,-6.34438 0.2959,-3.18369 0.3782,-5.78856 0.1828,-5.78856 -0.1954,0 -2.6248,0.58146 -5.3986,1.29213 -10.5654,2.70667 -11.1665,-1.80736 -1.819,-13.6574 3.242,-4.10979 5.8945,-7.68675 5.8945,-7.9486 0,-0.26177 -4.0313,0.93909 -8.9584,2.66881 l -8.9584,3.14469 0.2642,9.95857 c 0.1452,5.47718 0.989,23.072 1.8749,39.09975 0.8861,16.02756 1.611,29.50889 1.611,29.95841 0,1.08413 0.5643,0.40026 5.4467,-6.59952 z m -1126.0738,639.08674 c -10.0779,-3.72155 1.8101,-6.84908 28.8055,-7.57823 11.8243,-0.31943 18.0538,-0.18987 18.6311,0.38743 1.3111,1.31115 -1.2444,2.3623 -12.7948,5.26299 -12.7179,3.19377 -28.7912,4.08821 -34.6418,1.92781 z m 134.9476,-40.11507 c -2.2963,-0.20544 -3.4753,-0.67857 -3.2647,-1.31036 0.3819,-1.14542 17.6567,-5.43756 33.9424,-8.43341 22.1167,-4.06857 23.9688,-3.751 11.875,2.03571 -16.0911,7.69939 -18.3658,8.33648 -29.1884,8.17526 -5.3734,-0.0805 -11.3874,-0.29024 -13.3643,-0.4672 z m -189.3227,-84.11762 c -8.549,-0.621 -17.4936,-2.16951 -18.9067,-3.27327 -1.4222,-1.11076 -1.3403,-1.32645 1.4067,-3.70688 3.852,-3.338 13.5004,-8.96004 23.5184,-13.70391 4.4561,-2.10999 8.3034,-4.1625 8.5497,-4.56099 0.7753,-1.25455 -3.7624,-4.13304 -9.1275,-5.79015 -10.9331,-3.37692 -22.9697,-4.60919 -45.2323,-4.63085 l -21.0417,-0.0203 v -83.27677 c 0,-82.10385 0.025,-83.36848 1.7579,-89.79183 0.9669,-3.58324 2.0629,-6.51506 2.4354,-6.51506 0.8092,0 1.8038,3.00416 4.1386,12.49995 2.7443,11.16262 5.6793,19.4288 8.4489,23.79594 1.9431,3.06385 2.7182,3.7365 3.2372,2.80907 0.6525,-1.16602 1.7917,-20.3159 2.9759,-50.02147 0.3951,-9.91542 0.2657,-14.69829 -0.4567,-16.88761 -1.4445,-4.37677 -7.1526,-10.69091 -14.0333,-15.52304 -8.4878,-5.96083 -10.2311,-10.31435 -3.2752,-8.17951 1.7068,0.52389 3.3056,0.75002 3.553,0.50258 0.2474,-0.24735 -0.3148,-3.20889 -1.2493,-6.58112 -1.8454,-6.65939 -2.145,-9.91498 -0.9125,-9.91498 0.4326,0 2.8421,2.71878 5.3544,6.04167 2.5122,3.32297 6.2361,7.66729 8.2754,9.65426 l 3.7076,3.61243 0.5289,-5.27917 c 0.7781,-7.76714 2.1174,-39.94387 2.2987,-55.22442 0.1562,-13.17374 0.1417,-13.2888 -1.841,-14.58332 -6.3526,-4.14799 -13.6944,-10.27217 -17.4248,-14.5353 -7.1782,-8.20277 -4.1559,-10.29914 6.7518,-4.68312 3.6953,1.90261 8.1471,3.96325 9.8929,4.5792 l 3.1743,1.12004 0.5114,-6.39284 c 0.466,-5.82774 2.0642,-40.67558 3.5012,-76.34464 l 0.5688,-14.11824 -2.4181,1.89226 c -2.8728,2.24812 -3.4744,3.95953 -3.585,10.19788 -0.046,2.57772 -0.6159,6.1974 -1.2673,8.04358 -1.5645,4.434 -5.4176,10.18621 -6.8232,10.18621 -0.6157,0 -1.7999,-1.32662 -2.6319,-2.948 l -1.5124,-2.9481 -1.9253,5.97791 c -1.5034,4.66799 -2.7454,6.77488 -5.6673,9.61473 -6.1668,5.99356 -6.089,6.18652 -6.089,-15.09404 V 415.5994 l 2.2916,-1.38446 c 13.3896,-8.08957 27.5244,-20.76233 29.1713,-26.15399 0.8478,-2.77556 2.1488,-36.6667 1.4076,-36.6667 -0.1946,0 -2.0523,3.38196 -4.1282,7.51544 -4.4166,8.79388 -8.8671,14.15123 -11.7559,14.15123 -1.7678,0 -1.9864,-0.37347 -1.9864,-3.39381 v -3.39372 l -2.1525,1.69301 c -2.0293,1.59627 -10.3006,5.09452 -12.0454,5.09452 -0.507,0 -0.8021,-23.76145 -0.8021,-64.5834 V 243.894 l 99.7919,0.009 c 98.506,0.009 99.7606,0.0257 97.3778,1.59689 -1.3277,0.87525 -3.6714,1.82726 -5.2083,2.11565 -1.5369,0.2883 -2.7944,0.84332 -2.7944,1.23341 0,0.99375 5.3684,5.59878 8.2854,7.10714 4.5324,2.34381 4.0581,6.96149 -0.8922,8.68713 -6.386,2.2262 -21.3249,-0.22869 -28.0906,-4.61608 -3.1185,-2.02226 -3.1562,-0.54857 -0.059,2.30764 12.1786,11.23126 13.3599,13.11423 9.9565,15.87007 -3.6581,2.96215 -17.1209,1.58114 -25.0929,-2.5741 -4.0943,-2.13414 -4.386,-2.14475 -3.3031,-0.12125 0.4744,0.88648 0.8626,2.57401 0.8626,3.75003 0,2.04968 -0.2001,2.13802 -4.8363,2.13802 -6.5525,0 -11.8569,-2.75901 -19.3262,-10.05267 l -5.9231,-5.78378 -6.8322,0.48507 c -4.2844,0.30404 -10.09,0.0141 -15.5679,-0.77682 -4.8046,-0.69387 -8.9296,-1.06088 -9.1666,-0.81565 -0.8857,0.91638 7.2881,7.05002 13.3189,9.99475 7.6854,3.7525 7.2689,3.37073 5.5505,5.08912 -1.1074,1.1074 -2.8979,1.43487 -7.8671,1.4385 -3.5383,0 -7.5585,-0.28025 -8.9335,-0.62869 -2.3661,-0.59977 -2.2771,-0.42653 1.6649,3.23887 11.9066,11.07101 34.04,22.56872 47.1494,24.49273 7.2016,1.05689 10.7692,2.27978 10.7692,3.69113 0,1.61253 -3.4387,4.38217 -7.7083,6.20845 -2.754,1.17806 -3.9584,2.17862 -3.9584,3.2884 0,5.58533 -16.0442,3.82184 -28.9817,-3.18537 -2.5497,-1.38101 -4.7639,-2.38281 -4.9205,-2.22619 -0.1566,0.15662 0.4972,2.05241 1.453,4.21299 1.3725,3.1025 1.5283,4.1808 0.7414,5.12883 -2.7914,3.36339 -13.4238,-1.17911 -25.473,-10.8829 -9.9844,-8.04076 -10.86,-8.66547 -9.9303,-7.08336 6.1632,10.48725 16.0878,21.04206 26.4969,28.17917 7.4445,5.10425 20.2183,11.34879 31.0309,15.1693 9.1594,3.23648 29.5481,6.5951 40.2346,6.62791 6.1085,0.0195 7.8358,0.28786 8.2166,1.28011 1.1226,2.92563 -5.4196,8.94793 -12.222,11.2507 -3.9098,1.32362 -3.9941,1.41913 -2.4314,2.75717 2.5182,2.15615 2.0894,5.17207 -0.9118,6.41521 -4.0865,1.69266 -15.978,0.63639 -22.4012,-1.98989 -2.9418,-1.20273 -5.5448,-1.9906 -5.7845,-1.75085 -0.2398,0.23975 1.5984,2.49583 4.0849,5.0136 3.7583,3.80566 4.3682,4.82107 3.6162,6.02106 -1.5931,2.54226 -6.7734,2.20921 -15.7952,-1.01577 -4.55,-1.62634 -8.373,-2.95712 -8.4952,-2.9573 -0.1223,-8e-5 0.7214,1.86229 1.875,4.13871 2.648,5.22567 2.6262,5.86108 -0.2013,5.86108 -5.2748,0 -16.1786,-9.43176 -22.5877,-19.5382 l -2.6138,-4.12146 -0.012,4.12146 c -0.017,5.33338 -0.7516,6.50666 -3.4367,5.48576 -3.1993,-1.21635 -6.9643,-4.73114 -9.7976,-9.14629 -2.5475,-3.97015 -5.9197,-14.95767 -5.9197,-19.28837 0,-1.49598 -1.5105,-3.96767 -4.6291,-7.57514 -2.546,-2.945 -5.0405,-5.49859 -5.5434,-5.67457 -0.6588,-0.23056 -0.7451,6.40496 -0.3088,23.75004 0.4812,19.12715 0.8723,24.63342 1.905,26.81345 2.02,4.26455 12.0335,14.4818 20.4897,20.90675 9.7147,7.38111 15.7955,11.02396 23.8094,14.26398 11.0183,4.45468 14.3801,6.13753 15.1558,7.5869 2.2038,4.11801 -8.1656,4.87953 -18.253,1.34051 l -6.1247,-2.14881 0.5196,1.82036 c 1.6694,5.84773 1.6207,6.40363 -0.5596,6.40363 -2.3128,0 -8.2656,-5.65139 -14.021,-13.31108 -1.8689,-2.48734 -5.7136,-6.19731 -8.544,-8.24442 -2.8302,-2.0472 -7.1147,-5.39264 -9.5209,-7.43453 l -4.375,-3.71245 V 448.38 c 0,24.11829 0.2035,43.85132 0.4522,43.85132 1.1858,0 10.5456,-7.56038 15.4092,-12.44654 3.8253,-3.84315 6.6757,-7.8095 9.5834,-13.33558 5.3996,-10.262 6.6397,-10.72655 5.9983,-2.24698 l -0.4812,6.36242 h 3.2692 c 4.407,0 4.2997,1.83973 -0.2728,4.67578 -5.3097,3.29352 -6.8718,4.91349 -14.3743,14.90753 -3.7848,5.04172 -9.7395,12.4323 -13.2328,16.42358 l -6.3512,7.25677 v 12.40046 c 0,6.82035 0.2453,20.2785 0.5453,29.90712 l 0.5451,17.50639 14.6379,-14.94529 c 17.2114,-17.57298 20.9384,-20.11843 20.9384,-14.2998 0,3.39514 -2.588,7.37546 -17.0142,26.16761 -7.5648,9.85422 -14.7126,19.66661 -15.8841,21.80534 -1.3001,2.37362 -2.4391,6.26992 -2.9234,10.00005 -0.8898,6.85289 -1.0049,59.64735 -0.1442,66.11148 l 0.5549,4.16665 2.8004,-10.20832 c 1.5402,-5.61461 3.1326,-10.2084 3.5388,-10.2084 0.4062,0 0.7385,0.16979 0.7385,0.37718 0,0.83695 5.9841,30.25847 6.7455,33.16455 0.4503,1.71875 1.1616,3.12506 1.5808,3.12506 0.4191,0 1.1416,-1.40631 1.6053,-3.12506 1.815,-6.72492 6.301,-17.7143 7.1206,-17.44306 0.4755,0.15732 1.1454,2.50573 1.4887,5.21877 0.3434,2.71294 1.335,10.74353 2.2037,17.84571 l 1.5794,12.91313 -2.7815,3.07889 c -1.5299,1.69328 -3.3232,4.13242 -3.9852,5.42023 -3.5951,6.99358 -6.0141,41.60203 -3.9123,55.97408 2.6387,18.04355 10.862,35.43329 21.3101,45.06395 3.9982,3.68538 8.6891,6.06837 17.9697,9.12869 l 5.508,1.81629 0.5339,5.74532 c 0.2937,3.15999 1.6274,9.99076 2.9638,15.17938 1.3362,5.1887 2.2813,9.58254 2.1,9.7641 -1.6296,1.63235 -60.3825,3.88392 -74.5306,2.8563 z m 605.0252,-62.7373 c -0.6741,-0.42644 -1.0492,-0.94732 -0.8333,-1.15762 0.2159,-0.21021 6.7675,-2.89044 14.5593,-5.95597 7.7916,-3.06554 14.4956,-5.88664 14.8977,-6.26904 0.402,-0.38239 -0.9105,-1.12932 -2.9167,-1.65985 -11.3237,-2.99408 -62.0071,-21.135 -81.9812,-29.34334 -5.5,-2.26015 -11.9687,-4.88236 -14.375,-5.82712 -5.1008,-2.00271 -5.772,-3.51541 -1.25,-2.81685 1.7187,0.26548 13.8125,1.8093 26.8751,3.43077 37.0987,4.60494 44.2144,5.98799 66.6336,12.95116 4.336,1.34669 8.92,2.44852 10.1867,2.44852 1.2668,0 11.4067,-2.22425 22.5333,-4.94277 28.7411,-7.02215 28.5808,-7.00093 44.7417,-5.93678 17.3961,1.14542 27.0577,2.40333 28.9202,3.76533 1.3686,1.00074 1.3596,1.11022 -0.1568,1.91119 -0.8846,0.46738 -3.8584,1.30549 -6.6084,1.86254 -15.8053,3.20129 -50.2451,12.09651 -51.5154,13.30543 -0.3751,0.35692 3.6561,2.07594 8.9583,3.81998 5.3023,1.74404 9.6403,3.46774 9.6403,3.83042 0,1.38251 -3.8338,2.57445 -15.6748,4.87316 -6.733,1.30717 -19.3669,3.93336 -28.0752,5.83614 -16.2222,3.54451 -35.2215,6.67478 -40.4168,6.65886 -1.6042,-0.009 -3.4683,-0.35781 -4.1426,-0.78416 z m 44.1426,-73.01415 c -5.7291,-1.58627 -19.0416,-5.5405 -29.5833,-8.78733 -10.5417,-3.24674 -23.8558,-7.32699 -29.5869,-9.06714 l -10.4201,-3.16397 -22.5801,0.45571 c -17.2138,0.34746 -22.7286,0.21534 -23.205,-0.55555 -0.3437,-0.55618 -0.481,-1.15515 -0.3051,-1.33114 0.465,-0.46499 44.0884,-13.66359 51.8135,-15.67647 l 6.5496,-1.70681 -4.4663,-1.98468 c -11.8806,-5.27979 -22.5162,-9.368 -24.371,-9.368 -1.9374,0 -19.9625,6.99359 -42.7452,16.58462 -12.0135,5.05747 -22.8288,7.63891 -46.1004,11.00336 -16.4259,2.37476 -20.8333,2.52333 -20.8333,0.70227 0,-1.49758 15.6722,-8.18544 39.1667,-16.71374 19.654,-7.13412 25.1117,-9.51463 38.3334,-16.7202 8.4792,-4.62086 19.7292,-11.03342 25,-14.25001 5.2709,-3.21667 10.4521,-6.31546 11.5138,-6.88631 1.6949,-0.91142 3.3707,-0.48056 13.7499,3.53566 6.501,2.51547 19.8823,7.68233 29.7365,11.48188 20.5685,7.93074 32.2975,12.63464 34.3364,13.77069 0.8017,0.44668 1.6164,0.47268 1.8717,0.0601 0.9175,-1.48448 -48.4556,-39.55033 -69.5434,-53.61674 -5.2698,-3.51515 -10.445,-7.06098 -11.5003,-7.87954 l -1.9188,-1.48828 4.2361,-8.6469 c 2.33,-4.75563 6.4747,-12.69813 9.2105,-17.64965 2.736,-4.95161 4.9744,-9.68867 4.9744,-10.52678 0,-0.8381 -3.7437,-5.64582 -8.3194,-10.68365 -4.5755,-5.03792 -9.3105,-10.56091 -10.5219,-12.2733 l -2.2028,-3.11355 3.3431,-5.21984 c 1.8388,-2.87089 5.0774,-8.5948 7.1968,-12.71989 2.1196,-4.12499 5.7167,-9.56247 7.9935,-12.08333 2.2769,-2.52086 4.1482,-5.02112 4.1585,-5.55615 0.01,-0.53504 -1.7279,-3.91001 -3.8627,-7.50006 -6.7495,-11.34994 -12.1438,-23.62234 -12.0766,-27.47487 0.08,-4.53949 2.2171,-9.98165 7.3204,-18.63571 2.2976,-3.89577 4.6155,-8.34966 5.151,-9.89729 0.9057,-2.61743 0.7922,-3.02088 -1.6241,-5.77282 -4.3697,-4.97699 -6.4952,-12.34722 -7.8477,-27.21328 l -0.6034,-6.63338 -8.4274,8.72639 c -4.635,4.7995 -13.7277,14.5346 -20.2058,21.63342 -14.385,15.76332 -18.0729,18.30134 -27.8403,19.16005 -10.1318,0.89082 -11.7665,2.21249 -31.9796,25.85667 -9.5875,11.21463 -24.3316,27.22734 -32.7649,35.58363 l -15.3331,15.19327 -6.3061,12.3068 c -3.4683,6.76879 -7.6617,14.42812 -9.3187,17.02097 -1.6568,2.59276 -11.45,13.43887 -21.7625,24.10255 -14.4127,14.90337 -20.2922,20.38691 -25.4167,23.70458 -8.5539,5.53785 -47.2454,26.22881 -49.0473,26.22881 -1.9864,0 -1.6791,-1.76023 0.6491,-3.71872 1.1103,-0.93389 6.2665,-5.29076 11.4584,-9.68186 5.1918,-4.39119 16.0023,-13.23282 24.0231,-19.64795 8.0208,-6.41522 14.9928,-12.1975 15.4931,-12.84945 1.5285,-1.99158 12.8402,-26.53604 12.8402,-27.86098 0,-0.68264 -0.319,-1.2412 -0.7089,-1.2412 -1.2944,0 -13.7743,9.33086 -20.541,15.35785 -8.75,7.7934 -15.9777,13.80889 -16.5914,13.80889 -2.0939,0 2.6376,-9.95592 9.1145,-19.17818 2.4186,-3.44387 5.0281,-8.31889 5.7986,-10.83338 2.8053,-9.15346 3.9332,-10.82825 13.2964,-19.7439 l 9.2152,-8.77487 v -9.48093 c 0,-5.77777 -0.3255,-9.47341 -0.8333,-9.46174 -2.1781,0.0504 -21.4734,15.67807 -48.4861,39.27078 -4.7093,4.11306 -32.0947,20.7809 -59.4308,36.17173 -3.8958,2.19347 -8.1326,4.71097 -9.415,5.59454 -2.6276,1.81028 -6.7772,1.46803 -10.7673,-0.88808 -2.9822,-1.76102 -3.5568,-3.49586 -1.7252,-5.20922 0.82,-0.767 14.2408,-9.00815 29.8242,-18.31354 15.5833,-9.30556 30.0209,-18.05345 32.0834,-19.43995 5.6751,-3.81503 26.5465,-20.11002 47.4755,-37.0659 11.1998,-9.07368 19.8647,-15.48519 21.56,-15.95328 1.9722,-0.54459 3.7543,-0.46402 5.8579,0.26478 2.8677,0.99349 28.8619,15.70141 33.5688,18.99379 1.2166,0.85093 2.9729,1.54718 3.9028,1.54718 2.6269,0 14.1321,-10.33416 22.266,-20.00001 28.4103,-33.76044 43.269,-50.2706 46.547,-51.72059 1.8789,-0.83121 7.0981,-1.88784 11.5982,-2.34824 l 8.1821,-0.83713 5.3958,-4.73733 c 2.9678,-2.60549 9.0336,-8.69128 13.4795,-13.52395 31.9119,-34.68742 31.0537,-33.87841 35.936,-33.87841 3.8066,0 5.1372,0.97297 25.8976,18.93772 26.475,22.90991 29.1426,25.5865 37.8081,37.93523 4.4086,6.28248 10.5491,14.76665 13.6455,18.85371 5.9477,7.8507 7.4822,8.95429 19.6538,14.1353 5.9585,2.53634 5.7799,2.36345 28.3306,27.43384 4.1235,4.58433 7.1426,7.24987 8.2113,7.24987 0.9295,0 7.37,-3.62348 14.3122,-8.05234 14.6554,-9.34952 31.7927,-19.27139 34.5026,-19.97569 5.9219,-1.53914 6.8773,-0.76311 55.5407,45.11143 14.0998,13.29163 26.4481,24.60752 27.4408,25.14636 0.9926,0.53883 3.9365,1.22908 6.5419,1.53383 l 4.7371,0.55413 12.9134,-7.55869 c 17.2578,-10.10184 22.939,-12.91852 26.0637,-12.92241 2.6546,0 16.6913,9.00975 44.4656,28.55131 25.7566,18.12217 25.3689,17.79955 25.875,21.52358 0.6739,4.95833 2.3925,7.00208 10.4635,12.443 4.0016,2.69747 7.4154,5.32419 7.5864,5.83694 0.8164,2.44914 -4.5703,6.17529 -20.9214,14.47189 -16.8859,8.56801 -17.1702,8.75594 -17.1702,11.34958 0,5.2201 12.0191,18.47803 22.7979,25.14768 l 4.8813,3.02044 -2.1543,1.70132 c -1.1849,0.93565 -5.4155,3.56273 -9.4015,5.83765 -6.0623,3.46013 -8.0847,4.18982 -12.3683,4.46255 -4.7696,0.30378 -15.2184,-0.85022 -18.2571,-2.01633 -1.032,-0.39602 -1.3314,0.0363 -1.3314,1.91897 0,1.33644 -0.4687,3.05466 -1.0416,3.81839 -0.9603,1.28002 -1.5633,1.20485 -7.714,-0.96086 -15.6221,-5.5007 -37.3013,-16.99116 -68.3279,-36.21559 -16.728,-10.36485 -25.9083,-15.34635 -26.7431,-14.5116 -0.2125,0.21251 2.5966,2.96976 6.2425,6.12718 7.4873,6.48438 36.3722,33.44879 41.1002,38.36768 1.7047,1.77358 3.2048,4.15807 3.3334,5.29898 0.1977,1.75448 -0.092,2.05383 -1.8817,1.94152 -1.1635,-0.0734 -8.3665,-2.58436 -16.0065,-5.58065 -7.6401,-2.99638 -15.3132,-5.69907 -17.0512,-6.00594 -2.9677,-0.52398 -3.0771,-0.47083 -1.7964,0.87304 0.7501,0.78708 8.2297,6.92452 16.6214,13.63874 14.9833,11.98817 17.5538,14.44642 16.3569,15.64322 -1.8953,1.89527 -26.385,-7.54268 -67.6756,-26.08094 -4.5832,-2.05781 -8.8958,-3.95343 -9.5833,-4.21255 -2.187,-0.8244 5.1059,6.33395 14.5834,14.31404 5.0416,4.24518 12.1666,10.65005 15.8334,14.23329 5.7,5.57048 6.4104,6.56087 4.8992,6.83166 -3.1004,0.55547 -38.5969,-13.1825 -56.5661,-21.89245 -4.1249,-1.99935 -12.5624,-7.32221 -18.7499,-11.82846 -14.9188,-10.86495 -39.9532,-28.77372 -41.5501,-29.72352 -1.3835,-0.82272 4.7889,6.93947 17.5651,22.08922 6.8651,8.1406 9.2161,11.58402 7.9087,11.58402 -0.1336,0 -4.8755,-1.3207 -10.5373,-2.935 -5.6619,-1.61413 -10.5157,-2.71357 -10.7863,-2.44295 -1.1745,1.17433 16.1374,12.95115 32.3998,22.04084 26.2919,14.69537 55.8335,32.77226 55.8335,34.16512 0,1.31964 -9.5688,0.99296 -23.5681,-0.80459 -17.9851,-2.30923 -27.6593,-4.31159 -44.604,-9.23225 -14.3947,-4.18018 -18.0509,-5.29748 -40.7741,-12.46122 -6.066,-1.91242 -11.4296,-3.34366 -11.9188,-3.18059 -0.8206,0.27362 8.3146,9.54266 17.7398,17.99986 8.0477,7.22131 5.4359,6.88101 -21.6231,-2.81791 -10.9094,-3.91019 -23.9118,-8.60171 -28.8941,-10.42552 -4.9824,-1.82372 -9.2114,-3.16335 -9.3978,-2.97701 -0.1863,0.18633 1.0215,1.3765 2.6843,2.64467 6.4985,4.95673 23.2868,19.91326 23.5417,20.97316 0.4122,1.71353 -2.5093,1.32556 -14.0195,-1.86122 z m 234.8953,-77.56205 c -1.8264,-2.20081 -26.8477,-24.16463 -40.827,-35.83842 -21.0181,-17.55166 -21.9202,-18.26048 -21.3571,-16.78192 0.5594,1.46918 19.8353,29.11606 22.1121,31.71483 2.2729,2.59427 38.0366,22.28219 40.4763,22.28219 0.4061,0 0.2241,-0.61949 -0.4043,-1.37668 z m -124.8951,-3.77771 c 0,-0.54326 -6.4687,-7.51191 -14.3749,-15.4859 -9.8389,-9.9232 -17.5924,-16.8677 -24.5704,-22.00697 -8.6193,-6.34783 -11.4078,-9.01028 -18.038,-17.22251 -18.1825,-22.5207 -23.3498,-27.99522 -34.2488,-36.28519 -5.7934,-4.40649 -10.6596,-8.01193 -10.8137,-8.01193 -0.1541,0 1.9664,4.21874 4.7121,9.37499 2.7459,5.15624 7.3805,14.12381 10.2993,19.92776 4.2569,8.46445 6.0964,11.21728 9.2958,13.91077 5.6327,4.74227 30.7084,24.4393 40.8127,32.05858 9.3238,7.03073 35.3028,24.72805 36.2998,24.72805 0.3444,0 0.6261,-0.44439 0.6261,-0.98765 z m -87.6085,-15.03523 c -13.6187,-14.85385 -15.443,-17.11488 -20.667,-25.61586 -3.3039,-5.37636 -6.7056,-9.68778 -9.6482,-12.22819 -6.3003,-5.43933 -37.292,-28.69546 -37.6985,-28.28901 -0.6304,0.63037 4.2239,7.64837 18.853,27.25644 14.0501,18.83204 15.0464,19.95446 23.0191,25.93608 11.4188,8.56704 32.8634,22.43854 33.6618,21.7743 0.1807,-0.15034 -3.2034,-4.12553 -7.5202,-8.83376 z m 230.8976,-27.5603 c -3.7827,-5.59179 -7.7756,-11.24823 -8.8731,-12.56981 -4.7819,-5.75859 -7.3532,-13.37494 -8.251,-24.43869 -0.3083,-3.79973 -0.7454,-6.90843 -0.9712,-6.90843 -0.5734,0 -26.0766,14.63488 -28.0788,16.11264 -1.4324,1.05734 -1.489,1.38323 -0.4562,2.62769 1.4526,1.75006 21.7725,16.27201 32.4927,23.2212 4.3458,2.81703 10.7207,6.9973 14.1667,9.28938 3.446,2.29217 6.3968,3.8673 6.5571,3.50029 0.1604,-0.3671 -2.8034,-5.24247 -6.5862,-10.83427 z m -123.3927,-7.04187 c -3.7936,-4.02958 -7.0397,-8.28891 -13.2264,-17.35534 -4.2672,-6.25338 -5.0033,-7.87759 -5.0033,-11.03979 0,-5.42155 1.8575,-18.47998 2.6288,-18.47998 1.3062,0 12.1214,9.89817 20.913,19.13998 10.4639,10.99972 11.3259,10.48326 4.2689,-2.55765 -6.0527,-11.18483 -6.0694,-11.20526 -14.894,-18.28233 -9.6586,-7.74591 -14.4035,-12.28638 -15.9835,-15.29487 -0.6966,-1.32628 -1.8853,-7.37334 -2.6415,-13.43782 l -1.375,-11.02643 -17.5001,11.50894 c -21.7764,14.32128 -21.2499,13.9388 -21.2499,15.44053 0,0.6852 3.7851,6.64771 8.4115,13.24997 l 8.4116,12.00418 15.9634,12.908 c 29.2972,23.68937 32.6255,26.31123 33.4243,26.32945 0.4368,0.01 -0.5298,-1.38809 -2.1478,-3.10684 z m -37.6451,-40.83344 c -1.2129,-2.63592 -1.8021,-5.48948 -1.7635,-8.54166 0.063,-4.96611 2.3973,-11.63567 3.6248,-10.35583 0.9357,0.97554 1.5409,22.85667 0.6323,22.85623 -0.3696,-1.8e-4 -1.4916,-1.78163 -2.4936,-3.95874 z m -129.0084,-40.41674 c -3.2869,-4.23961 -9.8415,-12.77083 -14.566,-18.95832 -4.7244,-6.18759 -9.3867,-12.1876 -10.3606,-13.33337 l -1.7709,-2.08337 0.5237,3.33332 c 0.958,6.09579 3.8572,15.9623 5.4695,18.61369 1.5221,2.50282 24.1721,20.13638 25.8648,20.13638 0.4486,0 -1.8736,-3.46872 -5.1605,-7.70833 z m -148.2434,142.02049 c 0,-1.63624 7.7813,-7.14481 21.5179,-15.23324 l 9.718,-5.72214 -6.9901,0.19668 c -4.2814,0.12054 -7.109,-0.14035 -7.2968,-0.67326 -0.5267,-1.49386 39.8612,-23.77622 48.6466,-26.83884 1.7923,-0.6248 4.5597,-4.02047 10.9221,-13.402 4.6867,-6.9109 10.2938,-14.43581 12.4602,-16.72205 3.3832,-3.57042 4.2035,-4.04974 5.814,-3.39726 1.0312,0.41786 1.875,1.31354 1.875,1.99042 0,1.85158 -22.372,45.60986 -24.0027,46.94754 -2.3419,1.92118 -54.1734,27.30737 -62.3508,30.53819 -7.598,3.00196 -10.3134,3.61172 -10.3134,2.31596 z M -2132.2,639.09465 c 0,-1.5585 7.8573,-9.54257 20.2084,-20.53425 4.0104,-3.569 7.2916,-7.03551 7.2916,-7.70329 0,-0.87578 -0.7949,-0.60773 -2.8534,0.96236 -6.3891,4.87325 -52.8584,24.11917 -60.8967,25.22126 -2.9477,0.40406 -3.2092,0.30669 -2.2612,-0.84173 1.2201,-1.47768 22.6022,-15.61563 50.1779,-33.17791 15.8737,-10.10945 19.9645,-13.14881 26.6668,-19.81262 4.3541,-4.3292 13.7292,-12.75801 20.8333,-18.73061 10.6858,-8.98365 12.9601,-10.56771 13.1678,-9.17149 0.3112,2.0938 -12.3221,30.65908 -19.2701,43.57141 l -5.1477,9.56654 -12.9166,9.40187 c -17.2696,12.57026 -28.1129,19.85984 -31.8881,21.43718 -2.9179,1.21918 -3.112,1.20742 -3.112,-0.18872 z m -119.1669,-28.81281 c 0,-2.2759 35.8522,-34.58015 41.875,-37.73121 3.2236,-1.68647 2.9583,-0.38602 -1.3563,6.64719 -2.0064,3.27071 -5.2158,8.67457 -7.1319,12.0086 -4.0392,7.02808 -5.7865,8.3173 -19.9656,14.73172 -12.2569,5.54483 -13.4212,5.92166 -13.4212,4.3437 z m 187.1714,-15.41197 c -0.5891,-0.95316 4.2337,-14.50824 9.0936,-25.55873 l 4.0315,-9.16663 14.6436,-14.89957 c 18.5194,-18.843 38.3705,-37.17061 40.2687,-37.17803 1.9152,-0.009 1.9274,-0.0628 -1.5021,6.74773 -1.6283,3.23321 -6.2829,15.69266 -10.3437,27.68765 -4.0606,11.9948 -7.6424,22.46179 -7.9591,23.25984 -0.8081,2.03517 -26.407,24.88573 -27.4587,24.5105 -1.708,-0.60932 -0.5027,-6.98846 3.2392,-17.14336 2.0973,-5.69181 3.6263,-10.53553 3.3979,-10.76396 -0.535,-0.53495 -0.4532,-0.65274 -3.9527,5.70367 -5.8156,10.56303 -19.5325,27.4922 -22.2758,27.4922 -0.4153,0 -0.9474,-0.31103 -1.1824,-0.69131 z m -68.8228,-5.2545 c 0.026,-1.95787 4.6814,-9.71325 11.6194,-19.3569 7.1271,-9.90649 20.5412,-25.58385 22.4118,-26.19344 1.7566,-0.57235 0.55,3.7205 -4.7145,16.77574 -5.1231,12.70432 -5.3758,13.00854 -18.915,22.77716 -9.0692,6.54345 -10.4193,7.32177 -10.4017,5.99744 z m 64.1518,-62.63082 c 0,-1.66286 7.0547,-12.72095 19.781,-31.00566 8.6128,-12.37455 12.9479,-17.81105 16.8368,-21.11413 3.3331,-2.831 5.5273,-4.15869 6.0346,-3.65133 0.5074,0.50726 -2.4403,7.26641 -8.1068,18.58946 -9.7321,19.44737 -9.1755,18.7306 -24.2566,31.24002 -8.355,6.93044 -10.289,8.0473 -10.289,5.94164 z m 454.1675,-33.11149 c -29.6297,-1.90898 -34.9527,-4.83947 -12.1565,-6.69238 14.1541,-1.15055 59.0801,-1.88014 65.0044,-1.05584 8.8844,1.23625 6.1521,4.09803 -6.2261,6.52108 -8.5075,1.66533 -30.7375,2.25043 -46.6218,1.22714 z m -402.0607,-1.71928 c 0.3039,-0.95732 1.7739,-3.86359 3.2668,-6.45838 10.5814,-18.3919 12.4125,-21.00668 13.7667,-19.65741 0.6402,0.63771 0.3876,2.54651 -0.8822,6.66664 -2.5903,8.40511 -4.169,11.0535 -9.775,16.39802 -5.2911,5.04447 -7.3166,6.01364 -6.3763,3.05113 z m 356.7828,-8.81493 c -2.0774,-2.07735 1.7973,-7.65075 7.2575,-10.43966 2.4816,-1.26764 5.5581,-1.86697 11.0681,-2.15642 l 7.6312,-0.40079 1.5162,-3.36233 c 2.3001,-5.10088 8.3961,-10.89564 13.1747,-12.52392 4.8577,-1.65516 12.2319,-1.755 16.2969,-0.22073 1.6041,0.60543 3.4791,1.31486 4.1666,1.57646 0.8984,0.34189 1.9547,-0.96555 3.7557,-4.64845 4.4119,-9.02213 13.8109,-14.4023 24.7747,-14.18121 9.3933,0.18943 18.2426,5.47904 14.8417,8.87135 -0.6138,0.61224 -4.4776,0.95776 -10.7078,0.95776 -9.012,0 -10.0739,0.17209 -14.0709,2.27952 -2.3779,1.25375 -5.2768,3.52956 -6.4421,5.05728 -2.4746,3.24436 -4.6513,8.97915 -4.6513,12.25428 0,3.5943 -3.2734,3.74198 -8.8268,0.39787 -5.4896,-3.30555 -9.2328,-4.10121 -13.6718,-2.90591 -4.5361,1.22139 -8.3769,4.78491 -11.5265,10.6941 -3.4404,6.45483 -4.2021,7.04709 -7.5579,5.87726 -4.4413,-1.54824 -18.18,-0.56227 -22.3423,1.60343 -3.9266,2.04322 -3.9157,2.0403 -4.6859,1.27011 z m -48.4724,-39.41051 c -0.9166,-0.37523 -3.3809,-0.49205 -5.476,-0.25965 -2.5517,0.283 -4.6438,-0.009 -6.3369,-0.88462 -3.0647,-1.58486 -10.4894,-9.56583 -13.0159,-13.99124 -1.3186,-2.30959 -2.3963,-3.22092 -3.8143,-3.22552 -3.8749,-0.0124 -19.5938,-2.63459 -23.3592,-3.89648 -6.6535,-2.22982 -13.8802,-6.19245 -18.5574,-10.17586 -2.4867,-2.11795 -8.0658,-5.53829 -12.3975,-7.60079 -7.1529,-3.40557 -8.548,-3.77682 -15.1918,-4.04213 -7.3116,-0.29193 -7.3161,-0.29352 -8.4267,-2.91661 -1.4929,-3.52655 -3.444,-5.06233 -8.5348,-6.71864 -2.3523,-0.76533 -4.8996,-2.07957 -5.6608,-2.92051 -0.761,-0.84093 -2.7412,-1.74934 -4.4004,-2.01854 -1.6592,-0.26929 -4.4308,-1.62589 -6.1592,-3.01487 -1.7283,-1.38897 -3.686,-2.31684 -4.3503,-2.06187 -1.6349,0.62736 -7.1393,-1.7528 -7.7533,-3.35252 -0.2795,-0.72844 -1.4871,-1.28771 -2.7805,-1.28771 -3.5196,0 -7.7752,-1.65366 -9.6186,-3.73756 -0.963,-1.08864 -3.5432,-2.32285 -6.1113,-2.92307 -2.4444,-0.57147 -5.4444,-1.93241 -6.6666,-3.02441 -2.0938,-1.87068 -2.1364,-2.0518 -0.7379,-3.13584 1.3544,-1.05 1.2087,-1.20132 -1.6667,-1.73069 -3.8723,-0.71297 -10.0754,-3.37966 -12.0788,-5.19277 -2.6221,-2.373 -1.8393,-3.58899 2.3105,-3.58899 2.3205,0 3.5987,-0.32438 3.2841,-0.83333 -0.2832,-0.45836 -1.3193,-0.83333 -2.3024,-0.83333 -2.9942,0 -16.6819,-7.17214 -19.724,-10.33513 -3.2878,-3.41831 -3.0086,-4.36192 0.9289,-3.13947 1.5203,0.47189 4.3429,1.10217 6.2724,1.40055 l 3.5083,0.54256 -6.5184,-6.52603 c -5.8083,-5.81492 -11.7631,-14.70545 -10.6172,-15.85123 0.2253,-0.22533 5.3323,2.81191 11.3489,6.74951 6.0166,3.9376 11.1212,7.15914 11.3435,7.15914 0.2223,0 -1.4505,-2.22849 -3.7173,-4.95223 -2.2667,-2.72382 -5.2505,-7.31761 -6.6304,-10.20831 -2.5422,-5.32516 -4.1012,-11.52398 -2.8883,-11.48462 0.3644,0.0115 1.9075,1.85706 3.429,4.10058 1.5214,2.24344 4.7391,5.89009 7.1503,8.10346 5.5882,5.12998 13.0001,11.30934 13.0001,10.83842 0,-0.19915 -1.2963,-2.51458 -2.8805,-5.14554 -2.7297,-4.53313 -4.2922,-10.20965 -3.6579,-13.28854 0.193,-0.93653 1.7818,0.69263 4.8054,4.92747 2.4844,3.4795 7.4237,9.10322 10.976,12.49712 7.3395,7.01207 14.6051,10.88936 32.6202,17.40769 14.8837,5.3853 19.3353,7.34618 26.9182,11.85773 7.8729,4.68392 26.6548,13.80739 32.2895,15.68488 2.1931,0.73075 5.0057,1.32583 6.25,1.3222 1.2444,0 6.2776,0.81865 11.1846,1.827 7.9651,1.63668 9.1699,1.70442 11.2327,0.63134 4.2709,-2.2215 24.7699,-16.16199 33.028,-22.46073 14.6585,-11.18058 16.6555,-12.38526 29.7341,-17.93637 24.8342,-10.54083 30.9569,-15.18681 48.5586,-36.84658 4.794,-5.89928 6.8919,-6.77011 6.0226,-2.49999 -1.3124,6.44661 -2.2518,8.90513 -5.7317,15.00003 -2.028,3.55202 -3.5162,6.45829 -3.3072,6.45829 0.2091,0 2.8913,-2.01377 5.9607,-4.47512 5.6275,-4.51296 11.8709,-10.86751 20.0046,-20.36118 2.4333,-2.83994 4.825,-5.16376 5.3149,-5.16376 1.572,0 -0.064,6.61782 -3.1602,12.78851 -3.7582,7.48848 -5.3871,9.7856 -11.4666,16.16995 -2.7279,2.86452 -4.6948,5.20834 -4.371,5.20834 2.0923,0 23.1395,-15.45619 31.1649,-22.88638 2.7409,-2.53758 5.4488,-4.61369 6.0178,-4.61369 1.6352,0 0.3204,4.76023 -2.5506,9.23428 -2.8975,4.51544 -14.455,15.8774 -20.7534,20.40231 -2.3506,1.68885 -4.135,3.20951 -3.9652,3.3793 0.5585,0.55856 14.8745,-4.59689 23.6872,-8.53007 4.7553,-2.12246 8.8518,-3.65328 9.1032,-3.40186 1.8686,1.86865 -10.0205,13.94243 -18.8901,19.18331 l -5.3884,3.18395 8.9584,-0.57518 c 10.219,-0.65602 10.9137,-0.15768 5.4167,3.88498 -4.4909,3.30263 -8.0537,4.82249 -14.3592,6.12524 l -5.0158,1.0362 4.7917,1.52437 c 2.6354,0.83837 4.7916,1.97556 4.7916,2.52714 0,2.08858 -9.6258,5.26909 -16.25,5.36902 l -3.3334,0.0504 2.3212,1.89986 2.3211,1.89987 -2.073,2.23681 c -1.1756,1.26852 -2.9679,2.23689 -4.14,2.23689 -1.3388,0 -2.2543,0.59031 -2.5989,1.67577 -0.6374,2.00855 -4.5019,4.15754 -7.4763,4.15754 -1.5698,0 -2.3774,0.61038 -3.0102,2.27474 -1.0194,2.68129 -2.1535,3.52841 -4.7466,3.54584 -1.0513,0.009 -3.2084,1.31831 -4.8196,2.92943 -1.6296,1.6297 -3.7559,2.9167 -4.8188,2.9167 -1.1265,0 -2.9551,1.18928 -4.4845,2.9167 -1.4201,1.60414 -3.1478,2.91661 -3.8392,2.91661 -0.6914,0 -2.382,1.12499 -3.757,2.49999 -1.375,1.375 -3.2664,2.50008 -4.203,2.50008 -0.9367,0 -3.0155,1.31248 -4.6196,2.91661 -1.6043,1.60423 -3.7189,2.9167 -4.6993,2.9167 -0.9804,0 -2.8966,0.93751 -4.2584,2.08337 -1.3617,1.14578 -3.3676,2.08328 -4.4573,2.08328 -1.0899,0 -2.9191,0.93751 -4.0649,2.08337 -1.2015,1.20149 -3.0693,2.09584 -4.4129,2.11291 -1.2813,0.0159 -3.267,0.56546 -4.4129,1.22041 -1.1459,0.65505 -3.3959,1.21263 -5,1.23899 l -2.9167,0.0486 2.0834,1.71539 c 2.8729,2.36548 22.1459,11.56881 31.25,14.92256 4.125,1.51959 7.875,3.10285 8.3334,3.51859 1.086,0.98482 -3.2577,4.8064 -5.4632,4.8064 -0.8911,0 -1.6202,0.55387 -1.6202,1.23084 0,1.58362 -2.9563,3.44467 -6.6667,4.19672 -1.6041,0.32518 -3.5627,1.16099 -4.3524,1.85724 -0.9782,0.86252 -2.2774,1.09758 -4.0776,0.73756 -1.5342,-0.30688 -3.1193,-0.13221 -3.7806,0.41662 -0.6581,0.54618 -2.542,0.75683 -4.4639,0.49904 -1.8288,-0.24532 -3.5349,-0.10674 -3.7911,0.30802 -0.555,0.89798 -1.8479,0.88374 -4.1178,-0.0451 z m -61.2849,-40.93258 c -1.6651,-3.11134 -0.3932,-4.38676 3.8013,-3.81184 4.2577,0.58358 4.6089,-0.01 1.6503,-2.78971 -2.7629,-2.5955 -2.6298,-4.09917 0.4166,-4.70841 3.7438,-0.74869 3.0424,-1.63747 -2.2917,-2.90396 -2.6354,-0.62568 -4.718,-1.5127 -4.628,-1.97106 0.09,-0.45827 1.7776,-1.22855 3.75,-1.71167 l 3.5864,-0.87843 -5.0001,-0.99066 c -10.4262,-2.06568 -15.0622,-2.66917 -20.5059,-2.66917 -4.8752,0 -5.9664,0.29467 -8.2699,2.23291 -1.4596,1.22802 -5.332,3.57184 -8.6056,5.20834 -8.3632,4.1808 -7.9809,5.34532 1.9647,5.98294 8.4473,0.54159 13.6232,2.0495 25.8334,7.52606 8.3324,3.73721 9.6281,3.96909 8.2985,1.48466 z m -25.7986,-15.76827 c -0.9485,-0.61304 -0.5968,-0.81095 1.4584,-0.82059 1.4896,-0.009 2.7083,0.36223 2.7083,0.82059 0,1.05849 -2.5287,1.05849 -4.1667,0 z m -539.8263,2.48956 c -10.3263,-0.71085 -21.4838,-2.17022 -22.7973,-2.98197 -1.8991,-1.17381 0.072,-1.85529 9.081,-3.14053 31.5629,-4.50244 74.7407,-4.72441 115.081,-0.59155 14.5167,1.48714 19.0155,2.57384 15.403,3.72041 -7.7465,2.45869 -92.8446,4.64031 -116.7677,2.99364 z m -83.1675,-8.63708 c -0.7583,-1.9761 3.7162,-9.38392 7.0646,-11.69598 4.6196,-3.18988 8.3236,-4.46318 14.8551,-5.10682 l 5.9798,-0.58924 1.505,-4.27189 c 2.0901,-5.93298 8.4043,-12.18353 14.8642,-14.71447 4.0061,-1.56956 6.5958,-1.95488 13.3074,-1.97964 7.8711,-0.0292 9.5329,0.29723 16.4584,3.23242 1.2927,0.54777 1.4594,0.0637 1.4683,-4.26278 0.012,-5.72914 1.4808,-11.73711 4.1446,-16.94792 2.7147,-5.31057 11.2632,-13.52846 17.1788,-16.51476 5.6794,-2.86691 15.6023,-5.1742 22.1732,-5.15589 18.0621,0.0495 34.7313,12.09368 39.7764,28.73773 0.5558,1.83336 1.1535,3.79106 1.3283,4.35059 0.2437,0.78019 1.1275,0.73155 3.7915,-0.20835 5.1659,-1.82266 15.5685,-1.58716 21.0864,0.47738 7.6664,2.86841 14.3675,11.13565 16.013,19.75539 l 0.5169,2.70835 h 8.5061 c 9.857,0 15.2968,1.34467 20.4029,5.04349 3.4378,2.49035 6.4592,7.5533 5.4662,9.15991 -0.7682,1.24305 -3.5038,0.94228 -6.8854,-0.75683 -5.9503,-2.98984 -11.7281,-3.87137 -24.1242,-3.6807 l -11.8656,0.18253 -0.4394,-2.2659 c -2.1193,-10.93013 -4.2349,-14.29555 -11.2879,-17.95644 -4.0966,-2.12635 -5.1539,-2.3202 -10.7916,-1.97928 -4.4835,0.27124 -7.6248,1.02294 -11.1141,2.65989 -5.9175,2.77599 -6.4444,2.41588 -7.3392,-5.01643 -1.2023,-9.98732 -9.1962,-20.71086 -18.7893,-25.20552 -4.4257,-2.07364 -5.6982,-2.26811 -14.8408,-2.26811 -9.0869,0 -10.4319,0.20251 -14.7294,2.21699 -14.168,6.64179 -22.6308,22.88673 -19.8659,38.13412 0.7163,3.95025 0.7063,5.47895 -0.042,6.38029 -1.5161,1.82673 -2.7133,1.4629 -7.3595,-2.23646 -5.6578,-4.50474 -11.2886,-6.5782 -17.864,-6.5782 -10.2652,0 -17.6541,4.73821 -19.7368,12.65648 -2.1046,8.00123 -1.6977,7.75617 -12.9362,7.79208 -10.7722,0.0345 -13.9722,0.75214 -21.0105,4.713 -3.6615,2.06056 -4.457,2.25529 -4.8655,1.19097 z"
       id="path11" /></g></svg>
