<?xml version="1.0" encoding="UTF-8" standalone="no"?>
<!-- Created with Inkscape (http://www.inkscape.org/) -->

<svg
   width="1080"
   height="1080"
   viewBox="0 0 285.74997 285.74997"
   version="1.1"
   id="svg1"
   inkscape:version="1.4.2 (f4327f4, 2025-05-13)"
   sodipodi:docname="24.svg"
   xml:space="preserve"
   xmlns:inkscape="http://www.inkscape.org/namespaces/inkscape"
   xmlns:sodipodi="http://sodipodi.sourceforge.net/DTD/sodipodi-0.dtd"
   xmlns="http://www.w3.org/2000/svg"
   xmlns:svg="http://www.w3.org/2000/svg"><sodipodi:namedview
     id="namedview1"
     pagecolor="#ffffff"
     bordercolor="#000000"
     borderopacity="0.25"
     inkscape:showpageshadow="2"
     inkscape:pageopacity="0.0"
     inkscape:pagecheckerboard="0"
     inkscape:deskcolor="#3c3c3c"
     inkscape:document-units="px"
     inkscape:zoom="0.58042029"
     inkscape:cx="265.32498"
     inkscape:cy="467.76449"
     inkscape:window-width="1920"
     inkscape:window-height="991"
     inkscape:window-x="-9"
     inkscape:window-y="-9"
     inkscape:window-maximized="1"
     inkscape:current-layer="layer1" /><defs
     id="defs1"><inkscape:path-effect
       effect="fillet_chamfer"
       id="path-effect13"
       is_visible="true"
       lpeversion="1"
       nodesatellites_param="F,0,0,1,0,0,0,1 @ F,0,0,1,0,61.00658,0,1 @ F,0,1,1,0,61.00658,0,1 @ F,0,0,1,0,0,0,1"
       radius="0"
       unit="px"
       method="auto"
       mode="F"
       chamfer_steps="1"
       flexible="false"
       use_knot_distance="true"
       apply_no_radius="true"
       apply_with_radius="true"
       only_selected="false"
       hide_knots="false" /><inkscape:path-effect
       effect="fillet_chamfer"
       id="path-effect12"
       is_visible="true"
       lpeversion="1"
       nodesatellites_param="F,0,0,1,0,0,0,1 @ F,0,0,1,0,11.839417,0,1 @ F,0,1,1,0,11.839417,0,1 @ F,0,0,1,0,0,0,1"
       radius="0"
       unit="px"
       method="auto"
       mode="F"
       chamfer_steps="1"
       flexible="false"
       use_knot_distance="true"
       apply_no_radius="true"
       apply_with_radius="true"
       only_selected="false"
       hide_knots="false" /><inkscape:path-effect
       effect="fillet_chamfer"
       id="path-effect11"
       is_visible="true"
       lpeversion="1"
       nodesatellites_param="F,0,0,1,0,0,0,1 @ F,0,0,1,0,12.484083,0,1 @ F,0,1,1,0,12.484083,0,1 @ F,0,0,1,0,0,0,1"
       radius="0"
       unit="px"
       method="auto"
       mode="F"
       chamfer_steps="1"
       flexible="false"
       use_knot_distance="true"
       apply_no_radius="true"
       apply_with_radius="true"
       only_selected="false"
       hide_knots="false" /><inkscape:path-effect
       effect="fillet_chamfer"
       id="path-effect10"
       is_visible="true"
       lpeversion="1"
       nodesatellites_param="F,0,0,1,0,0,0,1 @ F,0,0,1,0,11.836638,0,1 @ F,0,1,1,0,11.836638,0,1 @ F,0,0,1,0,0,0,1"
       radius="0"
       unit="px"
       method="auto"
       mode="F"
       chamfer_steps="1"
       flexible="false"
       use_knot_distance="true"
       apply_no_radius="true"
       apply_with_radius="true"
       only_selected="false"
       hide_knots="false" /><inkscape:path-effect
       effect="fillet_chamfer"
       id="path-effect9"
       is_visible="true"
       lpeversion="1"
       nodesatellites_param="F,0,0,1,0,0,0,1 @ F,0,0,1,0,12.45879,0,1 @ F,0,1,1,0,12.45879,0,1 @ F,0,0,1,0,0,0,1"
       radius="0"
       unit="px"
       method="auto"
       mode="F"
       chamfer_steps="1"
       flexible="false"
       use_knot_distance="true"
       apply_no_radius="true"
       apply_with_radius="true"
       only_selected="false"
       hide_knots="false" /><inkscape:path-effect
       effect="fillet_chamfer"
       id="path-effect8"
       is_visible="true"
       lpeversion="1"
       nodesatellites_param="F,0,0,1,0,0,0,1 @ F,0,0,1,0,8.0758933,0,1 @ F,0,0,1,0,16.1919,0,1 @ F,0,0,1,0,0,0,1"
       radius="0"
       unit="px"
       method="auto"
       mode="F"
       chamfer_steps="1"
       flexible="false"
       use_knot_distance="true"
       apply_no_radius="true"
       apply_with_radius="true"
       only_selected="false"
       hide_knots="false" /><inkscape:path-effect
       effect="fillet_chamfer"
       id="path-effect1"
       is_visible="true"
       lpeversion="1"
       nodesatellites_param="C,0,0,1,0,45.584779,0,1 @ F,0,0,1,0,37.379523,0,1 @ F,0,0,1,0,82.964302,0,1 @ F,0,0,1,0,0,0,1"
       radius="0"
       unit="px"
       method="auto"
       mode="F"
       chamfer_steps="1"
       flexible="false"
       use_knot_distance="true"
       apply_no_radius="true"
       apply_with_radius="true"
       only_selected="false"
       hide_knots="false" /></defs><g
     inkscape:label="Capa1"
     inkscape:groupmode="layer"
     id="layer1"
     style="display:inline;opacity:1;mix-blend-mode:multiply"><g
       id="g15"
       transform="matrix(0.99928892,0,0,0.99928892,-5.3086407,18.487903)"
       style="stroke-width:1.00071"><path
         id="path14"
         style="baseline-shift:baseline;display:inline;overflow:visible;opacity:1;mix-blend-mode:normal;vector-effect:none;stroke-width:1.00071;stroke-linecap:round;stroke-linejoin:round;stroke-miterlimit:4.7;enable-background:accumulate;stop-color:#000000;stop-opacity:1"
         d="m 159.97852,118.97656 c -11.99221,0 -23.41976,0.91186 -33.82032,2.56446 a 0.79374999,0.79374999 0 0 0 -0.6582,0.9082 0.79374999,0.79374999 0 0 0 0.9082,0.66016 c 10.31204,-1.63853 21.65868,-2.54688 33.57032,-2.54688 11.9116,0 23.25632,0.90835 33.56835,2.54688 a 0.79374999,0.79374999 0 0 0 0.90821,-0.66016 0.79374999,0.79374999 0 0 0 -0.65821,-0.9082 c -10.40056,-1.6526 -21.82618,-2.56446 -33.81835,-2.56446 z m -49.06641,19.08203 a 0.79374999,0.79374999 0 0 0 -0.79297,0.79493 0.79374999,0.79374999 0 0 0 0.79297,0.79296 c 9.47322,0 18.05862,4.60575 24.30859,12.11524 a 0.79374999,0.79374999 0 0 0 1.11719,0.10156 0.79374999,0.79374999 0 0 0 0.10352,-1.11719 c -6.50396,-7.81465 -15.54066,-12.6875 -25.5293,-12.6875 z m -24.916016,-0.11328 a 0.79374999,0.79374999 0 0 0 -0.794922,0.79297 v 23.81641 c 0,34.12198 27.678808,61.80078 61.800778,61.80078 h 2.57422 c 34.12198,0 61.80078,-27.6788 61.80078,-61.80078 v -23.81641 a 0.79374999,0.79374999 0 0 0 -0.79297,-0.79297 0.79374999,0.79374999 0 0 0 -0.79492,0.79297 v 23.81641 c 0,33.26403 -26.94886,60.21289 -60.21289,60.21289 h -2.57422 c -33.26403,0 -60.212887,-26.94886 -60.212888,-60.21289 v -23.81641 a 0.79374999,0.79374999 0 0 0 -0.792968,-0.79297 z M 197.50586,48.789062 c -6.95507,-1e-6 -12.61133,5.654304 -12.61133,12.609375 v 59.826173 a 0.77037501,0.77037501 0 0 0 0.77149,0.77148 0.77037501,0.77037501 0 0 0 0.76953,-0.77148 V 61.398437 c 0,-6.122388 4.94792,-11.06836 11.07031,-11.068359 h 1.23828 c 6.12239,-10e-7 11.06836,4.945971 11.06836,11.068359 v 77.339843 a 0.77037501,0.77037501 0 0 0 0.77148,0.77149 0.77037501,0.77037501 0 0 0 0.76954,-0.77149 V 61.398437 c 0,-6.955071 -5.65431,-12.609376 -12.60938,-12.609375 z m -24.27344,-11.96875 c -7.31111,3e-6 -13.2539,5.942798 -13.2539,13.253907 v 64.226561 a 0.77037501,0.77037501 0 0 0 0.76953,0.76953 0.77037501,0.77037501 0 0 0 0.76953,-0.76953 V 50.074219 c 0,-6.47776 5.23538,-11.713766 11.71289,-11.714844 6.46446,0.01313 11.67719,5.248432 11.66406,11.712891 a 0.77045205,0.77045205 0 0 0 0,0.002 v 70.203124 a 0.77037501,0.77037501 0 0 0 0.77149,0.76954 0.77037501,0.77037501 0 0 0 0.76953,-0.76954 v -70.201171 -0.002 c 0.0137,-7.296233 -5.9047,-13.239093 -13.20118,-13.253907 a 0.77045205,0.77045205 0 0 0 -0.002,0 z M 147.66797,24.595703 c -6.95354,-1e-6 -12.60742,5.653886 -12.60742,12.607422 v 83.847655 a 0.77037501,0.77037501 0 0 0 0.76953,0.77149 0.77037501,0.77037501 0 0 0 0.77148,-0.77149 V 37.203125 c 0,-6.120854 4.94555,-11.066407 11.06641,-11.066406 h 1.24414 c 6.12086,-1e-6 11.06641,4.945552 11.06641,11.066406 v 82.568355 a 0.77037501,0.77037501 0 0 0 0.76953,0.76954 0.77037501,0.77037501 0 0 0 0.76953,-0.76954 V 37.203125 c 0,-6.953536 -5.65193,-12.607423 -12.60547,-12.607422 z m -24.29688,19.179688 c -7.29714,0 -13.22851,5.931375 -13.22851,13.228515 v 81.734374 a 0.77037501,0.77037501 0 0 0 0.76953,0.77149 0.77037501,0.77037501 0 0 0 0.77148,-0.77149 V 57.003906 c 0,-6.464457 5.22305,-11.6875 11.6875,-11.6875 6.46446,0 11.68946,5.223043 11.68946,11.6875 v 63.273434 a 0.77037501,0.77037501 0 0 0 0.76953,0.76954 0.77037501,0.77037501 0 0 0 0.77148,-0.76954 V 57.003906 c 0,-7.29714 -5.93332,-13.228515 -13.23047,-13.228515 z M 94.070312,88.849609 c -4.876533,0 -8.845703,3.96917 -8.845703,8.845703 v 41.042968 a 0.77037501,0.77037501 0 0 0 0.771485,0.77149 0.77037501,0.77037501 0 0 0 0.769531,-0.77149 V 97.695312 c 0,-4.04385 3.260837,-7.30664 7.304687,-7.30664 h 0.650391 c 8.526197,0 15.421877,6.895677 15.421877,15.421878 v 32.92773 a 0.77037501,0.77037501 0 0 0 0.76953,0.77149 0.77037501,0.77037501 0 0 0 0.77148,-0.77149 v -32.92773 c 0,-9.358884 -7.60401,-16.960941 -16.962887,-16.960941 z" /></g></g></svg>
