<?xml version="1.0" encoding="UTF-8" standalone="no"?>
<!-- Created with Inkscape (http://www.inkscape.org/) -->

<svg
   width="1080"
   height="1080"
   viewBox="0 0 285.74997 285.74997"
   version="1.1"
   id="svg1"
   inkscape:version="1.4.2 (f4327f4, 2025-05-13)"
   sodipodi:docname="34.svg"
   xml:space="preserve"
   xmlns:inkscape="http://www.inkscape.org/namespaces/inkscape"
   xmlns:sodipodi="http://sodipodi.sourceforge.net/DTD/sodipodi-0.dtd"
   xmlns:xlink="http://www.w3.org/1999/xlink"
   xmlns="http://www.w3.org/2000/svg"
   xmlns:svg="http://www.w3.org/2000/svg"><sodipodi:namedview
     id="namedview1"
     pagecolor="#ffffff"
     bordercolor="#000000"
     borderopacity="0.25"
     inkscape:showpageshadow="2"
     inkscape:pageopacity="0.0"
     inkscape:pagecheckerboard="0"
     inkscape:deskcolor="#3c3c3c"
     inkscape:document-units="px"
     inkscape:zoom="0.58042029"
     inkscape:cx="224.83707"
     inkscape:cy="560.80052"
     inkscape:window-width="1920"
     inkscape:window-height="991"
     inkscape:window-x="-9"
     inkscape:window-y="-9"
     inkscape:window-maximized="1"
     inkscape:current-layer="layer1"
     showguides="true" /><defs
     id="defs1"><inkscape:path-effect
       effect="fillet_chamfer"
       id="path-effect16"
       is_visible="true"
       lpeversion="1"
       nodesatellites_param="F,0,0,1,0,0,0,1 @ F,0,0,1,0,0,0,1 @ F,0,0,1,0,0,0,1 @ F,0,0,1,0,0,0,1 @ F,0,0,1,0,0,0,1 @ F,0,0,1,0,0,0,1 @ F,0,0,1,0,0,0,1 @ F,0,0,1,0,0,0,1 @ F,0,0,1,0,0,0,1 @ F,0,0,1,0,0,0,1 @ F,0,0,1,0,0,0,1 @ F,0,0,1,0,0,0,1"
       radius="0"
       unit="px"
       method="auto"
       mode="F"
       chamfer_steps="1"
       flexible="false"
       use_knot_distance="true"
       apply_no_radius="true"
       apply_with_radius="true"
       only_selected="false"
       hide_knots="false" /><inkscape:path-effect
       effect="fillet_chamfer"
       id="path-effect14"
       is_visible="true"
       lpeversion="1"
       nodesatellites_param="F,0,0,1,0,0,0,1 @ F,0,0,1,0,0,0,1 @ F,0,0,1,0,0,0,1 @ F,0,0,1,0,0,0,1 @ F,0,0,1,0,0,0,1 @ F,0,0,1,0,0,0,1 @ F,0,0,1,0,0,0,1 @ F,0,0,1,0,0,0,1 @ F,0,0,1,0,0,0,1 @ F,0,0,1,0,0,0,1 @ F,0,0,1,0,0,0,1 @ F,0,0,1,0,0,0,1"
       radius="0"
       unit="px"
       method="auto"
       mode="F"
       chamfer_steps="1"
       flexible="false"
       use_knot_distance="true"
       apply_no_radius="true"
       apply_with_radius="true"
       only_selected="false"
       hide_knots="false" /><inkscape:path-effect
       effect="perspective-envelope"
       up_left_point="121.59772,150.18227"
       up_right_point="187.63283,150.18227"
       down_left_point="121.59772,220.90777"
       down_right_point="187.63283,220.90777"
       id="path-effect12"
       is_visible="true"
       lpeversion="1"
       deform_type="perspective"
       horizontal_mirror="true"
       vertical_mirror="false"
       overflow_perspective="false" /><inkscape:path-effect
       effect="fillet_chamfer"
       id="path-effect6"
       is_visible="true"
       lpeversion="1"
       nodesatellites_param="F,0,0,1,0,0,0,1 @ F,0,0,1,0,0,0,1 @ F,0,0,1,0,0,0,1 @ F,0,0,1,0,0,0,1 @ F,0,0,1,0,0,0,1 @ F,0,0,1,0,0,0,1 @ F,0,0,1,0,0,0,1 @ F,0,0,1,0,0,0,1 @ F,0,0,1,0,0,0,1 @ F,0,0,1,0,0,0,1 @ F,0,0,1,0,0,0,1 @ F,0,0,1,0,0,0,1"
       radius="0"
       unit="px"
       method="auto"
       mode="F"
       chamfer_steps="1"
       flexible="false"
       use_knot_distance="true"
       apply_no_radius="true"
       apply_with_radius="true"
       only_selected="false"
       hide_knots="false" /><inkscape:path-effect
       effect="fillet_chamfer"
       id="path-effect3"
       is_visible="true"
       lpeversion="1"
       nodesatellites_param="F,0,0,1,0,0,0,1 @ F,0,0,1,0,0,0,1 @ F,0,0,1,0,0,0,1 @ F,0,0,1,0,0,0,1 @ F,0,0,1,0,0,0,1 @ F,0,0,1,0,0,0,1 @ F,0,0,1,0,0,0,1 @ F,0,0,1,0,0,0,1 @ F,0,0,1,0,0,0,1 @ F,0,0,1,0,0,0,1 @ F,0,0,1,0,0,0,1 @ F,0,0,1,0,0,0,1"
       radius="0"
       unit="px"
       method="auto"
       mode="F"
       chamfer_steps="1"
       flexible="false"
       use_knot_distance="true"
       apply_no_radius="true"
       apply_with_radius="true"
       only_selected="false"
       hide_knots="false" /><inkscape:path-effect
       effect="fillet_chamfer"
       id="path-effect2"
       is_visible="true"
       lpeversion="1"
       nodesatellites_param="F,0,1,1,0,6.1383165,0,1 @ F,0,1,1,0,6.1383165,0,1 @ F,0,1,1,0,6.1383165,0,1 @ F,0,1,1,0,6.1383165,0,1 @ F,0,0,1,0,6.1383165,0,1 @ F,0,1,1,0,6.1383165,0,1"
       radius="0"
       unit="px"
       method="auto"
       mode="F"
       chamfer_steps="1"
       flexible="false"
       use_knot_distance="true"
       apply_no_radius="true"
       apply_with_radius="true"
       only_selected="false"
       hide_knots="false" /><inkscape:path-effect
       effect="fillet_chamfer"
       id="path-effect1"
       is_visible="true"
       lpeversion="1"
       nodesatellites_param="C,0,0,1,0,45.584779,0,1 @ F,0,0,1,0,37.379523,0,1 @ F,0,0,1,0,82.964302,0,1 @ F,0,0,1,0,0,0,1"
       radius="0"
       unit="px"
       method="auto"
       mode="F"
       chamfer_steps="1"
       flexible="false"
       use_knot_distance="true"
       apply_no_radius="true"
       apply_with_radius="true"
       only_selected="false"
       hide_knots="false" /><filter
       inkscape:collect="always"
       style="color-interpolation-filters:sRGB"
       id="filter20"
       x="-0.13525726"
       y="-0.15157331"
       width="1.2705145"
       height="1.3031466"><feGaussianBlur
         inkscape:collect="always"
         stdDeviation="7.3743954"
         id="feGaussianBlur20" /></filter></defs><g
     inkscape:label="Capa1"
     inkscape:groupmode="layer"
     id="layer1"
     style="display:inline;opacity:1;mix-blend-mode:multiply"><g
       id="g21"
       transform="matrix(1.1642032,0,0,1.1671673,-23.46053,-22.618411)"
       style="stroke-width:0.857865"><path
         id="path19"
         style="display:inline;opacity:1;fill:#ffffff;stroke-width:1.36187;stroke-linecap:round;stroke-linejoin:round;stroke-miterlimit:4.7"
         d="m 142.875,79.072266 c -3.70026,0 -7.40236,0.597157 -10.95703,1.792968 L 84.175781,96.925781 C 76.66987,99.450813 72.053019,107.10499 73.322266,114.92188 l 9.65625,59.46484 c 1.252261,7.71228 6.686543,14.1143 14.091796,16.60547 l 34.847658,11.72265 c 7.10799,2.39117 14.80606,2.39117 21.91406,0 l 34.84766,-11.72265 c 7.40524,-2.49118 12.83954,-8.89318 14.09179,-16.60547 l 9.65625,-59.46484 c 1.26925,-7.81689 -3.3476,-15.471069 -10.85351,-17.996099 L 153.83203,80.865234 c -3.55468,-1.195808 -7.25677,-1.792968 -10.95703,-1.792968 z" /><path
         id="path20"
         style="display:inline;opacity:0.619415;mix-blend-mode:normal;fill:#000000;stroke-width:1.36187;stroke-linecap:round;stroke-linejoin:round;stroke-miterlimit:4.7;filter:url(#filter20)"
         d="m 187.29756,186.88289 -34.84905,11.72341 c -6.21133,2.08952 -12.93572,2.08952 -19.14704,0 L 98.452413,186.88289 c -5.88842,-1.9809 -10.196666,-7.05836 -11.192393,-13.19073 L 77.604446,114.2265 c -0.93382,-5.7511 2.432324,-11.33298 7.954644,-13.19072 l 47.74238,-16.0608 c 6.21132,-2.089523 12.93571,-2.089523 19.14704,0 l 47.74238,16.0608 c 5.52232,1.85774 8.88846,7.43962 7.95464,13.19073 l -9.65558,59.46565 c -0.99572,6.13237 -5.30397,11.20983 -11.19239,13.19073 z"
         sodipodi:nodetypes="ccccccc" /><path
         style="opacity:1;fill:#ffffff;stroke-width:1.36187;stroke-linecap:round;stroke-linejoin:round;stroke-miterlimit:4.7"
         sodipodi:type="inkscape:offset"
         inkscape:radius="4.2805343"
         inkscape:original="M 142.875 83.408203 C 139.64107 83.408203 136.40644 83.929848 133.30078 84.974609 L 85.558594 101.03516 C 80.036274 102.8929 76.669696 108.47546 77.603516 114.22656 L 87.259766 173.69141 C 88.255493 179.82378 92.564705 184.90191 98.453125 186.88281 L 133.30078 198.60547 C 139.5121 200.69499 146.23789 200.69499 152.44922 198.60547 L 187.29688 186.88281 C 193.18529 184.90191 197.49451 179.82378 198.49023 173.69141 L 208.14648 114.22656 C 209.0803 108.47545 205.71373 102.8929 200.19141 101.03516 L 152.44922 84.974609 C 149.34355 83.929848 146.10893 83.408203 142.875 83.408203 z "
         xlink:href="#path1"
         id="path21"
         inkscape:href="#path1"
         d="m 142.875,79.126953 c -3.69424,0 -7.39058,0.597155 -10.93945,1.791016 L 84.193359,96.978516 C 76.71307,99.494928 72.113992,107.12191 73.378906,114.91211 l 9.65625,59.46484 c 1.248948,7.69188 6.667074,14.07792 14.052735,16.5625 l 34.847659,11.72266 c 7.09641,2.38727 14.78249,2.38727 21.8789,0 l 34.84766,-11.72266 c 7.38565,-2.48458 12.80379,-8.87062 14.05273,-16.5625 l 9.65625,-59.46484 c 1.26492,-7.79021 -3.33416,-15.417183 -10.81445,-17.933594 L 153.81445,80.917969 c -3.54887,-1.193858 -7.24521,-1.791016 -10.93945,-1.791016 z" /><path
         id="path1"
         style="opacity:1;fill:#5fbcd3;stroke-width:1.36187;stroke-linecap:round;stroke-linejoin:round;stroke-miterlimit:4.7"
         d="m 187.29756,186.88289 -34.84905,11.72341 c -6.21133,2.08952 -12.93572,2.08952 -19.14704,0 L 98.452413,186.88289 c -5.88842,-1.9809 -10.196666,-7.05836 -11.192393,-13.19073 L 77.604446,114.2265 c -0.93382,-5.7511 2.432324,-11.33298 7.954644,-13.19072 l 47.74238,-16.0608 c 6.21132,-2.089523 12.93571,-2.089523 19.14704,0 l 47.74238,16.0608 c 5.52232,1.85774 8.88846,7.43962 7.95464,13.19073 l -9.65558,59.46565 c -0.99572,6.13237 -5.30397,11.20983 -11.19239,13.19073 z"
         sodipodi:nodetypes="ccccccc" /><ellipse
         style="opacity:1;fill:#1c5665;fill-opacity:1;stroke:none;stroke-width:2.26977;stroke-linecap:round;stroke-linejoin:round;stroke-miterlimit:4.7;stroke-dasharray:none"
         id="circle17"
         cx="142.87498"
         cy="138.12093"
         rx="52.083626"
         ry="48.687675" /><ellipse
         style="opacity:1;fill:#2c89a0;fill-opacity:1;stroke:none;stroke-width:2.26977;stroke-linecap:round;stroke-linejoin:round;stroke-miterlimit:4.7;stroke-dasharray:none"
         id="circle16"
         cx="142.87498"
         cy="142.70233"
         rx="42.659725"
         ry="41.748028" /><circle
         style="opacity:1;fill:#ffffff;fill-opacity:1;stroke:none;stroke-width:2.26977;stroke-linecap:round;stroke-linejoin:round;stroke-miterlimit:4.7;stroke-dasharray:none"
         id="path16"
         cx="142.87498"
         cy="141.79063"
         r="27.844669" /><path
         id="rect3"
         style="opacity:1;fill:#216778;stroke-width:1.36186;stroke-linecap:round;stroke-linejoin:round;stroke-miterlimit:4.7"
         d="m 126.43878,105.93978 -21.10517,33.62378 3.67936,10.26139 -6.2177,-6.21771 -16.746268,-18.89032 -5.697843,6.427 6.908622,42.5483 c 0.995727,6.13237 5.304177,11.20951 11.192597,13.19041 l 34.849032,11.72383 c 6.21132,2.08952 12.93583,2.08952 19.14715,0 l 34.84903,-11.72383 c 5.88842,-1.9809 10.19687,-7.05804 11.1926,-13.19041 l 9.65522,-59.46561 c 0.11398,-0.70195 0.16424,-1.40142 0.154,-2.09186 l -17.93896,20.23545 3.37809,9.42113 -6.21771,-6.21771 -14.66628,-16.54421 -19.52491,22.02501 3.37809,9.42113 -6.21771,-6.2177 z" /><path
         id="path12"
         style="baseline-shift:baseline;display:inline;overflow:visible;opacity:1;mix-blend-mode:normal;vector-effect:none;fill:#5fbcd3;fill-opacity:1;stroke-width:0.857865;stroke-linecap:round;stroke-linejoin:round;stroke-miterlimit:4.7;enable-background:accumulate;stop-color:#000000;stop-opacity:1"
         d="m 157.10099,150.18229 c -26.15652,8.09681 -35.12932,15.24038 -35.49189,21.9612 -0.39649,7.35187 9.82106,14.19501 20.20962,20.91256 2.67644,1.73066 5.36675,3.45224 7.87755,5.17441 1.10578,-0.0691 2.20132,-0.20253 3.28146,-0.40186 l 27.57299,-5.08845 c -3.65788,-2.9814 -8.33782,-5.98469 -13.06535,-9.04166 -10.40062,-6.72529 -21.00384,-13.71552 -20.58634,-21.45501 0.20652,-3.82946 3.18709,-7.84307 10.20196,-12.06119 z"
         transform="matrix(1,-0.15186847,0,1,-0.52916661,24.010353)" /><path
         id="rect14"
         style="opacity:1;fill:#216778;fill-opacity:1;stroke-width:2.26977;stroke-linecap:round;stroke-linejoin:round;stroke-miterlimit:4.7"
         d="m 155.70624,182.23175 -5.62498,7.78919 h 1.78232 l -3.03237,4.19923 h 2.0066 l -4.12068,5.70662 c 1.93833,-0.25007 3.85827,-0.69019 5.73143,-1.32033 l 9.08678,-3.05666 -0.96015,-1.32963 h 2.0066 l -3.03237,-4.19923 h 1.78232 z" /></g></g></svg>
