<?xml version="1.0" encoding="UTF-8" standalone="no"?>
<!-- Created with Inkscape (http://www.inkscape.org/) -->

<svg
   width="1080"
   height="1080"
   viewBox="0 0 285.74997 285.74997"
   version="1.1"
   id="svg1"
   inkscape:version="1.4.2 (f4327f4, 2025-05-13)"
   sodipodi:docname="75.svg"
   xml:space="preserve"
   xmlns:inkscape="http://www.inkscape.org/namespaces/inkscape"
   xmlns:sodipodi="http://sodipodi.sourceforge.net/DTD/sodipodi-0.dtd"
   xmlns="http://www.w3.org/2000/svg"
   xmlns:svg="http://www.w3.org/2000/svg"><sodipodi:namedview
     id="namedview1"
     pagecolor="#ffffff"
     bordercolor="#000000"
     borderopacity="0.25"
     inkscape:showpageshadow="2"
     inkscape:pageopacity="0.0"
     inkscape:pagecheckerboard="0"
     inkscape:deskcolor="#3c3c3c"
     inkscape:document-units="px"
     inkscape:zoom="0.58042029"
     inkscape:cx="273.93942"
     inkscape:cy="549.60174"
     inkscape:window-width="1920"
     inkscape:window-height="991"
     inkscape:window-x="-9"
     inkscape:window-y="-9"
     inkscape:window-maximized="1"
     inkscape:current-layer="layer1" /><defs
     id="defs1"><inkscape:path-effect
       effect="fillet_chamfer"
       id="path-effect1"
       is_visible="true"
       lpeversion="1"
       nodesatellites_param="C,0,0,1,0,45.584779,0,1 @ F,0,0,1,0,37.379523,0,1 @ F,0,0,1,0,82.964302,0,1 @ F,0,0,1,0,0,0,1"
       radius="0"
       unit="px"
       method="auto"
       mode="F"
       chamfer_steps="1"
       flexible="false"
       use_knot_distance="true"
       apply_no_radius="true"
       apply_with_radius="true"
       only_selected="false"
       hide_knots="false" /></defs><g
     inkscape:label="Capa1"
     inkscape:groupmode="layer"
     id="layer1"
     style="display:inline;opacity:1;mix-blend-mode:multiply"><g
       id="g2"
       transform="matrix(1.6784784,0,0,1.6784784,17.544948,0.67638401)"
       style="stroke-width:0.595777"><path
         id="text1"
         style="font-size:137.912px;line-height:0px;font-family:'League Gothic';-inkscape-font-specification:'League Gothic, Normal';text-align:center;letter-spacing:0px;word-spacing:0.0344781px;text-anchor:middle;opacity:1;stroke-width:3.94082;stroke-linecap:square;stroke-miterlimit:4.7"
         d="m 49.381485,32.788102 c -4.965,0 -7.651,0.267 -10.409,2.3357 -2.758,2.0687 -5.332,4.9797 -6.573,7.7379 -1.517,3.172 -2.161,6.7321 -2.299,10.7316 l -0.282,13.3852 -0.178,12.6485 1.373,9.565 -0.87,8.14 -0.329,11.063998 0.012,6.415 c -0.138,4.137 0.976,7.612 2.217,10.784 1.103,2.759 1.971,5.4 4.453,7.468 2.483,2.207 5.921,3.964 10.748,3.964 4.827,0 10.054,-3.784 12.812,-7.232 l 1.471,4.887 7.864,-0.46 0.339,-7.111 1.122,-4.529 -1.953,-6.112 1.647,-7.859 -0.723,-6.722 0.59,-8.468998 -1.47,-8.45 -8.936,-0.602 -11.394,1.103 0.911,11.89 4.81,-0.692 1.477,19.559998 c 0,1.517 -1.484,0.982 -1.898,1.947 -0.551,2.069 -0.837,5.152 -3.458,5.152 -1.241,0 -2.829,-0.43 -3.519,-1.119 -1.379,-1.517 -2.816,-3.765 -2.816,-6.661 l 0.191,-8.73 1.58,-9.046998 -1.145,-13.705 0.93,-9.6881 -0.314,-9.6672 v -10.4136 c 0,-1.3792 -0.32,-3.4343 0.094,-4.5376 0.552,-1.7929 1.37,-3.5006 3.991,-3.5006 1.241,0 3.207,0.2216 3.896,0.9111 1.379,1.655 2.253,4.8743 2.253,7.6325 l -1.296,15.0155 8.418,0.1587 7.976,-0.6901 0.011,-14.3839 c -0.138,-3.9994 -2.679,-8.0479 -4.196,-11.2199 -1.241,-2.7582 -2.009,-5.2634 -4.767,-7.332 -2.759,-2.0687 -7.211,-4.7096 -12.176,-4.7096 z m 0.959,4.8268 c 0.235,0.0112 1.363,-1.6985 1.596,-1.6784 -0.064,0.106 -0.394,1.2001 -0.581,1.2001 -0.213,0 0.362,-0.3181 0.403,-0.448 z m -2.718,-0.7567 c 0.401,0.0055 2.083,0.705 1.9,1.0012 -0.224,0.3618 -0.728,-0.633 -1.106,-1.089 -0.236,-0.2844 -1.945,-0.4828 -1.725,-0.619 0.058,-0.0361 1.523,1.1501 1.598,1.1512 z m -4.303,2.6589 c 0.133,-0.0027 -1.058,0.0788 -0.874,0.3277 0.651,0.8827 0.145,1.1582 -0.555,0.3145 -0.285,-0.3434 0.778,-0.6094 1.051,-0.8783 0.11,-0.1084 0.143,0.0172 0.234,0.0154 z m -1.904,-0.3459 c 0.415,0 -0.224,2.7779 -0.44,3.1272 -0.198,0.3205 -1.006,-0.2952 -1.179,-0.5737 -0.19,-0.3086 0.657,-2.023 1.029,-2.5317 0.091,-0.0822 0.251,1.1558 0.344,1.0766 0.014,-0.004 0.136,-0.5825 0.15,-0.5825 z m -3.32,3.6729 c 0.155,0 1.32,-1.1029 1.32,-0.9477 0,0.1552 -0.09,0.8683 -0.246,0.8683 -0.155,0 -1.141,-0.0218 -1.141,-0.1771 0,-0.1552 -0.103,0.5544 0.052,0.5544 z m 16.73,-0.2494 c 0.045,0.0013 -0.977,0.4392 -0.939,0.4535 0.546,0.2096 0.427,0.8132 -0.074,1.2165 -0.381,-0.2167 -0.613,0.3338 -1.013,0.1747 0.32,-0.2679 1.296,-1.7476 1.571,-1.7635 0.016,-9e-4 -0.861,0.9547 -0.846,0.9552 z m -14.911,0.8831 c 0.109,-0.0035 -0.674,-1.1218 -0.439,-1.0631 0.426,0.1069 1.351,1.3461 1.4,1.396 0.05,0.0499 -0.473,0.4617 -0.445,1.4418 0.04,1.3971 -0.113,1.9836 -0.45,2.0529 -0.297,0.0609 0.945,-0.5547 0.72,-1.3873 -0.179,-0.6643 -1.981,-1.9209 -2.069,-2.4421 -0.107,-0.6301 0.656,0.442 0.895,0.4343 z m 2.497,2.7406 c 0.055,0.0032 0.82,0.1484 0.874,0.1607 -0.127,0.2157 -1.048,0.4566 -1.158,0.6834 -0.332,-0.0209 -0.333,0.594 -0.333,0.4665 0,-0.2654 -0.37,-0.186 0.02,-0.1632 z m -2.934,2.6614 c 0.211,0.0044 2.013,-1.0709 2.11,-0.819 0.228,0.5942 -1.894,1.9306 -2.334,1.4905 l 1.21,0.0307 c -0.104,-0.1034 -0.427,-0.1623 -0.427,-0.3693 0,-0.2498 -0.821,-0.4862 -0.611,-0.4818 z m 3.19,0.4899 c -0.419,1.2037 -0.586,1.3505 -0.752,2.4836 -0.393,0.4943 -1.26,1.5955 -1.695,1.6005 -0.279,0.003 -0.133,-1.2051 0.025,-1.887 0.116,-0.5045 -0.529,-1.713 -0.514,-2.101 0.022,-0.5955 -0.237,-0.4199 0.415,-0.3513 0.616,0.0648 0.846,0.4045 0.846,-0.0539 0,-0.3301 0.78,-0.9573 1.057,-1.0058 z m 21.532,1.2851 c 0.13,-0.0068 -0.557,1.2221 -0.415,1.3118 0.706,0.4453 -0.51,1.317 -1.321,1.4256 -0.388,0.0519 0.21,-1.0114 0.062,-0.8693 -0.385,0.3717 -0.307,1.523 -0.307,1.0893 0,-0.2058 0.004,-0.431 0.399,-0.8021 0.354,-0.3326 0.942,-1.1524 1.159,-1.1637 z m -2.789,2.3436 c 0.675,0 -0.571,1.7051 -1.239,2.3096 -0.639,0.5783 0.694,1.2 0.484,0.6534 -0.212,-0.5537 -0.14,-2.6486 0.537,-2.6486 z m -20.955,2.4191 c 0.369,0.0034 -0.764,-0.058 -1.648,0.8482 -1.086,1.1117 -1.096,1.3258 -1.418,0.8063 -0.253,-0.41 -0.645,-0.9256 0.761,-1.8741 0.614,-0.4144 1.57,0.068 1.791,0.0701 z m -1.864,2.9149 c 0.24,-0.0042 -0.178,1.1537 -0.055,1.3528 0.29,0.4702 -1.135,0.9007 -1.53,0.5062 -0.186,-0.1863 0.935,-1.4293 0.935,-1.5534 0,-0.1472 -1.059,0.4252 -0.871,0.4219 z m 2.732,0.0194 c 0.033,0.8496 -0.443,3.3455 -0.478,4.0696 -0.085,0.0377 0.142,-1.2386 0.078,-1.2386 -0.184,0 -0.914,1.1873 -0.914,1.0321 0,-0.1552 -0.617,-0.9728 -0.849,-0.9728 -0.233,0 0.609,-0.0168 0.609,-0.1874 0,-0.2859 -0.486,-1.333 0.149,-1.8147 z m -5.942,3.5315 c 0.233,0 0.029,1.6668 0.029,1.8996 0,0.2328 -0.277,0.2185 -0.51,0.2185 -0.06,0 -0.367,0.2023 -0.419,0.1792 0,-0.2584 0.624,-0.9848 0.624,-1.2432 0.052,-0.0227 0.256,-1.0465 0.316,-1.0465 z m 4.854,11.1944 c 0,1.4832 0.517,1.3215 0.516,2.8049 -0.178,0.302 -0.298,1.1314 -0.643,1.1314 -0.297,0 -1.325,-0.7717 -1.174,-1.3485 0.111,-0.4268 2.059,-0.249 2.134,-1.0565 0.089,-0.9433 -0.596,-2.6308 -0.285,-2.896 z m -0.59,0.8312 c 0.021,-0.0011 -0.462,-0.1105 -0.44,-0.1096 0.372,0.0155 1.061,-1.2611 0.983,-0.8601 -0.125,0.6496 -1.994,1.1655 -2.22,0.5767 -0.098,-0.2548 -0.428,-0.0402 -0.262,-0.2056 0.117,-0.1176 1.517,-1.0276 1.666,-1.0351 z m -1.466,0.6826 c 0.014,4e-4 -0.888,1.0194 -0.875,1.0238 0.555,0.1848 0.498,1.1061 -0.046,1.5035 -0.566,0.4139 0.723,-0.2354 0.463,-0.4958 -0.268,-0.2675 -1.008,-0.6174 -0.607,-0.6439 0.005,-3e-4 -0.099,-0.531 -0.094,-0.5309 z m -4.032,1.8562 c 0.609,0.239 1.367,1.4796 1.192,1.7629 -0.259,0.4194 -0.258,0.6212 -0.814,0.0499 0,-0.4993 0.574,-0.418 0.574,-0.9173 z m 4.299,1.5549 c 0.221,-0.0028 0.581,0.622 0.823,0.7521 0.811,0.4343 -0.57,1.1513 -1.433,1.7163 -0.835,0.547 -0.446,-0.12 -0.805,-0.566 -0.371,-0.461 -0.166,-2.806 0.305,-2.9866 0.05,-0.0193 -0.799,1.3373 -0.725,1.3364 z m 0.543,1.7634 c 0.022,0 0.024,-0.9376 0.042,-0.9315 0.179,0.0619 0.757,0.5605 0.71,1.0115 -0.355,3.387 0.332,5.324 0.626,5.324 0.173,0 -0.518,-1.811 -0.371,-2.199 0.129,-0.34 -0.025,1.107 0.235,1.012 -0.002,3.408 0.155,5.792 0.155,9.202 -0.527,0.577 0.282,0.986 -0.132,0.882 -0.848,-0.213 -1.745,-0.569 -1.227,0.222 0.409,0.625 0.853,1.471 0.444,2.719 -0.246,0.752 -1.904,2.665 -1.904,3.012998 0,0.348 0.913,0.485 0.734,0.981 -0.284,0.785 -0.343,0.869 0.187,1.613 0.765,1.075 0.703,0.63 -0.092,1.266 -0.897,0.719 -1.233,4.415 -0.788,5.127 0.422,0.675 -0.19,2.478 -0.605,2.735 -0.185,0.114 0.19,0.423 0.289,1.038 0.351,2.171 0.8,3.536 0.829,8.973 0.012,2.137 -1.234,4.789 -1.286,5.763 -0.703,-1.029 0.046,-2.683 -0.425,-3.893 -0.043,-0.724 -0.762,-2.343 -0.589,-2.556 0.21,-0.258 0.254,0.86 0.023,0.63 -0.361,-0.362 0.274,-3.39 0.6,-3.716 0.31,-0.31 -0.684,-2.485 -0.967,-3.135 -0.814,-1.868 -0.459,-1.229 -0.173,-1.515 0.4,-0.401 -0.26,-3.713 -0.668,-4.121 -0.215,-0.215 0.916,-0.996 1.096,-1.236 0.15,-0.201 -0.166,-1.949 -0.13,-3.152 0.062,-2.035 -0.807,-2.022 -1.343,-2.022 -0.762,0 -0.85,0.138 -0.091,-0.268 0.844,-0.452 1.051,-2.594998 0.137,-2.941998 -0.185,-0.071 0.07,-0.539 -0.03,-0.615 0,-0.595 0.07,-0.318 0.07,-0.914 0.099,-0.366 0.257,0.255 0.372,-0.024 0.338,-0.817 -0.183,-1.258 -0.645,-1.596 -0.078,-0.057 0.683,-0.744 0.628,-0.816 0,-0.873 0.558,-1.638 0.558,-2.511 0.053,-0.332 -1.754,0.083 -1.68,-0.34 0.102,-0.582 1.168,-2.028 1.027,-2.028 -0.035,0 0.076,-0.371 0.033,-0.328 -0.001,-1.322 0.288,-1.749 0.287,-3.07 0.037,-0.331 0.4,-0.449 0.4,-0.747 0,-0.422 -0.329,-1.205 -0.18,-1.297 0.359,-0.222 -0.915,-3.499 -1.275,-3.722 -0.155,-0.096 1.397,-1.169 1.397,-1.38 0,-0.551 2.355,0.749 2.713,1.316 0.165,0.26 0.183,0.72 0.186,0.509 0.006,-0.473 0.905,-2.113 1.355,-2.113 z m 1.294,0.552 c -10e-4,0.986 1.059,0.644 1.058,1.629 -0.369,0.004 -2.02,0.838 -1.817,0.387 0.121,-0.271 1.08,-1.739 1.145,-2.476 0.014,-0.158 -0.542,-0.764 -0.522,-0.8936 z m -2.299,2.811 c -0.063,0.001 -0.836,-0.361 -0.955,-0.262 -0.233,0.193 -0.713,1.042 -0.713,1.402 0,0.36 0.14,0.749 -0.015,0.844 -0.155,0.096 -0.729,-0.648 -0.729,0.137 0,1.239 0.083,2.434 0.449,2.13 0.241,-0.2 1.395,-0.33 1.395,-0.944 0,-0.593 -0.847,-2.801 -0.692,-2.897 0.156,-0.096 1.763,0.225 1.763,-0.328 0,-0.579 -0.331,-1.418 -0.459,-1.417 z m -3.354,0.428 c 0.023,0.096 0.539,-0.292 0.539,-0.217 0,0.096 -0.958,1.224 -0.981,1.291 0,-0.168 0.929,-1.514 0.929,-1.682 z m 4.795,4.247 c -0.164,0 -1.968,0.912 -1.872,1.067 0.096,0.155 0.545,0.389 0.613,0.389 0.069,0 0.141,-0.17 0.141,-0.325 0,-0.155 0.915,-0.572 0.751,-0.572 z m -3.067,-0.222 c -0.307,-0.011 -1.72,1.473 -1.72,1.866 0,0.585 0.71,-0.458 1.067,-1.126 0.173,-0.323 1.146,0.719 1.06,0.632 -0.03,-0.029 -0.194,-1.865 -0.238,-1.867 z m 4.173,1.271 c -0.204,0.011 -1.758,-0.121 -1.758,0.106 0,0.262 0.351,-0.367 0.697,-0.367 0.345,0 0.324,-0.377 0.256,-0.584 -0.1,-0.3 -0.322,-0.338 -0.585,-0.325 z m -3.921,0.12 c -0.372,0 -0.949,-0.417 -0.949,0.613 0,0.459 0.512,2.275 0.201,2.883 -0.584,1.146 -1.635,2.064 -1.152,1.766 0.151,-0.093 1.063,-0.876 1.285,-1.374 0.743,-1.659 2.2,-4.123 1.722,-4.123 z m 3.867,1.413 c -0.1,10e-4 -1.148,-0.523 -1.283,-0.472 -0.25,0.096 -0.141,0.451 -0.045,0.607 0.229,0.371 0.724,-0.622 0.959,-1.001 0.194,-0.315 0.528,1.182 0.227,1.186 z m 25.711,-0.322 c 0.175,0 -0.553,0.737 -0.456,0.799 l -0.86,0.098 c -0.071,0.112 1.204,1.378 1.09,1.498 -0.668,0.711 -1.167,-0.02 -1.466,-0.319 -0.279,-0.279 1.235,-0.993 1.678,-0.993 z m -12.013,3.206 c 0.267,0.184 -0.568,-1.422 -0.526,-1.28 l 0.034,0.635 -0.483,-0.89 z m 5.23,2.059 c 0.317,0.011 0.452,0.358 0.237,0.991 -0.25,0.735 1.234,-0.268 1.182,0.148 -0.023,0.18 -2.225,1.237 -2.54,1.237 l 1.586,-1.426 c 0,-0.515 -1.23,0.029 -1.415,-0.452 0.149,-0.193 1.334,-0.975 1.471,-1.17 0.166,-0.238 -0.725,-0.338 -0.573,-0.347 0.01,0 1.52,0.964 1.53,0.965 z m 4.463,-1.292 c 0.871,0 2.79,1.542 2.192,2.14 -0.479,0.479 -2.722,0.108 -2.926,-0.422 -0.255,-0.666 0.535,-0.63 1.465,-0.63 z m -23.516,0.362 c 0,0.688 0.216,2.362 0.216,3.051 -0.174,0.133 -0.842,-0.123 -0.894,-0.174 -0.305,-0.305 0.614,-1.86 1.036,-2.754 z m -0.989,3.89 c 0.22,0.008 0.674,0.5 0.674,1.37 0,1.076998 -1.18,2.322998 -1.729,2.400998 -0.383,0.054 0.703,0.187 0.704,-0.038 0.001,-0.205 -0.182,-0.527 -0.017,-1.118 0.179,-0.648 0.665,-1.216998 0.847,-1.209998 z m 18.896,1.726998 c 0.246,0.135 1.11,-1.174998 0.878,-0.952998 l -0.452,-0.449 z m 5.88,0.116 c 0.056,0 -0.262,-1.226998 -0.205,-1.221998 0.656,0.064 0.109,0.832 0.177,1.310998 0.081,0.568 0.769,0.018 -0.243,0.018 -0.623,0 -2.162,-0.305998 -2.262,-0.467998 -0.308,-0.498 0.342,-0.334 1.18,-0.33 z m -23.428,-1.018998 c 10e-4,0.353 -0.272,1.681998 -0.272,2.035998 -0.047,-0.034 1.243,-0.748 1.219,-0.788 -0.119,-0.193 -1.479,0.039 -1.324,-0.323 z m -6.106,2.147998 c 0.208,0.049 0.958,0.224 0.699,0.715 0,-0.301 -1.207,-0.222 -1.207,-0.523 z m 25.642,2.218 c 0.13,-0.002 1.255,-0.899 1.389,-0.738 0.361,0.436 -0.927,1.806 -1.412,1.806 -0.151,0 -0.016,-0.425 -0.109,-0.668 -0.173,-0.449 -0.433,-1.05 -0.147,-1.054 z m 5.128,-0.776 c 0.254,-0.004 0.238,-0.371 0.599,-0.032 0.042,0.04 -0.472,0.375 -0.431,0.409 l -0.166,1.741 c -0.517,0.118 -0.501,-0.51 -0.622,-0.726 -0.065,-0.116 -1.399,0.298 -1.502,-0.133 -0.151,-0.633 0.547,-1.733 0.919,-1.739 z m -2.297,3.219 c 0.37,0.012 1.116,-1.028 1.116,-0.518 0,0.362 -0.662,1.675 -0.5,1.838 0.287,0.286 1.207,0.747 0.381,2.681 -0.132,0.311 -1.315,0.332 -1.235,1.574 0.079,1.242 0.434,5.525 0.511,7.997 0.076,2.473 0.426,5.237 0.586,5.43 0.386,0.466 1.368,2.373 0.975,4.097 -0.218,0.959 -0.174,0.465 0.029,0.668 0.061,0.061 -0.117,0.919 -0.071,1.259 l -1.144,-0.723 c -0.259,-0.697 0.194,0.009 -0.066,-0.689 -0.18,-0.485 -0.266,-2.366 -0.609,-2.753 0.044,-0.467 0.429,-1.171 0.519,-1.313 0.147,-0.233 -0.998,1.078 -1.134,0.914 -0.133,-0.16 -0.203,-1.138 -0.269,-2.38 -0.066,-1.241 0.29,-3.337 0.176,-4.579 -0.246,-2.679 0.183,-4.041 0.542,-9.908 0.157,-2.552 0.017,-4.763 0.163,-4.909 0.122,-0.122 -0.163,1.24 -0.019,1.245 z m -22.075,5.703 c 0.001,0.453 0.146,0.323 0.147,0.776 -0.105,-0.063 -0.993,1.043 -1.086,0.93 -0.304,-0.366 0.756,-0.666 1.247,-1.157 0.024,-0.024 -0.996,0.359 -0.972,0.337 z m 18.273,4.572 c 0.364,0.077 1.464,-0.074 1.312,0.322 -0.117,0.305 -0.482,0.673 -0.74,0.623 0.044,-0.435 -1.008,-1.636 -0.992,-2.057 z m -18.286,-0.435 c 0.023,-0.001 -0.573,0.185 -0.551,0.187 0,0.015 1.143,0.462 1.143,0.477 0.002,-0.015 0.165,-0.031 0.167,-0.046 0.004,0 -0.027,0.75 -0.022,0.75 l -1.537,-1.446 c 0,-0.082 1.573,-0.099 1.573,-0.181 -0.046,0.467 -1.854,1.627 -1.836,2.076 -0.701,1.009 -0.506,0.839 -0.766,0.162 -0.264,-0.688 0.781,-2.534 1.497,-2.55 z m 19.548,2.765 c 0.228,0 0.732,-0.321 0.785,-0.05 0.066,0.347 -1.437,0.381 -1.862,0.381 -0.425,0 0.34,-0.593 0.407,-0.939 0.052,-0.272 -0.487,-0.309 -0.258,-0.309 z m 4.635,-0.247 c 0.089,0 1.127,1.028 1.205,1.085 l -0.197,-0.071 c -0.071,0.017 -1.18,-0.546 -1.28,-0.546 -0.425,0 -0.103,0.49 -0.036,0.144 0.052,-0.272 1.314,-0.038 1.543,-0.038 z m -24.494,1.376 c 0.276,0.788 1.674,1.411 2.129,2.094 l 0.162,1.24 c -0.613,0.638 -1.908,0.376 -2.015,0.271 -0.292,-0.292 -0.127,-1.88 0.193,-2.078 0.156,-0.096 0.554,-0.05 0.46,-0.427 -0.095,-0.38 -0.518,0.507 -0.366,0.365 z m 1.067,5.31 c 0.155,0 0.481,-0.671 0.481,-0.516 0,0.155 -0.513,0.689 -0.668,0.689 -0.155,0 -0.309,0.059 -0.309,-0.097 0,-0.155 -0.054,-0.047 0.102,-0.047 z m 15.149,0.735 c 0.214,0 1.684,-0.488 1.814,-0.358 -0.403,0.105 -0.621,1.585 -0.976,1.804 -0.057,-0.173 -1.194,-1.85 -1.054,-1.99 0.116,-0.116 0.531,0.327 0.697,0.328 z m -14.821,0.305 c 0.438,0.002 0.007,2.083 -0.236,2.475 -0.281,0.456 -0.744,-1.164 -0.94,-1.673 -0.093,-0.244 -0.34,1.17 -0.163,0.993 0.075,-0.075 0.516,-0.542 0.617,-0.541 z m 10.805,1.288 c 0.705,0 1.222,1.261 0.799,1.771 -0.448,0.54 0.064,0.823 -0.151,0.263 -0.229,-0.598 -0.601,-1.314 0.049,-1.314 z" /><path
         id="text2"
         style="font-size:137.574px;line-height:0px;font-family:'League Gothic';-inkscape-font-specification:'League Gothic, Normal';text-align:center;letter-spacing:0px;word-spacing:0.0343936px;text-anchor:middle;opacity:1;stroke-width:3.94081;stroke-linecap:square;stroke-miterlimit:4.7"
         d="m 96.947615,33.005226 c -5.109155,0 -7.817524,2.380945 -10.655829,4.510035 -2.839337,2.129193 -5.36646,2.869338 -6.643749,5.708056 -1.561016,3.264722 -3.992807,6.95004 -4.134155,11.066356 l 3.386126,15.572127 -2.541062,8.028386 1.369165,12.109759 -1.356908,10.679815 0.233523,15.26982 c 0.142379,4.25798 1.048295,8.58943 2.609311,11.85384 1.277289,2.83934 4.307198,6.01298 7.146535,8.14248 2.838305,2.27085 5.060953,1.71039 10.170109,1.71039 5.110189,0 11.216999,0.80891 14.056339,-1.46194 2.8383,-2.12847 4.06611,-6.34494 5.34443,-9.18428 1.56102,-3.26441 3.16804,-7.25038 3.31042,-11.50835 l -0.42973,-7.25317 -0.45105,-11.277483 1.3361,-11.804256 -1.38463,-10.921335 -0.75922,-7.498422 -0.22819,-10.9272 c -0.14135,-4.116213 -0.2011,-10.50488 -1.76211,-13.769499 -1.27729,-2.838821 -4.05607,-3.816757 -6.89541,-5.945847 -2.83831,-2.12909 -6.60983,-3.099282 -11.720015,-3.099282 z m 0.871724,3.774802 c 0.142101,0.0013 0.284821,0.0046 0.428129,0.01011 0.2334,2.342202 0.485164,3.200335 1.031674,3.647909 0.490457,0.401666 0.520841,0.651115 0.283109,2.342191 -0.05241,0.372803 -0.09549,0.728092 -0.126367,1.033272 -0.158888,-0.06995 -0.319653,-0.136993 -0.481976,-0.20047 a 3.8159535,3.8159535 0 0 0 -1.313183,-0.261765 c 0.01021,-0.07758 0.01962,-0.154932 0.02772,-0.232459 0.158929,-1.5205 0.103246,-1.895815 -0.356681,-2.404037 -0.440717,-0.48699 -0.566434,-1.186393 -0.657928,-3.65804 -0.0031,-0.08279 -0.0064,-0.163577 -0.0096,-0.24259 0.384456,-0.02671 0.776288,-0.03791 1.175095,-0.03412 z m 2.481871,0.216465 c 0.50845,0.08095 1.01759,0.183215 1.52379,0.303902 -0.2109,1.261737 -1.73115,2.269011 -2.118802,1.258802 -0.08671,-0.22599 0.177407,-0.911135 0.595012,-1.562704 z m 6.28814,2.58318 c 0.26336,0.009 0.58863,0.177257 0.69738,0.460654 0.19652,0.512112 -1.39533,2.317624 -1.73971,1.973241 -0.40063,-0.400633 -0.21754,-1.853279 0.23352,-1.853279 0.24022,0 0.43666,-0.131485 0.43666,-0.291641 0,-0.206847 0.16731,-0.295996 0.37215,-0.288975 z m -12.321957,2.107598 c 0.164881,-0.0085 0.302309,0.100192 0.302309,0.341225 0,0.25357 -0.207101,0.461187 -0.46066,0.461187 -0.25357,0 -0.409413,-0.155854 -0.346024,-0.346024 0.09561,-0.28683 0.317517,-0.446766 0.504375,-0.456388 z m 15.920277,0.121028 c 0.67192,0.517312 1.23587,1.032794 1.66135,1.574967 -2.24224,0.768274 -4.69093,1.952884 -5.08319,2.672752 -0.15272,0.280261 -0.50272,0.510173 -0.77735,0.510771 -0.4717,0.0011 -1.189,0.367876 -1.71519,0.79015 -0.0219,-0.02346 -0.0442,-0.04706 -0.0661,-0.07037 -0.42748,-0.454482 -0.87226,-0.882541 -1.33611,-1.28066 0.16972,-0.140888 0.35284,-0.262919 0.51609,-0.33696 0.70582,-0.320137 1.18453,-0.603555 3.04278,-1.802628 0.67744,-0.437136 1.34475,-0.794948 1.48326,-0.794948 0.13851,0 0.47722,-0.248419 0.75229,-0.552358 0.29343,-0.324236 0.65496,-0.519543 1.52218,-0.710708 z m -7.02656,0.416935 c 0.27096,-0.01563 0.43559,0.21912 0.43559,0.701111 0,0.460907 -0.16434,0.727768 -0.44786,0.727768 -0.31354,0 -0.42283,0.23725 -0.36415,0.790684 0.0716,0.675148 -0.31465,1.037913 -0.74909,0.892516 -0.13639,-0.101471 -0.27432,-0.20014 -0.41374,-0.296439 -0.007,-0.0088 -0.0154,-0.01751 -0.0229,-0.02666 v -5.34e-4 c -0.40493,-0.487897 -0.17913,-1.255343 0.63553,-2.160381 0.36522,-0.405743 0.68755,-0.614274 0.92664,-0.628067 z m -2.59332,2.155583 c 0.12527,0.03313 0.24388,0.10275 0.3471,0.202601 -0.11475,-0.06935 -0.23037,-0.136778 -0.3471,-0.202601 z M 87.290403,44.52797 c 1.042621,0 1.153759,0.637343 0.303908,1.743447 l -0.556621,0.72457 -0.310305,-0.816274 C 86.221556,44.849259 86.331002,44.52797 87.290403,44.52797 Z m 5.532653,0 c 0.1434,0 0.263288,0.104586 0.286843,0.241523 -0.149076,0.0957 -0.295128,0.195619 -0.437735,0.298572 -0.08413,-0.05119 -0.140749,-0.143837 -0.140749,-0.248988 0,-0.160146 0.131494,-0.291107 0.291641,-0.291107 z m -3.527423,0.04159 c 0.461867,0.01219 1.6489,0.735636 1.577101,1.031672 -0.118092,0.486928 -0.870475,0.383743 -1.390491,-0.190872 -0.296118,-0.327205 -0.446545,-0.686961 -0.334292,-0.799214 0.03061,-0.03061 0.0817,-0.04333 0.147682,-0.04159 z m 8.766825,2.57305 c 1.277288,0 2.346262,2.168392 3.056092,2.87802 1.41864,1.703293 2.63117,1.168974 2.63117,4.007795 l -1.94498,13.232603 -0.27032,10.879216 0.87173,7.664235 1.55098,13.420809 -1.63469,7.583192 0.36575,10.28207 c 0,1.56205 -0.11186,2.13984 -0.53796,3.1334 -0.56746,2.1295 -1.49052,2.84977 -4.187479,2.84977 -1.277289,0 -1.644618,0.12921 -2.354452,-0.58062 -1.419669,-1.56102 -2.85989,-1.84072 -2.85989,-4.82141 l -0.06611,-11.58352 0.928242,-8.382934 -0.956501,-10.005892 0.327369,-11.065823 -1.168162,-10.808304 0.335355,-9.734512 c 0,-1.419462 0.08147,-4.00524 0.507573,-5.140769 0.567455,-1.845259 2.709328,-3.807326 5.406286,-3.807326 z m 14.788372,2.666354 c 0.12102,0.0053 0.23646,0.05418 0.36895,0.148219 0.0281,0.350757 0.0528,0.705837 0.0741,1.064197 -0.1945,0.266948 -0.37537,0.655176 -0.42547,0.930904 -0.0602,0.33097 -0.37769,0.621618 -0.73576,0.672854 -0.34654,0.04963 -0.83956,0.409991 -1.09565,0.800812 -0.29026,0.442997 -0.74258,0.710175 -1.20122,0.710175 -0.62534,0 -1.45738,0.322008 -2.37845,0.905846 l 0.0672,-0.456389 a 3.8159535,3.8159535 0 0 0 -0.0224,-1.245471 c -0.0526,-0.286749 -0.1166,-0.566284 -0.19087,-0.838667 0.26312,-0.06872 0.54424,-0.112498 0.76562,-0.112498 0.45515,0 1.10813,-0.386123 1.72265,-1.018877 0.54438,-0.560521 1.2074,-1.018877 1.47366,-1.018877 0.26625,0 0.73403,-0.156006 1.03915,-0.346557 0.21866,-0.136559 0.38289,-0.202468 0.53849,-0.195671 z m -28.082288,0.0017 c 0.171474,-0.0055 0.396599,0.02462 0.706976,0.07625 0.597973,0.09946 1.378306,0.180712 1.733853,0.180743 0.300266,1.7e-5 0.967479,0.279323 1.594692,0.654192 -0.198259,0.67458 -0.338771,1.351568 -0.430801,2.024958 -0.196226,-0.04264 -0.404627,-0.06611 -0.616339,-0.06611 -0.430234,0 -0.862252,-0.234506 -1.03807,-0.563021 -0.445071,-0.831631 -1.406514,-1.037969 -2.063874,-0.44306 -0.471658,0.42684 -0.579836,0.438698 -0.718708,0.07677 -0.08997,-0.2344 -0.02533,-0.79067 0.143959,-1.235874 0.193275,-0.50839 0.311058,-0.692819 0.688312,-0.704844 z m 2.469614,4.438059 c 0.240229,-0.0116 0.593186,0.122039 0.998081,0.391343 -0.0064,0.625571 0.02424,1.242615 0.08478,1.845814 0.0019,-0.08085 0.0037,-0.161548 0.0054,-0.242056 l 0.02399,0.51397 c -0.01046,-0.09028 -0.0202,-0.180989 -0.02932,-0.271914 -0.07998,3.397553 -0.446308,7.096859 -0.183411,11.043963 -0.195339,-0.255109 -0.351874,-0.604253 -0.430265,-1.022075 -0.172321,-0.918514 -0.282778,-1.015678 -1.15963,-1.015678 -0.533252,0 -1.056023,-0.138999 -1.161229,-0.309235 -0.237691,-0.38459 0.60111,-1.339217 1.594692,-1.815425 0.410538,-0.196762 0.74643,-0.552619 0.74643,-0.790682 0,-0.569188 -1.495377,-0.73829 -2.099066,-0.237258 -0.303857,0.252166 -1.161477,0.36264 -2.504271,0.32203 -0.967706,-0.02927 -1.517879,-0.07486 -1.934319,-0.221262 -0.161105,-0.740982 -0.322469,-1.482291 -0.483584,-2.223295 0.301008,-0.04907 0.546634,-0.145928 0.615275,-0.256985 0.09894,-0.160146 0.532469,-0.29345 0.963425,-0.295906 0.945967,-0.0052 1.223442,-0.187489 1.898063,-1.247071 0.558262,-0.876842 1.28771,-0.873455 2.295809,0.01119 0.648342,0.56894 1.533004,0.258395 1.242271,-0.436128 -0.205645,-0.491271 -0.675013,-2.395774 -0.804011,-3.262432 -0.04652,-0.312556 0.08073,-0.469317 0.320963,-0.480914 z m 26.196494,0.484113 c 0.0109,0.43409 0.021,0.872556 0.032,1.314783 -0.0532,0.0599 -0.10973,0.121491 -0.17007,0.184475 -0.81405,0.849696 -1.0278,0.947571 -1.35317,0.622202 -0.61421,-0.614214 0.39608,-1.970228 1.49126,-2.12146 z m -5.90692,1.732784 c 0.24022,0 0.43666,0.217354 0.43666,0.483046 0,0.515136 2.54118,3.011312 3.06569,3.011312 0.17178,0 0.89551,-0.587204 1.60802,-1.304653 0.30091,-0.303 0.60821,-0.583283 0.87812,-0.806144 0.0198,0.629172 0.0435,1.265438 0.0741,1.908194 4.5e-4,-0.04006 10e-4,-0.07989 0.002,-0.119962 l 0.004,0.233526 c -0.002,-0.03787 -0.003,-0.07573 -0.005,-0.113564 -9.7e-4,0.08647 -0.002,0.17325 -0.003,0.259652 -0.58603,0.552263 -1.06633,1.102174 -0.94583,1.191088 0.31392,0.231649 0.63866,0.435994 0.95117,0.603009 0.0139,1.048702 0.0463,2.092231 0.0949,3.131273 l -0.82214,0.692047 c -0.6982,0.587491 -1.13417,0.743208 -1.74185,0.62167 -0.61006,-0.122013 -0.9161,-0.01152 -1.23747,0.447324 -0.51868,0.740508 -1.737,0.553009 -2.21529,-0.340691 -0.31923,-0.596498 -1.16284,-0.804884 -1.16284,-0.287376 0,0.160146 0.19644,0.291108 0.43666,0.291108 0.68476,0 0.51315,0.643188 -0.36415,1.365434 -0.67674,0.557117 -0.73274,0.704511 -0.36362,0.95383 0.24023,0.162251 0.63311,0.211035 0.87333,0.108232 0.24021,-0.10276 0.88118,-0.248894 1.42408,-0.324696 0.92859,-0.129669 0.97644,-0.09534 0.80614,0.583281 -0.0996,0.396734 -0.0964,0.806267 0.007,0.910111 0.40591,0.405926 2.47049,0.157345 3.71509,-0.447324 h 5.3e-4 c 0.39341,-0.191133 0.68371,-0.319799 0.92025,-0.392942 0.0575,0.689847 0.12009,1.377507 0.18713,2.063346 -0.11213,0.03953 -0.18947,0.08456 -0.21859,0.13169 -0.0994,0.160745 -0.47269,0.218746 -0.83014,0.129026 -0.41845,-0.10502 -0.93515,0.06083 -1.4502,0.465986 -0.69533,0.546943 -0.90919,0.58384 -1.63522,0.28311 -0.62583,-0.259234 -0.98906,-0.263522 -1.44967,-0.01707 -0.6909,0.369661 -1.18523,0.184979 -1.18523,-0.443059 0,-0.230779 -0.0709,-0.419601 -0.15728,-0.419601 -0.26686,0 -1.07644,0.424535 -1.73332,0.85093 0.0585,-2.446152 0.1534,-4.798117 0.44146,-7.043099 0.22435,-0.07369 0.44639,-0.203124 0.59608,-0.383345 0.33605,-0.404968 0.28155,-0.449801 -0.45106,-0.364151 -0.0139,0.0016 -0.0283,0.0034 -0.0421,0.0054 0.0777,-0.518642 0.16711,-1.03157 0.26979,-1.538179 a 3.8159535,3.8159535 0 0 0 0.0341,-0.201536 l 0.0645,-0.438261 c 0.60732,0.09953 0.97782,0.04653 0.97782,-0.159949 0,-0.294398 -0.37686,-0.663296 -0.82107,-0.906912 l 0.66379,-4.511637 c 0.0787,-0.09853 0.18588,-0.159415 0.30337,-0.159415 z m 3.23363,0.172745 c 0.0726,0.0023 0.14085,0.02889 0.19887,0.0869 0.32655,0.326565 0.0727,1.196953 -0.34922,1.196953 -0.15572,0 -0.36747,-0.136742 -0.47078,-0.303904 -0.22171,-0.358743 0.22469,-0.957259 0.58967,-0.979422 0.0105,-6.39e-4 0.0211,-8.62e-4 0.0315,-5.34e-4 z m -27.256416,0.410003 c 0.160146,0 0.291104,0.131484 0.291104,0.291641 0,0.160146 -0.130958,0.291108 -0.291104,0.291108 -0.160156,0 -0.291115,-0.130962 -0.291115,-0.291108 0,-0.160157 0.130959,-0.291641 0.291115,-0.291641 z m 26.073866,5.68353 c -0.15293,-0.0031 -0.35556,0.32188 -0.45,0.721905 -0.12241,0.51853 -0.4187,0.772039 -1.03221,0.88292 -0.81191,0.146744 -0.82776,0.175462 -0.27831,0.501707 0.8178,0.485587 2.63686,0.445135 3.65431,-0.08104 0.47249,-0.244346 0.85947,-0.503644 0.85947,-0.576351 0,-0.178181 -2.40271,-1.442785 -2.75326,-1.449141 z m -27.399843,4.256783 c 0.134528,0.169014 0.236753,0.412421 0.27991,0.706443 0.112883,0.769066 0.765693,0.876702 0.95383,0.157283 0.191407,-0.731934 0.13362,-0.725272 1.472596,-0.165813 0.874788,0.365513 1.225341,0.382956 1.922062,0.09437 0.709277,-0.293787 0.906813,-0.279267 1.177221,0.0869 0.04611,0.06243 0.112212,0.127012 0.191944,0.190872 0.07342,0.908515 0.184444,1.830832 0.33909,2.764457 l 0.0027,0.01653 c -8.05e-4,-0.0048 -0.0019,-0.0096 -0.0027,-0.01439 0.0017,0.01345 0.0041,0.02704 0.0059,0.04052 -7.43e-4,-0.0072 -0.0016,-0.01452 -0.0027,-0.02186 l 0.02293,0.148753 c -0.0065,-0.03766 -0.01236,-0.07541 -0.01866,-0.113031 0.119578,0.955118 0.230531,1.894738 0.324697,2.819905 -0.121445,-0.04798 -0.322076,-0.07392 -0.611004,-0.107166 -0.682049,-0.07851 -0.788494,-0.211011 -0.717108,-0.89305 0.100904,-0.964436 -0.626222,-1.108163 -1.102585,-0.218064 -0.171423,0.320292 -0.554145,0.582215 -0.850387,0.582215 -0.296243,0 -0.737423,0.303482 -0.98049,0.674453 -0.398972,0.60891 -0.395547,0.705279 0.03892,0.989553 0.421959,0.276093 0.382712,0.35354 -0.319363,0.628601 -0.705615,0.276443 -1.158516,1.207979 -0.582219,1.197486 0.826915,-0.01506 1.528578,-0.430033 1.528578,-0.903713 0,-0.737433 0.368887,-0.690442 1.401696,0.17861 0.665356,0.559861 1.066381,0.686604 1.742911,0.551292 0.289268,-0.05785 0.500598,-0.07631 0.667523,-0.04425 0.09008,1.543509 0.102905,3.046006 -0.0074,4.512169 -1.236917,-0.0646 -1.786646,0.01218 -2.080402,0.264449 -0.680667,0.584613 -1.065742,0.485208 -1.489661,-0.384411 -0.434722,-0.891781 -1.10792,-1.235008 -1.10792,-0.565154 0,0.247926 -0.261906,0.591011 -0.582208,0.762424 -0.320292,0.171412 -0.582755,0.503314 -0.582755,0.737899 0,0.234596 -0.261906,0.426532 -0.582209,0.426532 -0.571324,0 -0.701446,-0.41232 -0.679253,-2.155583 0.0041,-0.304929 -0.234875,-0.796297 -0.530498,-1.091921 -0.590648,-0.590648 -0.699208,-1.276939 -0.246327,-1.556838 0.534057,-0.330056 0.327762,-0.633862 -0.402532,-0.709642 0.160621,-0.482025 0.327339,-0.97484 0.494779,-1.480064 0.540031,0.0044 1.111726,-0.126639 1.334509,-0.395074 0.261617,-0.315237 0.206461,-0.434105 -0.255922,-0.555025 -0.303124,-0.07925 -0.525236,-0.322251 -0.576885,-0.615271 0.299864,-0.979701 0.582518,-2.008896 0.813607,-3.099816 a 3.8159535,3.8159535 0 0 0 -0.0037,-1.600026 c -0.133506,-0.613926 -0.26691,-1.227584 -0.400406,-1.84155 z m 30.746513,0.604609 c 0.36394,0.01061 0.22786,0.453277 -0.5257,1.126576 -0.97503,0.871187 -1.38123,1.024919 -1.63308,0.617404 -0.21532,-0.348386 0.14961,-0.769829 1.19215,-1.376097 0.44821,-0.260657 0.77598,-0.373439 0.96663,-0.367883 z m -28.457648,1.846348 c -0.139305,0.0067 -0.328494,0.374992 -0.493706,1.075925 -0.142586,0.604948 -0.08092,0.800813 0.25325,0.800813 0.315927,0 0.442532,-0.307985 0.442532,-1.077526 0,-0.534718 -0.07976,-0.795159 -0.195669,-0.799212 -0.0022,-7.8e-5 -0.0042,-1.06e-4 -0.0064,0 z m 20.996008,3.961943 c 0.34069,0.122859 0.46652,0.47604 0.29484,0.92344 -0.0721,0.187887 -0.18892,0.338455 -0.32256,0.444125 0.009,-0.458933 0.0185,-0.914678 0.0277,-1.367565 z m -19.348522,0.568885 c 0.09764,0.0028 0.214849,0.05489 0.331621,0.171679 0.209122,0.209123 0.214343,0.371867 0.01547,0.494777 -0.163035,0.100801 -0.383867,0.04124 -0.491044,-0.132225 h -5.37e-4 c -0.19021,-0.30778 -0.07033,-0.540289 0.144495,-0.534231 z m 2.777247,0.181276 c 0.03638,0.379249 0.0698,0.755906 0.09917,1.130308 -0.849862,0.496299 -1.012587,0.291058 -0.430265,-0.597676 0.146929,-0.224242 0.258367,-0.397462 0.331094,-0.532632 z m 22.846625,0.436662 c 0.10255,-0.0041 0.20907,0.01952 0.30603,0.07944 0.32565,0.20126 0.11188,0.725102 -0.2959,0.725102 -0.14124,0 -0.33226,-0.122294 -0.4244,-0.27138 -0.1615,-0.26132 0.10668,-0.520861 0.41427,-0.533164 z m -4.24026,0.372681 c 0.19398,0.0056 0.376,0.05102 0.58115,0.129026 0.84116,0.319807 0.78488,0.88452 -0.088,0.88452 -0.28603,0 -0.75727,0.262457 -1.04714,0.582749 -0.28987,0.320302 -0.83421,0.582215 -1.20975,0.582215 -0.14348,0 -0.26285,0.01098 -0.35882,0.03146 0.0154,-0.494567 0.0281,-0.986046 0.0394,-1.474199 0.0818,-0.0393 0.16339,-0.07857 0.24419,-0.117829 0.92599,-0.44992 1.41213,-0.630254 1.83889,-0.617938 z m 3.16433,2.51387 c 0.0448,0.001 0.0913,0.004 0.13969,0.0096 0.4767,0.05489 0.80081,0.268881 0.80081,0.528899 0,0.457812 -1.03906,0.756108 -1.39476,0.400406 -0.47536,-0.475366 -0.21785,-0.954271 0.45426,-0.938902 z m -5.24633,0.370016 c 0.13539,0.102472 0.31141,0.21146 0.5273,0.323097 0.56361,0.291465 0.85569,0.642381 0.7944,0.953831 -0.0555,0.282054 -0.44008,0.431714 -1.16816,0.449458 -0.0542,-0.576322 -0.10549,-1.151901 -0.15354,-1.726386 z m 5.09492,1.762107 c 0.0266,-0.0011 0.0539,-0.001 0.0821,5.34e-4 0.20542,0.01145 0.4514,0.09688 0.71284,0.268181 0.4137,0.271068 0.67471,0.617847 0.58008,0.770956 -0.27814,0.450054 -1.59602,0.318662 -1.78663,-0.178077 -0.19965,-0.520251 0.012,-0.843917 0.41161,-0.861594 z m 4.64812,0.163149 c 0.0949,0.733112 0.19016,1.463909 0.28471,2.192904 -0.11469,-0.0022 -0.21806,-0.05761 -0.33429,-0.154084 -0.247,-0.204975 -0.44893,-0.749458 -0.44893,-1.210283 0,-0.600803 0.0885,-0.787745 0.49851,-0.828537 z m -7.07296,1.223612 c 0.14749,0.0047 0.33824,0.03542 0.57102,0.09384 0.4862,0.122023 0.76189,0.390868 0.76189,0.742164 0,0.570075 0.42724,0.74653 0.70805,0.292174 0.088,-0.142452 0.62002,-0.339427 1.18202,-0.437194 0.562,-0.09781 1.48043,-0.257485 2.04096,-0.355087 0.69253,-0.120569 1.0194,-0.06665 1.0194,0.168479 0,0.539804 -2.57653,2.98281 -2.9212,2.769788 -0.16914,-0.104536 -0.50296,-0.02796 -0.74164,0.170079 -0.34578,0.286977 -0.58066,0.281053 -1.1575,-0.02772 -0.55615,-0.297635 -0.80346,-0.307678 -1.06739,-0.04371 -0.18894,0.188941 -0.5747,0.343357 -0.85733,0.343357 -0.28264,0 -0.65445,0.262456 -0.82587,0.582748 -0.12083,0.225784 -0.34128,0.422257 -0.55983,0.51877 -0.0974,-0.834011 -0.19204,-1.665888 -0.28364,-2.495743 0.25555,0.264809 0.57151,0.226946 0.73737,-0.205268 0.10204,-0.265806 0.50939,-0.606018 0.90532,-0.756559 0.60077,-0.228406 0.65966,-0.346502 0.35562,-0.712841 -0.36377,-0.43832 -0.3097,-0.661538 0.13275,-0.647261 z m -1.58936,0.29164 c 0.10256,-0.0041 0.20961,0.01951 0.30657,0.07944 0.32565,0.201261 0.11187,0.725103 -0.29591,0.725103 -0.14125,0 -0.33226,-0.122295 -0.4244,-0.271381 -0.1615,-0.261313 0.10616,-0.520858 0.41374,-0.533164 z m -24.170463,1.09512 c 0.144597,0 0.454768,0.191924 0.689374,0.426531 0.340174,0.340173 0.751445,0.374039 2.030828,0.165814 0.88232,-0.143607 1.86446,-0.193471 2.182235,-0.110365 0.317774,0.08306 0.66549,0.0085 0.77309,-0.165281 0.06591,-0.106635 0.4363,-0.198516 0.968758,-0.255385 -0.02782,0.660862 -0.04994,1.325539 -0.06398,1.9935 -0.10502,-0.09849 -0.261607,-0.205245 -0.471854,-0.317765 -0.467252,-0.250062 -0.757851,-0.220254 -1.299853,0.13489 -0.383991,0.251599 -1.235441,0.457455 -1.892193,0.457455 -0.656751,0 -1.430037,0.126661 -1.718387,0.280978 -0.557591,0.298409 -2.349665,-0.197756 -2.349665,-0.650461 0,-0.450404 0.887046,-1.959911 1.151645,-1.959911 z m 33.474713,2.379512 c 0.0176,0.141091 0.0354,0.281854 0.0528,0.422799 -0.0809,0.860708 -0.18152,1.735599 -0.29058,2.624767 -0.0401,-0.0389 -0.081,-0.08192 -0.12316,-0.128493 -0.56711,-0.626645 -0.64613,-2.112441 -0.13915,-2.619436 0.15005,-0.150049 0.32352,-0.246925 0.50011,-0.299637 z m -26.903464,0.163148 c -0.01032,0.686908 -0.01111,1.377375 -0.001,2.071343 -0.45936,-0.30838 -1.061976,-0.537429 -1.574965,-0.537429 -0.318796,0 -0.664449,-0.136742 -0.767756,-0.303904 -0.282428,-0.456966 0.456522,-1.187289 1.147372,-1.134041 0.57866,0.04459 0.984049,0.0045 1.196422,-0.09597 z m 23.870294,0.07837 c 0.24022,0 0.43666,0.130961 0.43666,0.291107 0,0.160146 -0.19644,0.291108 -0.43666,0.291108 -0.24022,0 -0.43666,-0.130962 -0.43666,-0.291108 0,-0.160146 0.19644,-0.291107 0.43666,-0.291107 z m -29.705245,0.582215 c 0.597323,0 2.77085,1.511949 2.77085,1.927388 0,0.582198 -0.51563,0.74919 -1.193223,0.386545 -0.512793,-0.274431 -0.769984,-0.225131 -1.450208,0.277779 -0.917688,0.678479 -0.962207,0.693807 -1.238537,0.417467 -0.528971,-0.528961 0.386757,-3.009179 1.111118,-3.009179 z M 108.3056,86.34782 c 0.19025,-0.005 0.4528,0.05234 0.77949,0.19567 0.86805,0.380845 1.23944,0.792444 1.02635,1.137239 -0.19591,0.316981 -0.41434,0.280866 -1.34678,-0.224994 -0.95007,-0.515423 -1.02978,-1.093161 -0.45906,-1.107915 z m -19.850233,1.128708 c 0.179058,0 0.358704,0.132538 0.458524,0.318832 0.0051,0.184772 0.01076,0.36978 0.01759,0.555024 -0.08049,0.100016 -0.235917,0.145554 -0.476115,0.145554 -0.43856,0 -0.596147,-0.152178 -0.527299,-0.509705 0.05396,-0.280261 0.291465,-0.509705 0.5273,-0.509705 z m 23.534413,1.01941 c 0.60672,0 1.9044,1.251943 1.60642,1.549908 -0.25028,0.250279 -0.36386,0.22636 -1.33718,-0.286309 -0.90577,-0.477096 -1.07339,-1.263599 -0.26924,-1.263599 z m -23.614383,1.804761 c 0.180203,0.0021 0.328226,0.01516 0.431328,0.04212 0.07923,0.02072 0.158825,0.03238 0.237258,0.03519 0.05014,0.669147 0.113996,1.341159 0.193543,2.015894 -0.131412,0.04112 -0.259141,0.107027 -0.361489,0.191939 -0.667606,0.554062 -1.158258,-0.05324 -0.71391,-0.883454 0.317176,-0.592639 0.291744,-0.624673 -0.335892,-0.425465 -0.373468,0.118526 -0.810666,0.378395 -0.97142,0.577417 -0.251971,0.311925 -1.16938,0.572097 -4.109631,1.166563 -0.354071,0.0716 -0.816598,-0.09938 -1.091917,-0.403605 -0.151686,-0.1676 -0.265218,-0.313578 -0.340163,-0.447858 0.02593,-0.269919 0.05037,-0.54222 0.07251,-0.816274 0.08057,-0.10485 0.187941,-0.215129 0.322562,-0.33696 0.67166,-0.607847 1.047625,-0.607837 1.657081,0.0017 0.325957,0.325956 0.547955,0.380505 0.680317,0.166348 0.219398,-0.355005 3.068423,-0.897802 4.329823,-0.883454 z m 26.764313,0.896249 c -0.0296,0.244404 -0.0588,0.490259 -0.0874,0.736833 -0.0917,-0.04968 -0.17914,-0.127735 -0.233,-0.214866 -0.14489,-0.234444 0.0555,-0.467643 0.32044,-0.521967 z m -5.19783,0.852529 c 0.11974,-0.0073 0.24141,0.05331 0.33697,0.207934 0.28482,0.460846 0.0908,1.188424 -0.3167,1.188424 -0.14805,0 -0.34781,-0.205399 -0.44412,-0.45639 -0.17662,-0.460226 0.11788,-0.921197 0.42385,-0.939968 z m -28.046557,1.519518 c 0.115626,-0.0036 0.234565,0.0634 0.329495,0.216998 0.306714,0.496275 0.343,3.492058 0.04959,4.100566 -0.301308,0.624922 -0.768282,0.658918 -0.993293,0.07251 -0.09224,-0.240219 -0.08621,-0.650079 0.01387,-0.910644 0.108446,-0.282613 -0.02435,-0.624416 -0.328958,-0.847198 -0.04859,-0.03552 -0.0923,-0.06796 -0.131165,-0.0981 0.03699,-0.270155 0.07418,-0.542622 0.110901,-0.817341 0.0051,-0.0056 0.01033,-0.01085 0.01547,-0.01653 0.278135,-0.307344 0.505437,-0.770272 0.505437,-1.028474 0,-0.402 0.207915,-0.664927 0.428666,-0.671787 z m 28.873507,2.205701 c 0.81722,0 1.00372,0.102802 0.92663,0.509705 -0.10981,0.579763 -1.80828,0.884282 -2.11985,0.380145 -0.33283,-0.538545 0.1384,-0.88985 1.19322,-0.88985 z m 1.83995,0.05704 c 0.12271,-0.0065 0.2927,0.02082 0.52356,0.07785 0.9851,0.243293 1.36545,0.588328 1.10792,1.005015 -0.24154,0.390821 -0.73031,0.391602 -1.39902,0.0022 -0.28026,-0.16322 -0.50917,-0.501066 -0.50917,-0.750695 0,-0.218096 0.0722,-0.3234 0.27671,-0.334294 z m -0.57849,2.051083 c 0.10256,-0.0041 0.20908,0.01951 0.30604,0.07944 0.32563,0.20125 0.11188,0.724569 -0.29591,0.724569 -0.14124,0 -0.33173,-0.121772 -0.42386,-0.270847 -0.16151,-0.26132 0.10615,-0.520861 0.41373,-0.533164 z m -2.29581,0.282577 c 0.0976,0.0029 0.19541,0.04131 0.28045,0.12636 0.21058,0.210567 0.17363,0.41106 -0.11996,0.654725 -0.31279,0.259595 -0.47648,0.265212 -0.62753,0.02079 -0.22929,-0.371013 0.11854,-0.812194 0.46704,-0.801878 z m -20.05176,0.673919 c -0.03088,0.523462 -0.09103,1.024443 -0.187683,1.505125 a 3.8159535,3.8159535 0 0 0 -0.0017,0.009 c -0.19183,-0.0472 -0.392493,-0.1386 -0.674446,-0.27458 -0.93501,-0.450933 -0.829763,-1.100454 0.178078,-1.100454 0.178635,0 0.420577,-0.05158 0.68565,-0.139155 z m -4.197607,0.178077 c 0.01891,-1.9e-4 0.0381,0.0029 0.05812,0.0096 0.160146,0.05334 0.291104,0.227997 0.291104,0.388143 0,0.160146 -0.130958,0.334762 -0.291104,0.388144 -0.160146,0.05334 -0.291115,-0.121223 -0.291115,-0.388144 0,-0.233546 0.100636,-0.396413 0.232997,-0.39774 z m 24.097427,1.853278 c 0.74279,0 0.88791,0.92396 0.25485,1.62349 -0.54865,0.60624 -0.8793,0.70007 -1.11592,0.31723 -0.3243,-0.52475 0.30394,-1.94072 0.86107,-1.94072 z m -23.893762,1.89273 c 0.240229,0 0.437198,0.12335 0.437198,0.27405 0,0.36717 -0.45514,0.63036 -0.687776,0.39774 -0.327916,-0.32792 -0.199703,-0.67179 0.250578,-0.67179 z m 3.021975,0 c 0.159547,0 0.310098,0.0331 0.44573,0.0922 -0.07238,0.69104 -0.129008,1.37754 -0.172217,2.05908 -0.2087,-0.0398 -0.407175,-0.22884 -0.538494,-0.57422 -0.421887,-1.10964 -0.343269,-1.5771 0.264981,-1.5771 z m 26.059467,0.002 c 0.0864,2.11684 0.1793,4.23799 0.28631,6.36332 -0.22367,-0.0244 -0.44475,-0.17663 -0.7427,-0.44626 -0.50398,-0.4561 -0.60519,-0.4561 -1.56163,0 -0.56245,0.2682 -1.28486,0.48785 -1.60536,0.48785 -1.00216,0 -2.01803,0.86686 -2.01803,1.72212 0,0.42999 0.14332,0.92492 0.31831,1.09991 0.23008,0.23009 0.23008,0.48287 0,0.91279 -0.67841,1.26762 -0.16727,2.51797 0.72616,1.77649 0.31502,-0.26144 0.52468,-0.27395 0.75389,-0.0448 0.46547,0.46546 0.0864,1.17085 -0.68831,1.28065 -0.37013,0.0524 -0.67338,0.29188 -0.67338,0.53209 0,0.26002 -0.32411,0.47405 -0.80082,0.5289 -0.85833,0.0987 -1.00875,0.5759 -0.48891,1.54725 0.22731,0.42471 0.21645,0.69599 -0.04,1.00501 -0.22883,0.27572 -0.29104,0.93409 -0.17807,1.88794 0.13398,1.13125 0.077,1.50133 -0.25113,1.62721 -0.23357,0.0897 -0.42493,0.34737 -0.42493,0.57263 0,0.22526 -0.15904,0.66433 -0.35348,0.97568 -0.2981,0.47733 -0.24733,0.67888 0.32202,1.28493 0.67604,0.71961 0.62974,1.34411 -0.0997,1.34411 -0.21363,0 -0.46391,0.19643 -0.5561,0.43666 -0.0921,0.24022 -0.36841,0.43666 -0.61366,0.43666 -0.34026,0 -0.44573,-0.34064 -0.44573,-1.43848 0,-0.79128 0.13096,-1.51971 0.29111,-1.61869 0.16016,-0.0989 0.2911,-1.32514 0.2911,-2.725 0,-1.39984 0.11751,-2.66988 0.26125,-2.82203 0.30176,-0.31939 0.52447,-1.76087 0.88132,-5.70486 0.13972,-1.54411 0.34177,-3.08368 0.44893,-3.42132 0.19744,-0.62211 -0.23646,-0.86647 -0.57262,-0.32256 -0.16831,0.27234 -0.61786,0.34102 -0.98582,0.24153 5.8e-4,-0.0426 10e-4,-0.0846 0.003,-0.12637 a 3.8159535,3.8159535 0 0 0 -0.0303,-0.59661 c -0.075,-0.58654 -0.0905,-1.19063 -0.0549,-1.81862 0.22084,0.0474 0.41529,0.14697 0.48625,0.26178 0.0989,0.16015 0.39514,0.29111 0.65793,0.29111 0.37164,0 0.40025,-0.0775 0.12849,-0.34923 -0.61671,-0.61669 -0.39275,-1.1063 0.5065,-1.1063 1.0848,0 1.38011,-0.46342 0.74377,-1.16657 -0.75068,-0.82949 -0.40177,-1.28107 1.04127,-1.34784 2.132,-0.0986 3.40931,-0.42627 3.93741,-1.00981 0.2634,-0.29105 0.74781,-0.53141 1.10099,-0.5513 z m -1.54084,2.61945 c -0.86506,0 -1.12361,0.25888 -0.69098,0.69151 0.31277,0.31277 1.33343,0.0849 1.4694,-0.3279 0.0785,-0.2384 -0.19038,-0.36361 -0.77842,-0.36361 z m -1.95778,0.0443 c -0.2072,-0.003 -0.52486,0.19793 -0.62007,0.48357 -0.0709,0.21278 0.0619,0.27785 0.34549,0.16902 0.2536,-0.0973 0.46119,-0.30483 0.46119,-0.46119 0,-0.13156 -0.0781,-0.1896 -0.18661,-0.1914 z m -23.635173,0.6094 c 0.145784,-0.003 0.343754,0.0275 0.600346,0.0816 0.269479,0.0567 0.494315,0.11541 0.676582,0.17808 -0.01904,0.47682 -0.03285,0.95072 -0.04212,1.42249 -0.565979,0.45435 -1.007005,0.29956 -1.296654,-0.46226 -0.341495,-0.8982 -0.375501,-1.21086 0.06184,-1.21988 z m -5.38335,2.56239 c 0.460103,0.0174 0.523977,0.30722 0.02932,0.80188 -0.424095,0.4241 -1.586118,0.46053 -1.835159,0.0576 -0.09915,-0.16045 0.163912,-0.42237 0.584355,-0.58222 0.526814,-0.20029 0.94541,-0.28773 1.221482,-0.27724 z m 2.311264,0.16687 c 0.125273,0.004 0.269458,0.043 0.422268,0.12477 0.315062,0.16862 0.496018,0.43116 0.402006,0.58328 -0.224537,0.3633 -0.927304,0.35414 -1.155369,-0.015 -0.249174,-0.40317 -0.04473,-0.70521 0.331095,-0.69312 z m 27.175909,2.51015 c 0.11507,-0.003 0.23281,0.0376 0.33323,0.13808 0.336,0.336 0.12558,0.95703 -0.32416,0.95703 -0.14124,0 -0.34453,-0.1426 -0.45213,-0.31669 -0.22505,-0.36414 0.0978,-0.76854 0.44306,-0.77842 z m 2.65089,0.002 c 0.15005,0.006 0.27032,0.11626 0.27032,0.34123 0,0.25356 -0.20762,0.46118 -0.46119,0.46118 -0.25357,0 -0.40941,-0.15584 -0.34602,-0.34602 0.10121,-0.3037 0.34398,-0.46499 0.53689,-0.45639 z m -25.523099,0.0736 c 0.01092,0.85477 0.02656,1.70005 0.04052,2.5352 -0.465096,0.54059 -0.55396,0.54755 -0.970884,0.13063 -0.423022,-0.42302 -0.420721,-0.50953 0.02719,-1.00449 0.269562,-0.29785 0.490508,-0.76485 0.490508,-1.03753 0,-0.2635 0.183536,-0.53792 0.412674,-0.62381 z m -8.470376,1.077 c 1.319745,0.14098 1.246337,0.82833 0.02293,1.01567 -0.0089,-0.33664 -0.0165,-0.67515 -0.02293,-1.01567 z m 8.52742,2.53093 c 0.0076,0.58327 0.01279,1.16148 0.0128,1.73438 l -0.492117,-0.36255 -0.448392,0.64086 c -0.456863,0.65226 -1.289185,0.87768 -1.289185,0.34922 0,-0.16014 -0.377306,-0.2911 -0.838141,-0.2911 -0.896661,0 -1.662725,-0.65216 -1.353699,-1.15217 0.103318,-0.16716 0.630803,-0.3039 1.172423,-0.3039 0.54162,0 1.065989,-0.13096 1.164964,-0.29112 0.09894,-0.16014 0.763474,-0.2911 1.476868,-0.2911 0.19345,0 0.39598,-0.0118 0.594475,-0.0325 z m 25.824875,1.5819 c 0.0759,3.7e-4 0.1467,0.0178 0.20847,0.056 0.22112,0.13666 0.16546,0.37382 -0.17754,0.75283 -0.58984,0.65176 -0.99328,0.71376 -0.99328,0.15248 0,-0.464 0.55235,-0.9633 0.96235,-0.96129 z m -34.109177,1.09991 c 0.143969,0.0449 0.243655,0.13802 0.243655,0.24526 0,0.15141 -0.07728,0.28522 -0.184474,0.37375 -0.02106,-0.20537 -0.04088,-0.41161 -0.05918,-0.61901 z m 3.968345,0.0661 c 0.82055,-0.0195 2.97239,2.32796 2.97239,3.31788 0,1.38917 -1.235576,2.06761 -2.027629,1.11325 -0.404802,-0.48777 -0.170784,-1.03168 0.443595,-1.03168 0.657184,0 0.491054,-0.56943 -0.247916,-0.8504 -1.220853,-0.46416 -2.084241,-2.20918 -1.251341,-2.52879 0.0335,-0.0129 0.07054,-0.0193 0.110901,-0.0202 z m -1.595228,1.80209 c 0.105825,-7.2e-4 0.233131,0.0477 0.37161,0.16262 0.45352,0.37639 0.55754,1.14364 0.155153,1.14364 -0.140533,0 -0.413726,-0.19119 -0.60727,-0.42441 -0.359735,-0.43344 -0.236969,-0.87969 0.08051,-0.88185 z m 1.28546,1.72852 c 0.124644,-0.003 0.186218,0.0995 0.265517,0.30604 0.197608,0.51496 -0.650437,1.60109 -1.250278,1.60109 -0.215385,0 -0.391864,-0.2473 -0.391874,-0.54916 1e-5,-0.30187 0.329856,-0.76479 0.7331,-1.029 0.330971,-0.21687 0.518891,-0.32586 0.643535,-0.32897 z m -2.910011,0.0384 c 0.362428,-0.0174 0.570963,0.30391 0.740033,1.14044 0.33681,1.66648 0.380277,2.40966 -0.0176,2.34805 -0.417224,-1.11092 -0.731635,-2.27163 -0.969285,-3.47623 0.07856,-0.004 0.161075,-0.008 0.246853,-0.0123 z m 7.432841,0.45852 c 0.02186,-0.001 0.04372,-9.1e-4 0.06558,0 0.384693,0.016 0.757325,0.33699 0.677654,0.75069 -0.129081,0.67026 -1.062482,0.83193 -1.295592,0.22447 -0.100801,-0.26283 -0.04376,-0.61737 0.126893,-0.78802 0.121301,-0.1213 0.27244,-0.17944 0.425467,-0.18714 z m 20.68517,2.33526 c 0.15894,-0.005 0.33854,0.0486 0.57582,0.15674 0.4742,0.21606 0.84954,0.2196 1.22201,0.0113 0.43607,-0.24404 0.64372,-0.15576 1.09779,0.46758 0.0827,0.11353 0.17487,0.21747 0.27351,0.30977 -0.31816,0.72839 -0.65143,1.46537 -0.99382,2.21157 -0.0903,0.0242 -0.16741,0.0469 -0.22446,0.0672 -0.24023,0.0853 -0.79707,-0.0338 -1.23748,-0.26551 v -5.4e-4 c -0.44041,-0.23159 -0.80081,-0.56705 -0.80081,-0.74589 0,-0.17883 -0.22041,-0.56908 -0.48997,-0.86693 -0.45499,-0.50275 -0.4557,-0.57601 -0.0106,-1.02101 0.21362,-0.21362 0.38372,-0.31763 0.58808,-0.32416 z m -17.978297,0.0379 c 0.41873,0.4282 0.876655,0.81658 1.364904,1.16016 -0.344239,0.882 -1.011163,1.31427 -2.100666,1.41928 -1.353173,0.13044 -1.573799,-0.69972 -0.353493,-1.33077 0.697443,-0.36067 1.06017,-0.77607 1.089255,-1.24867 z m -7.418449,0.44412 0.598747,0.76082 c 0.873241,1.11013 0.272812,2.25874 -0.619,1.18417 -0.21131,-0.25462 -0.281158,-0.74431 -0.169555,-1.18897 z m 1.960443,0.92237 c 0.656008,0 2.093206,1.46005 2.093206,2.1268 0,0.68306 -1.510565,0.65559 -2.139057,-0.0389 -0.671072,-0.74153 -0.641585,-2.08787 0.04585,-2.08787 z m 15.380193,0.92185 c -0.22618,0.1715 -0.58373,0.2723 -1.20708,0.43132 -0.669559,0.17081 -1.159469,0.22616 -1.44755,0.17702 0.895629,-0.054 1.79042,-0.25075 2.65463,-0.60834 z m -5.586493,0.2863 c 0.281375,0.0787 0.566351,0.14452 0.853596,0.19621 -0.143308,0.2289 -0.335695,0.268 -0.570488,0.11196 h -5.36e-4 c -0.08798,-0.0586 -0.190046,-0.17294 -0.282572,-0.30817 z m 6.143123,0.39401 c 0.13442,0.004 0.27155,0.18132 0.40573,0.53423 0.18291,0.48111 0.51493,0.77522 0.87439,0.77522 0.31863,0 0.72432,0.27128 0.90158,0.60248 0.30378,0.56761 0.36328,0.57508 1.03754,0.13329 0.98864,-0.64777 1.29532,-0.33968 1.09779,1.10151 -0.16127,1.17659 -0.12022,1.26004 0.95223,1.95405 0.33064,0.21397 0.72038,0.54823 1.07059,0.90478 -0.27346,0.15454 -0.58936,0.29047 -0.96023,0.42173 -0.10744,0.0381 -0.21908,0.074 -0.33429,0.10771 -0.18701,-0.12709 -0.37245,-0.20622 -0.5465,-0.23033 -0.98149,-0.13601 -1.45447,-0.57091 -1.45447,-1.33664 0,-0.8587 -1.40818,-2.1559 -2.7394,-2.52347 -1.0264,-0.2834 -1.07373,-0.34834 -0.88878,-1.22681 0.17127,-0.81352 0.37411,-1.22492 0.58382,-1.21775 z m -3.946485,1.92633 c 0.177335,-0.008 0.395289,0.002 0.673383,0.0224 1.192666,0.0867 1.223948,0.11587 1.314782,1.22575 0.1919,2.34458 -0.493417,3.12144 -1.694399,1.92046 -0.320302,-0.3203 -0.697061,-0.58222 -0.837594,-0.58222 -0.140543,0 -0.411064,-0.18714 -0.600883,-0.41586 -0.269428,-0.32464 -0.241715,-0.61577 0.12583,-1.32651 0.321479,-0.62169 0.486877,-0.81855 1.018881,-0.844 z m -2.409908,0.0298 c 0.07134,-0.003 0.140842,0.007 0.206873,0.0325 0.824398,0.31635 0.466778,1.48699 -0.487846,1.59683 -0.530044,0.061 -0.800812,-0.0431 -0.800812,-0.30817 0,-0.6394 0.582394,-1.30145 1.081785,-1.32118 z m -7.050563,0.80935 c 0.24023,0 0.436662,0.19644 0.436662,0.43666 0,0.24023 -0.196432,0.43666 -0.436662,0.43666 -0.240219,0 -0.437198,-0.19643 -0.437198,-0.43666 0,-0.24022 0.196979,-0.43666 0.437198,-0.43666 z m 4.551627,0.2911 c 0.400375,0 0.555455,0.16042 0.488908,0.50598 -0.111737,0.58018 -0.962073,0.84188 -1.24547,0.38334 -0.281065,-0.45477 0.08877,-0.88932 0.756562,-0.88932 z m 5.398289,0.28257 c -0.169958,-0.008 -0.37841,0.15636 -0.441996,0.46333 -0.06294,0.3036 0.04669,0.43673 0.291641,0.35509 0.215478,-0.0718 0.391338,-0.28342 0.391338,-0.47026 0,-0.2304 -0.108797,-0.34165 -0.240983,-0.34816 z m -10.492681,1.58991 c 0.04828,4.5e-4 0.09474,0.0134 0.138624,0.0406 0.113842,0.0704 0.211165,0.33577 0.245264,0.6398 -0.236804,-0.16408 -0.472297,-0.34025 -0.706976,-0.52838 0.1037,-0.0942 0.216871,-0.15294 0.323088,-0.15194 z m 8.352025,1.75464 c 0.07502,-0.003 0.15636,0.0224 0.237784,0.0869 -0.145908,9.1e-4 -0.290877,0.002 -0.435588,0.003 0.0544,-0.0538 0.122776,-0.0867 0.197804,-0.0901 z" /></g></g></svg>
