<?xml version="1.0" encoding="UTF-8" standalone="no"?>
<!-- Created with Inkscape (http://www.inkscape.org/) -->

<svg
   width="1080"
   height="1080"
   viewBox="0 0 285.74997 285.74997"
   version="1.1"
   id="svg1"
   inkscape:version="1.4.2 (f4327f4, 2025-05-13)"
   sodipodi:docname="25.svg"
   xml:space="preserve"
   xmlns:inkscape="http://www.inkscape.org/namespaces/inkscape"
   xmlns:sodipodi="http://sodipodi.sourceforge.net/DTD/sodipodi-0.dtd"
   xmlns="http://www.w3.org/2000/svg"
   xmlns:svg="http://www.w3.org/2000/svg"><sodipodi:namedview
     id="namedview1"
     pagecolor="#ffffff"
     bordercolor="#000000"
     borderopacity="0.25"
     inkscape:showpageshadow="2"
     inkscape:pageopacity="0.0"
     inkscape:pagecheckerboard="0"
     inkscape:deskcolor="#3c3c3c"
     inkscape:document-units="px"
     inkscape:zoom="0.58042029"
     inkscape:cx="149.02994"
     inkscape:cy="562.52341"
     inkscape:window-width="1920"
     inkscape:window-height="991"
     inkscape:window-x="-9"
     inkscape:window-y="-9"
     inkscape:window-maximized="1"
     inkscape:current-layer="layer1" /><defs
     id="defs1"><inkscape:path-effect
       effect="fillet_chamfer"
       id="path-effect13"
       is_visible="true"
       lpeversion="1"
       nodesatellites_param="F,0,0,1,0,0,0,1 @ F,0,0,1,0,61.00658,0,1 @ F,0,1,1,0,61.00658,0,1 @ F,0,0,1,0,0,0,1"
       radius="0"
       unit="px"
       method="auto"
       mode="F"
       chamfer_steps="1"
       flexible="false"
       use_knot_distance="true"
       apply_no_radius="true"
       apply_with_radius="true"
       only_selected="false"
       hide_knots="false" /><inkscape:path-effect
       effect="fillet_chamfer"
       id="path-effect12"
       is_visible="true"
       lpeversion="1"
       nodesatellites_param="F,0,0,1,0,0,0,1 @ F,0,0,1,0,11.839417,0,1 @ F,0,1,1,0,11.839417,0,1 @ F,0,0,1,0,0,0,1"
       radius="0"
       unit="px"
       method="auto"
       mode="F"
       chamfer_steps="1"
       flexible="false"
       use_knot_distance="true"
       apply_no_radius="true"
       apply_with_radius="true"
       only_selected="false"
       hide_knots="false" /><inkscape:path-effect
       effect="fillet_chamfer"
       id="path-effect11"
       is_visible="true"
       lpeversion="1"
       nodesatellites_param="F,0,0,1,0,0,0,1 @ F,0,0,1,0,12.484083,0,1 @ F,0,1,1,0,12.484083,0,1 @ F,0,0,1,0,0,0,1"
       radius="0"
       unit="px"
       method="auto"
       mode="F"
       chamfer_steps="1"
       flexible="false"
       use_knot_distance="true"
       apply_no_radius="true"
       apply_with_radius="true"
       only_selected="false"
       hide_knots="false" /><inkscape:path-effect
       effect="fillet_chamfer"
       id="path-effect10"
       is_visible="true"
       lpeversion="1"
       nodesatellites_param="F,0,0,1,0,0,0,1 @ F,0,0,1,0,11.836638,0,1 @ F,0,1,1,0,11.836638,0,1 @ F,0,0,1,0,0,0,1"
       radius="0"
       unit="px"
       method="auto"
       mode="F"
       chamfer_steps="1"
       flexible="false"
       use_knot_distance="true"
       apply_no_radius="true"
       apply_with_radius="true"
       only_selected="false"
       hide_knots="false" /><inkscape:path-effect
       effect="fillet_chamfer"
       id="path-effect9"
       is_visible="true"
       lpeversion="1"
       nodesatellites_param="F,0,0,1,0,0,0,1 @ F,0,0,1,0,12.45879,0,1 @ F,0,1,1,0,12.45879,0,1 @ F,0,0,1,0,0,0,1"
       radius="0"
       unit="px"
       method="auto"
       mode="F"
       chamfer_steps="1"
       flexible="false"
       use_knot_distance="true"
       apply_no_radius="true"
       apply_with_radius="true"
       only_selected="false"
       hide_knots="false" /><inkscape:path-effect
       effect="fillet_chamfer"
       id="path-effect8"
       is_visible="true"
       lpeversion="1"
       nodesatellites_param="F,0,0,1,0,0,0,1 @ F,0,0,1,0,8.0758933,0,1 @ F,0,0,1,0,16.1919,0,1 @ F,0,0,1,0,0,0,1"
       radius="0"
       unit="px"
       method="auto"
       mode="F"
       chamfer_steps="1"
       flexible="false"
       use_knot_distance="true"
       apply_no_radius="true"
       apply_with_radius="true"
       only_selected="false"
       hide_knots="false" /><inkscape:path-effect
       effect="fillet_chamfer"
       id="path-effect1"
       is_visible="true"
       lpeversion="1"
       nodesatellites_param="C,0,0,1,0,45.584779,0,1 @ F,0,0,1,0,37.379523,0,1 @ F,0,0,1,0,82.964302,0,1 @ F,0,0,1,0,0,0,1"
       radius="0"
       unit="px"
       method="auto"
       mode="F"
       chamfer_steps="1"
       flexible="false"
       use_knot_distance="true"
       apply_no_radius="true"
       apply_with_radius="true"
       only_selected="false"
       hide_knots="false" /></defs><g
     inkscape:label="Capa1"
     inkscape:groupmode="layer"
     id="layer1"
     style="display:inline;opacity:1;mix-blend-mode:multiply"><path
       style="baseline-shift:baseline;display:inline;overflow:visible;mix-blend-mode:normal;vector-effect:none;stroke-width:0.999998;stroke-linecap:round;stroke-linejoin:round;stroke-miterlimit:4.7;enable-background:accumulate;stop-color:#000000"
       d="m 88.69478,107.27433 c -4.873066,0 -8.839413,3.96635 -8.839413,8.83942 v 41.01378 a 0.76982721,0.76982721 0 0 0 0.770936,0.77094 0.76982721,0.76982721 0 0 0 0.768984,-0.77094 v -41.01378 c 0,-4.04098 3.258518,-7.30145 7.299493,-7.30145 h 0.649928 c 8.520134,0 15.410912,6.89078 15.410912,15.41091 v 32.90432 a 0.76982721,0.76982721 0 0 0 0.76898,0.77094 0.76982721,0.76982721 0 0 0 0.77093,-0.77094 v -32.90432 c 0,-9.35223 -7.5986,-16.94888 -16.950822,-16.94888 z"
       id="path7" /><path
       style="baseline-shift:baseline;display:inline;overflow:visible;mix-blend-mode:normal;vector-effect:none;stroke-width:0.999998;stroke-linecap:round;stroke-linejoin:round;stroke-miterlimit:4.7;enable-background:accumulate;stop-color:#000000"
       d="m 117.97472,46.357167 c -7.29195,0 -13.2191,5.927158 -13.2191,13.219109 v 97.551254 c -6.1e-4,0.42527 0.34371,0.77047 0.76898,0.77094 0.42603,6.1e-4 0.77155,-0.34491 0.77093,-0.77094 V 59.576276 c 0,-6.459861 5.21934,-11.67919 11.67919,-11.67919 6.45987,0 11.68115,5.219329 11.68115,11.67919 v 79.103444 c 4.6e-4,0.42451 0.34447,0.76852 0.76898,0.76899 0.42527,6.1e-4 0.77047,-0.34372 0.77093,-0.76899 V 59.576276 c 0,-7.291951 -5.9291,-13.219109 -13.22106,-13.219109 z"
       id="path6"
       sodipodi:nodetypes="sscccssscccss" /><path
       style="baseline-shift:baseline;display:inline;overflow:visible;mix-blend-mode:normal;vector-effect:none;stroke-width:0.999998;stroke-linecap:round;stroke-linejoin:round;stroke-miterlimit:4.7;enable-background:accumulate;stop-color:#000000"
       d="m 142.25433,89.632778 c -6.9486,0 -12.59846,5.649866 -12.59846,12.598462 v 37.22137 c -6.1e-4,0.42527 0.34371,0.77047 0.76898,0.77094 0.42603,6.1e-4 0.77155,-0.34491 0.77093,-0.77094 v -37.22137 c 0,-6.116506 4.94204,-11.058541 11.05855,-11.058541 h 1.24325 c 6.11651,0 11.05854,4.942035 11.05854,11.058541 v 35.94298 c 4.6e-4,0.42451 0.34447,0.76852 0.76898,0.76899 0.42451,-4.6e-4 0.76853,-0.34448 0.76899,-0.76899 v -35.94298 c 0,-6.948596 -5.64791,-12.598462 -12.59651,-12.598462 z"
       id="path5"
       sodipodi:nodetypes="sscccsssscccsss" /><path
       style="baseline-shift:baseline;display:inline;overflow:visible;mix-blend-mode:normal;vector-effect:none;stroke-width:0.999998;stroke-linecap:round;stroke-linejoin:round;stroke-miterlimit:4.7;enable-background:accumulate;stop-color:#000000"
       d="m 167.8006,98.673697 c -7.30591,0 -13.24448,5.938573 -13.24448,13.244483 v 20.78923 c 4.7e-4,0.4245 0.34448,0.76851 0.76898,0.76898 0.42451,-4.6e-4 0.76852,-0.34447 0.76899,-0.76898 v -20.78923 c 0,-6.47315 5.23165,-11.70544 11.70456,-11.70651 6.45986,0.0131 11.65576,5.24469 11.65576,11.70456 v 0.002 26.76154 c 4.6e-4,0.42528 0.34567,0.76961 0.77095,0.76899 0.42451,-4.7e-4 0.76852,-0.34448 0.76898,-0.76899 v -26.75959 -0.002 c 0,-7.29106 -5.90048,-13.244483 -13.19179,-13.244483 h -0.002 z"
       id="path4"
       sodipodi:nodetypes="cscccscscccccsscc" /><path
       style="baseline-shift:baseline;display:inline;overflow:visible;mix-blend-mode:normal;vector-effect:none;stroke-width:0.999998;stroke-linecap:round;stroke-linejoin:round;stroke-miterlimit:4.7;enable-background:accumulate;stop-color:#000000"
       d="m 192.05678,107.9881 c -6.95013,0 -12.60237,5.65028 -12.60237,12.60041 v 19.0378 c -6.1e-4,0.42603 0.34492,0.77155 0.77095,0.77093 0.42526,-4.7e-4 0.76959,-0.34567 0.76898,-0.77093 v -19.0378 c 0,-6.11804 4.9444,-11.06049 11.06244,-11.06049 h 1.2374 c 6.11803,0 11.06049,4.94245 11.06049,11.06049 v 36.53902 c -6.2e-4,0.42603 0.3449,0.77155 0.77093,0.77094 0.42527,-4.6e-4 0.7696,-0.34567 0.76899,-0.77094 v -36.53902 c 0,-6.95013 -5.65029,-12.60041 -12.60041,-12.60041 z"
       id="path3"
       sodipodi:nodetypes="sscccsssscccsss" /><path
       style="baseline-shift:baseline;display:inline;overflow:visible;mix-blend-mode:normal;vector-effect:none;stroke-width:0.999998;stroke-linecap:round;stroke-linejoin:round;stroke-miterlimit:4.7;enable-background:accumulate;stop-color:#000000"
       d="m 80.626303,156.33512 a 0.79318557,0.79318557 0 0 0 -0.794357,0.79241 V 180.927 c 0,34.09772 27.659124,61.75684 61.756834,61.75684 h 2.57239 c 34.09772,0 61.75683,-27.65912 61.75683,-61.75684 v -23.79947 a 0.79318557,0.79318557 0 0 0 -0.7924,-0.79241 0.79318557,0.79318557 0 0 0 -0.79436,0.79241 V 180.927 c 0,33.24038 -26.92969,60.17008 -60.17007,60.17008 h -2.57239 c -33.24038,0 -60.170072,-26.9297 -60.170073,-60.17008 v -23.79947 a 0.79318557,0.79318557 0 0 0 -0.792404,-0.79241 z"
       id="path2" /><path
       style="baseline-shift:baseline;display:inline;overflow:visible;mix-blend-mode:normal;vector-effect:none;stroke-width:0.999998;stroke-linecap:round;stroke-linejoin:round;stroke-miterlimit:4.7;enable-background:accumulate;stop-color:#000000"
       d="m 105.5246,156.44832 a 0.79318557,0.79318557 0 0 0 -0.7924,0.79437 0.79318557,0.79318557 0 0 0 0.7924,0.79239 c 9.46649,0 18.04578,4.60248 24.29131,12.10663 a 0.79318557,0.79318557 0 0 0 1.11639,0.10149 0.79318557,0.79318557 0 0 0 0.10345,-1.1164 c -6.49934,-7.80909 -15.52961,-12.67848 -25.51115,-12.67848 z"
       id="path1" /><path
       id="path9"
       style="baseline-shift:baseline;display:inline;overflow:visible;mix-blend-mode:normal;vector-effect:none;stroke-width:0.999998;stroke-linecap:round;stroke-linejoin:round;stroke-miterlimit:4.7;enable-background:accumulate;stop-color:#000000"
       d="m 142.25408,151.37015 c -6.9486,0 -12.5982,-5.64961 -12.5982,-12.5982 v -1.35703 h 1.53996 v 1.35703 c 0,6.1165 4.94173,11.05824 11.05824,11.05824 h 1.24334 c 6.11651,0 11.05875,-4.94174 11.05875,-11.05824 v -1.35703 h 1.53789 v 1.35703 c 0,6.94859 -5.64804,12.5982 -12.59664,12.5982 z" /><path
       id="path10"
       style="baseline-shift:baseline;display:inline;overflow:visible;mix-blend-mode:normal;vector-effect:none;stroke-width:0.999998;stroke-linecap:round;stroke-linejoin:round;stroke-miterlimit:4.7;enable-background:accumulate;stop-color:#000000"
       d="m 167.15434,151.37015 c -6.9486,0 -12.5982,-5.64961 -12.5982,-12.5982 v -1.35703 h 1.53996 v 1.35703 c 0,6.1165 4.94173,11.05824 11.05824,11.05824 h 1.24334 c 6.11651,0 11.05875,-4.94174 11.05875,-11.05824 v -1.35703 h 1.53789 v 1.35703 c 0,6.94859 -5.64804,12.5982 -12.59664,12.5982 z" /><path
       id="path11"
       style="baseline-shift:baseline;display:inline;overflow:visible;mix-blend-mode:normal;vector-effect:none;stroke-width:0.999998;stroke-linecap:round;stroke-linejoin:round;stroke-miterlimit:4.7;enable-background:accumulate;stop-color:#000000"
       d="m 192.0546,151.37015 c -6.9486,0 -12.5982,-5.64961 -12.5982,-12.5982 v -1.35703 h 1.53996 v 1.35703 c 0,6.1165 4.94173,11.05824 11.05824,11.05824 h 1.24334 c 6.11651,0 11.05875,-4.94174 11.05875,-11.05824 v -1.35703 h 1.53789 v 1.35703 c 0,6.94859 -5.64804,12.5982 -12.59664,12.5982 z" /></g></svg>
