<?xml version="1.0" encoding="UTF-8" standalone="no"?>
<!-- Created with Inkscape (http://www.inkscape.org/) -->

<svg
   width="677.89764"
   height="677.89764"
   viewBox="0 0 179.3604 179.3604"
   version="1.1"
   id="svg1"
   inkscape:version="1.4.2 (f4327f4, 2025-05-13)"
   sodipodi:docname="61.svg"
   xml:space="preserve"
   xmlns:inkscape="http://www.inkscape.org/namespaces/inkscape"
   xmlns:sodipodi="http://sodipodi.sourceforge.net/DTD/sodipodi-0.dtd"
   xmlns="http://www.w3.org/2000/svg"
   xmlns:svg="http://www.w3.org/2000/svg"><sodipodi:namedview
     id="namedview1"
     pagecolor="#ffffff"
     bordercolor="#000000"
     borderopacity="0.25"
     inkscape:showpageshadow="2"
     inkscape:pageopacity="0.0"
     inkscape:pagecheckerboard="0"
     inkscape:deskcolor="#3c3c3c"
     inkscape:document-units="px"
     inkscape:zoom="11.451852"
     inkscape:cx="204.55207"
     inkscape:cy="129.54237"
     inkscape:window-width="1920"
     inkscape:window-height="991"
     inkscape:window-x="-9"
     inkscape:window-y="-9"
     inkscape:window-maximized="1"
     inkscape:current-layer="layer1"
     showgrid="true"><inkscape:page
       x="0"
       y="0"
       width="179.3604"
       height="179.3604"
       id="page2"
       margin="0"
       bleed="0" /></sodipodi:namedview><defs
     id="defs1"><inkscape:path-effect
       effect="skeletal"
       id="path-effect11"
       is_visible="true"
       lpeversion="1"
       pattern="#path9"
       copytype="repeated_stretched"
       prop_scale="1"
       scale_y_rel="false"
       spacing="0"
       normal_offset="0"
       tang_offset="0"
       prop_units="false"
       vertical_pattern="false"
       hide_knot="false"
       fuse_tolerance="0" /></defs><g
     inkscape:label="Capa1"
     inkscape:groupmode="layer"
     id="layer1"
     style="display:inline;opacity:1;mix-blend-mode:multiply"
     transform="translate(-52.640301,-51.90097)"><path
       style="fill:none;stroke:#000000;stroke-width:1.32292;stroke-linecap:square;stroke-linejoin:miter;stroke-miterlimit:4.7;stroke-dasharray:none"
       id="path11"
       inkscape:path-effect="#path-effect11"
       sodipodi:type="arc"
       sodipodi:cx="159.69469"
       sodipodi:cy="96.112541"
       sodipodi:rx="65.800125"
       sodipodi:ry="65.800125"
       d="m 202.29827,96.21169 c 0.43436,6.74314 -1.86157,13.83506 -5.86614,20.25411 m 33.95257,20.69857 c 7.27981,-12.13033 11.61135,-26.16294 11.94865,-41.051829 h -33.92818 c 0.31109,7.296219 -1.82569,14.735939 -5.62536,21.534199 l 24.38958,13.34159 c 4.58944,-8.4659 7.65349,-17.79855 8.78568,-27.59151 l -21.98281,-2.35507 c -0.47519,5.04252 -1.84551,10.02808 -3.93625,14.78197 l 14.83474,6.44199 c 1.8594,-4.30046 3.29639,-8.78628 4.25195,-13.39845 l -9.4824,-1.94962 c -0.42328,2.07673 -0.96868,4.13041 -1.6275,6.15235 l 3.17292,1.0315 m 27.50514,-17.75298 c -0.50154,16.03909 -5.12031,31.04001 -12.83467,43.98112 m -39.51908,-23.71216 c -4.03144,6.40838 -9.76348,12.13583 -16.17447,16.16073 m 20.58386,34.02437 c 12.13033,-7.2798 22.3584,-17.50786 29.6382,-29.6382 l -28.79913,-17.48974 c -4.12574,6.66151 -9.83556,12.60274 -16.34449,17.03872 l 15.51272,23.15031 c 8.0069,-5.32706 15.04539,-12.07787 20.70902,-19.84597 l -17.88672,-13.1174 c -3.14982,4.25963 -6.87753,8.14506 -11.00839,11.48154 l 10.19126,12.69469 c 3.66084,-2.93271 7.05314,-6.20465 10.11789,-9.75681 l -7.38436,-6.38027 c -1.4169,1.6373 -2.91298,3.20861 -4.47955,4.70526 l 2.32484,2.43469 m 32.33539,-1.44411 c -7.76309,12.90857 -18.61372,23.74929 -31.53024,31.50051 m -24.13203,-39.26272 c -6.42163,3.99799 -13.51417,6.28538 -20.25597,5.84052 m -0.0603,40.0376 1e-5,1e-5 c 14.88888,-0.33729 28.92148,-4.66883 41.05181,-11.94863 l -17.48973,-28.79913 c -6.66152,4.12574 -14.04332,6.66741 -21.36044,6.84005 l 1.53024,27.85338 c 9.89779,-0.66166 19.38415,-3.30405 28.05265,-7.52072 l -9.73072,-19.81982 c -4.67234,2.32462 -9.60529,3.95778 -14.62415,4.72474 l 2.57051,15.9701 c 4.6599,-0.76257 9.20514,-2.01826 13.5767,-3.70803 l -3.50241,-9.02703 c -1.9867,0.77404 -4.00964,1.43918 -6.06015,1.98671 l 0.86161,3.22274 m 29.26649,13.79295 c -12.94903,7.70245 -27.9559,12.30734 -43.99898,12.79305 m -0.24259,-46.39544 c -6.74315,0.43436 -13.83506,-1.86157 -20.25411,-5.86614 m -20.69858,33.95257 c 12.13033,7.2798 26.16293,11.61135 41.05182,11.94865 l 2e-5,-33.92818 c -7.29622,0.31109 -14.73594,-1.82569 -21.5342,-5.62536 l -13.3416,24.38958 c 8.4659,4.58944 17.79855,7.65348 27.59151,8.78568 l 2.35507,-21.98281 c -5.04251,-0.47519 -10.02807,-1.84551 -14.78196,-3.93626 l -6.442,14.83475 c 4.30046,1.8594 8.78628,3.29639 13.39845,4.25195 l 1.94962,-9.4824 c -2.07673,-0.42328 -4.13041,-0.96868 -6.15235,-1.6275 l -1.03149,3.17292 m 17.75296,27.50515 c -16.03908,-0.50155 -31.04,-5.12033 -43.98111,-12.83469 m 23.71217,-39.51907 c -6.40838,-4.03145 -12.13583,-9.76348 -16.16073,-16.17448 m -34.02437,20.58386 c 7.279798,12.13033 17.50786,22.3584 29.63819,29.63821 l 17.48975,-28.79913 c -6.66152,-4.12575 -12.60274,-9.83557 -17.03872,-16.3445 l -23.150315,15.51272 c 5.327065,8.0069 12.077875,15.0454 19.845965,20.70903 l 13.11741,-17.88672 c -4.25964,-3.14983 -8.14506,-6.87753 -11.48155,-11.00839 l -12.69468,10.19125 c 2.9327,3.66084 6.20464,7.05314 9.7568,10.11789 l 6.38027,-7.38435 c -1.63729,-1.4169 -3.20861,-2.91299 -4.70525,-4.47955 l -2.43469,2.32483 m 1.4441,32.3354 c -12.90857,-7.7631 -23.749285,-18.61373 -31.5005,-31.53026 m 39.26273,-24.13202 c -3.998,-6.42163 -6.28538,-13.51417 -5.84052,-20.255964 m -40.037587,-0.06027 -2.7e-5,2.2e-5 c 0.337296,14.888879 4.668833,28.921469 11.948624,41.051799 l 28.79914,-17.48973 c -4.12575,-6.66152 -6.66741,-14.04331 -6.84005,-21.360435 L 83.110355,99.8444 c 0.661658,9.89779 3.304047,19.38416 7.520716,28.05266 l 19.819819,-9.73072 c -2.32462,-4.67234 -3.95777,-9.60529 -4.72473,-14.62414 l -15.970103,2.5705 c 0.762569,4.65989 2.018252,9.20513 3.708029,13.5767 l 9.027024,-3.50241 c -0.77404,-1.9867 -1.43918,-4.00965 -1.9867,-6.06015 l -3.222749,0.86161 M 83.488707,140.25494 C 75.786262,127.30591 71.181368,112.29903 70.695663,96.255953 m 46.395447,-0.242581 c -0.43436,-6.743145 1.86157,-13.83506 5.86615,-20.254107 M 89.004693,55.060675 c -7.27981,12.13033 -11.611361,26.162933 -11.948666,41.051822 l 33.928193,2.2e-5 c -0.3111,-7.296217 1.82568,-14.735936 5.62536,-21.534197 L 92.220001,61.236717 c -4.589446,8.4659 -7.653493,17.798551 -8.78569,27.591505 l 21.982809,2.355081 c 0.47519,-5.042514 1.84552,-10.028076 3.93626,-14.781962 L 94.518636,69.959335 c -1.859399,4.300461 -3.296391,8.786285 -4.251959,13.398454 l 9.482401,1.949618 c 0.423282,-2.076728 0.968692,-4.13041 1.627502,-6.152346 L 98.203659,78.123565 M 70.698513,95.876524 C 71.200068,79.837437 75.818845,64.83652 83.533208,51.895412 m 39.519062,23.712182 c 4.03145,-6.408375 9.76349,-12.13583 16.17448,-16.160727 M 118.64291,25.422493 C 106.51257,32.702288 96.284503,42.930345 89.004693,55.060675 l 28.799117,17.489754 c 4.12575,-6.661511 9.83558,-12.602736 16.34451,-17.038714 L 118.6356,32.361399 c -8.0069,5.327062 -15.04539,12.077866 -20.709027,19.845961 l 17.886717,13.117408 c 3.14982,-4.259632 6.87753,-8.145054 11.00839,-11.481539 L 116.63043,41.148542 c -3.66084,2.932701 -7.05314,6.204641 -10.11789,9.7568 l 7.38435,6.380274 c 1.4169,-1.637295 2.91298,-3.208611 4.47955,-4.705252 l -2.32483,-2.434691 M 83.716213,51.589767 C 91.479315,38.681195 102.32995,27.840485 115.24648,20.089273 m 24.13201,39.262731 c 6.42163,-3.997992 13.51416,-6.285373 20.25596,-5.840506 m 0.0603,-40.037577 -3e-5,-4.1e-5 c -14.88887,0.337297 -28.92146,4.668829 -41.05178,11.948613 l 17.48972,28.799141 c 6.66151,-4.125741 14.04331,-6.667407 21.36043,-6.840037 l -1.53021,-27.853389 c -9.89779,0.661656 -19.38416,3.304042 -28.05266,7.520708 l 9.73071,19.819827 c 4.67234,-2.324623 9.6053,-3.957776 14.62415,-4.724732 l -2.5705,-15.970103 c -4.6599,0.762568 -9.20514,2.01825 -13.5767,3.708026 l 3.50241,9.027029 c 1.98669,-0.774044 4.00964,-1.439178 6.06014,-1.986706 l -0.8616,-3.222746 M 115.55231,19.906549 C 128.50134,12.204108 143.50822,7.5992177 159.5513,7.1135166 m 0.24257,46.3954424 c 6.74314,-0.43435 13.83506,1.861582 20.2541,5.866157 m 20.6986,-33.952558 C 188.61624,18.142745 174.58364,13.811191 159.69475,13.473881 l -3e-5,33.928199 c 7.29622,-0.311105 14.73594,1.825677 21.5342,5.62536 l 13.34161,-24.389575 c -8.4659,-4.589448 -17.79855,-7.653497 -27.5915,-8.785697 l -2.35509,21.982805 c 5.04251,0.47519 10.02807,1.845522 14.78196,3.936267 l 6.44201,-14.834742 c -4.30046,-1.8594 -8.78628,-3.296394 -13.39845,-4.251963 l -1.94962,9.4824 c 2.07672,0.423287 4.13041,0.968689 6.15234,1.627508 l 1.0315,-3.172924 M 159.93073,7.1163678 c 16.03908,0.5015592 31.04,5.1203402 43.98111,12.8347062 m -23.7122,39.51906 c 6.40838,4.031449 12.13583,9.763489 16.16073,16.174483 M 230.38475,55.060784 C 223.10495,42.930442 212.8769,32.702371 200.74657,25.422558 l -17.48976,28.799117 c 6.66151,4.125751 12.60273,9.835575 17.03871,16.344509 L 223.44584,55.053473 C 218.11878,47.046569 211.36798,40.008074 203.59988,34.344439 L 190.48247,52.23115 c 4.25963,3.149828 8.14505,6.877536 11.48154,11.008398 l 12.69469,-10.19125 c -2.9327,-3.660836 -6.20464,-7.05314 -9.7568,-10.117894 l -6.38028,7.384353 c 1.6373,1.4169 3.20861,2.912983 4.70526,4.479553 l 2.43469,-2.324834 m -1.44409,-32.335397 c 12.90857,7.763105 23.74928,18.613741 31.50049,31.530271 m -39.26274,24.132 c 3.99799,6.421634 6.28537,13.514169 5.8405,20.255967 m 40.03762,0.06031 C 241.99607,81.223736 237.66454,67.191125 230.38475,55.060784 L 201.5856,72.550495 c 4.12574,6.661516 6.6674,14.043315 6.84003,21.360436 l 27.85339,-1.530208 c -0.66165,-9.897791 -3.30404,-19.384161 -7.5207,-28.052662 l -19.81983,9.730709 c 2.32462,4.672336 3.95777,9.605293 4.72473,14.624145 l 15.9701,-2.570493 c -0.76256,-4.659898 -2.01824,-9.205139 -3.70802,-13.576704 l -9.02703,3.502406 c 0.77404,1.986696 1.43918,4.009644 1.98671,6.060147 l 3.22274,-0.861605 m 13.79297,-29.266482 c 7.70244,12.949036 12.30733,27.955913 12.79302,43.998994"
       transform="translate(-17.37419,45.468624)" /></g></svg>
