<?xml version="1.0" encoding="UTF-8" standalone="no"?>
<!-- Created with Inkscape (http://www.inkscape.org/) -->

<svg
   width="1279.9998"
   height="730.6637"
   viewBox="0 0 1279.9997 730.66373"
   version="1.1"
   id="svg5"
   inkscape:version="1.4.2 (f4327f4, 2025-05-13)"
   xml:space="preserve"
   sodipodi:docname="50.svg"
   xmlns:inkscape="http://www.inkscape.org/namespaces/inkscape"
   xmlns:sodipodi="http://sodipodi.sourceforge.net/DTD/sodipodi-0.dtd"
   xmlns="http://www.w3.org/2000/svg"
   xmlns:svg="http://www.w3.org/2000/svg"><sodipodi:namedview
     id="namedview7"
     pagecolor="#ffffff"
     bordercolor="#666666"
     borderopacity="1.0"
     inkscape:showpageshadow="2"
     inkscape:pageopacity="0.0"
     inkscape:pagecheckerboard="0"
     inkscape:deskcolor="#d1d1d1"
     inkscape:document-units="px"
     showgrid="false"
     showborder="false"
     inkscape:zoom="0.37276506"
     inkscape:cx="427.88345"
     inkscape:cy="460.07531"
     inkscape:window-width="1920"
     inkscape:window-height="991"
     inkscape:window-x="-9"
     inkscape:window-y="-9"
     inkscape:window-maximized="1"
     inkscape:current-layer="layer1" /><defs
     id="defs2"><clipPath
       clipPathUnits="userSpaceOnUse"
       id="clipPath8006"><path
         inkscape:connector-curvature="0"
         id="path8008"
         d="m -1244.8456,-140.77945 h 33.9355 c 11.5456,0 20.8405,9.29479 20.8405,20.84039 v 31.873282 c 0,11.545575 -9.2949,20.840392 -20.8405,20.840392 h -33.9355 c -11.5456,0 -20.8405,-9.294817 -20.8405,-20.840392 v -31.873282 c 0,-11.5456 9.2949,-20.84039 20.8405,-20.84039 z"
         style="opacity:0.521;fill:#ff0000;fill-opacity:1;stroke:none;stroke-width:1.61448;stroke-linecap:round;stroke-linejoin:round;stroke-miterlimit:4;stroke-dasharray:none" /></clipPath><clipPath
       clipPathUnits="userSpaceOnUse"
       id="clipPath8001"><path
         style="opacity:0.521;fill:#ff0000;fill-opacity:1;stroke:none;stroke-width:1.59706;stroke-linecap:round;stroke-linejoin:round;stroke-miterlimit:4;stroke-dasharray:none"
         d="m -2936.6731,-1508.8075 h 33.5693 c 11.421,0 20.6155,9.1945 20.6155,20.6155 v 31.5293 c 0,11.421 -9.1945,20.6155 -20.6155,20.6155 h -33.5693 c -11.421,0 -20.6156,-9.1945 -20.6156,-20.6155 v -31.5293 c 0,-11.421 9.1946,-20.6155 20.6156,-20.6155 z"
         id="path8003"
         inkscape:connector-curvature="0" /></clipPath></defs><g
     inkscape:label="Layer 1"
     inkscape:groupmode="layer"
     id="layer1"
     transform="translate(605.13716,61.667955)"><path
       style="fill:#000000;stroke-width:0.999996"
       d="M 1.7188094,668.55858 C -52.018675,666.81569 -102.80396,662.31086 -161.1987,654.1072 c -55.99143,-7.86607 -69.27896,-9.50542 -94.29608,-11.63343 -22.74757,-1.93503 -52.47493,-2.81665 -95.69651,-2.83803 -68.96386,-0.0346 -110.99302,-1.77744 -134.97793,-5.5983 -10.18294,-1.62226 -10.01648,-2.73916 1.00281,-6.73077 8.08687,-2.92934 31.58919,-9.56611 39.44564,-11.13899 3.20933,-0.64252 5.83515,-1.40706 5.83515,-1.69891 0,-0.6189 -33.76369,-5.11048 -52.74979,-7.01731 -11.94283,-1.19943 -29.13449,-2.47607 -70.02183,-5.19964 -24.39935,-1.62534 -42.47992,-4.38056 -42.47992,-6.47337 0,-3.52378 28.56648,-17.27402 51.56763,-24.82163 l 10.95496,-3.59473 -2.31893,-2.42051 c -1.27543,-1.33129 -2.31894,-2.71259 -2.31894,-3.0696 0,-1.23313 4.21513,-0.60191 8.27117,1.23864 2.23846,1.01571 4.41968,1.84673 4.84719,1.84673 0.4276,0 0.52666,-2.99052 0.22024,-6.64566 -0.53861,-6.42427 -0.49519,-6.61249 1.30241,-5.65048 1.02269,0.54738 3.47327,2.96463 5.44564,5.37161 3.52752,4.30485 3.60006,4.33995 4.44219,2.1493 0.47082,-1.22483 0.6386,-5.27293 0.37279,-8.99576 -0.43077,-6.03242 -0.3038,-6.76877 1.16713,-6.76877 2.36972,0 4.56411,2.78677 7.09181,9.00611 1.3124,3.22894 2.40399,4.87203 2.69005,4.04904 4.27824,-12.30471 8.02973,-48.06505 8.02973,-76.54125 v -12.92173 l -5.37525,5.37525 c -5.4899,5.48989 -11.4537,8.50504 -19.18122,9.69755 -4.79649,0.74027 -5.18899,-0.76678 -1.94875,-7.48244 1.43451,-2.97312 2.80199,-5.82133 3.03876,-6.32932 0.23667,-0.50798 -1.78472,1.06798 -4.49214,3.50212 -5.93047,5.33202 -14.86582,9.75666 -20.56056,10.18118 -5.17461,0.38586 -5.76746,-1.11923 -2.39717,-6.08565 1.30231,-1.91906 2.36786,-3.60911 2.36786,-3.7556 0,-0.14648 -2.83589,0.33023 -6.30197,1.05939 -6.81704,1.43423 -16.04153,1.06312 -20.15406,-0.81067 -4.17134,-1.90058 -3.17208,-4.36105 2.88201,-7.09657 2.95259,-1.33415 8.09919,-4.20084 11.4369,-6.3704 6.43557,-4.1832 16.80524,-13.10921 16.80524,-14.46558 0,-0.44478 -2.41575,0.0252 -5.36834,1.04482 -5.55945,1.91963 -12.37052,1.72618 -12.37052,-0.35123 0,-0.56858 1.04715,-2.12689 2.32705,-3.46281 l 2.32716,-2.42892 -5.82825,0.34367 c -4.96202,0.29269 -6.5912,-0.0476 -10.96308,-2.29018 -7.29927,-3.74421 -6.90714,-5.25388 2.33406,-8.98623 12.54567,-5.06697 30.9475,-18.46261 36.95808,-26.9037 2.36338,-3.31904 2.00487,-4.01375 -1.40267,-2.71816 -2.91515,1.10831 -12.92221,1.50165 -14.43402,0.56727 -0.72188,-0.44608 -0.62815,-1.24573 0.31509,-2.68706 l 1.34284,-2.05201 -7.65517,-0.0224 c -8.47945,-0.0243 -14.08923,-2.05855 -13.54016,-4.90928 0.17421,-0.90468 4.22427,-3.5193 9.67832,-6.24791 5.15828,-2.58072 10.8264,-5.71574 12.59572,-6.9667 4.93215,-3.487 21.41809,-19.80778 22.92972,-22.69996 1.29933,-2.48606 0.72636,-3.41287 -1.08683,-1.75792 -0.48782,0.44524 -2.90292,1.47699 -5.36676,2.29279 -5.06089,1.67558 -6.41773,0.68724 -4.35293,-3.17096 0.94754,-1.77053 0.89731,-1.99852 -0.33648,-1.52508 -4.8554,1.86314 -9.82266,2.59445 -13.85573,2.03969 -4.18563,-0.57567 -7.31784,-2.32566 -7.31784,-4.08862 0,-0.3896 3.83514,-3.19542 8.52259,-6.2353 5.2099,-3.3786 11.21078,-8.3833 15.43841,-12.87562 7.33073,-7.7897 15.80823,-19.01373 14.98384,-19.83821 -0.27103,-0.27094 -1.77128,0.16852 -3.33398,0.97666 -5.72386,2.95987 -8.28591,1.39297 -5.11785,-3.13007 1.54235,-2.20204 1.5361,-2.21026 -1.16703,-1.53021 -3.99031,1.00374 -14.09054,0.75269 -16.25188,-0.40407 -3.5741,-1.91281 -2.09085,-4.05221 6.10208,-8.80156 4.36301,-2.52919 10.55658,-6.7628 13.76349,-9.40804 5.94952,-4.90741 17.13575,-16.98786 16.40602,-17.71749 -0.22182,-0.22183 -2.23827,0.22884 -4.48093,1.0015 -6.80005,2.34284 -9.0231,1.20587 -7.05008,-3.60556 0.59762,-1.45748 0.38354,-1.53973 -1.82439,-0.70022 -6.90135,2.62386 -16.73391,-0.14135 -12.16494,-3.42117 1.01709,-0.73019 5.35349,-3.8499 9.63631,-6.93273 13.57415,-9.77075 25.60241,-23.19403 18.29372,-20.41519 -2.91972,1.11008 -3.31091,1.11139 -5.04092,0.0168 -1.13183,-0.71591 -0.82878,-1.5346 1.76082,-4.75701 2.40511,-2.99292 2.72104,-3.77212 1.3672,-3.37216 -6.6053,1.95165 -14.59106,1.26899 -15.08373,-1.28933 -0.14929,-0.77482 2.20419,-3.16518 5.42687,-5.51193 6.5773,-4.78968 17.6991,-17.22528 17.6991,-19.78976 0,-0.35963 -3.15099,-0.41556 -7.00219,-0.12427 -5.13362,0.3882 -7.00218,0.22921 -7.00218,-0.59574 0,-0.6189 2.69509,-3.847 5.98911,-7.1736 5.3408,-5.39355 10.49198,-13.14571 9.43651,-14.20127 -0.21576,-0.21576 -1.72393,0.0719 -3.35152,0.63935 -4.43201,1.54496 -9.62651,-0.26674 -6.42969,-2.24257 0.53702,-0.33181 2.62713,-2.69164 4.6446,-5.24408 4.82012,-6.09787 7.53201,-14.9181 10.79447,-35.10876 1.43125,-8.85776 2.89984,-16.10502 3.26349,-16.10502 1.1955,0 1.84764,2.982 3.71844,17.00354 1.01653,7.61903 2.50258,16.67818 3.30223,20.13137 1.82617,7.88642 6.35789,16.49444 10.36808,19.69416 1.69304,1.35086 3.07826,2.97322 3.07826,3.60528 0,1.57092 -4.01543,2.45189 -8.45902,1.85586 -2.02297,-0.27131 -3.6781,-0.3024 -3.6781,-0.0691 0,0.23341 0.6751,1.72992 1.50033,3.32567 2.42836,4.69594 9.78896,11.95599 14.5862,14.38687 5.00629,2.53694 5.55516,4.26097 2.08124,6.53724 -1.882,1.23313 -3.71368,1.4417 -8.86719,1.00962 l -6.49523,-0.54449 3.64198,5.36311 c 4.26377,6.27863 13.31134,14.91764 19.2969,18.42536 2.31688,1.35777 4.05613,2.94326 3.86502,3.52332 -0.72851,2.21101 -4.83347,3.46356 -9.50047,2.8989 -4.49811,-0.54421 -4.58597,-0.50938 -3.03428,1.20522 2.95538,3.26563 2.05537,4.22194 -3.53695,3.75821 -3.67838,-0.30511 -5.13493,-0.0993 -5.13493,0.72542 0,1.82048 8.09751,12.11266 12.75592,16.21314 2.33089,2.05173 8.37704,6.27396 13.43589,9.38274 5.05884,3.10878 9.47871,6.10675 9.82201,6.66216 0.34329,0.55551 -0.25834,1.89236 -1.33686,2.97089 -1.47354,1.47353 -3.45404,2.05612 -7.96727,2.34349 -4.91712,0.31304 -6.08994,0.70227 -6.4675,2.14612 -0.58286,2.22875 -5.14791,2.37533 -9.17183,0.29446 -1.5627,-0.80814 -2.99871,-1.31193 -3.19113,-1.11951 -0.64747,0.64757 12.39069,16.1968 16.98207,20.25265 6.11141,5.3985 11.86385,9.30021 15.52888,10.53269 4.85224,1.6317 5.66458,2.59342 3.86763,4.57896 -2.13781,2.36235 -6.95344,3.78109 -13.01855,3.83561 -4.58886,0.0411 -5.08564,0.23481 -4.59212,1.78976 0.81104,2.55533 -3.47551,4.00936 -7.70483,2.61349 -1.75774,-0.58006 -3.37244,-0.87807 -3.5883,-0.66212 -1.3461,1.3461 23.58551,26.86868 26.24652,26.86868 1.41295,0 10.68244,-8.23111 10.68244,-9.48571 0,-0.50052 -0.84026,-0.64327 -1.86725,-0.31734 -2.43181,0.77182 -5.60175,-0.25768 -5.60175,-1.81936 0,-0.67473 1.50622,-2.37561 3.34714,-3.77968 3.0608,-2.33462 6.91078,-7.40103 6.91928,-9.10555 0,-0.38512 -0.83681,-0.70022 -1.86379,-0.70022 -2.35236,0 -2.33911,-0.15545 0.353,-4.12242 1.93606,-2.85297 3.17927,-6.70529 6.05129,-18.75138 1.24172,-5.20804 2.45431,-2.84429 4.33528,8.45089 1.03054,6.18844 2.60687,12.37053 3.50287,13.7381 2.15667,3.2914 2.07274,4.75308 -0.23808,4.14884 -2.33985,-0.6119 -2.33863,-0.59771 0.40688,4.8203 2.36851,4.6741 8.03804,10.38816 10.30721,10.38816 1.9228,0 2.80349,1.94456 1.30922,2.89097 -0.70759,0.44823 -3.07218,0.8214 -5.25453,0.82925 -2.63198,0.009 -3.9679,0.42414 -3.9679,1.23154 0,1.77911 5.20038,6.44238 12.13712,10.88354 6.36713,4.07658 7.49112,5.90303 3.94269,6.40653 -1.38391,0.19634 -2.03567,0.84811 -1.86725,1.86725 0.19653,1.18991 -0.56951,1.6344 -3.19271,1.85241 -2.55617,0.2124 -3.31717,0.63617 -2.93439,1.63384 0.3349,0.87266 -0.0935,1.35366 -1.21679,1.36589 -1.26329,0.014 -0.277,1.42854 3.6346,5.21383 2.95259,2.85726 5.36834,5.30308 5.36834,5.43509 0,0.13211 -1.6034,0.72057 -3.56317,1.30773 -4.81172,1.44161 -13.59096,7.85496 -15.86947,11.59291 -1.01915,1.67193 -3.02737,6.61099 -4.46264,10.97569 -2.59501,7.89127 -2.61172,8.10227 -2.97387,37.57839 l -0.36421,29.64257 h -2.13753 c -4.65459,0 -13.6059,-4.39475 -17.11464,-8.40262 -1.92439,-2.19812 -0.47998,2.43396 2.23528,7.16847 3.20298,5.58484 2.97023,6.8402 -1.26394,6.81536 -4.66364,-0.0271 -11.08054,-3.0312 -15.52179,-7.26612 l -3.61817,-3.45002 0.59015,2.80087 c 0.32462,1.54048 0.86304,4.23184 1.19644,5.9808 l 0.60629,3.17993 -5.16154,-0.53273 c -6.81639,-0.70349 -12.35241,-3.60276 -17.77042,-9.30656 l -4.43472,-4.66859 v 15.37531 c 0,26.25249 2.99311,51.87264 7.35827,62.98567 l 1.65429,4.2113 2.96995,-4.53527 c 3.1494,-4.80919 7.19376,-9.6702 8.0456,-9.6702 0.2814,0 0.5613,1.99562 0.62208,4.43471 0.0607,2.4391 0.37587,5.67028 0.70022,7.18042 l 0.58977,2.74569 4.80097,-5.38673 c 2.64057,-2.96267 5.00115,-5.03849 5.24576,-4.61295 0.24461,0.42564 0.74811,2.45114 1.11895,4.50119 0.37074,2.05006 0.88545,4.0693 1.14378,4.48728 0.25834,0.41799 2.71582,-1.3644 5.46115,-3.96081 2.74522,-2.5964 5.85681,-4.72068 6.91451,-4.72068 2.38905,0 2.39624,0.61302 0.0523,4.45731 -1.02502,1.68127 -1.86463,3.15173 -1.86575,3.26769 -9.3e-4,0.11595 4.26069,0.0765 9.47078,-0.0878 l 9.47274,-0.29829 5.83721,6.13149 c 7.98529,8.38805 14.03882,11.07571 29.56471,13.12632 2.41697,0.3193 5.34426,1.34955 6.50512,2.28953 1.89041,1.53077 1.96771,1.88209 0.74046,3.36823 -2.19878,2.66261 -8.33764,4.92357 -17.78032,6.54863 -10.79102,1.85717 -12.16139,2.77847 -2.72917,1.83476 3.8512,-0.38521 13.85816,-1.17879 22.23772,-1.76343 l 15.23545,-1.06293 -2.8484,-2.72628 c -4.28234,-4.09777 -6.14922,-9.93096 -6.14922,-19.21299 0,-6.63312 0.40585,-8.80137 2.47224,-13.20892 4.21961,-9.00023 11.79942,-14.79982 19.34283,-14.79982 1.18906,0 1.99235,-0.59173 1.99235,-1.46765 0,-1.24004 -0.83214,-1.36618 -5.36834,-0.81319 -9.18537,1.1197 -15.15431,5.41745 -18.55998,13.36362 -1.29345,3.01794 -3.96268,15.32983 -4.04783,18.67081 -0.0261,1.038 -1.7427,1.15527 -9.13542,0.62441 -5.00656,-0.35945 -10.81903,-1.07208 -12.9166,-1.58352 -5.00908,-1.22118 -12.42841,-6.90556 -15.07738,-11.55146 l -2.1127,-3.70546 0.232,-63.48647 0.2321,-63.48646 2.18039,-6.06856 c 2.59604,-7.22551 5.61108,-11.44054 10.26455,-14.35028 6.34491,-3.96725 4.20019,-3.55095 78.11664,-15.1643 10.10592,-1.58772 25.07771,-1.33191 26.86878,0.45925 1.49529,1.49529 5.39252,1.30437 16.47166,-0.80675 6.1439,-1.17067 10.44156,-2.50304 11.66844,-3.61751 2.32117,-2.1085 9.03253,-4.29047 17.34702,-5.64003 13.77824,-2.23621 49.62681,-5.8752 57.88472,-5.87586 11.97327,-8.4e-4 80.16345,8.02983 93.357164,10.99465 7.175978,1.61255 13.260428,5.42407 22.357002,14.0053 7.847236,7.40271 14.157482,16.96106 14.766925,22.36805 1.002376,8.89306 -5.107739,13.44345 -18.098396,13.47855 -4.913712,0.0131 -7.926332,0.4319 -8.547808,1.18757 -0.697399,0.84802 0.738646,3.90498 5.254037,11.18436 3.417551,5.5096 8.94459,14.7156 12.282297,20.45795 3.337708,5.74226 6.821406,11.40628 7.741559,12.58666 0.920152,1.18038 7.272683,4.83888 14.116748,8.13 18.734539,9.00901 21.967718,13.15701 23.409794,30.0334 1.202443,14.07196 1.485201,15.4048 3.268097,15.4048 2.174561,0 2.81315,1.80834 2.81315,7.96625 0,12.19649 -4.319236,22.5376 -10.704555,25.62864 -5.114134,2.47579 -7.010437,2.41781 -7.128055,-0.21781 -0.05154,-1.15536 -0.682928,0.59341 -1.403032,3.88612 -1.679339,7.67881 -3.832454,11.34375 -7.87123,13.3981 -3.19097,1.62301 -3.047864,1.63757 10.301631,1.04622 11.77182,-0.52143 13.808372,-0.84568 15.613843,-2.48597 1.865475,-1.6948 2.136301,-1.73 2.667356,-0.34609 0.325088,0.84717 1.313619,1.54029 2.196734,1.54029 1.2529993,0 1.5153758,-0.61516 1.1945824,-2.80087 -0.5209345,-3.54936 0.5988828,-3.54656 3.4070292,0.009 2.912395,3.68697 4.2331376,3.56887 3.6017367,-0.32201 -0.8403274,-5.17835 0.6859152,-5.9076 2.90655979,-1.38895 l 1.98365201,4.0369 -0.5762611,-6.30196 c -0.4047355,-4.42622 -0.2599864,-6.302 0.4863064,-6.302 0.6510537,0 1.0879619,1.89828 1.1281731,4.90156 0.036038,2.69584 0.3967531,5.74179 0.8014793,6.76878 0.6430526,1.63179 0.8207587,1.48455 1.4089981,-1.16703 0.8322236,-3.7514 1.483352,-3.78837 4.111645,-0.23341 1.1389281,1.54048 2.6669541,2.80087 3.3956201,2.80087 1.140301,0 1.142925,-0.43544 0.01886,-3.12577 -1.121059,-2.68305 -1.115766,-4.8316 0.03734,-15.17143 0.738843,-6.62509 1.626533,-19.78023 1.972628,-29.23356 l 0.629281,-17.18793 5.395323,-5.95354 c 6.686927,-7.3788 9.419207,-13.99783 9.559017,-23.15706 0.0549,-3.59445 -0.231249,-8.14979 -0.635807,-10.12301 -0.648384,-3.16237 -0.993134,-3.52294 -2.908493,-3.04221 -1.808477,0.45392 -2.441092,-0.0196 -3.771759,-2.82394 -0.879353,-1.85306 -1.804444,-6.57598 -2.055757,-10.49534 -0.401627,-6.26368 -0.184204,-7.63434 1.796686,-11.32729 4.5507,-8.48375 20.085736,-18.40491 30.262972,-19.32696 7.676336,-0.69546 22.989412,1.75689 44.554504,7.13541 12.423283,3.09842 20.409223,4.60585 24.400933,4.60585 9.43838,0 12.81437,2.60108 22.56888,17.38876 7.47936,11.33849 8.96849,14.00072 20.34153,36.36579 7.01824,13.80131 9.83742,18.57073 9.83742,16.64261 0,-4.0567 1.99114,-6.26603 4.97267,-5.51773 3.08721,0.77491 5.22904,4.79295 5.94046,11.14449 0.58342,5.20832 2.79219,9.98624 4.61659,9.98624 4.13222,0 5.86764,-2.77987 10.17006,-16.291 1.62684,-5.1088 3.41511,-9.44119 3.97407,-9.62754 0.57838,-0.19279 1.16619,1.19448 1.36449,3.22026 l 0.34843,3.55898 2.2308,-4.90153 c 4.83058,-10.61391 4.83104,-2.62974 4.7e-4,9.08444 -1.55336,3.76699 -2.63394,7.03944 -2.40128,7.2721 0.76772,0.76772 5.34948,-4.84084 7.64181,-9.35436 1.23882,-2.43909 2.44059,-4.43472 2.67063,-4.43472 0.22995,0 0.88293,0.86846 1.45104,1.9299 0.80544,1.505 0.699,2.43928 -0.48334,4.24379 -0.83391,1.27272 -1.26244,3.11364 -0.95229,4.09096 0.57193,1.80189 -1.21054,4.12475 -4.72984,6.16388 -1.59155,0.92214 -1.42135,1.13771 1.71572,2.17301 1.91543,0.63216 3.48261,1.53693 3.48261,2.01065 0,1.18673 -7.17052,1.08665 -9.44744,-0.13192 -1.4727,-0.78816 -2.67157,-0.51508 -5.80873,1.32341 -5.20785,3.05202 -8.68308,5.9119 -8.00798,6.59018 0.29876,0.30016 3.83253,0.82383 7.85281,1.16367 7.27713,0.61516 7.3001,0.62543 5.18843,2.33546 -1.47065,1.19084 -3.65775,1.7175 -7.13252,1.7175 -4.99312,0 -5.00768,0.009 -3.95885,2.31034 0.83765,1.8385 0.65065,3.88846 -0.91541,10.03647 -1.08245,4.24939 -2.1409,11.90044 -2.35209,17.00242 -0.34067,8.22871 -0.6203,9.46763 -2.47578,10.97012 -4.89061,3.96024 -10.00519,0.73485 -15.40929,-9.71745 -1.93204,-3.73695 -4.68866,-8.68507 -6.12579,-10.99579 -1.43713,-2.31072 -2.89012,-5.88183 -3.22884,-7.93581 -2.0747,-12.58021 -7.73816,-22.76624 -19.06947,-34.29707 -6.60017,-6.7163 -7.47068,-7.30402 -9.95066,-6.71733 -4.10571,0.97115 -4.62863,1.83354 -3.50175,5.77493 5.4055,18.90581 12.38901,40.36461 15.66547,48.13684 8.38554,19.89137 8.0724,19.31271 10.45081,19.31271 1.25442,0 2.20961,-0.55598 2.20961,-1.28616 0,-0.70732 0.61292,-1.79471 1.36197,-2.41641 1.12222,-0.93129 1.46878,-0.70489 1.96845,1.28607 0.67744,2.69929 1.79592,3.13483 2.60892,1.01606 0.29559,-0.77024 0.98554,-1.40044 1.5332,-1.40044 0.70414,0 0.70302,0.54692 0,1.86725 -0.54962,1.02699 -0.66941,1.86762 -0.26627,1.868 0.40323,4.7e-4 11.02629,1.05042 23.60688,2.33331 12.58059,1.2829 22.97884,2.33285 23.10721,2.33332 0.12837,3.7e-4 0.23341,-1.50473 0.23341,-3.34471 0,-4.19095 1.63253,-3.88332 4.18011,0.7876 2.33827,4.28721 4.93766,5.17779 5.33726,1.8286 0.41947,-3.51566 1.87425,-3.41025 4.28543,0.31043 2.29568,3.54236 3.92757,3.64534 3.29494,0.20773 -0.21492,-1.16768 -0.0149,-3.80349 0.44422,-5.85747 l 0.83494,-3.73449 1.81301,6.00124 c 2.02288,6.69596 3.24705,7.78251 4.83701,4.29281 1.41724,-3.11047 2.69575,-2.98499 3.42519,0.3361 0.45356,2.06499 1.26142,2.82823 3.45861,3.26769 4.87502,0.97498 6.06455,0.77323 4.06435,-0.6893 -1.67446,-1.22445 -1.67586,-1.50547 -0.0476,-9.26351 1.20008,-5.71892 1.5064,-9.81903 1.07376,-14.37561 -0.33293,-3.50604 -0.86211,-8.99752 -1.176,-12.20322 -0.44534,-4.54712 -0.23359,-6.34304 0.96294,-8.16921 1.43816,-2.19495 1.4306,-2.34125 -0.12165,-2.34984 -4.84607,-0.0271 -16.00083,-7.89678 -14.01183,-9.88578 0.27523,-0.27532 2.6289,0.5781 5.23035,1.89638 5.3084,2.68996 8.2819,2.9974 10.84722,1.12156 1.5248,-1.11493 1.59977,-1.62348 0.59668,-4.0453 -0.63104,-1.52349 -3.64627,-5.24277 -6.70053,-8.2651 -5.16098,-5.1072 -7.03953,-8.82135 -4.46161,-8.82135 0.60042,0 3.33127,1.26394 6.06856,2.80881 2.73739,1.54496 4.96987,2.49026 4.9611,2.10066 -0.009,-0.38951 -0.78434,-3.76932 -1.72338,-7.51073 -0.93913,-3.74141 -1.42751,-6.97558 -1.08543,-7.18704 1.25246,-0.77398 7.10357,10.37042 9.8812,18.82037 l 2.85502,8.6857 3.40129,-3.49054 c 1.87071,-1.91982 4.05128,-5.05063 4.84561,-6.95737 0.79432,-1.90674 3.09328,-6.01833 5.10888,-9.13683 2.0156,-3.11858 6.26313,-11.85171 9.43885,-19.40697 11.16746,-26.56824 18.63618,-38.80162 27.70895,-45.38573 3.999,-2.90207 21.58241,-9.53072 35.28149,-13.3005 9.54285,-2.6261 32.75789,-5.93328 41.64898,-5.93328 10.95357,0 17.73187,1.89003 28.37285,7.91144 8.79353,4.97594 12.09044,8.50112 14.19502,15.17747 2.04333,6.48234 0.73887,13.72978 -4.35676,24.20627 -4.97137,10.22085 -6.00274,15.03966 -4.64544,21.70378 1.55253,7.62211 5.22158,13.68833 11.78729,19.48857 7.42904,6.56282 8.86355,9.52007 8.11087,16.72084 -0.63851,6.10861 0.47204,15.97105 3.90329,34.66411 2.86362,15.60021 2.85857,17.69965 -0.0523,21.64459 -1.28373,1.73999 -2.33406,3.41081 -2.33406,3.71283 0,0.30213 2.03549,0.63776 4.52322,0.74606 l 4.52323,0.19681 3.52322,-7.90714 c 4.04688,-9.08202 6.11337,-11.58404 6.08433,-7.36611 -0.0103,1.47494 -0.43749,5.58046 -0.94959,9.12337 -0.51209,3.54283 -0.74484,6.6278 -0.51713,6.85552 0.22762,0.22761 1.09841,-0.90973 1.93503,-2.52761 1.36048,-2.63086 11.59496,-10.30273 13.74417,-10.30273 0.4585,0 -0.38783,1.78556 -1.8807,3.9679 -3.60706,5.27265 -6.0356,10.08996 -5.40475,10.72081 0.28093,0.28103 2.79863,-1.06479 5.59484,-2.99067 6.26751,-4.31652 8.51736,-4.03793 4.48438,0.55541 l -2.89134,3.29308 9.05681,1.68921 c 15.4049,2.87323 44.81165,10.4804 59.00573,15.2641 16.16701,5.44864 35.97012,13.53793 39.2014,16.01316 l 2.32323,1.77967 -2.74215,1.04258 c -8.3875,3.18889 -64.47042,7.57767 -145.21568,11.36389 -13.29266,0.62329 -54.42331,1.14677 -93.12783,1.18524 -38.12614,0.0383 -69.32087,0.384 -69.32162,0.76912 -6.5e-4,0.38512 0.86332,0.70022 1.91991,0.70022 4.41735,0 48.90857,10.29741 52.02379,12.04076 1.24042,0.69415 1.19224,0.88265 -0.34282,1.34162 -14.99149,4.48233 -262.532465,11.2105 -330.8885589,8.99351 z M 323.35246,589.23159 c 0.33835,-1.54048 1.03838,-2.80087 1.5557,-2.80087 0.51732,0 1.41631,1.26039 1.99777,2.80087 0.58146,1.54048 1.52881,2.80087 2.10514,2.80087 1.05079,0 3.21083,-5.88286 3.21083,-8.74432 0,-0.83905 0.42013,-1.52555 0.93362,-1.52555 0.51349,0 0.93363,1.43611 0.93363,3.19132 0,1.75521 0.25497,3.85587 0.56671,4.66812 0.69564,1.81291 4.10141,1.97116 4.10141,0.19065 0,-0.70732 0.63019,-1.80909 1.40043,-2.44834 1.35273,-1.12268 1.88042,-0.4178 1.52994,2.0438 -0.15527,1.09047 3.61443,1.89078 6.03943,1.28215 4.47495,-1.12315 5.9667,-11.34466 3.719,-25.48263 -1.72618,-10.8578 -1.74663,-10.92932 -5.27937,-18.45601 -1.90777,-4.06482 -2.91151,-8.20834 -3.65813,-15.10222 -0.56587,-5.22531 -1.56205,-11.31721 -2.21353,-13.53755 -1.06751,-3.63759 -1.28448,-3.85233 -2.19262,-2.16984 -3.43742,6.36797 -19.069,50.65793 -20.21997,57.2904 -1.04239,6.00647 -2.06592,8.73714 -4.66859,12.45502 -1.83345,2.6191 -3.11336,5.11813 -2.84429,5.55348 0.26898,0.43535 3.16182,0.79152 6.42848,0.79152 5.84,0 5.94952,-0.0467 6.55441,-2.80087 z m -35.47773,-0.93362 c 0.71805,-3.26928 2.07368,-3.68819 2.50249,-0.77332 0.49613,3.37159 2.14509,2.89423 4.52565,-1.31007 1.56634,-2.76642 2.35367,-3.50053 2.57466,-2.40025 0.17505,0.87172 -0.12838,2.41958 -0.67436,3.43975 -1.35973,2.54067 -1.24443,3.84476 0.34003,3.84476 4.21764,0 13.29845,-21.96576 18.30128,-44.26886 1.9677,-8.77243 4.38617,-19.38457 5.37431,-23.58252 0.98815,-4.19785 1.51275,-8.09172 1.16591,-8.65301 -0.60564,-0.97994 -5.90088,-2.85372 -8.06427,-2.85372 -2.28355,0 -10.0064,8.08584 -16.76379,17.55177 -9.59411,13.43952 -11.10948,16.23778 -13.41068,24.76308 -1.0844,4.0172 -2.7794,8.84871 -3.7668,10.73671 -2.58464,4.94242 -15.03032,19.90749 -18.38362,22.10524 l -2.84915,1.86725 11.7633,1.02138 c 18.13566,1.57475 16.66464,1.70079 17.36504,-1.48819 z m 118.22077,-3.24015 c 0.32116,-0.31528 1.68715,0.73785 3.03549,2.34023 1.62283,1.92858 2.58493,2.49417 2.84615,1.67324 0.21707,-0.68211 0.89582,-2.86586 1.50846,-4.85289 1.36543,-4.42893 2.72693,-2.98592 2.74822,2.91254 0.0187,5.21186 1.96742,5.2395 4.84588,0.0681 1.19383,-2.14463 2.75419,-4.08974 3.46758,-4.32249 0.77575,-0.25302 1.03893,-0.009 0.65493,0.61581 -0.35309,0.57138 -0.36486,2.5164 -0.0261,4.32241 l 0.61601,3.28355 h 5.28058 5.28058 l 2.22548,-5.60277 c 2.06947,-5.21019 2.18655,-6.43688 1.67203,-17.50546 -0.37383,-8.04003 -1.30175,-14.8201 -2.85932,-20.8924 -3.34443,-13.03797 -5.64217,-17.02847 -13.6396,-23.68717 -2.46692,-2.05398 -7.26509,-6.78222 -10.66265,-10.50711 -3.39755,-3.72497 -6.17742,-6.22811 -6.17742,-5.56262 0,0.66558 2.04081,4.76932 4.53518,9.11955 2.49436,4.35022 4.83319,8.84833 5.19739,9.99585 0.47456,1.49501 -0.58949,4.79939 -3.75392,11.65751 -6.11692,13.25728 -11.92033,28.18195 -13.92855,35.82012 -1.32061,5.02309 -2.48391,7.21104 -5.32278,10.01182 -1.99815,1.97116 -3.47234,4.07182 -3.27618,4.66812 0.20399,0.61974 3.12493,1.28411 6.819,1.55094 6.33072,0.45729 6.48113,0.41593 7.3958,-2.03362 0.5135,-1.37532 1.19644,-2.75849 1.5177,-3.07377 z m -39.3295,3.70696 c 0.63926,-0.77024 1.53096,-1.40044 1.98153,-1.40044 0.45066,0 0.81935,0.6302 0.81935,1.40044 0,1.0127 1.03959,1.40044 3.75485,1.40044 3.57858,0 3.93308,-0.27393 7.55134,-5.83516 5.03018,-7.73153 12.24645,-22.75077 15.27531,-31.79293 3.3575,-10.0232 3.96968,-17.69489 1.92177,-24.08359 -1.21446,-3.78893 -9.56153,-20.33154 -16.76042,-33.21687 -0.0504,-0.0906 -2.39877,0.61853 -5.21747,1.5769 -2.81871,0.95836 -8.80109,2.24788 -13.29416,2.86566 l -8.16922,1.12315 0.009,14.57202 c 0.014,21.57634 1.415,34.38763 5.62901,51.48465 3.50837,14.23423 3.622,15.14265 2.22912,17.83597 -0.80712,1.56083 -1.24023,3.43013 -0.96238,4.15406 0.66521,1.73347 3.76456,1.68361 5.23175,-0.084 z M -278.21929,578.0281 h 16.66137 l -3.74468,-3.38309 c -2.70471,-2.44357 -4.14987,-4.77698 -5.20383,-8.40262 l -1.45926,-5.01956 h -18.16871 c -13.73613,0 -18.24946,0.28475 -18.49958,1.16703 -0.18206,0.64186 -0.82374,2.97876 -1.42602,5.19303 -0.60237,2.21428 -2.64598,5.74805 -4.54133,7.85281 l -3.44629,3.82693 11.58348,-0.61722 c 6.37096,-0.33956 19.08114,-0.61731 28.24485,-0.61731 z m 197.509372,-2.61667 c -1.84446,-1.89853 -3.770574,-4.56057 -4.280249,-5.91563 l -0.926678,-2.46384 -17.101175,-0.66101 c -23.46034,-0.90683 -23.16547,-0.95537 -24.6374,4.05446 -0.65731,2.23724 -2.14857,5.08255 -3.31392,6.32306 l -2.11883,2.25536 27.86591,-0.07 27.865921,-0.07 z m -99.556012,-1.35124 c -2.77539,-4.86166 -4.11355,-12.35804 -3.41791,-19.14782 1.66008,-16.20324 9.54445,-26.65228 21.20084,-28.09725 6.95254,-0.86183 7.16692,-2.93727 0.30343,-2.93727 -6.92824,0 -11.64379,1.46551 -15.83689,4.92179 -6.87931,5.67046 -10.72417,15.21807 -10.72417,26.63023 v 5.95195 l -16.09503,-0.31295 -16.09513,-0.31285 -1.63188,5.13496 c -1.05285,3.31278 -2.79088,6.21168 -4.89779,8.16921 l -3.26582,3.03428 h 26.0963 26.0963 z m 326.69655,2.39428 c 0,-0.35207 -0.87219,-1.56858 -1.9383,-2.70331 -1.19831,-1.27552 -2.619,-5.17825 -3.72124,-10.22228 -1.87565,-8.58272 -7.7924,-23.19338 -18.01615,-44.48786 -3.37272,-7.02497 -6.4042,-13.85602 -6.73648,-15.18018 -0.33237,-1.32425 -0.94426,-2.61769 -1.35973,-2.87453 -1.24499,-0.7694 -4.63936,4.28673 -4.64048,6.91246 0,2.19299 -5.09433,23.22204 -8.84507,36.51882 -0.79666,2.82421 -1.870236,9.92414 -2.385783,15.7776 -0.801517,9.10118 -0.728974,10.96068 0.500702,12.83736 2.366741,3.6122 4.956611,2.8104 7.235591,-2.24004 1.4234,-3.15444 2.107,-3.93644 2.36776,-2.70882 0.3278,1.54347 0.6583,1.44646 3.1255,-0.91719 3.18273,-3.04932 4.12064,-2.37739 5.1326,3.67698 0.41294,2.47075 0.98115,3.40334 1.8666,3.0636 0.70012,-0.2687 1.27299,-0.0812 1.27299,0.41583 0,2.12886 2.70341,0.6598 3.61901,-1.96658 1.16628,-3.34555 2.51677,-2.94092 3.38551,1.01438 0.75932,3.45721 1.61825,3.50296 4.18469,0.22267 l 2.00879,-2.56747 -0.53403,2.51089 c -0.49595,2.33192 -0.28411,2.53703 2.9707,2.87734 6.4224,0.67156 10.50682,0.68715 10.50682,0.0402 z M 37.196541,571.31431 c 0,-1.61284 1.619605,-0.64093 2.631,1.57885 1.638894,3.59698 3.786287,2.93457 4.476356,-1.38092 0.326722,-2.04324 1.201416,-4.45899 1.943751,-5.36834 1.206644,-1.47812 1.293546,-1.17142 0.81989,2.89358 -0.462041,3.96548 -0.351005,4.39858 0.868159,3.38682 1.143839,-0.94931 1.397962,-0.88489 1.397962,0.35459 0,1.263 1.167236,1.51471 7.023705,1.51471 h 7.023713 l -1.435522,-2.19084 c -0.789529,-1.20503 -2.849347,-6.35164 -4.577365,-11.43693 -4.37687,-12.88057 -8.241552,-22.30784 -13.158729,-32.09848 -2.31663,-4.61267 -4.212047,-9.45594 -4.212047,-10.76273 0,-1.30679 1.48521,-5.41147 3.300475,-9.12151 l 3.300475,-6.74544 -9.346571,9.61988 c -9.951187,10.24214 -10.566576,11.39676 -12.289169,23.05698 -1.252168,8.47591 -2.1501,30.83092 -1.317671,32.8047 0.403503,0.95668 0.781789,2.7527 0.840645,3.99106 0.16175,3.40334 1.914089,3.30335 3.174108,-0.18122 0.614914,-1.7005 1.767249,-3.91235 2.560755,-4.91516 1.343831,-1.69836 1.424384,-1.48969 1.175125,3.04455 -0.233658,4.25033 -0.03072,4.90797 1.599645,5.18348 1.762785,0.29783 4.20131,-1.57549 4.20131,-3.22763 z m 48.813989,3.32893 4.260689,-0.58398 -1.476901,-3.09693 c -1.393061,-2.92131 -1.337977,-3.61611 0.97125,-12.25338 4.171621,-15.60339 5.440155,-25.07977 5.987165,-44.72463 l 0.522363,-18.76296 -2.230727,-0.59705 c -1.22697,-0.32836 -3.709664,-0.60265 -5.517254,-0.60966 -1.807497,-0.009 -6.377617,-0.86939 -10.155734,-1.91635 -3.778108,-1.04697 -6.947315,-1.7822 -7.042694,-1.63385 -1.735702,2.69986 -13.012158,23.76121 -14.043216,26.22888 -1.686126,4.03549 -1.819111,10.31076 -0.3463,16.34076 2.414344,9.88466 11.416463,30.32142 16.837703,38.22523 2.936856,4.28169 3.846907,4.53349 12.233656,3.38392 z m 28.67686,-6.68811 c 0,-1.1338 -0.50201,-0.98442 -2.26815,0.67473 -1.94045,1.82299 -2.11896,2.45805 -1.23612,4.39588 l 1.03203,2.26497 1.23612,-2.9398 c 0.67986,-1.61685 1.23612,-3.59501 1.23612,-4.39578 z m -455.51872,0.73672 c 2.07405,0 4.57112,-6.16764 4.57458,-11.29884 0.009,-10.27716 -6.3944,-15.12379 -12.24617,-9.27202 -2.78892,2.78893 -2.88173,3.13885 -2.52181,9.5085 0.34422,6.09209 0.61675,6.83015 3.45973,9.37045 1.76334,1.57549 3.68119,2.529 4.47439,2.22464 0.76352,-0.29297 1.78024,-0.53273 2.25928,-0.53273 z m 186.08504,-2.87248 c 2.05553,-2.44295 2.41705,-3.77645 2.41705,-8.91586 0,-7.14363 -1.69012,-10.98241 -5.40549,-12.27763 -6.04405,-2.10691 -11.39978,3.27805 -11.39978,11.46201 0,10.54308 8.73443,16.45059 14.38822,9.73148 z m 65.610569,-47.77668 c 1.01232,-1.57334 0.603607,-14.76742 -0.491366,-15.86237 -0.478978,-0.47895 -6.905451,-0.9396 -14.281043,-1.02353 l -13.41019,-0.15274 -0.28094,6.51586 c -0.33938,7.87129 0.22368,10.48226 2.38223,11.04636 0.89826,0.23481 6.96508,0.47559 13.48181,0.53515 8.556364,0.0784 12.057259,-0.21594 12.599499,-1.05873 z m 60.619483,-8.38226 c -0.344955,-3.71163 -0.984301,-7.10554 -1.420771,-7.54201 -0.43646,-0.43647 -2.000112,-0.65568 -3.474772,-0.48716 -2.606493,0.29792 -2.689044,0.47278 -2.962662,6.27666 -0.374084,7.93487 -0.06862,8.50093 4.587532,8.50093 h 3.897873 z m -14.811625,3.24733 c 0.302037,-0.90776 -3.777081,-1.16703 -18.361995,-1.16703 -16.160322,0 -18.750299,0.19615 -18.750299,1.42013 0,1.23164 2.438291,1.38662 18.362004,1.16704 13.675499,-0.1885 18.461099,-0.55094 18.75029,-1.42014 z M -211.03045,492.30239 c 1.16517,-0.48726 1.32444,-1.15014 0.68594,-2.85512 -0.73336,-1.95837 -1.24322,-2.15247 -4.31839,-1.64411 -1.91776,0.31706 -4.64226,0.58099 -6.05437,0.58669 -1.90422,0.009 -2.56746,0.4725 -2.56746,1.79974 0,0.98414 0.52516,2.00132 1.16703,2.26031 1.71161,0.69069 9.32513,0.5893 11.08725,-0.14751 z m -141.28072,-12.69814 c 12.85965,-0.92998 16.47557,-1.49109 17.73886,-2.75279 1.37644,-1.37476 1.62469,-4.26676 1.87313,-21.81843 0.1575,-11.12852 0.0457,-21.19225 -0.24825,-22.36386 -0.294,-1.1716 -1.59519,-2.82514 -2.89153,-3.67446 -2.19429,-1.43778 -3.75653,-1.43293 -22.62564,0.0691 -11.14776,0.88759 -21.39671,2.03707 -22.77549,2.5543 -3.91067,1.467 -4.49531,4.84523 -4.49531,25.97493 v 19.33051 l 2.4025,2.5923 c 2.31436,2.49726 2.63104,2.56775 8.63602,1.9242 3.42846,-0.36748 13.50199,-1.19373 22.38571,-1.83625 z m 281.799876,-6.60007 c 0.983593,-2.56317 -19.519567,-35.90617 -26.734104,-43.476 -3.251952,-3.41212 -3.314872,-3.43172 -13.070742,-4.06304 -19.23496,-1.24489 -42.5884,-2.38336 -49.24869,-2.40091 l -6.76881,-0.0177 v 2.79322 c 0,3.61612 17.85618,39.19356 21.49981,42.83712 l 2.71039,2.71041 19.40474,0.62226 c 10.67261,0.34226 25.286577,0.9578 32.475486,1.36785 7.188909,0.40995 14.449361,0.80693 16.134329,0.882 1.950827,0.0868 3.257547,-0.36897 3.597591,-1.25508 z M -273.04459,472.5285 c 6.11805,0 7.16268,-0.26468 9.23841,-2.34041 l 2.3404,-2.34032 -0.28223,-21.54376 c -0.33573,-25.6348 0.0644,-24.73488 -10.55201,-23.74151 -26.70138,2.49847 -29.28211,2.88042 -31.20192,4.6178 -1.85455,1.67838 -1.94175,2.68007 -1.94175,22.31213 0,26.02563 -0.96854,24.43492 14.38435,23.6236 6.11422,-0.32313 14.22088,-0.58753 18.01475,-0.58753 z m 77.52912,-0.23341 c 0.50761,-0.64186 1.16105,-4.47887 1.45216,-8.5267 0.29119,-4.04791 0.92905,-7.75944 1.41761,-8.24801 1.20027,-1.20027 11.34055,-2.0536 15.38567,-1.29475 3.09169,0.57997 3.34797,0.9256 4.87809,6.57851 0.88835,3.2815 1.42826,7.23895 1.19999,8.79427 -0.41369,2.81861 -0.40258,2.82618 3.38373,2.30932 2.08927,-0.28522 3.98723,-0.69583 4.21765,-0.91252 1.12838,-1.06088 -2.62778,-10.72744 -9.74321,-25.07501 -9.54976,-19.25619 -11.06709,-21.75252 -13.86871,-22.81769 -1.34517,-0.51135 -7.71706,-0.33676 -16.57137,0.45421 -7.91228,0.70685 -14.88104,1.30128 -15.48622,1.32108 -0.60526,0.0196 -1.76062,0.69601 -2.56746,1.50295 -2.1746,2.17459 -2.18674,41.90405 -0.014,45.00639 1.37336,1.9608 2.11223,2.07498 13.42319,2.07498 8.46134,0 12.24038,-0.34208 12.8927,-1.16703 z m -237.60137,-87.89328 c 2.25405,-1.71105 2.04585,-2.43489 -0.70022,-2.43489 -2.87192,0 -2.97817,-1.52816 -0.30408,-4.3745 l 2.02998,-2.16087 h -2.99358 c -1.64644,0 -4.5151,-0.6357 -6.37469,-1.41267 -1.8595,-0.77696 -3.5207,-1.27299 -3.69155,-1.10223 -0.37887,0.37895 9.27696,12.76451 9.93348,12.74164 0.25675,-0.009 1.20204,-0.57437 2.10066,-1.25648 z m 9.10284,-25.19983 c 0,-0.7103 -0.73523,-1.50295 -1.63385,-1.76128 -0.89861,-0.25843 -2.4741,-0.77892 -3.50109,-1.15686 -1.02699,-0.37783 -0.39679,0.39418 1.40044,1.71554 3.90227,2.86921 3.7345,2.81516 3.7345,1.2026 z M 592.70313,563.49116 c -25.69082,-2.81077 -35.13247,-4.42426 -95.92991,-16.39435 l -43.18014,-8.5014 v -6.72564 c 0,-10.57788 -1.74466,-14.31097 -10.2877,-22.01244 -11.55883,-10.42009 -13.02499,-17.87798 -6.18498,-31.46053 1.81347,-3.60099 4.17731,-10.07064 5.25304,-14.37698 2.7428,-10.97989 2.56522,-10.6014 4.29962,-9.16194 1.20531,1.00029 1.61769,0.97788 2.35917,-0.12828 6.88063,-10.26371 9.91248,-26.63304 10.79653,-58.2915 l 0.57353,-20.53974 -6.43884,6.5843 c -6.87054,7.02561 -11.93891,10.05252 -16.04051,9.57964 -2.51826,-0.29036 -2.53423,-0.33854 -2.34834,-7.0611 0.10466,-3.78631 -0.20381,-6.76878 -0.70022,-6.76878 -0.4881,0 -0.88741,0.35198 -0.88741,0.7821 0,1.42947 -9.72949,5.53481 -14.70048,6.20282 -5.51875,0.74167 -6.59419,-0.20951 -4.99442,-4.41736 l 0.92102,-2.42256 -2.98359,1.56139 c -1.64094,0.85865 -3.12699,1.63468 -3.30223,1.72431 -0.96667,0.49463 1.37206,4.49652 4.57784,7.83302 4.45806,4.64002 4.66075,6.77456 0.79517,8.37582 -6.00404,2.4869 -14.41731,0.71516 -21.30764,-4.48709 l -3.18245,-2.40287 0.56428,3.4771 c 0.72739,4.4828 -0.71273,5.07667 -5.89696,2.43181 -4.44256,-2.26637 -8.16538,-5.90247 -9.43847,-9.21833 -1.51966,-3.95801 -1.78519,-1.4909 -0.34899,3.24323 2.446,8.06315 1.58949,9.43577 -4.82012,7.72481 -2.53339,-0.67632 -5.44154,-2.88117 -10.00995,-7.58944 l -6.43921,-6.6362 0.50538,17.2151 c 0.27794,9.46826 0.75744,17.84521 1.06573,18.61545 0.43217,1.07992 -2.05612,2.41519 -10.87141,5.83412 -14.10762,5.47142 -23.07966,8.50392 -23.6052,7.97838 -0.21921,-0.21921 0.0233,-1.84129 0.53824,-3.60444 1.43395,-4.9076 3.68034,-26.5098 3.69043,-35.48931 l 0.009,-8.00919 -4.31988,4.13913 c -4.7893,4.58905 -12.47061,8.58841 -16.52188,8.60242 l -2.636,0.009 0.30194,-7.93795 c 0.16609,-4.36591 -0.0131,-7.93702 -0.3982,-7.93581 -0.38512,0 -0.70021,1.23257 -0.70021,2.73636 0,1.50379 -0.67669,3.41081 -1.50379,4.23791 -2.39559,2.39559 -10.33112,6.09489 -13.1698,6.13923 -2.44162,0.0383 -2.19038,0.41855 4.16303,6.30197 8.33857,7.72182 8.13448,9.0781 -1.35908,9.03029 -4.44657,-0.0224 -7.65852,-0.63318 -10.77076,-2.04809 -4.90451,-2.22987 -5.10711,-2.14827 -2.92691,1.17926 1.47877,2.25695 1.45748,2.3012 -1.10569,2.3012 -3.55431,0 -10.16101,-3.32445 -12.77115,-6.42642 l -2.14266,-2.54646 0.35841,6.34277 c 0.2899,5.13036 0.0775,6.4505 -1.10942,6.90611 -2.02905,0.77855 -10.68477,-3.34293 -15.02669,-7.1552 l -3.59585,-3.15724 0.51629,15.38875 c 0.44618,13.30022 2.30876,27.18854 4.01692,29.95226 0.27822,0.45028 2.18786,-0.94931 4.24342,-3.11019 3.03288,-3.18823 3.90124,-3.67017 4.60575,-2.55626 0.47746,0.75502 0.87462,2.05659 0.88247,2.89237 0.009,0.83569 0.56335,1.97517 1.23434,2.53199 0.93101,0.77276 1.60705,0.35748 2.85362,-1.75288 1.83728,-3.11028 2.92421,-3.47271 3.77381,-1.25843 0.38381,1 1.28121,1.34395 2.66736,1.02231 17.17085,-3.98433 40.45713,-9.06474 41.549,-9.06474 0.87266,0 -0.16422,1.68678 -2.72618,4.43471 -8.39198,9.00154 -12.13292,15.71673 -22.23474,39.91245 -6.86438,16.4416 -10.37602,22.8738 -12.48778,22.8738 -0.67642,0 -2.57391,-2.07405 -4.21653,-4.60912 -6.55554,-10.11684 -12.1248,-11.95142 -17.8932,-5.89415 -1.83382,1.9256 -4.87389,4.66233 -6.7557,6.08153 -2.21998,1.67436 -3.81293,3.88724 -4.53639,6.30197 -0.69032,2.30409 -1.68099,3.72544 -2.60108,3.73179 -0.81729,0.009 -2.97135,0.25609 -4.7866,0.55644 l -3.30064,0.54617 0.8693,-8.52054 c 0.83848,-8.21851 0.79255,-8.60223 -1.29681,-10.82631 -1.1914,-1.26814 -2.71461,-2.30577 -3.38495,-2.30577 -0.67025,0 -2.11494,-1.78556 -3.21027,-3.9679 -4.48027,-8.9262 -9.35883,-10.76787 -12.98438,-4.90153 -1.11073,1.79722 -2.43172,3.26768 -2.93559,3.26768 -0.50379,0 -2.13044,2.67838 -3.61472,5.95195 -3.29625,7.26967 -4.91628,8.09938 -8.77812,4.49596 -2.80704,-2.61919 -6.03486,-4.16704 -10.86216,-5.20859 -1.97966,-0.42723 -3.35209,-2.52789 -8.10508,-12.40591 -3.14706,-6.54042 -5.56655,-12.14319 -5.37655,-12.45054 0.18989,-0.30735 4.67745,-1.52974 9.97232,-2.71638 19.53441,-4.37814 24.57225,-5.72218 24.88175,-6.63826 0.96518,-2.85679 3.16405,-3.69631 8.14699,-3.11074 l 5.06221,0.595 1.52068,-3.62891 c 2.42565,-5.78847 3.97855,-16.53243 4.64021,-32.10454 l 0.61489,-14.47118 -5.0159,4.8021 c -5.5785,5.34051 -9.79708,7.80183 -13.37221,7.80183 -2.84756,0 -2.92738,-1.03838 -0.49268,-6.40392 2.60818,-5.74804 2.3547,-6.11291 -2.03689,-2.93167 -4.20915,3.04912 -5.23875,3.08861 -3.66102,0.14069 1.64608,-3.07582 1.19626,-3.01831 -2.43844,0.31146 -4.61332,4.22633 -12.42411,8.07399 -17.56745,8.65367 -3.69977,0.41705 -4.19272,0.25796 -4.19272,-1.35329 0,-1.00429 1.05033,-2.81273 2.33406,-4.01869 2.90385,-2.72805 3.03139,-4.17984 0.23341,-2.65653 -3.37291,1.83634 -13.63848,1.34824 -18.69611,-0.889 -6.82657,-3.01972 -6.57085,-3.35787 8.19489,-10.83443 5.6473,-2.85951 12.36847,-6.78064 14.93593,-8.71371 l 4.66813,-3.51463 -3.55319,-0.29287 c -3.7274,-0.30726 -5.43566,-2.29523 -3.57298,-4.1579 1.7765,-1.7765 1.24405,-2.0804 -3.84486,-2.19411 -6.16537,-0.13781 -12.24896,-2.19757 -12.65061,-4.2831 -0.22379,-1.16255 1.53488,-2.51836 6.52268,-5.02822 11.85087,-5.96353 21.69314,-13.61262 27.70717,-21.53321 l 2.94531,-3.87893 -4.3577,1.31146 c -6.18339,1.8609 -9.66264,1.72805 -9.66264,-0.36906 0,-0.92429 0.51947,-2.19999 1.15443,-2.83495 0.91691,-0.91691 0.10027,-1.03539 -3.9679,-0.57577 -6.45378,0.72917 -12.46977,-1.06274 -12.8661,-3.83234 -0.21716,-1.51732 1.06181,-2.65252 6.10068,-5.41455 8.81594,-4.83263 17.74167,-11.68674 23.94663,-18.38886 5.32866,-5.75561 6.57197,-8.15633 3.60454,-6.95998 -3.05903,1.23332 -8.39208,1.62479 -8.98847,0.65979 -0.32696,-0.52908 -0.21754,-1.95361 0.2433,-3.16573 0.83606,-2.19888 0.82411,-2.20289 -5.39934,-1.85129 -6.26835,0.35422 -13.16401,-1.45542 -13.16401,-3.45459 0,-0.50201 2.36403,-1.99507 5.25341,-3.31792 10.52932,-4.82049 25.70903,-17.91159 29.68534,-25.60092 l 1.61321,-3.1197 -2.85017,0.62599 c -3.7865,0.83167 -6.92292,-0.19531 -6.21682,-2.03549 0.37168,-0.96854 0.11745,-1.256 -0.79974,-0.90402 -5.10002,1.95706 -14.0813,1.22827 -14.0813,-1.14257 0,-0.67361 3.97528,-4.22755 8.83395,-7.89753 8.1203,-6.13373 18.70797,-17.05919 18.70797,-19.30475 0,-0.52628 -0.98404,-0.69424 -2.2322,-0.38091 -3.12111,0.78331 -3.59091,-0.60611 -1.51471,-4.47981 l 1.77995,-3.321 -2.71432,1.35404 c -1.64253,0.81944 -4.66411,1.24218 -7.65255,1.07058 -4.2591,-0.24442 -4.97809,-0.56363 -5.2283,-2.32089 -0.19475,-1.36786 0.41892,-2.40362 1.86725,-3.15136 7.3578,-3.79883 17.63355,-14.29613 21.65299,-22.11971 1.82524,-3.55282 1.38485,-3.6839 -5.43182,-1.61601 -4.7093,1.42854 -7.99528,1.13659 -7.99528,-0.7103 0,-0.5684 2.88023,-4.00609 6.40055,-7.63948 5.63685,-5.81788 10.40469,-12.8294 10.40469,-15.30127 0,-0.4585 -2.10066,-0.63187 -4.66813,-0.38521 -2.56746,0.24676 -4.66812,0.15984 -4.66812,-0.19307 0,-0.35282 1.47345,-2.5713 3.27432,-4.92982 4.14417,-5.42744 6.23362,-12.2556 8.86738,-28.97681 1.15256,-7.31728 2.43349,-13.30415 2.84652,-13.30415 0.41304,0 1.17105,2.20569 1.68436,4.90153 5.95979,31.29901 6.51455,33.26271 10.68607,37.82411 2.54432,2.78211 1.12157,4.44359 -2.595,3.03055 -1.43863,-0.54692 -2.80788,-0.80226 -3.04278,-0.56727 -1.15424,1.15415 6.47562,12.94162 11.98288,18.51228 5.08648,5.14511 5.97641,6.47842 4.91339,7.3607 -1.51546,1.25777 -9.2693,0.45878 -11.21442,-1.15564 -2.06527,-1.71405 -1.44123,0.40537 1.42359,4.8343 3.24099,5.01067 9.42896,10.99166 14.82064,14.32498 2.18235,1.34918 3.9679,2.8005 3.9679,3.22511 0,1.13594 -4.38878,2.93905 -7.15352,2.93905 -2.34601,0 -2.3645,0.0504 -0.86034,2.34601 1.49716,2.28486 1.46953,2.37197 -1.05966,3.34312 -1.42826,0.54841 -3.96221,0.77958 -5.63106,0.51359 -3.56589,-0.5683 -3.74122,0.0691 -1.01924,3.7078 2.59912,3.4742 15.95984,17.16459 16.75118,17.16459 1.41575,0 21.35704,-11.82314 26.18584,-15.52552 8.58057,-6.57907 25.40345,-26.46508 23.77026,-28.09836 -0.32518,-0.32509 -2.16143,0.16095 -4.08059,1.08029 -1.91916,0.91925 -5.96623,1.89871 -8.9937,2.17656 -6.05875,0.55607 -5.92301,0.77332 -3.79901,-6.07836 0.64233,-2.07199 0.60863,-2.08077 -2.69547,-0.70022 -3.37356,1.40959 -11.33345,1.87995 -14.06626,0.8313 -3.28702,-1.26133 -1.5361,-3.97771 4.38551,-6.80388 7.86429,-3.75327 16.46298,-10.41608 24.99528,-19.36804 6.57038,-6.89351 13.02275,-15.19474 13.02275,-16.75446 0,-0.37214 -0.75063,0 -1.66801,0.83289 -4.33547,3.92356 -14.62532,5.8682 -15.73596,2.97397 -0.29708,-0.77426 0.084,-2.36048 0.84717,-3.52509 l 1.38746,-2.11746 -6.4365,0.36374 c -6.15054,0.3475 -12.00464,-0.96891 -12.00464,-2.69948 0,-0.87947 5.0397,-4.61845 6.22513,-4.61845 1.35599,0 9.85086,-6.04606 14.96049,-10.6479 4.954,-4.4616 15.76864,-18.06283 14.98514,-18.84633 -0.23873,-0.23873 -1.56998,0 -2.95838,0.52573 -5.48149,2.08403 -5.6235,0.97685 -0.53552,-4.17517 2.78911,-2.82422 4.75364,-5.13494 4.36562,-5.13494 -0.38801,0 -2.47363,0.90207 -4.63479,2.00459 -4.36955,2.22912 -13.84668,2.91459 -15.63718,1.1309 -0.8031,-0.80003 1.11027,-3.24482 7.67206,-9.80306 9.45257,-9.44735 15.70328,-19.612651 15.70328,-25.537735 v -3.071157 l -3.46505,1.766604 c -3.31091,1.687993 -8.67207,2.417154 -8.67207,1.179541 0,-0.322847 1.45814,-2.20102 3.24033,-4.173675 4.24604,-4.699959 8.57236,-13.383694 10.29826,-20.670913 0.76137,-3.214656 2.65999,-14.434302 4.21905,-24.932536 1.55906,-10.498234 3.03287,-19.285975 3.27515,-19.528344 0.99674,-0.996644 1.50752,1.232758 3.73525,16.300991 4.03083,27.264356 8.17817,40.414457 15.19632,48.18268 2.14416,2.373273 2.95716,3.940269 2.35628,4.54115 -1.17394,1.173939 -5.63928,1.465323 -8.94356,0.583608 -3.22381,-0.860241 -3.36674,0.639813 -0.5865,6.156436 3.73095,7.402989 10.19359,15.52067 15.7762,19.81637 3.07088,2.36309 5.58345,4.67727 5.58345,5.14268 0,2.67091 -8.56909,3.44134 -14.47118,1.30091 -1.49492,-0.54206 -1.32566,-0.0953 0.84847,2.24024 2.33827,2.51182 2.4995,3.00029 1.16003,3.51425 -0.85566,0.32836 -3.07508,0.31202 -4.93215,-0.0364 l -3.37636,-0.63337 2.14099,3.56504 c 6.64134,11.05907 17.37839,21.7205 30.0671,29.85545 3.46608,2.22212 6.30196,4.44676 6.30196,4.94363 0,1.56915 -3.87986,4.59418 -6.68186,5.20963 -1.48222,0.32555 -4.36637,0.3095 -6.40914,-0.0355 -3.12858,-0.52852 -3.71424,-0.37532 -3.71424,0.97172 0,2.22987 -4.00982,1.32238 -10.14775,-2.29672 -2.63469,-1.55346 -4.79024,-2.6162 -4.79024,-2.36179 0,0.92233 5.18778,8.52306 10.81109,15.8395 7.08304,9.21562 16.44486,18.07394 24.84263,23.50643 3.49764,2.26263 6.35938,4.68894 6.35938,5.39177 0,2.21428 -7.8402,4.55431 -13.3119,3.97323 -2.69164,-0.28588 -5.73404,-0.8356 -6.76103,-1.22174 -1.82542,-0.68631 -1.82859,-0.65793 -0.14191,1.26468 3.6234,4.13054 -0.87938,5.17788 -8.81435,2.05015 -2.65326,-1.04575 -4.97603,-1.74943 -5.16173,-1.56373 -0.18579,0.1857 2.49736,3.87464 5.96241,8.1976 5.42333,6.76607 20.64795,20.4755 22.73861,20.4755 2.96351,0 26.08426,-21.695 35.87686,-33.66444 5.02803,-6.14587 6.632,-9.05579 3.45693,-6.2719 -3.05043,2.67464 -7.59756,4.45861 -11.36426,4.45861 h -3.75458 l 2.31353,-4.35115 c 1.27243,-2.39316 2.20195,-4.46273 2.06564,-4.59904 -0.13631,-0.1364 -2.76474,0.60611 -5.84094,1.65 -4.02458,1.3657 -7.0329,1.76809 -10.72791,1.43498 -6.23474,-0.56205 -12.31301,-3.25947 -11.92742,-5.29319 0.15078,-0.79498 3.90077,-3.36861 8.33325,-5.7191 10.16129,-5.38813 17.85669,-11.50338 28.54417,-22.68269 7.40345,-7.74404 18.93035,-23.19861 18.93035,-25.38049 0,-0.42862 -1.36542,0.53973 -3.03428,2.15191 -3.89237,3.76018 -10.46509,6.72462 -14.9673,6.75076 -4.79435,0.028 -5.2776,-1.87724 -1.64066,-6.46918 l 2.95053,-3.72534 -4.49148,2.01821 c -5.93738,2.66793 -14.24141,2.83878 -16.99505,0.34974 -2.93027,-2.64869 -2.43564,-3.90003 2.46711,-6.24053 9.28695,-4.4336 16.22424,-9.61643 24.65431,-18.41911 7.52007,-7.85244 14.83025,-18.181216 13.68115,-19.330415 -0.19896,-0.198862 -2.02615,0.231166 -4.06052,0.955752 -4.35032,1.549443 -8.49468,1.769593 -9.2835,0.49314 -0.30809,-0.498462 0.12968,-2.240232 0.97284,-3.87062 1.46439,-2.83187 1.45571,-2.933169 -0.19522,-2.266094 -3.42071,1.382231 -12.87151,1.566342 -15.25748,0.297266 -3.89293,-2.070592 -3.42416,-4.098428 1.44535,-6.252487 10.19144,-4.508211 22.31857,-15.464015 31.75509,-28.688152 5.14782,-7.21393 5.53023,-9.850019 0.92354,-6.365732 -2.08721,1.578665 -5.74039,1.812445 -6.59951,0.422278 -0.32248,-0.521709 1.51816,-3.347697 4.0903,-6.280025 2.57213,-2.932328 4.57868,-5.429494 4.45899,-5.549184 -0.11969,-0.119691 -2.86287,0.605642 -6.09592,1.611902 -7.30897,2.274777 -12.24728,2.419768 -12.24728,0.359539 0,-0.808425 5.02252,-6.375161 11.16129,-12.370525 10.70027,-10.450339 14.90242,-16.336748 14.95965,-20.9559486 0.0196,-1.5628874 -0.17001,-1.5572857 -3.48055,0.1021385 -4.34994,2.1803871 -11.10537,3.3092321 -11.91967,1.9917011 -0.32752,-0.529925 0.62758,-2.3564682 2.1224,-4.0589325 8.11544,-9.242976 14.08448,-24.1453035 16.5007,-41.1960885 0.80049,-5.648428 1.94147,-13.709155 2.53563,-17.912613 2.18347,-15.447191 3.76129,-13.225818 7.8178,11.006126 4.86194,29.042631 7.49644,36.9783462 14.78049,44.5210985 3.19019,3.3034436 3.62237,4.1586437 2.4699,4.8872443 -1.80302,1.1397688 -4.35489,1.1379949 -8.34352,-0.00934 -1.75979,-0.5047174 -3.34163,-0.7756552 -3.51519,-0.6020944 -0.17356,0.1734674 1.26142,3.4222936 3.18879,7.2196246 2.58446,5.091801 5.67168,9.068482 11.76115,15.149552 5.12392,5.116822 8.06409,8.747968 7.7488,9.569651 -0.73747,1.921959 -6.80901,1.627961 -11.63875,-0.563629 -2.23845,-1.01569 -4.26937,-1.84671 -4.51314,-1.84671 -0.24386,0 0.903,1.699944 2.54852,3.777538 3.35993,4.242297 3.09608,5.5574 -0.73038,3.639642 -1.41425,-0.708807 -2.93746,-1.459255 -3.38485,-1.66764 -0.4474,-0.208385 0.97423,2.253583 3.1592,5.471133 5.49232,8.087803 18.99337,21.428083 25.32017,25.018803 2.89246,1.641499 5.77531,3.606778 6.40644,4.367215 3.14202,3.785941 -2.99759,6.006754 -11.64398,4.211767 -2.91739,-0.605735 -5.52397,-0.881621 -5.79239,-0.613204 -0.26842,0.268417 0.18504,1.448892 1.00766,2.623298 2.01486,2.876702 1.8834,4.520815 -0.36159,4.520815 -2.66513,0 -11.10976,-3.351264 -13.19118,-5.234945 -2.6937,-2.437693 -2.83486,-1.228836 -0.45234,3.873907 3.03764,6.50578 12.31954,18.673338 18.63888,24.433708 4.9876,4.54638 18.01764,13.64427 24.72415,17.26318 3.72469,2.00991 3.70751,3.0931 -0.0868,5.48327 -3.96221,2.49577 -11.22095,1.92523 -17.06582,-1.34152 -2.29578,-1.28317 -4.17414,-2.17124 -4.17414,-1.9734 0,0.19774 1.05033,1.90739 2.33406,3.79901 2.87725,4.23987 2.89256,4.83169 0.15713,6.07808 -3.73142,1.70013 -9.58375,-0.57016 -15.22648,-5.90685 -2.75195,-2.60267 -5.00357,-4.44032 -5.00357,-4.08358 0,2.98685 9.37181,15.43524 20.02279,26.59569 8.53071,8.9388 17.58911,16.14489 28.14355,22.38869 10.21525,6.04307 11.67012,7.81238 8.26099,10.04627 -3.47019,2.27365 -10.48983,2.70527 -14.78833,0.90935 -4.63993,-1.93877 -4.58205,-1.9636 -2.91758,1.25507 2.13221,4.12326 1.82458,6.44574 -0.94586,7.1411 -3.61424,0.90711 -13.29229,-4.27898 -18.62553,-9.98063 -3.95791,-4.23137 -4.3885,-4.47944 -3.81609,-2.19887 2.08497,8.3072 22.96632,31.80579 37.24293,41.91106 l 6.36247,4.50343 3.70863,-3.85961 3.70873,-3.8596 h -3.79854 c -4.68764,0 -5.4055,-1.45337 -2.8539,-5.77801 l 1.91579,-3.24706 h -3.97238 c -4.34126,0 -8.17939,-1.59257 -8.14149,-3.37832 0.0131,-0.62375 2.00888,-2.48605 4.43472,-4.13838 7.20188,-4.90554 16.95201,-14.21966 18.91691,-18.07114 2.31296,-4.53378 2.30577,-4.59932 -0.50191,-4.59932 -2.7922,0 -2.94251,-1.50313 -0.46682,-4.66812 2.46206,-3.14753 2.32622,-3.86278 -0.52759,-2.77772 -3.15322,1.19887 -6.61015,1.1534 -8.98585,-0.11801 -1.80797,-0.96761 -1.53302,-1.4235 4.64515,-7.7024 6.25977,-6.36181 11.40366,-13.01062 11.40366,-14.73997 0,-0.44189 -1.78555,-0.80983 -3.9679,-0.81767 -2.18235,-0.009 -4.5981,-0.41743 -5.36834,-0.91019 -1.55766,-0.99646 -1.66773,-0.7525 4.46823,-9.90464 4.16994,-6.21962 6.36219,-13.78039 9.58338,-33.05124 1.50201,-8.98614 2.73608,-16.653531 2.74224,-17.038651 0.009,-0.38512 0.40174,-0.700218 0.87882,-0.700218 0.94931,0 2.21615,5.721539 3.82422,17.272059 1.69948,12.20695 4.52929,25.25081 6.45013,29.73202 0.98908,2.30745 3.37608,5.94168 5.30439,8.07613 2.84625,3.15042 3.25387,4.04483 2.16601,4.75243 -1.27477,0.82906 -3.58241,0.61246 -6.85514,-0.64336 -2.43751,-0.9354 -1.80152,3.25172 1.32089,8.69606 1.53479,2.67614 5.35789,7.61016 8.4958,10.96467 7.33633,7.84254 7.06931,9.36715 -1.51994,8.67767 -3.32716,-0.26702 -6.0455,-0.21885 -6.04065,0.10718 0.009,0.32592 1.27534,2.80124 2.82338,5.50054 3.78445,6.59886 13.62924,16.8578 19.48045,20.29998 2.78369,1.63758 4.66112,3.37281 4.52014,4.17788 -0.41556,2.3743 -4.56636,3.87744 -9.32728,3.37776 -3.46926,-0.36411 -4.43472,-0.1702 -4.43472,0.89096 0,1.86267 -1.71955,1.70069 -5.93589,-0.55924 l -3.57429,-1.91561 2.14351,3.81376 c 4.61677,8.2144 13.95218,18.73476 21.61752,24.36144 11.87103,8.71379 11.42849,8.26164 9.73901,9.95113 -1.85147,1.85147 -9.94142,2.63982 -13.68759,1.33387 -2.79621,-0.97471 -2.88322,-0.92439 -2.62918,1.52106 0.24405,2.34956 0.0215,2.52218 -3.13679,2.43162 -1.93195,-0.0551 -4.71976,-1.03763 -6.45788,-2.27524 l -3.05837,-2.17777 1.78976,3.07732 c 3.12652,5.37581 13.30163,16.70441 19.31884,21.50884 3.19635,2.55215 8.64741,6.14829 12.11349,7.99136 3.4799,1.85053 6.30197,3.97686 6.30197,4.74841 0,0.76837 -1.56046,2.04912 -3.46767,2.84606 -3.32296,1.38839 -7.02963,1.3194 -12.26334,-0.22827 -2.16676,-0.64075 -2.17572,-0.61423 -0.73747,2.16704 0.80077,1.5486 1.1927,3.079 0.87088,3.40082 -1.04463,1.04454 -5.29916,0.56213 -10.31048,-1.16909 -6.17173,-2.13212 -6.29104,-1.20932 -0.78863,6.09648 8.69391,11.54314 22.29252,22.91189 32.78655,27.41019 2.29905,0.98544 4.17359,2.12175 4.16574,2.52517 -0.084,4.28618 -10.82136,7.3818 -17.19699,4.95783 -2.76082,-1.04968 -3.0396,-0.41584 -0.87116,1.98021 1.42779,1.57774 1.35702,1.747 -1.12521,2.69071 -3.17311,1.20643 -8.39954,0.45346 -12.94787,-1.86538 -1.8272,-0.93157 -3.32221,-1.34078 -3.32221,-0.90926 0,1.35749 8.77989,11.38639 15.01856,17.15498 7.35612,6.80192 16.63654,12.89709 23.60903,15.50582 3.85186,1.44114 5.25276,2.439 5.25276,3.7415 0,2.94801 -5.20627,4.99536 -12.83276,5.04652 -6.96802,0.0467 -7.56675,0.27887 -5.65301,2.19262 1.78463,1.78462 -0.27616,3.0354 -5.96912,3.62293 -3.19375,0.32966 -5.90369,0.10568 -7.21515,-0.59612 -4.36535,-2.3363 -3.00562,0.2531 3.71181,7.06856 8.67674,8.80352 16.33078,14.3613 25.58673,18.57941 4.29962,1.9594 7.03458,3.73721 6.80565,4.42398 -0.82532,2.47579 -6.66439,4.84094 -12.02433,4.87044 -4.19944,0.0233 -5.11094,0.27953 -4.33277,1.21894 0.54207,0.65428 0.75026,1.4248 0.4628,1.71227 -1.32929,1.32939 -8.03823,1.3432 -11.84405,0.0243 -2.29065,-0.79377 -4.30354,-1.30455 -4.47309,-1.13501 -0.70479,0.7048 4.69716,6.08733 9.07156,9.03889 3.35022,2.26049 4.63675,3.71162 4.46945,5.04139 -0.20045,1.59323 -1.0479,1.90907 -5.77382,2.15237 -6.54732,0.33695 -13.18464,-1.60107 -18.86295,-5.50791 l -3.97537,-2.73506 -0.28251,4.91255 -0.28261,4.91254 -3.23912,-0.26477 c -4.57952,-0.37429 -9.90865,-3.77847 -16.13359,-10.30582 l -5.36834,-5.62919 -0.15564,5.06556 c -0.0859,2.78613 -0.18999,6.43109 -0.232,8.09994 -0.36243,14.39332 3.13838,45.382 5.92525,52.44935 l 1.07805,2.73384 2.97304,-4.8345 c 1.63515,-2.65896 3.24864,-4.83449 3.58549,-4.83449 0.90272,0 1.73654,3.69977 1.75101,7.77037 l 0.0131,3.56906 3.48037,-2.86884 c 1.9143,-1.57783 3.85951,-2.86884 4.32277,-2.86884 0.46327,0 0.63011,1.88274 0.37074,4.18385 -0.55494,4.92365 0.84493,6.82124 3.84691,5.21466 1.9804,-1.05985 3.76951,0.23444 1.91141,1.38279 -0.5851,0.3616 1.9481,2.25667 5.81994,4.3535 32.95937,17.85006 43.73433,24.87297 43.73433,28.50505 0,1.97499 -9.39861,5.81592 -18.92989,7.7361 -11.17297,2.25097 -45.02404,5.42539 -59.49457,5.57916 -1.28373,0.014 3.54777,2.06405 10.73668,4.55636 17.51769,6.07323 24.24586,8.80306 24.26135,9.84367 0.009,0.47653 -1.2475,1.23976 -2.78798,1.69603 -2.95045,0.87387 -30.35849,1.71752 -35.94455,1.10625 z m -32.07,-85.36091 c -0.30809,-1.54048 -0.16133,-2.80088 0.32612,-2.80088 0.48744,0 1.53814,1.2604 2.33471,2.80088 0.79657,1.54048 1.79032,2.80087 2.20821,2.80087 3.17348,0 7.53491,-28.39068 7.5801,-49.34234 l 0.0149,-6.86251 -5.36834,4.90676 c -2.95259,2.69873 -6.72023,5.47169 -8.37266,6.1622 -3.38504,1.41463 -7.37927,1.64859 -8.10479,0.47465 -0.26543,-0.42937 0.33685,-3.47532 1.33826,-6.76877 2.32696,-7.65255 2.31781,-9.59197 -0.0271,-5.746 -1.84773,3.03064 -6.87138,6.75011 -9.12571,6.75683 -0.8243,0 -0.9903,-0.77155 -0.54542,-2.54375 l 0.63925,-2.5473 -3.09469,2.60406 c -7.31289,6.15343 -19.18701,10.32346 -23.23175,8.15876 -3.10887,-1.66381 -2.42201,-3.5699 3.61005,-10.01826 3.08096,-3.29354 5.60174,-6.2888 5.60174,-6.65609 0,-0.36738 -5.01935,-0.66707 -11.1541,-0.66604 -16.91868,0 -16.86163,-1.29074 0.51965,-11.77422 5.34556,-3.22418 10.66041,-6.87587 11.81073,-8.11479 l 2.09141,-2.25274 -2.31203,-1.53217 c -1.27159,-0.84269 -3.63777,-2.68753 -5.25817,-4.09964 -1.6204,-1.41211 -3.18487,-2.56747 -3.47654,-2.56747 -0.29176,0 -0.65634,2.41576 -0.81038,5.36834 -0.24826,4.76037 -0.51854,5.40224 -2.38663,5.66748 -2.62292,0.37242 -11.10957,-3.48466 -14.23478,-6.46965 -1.28533,-1.22762 -3.5208,-3.70256 -4.96773,-5.49979 l -2.63076,-3.26769 0.43236,23.80743 c 0.55578,30.60421 2.38485,41.35293 8.78774,51.64381 2.55626,4.10842 4.14818,4.07425 5.00348,-0.10746 0.64037,-3.1311 3.23127,-7.656 4.38374,-7.656 0.3812,0 1.4656,2.20569 2.40996,4.90153 0.94436,2.69584 2.57802,6.31606 3.6304,8.04495 l 1.91347,3.14342 1.95706,-4.02925 c 1.07638,-2.21605 2.41221,-4.16742 2.96846,-4.33631 0.55625,-0.16898 1.78051,2.33033 2.72058,5.55385 2.39596,8.21599 3.33799,9.02685 6.34108,5.45788 3.00105,-3.56654 3.4645,-3.57504 3.4645,-0.0635 0,1.54048 0.18607,2.80088 0.41341,2.80088 0.22743,0 1.97872,-0.92354 3.89181,-2.0523 3.32492,-1.96173 3.45581,-1.972 2.96809,-0.2334 -0.28065,1.00038 -0.66652,2.44087 -0.85754,3.20112 -0.25217,1.00374 0.93101,1.62693 4.32091,2.27608 2.56747,0.49155 4.87884,1.19597 5.13643,1.56522 0.3657,0.52442 3.98686,1.81907 7.3508,2.62806 0.1926,0.0467 0.098,-1.17618 -0.21007,-2.71666 z M 279.41917,387.36094 c 2.25088,-3.21363 1.72796,-3.84943 -1.35851,-1.65168 -1.54646,1.10121 -2.57204,2.39017 -2.27889,2.86446 0.86771,1.40398 2.09002,0.99636 3.6374,-1.21278 z m 2.387,-75.55282 c 0,-0.55653 -8.03001,2.45805 -9.17846,3.44573 -0.17001,0.1462 0.18476,1.1886 0.78835,2.31641 1.08805,2.03297 1.12875,2.02009 4.74375,-1.50995 2.00552,-1.95827 3.64636,-3.87183 3.64636,-4.25219 z m -17.73886,-11.53334 c 0.96854,-1.16703 0.84474,-1.40044 -0.74298,-1.40044 -1.04781,0 -2.67474,-0.2813 -3.61537,-0.62515 -1.61564,-0.59052 -1.61181,-0.51303 0.0682,1.40043 2.10504,2.39746 2.74205,2.49035 4.29,0.62516 z m 21.74645,-18.93942 c 6.94401,-8.21328 16.53215,-20.99058 16.53215,-22.03092 0,-0.30996 -1.8721,0.86538 -4.16023,2.61191 -4.12046,3.14528 -7.47702,4.54666 -13.34523,5.57168 -3.83551,0.66997 -3.88388,-0.56596 -0.21202,-5.41866 1.52367,-2.01364 2.64374,-3.78781 2.48904,-3.9426 -0.1548,-0.15471 -1.89797,0.16506 -3.87389,0.71067 -2.03605,0.56214 -7.81565,0.79844 -13.33981,0.54524 l -9.74732,-0.44674 3.37486,3.45618 c 1.85614,1.90086 3.08619,3.74477 2.73347,4.09759 -1.17796,1.17795 -10.6169,0.65942 -14.04115,-0.77127 -1.8595,-0.77696 -3.52126,-1.27244 -3.69268,-1.10102 -0.60088,0.60088 9.86263,12.63082 14.08214,16.19026 4.90751,4.13978 14.54186,9.76384 15.60283,9.10807 0.39576,-0.24452 3.81479,-4.10571 7.59784,-8.58039 z m 114.54004,-9.3818 c 11.50421,-10.75778 14.49863,-14.29071 15.49471,-18.28084 l 0.6794,-2.7217 -3.40754,2.59912 c -1.87425,1.42947 -3.40764,3.2 -3.40764,3.93438 0,1.97303 -7.3002,4.9344 -12.22217,4.95792 -2.3575,0.0112 -6.32914,-0.59425 -8.82583,-1.34563 -5.09358,-1.53292 -6.0048,-1.24107 -4.35788,1.39596 1.6049,2.56989 1.47662,2.77109 -1.76726,2.77109 -1.67287,0 -4.64478,-1.17833 -7.02711,-2.78612 -3.1663,-2.13688 -3.90909,-2.37664 -3.18786,-1.02895 2.68566,5.01823 15.77928,20.82636 16.92082,20.42873 0.4346,-0.15134 5.43332,-4.61715 11.10836,-9.92396 z m 148.9385,-4.44219 c 2.24266,-2.94035 2.39027,-3.52238 1.1956,-4.71695 -1.08823,-1.08833 -1.83606,-1.14714 -3.71246,-0.29222 -1.94465,0.8861 -3.01047,0.73355 -6.18256,-0.88471 -6.19702,-3.16153 -6.18853,-2.30166 0.0355,3.61388 3.22297,3.06303 5.91517,5.58382 5.98257,5.60174 0.0672,0.0177 1.27384,-1.4769 2.681,-3.32174 z M -363.92537,358.03 c 0.32733,-12.7661 0.69704,-32.87413 0.82159,-44.68448 l 0.22631,-21.47336 -3.19645,-7.70241 c -1.75801,-4.23632 -3.49101,-7.7024 -3.85111,-7.7024 -0.36,0 -0.87434,0.84026 -1.14285,1.86725 -0.28419,1.08665 -1.27355,1.86725 -2.36664,1.86725 -3.59418,0 -4.85168,0.99636 -4.25546,3.37178 1.7976,7.1624 -14.01147,13.47333 -21.17759,8.45397 -1.54926,-1.08524 -2.5572,-1.2194 -3.87221,-0.51573 -2.83589,1.51779 -7.1806,0.10718 -7.84693,-2.54758 -0.3164,-1.26077 -1.78042,-2.91543 -3.25331,-3.67708 -3.0564,-1.58053 -4.30485,-5.14315 -3.05482,-8.71753 0.73253,-2.0945 1.46925,-2.47626 5.24987,-2.72012 l 4.39774,-0.28382 -3.24845,-3.24845 c -5.8936,-5.8936 -3.7022,-9.60158 6.5546,-11.09025 2.56747,-0.3727 7.18891,-1.73859 10.26987,-3.03549 4.71341,-1.98405 6.03617,-2.19449 8.3411,-1.32715 1.50659,0.5669 2.90114,0.86893 3.09888,0.67109 0.69387,-0.69378 -2.03726,-4.1747 -4.17162,-5.31699 -1.89423,-1.01373 -2.46654,-0.85772 -4.71219,1.28457 -1.40594,1.34115 -3.69584,2.86903 -5.08872,3.39513 -3.40222,1.28513 -8.20413,-0.3516 -8.20413,-2.79639 0,-2.28561 -1.14388,-2.25545 -3.26292,0.0859 -2.26432,2.50202 -7.66385,3.95353 -10.01873,2.69323 -1.34666,-0.72076 -2.2111,-0.6232 -3.36786,0.37989 -2.68809,2.33107 -6.70539,2.8103 -8.66814,1.03408 -0.96659,-0.87481 -1.75746,-2.36562 -1.75746,-3.31306 0,-1.31221 -0.70535,-1.72254 -2.9608,-1.72254 -3.26713,0 -6.50279,-2.31623 -5.79874,-4.15089 0.24787,-0.64607 -0.62068,-1.87668 -1.93027,-2.73468 -1.76894,-1.1591 -2.38093,-2.36506 -2.38093,-4.69193 0,-4.39803 1.80357,-5.54162 7.93721,-5.03298 2.82346,0.23415 5.13353,0.26375 5.13353,0.0663 0,-0.19783 -1.04351,-1.89535 -2.31884,-3.77231 -2.0565,-3.02634 -2.17236,-3.62815 -1.02344,-5.31876 0.94539,-1.3911 2.12679,-1.83541 4.3716,-1.64421 5.05633,0.43087 6.46498,-0.65998 2.83682,-2.19682 -2.77819,-1.17683 -3.06369,-1.62161 -2.50146,-3.89816 0.51172,-2.0719 0.40491,-2.34368 -0.55168,-1.40268 -1.56699,1.54132 -8.50635,1.48942 -12.27987,-0.0924 -5.50138,-2.30503 -9.07287,-6.04168 -9.07287,-9.49198 0,-2.2168 0.46812,-3.20635 1.62199,-3.42855 1.19905,-0.23098 0.72019,-0.84437 -1.8371,-2.35329 -3.86119,-2.27814 -5.18581,-5.56104 -3.50837,-8.69531 0.927,-1.73225 1.64841,-1.97602 4.51407,-1.52583 l 3.41072,0.5359 -2.94008,-2.529 c -3.77184,-3.24453 -4.64151,-5.20635 -4.82329,-10.88092 -0.31033,-9.68589 5.47478,-12.38528 12.61542,-5.88651 1.89302,1.72301 2.16797,1.74999 3.56775,0.35021 2.01663,-2.01673 3.1746,-1.91347 5.75785,0.5133 l 2.16078,2.02998 v -2.31007 c 0,-5.16845 3.98611,-5.91227 8.84096,-1.64971 2.65933,2.335 3.80442,2.77529 5.86764,2.2562 l 2.56345,-0.64486 -3.03428,-1.27748 c -3.7034,-1.55924 -3.79257,-2.51341 -0.46681,-4.9947 l 2.56747,-1.91552 -3.53209,-0.0299 c -8.98651,-0.0756 -21.66541,-11.33682 -17.4781,-15.52413 0.61768,-0.61768 0.30398,-2.15797 -0.93363,-4.58549 -1.02493,-2.01047 -1.86361,-4.56543 -1.86361,-5.67775 0,-2.32379 2.25331,-4.56682 3.69361,-3.6767 1.35544,0.83774 1.21969,-0.0598 -0.51685,-3.41819 -1.15163,-2.22707 -1.26255,-3.38597 -0.4868,-5.08853 1.2786,-2.8062 2.43116,-2.77511 5.91937,0.16002 2.63842,2.22016 2.88387,2.26413 4.01318,0.71973 1.12642,-1.54048 1.32865,-1.49791 3.18086,0.6695 l 1.97798,2.31465 -0.55289,-3.2928 c -0.65242,-3.88556 2.22669,-8.37751 5.36955,-8.37751 2.84494,0 7.50886,3.20476 9.44119,6.48738 0.93297,1.58502 2.05929,2.65747 2.50295,2.38327 0.44357,-0.27412 1.08599,-0.0467 1.42751,0.50621 0.3995,0.64644 1.06891,0.4022 1.87705,-0.685 1.48129,-1.99254 3.97164,-0.94268 5.66113,2.38643 1.64467,3.24071 2.44516,3.60258 1.73822,0.78593 -0.84362,-3.36105 1.7568,-6.5673 4.62611,-5.70389 1.62021,0.48745 1.7414,0.37308 0.7273,-0.68705 -0.75512,-0.78947 -3.28506,-1.27197 -6.66973,-1.27197 -7.06492,0 -9.69727,-2.05593 -9.20759,-7.19134 0.29391,-3.08198 0.0271,-3.62041 -2.26077,-4.56822 -3.61294,-1.49651 -8.18714,-6.97614 -8.18714,-9.80763 0,-4.173865 1.70835,-6.239882 4.6698,-5.647591 1.93531,0.386987 2.79005,0.109607 3.23501,-1.049767 0.33256,-0.866684 0.15162,-1.726832 -0.40202,-1.91141 -1.18887,-0.396324 -3.67922,-5.003671 -4.78109,-8.845461 -0.65241,-2.274963 -0.48408,-2.796579 1.03035,-3.192622 1.64664,-0.430588 1.68547,-0.651484 0.42956,-2.444603 -0.75941,-1.084218 -1.38073,-3.567286 -1.38073,-5.518001 0,-2.854463 0.44487,-3.749529 2.27907,-4.585216 1.84671,-0.841383 3.00235,-0.680519 6.09208,0.848197 3.615,1.788545 3.85914,1.800682 4.69725,0.23462 0.48624,-0.908603 1.54945,-1.907301 2.36263,-2.219319 2.21988,-0.851839 7.32448,1.633657 9.58543,4.667096 1.55169,2.081889 2.00608,2.310254 2.02905,1.019611 0.0392,-2.179173 2.19336,-2.944838 4.6248,-1.643552 2.98723,1.598738 2.29196,-0.19186 -0.89124,-2.295036 -3.78183,-2.498846 -4.58727,-5.740857 -1.8946,-7.626872 1.8159,-1.27197 1.89124,-1.60294 0.67604,-2.970793 -2.01327,-2.26628 -3.75457,-8.944963 -3.05688,-11.724737 0.71068,-2.83131 3.64814,-3.242291 6.89912,-0.965274 1.78947,1.253391 2.33051,1.274397 3.93233,0.152461 1.82925,-1.281307 1.82374,-1.318838 -0.36411,-2.48979 -2.989,-1.599672 -4.66579,-4.977153 -3.92879,-7.913588 0.61274,-2.441055 3.6008,-3.363476 4.76961,-1.472326 0.31734,0.513493 1.0028,0.933624 1.5233,0.933624 0.5205,0 0.0756,-1.106998 -0.98871,-2.460007 -2.2998,-2.923738 -2.48717,-6.60614 -0.48166,-9.46938 1.81366,-2.589407 3.89695,-2.636649 6.54555,-0.148446 l 2.0508,1.926627 -0.12333,-5.092828 c -0.13388,-5.527244 1.86632,-9.030203 5.15631,-9.030203 1.3462,0 1.72254,-0.7139426 1.72254,-3.2676857 0,-3.673439 2.65271,-7.00218384 5.58028,-7.00218384 2.56942,0 4.90349,3.94213614 4.53162,7.65366704 -0.28419,2.8371915 -0.11455,3.0604215 2.12792,2.7999395 2.6894,-0.312484 8.29992,3.721614 8.29992,5.967822 0,0.724586 0.84026,1.317437 1.86725,1.317437 2.72684,0 2.42453,4.062107 -0.59696,8.023476 -3.02924,3.971545 -2.46253,4.811247 1.58548,2.349559 2.26283,-1.376162 3.51351,-1.625347 4.77334,-0.951083 3.17666,1.70013 1.89125,6.379456 -3.24257,11.804001 -3.27907,3.464774 -2.98349,4.578775 0.76212,2.872203 2.33817,-1.065359 2.72506,-0.974984 3.99181,0.932971 l 1.40277,2.112699 2.10018,-1.973029 c 4.86045,-4.566077 11.4989,0.508545 8.42961,6.44397 -1.31921,2.551035 -1.29167,2.757366 0.42881,3.20728 4.36806,1.14229 -0.55485,11.707931 -5.51109,11.828089 -1.02942,0.02521 -1.05425,0.304735 -0.12623,1.422937 0.63533,0.765572 0.96966,2.656162 0.74289,4.20131 -0.49072,3.34331 -0.16908,3.469536 2.00346,0.786486 2.09076,-2.582032 4.48775,-1.75092 5.79902,2.010653 0.53936,1.547296 1.131,2.813198 1.31473,2.813198 0.18365,0 1.86539,-1.039218 3.73702,-2.309414 4.24678,-2.881912 9.15214,-3.864738 12.24841,-2.454032 2.09589,0.955005 2.31819,1.534132 2.02139,5.265549 -0.27477,3.454971 -0.0859,4.087035 1.07479,3.592494 7.89249,-3.363756 11.17903,2.05136 5.78772,9.536343 -1.44245,2.002625 -2.89974,4.376365 -3.23837,5.274979 -0.33862,0.898613 -1.25908,1.633842 -2.04547,1.633842 -2.86885,0 -1.33369,2.495392 2.05257,3.336401 6.79389,1.687428 6.64629,9.875318 -0.22482,12.472848 -2.04837,0.77435 -4.37104,2.1971 -5.16154,3.16172 -0.88209,1.07638 -3.13119,1.94474 -5.82246,2.24808 -4.23221,0.47708 -4.37748,0.59481 -4.16443,3.37608 0.19121,2.49679 -0.13323,2.94847 -2.42817,3.38112 l -2.64888,0.4993 2.36039,2.21166 2.36048,2.21176 2.515,-1.97835 c 3.37982,-2.65859 6.52772,-2.52844 8.41233,0.34777 1.6415,2.50529 3.18702,2.32622 3.18702,-0.36915 0,-2.73758 3.31652,-5.07472 6.34239,-4.46964 2.21531,0.4431 2.92113,0.0868 4.23408,-2.13557 2.08432,-3.52845 6.86989,-7.48879 9.04925,-7.48879 0.95893,0 2.87127,0.97004 4.24958,2.15555 1.92626,1.65691 2.6107,3.24547 2.95866,6.86607 0.25609,2.66549 -0.0112,5.57775 -0.61647,6.70818 -0.95594,1.78612 -0.84363,1.9735 1.06125,1.76997 1.76641,-0.18878 2.17926,0.27514 2.41612,2.71451 0.21558,2.2196 -0.43889,3.76746 -2.66419,6.30197 l -2.94978,3.36002 h 3.62339 c 4.88389,0 7.77345,2.14182 7.77345,5.76177 0,2.8539 -3.65868,10.7885 -6.59895,14.31115 -0.85725,1.02699 -1.83877,3.05034 -2.18113,4.49625 -0.43703,1.84531 -1.6063,3.03997 -3.92244,4.00777 -2.96566,1.2391 -3.23996,1.65186 -2.70779,4.07489 0.46383,2.11168 0.18785,2.91245 -1.27356,3.69464 -2.64477,1.41537 -10.42774,1.17832 -13.19211,-0.40193 -3.20691,-1.83326 -3.54012,-1.73822 -3.04203,0.86743 0.24778,1.29625 0.92336,2.07993 1.5768,1.82916 0.6288,-0.24134 2.29429,0 3.70098,0.53375 1.90543,0.7244 2.41678,1.41659 2.00505,2.71395 -0.46084,1.45188 -0.16077,1.66652 1.8046,1.29083 2.04053,-0.39006 2.35722,-0.11847 2.35722,2.02158 0,1.35973 -0.6302,2.71405 -1.40044,3.00963 -0.77024,0.29559 -1.40043,0.91253 -1.40043,1.37112 0,0.45851 0.63019,0.83373 1.40043,0.83373 0.77024,0 1.41538,0.52516 1.43358,1.16703 0.0187,0.64187 0.57166,0.19644 1.22996,-0.98983 1.61629,-2.91272 6.12579,-5.76532 9.1259,-5.77278 3.49306,-0.009 4.88631,2.11316 4.29281,6.53817 -0.46663,3.47906 0.35748,4.89396 1.64093,2.8173 0.30875,-0.49958 2.25891,-1.36533 4.3337,-1.92401 7.5646,-2.03698 10.74359,3.61817 5.98005,10.63781 -2.18701,3.22259 -2.2111,3.39793 -0.46681,3.39793 3.81573,0 1.70153,5.29271 -3.53591,8.8516 l -3.46104,2.35189 h 2.9509 c 3.3731,0 5.88511,2.06088 5.88511,4.82815 0,2.24695 -5.70464,8.24259 -7.84245,8.24259 -0.96724,0 -1.4938,0.81515 -1.4938,2.3125 0,4.42043 -9.98306,7.71631 -14.46903,4.77698 -3.02,-1.97881 -3.5432,-1.87574 -2.29709,0.45244 0.5711,1.06713 0.80908,2.53759 0.5289,3.26768 -0.80385,2.09487 -6.19862,1.62049 -8.79297,-0.77313 l -2.27683,-2.10066 0.75287,2.33406 c 0.41397,1.28374 0.76632,3.05987 0.78285,3.947 0.0243,1.31463 0.64028,1.52068 3.33098,1.11409 2.35722,-0.35609 4.50222,0.11708 7.50233,1.65485 4.73506,2.42705 5.7332,5.05707 3.31819,8.74283 -1.46625,2.23771 -1.44347,2.2801 1.22501,2.2801 1.49539,0 3.65692,0.7595 4.80322,1.68771 1.69537,1.3728 1.96257,2.24192 1.43218,4.65683 -0.82579,3.7598 -4.80238,7.02263 -7.67897,6.30066 -1.55196,-0.38951 -1.98404,-0.18673 -1.62058,0.76043 0.27261,0.7104 -0.18813,1.97537 -1.02382,2.81105 -2.44441,2.44442 -6.02356,2.87099 -10.41943,1.24172 -3.8457,-1.42536 -4.04017,-1.41444 -4.04017,0.22529 0,0.94744 0.6302,1.96444 1.40044,2.26002 2.02727,0.7779 1.71843,4.68698 -0.53114,6.72285 -1.87397,1.69593 -2.06182,1.6977 -6.30197,0.0588 -2.40371,-0.92904 -6.06323,-1.7933 -8.13233,-1.92055 -6.17873,-0.3799 -9.19042,-2.33126 -9.84872,-6.38142 -0.53496,-3.29093 -1.45318,-5.22326 -2.06303,-4.34126 -0.14797,0.21399 -2.09785,2.81544 -4.33323,5.78109 -2.23528,2.96566 -3.89984,5.48645 -3.69892,5.60175 0.20091,0.1153 1.62562,0.85604 3.1661,1.64589 1.66904,0.85585 2.80088,2.17478 2.80088,3.26376 0,1.53628 -0.89283,1.93513 -5.60175,2.5023 -4.84906,0.58408 -5.99527,1.12231 -8.53127,4.00619 -1.61125,1.83233 -4.92189,7.20226 -7.35696,11.93312 l -4.42744,8.60167 0.56727,29.02648 0.56718,29.02648 -10.01546,1.59761 c -5.50857,0.87873 -10.80894,1.8329 -11.7787,2.12055 -1.70629,0.50593 -1.74392,-0.22622 -1.16787,-22.68839 z m 25.89772,-65.45763 c 3.04212,-3.25452 15.44411,-19.20652 18.54785,-23.85728 1.35534,-2.03082 1.34918,-2.03408 -0.63076,-0.33507 -2.80899,2.41033 -5.41539,1.67837 -5.36918,-1.50799 0.0327,-2.24686 -0.31127,-2.5418 -2.96267,-2.5418 -4.24211,0 -8.74451,-3.96286 -8.74451,-7.69652 0,-2.1393 0.97255,-3.78762 3.84942,-6.52426 2.82002,-2.68268 3.57224,-3.93887 2.8132,-4.6979 -1.81469,-1.81478 -5.27358,2.61853 -9.45818,12.12255 l -3.93961,8.94767 0.67305,14.7959 c 0.37018,8.13765 0.96014,14.7958 1.3109,14.7958 0.35076,0 2.11046,-1.57549 3.91049,-3.5011 z m -24.36714,-46.56433 c 0,-16.1911 -0.60704,-19.95641 -3.21755,-19.95641 -0.70647,0 -2.37224,-1.2926 -3.70163,-2.87248 -2.14715,-2.55169 -2.41706,-2.65598 -2.41706,-0.93363 0,1.06639 0.3151,1.94045 0.70022,1.94231 0.38512,0 1.46541,1.86427 2.40053,4.13848 1.29606,3.15192 1.46281,4.57887 0.70125,6.0019 -1.09402,2.04408 -4.17284,3.38495 -5.66085,2.46524 -0.51816,-0.32014 -0.94202,-0.16199 -0.94202,0.3515 0,0.5135 0.42013,1.19327 0.93362,1.51061 1.64281,1.01532 0.99926,3.26769 -0.93362,3.26769 -1.02699,0 -1.86725,0.19727 -1.86725,0.43843 0,1.97723 12.36987,21.00132 13.28697,20.43451 0.39455,-0.24386 0.71739,-7.79856 0.71739,-16.78815 z m -20.22118,-1.66736 c -1.68435,-3.53209 -4.51987,-4.30121 -4.51987,-1.22594 0,1.37457 5.04018,5.54834 5.87521,4.86511 0.15031,-0.12305 -0.45953,-1.76063 -1.35534,-3.63917 z m 42.18339,-2.65084 c 0.89395,-2.18235 2.57951,-6.35976 3.7458,-9.28312 l 2.12035,-5.31522 -2.01046,-0.287 c -1.24835,-0.17823 -1.96127,-0.90608 -1.88079,-1.92037 0.071,-0.89833 -0.43899,-1.63338 -1.13417,-1.63338 -0.69517,0 -1.76147,-0.9297 -2.36963,-2.06611 l -1.10569,-2.06601 -0.75026,2.02811 c -0.89161,2.41034 0.0728,24.511 1.06993,24.511 0.37933,0 1.42107,-1.78555 2.31492,-3.9679 z m 13.21695,-7.83199 c 4.31353,-4.63209 5.45806,-7.70091 2.22726,-5.97184 -0.99329,0.53161 -2.59361,0.96649 -3.55627,0.96649 -1.27907,0 -2.15247,1.25713 -3.24323,4.66812 -1.89759,5.93375 -0.72047,6.02058 4.57224,0.33723 z m -35.76276,-43.98417 c -1.41603,-4.40671 -2.50763,-6.76878 -3.12783,-6.76878 -0.37625,0 -1.77109,1.00748 -3.09973,2.23883 -2.24957,2.08479 -2.30708,2.33593 -0.83662,3.64935 0.86855,0.77585 2.62955,1.60173 3.91329,1.83532 1.28373,0.23369 2.63599,0.48203 3.00496,0.55196 0.36906,0.07 0.4347,-0.60807 0.14593,-1.50668 z m 293.21648,189.95954 c -1.059132,-0.62367 -3.387582,-2.27263 -5.174325,-3.66429 -8.998366,-7.00863 -15.207408,-8.2876 -76.459385,-15.7495 l -32.21007,-3.92393 -20.07293,2.06508 c -33.00297,3.39522 -53.93007,6.66487 -63.01965,9.84619 -1.95828,0.68538 -1.40427,0.14135 8.69073,-8.53491 5.30075,-4.55572 14.56231,-15.18186 13.85172,-15.89253 -0.23583,-0.23574 -1.75642,0.25786 -3.37925,1.0971 -3.81031,1.97032 -12.27968,2.31137 -14.37184,0.57866 -1.4418,-1.19411 -1.44815,-1.43638 -0.0766,-2.95212 1.41678,-1.5655 1.21184,-1.62563 -3.94736,-1.15779 -6.05773,0.54935 -12.43784,-1.41369 -12.43784,-3.82683 0,-0.77416 2.81039,-2.88005 6.30196,-4.72227 3.46608,-1.82879 9.03842,-5.38188 12.38304,-7.89567 6.17872,-4.64394 22.923,-21.34069 22.16322,-22.10038 -0.22865,-0.22865 -1.93718,0.22005 -3.79677,0.99701 -3.83692,1.60313 -12.77731,1.91534 -12.77731,0.44618 0,-0.53151 0.69957,-2.03408 1.55449,-3.33882 l 1.55448,-2.37244 -3.65514,0.75792 c -5.17125,1.07236 -8.82294,0.86388 -12.04628,-0.68762 -4.79052,-2.30567 -4.1044,-4.20327 2.62283,-7.25351 11.4553,-5.19413 23.85047,-15.03481 33.46316,-26.56675 5.1974,-6.23521 5.67504,-7.83489 1.73047,-5.79501 -1.5317,0.79199 -4.67437,1.69901 -6.98379,2.0156 -5.29654,0.72599 -6.57626,-1.28383 -3.18692,-5.00516 1.99767,-2.19327 2.03268,-2.36702 0.3515,-1.74289 -6.06585,2.2519 -15.05376,1.17347 -16.07608,-1.92896 -0.19354,-0.58734 3.84206,-3.81573 8.96784,-7.17425 10.43932,-6.83992 18.17282,-14.15254 24.31345,-22.99041 3.79789,-5.46591 3.94989,-5.89603 1.86725,-5.28254 -4.95456,1.45963 -9.03412,1.70657 -9.7251,0.58855 -0.39483,-0.63888 0.2223,-2.37355 1.42154,-3.99563 1.90366,-2.57484 1.93857,-2.79284 0.34338,-2.14211 -3.93196,1.60369 -9.25595,1.54795 -12.51271,-0.13117 -1.79723,-0.92672 -3.26769,-2.18422 -3.26769,-2.79453 0,-0.6104 2.69622,-2.85241 5.99163,-4.98228 6.08312,-3.93168 21.25835,-18.3489 23.26975,-22.1073 1.08217,-2.02214 1.01999,-2.04828 -3.57671,-1.50388 -2.57298,0.30473 -4.67812,0.23004 -4.67812,-0.166 0,-0.39604 0.87668,-2.13847 1.9481,-3.87211 l 1.9482,-3.1522 -2.47579,0.94128 c -5.07341,1.92896 -12.624,0.63823 -12.624,-2.15798 0,-0.6414 1.16264,-1.85306 2.58362,-2.69239 7.41737,-4.38159 19.82337,-18.39632 19.82337,-22.39401 0,-1.91757 0.21893,-1.91215 -7.93581,-0.19718 -1.02699,0.21595 -2.49745,-0.0187 -3.26769,-0.52049 -1.14163,-0.74438 -0.15694,-2.16937 5.32895,-7.71165 3.70107,-3.73926 7.38291,-8.37405 8.18172,-10.29965 l 1.45244,-3.50109 h -4.68073 c -5.2211,0 -6.03513,-1.28747 -2.71246,-4.29001 5.08835,-4.59819 9.10182,-17.02707 11.99941,-37.160143 2.71078,-18.835314 3.10188,-18.653818 6.15922,2.859692 3.18347,22.401131 4.79957,27.545871 10.79923,34.379061 1.79238,2.04147 2.66513,3.84887 2.30792,4.77979 -0.55933,1.45757 -1.82029,1.42424 -7.27396,-0.19233 -1.36543,-0.40482 -1.4671,-0.0682 -0.74288,2.45702 1.50285,5.24015 5.76914,11.50169 12.73902,18.69704 5.28394,5.4548 6.58551,7.31122 5.72751,8.16922 -1.56485,1.56475 -6.84515,1.37906 -10.20629,-0.35898 -1.5627,-0.80814 -3.04156,-1.26898 -3.28645,-1.02409 -1.92896,1.92896 11.94815,18.60153 19.17123,23.03307 2.09235,1.28374 3.81554,3.0214 3.82935,3.86157 0.0411,2.48493 -6.11132,4.84952 -10.90725,4.19216 -3.80919,-0.52208 -4.08013,-0.42303 -3.53573,1.29214 0.97937,3.08563 -3.20289,1.89647 -7.83218,-2.22698 l -2.22734,-1.98395 1.06227,2.04286 c 0.58417,1.12353 5.15762,6.20375 10.16316,11.2893 6.62257,6.72844 11.18165,10.42784 16.74175,13.58498 8.42231,4.78221 9.36346,5.69969 7.79059,7.59485 -2.23874,2.69752 -9.57418,2.71554 -16.11581,0.0392 -1.45263,-0.59425 -1.51126,-0.3559 -0.5739,2.33304 0.83317,2.39008 0.78285,3.16722 -0.24928,3.84812 -1.82271,1.20241 -7.27863,0.0663 -10.41841,-2.16937 -5.52033,-3.93084 -3.36384,-0.56587 4.86755,7.59531 8.79325,8.71819 18.62821,16.24077 26.475,20.25022 5.445,2.78221 6.3969,4.68792 3.50947,7.02609 -2.33433,1.89022 -7.8202,2.27188 -11.66178,0.81132 -2.49825,-0.94987 -3.13803,-0.20615 -1.35584,1.57605 2.00959,2.00953 -0.18269,3.29906 -4.84691,2.85092 -2.90189,-0.27888 -6.07902,-1.46019 -8.95047,-3.3281 -2.44843,-1.59257 -4.61117,-2.73617 -4.80602,-2.54132 -0.19494,0.19494 1.03791,2.37962 2.73972,4.85475 4.58876,6.67411 16.21361,18.01503 24.09061,23.50232 6.12155,4.26442 7.31151,4.75766 10.17954,4.21961 2.98255,-0.55952 3.20502,-0.44618 2.72519,1.38877 -0.84702,3.23902 1.36947,2.38559 7.32665,-2.82076 8.47015,-7.40271 9.48526,-9.10266 5.04679,-8.45117 -3.46047,0.50789 -3.85797,-1.75018 -0.70021,-3.97771 1.99247,-1.40548 1.83173,-1.45057 -3.12108,-0.87527 -5.51233,0.64037 -9.24945,-0.50491 -9.24945,-2.83458 0,-0.70713 2.62582,-3.17031 5.83515,-5.47384 3.20934,-2.30353 6.94772,-5.38636 8.30752,-6.85075 2.85809,-3.07788 7.3307,-9.58244 7.3307,-10.66115 0,-0.40473 -2.31073,-0.49744 -5.13494,-0.20587 -6.06408,0.62581 -6.58035,-0.40108 -1.9697,-3.91777 4.03998,-3.08142 8.04178,-9.11619 8.68867,-13.10248 l 0.50349,-3.10262 -3.7236,0.49939 c -4.75261,0.63748 -5.545,-0.67053 -2.55722,-4.22129 5.03543,-5.98434 7.61072,-13.91175 10.74337,-33.07103 0.65068,-3.97958 1.52757,-7.23559 1.94862,-7.23559 1.04652,0 2.39685,5.48262 3.64189,14.78684 1.45074,10.84134 4.148997,18.93866 7.985941,23.96539 3.855384,5.05082 3.457931,6.48869 -1.57129,5.68447 -1.989488,-0.31809 -3.617241,-0.1955 -3.617241,0.27243 0,1.89134 6.974938,11.09323 11.280235,14.88179 2.525259,2.22221 4.591379,4.5854 4.591379,5.25163 0,1.60901 -4.881923,2.51556 -9.537516,1.77109 -3.472495,-0.55523 -3.67413,-0.47008 -2.773434,1.17133 2.384486,4.34536 10.465352,13.25196 15.484965,17.06721 l 5.490413,4.17312 -2.10158,1.70181 c -1.349825,1.09299 -3.631276,1.70171 -6.377906,1.70171 -3.932763,0 -4.130729,0.10747 -2.464041,1.33761 1.425271,1.05191 1.569983,1.58333 0.677643,2.48839 -0.898576,0.9114 -1.952862,0.82943 -5.067172,-0.3939 -2.16289,-0.8496 -4.132922,-1.34442 -4.377849,-1.09943 -0.244927,0.24489 3.295694,4.23622 7.868046,8.86962 7.104583,7.19936 9.380947,8.88623 15.65565,11.60168 9.071759,3.92589 10.104058,4.84318 7.595717,6.74964 -1.397075,1.0619 -3.460115,1.31211 -8.193106,0.99375 -5.956496,-0.40062 -6.291845,-0.31827 -5.743135,1.41061 0.539691,1.70032 0.196453,1.81198 -4.645501,1.51089 -2.875526,-0.17889 -5.227662,0.0411 -5.226962,0.48819 0.0028,2.03465 15.079436,15.56473 21.474643,19.27234 9.092915,5.27162 10.523582,6.49233 9.31521,7.94841 -1.815442,2.18739 -9.267464,3.64077 -13.236358,2.58148 -3.00812,-0.80292 -3.566483,-0.74802 -3.136867,0.30884 0.287454,0.70703 0.756852,1.86155 1.043111,2.5656 0.712645,1.75251 -1.903978,2.59221 -4.729882,1.51779 -1.279289,-0.48642 -2.325967,-0.63757 -2.325967,-0.33601 0,0.30166 2.835894,3.48625 6.301975,7.07697 7.323267,7.58654 15.572073,13.73996 22.941479,17.1138 3.606415,1.65102 5.048678,2.79378 4.693695,3.71882 -0.695634,1.81281 -6.214999,3.22763 -12.616087,3.23388 l -5.287237,0.009 1.028957,2.726 c 1.749052,4.63376 -1.841817,7.15147 -6.384535,4.47654 z m -76.96559,-36.11204 c 0,-0.49547 -0.94529,-1.3968 -2.10065,-2.00309 -2.0894,-1.09645 -2.09112,-1.09159 -0.32211,0.90076 1.97586,2.22529 2.42276,2.42864 2.42276,1.10233 z m 9.63414,-26.94636 c -1.44757,-0.16796 -2.97594,-0.63795 -3.39636,-1.04454 -0.42042,-0.4066 1.62046,-3.31521 4.53529,-6.46349 l 5.29968,-5.72433 h -5.5049 c -3.66166,0 -6.73126,-0.62525 -9.16741,-1.86725 -4.39935,-2.24294 -5.13493,-2.30558 -5.13493,-0.43749 0,0.7863 -0.58947,1.65587 -1.30993,1.93241 -1.39085,0.53366 -8.32464,-2.61078 -11.06063,-5.01608 -1.24909,-1.09813 -1.63384,-1.1464 -1.63384,-0.20484 0,0.67735 5.33631,6.62463 11.85843,13.2163 l 11.85841,11.98475 3.14407,-3.03512 3.14406,-3.03512 z"
       id="path3" /></g></svg>
