<?xml version="1.0" encoding="UTF-8" standalone="no"?>
<!-- Created with Inkscape (http://www.inkscape.org/) -->

<svg
   width="1080"
   height="1080"
   viewBox="0 0 285.74997 285.74997"
   version="1.1"
   id="svg1"
   inkscape:version="1.4.2 (f4327f4, 2025-05-13)"
   sodipodi:docname="74.svg"
   xml:space="preserve"
   xmlns:inkscape="http://www.inkscape.org/namespaces/inkscape"
   xmlns:sodipodi="http://sodipodi.sourceforge.net/DTD/sodipodi-0.dtd"
   xmlns="http://www.w3.org/2000/svg"
   xmlns:svg="http://www.w3.org/2000/svg"><sodipodi:namedview
     id="namedview1"
     pagecolor="#ffffff"
     bordercolor="#000000"
     borderopacity="0.25"
     inkscape:showpageshadow="2"
     inkscape:pageopacity="0.0"
     inkscape:pagecheckerboard="0"
     inkscape:deskcolor="#3c3c3c"
     inkscape:document-units="px"
     inkscape:zoom="0.49890312"
     inkscape:cx="398.87504"
     inkscape:cy="499.0949"
     inkscape:window-width="1920"
     inkscape:window-height="991"
     inkscape:window-x="-9"
     inkscape:window-y="-9"
     inkscape:window-maximized="1"
     inkscape:current-layer="layer1"
     showguides="true" /><defs
     id="defs1"><inkscape:path-effect
       effect="fillet_chamfer"
       id="path-effect1"
       is_visible="true"
       lpeversion="1"
       nodesatellites_param="C,0,0,1,0,45.584779,0,1 @ F,0,0,1,0,37.379523,0,1 @ F,0,0,1,0,82.964302,0,1 @ F,0,0,1,0,0,0,1"
       radius="0"
       unit="px"
       method="auto"
       mode="F"
       chamfer_steps="1"
       flexible="false"
       use_knot_distance="true"
       apply_no_radius="true"
       apply_with_radius="true"
       only_selected="false"
       hide_knots="false" /></defs><g
     inkscape:label="Capa1"
     inkscape:groupmode="layer"
     id="layer1"
     style="display:inline;opacity:1;mix-blend-mode:multiply"><g
       id="g13"><g
         id="g10"><path
           id="rect3"
           style="opacity:1;fill:#d400aa;stroke-width:1.81858;stroke-linecap:square;stroke-miterlimit:4.7"
           d="M 0,0 V 6.594946 39.687493 88.080405 H 6.594945 V 39.687493 H 39.687491 V 6.594946 l 165.065519,0 V 0 L 6.594945,0 Z m 6.614583,6.614583 h 26.45833 v 26.45833 H 6.614583 Z m 6.614582,6.614583 V 26.458331 H 26.45833 V 13.229166 Z m 33.072916,0 v 6.594945 26.477972 h -26.47797 -6.594946 v 6.59494 35.183382 h 6.594946 V 52.897023 h 26.47797 6.59494 v -6.59494 -26.477972 l 151.855989,0 v -6.594945 l -151.855989,0 z"
           sodipodi:nodetypes="ccccccccccccccccccccccccccccccccccccccc" /><path
           id="path10"
           style="opacity:1;fill:#d400aa;stroke-width:1.81858;stroke-linecap:square;stroke-miterlimit:4.7"
           d="M 0,285.74997 V 279.15502 246.06248 81.527283 H 6.594945 V 246.06248 h 33.092546 v 33.09254 l 165.330679,0 v 6.59495 l -198.423225,0 z m 6.614583,-6.61458 h 26.45833 V 252.67706 H 6.614583 Z m 6.614582,-6.61459 V 259.29164 H 26.45833 v 13.22916 z m 33.072916,0 v -6.59494 -26.47797 H 19.824111 13.229165 V 232.85295 81.527283 h 6.594946 V 232.85295 h 26.47797 6.59494 v 6.59494 26.47797 l 152.121149,0 v 6.59494 l -152.121149,0 z"
           sodipodi:nodetypes="ccccccccccccccccccccccccccccccccccccccc" /></g><g
         id="g12"
         transform="rotate(180,142.87499,142.87498)"><path
           id="path11"
           style="opacity:1;fill:#d400aa;stroke-width:1.81858;stroke-linecap:square;stroke-miterlimit:4.7"
           d="M 0,0 V 6.594946 39.687493 88.080405 H 6.594945 V 39.687493 H 39.687491 V 6.594946 H 88.080403 V 0 H 6.594945 Z m 6.614583,6.614583 h 26.45833 v 26.45833 H 6.614583 Z m 6.614582,6.614583 V 26.458331 H 26.45833 V 13.229166 Z m 33.072916,0 v 6.594945 26.477972 h -26.47797 -6.594946 v 6.59494 35.183382 h 6.594946 V 52.897023 h 26.47797 6.59494 V 46.302083 19.824111 H 88.080403 V 13.229166 H 52.897021 Z" /><path
           id="path12"
           style="opacity:1;fill:#d400aa;stroke-width:1.81858;stroke-linecap:square;stroke-miterlimit:4.7"
           d="M 0,285.74997 V 279.15502 246.06248 81.527283 H 6.594945 V 246.06248 h 33.092546 v 33.09254 h 48.392912 v 6.59495 H 6.594945 Z m 6.614583,-6.61458 h 26.45833 V 252.67706 H 6.614583 Z m 6.614582,-6.61459 V 259.29164 H 26.45833 v 13.22916 z m 33.072916,0 v -6.59494 -26.47797 H 19.824111 13.229165 V 232.85295 81.527283 h 6.594946 V 232.85295 h 26.47797 6.59494 v 6.59494 26.47797 h 35.183382 v 6.59494 H 52.897021 Z"
           sodipodi:nodetypes="ccccccccccccccccccccccccccccccccccccccc" /></g></g><path
       style="opacity:1;fill:none;fill-opacity:1;stroke:#d400aa;stroke-width:5.68988;stroke-linecap:square;stroke-miterlimit:4.7;stroke-dasharray:none;stroke-opacity:1"
       d="m 29.179779,61.256367 33.456051,0 V 31.42978 l 161.22832,0 v 29.826575 l 32.33105,0 V 224.49361 l -32.4032,0 v 31.92907 l -161.148365,0 v -31.92906 l -33.463856,0 z"
       id="path25"
       sodipodi:nodetypes="ccccccccccccc" /></g></svg>
