<?xml version="1.0" encoding="UTF-8" standalone="no"?>
<!-- Created with Inkscape (http://www.inkscape.org/) -->

<svg
   width="1080"
   height="1080"
   viewBox="0 0 285.74997 285.74997"
   version="1.1"
   id="svg1"
   inkscape:version="1.4.2 (f4327f4, 2025-05-13)"
   sodipodi:docname="77.svg"
   xml:space="preserve"
   xmlns:inkscape="http://www.inkscape.org/namespaces/inkscape"
   xmlns:sodipodi="http://sodipodi.sourceforge.net/DTD/sodipodi-0.dtd"
   xmlns="http://www.w3.org/2000/svg"
   xmlns:svg="http://www.w3.org/2000/svg"><sodipodi:namedview
     id="namedview1"
     pagecolor="#ffffff"
     bordercolor="#000000"
     borderopacity="0.25"
     inkscape:showpageshadow="2"
     inkscape:pageopacity="0.0"
     inkscape:pagecheckerboard="0"
     inkscape:deskcolor="#3c3c3c"
     inkscape:document-units="px"
     inkscape:zoom="0.41041912"
     inkscape:cx="304.56671"
     inkscape:cy="811.3657"
     inkscape:window-width="1920"
     inkscape:window-height="991"
     inkscape:window-x="-9"
     inkscape:window-y="-9"
     inkscape:window-maximized="1"
     inkscape:current-layer="layer1" /><defs
     id="defs1"><inkscape:path-effect
       effect="fillet_chamfer"
       id="path-effect1"
       is_visible="true"
       lpeversion="1"
       nodesatellites_param="C,0,0,1,0,45.584779,0,1 @ F,0,0,1,0,37.379523,0,1 @ F,0,0,1,0,82.964302,0,1 @ F,0,0,1,0,0,0,1"
       radius="0"
       unit="px"
       method="auto"
       mode="F"
       chamfer_steps="1"
       flexible="false"
       use_knot_distance="true"
       apply_no_radius="true"
       apply_with_radius="true"
       only_selected="false"
       hide_knots="false" /></defs><g
     inkscape:label="Capa1"
     inkscape:groupmode="layer"
     id="layer1"
     style="display:inline;opacity:1;mix-blend-mode:multiply"><g
       style="fill:#9955ff;stroke-width:0.248152"
       id="g1"
       transform="matrix(1.066216,0,0,1.066216,118.76004,22.231024)"><path
         fill="#ffffff"
         d="m 41.715,23.193 c -2.762,0.82 -4.844,2.675 -6.37,4.69 -0.327,0.432 -1.01,0.107 -0.88,-0.423 C 37.385,15.453 33.528,5.474 21.504,0.562 a 0.803,0.803 0 0 0 -1.085,0.937 c 5.47,21.961 -17.537,20.109 -14.63,45.005 0.05,0.427 -0.43,0.72 -0.78,0.47 C 3.919,46.192 2.702,44.559 1.867,43.412 A 0.502,0.502 0 0 0 0.98,43.572 C 0.315,45.976 0,48.242 0,50.492 c 0,8.749 4.497,16.45 11.304,20.915 0.39,0.255 0.89,-0.11 0.758,-0.557 a 13.5,13.5 0 0 1 -0.563,-3.697 c 0,-0.788 0.05,-1.593 0.173,-2.343 0.285,-1.885 0.94,-3.68 2.04,-5.314 3.772,-5.663 11.334,-11.132 10.127,-18.56 -0.078,-0.47 0.477,-0.78 0.827,-0.457 5.328,4.868 6.383,11.415 5.508,17.287 -0.075,0.51 0.564,0.782 0.887,0.382 a 11.6,11.6 0 0 1 2.892,-2.587 c 0.27,-0.168 0.63,-0.04 0.733,0.26 0.602,1.752 1.497,3.397 2.342,5.042 a 13.46,13.46 0 0 1 0.905,9.982 0.502,0.502 0 0 0 0.755,0.57 C 45.5,66.95 50,59.248 50,50.494 50,47.451 49.468,44.469 48.46,41.674 46.348,35.812 40.988,31.41 42.343,23.77 42.408,23.405 42.07,23.088 41.715,23.193"
         id="path1"
         style="fill:#9955ff;stroke-width:0.248152"
         inkscape:transform-center-y="-77.494124" /><path
         fill="#ffffff"
         d="m 107.39234,80.41265 c -2.09114,-1.981962 -4.73862,-2.857527 -7.24666,-3.171581 -0.53762,-0.06719 -0.597662,-0.821186 -0.0737,-0.973603 11.85837,-3.474705 18.57194,-11.804465 16.81385,-24.673555 a 0.803,0.803 0 0 0 -1.35396,-0.471137 c -16.283787,15.717658 -26.183408,-5.132988 -46.290476,9.832548 -0.344793,0.256801 -0.838539,-0.01239 -0.797032,-0.4405 0.132232,-1.334968 0.937951,-3.205421 1.513782,-4.502052 A 0.502,0.502 0 0 0 69.37611,55.324606 c -2.414425,0.626093 -4.534338,1.486295 -6.482896,2.611295 -7.576856,4.3745 -11.997618,12.119516 -12.460921,20.247051 -0.02584,0.46525 0.540263,0.715763 0.861376,0.377947 a 13.5,13.5 0 0 1 2.920196,-2.336072 c 0.682428,-0.394 1.404579,-0.753199 2.115598,-1.021678 1.774958,-0.695682 3.656973,-1.025936 5.622059,-0.890308 6.790301,0.435148 15.307594,4.249532 21.136931,-0.509761 0.368032,-0.30255 0.914,0.02309 0.809274,0.487703 -1.551812,7.048184 -6.69418,11.235341 -12.216981,13.413568 -0.479173,0.190048 -0.395232,0.879439 0.112678,0.959165 a 11.6,11.6 0 0 1 3.686408,1.211045 c 0.280492,0.149827 0.349641,0.525596 0.141333,0.764797 -1.216277,1.397347 -2.193388,2.99494 -3.1955,4.549231 a 13.46,13.46 45 0 1 -8.192166,5.774751 0.502,0.502 0 0 0 -0.116134,0.93885 c 7.272803,3.66687 16.192931,3.71298 23.774117,-0.66402 2.635316,-1.521499 4.951803,-3.473225 6.868344,-5.743678 4.020641,-4.760046 5.152885,-11.602942 12.446824,-14.249478 0.34859,-0.126208 0.45412,-0.577424 0.18569,-0.832364"
         id="path7"
         style="fill:#9955ff;stroke-width:0.248152"
         inkscape:transform-center-y="-32.98545"
         inkscape:transform-center-x="-62.690697" /><path
         fill="#ffffff"
         d="m 90.677341,165.90072 c 0.67086,-2.80196 0.105381,-5.53253 -0.87666,-7.86158 -0.210622,-0.49919 0.412337,-0.92819 0.806315,-0.55063 8.938368,8.5323 19.508934,10.18154 29.774854,2.22444 a 0.803,0.803 0 0 0 -0.26897,-1.40813 c -21.753782,-6.24334 -8.6464,-25.24199 -31.660471,-35.17245 -0.394793,-0.1702 -0.40854,-0.73239 -0.01703,-0.9105 1.222232,-0.55297 3.244951,-0.79042 4.655782,-0.94005 a 0.502,0.502 0 0 0 0.304951,-0.84814 c -1.749425,-1.77791 -3.554338,-3.18371 -5.502896,-4.30871 -7.576856,-4.3745 -16.494618,-4.33048 -23.764921,-0.66795 -0.415838,0.21025 -0.349737,0.82577 0.103376,0.93495 a 13.5,13.5 0 0 1 3.483196,1.36093 c 0.682428,0.394 1.354579,0.8398 1.942598,1.32132 1.489957,1.18932 2.716973,2.65406 3.582059,4.42369 3.018301,6.09815 3.973594,15.38153 11.009931,18.05024 0.446032,0.16745 0.437004,0.80309 -0.01773,0.94471 -6.879812,2.18018 -13.077181,-0.17966 -17.724981,-3.87344 -0.404173,-0.31995 -0.959232,0.0974 -0.774322,0.57717 a 11.6,11.6 0 0 1 0.794408,3.79804 c 0.01049,0.31783 -0.280359,0.5656 -0.591667,0.5048 -1.818277,-0.35465 -3.690388,-0.40206 -5.5375,-0.49277 a 13.46,13.46 0 0 1 -9.097164,-4.20725 0.502,0.502 0 0 0 -0.871135,0.36885 c 0.460799,8.13187 4.880931,15.87998 12.462117,20.25698 2.635315,1.5215 5.483803,2.55178 8.408343,3.07632 6.132641,1.10196 12.624885,-1.33894 18.563822,3.65453 0.283594,0.23878 0.727124,0.10457 0.813693,-0.25537"
         id="path8"
         style="fill:#9955ff;stroke-width:0.248152"
         inkscape:transform-center-y="32.885572"
         inkscape:transform-center-x="-64.571813" /><path
         fill="#ffffff"
         d="m 8.2850015,194.16914 c 2.7619985,-0.82 4.8440025,-2.675 6.3699985,-4.69 0.327,-0.432 1.010004,-0.107 0.880017,0.42298 -2.920005,12.007 0.936994,21.986 12.961005,26.898 a 0.803,0.803 0 0 0 1.084991,-0.937 c -5.47,-21.961 17.537005,-20.109 14.63,-45.005 -0.05,-0.427 0.429998,-0.72 0.780001,-0.47 1.090002,0.782 2.307,2.415 3.141998,3.562 a 0.502,0.502 0 0 0 0.886987,-0.15997 c 0.665002,-2.40401 0.980004,-4.67001 0.980004,-6.92001 0,-8.749 -4.497003,-16.44999 -11.303999,-20.915 -0.390001,-0.255 -0.890006,0.11001 -0.758002,0.557 a 13.5,13.5 0 0 1 0.562998,3.69701 c 0,0.788 -0.05,1.593 -0.172998,2.343 -0.285003,1.885 -0.939997,3.67999 -2.039998,5.31399 -3.772003,5.663 -11.333999,11.132 -10.127001,18.56 0.078,0.47 -0.476995,0.78001 -0.827008,0.457 -5.327997,-4.868 -6.383,-11.415 -5.507993,-17.287 0.075,-0.51 -0.563967,-0.78202 -0.887005,-0.382 a 11.6,11.6 0 0 1 -2.891995,2.587 c -0.270004,0.168 -0.630004,0.04 -0.733003,-0.26 -0.602003,-1.752 -1.497,-3.397 -2.341999,-5.042 a 13.46,13.46 45 0 1 -0.904997,-9.982 0.502,0.502 0 0 0 -0.755001,-0.57 c -6.812006,4.465 -11.3120001058422,12.167 -11.3120002982067,20.921 -1.518581e-7,3.043 0.5319951982067,6.025 1.5400001982067,8.82 2.1119952,5.862 7.4719986,10.264 6.1169952,17.90401 -0.064992,0.36499 0.2730017,0.68199 0.6280034,0.57699"
         id="path9"
         style="fill:#9955ff;stroke-width:0.248152"
         inkscape:transform-center-y="77.494107"
         inkscape:transform-center-x="-2.5185204e-06" /><path
         fill="#ffffff"
         d="m -57.392338,136.94949 c 2.09114,1.98196 4.738619,2.85753 7.246658,3.17158 0.537623,0.0672 0.597667,0.82119 0.0737,0.97361 -11.858369,3.4747 -18.571937,11.80446 -16.813848,24.67356 a 0.803,0.803 0 0 0 1.353961,0.47113 c 16.283784,-15.71766 26.183407,5.13299 46.290473,-9.83255 0.344793,-0.2568 0.838537,0.0124 0.797033,0.4405 -0.132231,1.33497 -0.937952,3.20542 -1.513784,4.50205 a 0.502,0.502 0 0 0 0.582032,0.68817 c 2.414434,-0.6261 4.534349,-1.4863 6.482906,-2.6113 7.5768564,-4.3745 11.99760791,-12.11951 12.46092199,-20.24705 0.025836,-0.46525 -0.54027445,-0.71576 -0.86137719,-0.37795 a 13.5,13.5 0 0 1 -2.9202055,2.33608 c -0.6824281,0.394 -1.4045785,0.7532 -2.1155966,1.02168 -1.7749593,0.69568 -3.6569633,1.02593 -5.6220497,0.8903 -6.790303,-0.43515 -15.307594,-4.24953 -21.136932,0.50976 -0.368032,0.30255 -0.914006,-0.0231 -0.809277,-0.48771 1.551813,-7.04818 6.69418,-11.23534 12.216984,-13.41356 0.479173,-0.19005 0.395266,-0.87942 -0.11268,-0.95917 a 11.6,11.6 0 0 1 -3.686406,-1.21104 c -0.280494,-0.14983 -0.349643,-0.5256 -0.141334,-0.7648 1.216275,-1.39735 2.193388,-2.99494 3.1955,-4.54923 a 13.46,13.46 0 0 1 8.192167,-5.77475 0.502,0.502 0 0 0 0.116134,-0.93885 c -7.272806,-3.66687 -16.192931,-3.71298 -23.774117,0.66402 -2.635316,1.5215 -4.951806,3.47322 -6.868344,5.74368 -4.020644,4.76004 -5.152886,11.60294 -12.44683,14.24948 -0.348587,0.12621 -0.45412,0.57742 -0.185687,0.83236"
         id="path10"
         style="fill:#9955ff;stroke-width:0.248152"
         inkscape:transform-center-y="32.985449"
         inkscape:transform-center-x="62.690692" /><path
         fill="#ffffff"
         d="m -40.677337,51.461423 c -0.670858,2.80196 -0.105384,5.53253 0.87666,7.86158 0.210614,0.499195 -0.412338,0.92819 -0.806321,0.550631 -8.938363,-8.532299 -19.508931,-10.181539 -29.774854,-2.224439 a 0.803,0.803 0 0 0 0.26897,1.408129 c 21.753785,6.243341 8.646404,25.241991 31.660475,35.172451 0.394791,0.170199 0.408529,0.732394 0.01703,0.910501 -1.222234,0.552969 -3.244951,0.790419 -4.655782,0.940049 a 0.502,0.502 0 0 0 -0.304956,0.84814 c 1.749435,1.777911 3.554348,3.183715 5.502905,4.308715 7.576856,4.3745 16.494607,4.33047 23.76492,0.66795 0.415837,-0.21025 0.349729,-0.82578 -0.103374,-0.93495 a 13.5,13.5 0 0 1 -3.483207,-1.360936 c -0.682428,-0.394 -1.35458,-0.8398 -1.942599,-1.32132 -1.489957,-1.18932 -2.716964,-2.654058 -3.582048,-4.423688 -3.0183,-6.09815 -3.973596,-15.38153 -11.009931,-18.05024 -0.446032,-0.16745 -0.436998,-0.803102 0.01773,-0.944709 6.879809,-2.180181 13.07718,0.179659 17.724976,3.873438 0.404174,0.319951 0.959233,-0.0974 0.774325,-0.577169 a 11.6,11.6 0 0 1 -0.794411,-3.798041 c -0.01049,-0.31783 0.280361,-0.5656 0.591669,-0.504799 1.818278,0.35465 3.690388,0.40206 5.537499,0.492769 a 13.46,13.46 45 0 1 9.0971633,4.20725 0.502,0.502 0 0 0 0.87113493,-0.36885 C -0.8901602,70.062015 -5.3102903,62.313906 -12.891476,57.936906 c -2.635316,-1.521501 -5.4838,-2.55178 -8.408345,-3.076321 -6.132638,-1.101959 -12.624884,1.33894 -18.563827,-3.654531 -0.283594,-0.23878 -0.72712,-0.104569 -0.813688,0.255371"
         id="path11"
         style="fill:#9955ff;stroke-width:0.248152"
         inkscape:transform-center-y="-32.885571"
         inkscape:transform-center-x="64.571813" /></g></g></svg>
