<?xml version="1.0" encoding="UTF-8" standalone="no"?>
<!-- Created with Inkscape (http://www.inkscape.org/) -->

<svg
   width="1080"
   height="1080"
   viewBox="0 0 285.74997 285.74997"
   version="1.1"
   id="svg1"
   inkscape:version="1.4.2 (f4327f4, 2025-05-13)"
   sodipodi:docname="70.svg"
   xml:space="preserve"
   xmlns:inkscape="http://www.inkscape.org/namespaces/inkscape"
   xmlns:sodipodi="http://sodipodi.sourceforge.net/DTD/sodipodi-0.dtd"
   xmlns="http://www.w3.org/2000/svg"
   xmlns:svg="http://www.w3.org/2000/svg"><sodipodi:namedview
     id="namedview1"
     pagecolor="#ffffff"
     bordercolor="#000000"
     borderopacity="0.25"
     inkscape:showpageshadow="2"
     inkscape:pageopacity="0.0"
     inkscape:pagecheckerboard="0"
     inkscape:deskcolor="#3c3c3c"
     inkscape:document-units="px"
     inkscape:zoom="0.52929493"
     inkscape:cx="400.53283"
     inkscape:cy="670.70357"
     inkscape:window-width="1920"
     inkscape:window-height="991"
     inkscape:window-x="-9"
     inkscape:window-y="-9"
     inkscape:window-maximized="1"
     inkscape:current-layer="layer1"
     showguides="true" /><defs
     id="defs1"><inkscape:path-effect
       effect="rough_hatches"
       id="path-effect33"
       is_visible="true"
       lpeversion="1.2"
       direction="96.783585,78.557993 , 2.0246298,-1.1487699"
       dist_rdm="75;1"
       growth="0"
       do_bend="true"
       bender="96.783585,83.557993 , 5,0"
       bottom_edge_variation="3.7723814;1"
       top_edge_variation="3.7723814;1"
       bottom_tgt_variation="0;1"
       top_tgt_variation="0;1"
       scale_bf="1"
       scale_bb="1"
       scale_tf="1"
       scale_tb="1"
       top_smth_variation="0;1"
       bottom_smth_variation="0;1"
       fat_output="true"
       stroke_width_top="1"
       stroke_width_bottom="1"
       front_thickness="1"
       back_thickness="0.25" /><inkscape:path-effect
       effect="rough_hatches"
       id="path-effect32"
       is_visible="true"
       lpeversion="1.2"
       direction="98.564725,67.536711 , 1.2551536,-0.74037098"
       dist_rdm="75;1"
       growth="0"
       do_bend="true"
       bender="98.324796,71.217099 , 2.480741,0.23992943"
       bottom_edge_variation="3.7723819;1"
       top_edge_variation="3.7723819;1"
       bottom_tgt_variation="0;1"
       top_tgt_variation="0;1"
       scale_bf="1"
       scale_bb="1"
       scale_tf="1"
       scale_tb="1"
       top_smth_variation="0;1"
       bottom_smth_variation="0;1"
       fat_output="true"
       stroke_width_top="1"
       stroke_width_bottom="1"
       front_thickness="1"
       back_thickness="0.25" /><inkscape:path-effect
       effect="rough_hatches"
       id="path-effect31"
       is_visible="true"
       lpeversion="1.2"
       direction="112.307,36.78947 , 0.31710519,1.3479714"
       dist_rdm="75;1"
       growth="0"
       do_bend="true"
       bender="124.23075,52.990785 , 6.2355485,-0.77221783"
       bottom_edge_variation="5.4201574;1"
       top_edge_variation="5.4201574;1"
       bottom_tgt_variation="0;1"
       top_tgt_variation="0;1"
       scale_bf="1"
       scale_bb="1"
       scale_tf="1"
       scale_tb="1"
       top_smth_variation="0;1"
       bottom_smth_variation="0;1"
       fat_output="true"
       stroke_width_top="1"
       stroke_width_bottom="1"
       front_thickness="1"
       back_thickness="0.25" /><inkscape:path-effect
       effect="rough_hatches"
       id="path-effect30"
       is_visible="true"
       lpeversion="1.2"
       direction="132.88426,110.94908 , 38.589399,0"
       dist_rdm="75;1"
       growth="0"
       do_bend="true"
       bender="132.88426,115.94908 , 5,0"
       bottom_edge_variation="3.7723814;1"
       top_edge_variation="3.7723814;1"
       bottom_tgt_variation="0;1"
       top_tgt_variation="0;1"
       scale_bf="1"
       scale_bb="1"
       scale_tf="1"
       scale_tb="1"
       top_smth_variation="0;1"
       bottom_smth_variation="0;1"
       fat_output="true"
       stroke_width_top="1"
       stroke_width_bottom="1"
       front_thickness="1"
       back_thickness="0.25" /><inkscape:path-effect
       effect="rough_hatches"
       id="path-effect29"
       is_visible="true"
       lpeversion="1.2"
       direction="140.96426,137.46174 , 4.2655927,-0.45584779"
       dist_rdm="75;1"
       growth="0"
       do_bend="true"
       bender="159.9959,137.56137 , 3.2905702,-0.45584779"
       bottom_edge_variation="5.1250957;1"
       top_edge_variation="5.1250957;1"
       bottom_tgt_variation="0;1"
       top_tgt_variation="0;1"
       scale_bf="1"
       scale_bb="1"
       scale_tf="1"
       scale_tb="1"
       top_smth_variation="0;1"
       bottom_smth_variation="0;1"
       fat_output="true"
       stroke_width_top="1"
       stroke_width_bottom="1"
       front_thickness="1"
       back_thickness="0.25" /><inkscape:path-effect
       effect="rough_hatches"
       id="path-effect28"
       is_visible="true"
       lpeversion="1.2"
       direction="128.27865,143.99431 , 59.861714,0"
       dist_rdm="75;1"
       growth="0"
       do_bend="true"
       bender="144.3953,149.15548 , 5,0"
       bottom_edge_variation="2.148344;1"
       top_edge_variation="2.148344;1"
       bottom_tgt_variation="0;1"
       top_tgt_variation="0;1"
       scale_bf="1"
       scale_bb="1"
       scale_tf="1"
       scale_tb="1"
       top_smth_variation="0;1"
       bottom_smth_variation="0;1"
       fat_output="true"
       stroke_width_top="1"
       stroke_width_bottom="1"
       front_thickness="1"
       back_thickness="0.25" /><inkscape:path-effect
       effect="rough_hatches"
       id="path-effect25"
       is_visible="true"
       lpeversion="1.2"
       direction="134.06081,103.69836 , 38.589396,0"
       dist_rdm="75;-967390490"
       growth="0"
       do_bend="true"
       bender="134.06081,108.69836 , 5,0"
       bottom_edge_variation="3.7723814;1"
       top_edge_variation="3.7723814;1"
       bottom_tgt_variation="0;1"
       top_tgt_variation="0;1"
       scale_bf="1"
       scale_bb="1"
       scale_tf="1"
       scale_tb="1"
       top_smth_variation="0;1"
       bottom_smth_variation="0;1"
       fat_output="true"
       stroke_width_top="1"
       stroke_width_bottom="1"
       front_thickness="1"
       back_thickness="0.25" /><inkscape:path-effect
       effect="fillet_chamfer"
       id="path-effect1"
       is_visible="true"
       lpeversion="1"
       nodesatellites_param="C,0,0,1,0,45.584779,0,1 @ F,0,0,1,0,37.379523,0,1 @ F,0,0,1,0,82.964302,0,1 @ F,0,0,1,0,0,0,1"
       radius="0"
       unit="px"
       method="auto"
       mode="F"
       chamfer_steps="1"
       flexible="false"
       use_knot_distance="true"
       apply_no_radius="true"
       apply_with_radius="true"
       only_selected="false"
       hide_knots="false" /></defs><g
     inkscape:label="Capa1"
     inkscape:groupmode="layer"
     id="layer1"
     style="display:inline;opacity:1;mix-blend-mode:normal"><path
       d="m 45.100569,112.83985 c 0,0 0.06919,1.58288 0.06822,1.24344 0.0023,0.78611 -0.839028,-0.33702 -1.911874,-0.33702 -1.912446,0 3.168831,6.90538 3.174169,5.72625 1.3e-4,-0.0291 -2.920358,-4.00639 -3.72752,-4.00639 -1.646765,0 3.317004,6.81582 3.318122,6.28871 -0.0013,0.64244 -5.462722,-6.8465 -6.532512,-6.8465 -1.909394,0 3.662053,7.64438 3.657336,7.3386 0.0068,0.44463 -2.175083,-2.39937 -4.516629,-5.36665 -2.338604,-2.96356 -4.837039,-6.0392 -5.144425,-6.0392 -0.727186,0 2.215521,4.33755 5.177339,8.53774 2.968446,4.20959 5.953283,8.2536 5.949718,7.71353 4.11e-4,0.0624 -2.480044,-3.48915 -5.179652,-7.05625 -2.69961,-3.56709 -5.61934,-7.14977 -6.056515,-7.14977 -0.856972,0 2.439386,4.94381 5.739706,9.75228 3.309809,4.82229 6.616463,9.46775 6.616681,8.94017 -3.2e-5,0.0816 -2.898579,-4.18476 -6.060339,-8.47156 -3.161762,-4.28679 -6.588264,-8.59399 -7.007114,-8.59399 -0.83865,0 2.734602,5.34659 6.271109,10.63646 3.536508,5.28987 7.041562,10.52299 7.04202,10.29603 -8.28e-4,0.41033 -3.433213,-4.62168 -7.093032,-9.59615 -3.648872,-4.95958 -7.541474,-9.90623 -7.547256,-9.25077 -0.01013,1.15057 4.104391,7.4563 7.859538,13.15458 3.79773,5.76291 7.330329,11.0373 7.33376,10.44829 -3.03e-4,0.0524 -3.398115,-5.26153 -7.041498,-10.50713 -3.64338,-5.2456 -7.525923,-10.42289 -7.530036,-10.09728 -0.0109,0.86343 3.129501,5.72298 6.052203,10.08081 2.946114,4.39272 5.741462,8.36655 5.731986,7.63306 -9.74e-4,-0.0768 -3.497262,-5.4957 -7.243245,-10.74585 -3.734989,-5.23476 -7.725728,-10.34698 -7.721975,-9.73343 0.0068,1.12001 4.11493,7.39484 7.857396,13.07214 3.785746,5.74295 7.299238,11.00653 7.292397,10.43231 0.0011,0.0857 -3.486297,-5.3592 -7.230892,-10.7296 -3.744593,-5.3704 -7.739255,-10.66626 -7.737293,-10.28235 0.0047,0.90912 4.387796,7.54233 8.357982,13.57302 4.017051,6.10188 7.722138,11.72927 7.718855,10.98267 -3.49e-4,-0.0793 -3.441473,-5.65844 -7.149083,-11.12214 -3.707609,-5.4637 -7.670516,-10.81194 -7.671435,-10.42938 -0.0021,0.92336 3.745401,6.7648 7.174659,12.02705 3.464209,5.31588 6.699056,10.16624 6.690268,9.37563 -0.0012,-0.1101 -3.47795,-5.75306 -7.225436,-11.24894 -3.747483,-5.49589 -7.751311,-10.8447 -7.74925,-10.36653 0.0043,1.01109 4.320474,7.7093 8.221471,13.91431 3.937743,6.26345 7.566091,12.20904 7.564959,12.00715 0.0027,0.50152 -3.446082,-4.99394 -7.167125,-10.48203 -3.72104,-5.48809 -7.713471,-10.96879 -7.71411,-10.43773 -0.0012,1.06812 4.426717,8.17529 8.391811,14.72187 4.00627,6.61458 7.670004,12.87252 7.670882,12.58209 -0.0013,0.43604 -3.391044,-5.25758 -7.071192,-10.90793 -3.664813,-5.62682 -7.645879,-11.28101 -7.652094,-10.64839 -0.01149,1.16544 3.854091,7.72464 7.330788,13.57232 3.520139,5.92075 6.765612,11.28947 6.764176,10.43926 -1.94e-4,-0.11394 -3.399324,-6.18066 -7.112967,-12.05481 -3.700094,-5.85272 -7.721275,-11.57717 -7.724741,-10.89937 -0.0062,1.22446 3.679018,7.5705 7.000412,13.29151 3.35621,5.78097 6.459229,11.11681 6.453019,10.62073 0.0033,0.27053 -3.455585,-5.78244 -7.237281,-11.78275 -3.781696,-6.00032 -7.880323,-11.94798 -7.877574,-11.46682 0.006,1.05452 4.018342,7.8338 7.601826,13.93421 3.632361,6.18363 6.94689,11.84598 6.933661,11.08267 1.02e-4,0.006 -3.479015,-6.28212 -7.297427,-12.43412 -3.818412,-6.15199 -7.961047,-12.1681 -7.955264,-11.61877 0.01188,1.12141 4.244877,8.33017 7.993089,14.81603 3.804504,6.58327 7.24591,12.61964 7.232706,11.88334 8.39e-4,0.0468 -3.477527,-6.35064 -7.306484,-12.53201 -3.815601,-6.15981 -7.983921,-12.16827 -7.973546,-11.23581 0.01617,1.45875 4.834686,9.97898 8.991349,17.52262 4.23336,7.68282 7.987788,14.66668 7.983751,13.74868 -4.79e-4,-0.10893 -3.370571,-6.774 -7.120552,-13.30803 -3.749981,-6.53403 -7.86473,-12.937 -7.865729,-12.52174 -0.0026,1.01398 3.96515,8.11803 7.470803,14.6491 3.546246,6.60669 6.748637,12.86727 6.745331,12.57241 0.0062,0.55927 -3.407099,-5.98697 -7.205501,-12.52865 -3.798404,-6.54167 -7.98128,-13.07878 -7.978733,-12.50125 0.0052,1.17436 4.185394,8.85778 7.822111,15.71481 3.698654,6.97382 6.99578,13.34442 6.982836,12.4771 -4.6e-5,-0.003 -3.418368,-6.98035 -7.253396,-13.73605 -3.817792,-6.72533 -8.059512,-13.32024 -8.052094,-12.40696 0.01227,1.50534 3.688701,8.6021 6.963241,15.0475 3.317527,6.53002 6.359117,12.66255 6.54832,12.66255 -0.230597,0 -3.37415,-6.26487 -6.794159,-12.28139 -3.409006,-5.99716 -7.088775,-11.80404 -7.077504,-10.79126 0.0185,1.66228 2.948442,7.72655 5.642519,13.15844 2.727164,5.49862 5.319939,10.56497 5.666415,10.56497 -0.07334,0 -2.576719,-5.13964 -5.288552,-10.1789 -2.711833,-5.03927 -5.623032,-9.97816 -5.619691,-9.57664 0.0094,1.11623 2.333961,5.90224 4.546864,10.27994 2.233008,4.41747 4.413927,8.54594 4.793994,8.54594 -0.03972,0 -2.317682,-4.66615 -4.772111,-9.23742 -2.454428,-4.57127 -5.077541,-9.04767 -5.072862,-8.66816 0.01363,1.10075 2.469739,6.14788 4.796835,10.77605 2.349341,4.6724 4.634895,9.05857 5.048556,9.05857 -0.0062,0 -2.043492,-4.27571 -4.235966,-8.41624 -2.186033,-4.12838 -4.529839,-8.15808 -4.527621,-7.60527 0.0051,1.27109 2.309691,6.28178 4.467202,10.82343 2.179622,4.5882 4.278897,8.84698 4.576511,8.84698 -0.122193,0 -1.797286,-3.50662 -3.549139,-6.81959 -1.75035,-3.31014 -3.568066,-6.43519 -3.577186,-5.65782 -0.03692,3.14825 2.919984,9.27009 3.347253,9.27009 -0.412335,0 -5.01098,-9.32395 -5.009025,-8.39522 0.0055,2.58342 3.978278,10.88206 4.47273,10.88206 -0.34515,0 -3.23586,-6.09151 -3.251471,-4.28093 -0.0304,3.52523 -0.552052,2.46809 -0.112575,2.46809 -0.400118,0 -0.771045,-0.79546 -0.772217,0.66726 -0.0026,3.25553 -0.06779,0.72401 -0.06779,0.72401 0,0 0.811381,-0.67211 0.79978,0.85319 0.002,-0.26749 -0.183086,-0.66726 0.776759,-0.66726 1.799456,0 0.145523,-3.5153 0.12936,-2.4681 0.01032,-0.66746 2.317461,4.28093 3.222345,4.28093 0.872244,0 -0.142991,-3.17779 -1.46301,-6.12694 -1.320443,-2.95009 -2.931395,-5.66871 -2.935687,-4.75511 -8.18e-4,0.17441 3.979841,8.39522 4.95191,8.39522 0.905835,0 0.145932,-2.5966 -0.900631,-5.05365 -1.045664,-2.45494 -2.37317,-4.7767 -2.383553,-4.21644 0.0045,-0.24146 1.651694,2.8779 3.311281,6.05761 1.659585,3.17971 3.328102,6.41979 3.730156,6.41979 0.821855,0 -1.168169,-5.29475 -3.605039,-10.40092 -2.42816,-5.08792 -5.302695,-10.04204 -5.304853,-9.26948 6.3e-5,-0.0227 2.159598,3.9827 4.251824,7.99375 2.09223,4.01104 4.116756,8.02776 4.402763,8.02776 0.705811,0 -1.478935,-5.40678 -4.089681,-10.5895 -2.603124,-5.16759 -5.625805,-10.1565 -5.620767,-9.24511 7.22e-4,0.1308 2.441387,4.60718 4.79148,9.05088 2.35009,4.4437 4.612078,8.8547 4.931678,8.8547 0.739402,0 -1.343236,-5.13446 -3.836544,-10.05492 -2.486548,-4.90712 -5.377557,-9.64028 -5.376239,-8.77097 1.54e-4,0.10148 2.72473,5.04036 5.329322,9.95388 2.604592,4.91351 5.091327,9.80166 5.444521,9.80166 0.772993,0 -1.700553,-6.04712 -4.682467,-12.03611 -2.981916,-5.98898 -6.466078,-11.91984 -6.465074,-11.68731 -0.0021,-0.50304 3.473434,5.26513 6.778369,11.15905 3.304935,5.89393 6.425862,11.91362 6.936327,11.91362 0.930266,0 -1.971259,-7.07528 -5.536963,-14.07668 -3.565703,-7.0014 -7.78647,-13.92891 -7.786081,-13.63339 -5.43e-4,-0.41154 4.195832,6.41777 7.97769,13.20318 3.781855,6.78542 7.154712,13.52694 7.149945,12.93984 -0.01266,-1.56416 -3.218641,-8.71698 -6.931922,-15.63268 -3.664043,-6.824 -7.679851,-13.13575 -7.68123,-12.55923 2.78e-4,-0.11592 4.151051,6.7059 7.897859,13.27452 3.759763,6.59133 7.120969,12.86134 7.116091,11.75539 -0.0092,-2.0744 -3.111866,-9.05086 -6.682486,-15.62931 -3.514133,-6.47438 -7.341813,-12.31328 -7.348454,-11.5922 -3.14e-4,0.0343 4.081945,6.71472 7.780891,13.27509 3.698946,6.56037 7.028593,13.00068 7.029665,12.55467 0.0033,-1.37234 -3.654649,-9.09997 -7.909657,-16.74096 -4.202702,-7.54706 -8.853542,-14.72568 -8.852696,-14.53035 -0.0019,-0.46839 4.126564,5.76442 7.907449,11.9689 3.780884,6.20449 7.217356,12.38065 7.210882,11.79893 -0.01617,-1.45988 -3.377584,-8.25039 -7.191933,-14.78846 -3.770173,-6.46234 -7.854211,-12.44511 -7.852222,-11.91091 -4.31e-4,-0.11591 4.114321,6.16166 7.885194,12.33604 3.770871,6.17438 7.209429,12.24556 7.203863,11.71685 -0.0146,-1.37992 -3.249843,-7.79434 -6.888834,-13.93393 -3.599411,-6.07281 -7.475819,-11.67046 -7.476459,-11.08294 5.8e-5,-0.0537 4.068739,6.14949 7.803957,12.17071 3.749203,6.04376 7.157063,11.83792 7.152724,11.07886 -0.0092,-1.60928 -3.023816,-7.66043 -6.389558,-13.41012 -3.329994,-5.68862 -6.896539,-10.89258 -6.901192,-10.50214 0.0029,-0.23764 3.980346,5.69268 7.648558,11.58653 3.668213,5.89384 7.031028,11.7512 7.032988,11.36766 0.006,-1.18599 -3.150234,-7.28814 -6.675683,-13.17067 -3.491752,-5.82631 -7.248884,-11.26432 -7.255924,-10.84091 0.0033,-0.19609 3.936597,5.65317 7.572817,11.32135 3.646764,5.68463 6.994935,11.13889 7.003815,10.23497 0.01694,-1.72083 -3.547516,-8.63745 -7.578624,-15.24511 -3.985952,-6.53363 -8.294492,-12.53622 -8.298313,-12.05886 0.0011,-0.12767 3.962935,5.58749 7.641614,11.09198 3.687526,5.51772 7.096148,10.78503 7.097298,9.82778 0.0021,-1.7407 -3.536823,-8.34122 -7.494973,-14.59674 -3.915892,-6.18874 -8.113843,-11.83214 -8.115107,-11.32471 2.09e-4,-0.0839 3.976473,5.49434 7.68207,11.00639 3.705595,5.51205 7.147065,10.95789 7.145561,10.60909 -0.0047,-1.0813 -3.165343,-6.64125 -6.630454,-11.92552 -3.429612,-5.23013 -7.083295,-10.08225 -7.088866,-9.47718 -7.8e-5,0.008 3.933323,5.58393 7.59925,11.06347 3.665926,5.47953 7.073745,10.86317 7.074648,10.48806 0.0027,-1.11125 -3.62486,-7.43423 -7.649077,-13.51012 -3.988084,-6.02133 -8.25971,-11.6319 -8.2607,-11.04558 -7e-6,0.004 3.966673,5.52442 7.670385,10.90998 3.703709,5.38556 7.157583,10.63645 7.154848,10.10198 -0.0065,-1.25717 -3.449137,-7.21364 -7.236745,-12.92726 -3.754718,-5.66401 -7.752895,-10.93634 -7.753142,-10.57719 1.48e-4,-0.21523 3.953899,5.0863 7.660004,10.35078 3.706106,5.26448 7.168117,10.49191 7.165895,10.12849 -0.0065,-1.05536 -2.73308,-5.73204 -5.673048,-10.09188 -2.915943,-4.32421 -5.978448,-8.24885 -5.990633,-7.62198 -0.0011,0.0538 3.849946,5.44902 7.453303,10.70875 3.603357,5.25973 6.971889,10.38395 6.978056,9.89566 0.01499,-1.18964 -3.436254,-7.14357 -7.236496,-12.88028 -3.768801,-5.68924 -7.791598,-11.01887 -7.796227,-10.72259 0.0041,-0.26584 3.856582,4.86349 7.478318,9.85048 3.630035,4.99842 7.026483,9.82021 7.033751,8.99644 0.01324,-1.50969 -2.924252,-6.66844 -6.181238,-11.57063 -3.23228,-4.86499 -6.708664,-9.36187 -6.989483,-9.36187 0.13898,0 3.547962,4.51488 6.747671,8.90552 3.207526,4.40136 6.200172,8.6463 6.203683,8.16003 0.0083,-1.14815 -2.741132,-5.76499 -5.758667,-10.18624 -2.998331,-4.39311 -6.208056,-8.5062 -6.470552,-8.5062 0.157304,0 3.063469,3.78662 5.807019,7.45569 2.748639,3.67588 5.332407,7.21377 5.332501,6.75032 2.19e-4,-1.10339 -2.426494,-5.1236 -5.10134,-8.93719 -2.6599,-3.7923 -5.522874,-7.31406 -5.915157,-7.31406 0.02752,0 2.515174,3.27605 4.902795,6.33981 2.387946,3.06418 4.68798,5.91481 4.680662,5.06602 -0.025,-2.9009 -3.277865,-7.33859 -3.607411,-7.33859 0.510058,0 6.473245,8.26865 6.485935,6.84649 0.02311,-2.59172 -2.683163,-6.28871 -3.275338,-6.28871 0.247427,0 3.691909,4.74384 3.700263,4.0064 0.02138,-1.88737 -2.80872,-5.72626 -3.13521,-5.72626 0.513109,0 1.903572,1.8735 1.90958,0.33703 0.01032,-2.66197 -1.24393,-2.82064 -1.24393,-2.82064 z m 44.089281,1.38501 c 0,0 -2.873312,-4.19721 -4.008133,-4.19721 -1.949094,0 0.753784,3.55957 0.734009,2.51513 0.0018,0.0954 0.59144,0.87811 -0.530265,0.87811 -1.961309,0 3.089382,6.85288 3.087068,6.31472 0.0027,0.62768 -5.235195,-6.47741 -6.381332,-6.47741 -0.99287,0 0.647686,2.84149 2.466584,5.60247 1.821988,2.76566 3.820173,5.43672 3.818586,5.11931 0.0014,0.27661 -2.287552,-2.8338 -4.789881,-6.01336 -2.502328,-3.17957 -5.222009,-6.42829 -5.726365,-6.42829 -0.924159,0 1.5381,3.8523 4.102078,7.53623 2.567547,3.68905 5.241288,7.19434 5.232989,6.52598 -7.73e-4,-0.0622 -2.523915,-3.69977 -5.263977,-7.32179 -2.740063,-3.62202 -5.696082,-7.22848 -6.111878,-7.22848 -0.835598,0 2.103038,4.4065 5.082358,8.75918 2.979322,4.35269 6.003471,8.65155 6.000346,8.4363 0.0058,0.39791 -2.724356,-3.37099 -5.601121,-7.12484 -2.863109,-3.73602 -5.864858,-7.44824 -5.863053,-6.84785 0.0033,1.12195 3.265597,6.1453 6.296371,10.63283 3.057558,4.52718 5.954842,8.6064 5.949268,8.03834 6.39e-4,0.065 -3.028139,-4.43993 -6.232514,-8.86188 -3.204378,-4.42196 -6.577686,-8.76088 -6.575178,-8.3637 0.0058,0.93573 3.292826,5.92037 6.349036,10.52023 3.077627,4.63209 5.988654,8.97612 5.986237,8.79179 0.006,0.45894 -2.229883,-2.70936 -4.572749,-5.81305 -2.335581,-3.09406 -4.765254,-6.10922 -4.774632,-5.29581 -0.01558,1.354 3.208357,6.7388 6.18116,11.59312 2.998344,4.89602 5.826274,9.38668 5.827341,9.16091 -0.0021,0.44957 -3.663607,-5.27467 -7.615254,-10.94993 -3.936031,-5.65283 -8.188461,-11.32397 -8.180759,-10.65604 0.01382,1.2024 3.378928,6.66344 6.465392,11.4798 3.116839,4.86378 6.048715,9.205 6.034045,8.40477 -0.002,-0.11081 -2.857727,-4.72832 -5.891774,-9.12655 -3.029014,-4.39094 -6.228633,-8.58448 -6.221419,-7.81087 0.01246,1.32936 3.388781,6.96865 6.477007,12.07713 3.116692,5.15556 6.033225,9.92156 6.030293,9.73974 0.0083,0.5241 -2.235904,-2.93962 -4.607983,-6.35111 -2.363147,-3.39864 -4.840829,-6.72909 -4.849485,-5.87419 -0.01441,1.4265 3.280993,7.34664 6.271513,12.62411 3.021602,5.33231 5.839547,10.1865 5.840979,9.75535 -0.0011,0.31479 -3.261829,-5.36321 -6.806126,-10.91501 -3.532383,-5.53313 -7.358846,-10.99606 -7.356073,-10.15781 0.0047,1.40911 3.410623,7.52589 6.482459,13.04046 3.104847,5.57384 5.978069,10.72325 5.975749,10.49393 0.0055,0.53413 -2.771397,-4.13861 -5.770446,-8.99616 -2.985043,-4.83486 -6.193364,-9.82101 -6.193364,-9.82101 0,0 3.47826,5.64252 6.672851,10.99923 3.206499,5.37666 6.15474,10.45381 6.151236,9.39514 -0.0062,-1.9101 -2.802136,-7.80163 -5.920126,-13.34997 -3.083447,-5.48687 -6.377057,-10.44615 -6.377972,-10.18443 0.0013,-0.38705 3.784865,5.28719 7.284353,10.85518 3.511676,5.58738 6.726456,11.01034 6.734483,10.21766 0.01636,-1.60977 -2.717251,-7.20073 -5.748648,-12.50766 -3.001831,-5.25517 -6.20822,-10.07103 -6.211593,-9.87181 0.0074,-0.44167 2.474149,3.14093 4.808353,6.54679 2.34258,3.41807 4.575345,6.68681 4.565945,5.67851 -0.01656,-1.77423 -2.866916,-7.25495 -5.992096,-12.38999 -3.095119,-5.08566 -6.367413,-9.67745 -6.36678,-9.42688 -8.86e-4,-0.35956 3.174712,4.05031 6.175484,8.46231 3.000774,4.41201 5.826527,8.82614 5.82248,8.47511 -0.01246,-1.08137 -2.884258,-6.1554 -6.003672,-10.9922 -3.095177,-4.79922 -6.362169,-9.24847 -6.360487,-8.89237 -0.0012,-0.24486 4.20152,5.60653 8.107049,11.29419 3.916655,5.70385 7.53179,11.19537 7.541975,10.31178 0.01869,-1.61671 -2.732632,-6.80386 -5.736595,-11.68106 -2.978362,-4.83561 -6.127713,-9.23655 -6.130712,-9.07297 0.0078,-0.42894 2.426262,2.81374 4.735953,5.9134 2.316592,3.10893 4.541526,6.09378 4.535853,5.19545 -0.01013,-1.58888 -2.860982,-6.61673 -5.944485,-11.23431 -3.055331,-4.57539 -6.259132,-8.63541 -6.259405,-8.07771 8e-6,-0.0167 3.349616,4.53504 6.520214,8.96825 3.178846,4.44474 6.171731,8.73639 6.17029,8.25733 -0.0035,-1.16086 -2.842523,-5.93782 -5.899181,-10.44189 -3.034967,-4.47211 -6.218121,-8.57546 -6.219433,-8.22927 8.24e-4,-0.21729 2.977435,3.68788 5.818301,7.44137 2.844021,3.75766 5.55714,7.35114 5.550813,6.53131 -0.01129,-1.47342 -2.471474,-5.72056 -5.161714,-9.68341 -2.672684,-3.93698 -5.520136,-7.51207 -5.804008,-7.51207 0.135923,0 3.0797,3.81023 5.863968,7.53413 2.78427,3.7239 5.414839,7.36147 5.412899,7.01615 -0.0055,-0.973 -2.1196,-4.45575 -4.393491,-7.74855 -2.262566,-3.2764 -4.650596,-6.31365 -4.845908,-6.31365 0.224491,0 2.930928,3.44828 5.479765,6.72764 2.551039,3.28218 4.950626,6.38693 4.95184,5.71399 0.0047,-2.54897 -5.959031,-10.72177 -6.21223,-10.72177 0.586402,0 6.333746,7.88231 6.337266,6.47741 0.0065,-2.57074 -2.766478,-6.31473 -3.044108,-6.31473 0.561971,0 0.546615,-0.0228 0.536239,-0.8781 -0.0242,-1.99529 -0.427052,-2.51514 -0.716898,-2.51514 0.559627,0 2.804825,2.62002 2.804825,2.62002 z m -23.225511,-1.38501 c 0,0 -0.267301,1.11894 -0.940924,-1.05139 -0.09296,-0.29953 -0.48011,-0.80792 -1.534634,-0.80792 -0.947062,0 0.684384,2.76257 2.468281,5.46198 1.783895,2.69941 3.723326,5.33565 3.648985,5.08299 0.436023,1.48188 -5.602025,-6.80311 -6.735946,-6.80311 -0.986761,0 1.473643,3.96253 3.999819,7.7687 2.533998,3.81795 5.125759,7.4442 4.944653,6.83057 0.131113,0.44421 -2.464667,-3.23309 -5.374168,-7.06176 -2.900071,-3.81626 -6.099319,-7.74667 -6.629633,-7.74667 -0.950117,0 3.181687,6.1703 7.197222,12.25289 4.015535,6.0826 7.92427,12.07747 7.822021,11.72662 0.236714,0.81224 -3.576751,-4.90948 -7.943469,-10.92879 -4.345619,-5.99023 -9.21708,-12.1908 -9.753503,-12.1908 -0.956223,0 8.214929,12.9873 16.16946,25.90307 7.954532,12.91576 14.708561,25.75999 14.705726,25.47382 0.0052,0.53413 -7.217436,-13.12354 -16.167361,-26.91474 -8.949925,-13.7912 -19.659435,-27.71594 -20.003467,-27.71594 -0.76383,0 9.866621,14.546 18.861715,29.03441 8.995093,14.48842 16.36934,28.91924 16.365096,28.68887 0.01149,0.62655 -7.678989,-14.29815 -17.425763,-29.37949 -9.746772,-15.08133 -21.591388,-30.31931 -21.961376,-30.31931 -0.78979,0 12.061255,16.9305 22.636896,33.86101 10.621227,17.00348 18.875881,33.86101 18.875881,33.86101 0,0 -7.512331,-16.46774 -17.54886,-33.07242 -9.995147,-16.5362 -22.43172,-33.0724 -22.761399,-33.0724 0.09012,0 11.89833,15.52361 21.604092,30.74776 9.705762,15.22417 17.390832,30.14886 17.376903,28.95104 -0.02711,-2.3303 -6.755336,-16.20998 -15.568667,-30.40269 -8.642204,-13.91714 -18.909802,-27.32059 -19.265438,-27.32059 0.06416,0 10.735814,14.19817 19.653536,28.1261 8.917724,13.92792 16.148986,27.58559 16.145625,26.50458 -0.0066,-2.12008 -6.136822,-14.52679 -13.883996,-27.11444 -7.612536,-12.36889 -16.478415,-24.26245 -16.64166,-24.26245 0.256554,0 5.232824,6.59795 9.657663,12.78688 4.42904,6.19481 8.346033,11.96295 7.882019,10.33271 -0.831203,-2.92032 -4.171326,-8.73118 -7.714166,-14.11099 -3.48225,-5.2878 -6.972586,-9.86853 -7.141938,-9.86853 0.250446,0 3.546633,4.29109 6.538872,8.28769 2.991981,3.99626 5.703936,7.69907 5.364185,6.52075 -1.303277,-4.51997 -8.579736,-14.59927 -8.845151,-14.59927 0.287094,0 2.203367,2.40244 3.900684,4.45406 1.689649,2.04233 3.195009,3.76165 2.788978,2.34905 -1.377918,-4.79384 -5.700711,-10.54497 -6.045525,-10.54497 0.494787,0 1.817183,1.75676 1.529136,0.80792 -0.857196,-2.82367 -0.250404,-0.52581 -0.250404,-0.52581 z m 22.788919,67.18992 c 0,0 -7.714731,-16.76902 -17.964787,-33.57403 -10.205478,-16.73192 -22.824897,-33.35364 -22.822555,-32.91286 0.0052,1.00362 11.501248,16.92309 20.918645,32.59167 9.417398,15.66857 16.821933,31.08624 16.971437,31.08624 -0.270297,0 -7.919778,-15.75734 -17.642399,-31.42804 -9.722623,-15.67069 -21.4947,-31.25475 -21.490323,-30.90819 0.01168,0.91947 10.897944,16.07936 19.918441,31.0094 9.020498,14.93003 16.232555,29.6302 16.461458,29.6302 -0.190894,0 -7.271686,-14.42785 -16.099815,-28.77841 -8.828131,-14.35055 -19.384258,-28.62382 -19.381933,-28.31464 0.0066,0.89016 10.25073,15.45975 18.757765,29.8068 8.507036,14.34705 15.330447,28.47156 15.48148,28.47156 -0.268773,0 -7.117665,-14.01673 -15.5936,-27.9581 -8.475933,-13.94138 -18.560586,-27.80741 -18.558441,-27.50602 0.0065,0.89198 9.592787,14.78125 17.634709,28.44752 8.041923,13.66628 14.590195,27.10957 14.852689,27.10957 -0.157305,0 -4.101434,-8.05989 -8.472876,-15.81647 -4.330537,-7.684 -9.148257,-15.28243 -8.761623,-13.99661 0.69575,2.31384 5.174824,10.7261 8.758513,17.68135 3.722971,7.22557 6.976539,13.80512 7.323015,13.80512 -0.07334,0 -3.426167,-7.00576 -7.012116,-13.46671 -3.596894,-6.48066 -7.328109,-12.35737 -6.679418,-10.19787 1.063733,3.54118 3.948788,9.82879 6.265858,14.65579 2.402043,5.00403 4.509665,9.07851 4.92485,9.07851 -0.0047,0 -2.145082,-4.52299 -4.314306,-8.57083 -2.187174,-4.08135 -4.316336,-7.58706 -3.765233,-5.72004 2.166544,7.33983 5.992874,15.49942 6.890431,15.49942 0.02898,0 -1.823611,-4.00004 -3.730277,-7.71474 -1.908139,-3.71756 -3.845422,-7.14118 -3.490654,-6.00271 1.938906,6.22206 3.660339,9.90585 3.876892,9.90585 -0.608635,0 0.601525,3.16598 0.601525,3.16598 0,0 -1.025802,-1.58877 0.153352,-1.58877 1.011192,0 -0.176466,-3.54721 -1.554263,-6.55904 -1.412719,-3.08819 -2.884716,-5.41194 -2.255238,-3.34683 0.05236,0.17179 1.807041,3.60115 3.512518,6.98756 1.705477,3.38642 3.364201,6.72988 3.615089,6.72988 0.670691,0 -1.016975,-4.39907 -2.961751,-8.53603 -1.94067,-4.12822 -4.128098,-8.02055 -3.823234,-6.96337 -0.21193,-0.73492 1.775768,2.86577 3.748024,6.60473 1.979631,3.75294 3.94981,7.68614 4.234293,7.68614 0.704282,0 -1.788704,-6.12646 -4.752986,-12.15646 -2.96428,-6.03001 -6.389505,-11.96359 -6.276255,-11.57784 -0.349837,-1.1916 3.224458,4.80127 6.590927,10.96735 3.387412,6.20446 6.586421,12.69722 6.939614,12.69722 0.772992,0 -2.753549,-8.40743 -7.002387,-16.54695 -4.192649,-8.03189 -9.211505,-16.11878 -8.864934,-14.93952 -0.08796,-0.29929 4.442459,7.15399 8.615551,14.68208 4.173093,7.52809 7.978952,15.13101 8.416124,15.13101 0.856974,0 -5.434838,-14.23072 -13.687098,-28.29072 -8.252261,-14.05999 -18.422547,-27.94926 -18.422333,-27.26636 2.8e-5,0.0923 9.821146,13.95835 18.126282,27.80129 8.305136,13.84295 15.099786,27.66281 15.648422,27.66281 0.968439,0 -5.588901,-14.89914 -14.302527,-29.63351 -8.713625,-14.73437 -19.540707,-29.30396 -19.540236,-28.64484 5.6e-5,0.0782 10.289518,14.3514 18.943948,28.60513 8.654432,14.25373 15.67862,28.48792 16.149386,28.48792 0.890567,0 -6.050915,-15.46404 -15.276525,-30.77601 -9.22561,-15.31197 -20.694377,-30.47187 -20.690831,-29.86358 2.07e-4,0.0354 11.494475,15.61943 21.03345,31.19464 9.538972,15.57521 17.125021,31.14156 17.675186,31.14156 0.969965,0 -6.147895,-16.16811 -15.763155,-32.2119 -9.615258,-16.0438 -21.692973,-31.96327 -21.693713,-31.46599 9.7e-5,-0.0655 12.179544,16.16187 22.082656,32.40568 9.943806,16.31055 17.525292,32.50401 17.525292,32.50401 z M 62.120282,144.85625 c 0,0 -2.959156,-4.91255 -6.136283,-9.70629 -3.163069,-4.77255 -6.542153,-9.45512 -6.544012,-8.91 -0.0037,1.0894 3.277017,6.46871 6.294868,11.29847 3.048628,4.87902 5.909715,9.30884 5.907803,8.74552 4.1e-4,0.1209 -2.889207,-4.55436 -5.969209,-9.04318 -3.074834,-4.48129 -6.334346,-8.79875 -6.336799,-7.92461 -0.0041,1.42799 3.30526,7.14923 6.324864,12.17254 3.053011,5.07887 5.915245,9.59677 5.912444,8.89596 3.1e-5,0.007 -2.781539,-4.67949 -5.752908,-9.20117 -2.964545,-4.5113 -6.118586,-8.8881 -6.122136,-8.20727 -0.0065,1.24415 3.301788,6.98075 6.315234,12.0473 3.046556,5.12221 5.895326,9.7101 5.894095,8.93517 -8e-5,-0.0503 -3.148241,-5.52673 -6.553324,-10.89896 -3.405082,-5.37223 -7.05715,-10.64033 -7.055755,-10.27419 0.0037,0.95298 3.37034,6.5871 6.443815,11.78853 3.100097,5.24648 5.985242,10.19542 5.983204,10.00329 0.0057,0.53562 -2.835167,-4.14544 -5.901415,-8.90546 -3.055198,-4.74286 -6.315985,-9.51318 -6.314875,-9.07028 0.0026,1.03769 3.383939,6.88732 6.448913,12.13946 3.101158,5.31414 5.97353,10.15588 5.96731,9.4878 8.02e-4,0.0863 -3.078372,-5.38072 -6.414363,-10.64899 -3.327353,-5.25462 -6.909196,-10.35146 -6.901481,-9.45671 0.01266,1.47601 3.470448,7.75905 6.572535,13.36103 3.137866,5.6666 6.035092,10.84599 6.028796,10.43778 0.006,0.38826 -2.397599,-3.86407 -4.965906,-8.05072 -2.56141,-4.17541 -5.295916,-8.31887 -5.300829,-7.65671 -0.0093,1.26412 3.371389,7.63842 6.39037,13.34474 3.054139,5.77277 5.859806,11.07691 5.860141,10.53301 -1.72e-4,0.28267 -2.732961,-4.96941 -5.710809,-10.08292 -2.968906,-5.09816 -6.187034,-10.1038 -6.195664,-9.25148 -0.0148,1.45654 3.381632,8.18885 6.381849,14.09155 3.045537,5.99186 5.822013,11.36174 5.824745,10.53924 -9.3e-5,0.0282 -3.219428,-6.59929 -6.817562,-13.12748 -3.598137,-6.52819 -7.563498,-12.95704 -7.561109,-12.53141 0.006,1.06414 3.513474,7.6849 6.614016,13.55437 3.144498,5.95268 6.003712,11.34626 5.991615,10.37206 -0.0013,-0.10821 -2.404051,-5.03077 -5.014077,-9.71149 -2.604917,-4.67155 -5.406177,-9.12875 -5.415317,-8.26044 -0.01597,1.51083 3.102318,7.98154 5.958695,13.82237 2.891693,5.91305 5.628175,11.41286 6.023362,11.34294 0.007,-8.2e-4 -2.796402,-6.08487 -5.921264,-12.03224 -3.124865,-5.94737 -6.556543,-11.75848 -6.560305,-11.21466 -0.0086,1.22715 2.761805,6.95192 5.335052,12.18889 2.600612,5.29267 5.084267,10.26462 5.449065,10.26462 -0.05501,0 -2.402195,-4.98836 -4.951434,-9.80061 -2.541553,-4.79774 -5.284668,-9.46292 -5.292812,-8.744 -0.01597,1.41343 2.219068,6.39837 4.293391,10.87861 2.095881,4.52682 4.097512,8.68863 4.286715,8.68863 -0.2306,0 -2.417213,-4.49522 -4.720219,-8.77249 -2.299191,-4.27018 -4.704645,-8.34365 -4.708875,-7.46473 -0.01597,3.31386 5.563923,14.72652 6.308789,14.72652 -0.04738,0 -1.491883,-3.03983 -3.004243,-5.83213 -1.513641,-2.79467 -3.078543,-5.33471 -3.085277,-4.34696 -0.02458,3.60388 3.323534,10.64391 3.769125,10.64391 -0.197004,0 -1.595739,-2.79313 -3.007423,-5.31 -1.414282,-2.52149 -2.821634,-4.75281 -2.809829,-3.65233 0.042,3.91568 0.483006,4.89509 0.928596,4.89509 -0.387991,0 0.303213,2.04625 0.303213,2.04625 0,0 -0.501925,-0.46905 0.451505,-0.46905 1.793349,0 -0.897773,-5.52726 -0.895294,-4.89509 -0.0043,-1.07327 4.802533,8.96233 5.75628,8.96233 0.896674,0 0.04328,-2.84244 -1.104967,-5.59416 -1.145546,-2.74521 -2.586713,-5.4192 -2.591745,-5.04976 0.0062,-0.45261 1.411174,2.09961 2.832308,4.75288 1.423123,2.657 2.860725,5.42622 3.187961,5.42622 0.747036,0 -0.673587,-3.89996 -2.413117,-7.69075 -1.733848,-3.77842 -3.790269,-7.4848 -3.795487,-7.03577 0.0041,-0.34845 2.22801,3.71085 4.430661,7.85728 2.202653,4.14641 4.377504,8.37994 4.887968,8.37994 0.930267,0 -0.949642,-5.16926 -3.294614,-10.1998 -2.334853,-5.00882 -5.141914,-9.94405 -5.152369,-9.36744 0.0037,-0.20068 2.556087,4.43547 5.002016,9.12179 2.445929,4.68633 4.781197,9.42282 5.116067,9.42282 0.754671,0 -1.597659,-5.95733 -4.446354,-11.74267 -2.83575,-5.75907 -6.17521,-11.42503 -6.185008,-10.71084 7.01e-4,-0.0512 3.250472,5.78286 6.268182,11.61851 3.017708,5.83564 5.803186,11.67293 6.055232,11.6284 0.64067,-0.11316 -1.955086,-6.57818 -5.069674,-12.92805 -3.114587,-6.34985 -6.735158,-12.58458 -6.741178,-12.23726 0.0066,-0.37657 2.784101,4.35416 5.359371,9.06016 2.58655,4.7266 4.950311,9.36664 4.947755,8.91176 -0.008,-1.42227 -2.786698,-7.64213 -5.946002,-13.54751 -3.115073,-5.82271 -6.49593,-11.15172 -6.496849,-10.37893 -5.9e-5,0.0492 3.930137,6.76492 7.474859,13.31787 3.544721,6.55295 6.723153,12.9431 6.729248,12.34103 0.01558,-1.53209 -2.668266,-7.71498 -5.726248,-13.65821 -3.022318,-5.87391 -6.30723,-11.30022 -6.312778,-10.97259 0.0062,-0.37111 3.188768,4.87935 6.126523,10.01417 2.947262,5.15142 5.642354,10.13735 5.648416,9.32024 0.01285,-1.72763 -2.702206,-7.8034 -5.773326,-13.54551 -3.035131,-5.6748 -6.307889,-10.81408 -6.314741,-10.33224 0.0027,-0.19782 2.711232,4.18866 5.24877,8.39478 2.541399,4.21251 4.918973,8.22549 4.911104,7.31264 -0.01539,-1.77799 -2.836774,-7.71218 -5.987906,-13.34975 -3.116323,-5.57529 -6.451912,-10.66713 -6.451517,-10.44905 -8.02e-4,-0.44143 3.547345,4.88296 6.841718,10.16871 3.307912,5.3075 6.338781,10.51119 6.337342,9.93698 -0.0035,-1.41323 -2.805787,-7.03185 -5.913071,-12.31006 -3.071439,-5.21732 -6.353253,-9.9601 -6.356016,-9.31719 5e-5,-0.0118 3.235243,5.00682 6.253811,9.76605 3.022524,4.76546 5.84416,9.25283 5.840187,8.20969 -0.007,-1.85025 -2.820256,-7.52975 -5.933417,-12.75686 -3.077598,-5.1674 -6.34328,-9.72568 -6.345348,-9.03496 -1.65e-4,0.0551 3.622386,5.56647 6.985162,10.95501 3.362776,5.38854 6.477598,10.65428 6.47987,10.21814 0.0062,-1.21011 -2.76664,-6.55223 -5.817892,-11.64306 -3.024753,-5.0466 -6.244244,-9.70927 -6.248687,-9.33942 0.0031,-0.25432 3.12686,4.33959 6.063696,8.87617 2.946503,4.55153 5.691598,9.00094 5.692914,8.53228 0.0035,-1.23914 -2.785942,-6.49913 -5.841813,-11.54722 -3.030496,-5.00616 -6.250688,-9.67468 -6.252162,-9.52128 0.0045,-0.47473 3.246424,4.09062 6.280888,8.57666 3.054719,4.51599 5.907746,8.95961 5.909683,8.39113 0.0044,-1.31518 -2.789084,-6.47907 -5.83948,-11.32947 -3.024751,-4.80963 -6.222036,-9.18343 -6.226825,-8.71452 0.0013,-0.13096 3.057675,4.12882 5.954776,8.42133 2.900526,4.29759 5.632506,8.61776 5.632506,8.61776 z m 64.792338,-24.21368 c 0,0 -3.58927,-5.34751 -5.3475,-6.20534 -1.51979,-0.74149 -0.26277,1.59685 1.32319,3.98552 1.58794,2.39165 3.49584,4.82149 3.48706,4.2779 0.002,0.11927 -5.14206,-7.00168 -5.95884,-7.22573 -0.93477,-0.2564 1.01148,2.88085 3.1066,6.02535 2.09512,3.1445 4.3387,6.29625 4.33942,6.06884 -8.8e-4,0.37306 -2.57596,-3.18337 -5.39694,-6.87266 -2.8156,-3.68222 -5.87376,-7.47612 -6.37141,-7.54268 -0.9641,-0.12898 1.84161,4.20188 4.72985,8.45876 2.88823,4.25689 5.86457,8.43979 5.86288,8.0149 7.8e-4,0.19677 -3.1967,-4.41988 -6.67028,-9.09133 -3.47356,-4.67146 -7.22755,-9.39771 -7.60688,-9.42016 -0.8188,-0.0484 2.67081,5.08339 6.14419,10.14955 3.47338,5.06615 6.93624,10.06662 6.93267,9.75542 0.004,0.32299 -3.53601,-4.78687 -7.4299,-9.97675 -3.8939,-5.18987 -8.14909,-10.45977 -8.6665,-10.45685 -0.93542,0.005 2.7544,5.48959 6.53969,10.97259 3.78529,5.48299 7.66617,10.96465 8.11342,10.96465 0.0275,0 -2.88496,-4.38561 -6.10279,-8.76424 -3.21784,-4.37864 -6.74057,-8.7503 -7.29452,-8.72241 -0.95868,0.0483 2.59013,5.51811 6.21734,10.97585 3.62721,5.45776 7.33391,10.90343 7.68039,10.90343 -0.0734,0 -3.6423,-5.44332 -7.4874,-10.88204 -3.8451,-5.43872 -7.96591,-10.87285 -8.15741,-10.85447 -0.58348,0.0559 3.12455,5.49594 6.80286,10.92187 3.67833,5.42594 7.32821,10.83788 7.60597,10.83788 -0.14204,0 -3.78408,-5.50352 -7.7303,-10.99425 -3.94621,-5.49072 -8.19543,-10.96865 -8.54587,-10.91748 -1.45862,0.21299 3.61754,7.21931 4.14685,7.22109 -0.3123,-8.3e-4 -6.62348,-8.67054 -7.37035,-8.50361 -1.3595,0.30385 3.90469,7.76809 4.55322,7.2828 0.0696,-0.0521 -7.8465,-10.7848 -8.31754,-10.65585 -1.063412,0.29114 4.77137,8.3766 5.08046,7.8037 -0.0638,0.11822 -2.20989,-2.81165 -2.55659,-2.6967 -0.90152,0.29892 5.50671,9.48072 5.56762,9.04524 -0.0844,0.60335 -5.9746,-7.63271 -6.49924,-7.3967 -0.57821,0.26011 1.30749,3.37281 3.25147,6.26502 1.94494,2.89368 3.95737,5.56244 3.91788,4.94201 0.004,0.0541 -1.95049,-2.77573 -4.05198,-5.5736 -2.10149,-2.79787 -4.34899,-5.56372 -4.66686,-5.38153 -0.613818,0.35182 1.70999,4.14365 4.05485,7.68473 2.34741,3.54496 4.72565,6.82753 4.6484,6.18022 0.0129,0.10771 -2.54798,-3.65825 -5.27531,-7.41937 -2.72731,-3.76113 -5.620803,-7.51742 -5.795211,-7.39035 -0.447918,0.32632 2.470801,4.39876 5.369301,8.38963 2.90119,3.99456 5.78198,7.90016 5.78198,7.90016 0,0 -2.23773,-3.77692 -4.66994,-7.51009 -2.42976,-3.72941 -5.045843,-7.40756 -5.328641,-7.20251 -0.008,0.006 2.900321,4.01504 5.660271,7.86943 2.76522,3.86177 5.38143,7.54659 5.31305,6.9403 -0.30958,-2.7451 -8.26021,-14.06597 -8.61225,-13.86495 0.12104,-0.0691 2.37064,2.92209 4.50788,5.80437 2.13981,2.88573 4.16768,5.65215 4.13906,5.15076 -0.13187,-2.3096 -6.44949,-11.49691 -7.09579,-11.20703 0.10377,-0.0465 6.26482,8.66613 6.45068,7.3967 0.32857,-2.24399 -4.65478,-9.32762 -5.50824,-9.04525 -0.10321,0.0342 2.23297,3.25691 2.53888,2.69671 0.65637,-1.20193 -4.26285,-8.01315 -5.02925,-7.8037 0.003,-8.3e-4 2.05282,2.71812 4.07639,5.40994 2.02357,2.69182 4.02297,5.3563 4.17123,5.24591 0.81827,-0.6093 -3.95911,-7.40473 -4.50544,-7.2828 0.26747,-0.0597 6.44119,8.50068 7.31454,8.5036 1.71493,0.006 -3.53693,-7.30315 -4.09945,-7.22109 0.098,-0.0144 4.17025,5.46365 8.07345,10.94515 3.90321,5.48151 7.63701,10.96659 8.05891,10.96659 0.8417,0 -2.2457,-5.4621 -5.90736,-10.91313 -3.66165,-5.45101 -7.89655,-10.89095 -8.35865,-10.84663 -0.0698,0.007 3.87463,5.44084 7.6793,10.87328 3.80467,5.43246 7.46964,10.86324 7.82284,10.86324 0.77299,0 -2.35599,-5.47286 -5.95766,-10.94419 -3.60166,-5.47134 -7.67586,-10.94115 -7.79648,-10.93508 0.28423,-0.0144 3.63805,4.35735 6.82459,8.73259 3.18654,4.37524 6.20555,8.75406 6.45797,8.75406 0.67222,0 -2.61506,-5.48482 -6.3656,-10.96939 -3.75052,-5.48456 -7.96426,-10.96887 -8.14354,-10.96787 0.23875,-0.002 4.4759,5.47995 8.40332,10.77514 3.93698,5.30807 7.56259,10.39135 7.55898,9.65847 -0.007,-1.41199 -2.87911,-6.31377 -6.05307,-10.9718 -3.15217,-4.62602 -6.54018,-8.91227 -6.89316,-8.93317 0.0863,0.005 3.823,4.93859 7.33669,9.71798 3.52197,4.79068 6.81742,9.39343 6.81899,8.7935 0.004,-1.25495 -2.35255,-5.31049 -4.9234,-9.13341 -2.55601,-3.80084 -5.28167,-7.30282 -5.56122,-7.34025 0.18651,0.025 3.22905,4.02137 6.09542,7.81525 2.86909,3.79747 5.57069,7.38164 5.57833,6.6001 0.0272,-2.78529 -6.43056,-11.83695 -7.36666,-12.09419 0.11476,0.0315 5.92033,8.15397 5.91142,7.22573 -0.0208,-2.16684 -4.23733,-8.00954 -4.75601,-8.26342 0.86497,0.42337 4.18168,4.62814 4.18168,4.62814 z m -14.02431,3.18993 c 0,0 1.6899,2.80054 3.38052,5.60106 1.69064,2.80053 3.382,5.60107 3.64602,5.60107 -0.31156,0 -5.65424,-7.94042 -5.66457,-6.68272 -0.0203,2.46965 3.50088,7.7983 4.4473,7.7983 0.10682,0 -3.98271,-6.15276 -3.99195,-5.32261 -0.0229,2.05521 2.5749,6.01985 3.26479,6.01985 -0.14971,0 -3.68418,-5.35383 -3.68966,-4.71679 -0.0161,1.87641 1.44423,4.11252 1.77682,4.11252 -0.507,0 -1.626,-1.71119 -1.63615,-0.66136 -0.0223,2.31403 -0.93842,0.91701 -0.16607,0.91701 -0.0639,0 -1.36705,-1.55978 -1.36705,-1.55978 0,0 1.77474,3.13698 2.38808,3.13698 1.46658,0 0.18925,-1.97421 0.17207,-0.91701 0.004,-0.20703 0.56508,0.66136 1.63182,0.66136 1.90634,0 -1.72815,-5.54116 -1.74983,-4.11253 -0.003,0.18923 2.94927,4.71681 3.6587,4.71681 1.54905,0 -3.20384,-7.23143 -3.22527,-6.01986 2.3e-4,-0.0135 3.50409,5.32261 3.95701,5.32261 1.29252,0 -4.38485,-8.56052 -4.39612,-7.7983 0.006,-0.44973 4.74942,6.68271 5.62071,6.68271 0.85544,0 -1.0739,-3.19483 -3.30205,-6.38966 -2.22632,-3.19219 -4.75512,-6.38966 -4.75512,-6.38966 z m 12.53675,26.18248 c 0,0 1.68118,4.79246 1.52552,3.94474 0.23607,1.28563 -5.68137,-8.69013 -7.39213,-10.3224 -1.88789,-1.80125 0.80222,3.09109 3.73348,8.25088 2.9496,5.19209 6.08222,10.56864 6.08574,9.89733 -3.2e-4,0.0611 -2.24464,-4.03316 -4.89146,-8.38541 -2.66964,-4.38976 -5.67211,-8.925 -6.76742,-9.93355 -2.03994,-1.87838 0.68121,3.13563 3.66501,8.4403 3.00481,5.34201 6.20807,10.8825 6.20264,10.24374 8.8e-4,0.11129 -3.29256,-5.90781 -7.12414,-12.21285 -3.90102,-6.41931 -8.12482,-12.78176 -9.17062,-13.92855 -2.41884,-2.65239 2.54821,5.34349 7.51864,13.86976 4.97081,8.52689 9.85673,17.5861 9.86068,17.06352 -0.002,0.26722 -6.51205,-12.0495 -14.3485,-24.38482 -7.83645,-12.33533 -17.003209,-24.68925 -17.206988,-24.49642 -0.452419,0.42813 8.271328,12.99198 15.833378,25.36047 7.56206,12.3685 14.00252,24.54164 14.06562,24.18834 -0.044,0.24662 -6.81632,-12.60269 -15.03437,-25.41138 -8.21806,-12.80868 -17.873039,-25.57674 -18.152895,-25.16765 -0.482702,0.70563 9.563625,15.20013 18.070945,29.43386 8.50733,14.23371 15.53663,28.20664 15.71511,27.8691 -0.0387,0.0733 -6.59352,-13.14382 -14.62701,-26.31257 -8.03349,-13.16876 -17.534958,-26.2892 -17.657457,-26.02271 -0.287336,0.62509 8.145917,13.06318 15.440227,25.2871 7.2943,12.22393 13.49254,24.23368 13.66537,24.00209 -0.0774,0.10367 -6.81819,-13.09447 -15.02245,-26.20348 -8.20427,-13.10901 -17.852113,-26.12887 -17.963211,-25.66861 -0.216311,0.89613 9.587821,15.17496 17.839431,29.20068 8.2516,14.02573 15.00813,27.79834 15.14703,27.68203 -0.15966,0.13364 -6.52327,-12.76325 -14.24341,-25.60233 -7.72014,-12.83907 -16.784186,-25.62027 -16.805126,-25.25514 -0.05287,0.92191 7.961116,13.01344 14.898066,24.82356 6.93695,11.81012 12.85052,23.33883 13.16136,23.13509 -0.006,0.004 -6.34427,-12.72981 -14.02961,-25.36747 -7.685352,-12.63765 -16.697052,-25.17936 -16.692703,-24.79177 0.0111,0.99195 9.468823,14.98911 17.450963,28.68408 7.98213,13.69496 14.55564,27.08774 14.94426,26.87093 0.0567,-0.0315 -2.13249,-4.70839 -4.48086,-9.13844 -2.34375,-4.42131 -4.83712,-8.62211 -4.69637,-7.65817 0.58652,4.01715 4.92151,12.58249 5.68206,12.23073 0.0386,-0.0177 -1.90943,-4.00564 -3.99638,-7.82421 -2.08296,-3.81127 -4.30131,-7.47519 -4.29345,-6.80868 0.0164,1.39013 2.20571,6.15758 4.23177,10.42854 2.04626,4.31355 3.99239,8.25836 4.11563,8.21609 -0.23755,0.0815 -1.78947,-2.88262 -3.35606,-5.7651 -1.56363,-2.87699 -3.14363,-5.68882 -3.14459,-5.27541 -0.005,2.41443 4.05152,10.6224 4.56432,10.48862 -0.23351,0.0609 -4.95399,-9.40884 -5.58697,-8.42292 -1.09915,1.71202 2.36312,8.7541 3.04687,8.64549 -0.0966,0.0145 -4.05486,-7.98297 -4.44807,-7.89602 -0.57376,0.12689 0.61116,3.07357 1.91056,5.98382 1.29939,2.91026 2.71497,5.78409 2.88172,5.76526 -0.46442,0.0524 -4.2977,-7.95481 -4.75834,-8.00737 -1.34365,-0.15331 0.43463,3.47611 1.1345,3.42492 -0.0394,0.003 -3.67173,-6.64011 -3.67173,-6.64011 0,0 3.87826,8.25733 4.42575,8.21731 1.46175,-0.10681 -0.0845,-3.30759 -1.11203,-3.42493 -0.0873,-0.01 3.75447,8.11478 4.7058,8.00738 0.89781,-0.10138 0.008,-3.08642 -1.28811,-6.02224 -1.29569,-2.93579 -2.99443,-5.82237 -3.42707,-5.72684 -0.33386,0.0737 4.09053,7.94452 4.39624,7.89601 1.51397,-0.24027 -2.85656,-8.85142 -2.99012,-8.64549 0.32549,-0.50184 4.79939,8.61363 5.53168,8.42293 0.73994,-0.19269 -0.3084,-3.27696 -1.61889,-6.08201 -1.31162,-2.80749 -2.86839,-5.32843 -2.87658,-4.40662 -8.9e-4,0.12494 1.43117,2.96705 2.91787,5.73693 1.4867,2.76988 3.03116,5.46754 3.51031,5.3036 0.84076,-0.28768 -1.02267,-5.26382 -3.29463,-10.01054 -2.26499,-4.73217 -4.93377,-9.27861 -4.9304,-8.63409 -7.5e-4,-0.14356 2.06917,3.55845 4.07055,7.27446 2.00138,3.71599 3.93333,7.44599 4.12325,7.35842 0.53271,-0.24564 -0.83265,-3.70353 -2.39795,-6.89991 -1.56479,-3.1953 -3.31561,-6.13232 -3.20385,-5.33082 -0.0353,-0.25296 2.3039,3.9921 4.53893,8.27744 2.23502,4.28534 4.3629,8.61097 4.52807,8.51917 0.49829,-0.27698 -5.86346,-14.47559 -14.0096,-28.45003 -8.14615,-13.97444 -18.023901,-27.72471 -18.021015,-27.10499 7.2e-5,0.0154 8.810085,12.62623 16.351845,25.19774 7.54173,12.57152 13.82347,25.10366 14.04127,24.96151 0.53581,-0.3497 -5.1595,-12.62075 -12.23215,-24.66369 -7.07267,-12.04293 -15.476552,-23.85774 -15.512521,-23.29496 -3.86e-4,0.006 8.870721,12.87057 16.455211,25.65851 7.58449,12.78795 13.89889,25.49929 14.25954,25.19896 0.66085,-0.55031 -5.7905,-14.9041 -14.10439,-29.05375 -8.31389,-14.14965 -18.442736,-28.09517 -18.50874,-27.82896 0.04206,-0.16967 9.52218,12.96194 17.60921,26.05418 8.08701,13.09224 14.7897,26.1451 15.03601,25.8179 0.49871,-0.66246 -5.37009,-13.15035 -12.66418,-25.38982 -7.29408,-12.23948 -15.963518,-24.23055 -16.117931,-23.89937 0.01285,-0.0274 9.364731,13.22996 17.295881,26.4074 7.93116,13.17745 14.4593,26.27499 14.64511,25.92789 0.40571,-0.75787 -6.25827,-15.12616 -14.70962,-29.28371 -8.45134,-14.15755 -18.641573,-28.10435 -18.700353,-28.01925 0.146013,-0.21141 9.704173,12.75662 17.845553,25.61587 8.14138,12.85925 14.89005,25.60971 15.00976,24.96315 0.25767,-1.39172 -5.7568,-13.58808 -13.26124,-25.85875 -7.41561,-12.12542 -16.10061,-23.88938 -16.312568,-23.69006 0.03829,-0.036 9.156888,12.58123 16.943068,25.00897 7.78618,12.42774 14.28039,24.66603 14.29161,23.87228 0.0232,-1.64269 -3.1435,-8.4246 -7.0991,-15.40462 -3.98146,-7.02568 -8.47375,-13.75762 -10.07721,-15.52865 -0.0425,-0.047 4.37601,6.80535 8.41345,13.51095 4.03743,6.7056 7.71097,13.26445 7.70974,12.63044 -0.003,-1.44787 -2.00689,-5.79147 -4.31717,-10.00383 -2.30317,-4.19936 -4.83146,-8.12774 -5.42785,-8.68022 0.39762,0.36835 3.46281,5.23274 6.24178,9.86272 2.78548,4.64085 5.29029,9.01468 5.29688,8.45625 0.016,-1.35572 -1.85642,-5.43375 -4.08627,-9.45646 -2.22758,-4.01866 -4.73705,-7.8499 -5.61385,-8.69175 0.16762,0.16095 2.19586,3.41779 4.03945,6.29627 1.83769,2.86928 3.52604,5.38782 3.28494,4.02613 -0.85676,-4.83868 -2.43195,-5.52194 -2.43195,-5.52194 z m -14.72986,5.30781 c 0,0 -4.33021,-7.68252 -9.17213,-15.25819 -4.831909,-7.55998 -10.137456,-14.98173 -10.133392,-14.42882 0.0082,1.12095 3.714088,7.11414 7.364136,12.92798 3.644326,5.80472 7.408666,11.70755 8.378176,12.60221 0.10376,0.0958 -3.1404,-5.44609 -6.66826,-10.88047 -3.527837,-5.43437 -7.329092,-10.76128 -7.330769,-10.23567 -0.0068,2.10869 7.477019,13.79248 7.945689,14.22157 -0.60702,-0.55575 -3.059194,-4.25335 -5.384163,-7.64247 -2.343789,-3.41658 -4.615645,-6.60703 -4.6126,-6.28572 0.01734,1.83366 4.479714,8.68498 5.889776,10.04163 -0.656712,-0.63183 -4.198562,-5.65729 -4.198562,-5.65729 0,0 3.114901,5.22137 5.194083,7.23449 2.097996,2.03132 0.763321,-0.80101 -1.229769,-4.02754 -1.972972,-3.19396 -4.596262,-6.75364 -4.594107,-6.01409 5.74e-4,0.19684 7.356801,11.58078 9.905362,13.92819 2.21819,2.04313 0.43541,-1.73074 -2.086348,-5.9429 -2.497977,-4.17245 -5.760887,-8.80433 -5.766014,-8.27866 0.0012,-0.11447 3.429452,4.9292 6.770572,10.11917 3.34113,5.18996 6.58284,10.52623 7.08988,10.99697 1.45321,1.3492 -2.08711,-5.32247 -6.31173,-12.12224 -4.24246,-6.82849 -9.263399,-13.87128 -9.263035,-13.40797 -1.15e-4,-0.14641 4.969499,6.88104 9.523915,13.9451 4.56268,7.07687 8.68929,14.16472 8.68929,14.16472 z m -3.64346,0.39681 c 0,0 -2.57831,-4.97841 -3.04117,-4.97841 -1.2681,0 3.78342,8.81138 3.78906,7.7894 -0.003,0.46536 -1.66763,-2.49036 -2.80765,-2.49036 -1.97964,0 0.261,3.98699 0.24247,2.63618 0.003,0.19076 -4.26798,-7.26122 -4.70563,-7.26122 -0.638622,0 0.69695,2.8133 2.12557,5.54433 1.43153,2.73657 2.9542,5.37427 2.95057,5.0508 0.005,0.45514 -1.46962,-2.0365 -3.05978,-4.65179 -1.58831,-2.61226 -3.293765,-5.33906 -3.511059,-5.33906 -0.637099,0 1.637659,4.43042 3.909819,8.68459 2.27731,4.26381 4.55525,8.32246 4.55775,7.6271 -3.6e-4,0.0995 -1.67716,-3.08938 -3.52122,-6.3032 -1.84408,-3.21384 -3.85676,-6.45255 -4.18247,-6.45255 -0.745516,0 2.41762,6.18972 5.53943,12.3761 3.1218,6.18637 6.20263,12.36937 6.56724,12.35593 -0.048,0.002 -3.10431,-6.47176 -6.64331,-12.94573 -3.539,-6.47397 -7.560772,-12.94838 -8.144527,-12.94838 -1.00356,0 2.044954,6.16258 5.114097,12.32663 3.06914,6.16406 6.15875,12.32962 6.50195,12.33557 -0.0801,-0.002 -3.18765,-6.48069 -6.73039,-12.95965 -3.542756,-6.47896 -7.520641,-12.95758 -7.944073,-12.95758 -0.84323,0 2.529334,6.52662 5.815039,13.05728 3.285714,6.53066 6.484134,13.06537 6.711534,13.08156 -0.20703,-0.0145 -3.32088,-6.37773 -6.718225,-12.48707 -3.386588,-6.09001 -7.050244,-11.98432 -7.051724,-10.96509 -0.0023,1.66796 2.92204,7.84875 5.611609,13.41041 2.72168,5.62805 5.30566,10.83611 5.63034,10.89057 -0.13096,-0.022 -2.56873,-5.08004 -5.186323,-9.91335 -2.611852,-4.8227 -5.395273,-9.45244 -5.401025,-8.56473 -0.02123,3.27416 5.646733,14.4527 6.08055,14.58578 -0.27631,-0.0848 -2.128768,-3.65353 -4.015738,-7.08724 -1.882967,-3.42642 -3.800363,-6.73963 -3.797229,-6.27687 0.01675,2.48308 4.623616,11.51074 4.971377,11.68425 -0.765146,-0.38175 -5.337883,-9.32156 -5.17493,-7.32534 0.318507,3.90183 3.963152,9.05783 3.963152,9.05783 0,0 -3.231793,-8.65092 -3.143942,-7.48063 -0.05459,-0.72715 3.624713,6.57341 5.126858,7.32533 1.311793,0.65666 0.179814,-2.69782 -1.369746,-5.99288 -1.548445,-3.29271 -3.525128,-6.55137 -3.524951,-5.69136 1.6e-5,0.0686 1.716578,3.31677 3.497299,6.59425 1.780715,3.27748 3.624063,6.58423 4.227948,6.76985 1.09613,0.33693 -0.27012,-3.50427 -2.039312,-7.33232 -1.762184,-3.81289 -3.940221,-7.65812 -3.945499,-7.25345 0.0049,-0.37047 2.587947,4.2126 5.096931,8.90652 2.50898,4.69391 4.93491,9.49866 5.36915,9.57156 0.88937,0.14924 -1.55853,-6.03801 -4.55153,-12.20663 -2.993005,-6.16861 -6.529141,-12.31851 -6.530936,-12.09436 0.0041,-0.51028 3.459479,5.33508 6.741896,11.31686 3.28241,5.98176 6.37772,12.09996 6.87414,12.13531 0.93062,0.0664 -1.66238,-6.4684 -4.91428,-13.01969 -3.251899,-6.55129 -7.164511,-13.11915 -7.440747,-13.11915 0.143554,0 3.937628,6.47616 7.437307,12.95389 3.49969,6.47774 6.70481,12.95705 7.06705,12.96334 0.78547,0.0145 -1.70331,-6.15191 -4.73415,-12.32086 -3.03086,-6.16897 -6.604124,-12.34134 -6.72003,-12.34134 0.303891,0 4.14606,6.47949 7.64367,12.95599 3.4976,6.47651 6.65097,12.95004 6.97423,12.93812 0.73603,-0.0272 -1.74579,-6.21015 -4.82257,-12.38638 -3.07678,-6.17621 -6.74784,-12.34566 -7.12179,-12.34566 0.0458,0 2.04685,3.5069 3.93635,6.85483 1.89206,3.35248 3.67721,6.5323 3.68363,5.90092 0.015,-1.46845 -1.71566,-5.49045 -3.70821,-9.23621 -1.97769,-3.71779 -4.16994,-7.07547 -4.652317,-7.07547 -0.06257,0 1.635457,2.98921 3.275247,5.73266 1.63851,2.74129 3.23461,5.24333 3.23004,4.25819 -0.0164,-3.54038 -4.04492,-10.59512 -5.00662,-10.59512 -0.12207,0 4.6667,8.47969 4.65798,7.26121 -0.0198,-2.76005 0.0341,-2.63618 -0.22517,-2.63618 0.58029,0 2.7737,3.94729 2.79131,2.49035 0.0356,-2.94429 -2.7671,-7.78938 -3.73795,-7.78938 -0.1152,0 2.11363,3.4012 2.11363,3.4012 z m 57.11768,-42.87975 c 0,0 -2.1583,-1.37254 -2.16643,-1.81966 0.0117,0.68152 -1.12309,-0.80662 -1.60653,-0.80662 -1.32306,0 4.70604,8.05784 4.70585,7.55796 2.4e-4,0.64624 -3.02341,-3.44423 -3.67482,-3.44423 -1.44616,0 3.73829,5.58595 3.73829,5.58595 0,0 -1.79322,-4.00875 -2.56424,-4.00875 0.0917,0 3.64233,4.85456 3.65139,3.44423 0.0156,-2.55648 -3.73855,-7.55795 -4.65443,-7.55795 -0.0763,0 1.6173,2.24053 1.60106,0.80661 -0.029,-2.56257 0.96986,0.24246 0.96986,0.24246 z m -5.4806,0 c 0,0 2.80717,5.23239 3.37832,5.23239 -0.53341,0 -5.90134,-7.18466 -6.43475,-7.18466 -1.20617,0 3.71312,7.74246 4.91927,7.74246 -0.55477,0 -5.90541,-7.18467 -6.4602,-7.18467 -1.12397,0 2.98348,7.57977 4.10745,7.57977 0.28643,0 -6.43026,-7.18467 -6.71669,-7.18467 -1.08517,0 3.58448,8.0446 4.66964,8.0446 0.38416,0 -6.33032,-7.18467 -6.71448,-7.18467 -0.94402,0 0.86768,3.028 2.83695,5.90887 1.97101,2.88341 4.10418,5.61206 4.10441,5.02608 0,0.009 -6.64087,-9.12211 -7.68928,-9.12211 -0.94401,0 0.94512,3.16344 2.98414,6.18083 2.04117,3.02055 4.23631,5.88556 4.23484,5.30448 6e-5,0.0198 -2.12664,-3.02001 -4.45713,-6.06479 -2.33049,-3.04479 -4.86502,-6.09453 -5.36021,-6.09453 -0.915,0 1.28486,3.5472 3.60376,6.9151 2.32108,3.37108 4.7683,6.55337 4.76001,5.83939 -8.9e-4,-0.10275 -2.55132,-3.82011 -5.36156,-7.51179 -2.81024,-3.69167 -5.879,-7.35766 -6.45054,-7.35766 -0.99134,0 2.70411,5.52685 6.38473,10.88792 3.69175,5.3773 7.36271,10.54019 7.36304,9.89332 2e-5,-0.0364 -2.99572,-4.52868 -6.30506,-9.01183 -3.30934,-4.48316 -6.93158,-8.9572 -7.49243,-8.9572 -0.98066,0 2.64115,5.50836 6.24641,10.93083 3.60527,5.42249 7.20228,10.75909 7.20167,10.41558 5.3e-4,0.29934 -3.67057,-5.1709 -7.72788,-10.71597 -4.05731,-5.54508 -8.5082,-11.165 -8.99271,-11.165 -0.9043,0 3.85327,6.95812 8.41987,13.80577 4.56661,6.84767 8.95572,13.58487 8.95687,13.14304 -5.7e-4,0.21867 -4.16505,-6.26287 -8.82655,-12.79909 -4.6615,-6.53622 -9.82629,-13.1271 -10.34133,-13.1271 -0.93485,0 4.18022,7.49831 9.04397,14.92975 4.86376,7.43144 9.4849,14.79599 9.48443,14.52848 7.4e-4,0.41405 -3.43361,-4.95439 -7.12614,-10.32914 -3.69253,-5.37474 -7.64388,-10.7558 -7.64582,-10.36697 -0.004,0.92039 4.29475,7.61552 8.18057,13.76722 3.92248,6.20973 7.5425,12.05017 7.54501,11.5514 -8.8e-4,0.19763 -3.39056,-5.37459 -7.05368,-10.7906 -3.6528,-5.40076 -7.58362,-10.6911 -7.59353,-9.8534 -0.0161,1.36525 3.73351,7.69416 7.13009,13.39797 3.43115,5.76186 6.61842,11.07275 6.61785,10.69219 5.1e-4,0.34146 -3.41528,-5.35918 -7.11984,-10.99149 -3.68974,-5.6098 -7.69052,-11.21878 -7.6939,-10.58148 -0.006,1.16001 4.2469,8.23099 8.04589,14.63598 3.84109,6.47595 7.36003,12.49882 7.36178,11.91746 -4.9e-4,0.16237 -3.37544,-5.77113 -7.05885,-11.62761 -3.68343,-5.85647 -7.66712,-11.63591 -7.67174,-11.16543 -0.0104,1.04649 3.47511,7.00321 6.63924,12.4522 3.19372,5.49993 6.15615,10.64498 6.15228,10.3229 0.006,0.44188 -3.45328,-5.5215 -7.23008,-11.49972 -3.77681,-5.97823 -7.87347,-11.97129 -7.87148,-11.58877 0.005,0.95233 4.2039,7.95648 7.94434,14.31526 3.7935,6.449 7.23479,12.40335 7.22664,11.70725 7.8e-4,0.0654 -3.44367,-6.17759 -7.2256,-12.34201 -3.78191,-6.16443 -7.89263,-12.25024 -7.89076,-11.87036 0.004,0.93719 4.74852,8.88773 8.90535,16.10957 4.22454,7.33946 7.99163,14.13834 7.99359,13.36027 3e-5,-0.0114 -3.34834,-6.37355 -7.04631,-12.60567 -3.69799,-6.23213 -7.73104,-12.33432 -7.73578,-11.82611 -0.0101,1.09187 3.88481,8.00745 7.34689,14.30767 3.5013,6.37159 6.68909,12.34196 6.68745,11.9003 0.002,0.37377 -3.38146,-5.98095 -7.12278,-12.27831 -3.74132,-6.29737 -7.83438,-12.53738 -7.83626,-11.93421 -0.004,1.18732 4.11842,8.63598 7.73646,15.34505 3.66464,6.79547 6.97185,13.11051 6.96795,12.46254 8.9e-4,0.19669 -3.37844,-6.42955 -7.14209,-12.94149 -3.74408,-6.47809 -7.89759,-12.94342 -7.89815,-12.25565 -8.8e-4,1.245 4.14083,8.89719 7.75075,15.74951 3.67257,6.97126 6.9456,13.35173 6.93906,12.64801 0.002,0.14642 -3.38529,-6.70216 -7.17926,-13.36406 -3.77683,-6.63182 -7.97217,-13.16719 -7.96986,-12.24393 0.004,1.49052 4.18543,9.50214 7.82763,16.79773 3.69498,7.40125 7.00168,14.40347 7.12676,14.40347 -0.29473,0 -3.40171,-6.35041 -6.78284,-12.47069 -3.36888,-6.09813 -7.01013,-12.0326 -7.01589,-11.08998 -0.01,1.58589 2.88368,7.7097 5.51981,13.21788 2.6684,5.57561 5.17756,10.73789 5.43089,10.73789 -0.16647,0 -2.63441,-5.1342 -5.28827,-10.00619 -2.64955,-4.86409 -5.46914,-9.48964 -5.4774,-8.43286 -0.0284,3.62229 5.36221,14.3718 5.75284,14.3718 -0.2245,0 -2.10504,-3.66828 -4.04081,-7.06372 -1.93668,-3.39704 -3.90819,-6.51639 -3.89759,-5.42659 0.0179,1.84918 1.8145,6.28124 3.51589,10.11532 1.71992,3.87583 3.40608,7.27892 3.66399,7.27892 -0.32377,0 -4.65153,-9.04316 -4.67112,-7.32852 -0.0386,3.3845 0.20958,3.95853 0.74068,3.95853 -0.3085,0 -2.4082,-4.36503 -2.40096,-2.03434 0.0127,4.07997 -2.06468,-0.22008 -1.16406,-0.22008 0.0798,0 1.5044,3.61863 1.5044,3.61863 0,0 -1.2391,-2.04142 -0.74637,-2.04142 1.33833,0 1.16473,-0.36474 1.16257,0.22006 0.004,-1.16449 1.51888,2.03434 2.38712,2.03434 1.70785,0 -0.69427,-5.02694 -0.71375,-3.95852 0.0109,-0.60141 3.73776,7.32851 4.62127,7.32851 0.86155,0 -0.73316,-4.46911 -2.71529,-8.87794 -1.98213,-4.40884 -4.34696,-8.7574 -4.34625,-8.51629 -0.002,-0.5638 1.80547,2.56957 3.64223,5.82635 1.83981,3.26218 3.70682,6.66396 4.21118,6.66396 0.92415,0 -0.37063,-3.70373 -2.01553,-7.35207 -1.64488,-3.64834 -3.63629,-7.24129 -3.63953,-7.01974 0.008,-0.55734 2.6499,4.08571 5.19039,8.814 2.54942,4.74494 5.00351,9.62506 5.44984,9.62506 0.86613,0 -1.50585,-6.13944 -4.42037,-12.20362 -2.91451,-6.06419 -6.36347,-12.05313 -6.36736,-11.75216 0.005,-0.43188 3.44054,5.45828 6.708,11.45642 3.26745,5.99814 6.35585,12.10425 6.93045,12.10425 0.99439,0 -2.14928,-7.93954 -6.08551,-15.80946 -3.93624,-7.86992 -8.65542,-15.67021 -8.65662,-15.39173 0.002,-0.42451 4.15012,6.34229 7.89147,13.03282 3.7626,6.72856 7.08517,13.26675 7.08344,12.57516 -0.004,-1.69671 -3.18474,-8.85565 -6.87031,-15.76834 -3.63635,-6.82038 -7.62259,-13.11757 -7.6263,-12.62917 0.002,-0.19699 4.10359,6.48219 7.81601,13.02067 3.73075,6.57075 7.05222,12.904 7.05281,12.17647 0.002,-1.69144 -3.20108,-8.72657 -6.89038,-15.49293 -3.64187,-6.67939 -7.61976,-12.82906 -7.62486,-12.31467 0.002,-0.15615 4.06177,6.35569 7.75363,12.6772 3.70627,6.3462 7.03791,12.42803 7.0407,11.53533 0.006,-1.81184 -3.08076,-8.49757 -6.60182,-14.84123 -3.47722,-6.26467 -7.24482,-11.95025 -7.25424,-11.36675 8.9e-4,-0.0715 4.00076,6.29536 7.65009,12.55065 3.64931,6.25529 6.96096,12.399 6.96579,11.88114 0.0136,-1.40079 -3.66091,-8.94006 -7.90491,-16.24325 -4.19231,-7.21429 -8.79222,-13.9258 -8.79354,-13.22659 -1e-4,0.0517 4.08023,6.39809 7.81444,12.58485 3.73422,6.18678 7.14008,12.21399 7.13719,11.62751 -0.008,-1.44063 -3.36707,-8.14316 -7.16996,-14.55044 -3.75024,-6.31858 -7.82287,-12.17239 -7.82397,-11.47206 -7e-5,0.0442 4.06555,6.2919 7.796,12.29078 3.74156,6.01674 7.15334,11.73103 7.14846,10.7977 -0.01,-1.77472 -2.8852,-7.63664 -6.08652,-13.10478 -3.16191,-5.40081 -6.54036,-10.25256 -6.55004,-9.67031 8.8e-4,-0.0525 3.95147,5.97485 7.58945,11.85078 3.65223,5.89896 6.97983,11.5774 6.98608,10.94226 0.0137,-1.4709 -3.40405,-8.17739 -7.26577,-14.6373 -3.82049,-6.39093 -7.95627,-12.32833 -7.96126,-11.91614 0.003,-0.204 3.95744,5.60064 7.61836,11.25059 3.67268,5.66809 7.04433,11.12704 7.04862,10.32238 0.008,-1.60117 -3.08698,-7.60052 -6.52729,-13.33796 -3.40652,-5.6811 -7.05343,-10.93122 -7.05676,-10.75221 0.008,-0.42185 3.89808,5.07011 7.51931,10.50204 3.63451,5.45187 6.97986,10.78393 6.98746,10.14196 0.0175,-1.42002 -3.5077,-7.92317 -7.44965,-14.12342 -3.90273,-6.13854 -8.09667,-11.78903 -8.10369,-11.19519 -5e-5,0.004 3.91999,5.61248 7.57123,11.00256 3.66006,5.40311 7.05564,10.54895 7.05992,9.69354 0.008,-1.6216 -4.03374,-8.84296 -8.62857,-15.89162 -4.54815,-6.97705 -9.51479,-13.5666 -9.69942,-13.5666 0.23518,0 5.37445,6.81105 10.05702,13.45735 4.68258,6.6463 8.92828,13.12784 8.93449,12.46884 0.0136,-1.37716 -3.79993,-7.99908 -8.09405,-14.46404 -4.25585,-6.40732 -8.88418,-12.48477 -9.09935,-12.48477 0.20465,0 4.63374,5.8342 8.71988,11.48642 4.09809,5.66875 7.84828,11.10593 7.85185,10.39455 0.008,-1.40927 -3.02156,-6.66887 -6.34609,-11.70128 -3.2991,-4.99392 -6.81795,-9.64514 -6.95677,-9.64514 0.28098,0 3.88537,4.68294 7.23127,9.27054 3.34591,4.58759 6.44118,9.07985 6.44397,8.69849 0.008,-1.0414 -3.10478,-6.16993 -6.50383,-11.14663 -3.37623,-4.94331 -6.97443,-9.63461 -7.10255,-9.63461 0.29167,0 3.34793,3.87079 6.20181,7.66487 2.85387,3.79408 5.5106,7.51144 5.50912,7.20458 -0.01,-1.8425 -7.86805,-12.75448 -8.277,-12.75448 0.21533,0 2.73742,3.25109 5.11526,6.39656 2.38143,3.15021 4.61758,6.18054 4.61937,5.76276 0.01,-2.0532 -6.78992,-11.48532 -7.14085,-11.48532 0.48869,0 7.62146,9.92136 7.62722,9.12212 0.0136,-1.98502 -6.51604,-10.93495 -6.86696,-10.93495 -0.17557,0 6.49002,7.18467 6.66559,7.18467 1.15378,0 -3.46112,-8.0446 -4.61492,-8.0446 0.68915,0 5.97868,7.18467 6.66783,7.18467 1.11496,0 -2.94091,-7.57977 -4.05588,-7.57977 0.0136,0 6.42508,7.18466 6.41132,7.18466 1.03277,0 -3.83382,-7.74245 -4.86659,-7.74245 0.5334,0 5.85245,7.18466 6.38584,7.18466 1.69512,0 -4.52688,-6.80959 -4.52688,-6.80959 z m -25.12692,0 c 0,0 4.50415,7.51005 5.2687,7.51005 0.48104,0 -8.11622,-10.48494 -8.59728,-10.48494 -0.87236,0 5.17586,9.97363 6.04822,9.97363 -0.58946,0 -4.43104,-5.22938 -4.43285,-3.94063 -0.004,2.41965 1.61072,4.66111 2.17235,4.66111 -0.27796,0 -2.55109,-3.12697 -2.55027,-2.108 0.002,2.17035 -0.0533,2.108 0.71594,2.108 -0.0702,0 -0.58115,-0.32009 -0.58115,-0.32009 0,0 1.08795,1.89729 1.71281,1.89729 1.46965,0 -0.69619,-3.00803 -0.7016,-2.10801 0.002,-0.25136 1.69824,2.10801 2.53593,2.10801 1.67731,0 -2.13575,-5.25718 -2.14064,-4.66111 0.004,-0.53482 3.25685,3.94063 4.40604,3.94063 1.36658,0 -4.61379,-9.97363 -5.98036,-9.97363 0.39598,0 8.12995,10.48493 8.52594,10.48493 1.51202,0 -6.40178,-9.08724 -6.40178,-9.08724 z m 49.37025,0 c 0,0 -2.37862,-1.66336 -2.39317,-2.46068 0.006,0.32732 2.02712,2.99523 1.16804,2.99523 -1.69868,0 -0.43873,1.68275 -0.44746,1.07888 0.008,0.54182 -1.20575,-1.07888 -1.96711,-1.07888 -1.60095,0 2.80014,5.95288 2.7919,5.11349 0.004,0.32667 -6.43965,-8.29755 -6.93228,-8.29755 -1.33222,0 5.43273,9.06283 5.40961,7.84233 -8.1e-4,-0.0427 -5.16677,-6.95916 -6.23962,-6.95916 -0.95623,0 1.61058,3.99841 4.27879,7.92678 2.66822,3.92837 5.44273,7.78672 5.44328,7.50656 -6.2e-4,0.32201 -2.60357,-3.26906 -5.39531,-6.94062 -2.79177,-3.67156 -5.77767,-7.42362 -6.06978,-7.42362 -0.71192,0 1.79034,3.77742 4.34664,7.42308 2.56091,3.65226 5.17542,7.15297 5.1701,6.63254 8.6e-4,0.0846 -2.8424,-3.95807 -5.888,-8.02186 -3.04559,-4.06379 -6.29502,-8.14872 -6.53369,-8.14872 -0.65848,0 2.54286,4.61027 5.72433,9.09461 3.18989,4.4962 6.35321,8.83085 6.34706,8.3389 0.002,0.11481 -2.21258,-3.03502 -4.59016,-6.21355 -2.37755,-3.17853 -4.92027,-6.38576 -5.22462,-6.38576 -0.72413,0 2.26457,4.49676 5.25975,8.91404 2.99519,4.41728 6.00313,8.75508 6.00202,8.43714 8.8e-4,0.31132 -3.47512,-4.72953 -7.2488,-9.84821 -3.77368,-5.11867 -7.85195,-10.31517 -8.13795,-10.31517 -0.7058,0 3.12219,5.5239 6.86236,10.87197 3.75096,5.36347 7.40967,10.50487 7.40223,9.8169 -7e-4,-0.065 -3.55862,-5.41098 -7.35934,-10.55394 -3.7919,-5.13101 -7.8251,-10.09474 -7.82076,-9.33551 0.008,1.26134 3.91891,7.21047 7.50805,12.6419 3.62008,5.47828 7.01179,10.57942 7.0087,10.37901 0.008,0.44174 -3.04264,-3.9927 -6.29524,-8.48322 -3.24213,-4.47606 -6.66726,-8.96478 -6.6686,-8.55929 -0.004,0.93356 3.91644,6.90584 7.50618,12.38951 3.61963,5.52934 7.00096,10.70707 6.99866,10.27989 8.9e-4,0.24428 -3.65333,-5.43462 -7.59069,-10.98839 -3.92485,-5.53613 -8.14439,-11.00002 -8.14133,-10.23757 0.006,1.27227 4.09833,7.73556 7.81138,13.63707 3.74897,5.95862 7.22629,11.52682 7.22384,11.29451 0.004,0.46259 -3.65291,-5.27645 -7.6044,-10.94516 -3.9371,-5.6481 -8.18924,-11.28772 -8.18259,-10.52318 0.0117,1.26775 4.65245,8.66763 8.789,15.30811 4.19549,6.73511 8.01971,12.89 8.01717,12.14086 -1.7e-4,-0.0495 -3.4899,-5.9943 -7.28311,-11.83911 -3.7932,-5.84481 -7.87952,-11.58964 -7.88002,-11.23919 -8.9e-4,0.89146 4.48971,8.03268 8.50779,14.58334 4.05955,6.61825 7.77215,12.84874 7.77505,12.25673 -6.6e-4,0.1349 -3.88775,-6.58329 -8.16583,-13.11862 -4.26147,-6.50997 -8.92499,-12.91313 -8.9217,-12.02141 0.006,1.41225 4.18927,8.47079 7.92292,14.83239 3.77699,6.4355 7.23901,12.39576 7.23494,11.981 0.004,0.34086 -3.23576,-5.23262 -6.75154,-10.75351 -3.51578,-5.5209 -7.30282,-10.98922 -7.30469,-10.43805 -0.004,1.12571 3.77238,7.61068 7.16631,13.5417 3.42903,5.99236 6.58114,11.6148 6.57743,11.32213 0.006,0.48921 -2.89566,-4.56657 -6.03087,-9.51444 -3.12718,-4.9352 -6.49313,-9.80049 -6.50407,-8.86694 -0.0175,1.49877 3.69514,8.40245 6.98982,14.50461 3.34409,6.19367 6.39399,11.77608 6.38975,11.08985 7.4e-4,0.11931 -3.49952,-6.57557 -7.38938,-13.18808 -3.88986,-6.61249 -8.15949,-13.14261 -8.15814,-12.69381 0.004,1.02562 4.45625,8.84198 8.34459,15.86907 3.95201,7.14211 7.47914,13.70593 7.47551,12.80157 -3.7e-4,-0.0911 -3.61902,-7.27026 -7.67871,-14.34352 -4.05966,-7.07327 -8.54721,-14.04066 -8.54529,-13.70827 0.006,0.90663 4.73611,9.14444 8.83609,16.58504 4.17082,7.56915 7.85671,14.56232 7.85671,13.62244 0,-0.1228 -3.5134,-7.23535 -7.45909,-14.19873 -3.94569,-6.96337 -8.30528,-13.77755 -8.30558,-13.30359 -6.3e-4,1.0746 3.92231,8.19999 7.37624,14.55081 3.50531,6.44526 6.6721,12.31564 6.65764,11.35244 -0.002,-0.1186 -3.10673,-6.32403 -6.54023,-12.40648 -3.43351,-6.08245 -7.18236,-12.0419 -7.18342,-11.66855 -0.002,0.9823 3.86745,8.04975 7.27545,14.38463 3.4589,6.42953 6.57672,12.31368 6.56375,11.40264 -8e-4,-0.057 -3.01115,-6.13071 -6.33812,-11.95925 -3.31677,-5.81063 -6.94393,-11.42967 -6.95036,-10.48757 -0.01,1.53362 4.16788,9.14343 7.83765,16.0775 3.72148,7.03177 7.06426,13.64213 7.06426,13.64213 0,0 -3.04558,-7.14461 -6.54523,-14.2523 -3.4939,-7.09597 -7.4228,-14.13158 -7.42609,-13.89014 0.006,-0.45794 3.59986,5.4154 6.88278,11.27241 3.2829,5.85701 6.25688,11.69769 6.253,11.17441 -0.0117,-1.47364 -3.03804,-8.14645 -6.50713,-14.5181 -3.41752,-6.27693 -7.14907,-12.05621 -7.15665,-11.26916 -8.2e-4,0.085 3.72121,6.3306 7.10864,12.44156 3.38745,6.11096 6.45496,12.08723 6.45122,11.63347 -0.0117,-1.38963 -3.08771,-8.04145 -6.60347,-14.43181 -3.46332,-6.29504 -7.24913,-12.1507 -7.25417,-11.47144 1.5e-4,-0.0199 4.3244,7.0758 8.21473,14.06641 3.89032,6.99059 7.35984,13.87611 7.36284,13.43591 0.01,-1.3831 -3.57899,-9.13475 -7.77375,-16.66218 -4.12466,-7.40165 -8.71273,-14.36589 -8.71355,-13.5453 -1.1e-4,0.11786 4.45177,7.36379 8.45518,14.46375 4.00341,7.09997 7.57667,14.05399 7.57799,13.58803 0.004,-1.38999 -3.42858,-8.71427 -7.39881,-15.81172 -3.92075,-7.00902 -8.22372,-13.5259 -8.22626,-12.85891 2e-5,-0.002 4.23628,6.80083 8.07405,13.43834 3.85699,6.67074 7.29702,13.07602 7.29739,12.44355 8.9e-4,-1.55419 -2.95612,-7.90066 -6.30418,-14.03974 -3.31047,-6.07016 -6.89809,-11.72614 -6.90126,-11.55473 0.01,-0.48395 3.34389,4.61662 6.44236,9.58557 3.10575,4.98065 5.97335,9.79457 5.96755,8.79581 -0.0117,-1.86207 -3.07291,-8.19284 -6.51595,-14.15762 -3.40278,-5.89502 -7.05347,-11.21482 -7.05865,-10.7062 8.9e-4,-0.12726 3.76007,5.59294 7.23373,11.1338 3.48431,5.55784 6.68081,10.88538 6.67832,10.05775 -0.006,-1.67059 -3.37441,-8.31656 -7.16926,-14.73184 -3.75326,-6.34494 -7.80566,-12.24816 -7.80618,-12.08154 0.002,-0.45317 4.61253,6.14159 8.83822,12.69476 4.22569,6.55318 8.07102,13.06477 8.07828,12.44527 0.0175,-1.4174 -3.59535,-8.31738 -7.6803,-14.92777 -4.03012,-6.52164 -8.41435,-12.59396 -8.41995,-11.9123 -4.5e-4,0.0553 4.05434,6.03914 7.80245,11.90204 3.74813,5.86289 7.20223,11.60481 7.20368,11.17625 0.004,-1.2113 -3.73619,-8.07111 -7.94271,-14.77703 -4.16534,-6.64028 -8.67719,-12.92969 -8.67671,-12.67193 -6.6e-4,-0.34325 4.20743,5.48677 8.11472,11.17114 3.91878,5.70109 7.52959,11.20634 7.52621,10.2972 -0.006,-1.67956 -3.39968,-7.90965 -7.16195,-13.85346 -3.7251,-5.88506 -7.70303,-11.30755 -7.70367,-11.07812 8.8e-4,-0.35511 4.17837,5.29734 8.07258,10.86558 3.90785,5.58777 7.5141,11.03279 7.51505,10.36037 0.002,-1.41315 -3.2969,-7.25633 -6.92685,-12.77029 -3.59056,-5.45411 -7.41808,-10.45991 -7.42377,-9.89911 2.4e-4,-0.023 3.40172,4.6846 6.61094,9.17447 3.21381,4.49631 6.24469,8.75556 6.23694,7.86805 -0.0136,-1.59866 -3.33131,-7.35143 -6.95871,-12.81401 -3.59547,-5.41446 -7.4012,-10.39442 -7.40139,-10.2069 4e-4,-0.37338 3.99915,4.7793 7.76069,9.93517 3.7615,5.15587 7.28553,10.31492 7.28409,9.95427 -0.004,-1.03199 -3.10428,-6.13834 -6.55854,-11.09372 -3.43131,-4.92246 -7.15166,-9.59515 -7.5653,-9.59515 0.006,0 4.06413,5.40625 7.86998,10.62981 3.81543,5.2367 7.37721,10.25124 7.37958,9.53358 0.004,-1.3859 -2.43956,-5.67199 -5.15006,-9.69563 -2.69308,-3.99778 -5.59832,-7.65555 -5.99365,-7.65555 0.0246,0 2.55624,3.41343 4.98114,6.69506 2.42822,3.28615 4.75091,6.42694 4.7479,5.90426 -0.006,-1.17032 -2.61263,-5.47969 -5.50558,-9.57612 -2.87562,-4.07193 -5.98621,-7.85741 -6.44719,-7.85741 -0.0413,0 3.19348,4.28881 6.27978,8.45454 3.09325,4.17512 6.03354,8.19898 6.0319,7.71605 -0.008,-2.2079 -8.60602,-14.05562 -9.42113,-14.05562 0.0117,0 2.9816,3.95277 5.81557,7.72469 2.83733,3.77638 5.54554,7.35853 5.5518,6.63956 0.0117,-1.34616 -2.19993,-5.16332 -4.58423,-8.71085 -2.37042,-3.52695 -4.86959,-6.72251 -5.03284,-6.72251 0.51312,0 6.20129,7.7016 6.1923,6.95916 -0.0234,-1.92018 -4.44957,-7.84232 -5.35628,-7.84232 -0.0672,0 6.87915,9.40158 6.87585,8.29755 -0.008,-2.27009 -2.11913,-5.11349 -2.75713,-5.11349 0.20162,0 1.96972,2.38449 1.95977,1.07887 -0.0195,-2.45131 0.99506,-1.07887 0.4548,-1.07887 0.29934,0 -1.13534,-1.9182 -1.14765,-2.99523 -0.0251,-2.2016 1.19224,0.88348 1.19224,0.88348 z m -15.04934,39.61416 c 0,0 3.22413,6.008 6.21021,11.9999 2.99006,5.99995 5.75009,11.99991 6.07211,11.99991 -0.0977,0 -3.12018,-6.18858 -6.44654,-12.21837 -3.31067,-6.0013 -6.93955,-11.92927 -6.9341,-11.26561 0.0117,1.31195 2.87946,7.0625 5.57331,12.30311 2.72266,5.2966 5.35573,10.25121 5.84269,10.25121 0.0672,0 -2.51467,-5.39343 -5.36037,-10.52648 -2.84005,-5.12282 -5.93003,-10.01596 -5.92222,-8.96418 0.0137,1.73076 2.62067,7.37954 5.05782,12.40137 2.46614,5.0816 4.85234,9.71558 5.26447,9.71558 -0.008,0 -2.40657,-5.06326 -5.0232,-10.00065 -2.60591,-4.91715 -5.43988,-9.76916 -5.43537,-9.2455 0.01,1.23623 2.00777,5.55379 3.90572,9.44915 1.91491,3.93016 3.78297,7.54257 4.04547,7.54257 -0.15735,0 -2.13937,-3.93846 -4.21086,-7.62111 -2.07104,-3.68185 -4.21389,-7.1103 -4.20096,-6.08626 0.046,3.6345 6.00476,15.61317 6.37707,15.61317 -0.4673,0 -4.96648,-9.12855 -4.96406,-7.26664 0.004,3.52764 3.19264,10.28801 3.57105,10.28801 -0.46119,0 -4.6818,-8.80418 -4.66497,-7.27954 0.036,3.269 2.64879,6.48612 2.64879,6.48612 0,0 -1.88344,-6.29127 -1.8776,-4.90892 -0.002,-0.36177 3.59451,7.27954 4.61545,7.27954 0.93027,0 0.12209,-2.80059 -0.98651,-5.48688 -1.1066,-2.68135 -2.51199,-5.26325 -2.51453,-4.80113 0.004,-0.75142 3.88756,7.26664 4.9146,7.26664 0.93333,0 -0.49501,-4.05335 -2.29783,-8.03166 -1.80283,-3.97831 -3.97477,-7.8816 -3.97302,-7.5815 -0.004,-0.50205 1.97264,2.94106 3.94122,6.48325 1.97307,3.55031 3.94017,7.2241 4.37735,7.2241 0.85697,0 -0.92231,-4.63588 -3.09986,-9.07779 -2.17205,-4.43074 -4.73715,-8.70102 -4.73573,-7.91392 2e-5,0.008 2.63765,4.81985 5.14765,9.6293 2.50997,4.80946 4.89245,9.61684 5.17999,9.61684 0.70735,0 -1.56332,-5.63265 -4.28442,-11.21358 -2.72108,-5.58093 -5.88754,-11.11017 -5.88741,-10.90337 -3.4e-4,-0.56147 2.90983,4.34975 5.63677,9.33869 2.7375,5.00822 5.30049,10.15198 5.51322,10.15198 0.63251,0 -1.88446,-5.93165 -4.86228,-11.71676 -2.96324,-5.75681 -6.40115,-11.452 -6.40027,-10.83757 -2.2e-4,-0.14665 3.41816,5.72435 6.62997,11.63201 3.21181,5.90765 6.21329,11.85198 6.59091,11.85198 0.79743,0 -2.10827,-6.39425 -5.56607,-12.7885 -3.45258,-6.38464 -7.46766,-12.78851 -7.46766,-12.78851 z m 58.82906,-39.61416 c 0,0 -2.78209,-2.19097 -2.78886,-2.5468 0.0156,0.76952 0.86891,1.89605 0.34574,1.89605 -1.36275,0 1.94757,4.42679 1.9426,3.61317 0.002,0.32817 -0.68084,-0.59179 -1.17041,-0.59179 -1.32916,0 2.93813,5.83284 2.9412,5.11836 -8.8e-4,0.22081 -1.94147,-2.3603 -4.05277,-4.99661 -2.11127,-2.63632 -4.39593,-5.32783 -4.84073,-5.32783 -0.86463,0 0.77118,2.69925 2.55965,5.33569 1.78849,2.63645 3.73264,5.2101 3.72981,4.95893 0.008,0.67899 -5.86572,-7.29648 -6.78281,-7.29648 -1.75672,0 5.61662,10.07112 5.59313,8.81796 -8.8e-4,-0.0481 -4.63447,-6.40086 -5.24923,-6.40086 -0.72719,0 1.50608,3.49802 3.81659,6.8306 2.31297,3.33614 4.70869,6.49618 4.70955,5.83804 8e-5,-0.0531 -2.78719,-4.12666 -5.85233,-8.18696 -3.06514,-4.0603 -6.40719,-8.10733 -6.94973,-8.10733 -0.96232,0 1.57853,3.98492 4.22158,7.88551 2.64306,3.90059 5.39422,7.71684 5.38787,7.3795 0.006,0.28549 -2.93347,-3.82128 -6.02082,-7.81182 -3.08241,-3.98412 -6.31425,-7.87123 -6.30523,-7.11438 0.0156,1.27109 3.65249,6.82748 7.00444,11.77315 3.3851,4.99456 6.57313,9.4873 6.56622,8.87548 2.3e-4,0.021 -2.41792,-3.58506 -4.94924,-7.05516 -2.52766,-3.46506 -5.16693,-6.80931 -5.17155,-6.23962 -0.01,1.1105 2.66172,5.43741 5.16739,9.32563 2.52265,3.91458 4.93568,7.46957 4.93216,7.16804 0.004,0.35168 -3.17604,-4.34577 -6.55309,-9.04354 -3.37707,-4.69778 -6.95112,-9.39588 -6.9469,-9.04549 0.0117,0.89282 3.65226,6.41124 7.00475,11.41619 3.38539,5.05405 6.55757,9.68919 6.55034,9.06096 3e-4,0.0266 -2.89875,-4.45846 -5.97089,-8.8198 -3.06443,-4.35044 -6.30747,-8.60988 -6.30508,-8.07752 0.004,1.0575 4.00021,7.30107 7.63548,12.92424 3.67645,5.68683 7.09181,10.88121 7.09559,10.15869 3.1e-4,-0.0588 -3.4352,-5.64388 -7.13699,-11.05615 -3.69018,-5.39535 -7.65291,-10.66871 -7.64971,-10.01942 0.006,1.18475 3.41967,6.72388 6.5517,11.65495 3.16425,4.98182 6.13369,9.46989 6.12738,8.8062 1.6e-4,0.0176 -2.96786,-4.75477 -6.13075,-9.33462 -3.15687,-4.5711 -6.50417,-8.97598 -6.50043,-8.17976 0.006,1.34107 3.59992,7.3356 6.86718,12.62198 3.30415,5.34603 6.38946,10.12901 6.38531,9.34522 -4.5e-4,-0.0846 -2.50522,-4.28589 -5.16185,-8.26106 -2.65373,-3.97083 -5.44816,-7.72854 -5.45808,-6.90409 -0.0175,1.39385 2.98589,6.75694 5.74007,11.47457 2.78355,4.76793 5.40301,9.01033 5.40205,8.41434 2e-4,0.12404 -3.11831,-5.18509 -6.48135,-10.33557 -3.3535,-5.1359 -6.9553,-10.15689 -6.95319,-9.3837 0.004,1.3232 3.91558,8.0574 7.41777,14.10062 3.54205,6.11197 6.80174,11.7392 6.80417,11.19224 -8.8e-4,0.20151 -3.13227,-5.32592 -6.53074,-10.68723 -3.38881,-5.34603 -7.04715,-10.57175 -7.04847,-9.69044 -0.002,1.456 3.31832,7.52552 6.31232,12.88748 3.03302,5.43182 5.84066,10.30682 5.83669,9.72308 8.8e-4,0.18386 -2.6991,-4.66485 -5.60631,-9.3596 -2.90019,-4.68348 -6.00736,-9.24681 -6.01161,-8.43585 -0.008,1.40202 3.38646,7.74813 6.42536,13.47099 3.07361,5.78818 5.89955,11.14906 5.89924,10.9072 7.4e-4,0.56994 -6.85477,-12.4457 -15.32259,-25.60382 -8.46782,-13.15812 -18.58103,-26.45872 -19.05943,-26.45872 -0.89819,0 9.62465,14.78716 18.48733,29.34224 8.86268,14.55507 16.12536,28.87806 16.12603,27.94971 6e-5,-0.0829 -7.41088,-15.0567 -16.83864,-30.00971 -9.42776,-14.95301 -20.86703,-29.88528 -21.2187,-29.88528 -0.77147,0 10.19063,15.0529 19.38962,30.02478 9.19895,14.97188 16.65596,29.86274 16.65041,29.53865 0.01,0.55022 -7.55408,-14.34064 -17.06736,-29.36905 -9.4747,-14.96749 -21.01262,-30.19438 -21.01262,-30.19438 0,0 11.90877,15.91978 21.56432,31.42013 9.69794,15.56843 17.30633,30.85359 17.29463,29.7205 -0.0238,-2.30036 -6.83173,-16.60525 -15.85732,-31.28725 -8.8455,-14.38901 -19.42949,-28.27618 -19.7775,-28.27618 0.0719,0 11.47097,15.21407 20.85663,30.30798 9.38567,15.0939 16.78961,30.06765 16.79323,29.58701 0.01,-1.32605 -6.77146,-15.64903 -15.29358,-29.64051 -8.52214,-13.99147 -18.70874,-27.65145 -18.93,-27.65145 0.19853,0 10.27256,13.57121 18.71175,26.86463 8.4392,13.29342 15.30994,26.30905 15.31607,25.19792 0.0117,-1.99164 -2.72768,-8.10531 -5.81772,-13.86609 -3.05318,-5.69207 -6.33727,-10.82514 -6.34103,-10.5121 0.004,-0.35459 3.08146,4.44533 5.95263,9.15838 2.88,4.72753 5.54421,9.3247 5.54421,8.63707 0,-1.53369 -2.73277,-7.18665 -5.77025,-12.5779 -3.00695,-5.33708 -6.22313,-10.24996 -6.22494,-10.03266 0.004,-0.43271 3.62269,5.01197 6.97826,10.38969 3.36813,5.39787 6.45469,10.66833 6.46233,9.98797 0.0175,-1.51241 -3.15417,-7.85729 -6.71772,-13.9559 -3.52651,-6.03521 -7.33094,-11.63391 -7.33217,-11.33695 0.002,-0.33638 3.56624,4.89718 6.88855,10.06296 3.33441,5.18458 6.40879,10.24501 6.41187,9.65631 0.008,-1.37286 -2.53794,-6.3704 -5.3209,-11.10251 -2.75933,-4.69191 -5.68193,-8.99781 -5.68591,-8.7864 0.008,-0.41963 2.7879,3.58861 5.40713,7.56598 2.62724,3.9895 5.10903,7.98454 5.10962,7.59916 0.002,-1.13436 -3.01222,-6.65057 -6.32258,-11.97022 -3.28293,-5.27554 -6.77999,-10.2222 -6.78046,-9.99698 8e-4,-0.38238 3.31967,4.23419 6.44727,8.82736 3.13825,4.60878 6.06599,9.14736 6.06474,8.68702 -0.004,-1.20364 -2.90832,-6.41985 -6.07539,-11.37495 -3.14145,-4.91499 -6.4638,-9.44852 -6.46448,-9.0862 4.4e-4,-0.23448 3.92066,5.22975 7.57924,10.65494 3.65857,5.42518 7.05939,10.81132 7.06408,10.42064 0.0136,-1.11279 -3.32837,-7.01806 -7.01472,-12.68559 -3.65518,-5.61965 -7.55825,-10.85794 -7.5593,-10.39735 2.9e-4,-0.12864 3.2135,4.33021 6.25252,8.70396 3.04763,4.38614 5.91063,8.64999 5.90848,8.19336 -0.006,-1.17346 -3.11907,-6.52157 -6.50892,-11.5537 -3.35744,-4.98399 -6.91014,-9.55163 -6.90686,-8.92344 2e-4,0.0381 3.54841,4.95394 6.88902,9.66345 3.34703,4.71855 6.49171,9.2037 6.48789,8.42559 -0.008,-1.46887 -2.36138,-5.72977 -4.88005,-9.61886 -2.49834,-3.85775 -5.10143,-7.26665 -5.10728,-6.87482 0.002,-0.18319 2.62118,3.36402 5.1275,6.84527 2.51149,3.4884 4.90482,6.88937 4.90283,6.4495 -0.006,-1.12218 -3.13424,-6.30634 -6.52154,-11.28012 -3.36273,-4.9377 -6.90958,-9.5568 -6.90863,-9.36851 -0.002,-0.37494 3.20599,3.70695 6.2631,7.70742 3.06289,4.008 5.96974,7.91193 5.96141,7.2188 -0.0156,-1.34434 -2.20491,-5.1189 -4.55606,-8.62514 -2.33716,-3.48537 -4.79239,-6.63988 -4.94954,-6.63988 0.26267,0 3.58798,4.2499 6.69276,8.41164 3.10477,4.16174 5.99559,8.23531 5.99845,7.88264 0.0156,-1.92258 -7.6554,-12.66863 -8.43997,-12.66863 0.0551,0 5.21471,7.1561 5.2057,6.40085 -0.0234,-1.96028 -5.05091,-8.81795 -5.53314,-8.81795 0.35735,0 6.73979,8.76302 6.73317,7.29647 -0.0117,-2.64788 -5.70972,-10.29461 -6.21943,-10.29461 0.16493,0 2.43652,2.8842 4.59744,5.61685 2.16216,2.73423 4.21911,5.31219 4.22584,4.70758 0.0263,-2.36846 -1.99662,-5.11836 -2.90638,-5.11836 -0.0701,0 1.16562,1.68117 1.16638,0.59179 0.002,-2.23117 -1.04185,-3.61316 -1.91803,-3.61316 -0.0366,0 -0.31425,-0.37638 -0.33286,-1.89605 -0.0323,-2.64488 1.58738,0.9696 1.58738,0.9696 z m -21.88171,0 c 0,0 1.6765,3.73932 1.15141,1.93687 0.0137,0.0472 -0.5136,-0.65859 -1.60171,-0.65859 -1.92772,0 2.20016,5.58991 1.55096,3.42417 -0.0695,-0.23196 -2.09011,-2.95934 -3.20265,-2.95934 -0.97607,0 0.75593,2.97667 2.59503,5.74167 1.83856,2.76418 3.79719,5.31911 3.55003,4.4716 0.0511,0.17468 -2.50239,-3.41287 -5.30783,-7.0441 -2.80544,-3.63123 -5.86576,-7.30614 -6.36859,-7.30614 -0.92262,0 2.71379,5.36567 6.27514,10.53224 3.57632,5.1883 7.06036,10.11229 6.8329,9.33761 0.0861,0.29342 -2.49658,-3.43643 -5.36517,-7.23965 -2.86859,-3.80322 -6.02804,-7.67979 -6.58736,-7.67979 -0.97913,0 2.14822,4.87302 5.24615,9.51977 3.10733,4.66085 6.18192,9.05311 5.90322,8.16214 0.0876,0.28035 -3.22826,-4.62819 -6.90541,-9.60682 -3.67716,-4.97864 -7.72169,-10.02736 -8.22453,-10.02736 -0.92263,0 4.39402,7.31515 9.47969,14.6303 5.09562,7.32945 9.94037,14.6303 9.94037,14.6303 0,0 -4.04026,-6.9084 -8.55916,-13.8417 -4.51078,-6.92086 -9.48399,-13.84171 -9.68084,-13.84171 0.22297,0 4.38292,5.44388 8.15157,10.62009 3.77807,5.18912 7.16846,10.07183 6.84482,9.01409 -0.70627,-2.30819 -3.23841,-6.62448 -5.82918,-10.53302 -2.55624,-3.85645 -5.05958,-7.14888 -5.19993,-7.14888 0.27946,0 3.53682,4.23985 6.4979,8.22471 2.96335,3.98787 5.64484,7.7117 5.35313,6.69472 -0.62211,-2.16889 -3.56203,-7.01822 -6.653,-11.51729 -3.05043,-4.44 -6.12301,-8.35255 -6.31985,-8.35255 0.22296,0 3.37342,4.01537 6.26941,7.81684 2.89969,3.80633 5.5517,7.38415 5.30938,6.5334 -1.06926,-3.75404 -5.78878,-10.21327 -6.07559,-10.21327 0.55283,0 3.49226,4.01657 3.18254,2.95934 -0.87622,-2.99102 -1.21645,-3.42418 -1.52767,-3.42418 0.52837,0 1.96102,1.93724 1.59723,0.65859 -0.89031,-3.12903 -2.32241,-3.51406 -2.32241,-3.51406 z m -17.87791,1.09292 c 0,0 12.18076,16.63958 21.95875,33.14307 9.81826,16.57154 17.31436,33.14309 17.50203,33.14309 -0.23212,0 -7.56228,-15.54529 -16.92003,-30.97517 -9.35774,-15.42986 -20.71189,-30.7443 -20.71684,-30.28261 -0.0117,1.03012 10.14275,15.61827 18.65409,29.94889 8.51133,14.33062 15.44159,28.4037 15.93312,28.4037 0.0717,0 -6.84028,-14.57128 -15.60262,-28.9757 -8.76231,-14.40442 -19.33252,-28.64197 -19.33834,-27.97453 -0.0117,1.24215 10.05794,15.96196 18.46097,30.37125 8.40301,14.40928 15.21415,28.50802 15.68431,28.50802 0.0504,0 -7.21202,-15.56498 -16.57576,-31.03258 -9.36372,-15.4676 -20.80251,-30.83783 -20.79844,-30.44834 0.01,0.97048 10.68256,16.11992 19.52488,31.02674 8.84231,14.90682 15.91486,29.57101 16.25981,29.57101 -0.0748,0 -6.63342,-13.80503 -14.81784,-27.42791 -8.18441,-13.62288 -17.95075,-27.06363 -17.9563,-26.33506 -0.01,1.31891 8.94219,14.85262 16.45176,28.0566 7.50957,13.20398 13.64784,26.07823 13.85996,26.07823 -0.2077,0 -4.18426,-8.22098 -8.61187,-16.18604 -4.3744,-7.86938 -9.29807,-15.76989 -8.9559,-14.65056 0.67138,2.19619 4.74872,9.89047 7.99531,16.25732 3.36868,6.60634 6.28068,12.60378 6.39812,12.60378 -0.30236,0 -2.9222,-5.14253 -5.58068,-9.91485 -2.66089,-4.77669 -5.31905,-9.1701 -4.87999,-7.6937 0.88011,2.95953 3.47059,8.64613 5.56707,13.09182 2.16917,4.59985 4.07646,8.42127 4.39088,8.42127 -0.10535,0 -2.21848,-4.43697 -4.25804,-8.19621 -2.08155,-3.8366 -3.92252,-6.76337 -3.12931,-4.12982 2.80864,9.32514 4.84768,11.69529 4.84768,11.69529 0,0 -1.02674,-2.80974 -2.081,-5.48203 -1.04814,-2.65675 -2.13012,-5.21381 -1.96005,-4.63606 -0.4079,-1.38563 1.31384,1.66522 3.16096,5.11229 1.83891,3.43174 3.75727,7.21374 4.14253,7.21374 0.80505,0 -1.52882,-5.99868 -4.28156,-11.68716 -2.7384,-5.65882 -5.8992,-11.09639 -5.53003,-9.82593 -0.11392,-0.39213 2.35634,4.01001 4.82647,8.51017 2.47013,4.50017 4.93219,9.09836 5.51441,9.09836 1.00204,0 -2.22514,-7.88015 -6.13607,-15.42785 -3.87412,-7.47669 -8.47972,-14.83401 -8.06102,-13.43323 -0.0246,-0.0823 4.58725,7.62686 8.81168,15.35658 4.22444,7.72973 8.05875,15.48002 8.5463,15.48002 0.90737,0 -4.97047,-13.66137 -12.68603,-27.25891 -7.71554,-13.59754 -17.25371,-27.13125 -17.25739,-26.87592 0.004,-0.33501 9.51211,13.10573 17.52926,26.63022 8.01716,13.5245 14.5244,27.13274 14.87911,27.13274 0.77452,0 -6.02364,-15.43885 -15.07063,-30.73299 -9.04699,-15.29415 -20.30389,-30.44359 -20.30179,-29.86475 0,-0.002 11.16246,15.36807 20.34411,30.73884 9.18165,15.37077 16.38232,30.74208 16.61182,30.74208 0.64932,0 -5.88314,-14.865 -14.48519,-29.65741 -8.60206,-14.7924 -19.255,-29.51222 -19.25952,-29.22185 0.004,-0.28433 10.30915,13.95323 18.89882,28.26187 8.58967,14.30863 15.44657,28.68835 15.6547,28.68835 0.62794,0 -6.02603,-14.83098 -14.73628,-29.54055 -8.71024,-14.70957 -19.44543,-29.29772 -19.45395,-28.81204 0.002,-0.0827 11.0806,15.2317 20.25864,30.56682 9.17805,15.33514 16.4495,30.69094 16.96149,30.69094 0.93179,0 -6.63168,-16.96583 -16.91126,-33.93167 -10.23587,-16.89368 -23.27531,-33.93167 -23.27531,-33.93167 z m 0,11.94116 c 0,0 3.55975,5.50738 6.84886,10.83536 3.30549,5.35453 6.34437,10.49241 6.3442,9.86072 0,0.0402 -3.04076,-4.92951 -6.29444,-9.69782 -3.2474,-4.75909 -6.70221,-9.34447 -6.70325,-8.48943 -0.002,1.40326 3.44619,7.28572 6.58631,12.51186 3.17722,5.28789 6.13987,10.04862 6.13864,9.51718 3.9e-4,0.17091 -3.26351,-5.25869 -6.78417,-10.58802 -3.50774,-5.3098 -7.28833,-10.57794 -7.28402,-9.98644 0.008,1.13799 3.82508,7.46352 7.27446,13.266 3.48337,5.85968 6.70034,11.36795 6.69968,11.15747 0.002,0.50701 -2.65847,-3.85514 -5.51638,-8.19396 -2.84101,-4.31313 -5.86578,-8.58493 -5.87357,-7.76879 -0.0136,1.39263 3.25067,7.33683 6.20623,12.67888 2.98636,5.3977 5.76156,10.3602 5.76195,10.06766 -6.2e-4,0.47409 -2.88324,-4.58023 -5.99608,-9.56184 -3.10293,-4.9657 -6.44883,-9.9064 -6.4539,-9.12557 -0.01,1.37907 2.83684,6.77113 5.42794,11.54342 2.61746,4.8209 5.06817,9.1679 5.06137,8.69995 0.004,0.33159 -2.51523,-4.18435 -5.2183,-8.56745 -2.69756,-4.37415 -5.57773,-8.64233 -5.58167,-7.77045 -0.006,1.46885 3.53344,8.24347 6.66899,14.27755 3.17564,6.11124 6.07568,11.71346 6.07633,11.2234 -4.6e-4,0.34726 -2.9326,-5.35479 -6.15319,-10.97121 -3.20673,-5.59225 -6.72048,-11.17143 -6.72313,-10.45749 -0.006,1.32993 3.0709,7.38381 5.8195,12.73665 2.78698,5.42758 5.34522,10.31361 5.33648,9.68154 0.004,0.22817 -2.43781,-4.58904 -5.08497,-9.29163 -2.63885,-4.68783 -5.49018,-9.30532 -5.49587,-8.60392 -0.0117,1.33998 3.11915,7.68824 5.93152,13.44868 2.8461,5.82954 5.47545,11.27855 5.61801,11.16553 -0.16377,0.12983 -3.23402,-6.20582 -6.61081,-12.39525 -3.36034,-6.15933 -7.04364,-12.26266 -7.0379,-11.51745 0.0117,1.41433 2.42805,6.50635 4.6823,11.09052 2.27759,4.63163 4.46396,8.89782 4.72341,8.89782 -0.16046,0 -1.90168,-3.43116 -3.70498,-6.76663 -1.79886,-3.32723 -3.66273,-6.58348 -3.66591,-6.19246 -0.01,1.11012 2.15477,5.80509 4.21419,10.09555 2.07818,4.32951 4.10778,8.37175 4.45885,8.37175 -0.0688,0 -2.48982,-5.1775 -5.12167,-10.11457 -2.62613,-4.92635 -5.45206,-9.64444 -5.44523,-8.67204 0.0246,3.49569 5.27295,13.97564 5.92008,13.97564 -0.1924,0 -4.30035,-8.24715 -4.30809,-7.00523 -0.0175,2.86543 4.17943,11.6535 4.44483,11.6535 -0.2871,0 -1.87287,-3.12395 -3.4664,-6.00563 -1.59452,-2.88351 -3.18069,-5.51932 -3.16856,-4.55207 0.0456,3.63884 2.70436,9.25619 3.34846,9.25619 -0.19552,0 -0.66024,-0.99635 -0.67106,-0.0353 -0.0306,2.7188 0.0413,0.47373 0.0413,0.47373 0,0 0.72447,-0.86503 0.68897,1.10347 -0.004,0.21082 -0.0846,0.0354 0.67079,0.0354 1.59485,0 -3.29061,-10.15261 -3.28547,-9.25619 -0.002,-0.40683 1.42306,2.24196 2.92138,4.97723 1.50089,2.73997 3.07479,5.58047 3.64175,5.58047 0.98677,0 -0.0117,-3.27936 -1.34918,-6.37574 -1.33718,-3.09348 -3.0068,-6.01263 -3.01637,-5.27777 0.002,-0.15956 3.50823,7.00523 4.26044,7.00523 0.79588,0 -0.54596,-3.66821 -2.20259,-7.24927 -1.65666,-3.58106 -3.6225,-7.07498 -3.62242,-6.72637 -1e-4,-0.43757 2.63636,4.25909 5.16138,9.06513 2.525,4.80605 4.92909,9.72148 5.27769,9.72148 0.76844,0 -1.14701,-5.06411 -3.47773,-9.90459 -2.32493,-4.82849 -5.05612,-9.46928 -5.06964,-8.56271 -0.002,0.12817 1.68692,3.36795 3.39758,6.57568 1.71067,3.20773 3.4449,6.38342 3.88513,6.38342 0.86001,0 -1.22237,-5.26176 -3.75801,-10.39119 -2.5243,-5.10648 -5.51222,-10.14945 -5.51172,-9.59715 -1.9e-4,-0.21733 3.51479,5.90678 6.79329,12.01226 3.27852,6.10546 6.32264,12.1923 6.69275,11.90043 0.67815,-0.53481 -1.83192,-6.94707 -4.85201,-13.09628 -3.02009,-6.1492 -6.52234,-12.03535 -6.53007,-11.51793 0.004,-0.20502 2.82567,4.67331 5.43768,9.40067 2.6193,4.74051 5.027,9.29059 5.02143,8.49488 -0.0117,-1.74386 -2.49397,-7.4624 -5.28484,-12.83189 -2.75763,-5.30553 -5.71354,-10.07013 -5.71863,-9.5863 0.002,-0.22032 3.4719,5.5896 6.64752,11.22822 3.18634,5.6576 6.0758,11.08698 6.083,10.20049 0.0156,-1.81659 -2.79183,-8.18203 -5.9878,-14.26425 -3.15718,-6.00844 -6.58091,-11.51227 -6.58403,-11.23671 0.004,-0.40752 2.85993,4.10927 5.53017,8.51177 2.67621,4.41239 5.16525,8.68088 5.15865,7.82613 -0.0136,-1.71301 -2.39022,-6.84603 -5.00934,-11.62459 -2.59234,-4.72972 -5.33772,-8.95847 -5.34226,-8.61878 0.004,-0.32308 3.31237,4.84136 6.38596,9.84027 3.08052,5.01014 5.929,9.82109 5.9369,8.84715 0.0156,-1.80844 -2.67613,-7.51361 -5.67352,-12.88485 -2.96576,-5.3146 -6.1356,-10.12534 -6.1399,-9.8617 0.006,-0.37832 3.00087,4.11825 5.81528,8.45645 2.81842,4.34435 5.46234,8.5119 5.46606,7.5063 0.006,-1.80834 -3.13029,-8.0211 -6.63412,-13.87064 -3.46596,-5.78629 -7.1741,-11.01961 -7.17386,-10.55283 -8e-5,-0.15646 3.73818,5.30984 7.21651,10.65391 3.49019,5.36233 6.70887,10.54768 6.7117,9.92055 0.006,-1.4036 -2.88466,-6.90312 -6.06537,-12.16028 -3.15256,-5.21064 -6.50833,-10.03935 -6.5097,-9.86875 0.004,-0.43925 3.4267,4.35766 6.64316,9.13933 3.22793,4.79874 6.22764,9.53103 6.23078,9.04791 0.008,-1.22987 -3.27357,-6.71877 -6.84517,-12.02926 -3.5415,-5.26576 -7.30258,-10.24402 -7.30258,-10.24402 z m 76.83129,-12.25195 c 0,0 -1.97162,-2.99006 -2.78246,-2.99006 -1.63762,0 2.56175,5.5824 2.56021,4.38347 -10e-5,-0.0697 0.24892,0.26481 -0.488,0.26481 -1.57653,0 -0.24147,1.79973 -0.24871,0.50537 -8.6e-4,-0.15345 -1.23393,-1.80689 -2.05943,-1.80689 -1.66506,0 3.13816,6.52781 3.13914,5.18935 1.1e-4,-0.18457 -3.59157,-5.0499 -4.52087,-5.0499 -1.70085,0 4.40012,6.88086 4.40012,6.88086 0,0 -2.71418,-5.30367 -3.22465,-5.30367 0.36958,0 4.48212,5.63459 4.48651,5.04991 0.0136,-1.73856 -2.52996,-5.18935 -3.10381,-5.18935 0.26574,0 2.04639,2.41405 2.04713,1.80689 0.002,-1.74807 0.91456,-0.50537 0.25214,-0.50537 0.1772,0 0.48603,0.41826 0.48981,-0.26481 0.01,-1.81227 -1.92907,-4.38347 -2.5304,-4.38347 0.24114,0 1.58327,1.41286 1.58327,1.41286 z m -1.26331,7.97973 c 0,0 -5.8492,-8.48296 -7.10797,-8.48296 -1.20541,0 3.89817,8.95101 5.10358,8.95101 0.18578,0 -6.19166,-7.4868 -6.37745,-7.4868 -1.0157,0 0.78586,3.559 1.80155,3.559 -0.42804,0 -2.8328,-3.25686 -3.26085,-3.25686 -1.19684,0 2.0584,5.11618 3.25525,5.11618 0.641,0 -6.99122,-9.04398 -7.63222,-9.04398 -0.93942,0 0.99267,3.15157 3.10443,6.24767 2.11179,3.09609 4.40633,6.1367 4.52808,5.91477 -0.12249,0.22331 -7.82385,-10.30313 -8.4722,-10.30313 -0.744,0 1.12696,2.97632 3.10802,5.78263 1.98201,2.80765 4.08144,5.4413 4.0803,4.76264 -3e-4,-0.17264 -5.59184,-7.87251 -6.10887,-7.87251 -1.35666,0 5.47932,9.46034 5.4739,8.49298 8.9e-4,0.23113 -7.407,-9.95719 -8.5226,-9.95719 -0.97761,0 1.13651,3.47802 3.39002,6.78864 2.25587,3.3141 4.65687,6.45032 4.65107,5.78419 -5.1e-4,-0.0579 -2.32331,-3.42762 -4.85009,-6.78298 -2.52677,-3.35536 -5.25671,-6.69626 -5.68474,-6.69626 -0.84781,0 1.78873,4.06631 4.49369,8.04425 2.70496,3.97794 5.48467,7.86751 5.48029,7.51403 0.004,0.26985 -2.87315,-3.79984 -6.01138,-7.937 -3.13824,-4.13715 -6.54317,-8.34176 -6.99715,-8.34176 -0.87376,0 3.22149,5.99685 7.22524,11.90889 4.00376,5.91206 7.92493,11.73929 7.92534,11.40008 -3.7e-4,0.29995 -4.05039,-5.74228 -8.54552,-11.85949 -4.49513,-6.11721 -9.44342,-12.30942 -9.93405,-12.30942 -0.91041,0 3.3773,6.24466 7.55519,12.41814 4.17789,6.17349 8.25366,12.27582 8.24893,11.99118 0.006,0.37347 -3.57949,-4.93866 -7.56044,-10.34414 -3.98095,-5.4055 -8.36619,-10.90435 -8.93469,-10.90435 -0.98828,0 3.72714,6.98829 8.26703,13.80767 4.53989,6.81938 8.92511,13.46985 8.91672,12.79421 4e-5,0.002 -4.85309,-7.6822 -10.27738,-15.36753 -5.42429,-7.68535 -11.41978,-15.37131 -11.66607,-15.37131 -0.66613,0 5.2356,8.16777 10.72631,16.17213 5.4907,8.00437 10.59389,15.84531 10.58281,15.19166 5.6e-4,0.0325 -3.34524,-5.2715 -6.93396,-10.50034 -3.58871,-5.22883 -7.41332,-10.3825 -7.41145,-10.04932 0.006,0.87415 3.97383,6.96709 7.59208,12.5137 3.65826,5.60793 7.05109,10.77845 7.04104,10.11442 2.7e-4,0.0177 -3.56205,-5.71903 -7.4078,-11.38111 -3.84575,-5.66207 -7.96744,-11.24945 -7.96425,-10.93298 0.008,0.85425 4.34662,7.4761 8.26968,13.54607 3.97171,6.14524 7.61806,11.85432 7.61109,11.25939 8.9e-4,0.0895 -3.5956,-5.77295 -7.4903,-11.56805 -3.89468,-5.79509 -8.08039,-11.5228 -8.07742,-11.16375 0.008,0.89346 4.67182,8.0944 8.85188,14.80157 4.22136,6.77352 8.07422,13.25232 8.07376,13.03329 8.9e-4,0.49863 -3.74932,-5.66188 -7.83853,-11.78983 -4.0702,-6.09949 -8.51362,-12.2518 -8.51039,-11.59442 0.006,1.17322 4.2824,8.16517 8.10712,14.42309 3.87594,6.34169 7.42511,12.1202 7.41818,11.2854 -8.9e-4,-0.11002 -3.23504,-5.75712 -6.74137,-11.22358 -3.49463,-5.44821 -7.26699,-10.77054 -7.26995,-10.13979 -0.006,1.17368 3.84642,7.69505 7.31246,13.60244 3.50231,5.9692 6.73228,11.50982 6.72828,11.031 0.002,0.27814 -3.43706,-5.70291 -7.19159,-11.58352 -3.73908,-5.85643 -7.81317,-11.68495 -7.81212,-10.98088 0.002,1.23921 4.2294,8.4753 7.97919,15.00018 3.79461,6.60286 7.2526,12.72846 7.24858,12.13658 8.9e-4,0.19079 -3.46191,-6.09616 -7.27087,-12.29996 -3.80892,-6.2038 -7.95419,-12.32444 -7.95339,-11.80105 0.002,1.09883 4.12626,8.21958 7.78534,14.71328 3.70123,6.56853 7.0644,12.73443 7.06,12.29759 0.004,0.36968 -3.32471,-5.73335 -6.98352,-11.71053 -3.64479,-5.95429 -7.63365,-11.85142 -7.63365,-10.95544 0,1.43266 4.55627,9.70081 8.49922,17.11139 4.00071,7.51909 7.56823,14.50609 7.56934,13.91893 -4.9e-4,0.25842 -3.67264,-7.04684 -7.81169,-14.24794 -4.13906,-7.20109 -8.73126,-14.29804 -8.72904,-13.62302 0.004,1.24 4.83049,10.02441 8.9564,17.94863 4.18922,8.0458 7.87058,15.59613 7.87346,14.9759 -8.8e-4,0.25914 -3.36318,-6.73228 -7.15491,-13.63478 -3.79172,-6.9025 -8.00193,-13.71608 -8.00729,-13.10124 -0.0117,1.2322 3.85076,8.66045 7.31938,15.50086 3.51227,6.9265 6.75387,13.52344 7.14922,13.52344 -0.0246,0 -3.16687,-6.75066 -6.69743,-13.31096 -3.51356,-6.52871 -7.42617,-12.96187 -7.43524,-12.16889 -0.0156,1.41509 3.00219,7.60687 5.77941,13.23401 2.80925,5.69202 5.47225,11.01406 5.83249,11.01406 -0.0596,0 -2.78803,-5.75767 -5.78818,-11.3929 -3.00013,-5.63524 -6.25954,-11.14807 -6.26362,-10.65841 -0.01,1.16236 3.01476,7.29827 5.81806,12.94307 2.83392,5.7065 5.53437,11.10699 5.9862,11.10699 0.0319,0 -2.77274,-6.13193 -5.90991,-12.15751 -3.13716,-6.02558 -6.59529,-11.94483 -6.59657,-11.51946 -0.004,1.1132 2.82367,6.86467 5.42816,12.15726 2.63181,5.34816 5.11965,10.40411 5.41268,10.40411 -0.12676,0 -2.37804,-4.70212 -4.78958,-9.18524 -2.40699,-4.47471 -4.9646,-8.75562 -4.9749,-7.87118 -0.0195,1.59896 1.9383,6.20643 3.82169,10.28108 1.90231,4.11558 3.79181,7.82122 4.17644,7.82122 -0.0351,0 -2.03335,-4.30101 -4.18275,-8.4507 -2.14361,-4.13853 -4.43827,-8.15925 -4.44248,-7.5429 -0.0195,2.77776 5.49084,13.99484 5.75928,13.99484 -0.57112,0 -5.24257,-9.57021 -5.26644,-7.46289 -0.0425,3.74714 1.62154,7.30019 2.43665,7.30019 -0.0246,0 -3.45633,-7.09007 -3.4596,-5.8783 -0.008,2.90027 1.41219,5.92478 2.07765,5.92478 -0.1741,0 -2.16269,-4.16418 -2.16452,-3.25558 -0.006,2.6396 1.15534,5.16139 1.52765,5.16139 -0.46731,0 -1.51143,-2.247 -1.51361,-1.26051 -0.006,2.77897 0.0137,0.42059 0.0137,0.42059 0,0 0.73444,-0.84427 0.71644,1.15661 -0.002,0.20848 0.47798,1.2605 1.50502,1.2605 1.86663,0 -1.47511,-7.1378 -1.49252,-5.16139 -0.002,0.24541 1.40851,3.25559 2.14237,3.25559 1.57347,0 -2.0221,-7.52715 -2.03736,-5.92477 8.2e-4,-0.0861 2.83537,5.87829 3.41961,5.87829 1.42384,0 -2.37563,-7.92594 -2.38699,-7.3002 0.0175,-1.01408 4.08484,7.4629 5.2157,7.4629 0.98524,0 -0.30209,-3.8492 -1.96508,-7.52315 -1.65983,-3.66699 -3.68936,-7.17962 -3.699,-6.47169 8.8e-4,-0.0827 2.11241,3.91567 4.16285,7.93475 2.05043,4.01908 4.03856,8.05885 4.35358,8.05885 0.73482,0 -1.04009,-4.72412 -3.19277,-9.34895 -2.15269,-4.62483 -4.67489,-9.15041 -4.68221,-8.75335 0.006,-0.3668 2.38057,3.89731 4.69111,8.25312 2.31057,4.35579 4.55069,8.8033 4.95732,8.8033 0.82643,0 -1.53259,-6.04716 -4.41452,-11.89092 -2.87005,-5.81969 -6.26461,-11.50816 -6.27282,-10.67045 -6.9e-4,0.0702 3.26176,5.98948 6.28587,11.89116 3.02412,5.90168 5.81169,11.78581 6.05952,11.78581 0.66763,0 -1.89199,-6.3797 -4.97148,-12.57579 -3.06465,-6.16623 -6.6576,-12.23848 -6.66914,-11.47427 0,-6e-5 3.0679,5.51276 5.95847,11.0256 2.89057,5.51285 5.60382,11.0257 5.94328,11.0257 0.75926,0 -1.7616,-6.28015 -4.81415,-12.45122 -3.05255,-6.17107 -6.6248,-12.23309 -6.63277,-11.79684 0.006,-0.28233 3.70239,6.08764 7.11685,12.52818 3.41446,6.44054 6.53811,12.95167 6.84246,12.95167 0.72413,0 -2.3547,-7.53485 -6.10597,-14.9303 -3.75126,-7.39546 -8.1565,-14.65154 -8.16516,-14.094 0.002,-0.14589 4.1758,6.96082 7.9123,13.89266 3.75574,6.96754 7.05875,13.65305 7.06801,12.84335 0.021,-1.84346 -3.53939,-10.07198 -7.77513,-18.10783 -4.17323,-7.91724 -8.82909,-15.28595 -8.83072,-14.81669 7.5e-4,-0.21732 4.55526,7.1615 8.63598,14.3891 4.1031,7.26717 7.7083,14.26444 7.71512,13.48185 0.0156,-1.76813 -3.43813,-9.44509 -7.47349,-16.94621 -3.98135,-7.40073 -8.38233,-14.32444 -8.38397,-14.0841 0.004,-0.42771 3.94927,5.69246 7.5616,11.69273 3.62639,6.02366 6.90428,11.8572 6.90136,10.97324 -0.006,-1.79545 -3.27203,-8.66519 -6.99612,-15.21108 -3.67766,-6.46432 -7.66249,-12.36009 -7.66545,-11.79978 4.7e-4,-0.0899 4.114,6.29161 7.8745,12.51749 3.77676,6.25278 7.18579,12.26918 7.18579,11.58351 0,-1.57071 -3.36004,-8.39512 -7.17612,-14.97652 -3.77231,-6.50594 -7.86499,-12.5425 -7.86701,-12.16024 0.002,-0.25503 4.0302,5.77746 7.73905,11.67801 3.72302,5.92306 7.11228,11.64666 7.11116,10.88639 -0.002,-1.60337 -3.14114,-7.84737 -6.65656,-13.79087 -3.47776,-5.87987 -7.21172,-11.26836 -7.21662,-10.84257 0.002,-0.19718 3.73625,5.33471 7.20119,10.82037 3.46491,5.48566 6.66537,10.9251 6.6648,10.543 -0.002,-1.18202 -3.46784,-7.68342 -7.35248,-13.9911 -3.84661,-6.24592 -7.99718,-12.11291 -7.99793,-11.71738 4.2e-4,-0.21915 4.39047,6.11546 8.43117,12.26059 4.05349,6.16459 7.75415,12.08127 7.75867,11.12364 0.008,-1.77273 -3.74838,-8.89669 -7.99914,-15.6702 -4.20186,-6.69558 -8.73811,-12.8069 -8.73714,-12.16466 6e-5,0.0414 4.15581,6.00346 8.00582,11.81555 3.85,5.8121 7.40998,11.47432 7.40724,10.91626 -0.006,-1.32097 -3.58049,-7.73948 -7.55862,-13.8544 -3.93025,-6.04131 -8.15565,-11.63923 -8.15337,-10.95106 2.7e-4,0.08 4.09343,5.8988 7.89586,11.57747 3.80244,5.67867 7.32836,11.21719 7.32437,10.73661 -0.01,-1.22527 -3.3329,-7.10637 -6.99351,-12.68256 -3.62073,-5.51545 -7.48488,-10.60569 -7.48567,-9.94555 -6e-5,0.06 3.79866,5.4424 7.34809,10.68729 3.54941,5.2449 6.86248,10.3523 6.85751,9.86237 -0.0136,-1.25028 -4.5305,-8.94284 -9.74773,-16.56396 -5.16646,-7.54693 -10.89466,-14.79983 -11.34802,-14.79983 -0.0335,0 5.93706,7.91202 11.37575,15.71039 5.43868,7.79836 10.36116,15.48308 10.35861,15.02844 -0.006,-1.18882 -3.81596,-7.72723 -8.07651,-14.15053 -4.22339,-6.36727 -8.79509,-12.45134 -8.92628,-12.45134 0.28863,0 4.65599,5.71822 8.6683,11.23339 4.02269,5.52945 7.6901,10.81301 7.68227,10.0151 -0.0156,-1.52018 -3.51732,-7.52268 -7.41249,-13.30736 -3.86156,-5.73476 -8.01651,-11.10195 -8.22556,-11.10195 0.21074,0 5.13447,6.40526 9.65395,12.629 4.53491,6.24496 8.65553,12.24474 8.66119,11.5399 0.0117,-1.40931 -3.33824,-7.14841 -7.06431,-12.67841 -3.69637,-5.48594 -7.68201,-10.63057 -7.9277,-10.63057 0.17409,0 3.56424,4.4124 6.74272,8.65344 3.18403,4.24843 6.15887,8.30334 6.15505,7.62533 -0.008,-1.32999 -2.22461,-5.17705 -4.64031,-8.76069 -2.40139,-3.56239 -4.95613,-6.79759 -5.2278,-6.79759 0.14819,0 2.86608,3.54484 5.43861,7.00217 2.57774,3.46432 5.00517,6.82014 5.00451,6.47707 -0.004,-1.92376 -7.67182,-12.57283 -7.95557,-12.57283 0.27794,0 2.45438,2.74683 4.49687,5.3649 2.04401,2.62004 3.95738,5.10536 3.95801,4.59229 0.002,-2.22862 -4.53384,-8.49298 -5.41613,-8.49298 -0.0426,0 6.05214,8.49142 6.0553,7.87251 0.01,-1.80623 -6.36561,-10.54527 -7.11656,-10.54527 0.0444,0 2.11575,2.74281 4.1578,5.4021 2.04364,2.66134 4.05992,5.23302 4.2443,4.90102 0.74157,-1.33527 -7.18967,-12.16243 -7.54977,-12.16243 0.0812,0 7.65196,9.04397 7.5707,9.04397 1.04209,0 -2.17834,-5.11618 -3.22045,-5.11618 -0.35317,0 2.88553,3.25688 3.2387,3.25688 1.22324,0 -0.55411,-3.55901 -1.77734,-3.55901 -0.37394,0 5.95258,7.4868 6.32652,7.4868 1.03353,0 -4.00915,-8.95101 -5.0427,-8.95101 0.66414,0 5.92571,6.90576 5.92571,6.90576 z m -24.01532,0 c 0,0 -4.29457,-6.34475 -4.82675,-6.34475 -1.06166,0 0.26415,2.46666 1.32581,2.46666 0.2498,0 -5.59719,-7.18466 -5.847,-7.18466 -0.93049,0 6.29057,10.48494 7.22108,10.48494 -0.10691,0 -5.40285,-7.21187 -5.40573,-6.54411 -0.008,1.78505 2.75181,5.56797 3.00806,5.56797 -0.58336,0 -3.7385,-4.31185 -3.73861,-3.14587 -2.3e-4,2.30551 0.89964,3.56421 1.86438,3.56421 0.12521,0 -1.55827,-2.32152 -1.56043,-1.18815 -0.004,2.28611 -0.26973,1.93188 0.26138,1.93188 -0.30852,0 -0.58379,0.007 -0.58379,0.007 0,0 0.84632,1.57081 1.71101,1.57081 1.70783,0 -0.24135,-2.71977 -0.24821,-1.93189 0.004,-0.36487 1.11774,1.18816 1.55234,1.18816 1.27419,0 -1.83509,-4.29748 -1.84015,-3.56422 0.002,-0.40628 2.57414,3.14587 3.71723,3.14587 1.98268,0 -2.9569,-6.76241 -2.97018,-5.56797 -8.6e-4,0.0772 4.6945,6.54411 5.36119,6.54411 1.30844,0 -5.84128,-10.48494 -7.14973,-10.48494 -0.30995,0 5.48816,7.18466 5.79811,7.18466 1.1773,0 -0.13183,-2.46666 -1.30902,-2.46666 -0.0528,0 3.65901,4.76756 3.65901,4.76756 z"
       id="text32"
       style="font-size:52.9167px;line-height:0px;font-family:Haettenschweiler;-inkscape-font-specification:'Haettenschweiler, Normal';text-align:center;letter-spacing:0px;word-spacing:0.0132292px;text-anchor:middle;fill:#008033;stroke-width:1.32292;stroke-linecap:round;stroke-linejoin:round;stroke-miterlimit:4.7"
       aria-label="INSTINT" /></g></svg>
