<?xml version="1.0" encoding="UTF-8" standalone="no"?>
<!-- Created with Inkscape (http://www.inkscape.org/) -->

<svg
   width="387.55545"
   height="270.6839"
   viewBox="0 0 102.5407 71.61844"
   version="1.1"
   id="svg1"
   inkscape:version="1.4.2 (f4327f4, 2025-05-13)"
   sodipodi:docname="23.svg"
   xml:space="preserve"
   xmlns:inkscape="http://www.inkscape.org/namespaces/inkscape"
   xmlns:sodipodi="http://sodipodi.sourceforge.net/DTD/sodipodi-0.dtd"
   xmlns="http://www.w3.org/2000/svg"
   xmlns:svg="http://www.w3.org/2000/svg"><sodipodi:namedview
     id="namedview1"
     pagecolor="#ffffff"
     bordercolor="#000000"
     borderopacity="0.25"
     inkscape:showpageshadow="2"
     inkscape:pageopacity="0.0"
     inkscape:pagecheckerboard="0"
     inkscape:deskcolor="#3c3c3c"
     inkscape:document-units="px"
     inkscape:zoom="1.1608406"
     inkscape:cx="16.36745"
     inkscape:cy="202.00879"
     inkscape:window-width="1920"
     inkscape:window-height="991"
     inkscape:window-x="-9"
     inkscape:window-y="-9"
     inkscape:window-maximized="1"
     inkscape:current-layer="layer1" /><defs
     id="defs1"><inkscape:path-effect
       effect="fillet_chamfer"
       id="path-effect1"
       is_visible="true"
       lpeversion="1"
       nodesatellites_param="C,0,0,1,0,45.584779,0,1 @ F,0,0,1,0,37.379523,0,1 @ F,0,0,1,0,82.964302,0,1 @ F,0,0,1,0,0,0,1"
       radius="0"
       unit="px"
       method="auto"
       mode="F"
       chamfer_steps="1"
       flexible="false"
       use_knot_distance="true"
       apply_no_radius="true"
       apply_with_radius="true"
       only_selected="false"
       hide_knots="false" /></defs><g
     inkscape:label="Capa1"
     inkscape:groupmode="layer"
     id="layer1"
     style="display:inline;opacity:1;mix-blend-mode:multiply"
     transform="translate(-49.797674,-186.33615)"><path
       style="fill:none;stroke:#000000;stroke-width:0.79375;stroke-linecap:round;stroke-linejoin:round;stroke-miterlimit:4.7"
       d="m 61.365299,199.03413 c 5.013425,-2.91611 9.807838,2.02535 6.1356,7.09627 -2.584684,3.56914 -5.696386,6.46378 -11.524395,4.08057 -4.184427,-1.71111 -5.994598,-7.90678 -5.761992,-12.65765 0.349849,-7.1455 8.394686,-10.64849 14.726672,-10.77255 6.762618,-0.51977 14.885861,3.24113 15.698345,10.67858 0.618976,4.47879 -0.768368,9.08471 -3.871952,12.39507 -5.03981,6.74072 -11.757836,12.57613 -14.707282,20.64113 -2.134658,5.0521 4.658911,9.01009 8.619904,7.51686 11.518917,-10.81775 11.631437,-29.03293 23.841334,-39.30958 3.94676,-4.14504 11.609857,-3.33808 14.325217,1.81105 4.15116,7.48037 3.19846,17.81842 -2.58141,24.20172 -3.57063,3.94441 -10.640161,4.55016 -14.449542,0.69117 -4.613639,-6.56514 3.541832,-16.86796 11.047882,-13.84114 4.19231,2.19882 7.64166,5.73316 10.66865,9.34046 4.84645,7.50424 6.75209,17.84719 2.48217,26.02352 -1.77999,3.54181 -8.55481,10.25941 -10.7308,4.67193 -2.26803,-9.52192 4.47773,-18.4105 11.91,-23.5489 8.30457,-5.73407 18.17613,-14.45038 22.51668,-5.04102 3.46949,7.52107 -6.35578,8.21958 -8.97388,15.71749 -1.75653,5.03784 -1.99586,12.37299 3.53013,15.15065 5.42471,2.85979 13.14786,0.16024 15.71274,-4.66369 2.66619,-5.01447 1.28515,-16.94405 -5.1147,-16.2518 -4.75683,0.51455 -8.85073,9.14259 -8.71001,13.25391 0.24897,7.27422 8.66225,12.63246 15.78684,11.06461"
       id="path8"
       sodipodi:nodetypes="csssccccccccccccccsccassc" /></g></svg>
