<?xml version="1.0" encoding="UTF-8" standalone="no"?>
<!-- Created with Inkscape (http://www.inkscape.org/) -->

<svg
   width="1080"
   height="1080"
   viewBox="0 0 285.74997 285.74997"
   version="1.1"
   id="svg1"
   inkscape:version="1.4.2 (f4327f4, 2025-05-13)"
   sodipodi:docname="80.svg"
   xml:space="preserve"
   xmlns:inkscape="http://www.inkscape.org/namespaces/inkscape"
   xmlns:sodipodi="http://sodipodi.sourceforge.net/DTD/sodipodi-0.dtd"
   xmlns="http://www.w3.org/2000/svg"
   xmlns:svg="http://www.w3.org/2000/svg"><sodipodi:namedview
     id="namedview1"
     pagecolor="#ffffff"
     bordercolor="#000000"
     borderopacity="0.25"
     inkscape:showpageshadow="2"
     inkscape:pageopacity="0.0"
     inkscape:pagecheckerboard="0"
     inkscape:deskcolor="#3c3c3c"
     inkscape:document-units="px"
     inkscape:zoom="0.49890312"
     inkscape:cx="78.17149"
     inkscape:cy="587.28837"
     inkscape:window-width="1920"
     inkscape:window-height="991"
     inkscape:window-x="-9"
     inkscape:window-y="-9"
     inkscape:window-maximized="1"
     inkscape:current-layer="layer1" /><defs
     id="defs1"><inkscape:path-effect
       effect="fillet_chamfer"
       id="path-effect1"
       is_visible="true"
       lpeversion="1"
       nodesatellites_param="C,0,0,1,0,45.584779,0,1 @ F,0,0,1,0,37.379523,0,1 @ F,0,0,1,0,82.964302,0,1 @ F,0,0,1,0,0,0,1"
       radius="0"
       unit="px"
       method="auto"
       mode="F"
       chamfer_steps="1"
       flexible="false"
       use_knot_distance="true"
       apply_no_radius="true"
       apply_with_radius="true"
       only_selected="false"
       hide_knots="false" /></defs><g
     inkscape:label="Capa1"
     inkscape:groupmode="layer"
     id="layer1"
     style="display:inline;opacity:1;mix-blend-mode:multiply"><g
       id="g42"
       transform="matrix(1.3413653,0,0,1.3413653,17.471498,-11.696486)"
       style="stroke-width:0.745509"><g
         id="g40"
         style="stroke-width:0.745509"><path
           style="opacity:1;fill:#37abc8;stroke-width:4.93123;stroke-linecap:square;stroke-miterlimit:4.7"
           d="m 106.68192,69.992766 -0.0413,0.21239 c -1.59435,8.232464 -2.41784,17.068135 -2.41794,25.988592 1e-5,18.624552 3.73248,35.944242 9.55704,48.356732 3.99239,-3.34667 9.097,-5.37626 14.31799,-5.37641 1.00525,2.4e-4 1.9939,0.20465 2.98999,0.34003 5.02719,-5.23365 12.11996,-8.45845 19.38487,-8.45892 1.99809,0 3.99246,0.23373 5.93865,0.6811 a 62.935654,62.935654 0 0 0 0.0139,-0.20619 62.935654,62.935654 0 0 0 -49.74321,-61.537324 z"
           id="path21" /><path
           style="opacity:1;fill:#37abc8;stroke-width:4.93123;stroke-linecap:square;stroke-miterlimit:4.7"
           d="m 80.296967,69.992766 a 62.935654,62.935654 0 0 0 -49.743212,61.537324 62.935654,62.935654 0 0 0 0.421163,7.26984 c 2.085852,-0.64465 4.264882,-0.98538 6.448701,-0.98547 7.658362,-9e-5 15.054428,4.44347 18.974551,10.98072 2.270256,-1.0367 4.669692,-1.76731 7.16597,-1.76733 2.582821,-1.3e-4 5.145034,0.6191 7.470344,1.73684 C 78.083338,136.239 82.75779,117.0334 82.757798,96.193748 82.757693,87.273291 81.932136,78.437619 80.337791,70.205156 Z"
           id="path20" /></g><path
         id="rect13"
         style="opacity:1;fill:#55ddff;stroke-width:4.93123;stroke-linecap:square;stroke-miterlimit:4.7"
         d="M 89.40642,72.384721 84.760709,82.49263 a 33.386077,70.225837 0 0 1 0,5.17e-4 33.386077,70.225837 0 0 1 0.641821,13.699938 33.386077,70.225837 0 0 1 -12.688113,55.101545 13.929924,13.929924 0 0 1 2.421041,2.74711 A 24.067429,24.067429 0 0 1 87.5378,145.82261 11.130071,70.225837 0 0 0 90.793415,96.193085 11.130071,70.225837 0 0 0 90.1826,73.249785 C 90.023426,72.96217 89.866162,72.673403 89.708727,72.384721 Z m 7.438305,0 a 11.130071,70.225837 0 0 0 -0.659392,23.808364 11.130071,70.225837 0 0 0 3.214274,49.369075 24.067429,24.067429 0 0 1 11.263393,6.10143 18.871023,18.871023 0 0 1 1.87172,-3.45043 33.386077,70.225837 0 0 1 -10.9585,-52.020075 33.386077,70.225837 0 0 1 0.64182,-13.700455 L 97.574396,72.384721 Z" /><path
         id="circle1"
         style="opacity:1;fill:#55ddff;stroke-width:4.93121;stroke-linecap:square;stroke-miterlimit:4.7"
         d="m 150.47304,134.54386 a 23.453033,23.453033 0 0 0 -18.14876,8.59792 18.871023,18.871023 0 0 0 -4.22713,-0.47956 18.871023,18.871023 0 0 0 -17.43408,11.64787 24.067429,24.067429 0 0 0 -16.682702,-6.72 24.067429,24.067429 0 0 0 -18.844843,9.09763 13.929924,13.929924 0 0 0 -11.570352,-6.17275 13.929924,13.929924 0 0 0 -8.697659,3.04891 18.53788,18.53788 0 0 0 -17.442861,-12.26178 18.53788,18.53788 0 0 0 -5.94589,0.97927 62.935654,62.935654 0 0 0 62.010679,52.18441 62.935654,62.935654 0 0 0 62.823558,-59.18295 23.453033,23.453033 0 0 0 -5.83996,-0.73897 z" /><path
         id="circle8"
         style="opacity:1;fill:#00bded;fill-opacity:1;stroke-width:4.93121;stroke-linecap:square;stroke-miterlimit:4.7"
         d="m 150.47304,134.54386 a 23.453033,23.453033 0 0 0 -18.14824,8.59792 18.871023,18.871023 0 0 0 -4.22765,-0.47956 18.871023,18.871023 0 0 0 -17.43408,11.64735 24.067429,24.067429 0 0 0 -16.682702,-6.71948 24.067429,24.067429 0 0 0 -18.844843,9.09763 13.929924,13.929924 0 0 0 -11.570352,-6.17275 13.929924,13.929924 0 0 0 -8.697142,3.04891 18.53788,18.53788 0 0 0 -17.443378,-12.26178 18.53788,18.53788 0 0 0 -5.94589,0.97927 62.935654,62.935654 0 0 0 0.803568,3.89847 18.53788,18.53788 0 0 1 3.684013,-0.37 18.53788,18.53788 0 0 1 18.537885,18.53788 18.53788,18.53788 0 0 1 -0.315743,3.40599 18.53788,18.53788 0 0 0 1.774051,-7.91372 18.53788,18.53788 0 0 0 -0.299206,-3.31815 13.929924,13.929924 0 0 1 7.714257,-2.35076 13.929924,13.929924 0 0 1 10.292394,4.5744 24.067429,24.067429 0 0 0 -3.756876,12.91187 24.067429,24.067429 0 0 0 2.562117,10.80606 24.067429,24.067429 0 0 1 -0.838709,-6.29781 24.067429,24.067429 0 0 1 24.067779,-24.06778 24.067429,24.067429 0 0 1 14.151597,4.60076 18.871023,18.871023 0 0 0 -0.62994,4.83484 18.871023,18.871023 0 0 0 3.65249,11.15849 18.871023,18.871023 0 0 1 -1.53117,-7.44605 18.871023,18.871023 0 0 1 18.8712,-18.8712 18.871023,18.871023 0 0 1 15.21819,7.71219 18.871023,18.871023 0 0 0 -10.00197,-9.93945 23.453033,23.453033 0 0 1 15.03835,-5.4932 23.453033,23.453033 0 0 1 5.46892,0.65732 62.935654,62.935654 0 0 0 0.37104,-4.02869 23.453033,23.453033 0 0 0 -5.83996,-0.73897 z" /><path
         sodipodi:type="star"
         style="opacity:1;fill:#55ddff;fill-opacity:1;stroke:none;stroke-width:7.649;stroke-linecap:square;stroke-miterlimit:4.7;stroke-dasharray:none"
         id="path25"
         inkscape:flatsided="false"
         sodipodi:sides="4"
         sodipodi:cx="184.55486"
         sodipodi:cy="15.909901"
         sodipodi:r1="15.306247"
         sodipodi:r2="7.6531234"
         sodipodi:arg1="0.26179939"
         sodipodi:arg2="1.0471976"
         inkscape:rounded="0"
         inkscape:randomized="0"
         d="m 199.33955,19.871449 -10.95813,2.666251 -7.78811,8.1569 -2.66625,-10.958138 -8.1569,-7.78811 10.95813,-2.6662508 7.78811,-8.1568996 2.66625,10.9581374 z"
         transform="matrix(0.46447721,0.22419061,-0.22419061,0.46447721,-38.800186,76.525218)" /><path
         sodipodi:type="star"
         style="opacity:1;fill:#55ddff;fill-opacity:1;stroke:none;stroke-width:11.4225;stroke-linecap:square;stroke-miterlimit:4.7;stroke-dasharray:none"
         id="path26"
         inkscape:flatsided="false"
         sodipodi:sides="4"
         sodipodi:cx="184.55486"
         sodipodi:cy="15.909901"
         sodipodi:r1="15.306247"
         sodipodi:r2="7.6531234"
         sodipodi:arg1="0.26179939"
         sodipodi:arg2="1.0471976"
         inkscape:rounded="0"
         inkscape:randomized="0"
         d="m 199.33955,19.871449 -10.95813,2.666251 -7.78811,8.1569 -2.66625,-10.958138 -8.1569,-7.78811 10.95813,-2.6662508 7.78811,-8.1568996 2.66625,10.9581374 z"
         transform="matrix(0.34536895,0,0,0.34536895,2.8047282,121.36278)" /><path
         sodipodi:type="star"
         style="opacity:1;fill:#55ddff;fill-opacity:1;stroke:none;stroke-width:6.05385;stroke-linecap:square;stroke-miterlimit:4.7;stroke-dasharray:none"
         id="path27"
         inkscape:flatsided="false"
         sodipodi:sides="4"
         sodipodi:cx="184.55486"
         sodipodi:cy="15.909901"
         sodipodi:r1="15.306247"
         sodipodi:r2="7.6531234"
         sodipodi:arg1="0.26179939"
         sodipodi:arg2="1.0471976"
         inkscape:rounded="0"
         inkscape:randomized="0"
         d="m 199.33955,19.871449 -10.95813,2.666251 -7.78811,8.1569 -2.66625,-10.958138 -8.1569,-7.78811 10.95813,-2.6662508 7.78811,-8.1568996 2.66625,10.9581374 z"
         transform="matrix(0.49098325,-0.4284722,0.4284722,0.49098325,-37.713242,179.5917)" /><path
         sodipodi:type="star"
         style="opacity:1;fill:#55ddff;fill-opacity:1;stroke:none;stroke-width:13.1268;stroke-linecap:square;stroke-miterlimit:4.7;stroke-dasharray:none"
         id="path28"
         inkscape:flatsided="false"
         sodipodi:sides="4"
         sodipodi:cx="184.55486"
         sodipodi:cy="15.909901"
         sodipodi:r1="15.306247"
         sodipodi:r2="7.6531234"
         sodipodi:arg1="0.26179939"
         sodipodi:arg2="1.0471976"
         inkscape:rounded="0"
         inkscape:randomized="0"
         d="m 199.33955,19.871449 -10.95813,2.666251 -7.78811,8.1569 -2.66625,-10.958138 -8.1569,-7.78811 10.95813,-2.6662508 7.78811,-8.1568996 2.66625,10.9581374 z"
         transform="matrix(0.30053121,0,0,0.30053121,5.3908852,82.590452)" /><path
         sodipodi:type="star"
         style="opacity:1;fill:#55ddff;fill-opacity:1;stroke:none;stroke-width:21.4457;stroke-linecap:square;stroke-miterlimit:4.7;stroke-dasharray:none"
         id="path29"
         inkscape:flatsided="false"
         sodipodi:sides="4"
         sodipodi:cx="184.55486"
         sodipodi:cy="15.909901"
         sodipodi:r1="15.306247"
         sodipodi:r2="7.6531234"
         sodipodi:arg1="0.26179939"
         sodipodi:arg2="1.0471976"
         inkscape:rounded="0"
         inkscape:randomized="0"
         d="m 199.33955,19.871449 -10.95813,2.666251 -7.78811,8.1569 -2.66625,-10.958138 -8.1569,-7.78811 10.95813,-2.6662508 7.78811,-8.1568996 2.66625,10.9581374 z"
         transform="matrix(0.07085721,0.16975863,-0.16975863,0.07085721,63.870013,60.483229)" /><path
         sodipodi:type="star"
         style="opacity:1;fill:#55ddff;fill-opacity:1;stroke:none;stroke-width:21.4457;stroke-linecap:square;stroke-miterlimit:4.7;stroke-dasharray:none"
         id="path30"
         inkscape:flatsided="false"
         sodipodi:sides="4"
         sodipodi:cx="184.55486"
         sodipodi:cy="15.909901"
         sodipodi:r1="15.306247"
         sodipodi:r2="7.6531234"
         sodipodi:arg1="0.26179939"
         sodipodi:arg2="1.0471976"
         inkscape:rounded="0"
         inkscape:randomized="0"
         d="m 199.33955,19.871449 -10.95813,2.666251 -7.78811,8.1569 -2.66625,-10.958138 -8.1569,-7.78811 10.95813,-2.6662508 7.78811,-8.1568996 2.66625,10.9581374 z"
         transform="matrix(0.07085721,0.16975863,-0.16975863,0.07085721,35.182516,73.420728)" /><path
         sodipodi:type="star"
         style="opacity:1;fill:#55ddff;fill-opacity:1;stroke:none;stroke-width:16.8632;stroke-linecap:square;stroke-miterlimit:4.7;stroke-dasharray:none"
         id="path31"
         inkscape:flatsided="false"
         sodipodi:sides="4"
         sodipodi:cx="184.55486"
         sodipodi:cy="15.909901"
         sodipodi:r1="15.306247"
         sodipodi:r2="7.6531234"
         sodipodi:arg1="0.26179939"
         sodipodi:arg2="1.0471976"
         inkscape:rounded="0"
         inkscape:randomized="0"
         d="m 199.33955,19.871449 -10.95813,2.666251 -7.78811,8.1569 -2.66625,-10.958138 -8.1569,-7.78811 10.95813,-2.6662508 7.78811,-8.1568996 2.66625,10.9581374 z"
         transform="matrix(-0.16268109,0.16811741,-0.16811741,-0.16268109,107.31953,83.720445)" /><path
         sodipodi:type="star"
         style="opacity:1;fill:#55ddff;fill-opacity:1;stroke:none;stroke-width:7.649;stroke-linecap:square;stroke-miterlimit:4.7;stroke-dasharray:none"
         id="path32"
         inkscape:flatsided="false"
         sodipodi:sides="4"
         sodipodi:cx="184.55486"
         sodipodi:cy="15.909901"
         sodipodi:r1="15.306247"
         sodipodi:r2="7.6531234"
         sodipodi:arg1="0.26179939"
         sodipodi:arg2="1.0471976"
         inkscape:rounded="0"
         inkscape:randomized="0"
         d="m 199.33955,19.871449 -10.95813,2.666251 -7.78811,8.1569 -2.66625,-10.958138 -8.1569,-7.78811 10.95813,-2.6662508 7.78811,-8.1568996 2.66625,10.9581374 z"
         transform="matrix(-0.46447721,0.22419061,0.22419061,0.46447721,224.57638,75.466884)" /><path
         sodipodi:type="star"
         style="opacity:1;fill:#55ddff;fill-opacity:1;stroke:none;stroke-width:11.4225;stroke-linecap:square;stroke-miterlimit:4.7;stroke-dasharray:none"
         id="path33"
         inkscape:flatsided="false"
         sodipodi:sides="4"
         sodipodi:cx="184.55486"
         sodipodi:cy="15.909901"
         sodipodi:r1="15.306247"
         sodipodi:r2="7.6531234"
         sodipodi:arg1="0.26179939"
         sodipodi:arg2="1.0471976"
         inkscape:rounded="0"
         inkscape:randomized="0"
         d="m 199.33955,19.871449 -10.95813,2.666251 -7.78811,8.1569 -2.66625,-10.958138 -8.1569,-7.78811 10.95813,-2.6662508 7.78811,-8.1568996 2.66625,10.9581374 z"
         transform="matrix(-0.34536895,0,0,0.34536895,182.97147,120.30445)" /><path
         sodipodi:type="star"
         style="opacity:1;fill:#55ddff;fill-opacity:1;stroke:none;stroke-width:6.05385;stroke-linecap:square;stroke-miterlimit:4.7;stroke-dasharray:none"
         id="path34"
         inkscape:flatsided="false"
         sodipodi:sides="4"
         sodipodi:cx="184.55486"
         sodipodi:cy="15.909901"
         sodipodi:r1="15.306247"
         sodipodi:r2="7.6531234"
         sodipodi:arg1="0.26179939"
         sodipodi:arg2="1.0471976"
         inkscape:rounded="0"
         inkscape:randomized="0"
         d="m 199.33955,19.871449 -10.95813,2.666251 -7.78811,8.1569 -2.66625,-10.958138 -8.1569,-7.78811 10.95813,-2.6662508 7.78811,-8.1568996 2.66625,10.9581374 z"
         transform="matrix(-0.49098325,-0.4284722,-0.4284722,0.49098325,223.48944,178.53336)" /><path
         sodipodi:type="star"
         style="opacity:1;fill:#55ddff;fill-opacity:1;stroke:none;stroke-width:13.1268;stroke-linecap:square;stroke-miterlimit:4.7;stroke-dasharray:none"
         id="path35"
         inkscape:flatsided="false"
         sodipodi:sides="4"
         sodipodi:cx="184.55486"
         sodipodi:cy="15.909901"
         sodipodi:r1="15.306247"
         sodipodi:r2="7.6531234"
         sodipodi:arg1="0.26179939"
         sodipodi:arg2="1.0471976"
         inkscape:rounded="0"
         inkscape:randomized="0"
         d="m 199.33955,19.871449 -10.95813,2.666251 -7.78811,8.1569 -2.66625,-10.958138 -8.1569,-7.78811 10.95813,-2.6662508 7.78811,-8.1568996 2.66625,10.9581374 z"
         transform="matrix(-0.30053121,0,0,0.30053121,180.38531,81.532118)" /><path
         sodipodi:type="star"
         style="opacity:1;fill:#55ddff;fill-opacity:1;stroke:none;stroke-width:21.4457;stroke-linecap:square;stroke-miterlimit:4.7;stroke-dasharray:none"
         id="path36"
         inkscape:flatsided="false"
         sodipodi:sides="4"
         sodipodi:cx="184.55486"
         sodipodi:cy="15.909901"
         sodipodi:r1="15.306247"
         sodipodi:r2="7.6531234"
         sodipodi:arg1="0.26179939"
         sodipodi:arg2="1.0471976"
         inkscape:rounded="0"
         inkscape:randomized="0"
         d="m 199.33955,19.871449 -10.95813,2.666251 -7.78811,8.1569 -2.66625,-10.958138 -8.1569,-7.78811 10.95813,-2.6662508 7.78811,-8.1568996 2.66625,10.9581374 z"
         transform="matrix(-0.07085721,0.16975863,0.16975863,0.07085721,121.90618,59.424895)" /><path
         sodipodi:type="star"
         style="opacity:1;fill:#55ddff;fill-opacity:1;stroke:none;stroke-width:21.4457;stroke-linecap:square;stroke-miterlimit:4.7;stroke-dasharray:none"
         id="path37"
         inkscape:flatsided="false"
         sodipodi:sides="4"
         sodipodi:cx="184.55486"
         sodipodi:cy="15.909901"
         sodipodi:r1="15.306247"
         sodipodi:r2="7.6531234"
         sodipodi:arg1="0.26179939"
         sodipodi:arg2="1.0471976"
         inkscape:rounded="0"
         inkscape:randomized="0"
         d="m 199.33955,19.871449 -10.95813,2.666251 -7.78811,8.1569 -2.66625,-10.958138 -8.1569,-7.78811 10.95813,-2.6662508 7.78811,-8.1568996 2.66625,10.9581374 z"
         transform="matrix(-0.07085721,0.16975863,0.16975863,0.07085721,150.59368,72.362394)" /><path
         sodipodi:type="star"
         style="opacity:1;fill:#55ddff;fill-opacity:1;stroke:none;stroke-width:16.8632;stroke-linecap:square;stroke-miterlimit:4.7;stroke-dasharray:none"
         id="path38"
         inkscape:flatsided="false"
         sodipodi:sides="4"
         sodipodi:cx="184.55486"
         sodipodi:cy="15.909901"
         sodipodi:r1="15.306247"
         sodipodi:r2="7.6531234"
         sodipodi:arg1="0.26179939"
         sodipodi:arg2="1.0471976"
         inkscape:rounded="0"
         inkscape:randomized="0"
         d="m 199.33955,19.871449 -10.95813,2.666251 -7.78811,8.1569 -2.66625,-10.958138 -8.1569,-7.78811 10.95813,-2.6662508 7.78811,-8.1568996 2.66625,10.9581374 z"
         transform="matrix(0.16268109,0.16811741,0.16811741,-0.16268109,78.456678,82.662111)" /><path
         id="path39"
         style="opacity:1;fill:#007e9e;fill-opacity:1;stroke:none;stroke-width:3.94499;stroke-linecap:square;stroke-miterlimit:4.7;stroke-dasharray:none"
         d="m 94.280575,36.003088 a 32.440652,32.440652 0 0 0 -6.846558,19.933438 32.440652,32.440652 0 0 0 0.444717,5.352627 l -5.0547,1.589198 1.9642,14.801664 3.345118,-7.280017 h 2.703375 a 32.440652,32.440652 0 0 0 2.304992,3.914111 32.440652,32.440652 0 0 0 2.615471,-3.914111 h 3.088334 l 3.345116,7.280017 1.9642,-14.801664 -4.920024,-1.546764 a 32.440652,32.440652 0 0 0 0.753463,-6.950481 32.440652,32.440652 0 0 0 -5.707704,-18.378018 z m -0.2806,12.823167 a 1.9442171,1.9442171 0 0 1 1.944281,1.94429 1.9442171,1.9442171 0 0 1 -1.944281,1.943845 1.9442171,1.9442171 0 0 1 -1.944283,-1.943845 1.9442171,1.9442171 0 0 1 1.944283,-1.94429 z m 0,0.981673 a 0.96223919,0.96223919 0 0 0 -0.962182,0.962617 0.96223919,0.96223919 0 0 0 0.962182,0.962181 0.96223919,0.96223919 0 0 0 0.962181,-0.962181 0.96223919,0.96223919 0 0 0 -0.962181,-0.962617 z" /></g></g></svg>
