<?xml version="1.0" encoding="UTF-8" standalone="no"?>
<!-- Created with Inkscape (http://www.inkscape.org/) -->

<svg
   width="1080"
   height="1080"
   viewBox="0 0 285.74997 285.74997"
   version="1.1"
   id="svg1"
   inkscape:version="1.4.2 (f4327f4, 2025-05-13)"
   sodipodi:docname="93.svg"
   xml:space="preserve"
   xmlns:inkscape="http://www.inkscape.org/namespaces/inkscape"
   xmlns:sodipodi="http://sodipodi.sourceforge.net/DTD/sodipodi-0.dtd"
   xmlns="http://www.w3.org/2000/svg"
   xmlns:svg="http://www.w3.org/2000/svg"><sodipodi:namedview
     id="namedview1"
     pagecolor="#ffffff"
     bordercolor="#000000"
     borderopacity="0.25"
     inkscape:showpageshadow="2"
     inkscape:pageopacity="0.0"
     inkscape:pagecheckerboard="0"
     inkscape:deskcolor="#3c3c3c"
     inkscape:document-units="px"
     inkscape:zoom="0.58042029"
     inkscape:cx="263.60209"
     inkscape:cy="578.89086"
     inkscape:window-width="1920"
     inkscape:window-height="991"
     inkscape:window-x="-9"
     inkscape:window-y="-9"
     inkscape:window-maximized="1"
     inkscape:current-layer="layer1" /><defs
     id="defs1"><inkscape:path-effect
       effect="fillet_chamfer"
       id="path-effect7"
       is_visible="true"
       lpeversion="1"
       nodesatellites_param="F,0,0,1,0,10.959536,0,1 @ F,0,0,1,0,0,0,1 @ F,0,0,1,0,0,0,1 @ F,0,0,1,0,0,0,1 @ F,0,0,1,0,0,0,1 @ F,0,0,1,0,0,0,1 @ F,0,0,1,0,0,0,1 @ F,0,0,1,0,0,0,1 @ F,0,0,1,0,0,0,1 @ F,0,0,1,0,0,0,1 @ F,0,0,1,0,0,0,1"
       radius="0"
       unit="px"
       method="auto"
       mode="F"
       chamfer_steps="1"
       flexible="false"
       use_knot_distance="true"
       apply_no_radius="true"
       apply_with_radius="true"
       only_selected="false"
       hide_knots="false" /><inkscape:path-effect
       effect="fillet_chamfer"
       id="path-effect1"
       is_visible="true"
       lpeversion="1"
       nodesatellites_param="C,0,0,1,0,45.584779,0,1 @ F,0,0,1,0,37.379523,0,1 @ F,0,0,1,0,82.964302,0,1 @ F,0,0,1,0,0,0,1"
       radius="0"
       unit="px"
       method="auto"
       mode="F"
       chamfer_steps="1"
       flexible="false"
       use_knot_distance="true"
       apply_no_radius="true"
       apply_with_radius="true"
       only_selected="false"
       hide_knots="false" /></defs><g
     inkscape:label="Capa1"
     inkscape:groupmode="layer"
     id="layer1"
     style="display:inline;opacity:1;mix-blend-mode:multiply"><g
       id="g7"
       transform="translate(-1.895e-4,1.86e-4)"><path
         id="rect1"
         style="fill:#000000;stroke:none;stroke-width:2.64583;stroke-linecap:round;stroke-linejoin:round;stroke-miterlimit:4.7;paint-order:stroke markers fill"
         d="m 105.55019,70.829688 a 7.8299505,7.8299505 0 0 0 -7.829955,7.829952 h -30.40198 v 21.65198 c -16.82463,7.47211 -27.668809,24.15374 -27.668806,42.56299 h 27.668806 18.90294 56.653795 V 86.489221 78.65964 70.829688 Z m 37.32517,0 v 7.829952 7.829581 56.385389 h 56.65379 18.90294 27.66881 c 0,-18.40925 -10.84417,-35.09088 -27.66881,-42.56299 V 78.65964 h -30.40197 a 7.8299505,7.8299505 0 0 0 -7.82995,-7.829952 z M 39.649449,142.87498 c -3e-6,18.40925 10.844176,35.09088 27.668806,42.563 v 21.65198 h 30.40198 a 7.8299505,7.8299505 0 0 0 7.829955,7.82995 h 37.3248 v -7.82995 -7.82958 -56.38539 H 86.221195 67.318255 Z m 103.225911,0 v 56.38539 7.82958 7.82995 h 37.32481 a 7.8299505,7.8299505 0 0 0 7.82995,-7.82995 h 30.40197 v -21.65197 c 16.82464,-7.47211 27.66881,-24.15374 27.66881,-42.563 h -27.66881 -18.90294 z" /><path
         id="path7"
         style="fill:#000000;stroke:#ffffff;stroke-width:2.64583;stroke-linecap:round;stroke-linejoin:round;stroke-miterlimit:4.7;paint-order:stroke markers fill"
         d="m 179.69727,75.591797 c -24.8913,0.0051 -49.78267,-0.01604 -74.67383,0.08203 -1.77769,0.289054 -2.7515,2.215227 -2.65625,3.884766 -0.59801,2.703564 -3.600637,4.261396 -6.219143,3.873014 -7.97018,0.0039 -15.948708,-0.01822 -23.913672,0.002 -0.366093,0.645607 -0.05221,1.473312 -0.158278,2.187889 -0.03016,5.350582 0.160558,10.716497 -0.253831,16.054294 -0.73648,2.27782 -3.105181,3.27919 -5.091987,4.22313 -11.3907,5.95688 -19.748626,17.43329 -21.73813,30.1541 -1.161842,7.06266 -0.510687,14.40048 1.953704,21.15385 2.516938,6.958 7.10619,13.36546 12.866394,18.0551 2.863965,2.36607 6.066388,4.29809 9.429957,5.86141 1.479421,0.75011 2.590752,2.19792 2.723754,3.87704 0.305784,2.22295 -0.02433,4.47019 0.10509,6.7035 0.0089,3.48863 -0.0031,6.98279 0.0188,10.46797 0.650545,0.36288 1.473848,0.0517 2.191797,0.15429 8.200204,0.0363 16.409694,-0.12695 24.603125,0.18555 2.3322,0.67709 3.6857,3.13934 3.76757,5.45508 0.55877,1.83701 2.76135,2.51668 4.49063,2.16992 24.45039,0.002 48.90078,0.002 73.35117,-0.002 1.72766,-0.18465 2.9654,-1.9451 2.82813,-3.62696 0.3992,-2.73102 3.29585,-4.48209 5.9246,-4.22848 8.08793,0.0793 16.18201,0.0303 24.2668,0.039 0.36296,-0.65055 0.0516,-1.47385 0.15379,-2.1918 0.0338,-5.34733 -0.1494,-10.70975 0.25637,-16.04453 0.73302,-2.27664 3.09699,-3.28731 5.08993,-4.2155 3.85409,-2.01895 7.39465,-4.69677 10.35945,-7.75813 5.46713,-5.61231 9.36428,-12.7048 11.02164,-20.3927 1.7533,-8.16553 0.99949,-16.83721 -2.14485,-24.57508 -2.80337,-6.99434 -7.67435,-13.2532 -13.754,-17.7759 -2.5697,-1.95211 -5.32757,-3.48787 -8.23428,-4.8491 -1.76312,-1.01448 -2.76271,-3.08419 -2.57521,-5.095686 -0.008,-5.279903 -0.008,-10.565295 -0.0264,-15.841806 -0.65055,-0.362881 -1.47385,-0.05167 -2.1918,-0.154297 -8.16782,-0.02778 -16.34275,0.09585 -24.50547,-0.158203 -2.38715,-0.638108 -3.78859,-3.148376 -3.86719,-5.5 -0.42094,-1.417163 -1.96152,-2.304658 -3.39843,-2.173828 z" /></g></g></svg>
